/* XPM */
static char * 1_xpm[] = {
"11 12 12 1",
" 	c None",
".	c #000000",
"+	c #DFDFDF",
"@	c #DBDBDB",
"#	c #D3D3D3",
"$	c #C7C7C7",
"%	c #BFBFBF",
"&	c #B7B7B7",
"*	c #B3B3B3",
"=	c #A7A7A7",
"-	c #9F9F9F",
";	c #232323",
"     ;;;;  ",
"    ;---;  ",
"   ;----;  ",
"  ;=====;  ",
"  ;;;***;  ",
"    ;&&&;  ",
"    ;%%%;  ",
"    ;$$$;  ",
"    ;###;  ",
"    ;@@@;  ",
"    ;+++;  ",
"    ;;;;;  "};
