/* XPM */
static char * A1_xpm[] = {
"48 93 611 2",
"  	c None",
". 	c #584442",
"+ 	c #846B66",
"@ 	c #846A66",
"# 	c #745D5A",
"$ 	c #65514E",
"% 	c #754F4A",
"& 	c #464244",
"* 	c #655857",
"= 	c #866F6D",
"- 	c #8B766F",
"; 	c #7E5F5A",
"> 	c #252B2E",
", 	c #473C3B",
"' 	c #6F413C",
") 	c #795550",
"! 	c #78544F",
"~ 	c #8A746D",
"{ 	c #87716A",
"] 	c #302726",
"^ 	c #725350",
"/ 	c #866E68",
"( 	c #877069",
"_ 	c #846B65",
": 	c #866F69",
"< 	c #4A3837",
"[ 	c #6B5452",
"} 	c #5E3D36",
"| 	c #856B67",
"1 	c #3C1D1B",
"2 	c #311512",
"3 	c #6A514D",
"4 	c #816964",
"5 	c #705E5D",
"6 	c #331715",
"7 	c #1C0A07",
"8 	c #4B3937",
"9 	c #5E4744",
"0 	c #644F4D",
"a 	c #75615C",
"b 	c #191313",
"c 	c #393231",
"d 	c #211A18",
"e 	c #2B1210",
"f 	c #100605",
"g 	c #5A4744",
"h 	c #5F4441",
"i 	c #3D2C2B",
"j 	c #3C3231",
"k 	c #000000",
"l 	c #4F3937",
"m 	c #26100E",
"n 	c #473736",
"o 	c #3A2A28",
"p 	c #3A2C2B",
"q 	c #100C0C",
"r 	c #180C0B",
"s 	c #433230",
"t 	c #372523",
"u 	c #3C2C2B",
"v 	c #302120",
"w 	c #210C0A",
"x 	c #341F1D",
"y 	c #443332",
"z 	c #3C2E2D",
"A 	c #362624",
"B 	c #574944",
"C 	c #352422",
"D 	c #100000",
"E 	c #0A0101",
"F 	c #0B0504",
"G 	c #251919",
"H 	c #200C0A",
"I 	c #2D1715",
"J 	c #2E1F1E",
"K 	c #524240",
"L 	c #574440",
"M 	c #5C4642",
"N 	c #3F2D2B",
"O 	c #2A201F",
"P 	c #3A2D2B",
"Q 	c #816460",
"R 	c #72524C",
"S 	c #2C2425",
"T 	c #261312",
"U 	c #140502",
"V 	c #382A29",
"W 	c #382B29",
"X 	c #675E54",
"Y 	c #EFE2A1",
"Z 	c #1D0000",
"` 	c #1A0000",
" .	c #5B3D3D",
"..	c #543437",
"+.	c #948689",
"@.	c #716D6D",
"#.	c #7C6D6B",
"$.	c #725C59",
"%.	c #635453",
"&.	c #322322",
"*.	c #332625",
"=.	c #534440",
"-.	c #0D0000",
";.	c #160502",
">.	c #837A7B",
",.	c #4E4444",
"'.	c #161515",
").	c #645D5D",
"!.	c #8C8080",
"~.	c #6D6A6A",
"{.	c #686061",
"].	c #625150",
"^.	c #826864",
"/.	c #241412",
"(.	c #403431",
"_.	c #030000",
":.	c #070707",
"<.	c #443433",
"[.	c #77615D",
"}.	c #7D6862",
"|.	c #4D3B3B",
"1.	c #7A615D",
"2.	c #4E4A4C",
"3.	c #221615",
"4.	c #0D0201",
"5.	c #170C0B",
"6.	c #615E54",
"7.	c #787169",
"8.	c #212020",
"9.	c #090606",
"0.	c #725D59",
"a.	c #725C58",
"b.	c #775B57",
"c.	c #755753",
"d.	c #4C3D3C",
"e.	c #604C4B",
"f.	c #655553",
"g.	c #0B0A0A",
"h.	c #0F0202",
"i.	c #494648",
"j.	c #0A0A0A",
"k.	c #181212",
"l.	c #66524F",
"m.	c #6A5652",
"n.	c #69514E",
"o.	c #755A56",
"p.	c #775E5A",
"q.	c #735956",
"r.	c #3D3230",
"s.	c #4D3E3B",
"t.	c #3D1C18",
"u.	c #0B0000",
"v.	c #5B5454",
"w.	c #8C7D7E",
"x.	c #1F1C1C",
"y.	c #0C0909",
"z.	c #5B4947",
"A.	c #735C59",
"B.	c #644D4B",
"C.	c #6F5652",
"D.	c #775E5B",
"E.	c #755855",
"F.	c #654C49",
"G.	c #382E2B",
"H.	c #413230",
"I.	c #2E0B09",
"J.	c #120000",
"K.	c #010000",
"L.	c #232222",
"M.	c #302A2A",
"N.	c #312625",
"O.	c #6A5D5B",
"P.	c #71524F",
"Q.	c #644D4A",
"R.	c #77605D",
"S.	c #816A65",
"T.	c #392523",
"U.	c #291E1C",
"V.	c #453634",
"W.	c #635F5F",
"X.	c #110402",
"Y.	c #170A08",
"Z.	c #3A2829",
"`.	c #4E3E3E",
" +	c #8C605B",
".+	c #8C7D7C",
"++	c #7A625E",
"@+	c #503E3C",
"#+	c #463635",
"$+	c #493A39",
"%+	c #503D3B",
"&+	c #0C0000",
"*+	c #100807",
"=+	c #2E0000",
"-+	c #595557",
";+	c #020000",
">+	c #816467",
",+	c #5F4B4B",
"'+	c #B09A9B",
")+	c #876F6F",
"!+	c #6C4E49",
"~+	c #292727",
"{+	c #1F1413",
"]+	c #100502",
"^+	c #130301",
"/+	c #050000",
"(+	c #3E0000",
"_+	c #71423C",
":+	c #2D2B2C",
"<+	c #4F4C4C",
"[+	c #837879",
"}+	c #BFA3A5",
"|+	c #9C8C8F",
"1+	c #817778",
"2+	c #181717",
"3+	c #1C1B1B",
"4+	c #060606",
"5+	c #1E0000",
"6+	c #4B0000",
"7+	c #B3858A",
"8+	c #706869",
"9+	c #7E7475",
"0+	c #766F70",
"a+	c #423E3F",
"b+	c #4E4343",
"c+	c #444243",
"d+	c #3C3A3B",
"e+	c #111010",
"f+	c #1A1919",
"g+	c #020202",
"h+	c #51231C",
"i+	c #7C696A",
"j+	c #746C6D",
"k+	c #6C6060",
"l+	c #8B8081",
"m+	c #42231E",
"n+	c #331C18",
"o+	c #59423E",
"p+	c #594442",
"q+	c #54413F",
"r+	c #140E0C",
"s+	c #4B4748",
"t+	c #6A6465",
"u+	c #686263",
"v+	c #656061",
"w+	c #726B6C",
"x+	c #322728",
"y+	c #3B3534",
"z+	c #23110D",
"A+	c #030101",
"B+	c #644F4C",
"C+	c #6D5855",
"D+	c #58423F",
"E+	c #130403",
"F+	c #6E6869",
"G+	c #6F696A",
"H+	c #7D7374",
"I+	c #2B2929",
"J+	c #645E5F",
"K+	c #615657",
"L+	c #595354",
"M+	c #5F5B5C",
"N+	c #1C0D0A",
"O+	c #1E1513",
"P+	c #715A57",
"Q+	c #6A5350",
"R+	c #604C49",
"S+	c #553A37",
"T+	c #271D1C",
"U+	c #696263",
"V+	c #7F7476",
"W+	c #222020",
"X+	c #524D4E",
"Y+	c #595555",
"Z+	c #655F60",
"`+	c #686161",
" @	c #4F4B4A",
".@	c #484445",
"+@	c #231614",
"@@	c #715A58",
"#@	c #664F4C",
"$@	c #68524F",
"%@	c #311211",
"&@	c #201615",
"*@	c #565253",
"=@	c #645F60",
"-@	c #483E3F",
";@	c #2B1111",
">@	c #615050",
",@	c #3B3838",
"'@	c #635D5E",
")@	c #605B5C",
"!@	c #534E4F",
"~@	c #514C4D",
"{@	c #333030",
"]@	c #5B4745",
"^@	c #705956",
"/@	c #5A4441",
"(@	c #180604",
"_@	c #100F0F",
":@	c #564A4B",
"<@	c #6C6667",
"[@	c #635E5F",
"}@	c #766263",
"|@	c #5B5859",
"1@	c #706A6B",
"2@	c #4B4848",
"3@	c #666162",
"4@	c #494545",
"5@	c #4A4546",
"6@	c #171515",
"7@	c #6C5552",
"8@	c #543C3A",
"9@	c #36201E",
"0@	c #160807",
"a@	c #7D5D5F",
"b@	c #675A5B",
"c@	c #6C6465",
"d@	c #564F50",
"e@	c #6B5354",
"f@	c #514B4C",
"g@	c #554E4F",
"h@	c #635B5C",
"i@	c #766D6E",
"j@	c #423839",
"k@	c #484343",
"l@	c #2E2626",
"m@	c #0E0301",
"n@	c #6C5654",
"o@	c #47322F",
"p@	c #170603",
"q@	c #715858",
"r@	c #4A3536",
"s@	c #604F50",
"t@	c #565151",
"u@	c #625758",
"v@	c #030303",
"w@	c #383535",
"x@	c #756D6E",
"y@	c #797071",
"z@	c #0C0A09",
"A@	c #310807",
"B@	c #2E0908",
"C@	c #5F4A48",
"D@	c #594443",
"E@	c #675250",
"F@	c #2C1D1C",
"G@	c #0B0605",
"H@	c #210404",
"I@	c #7E7375",
"J@	c #635859",
"K@	c #6F6263",
"L@	c #170708",
"M@	c #1A1616",
"N@	c #2D2B2B",
"O@	c #1A0908",
"P@	c #050404",
"Q@	c #78615D",
"R@	c #382D2C",
"S@	c #6B5654",
"T@	c #171111",
"U@	c #655051",
"V@	c #675F60",
"W@	c #635354",
"X@	c #120F0D",
"Y@	c #4A3A3A",
"Z@	c #604B49",
"`@	c #503A38",
" #	c #45312F",
".#	c #483937",
"+#	c #0B0908",
"@#	c #190E0C",
"##	c #150000",
"$#	c #240707",
"%#	c #856768",
"&#	c #080707",
"*#	c #42201B",
"=#	c #432826",
"-#	c #2E1412",
";#	c #220E0D",
">#	c #270100",
",#	c #080000",
"'#	c #090101",
")#	c #1C1818",
"!#	c #1B1919",
"~#	c #2E2D2D",
"{#	c #231C1B",
"]#	c #2F1F1D",
"^#	c #181211",
"/#	c #1B1A1A",
"(#	c #160F0F",
"_#	c #241615",
":#	c #140807",
"<#	c #1C1615",
"[#	c #53413E",
"}#	c #231210",
"|#	c #0C0807",
"1#	c #1C1110",
"2#	c #2F1D1B",
"3#	c #3A2524",
"4#	c #806B69",
"5#	c #1B0F0E",
"6#	c #332827",
"7#	c #AA9596",
"8#	c #AB9597",
"9#	c #9A888A",
"0#	c #968889",
"a#	c #7C6E6E",
"b#	c #948788",
"c#	c #827878",
"d#	c #262223",
"e#	c #171212",
"f#	c #2B1D1C",
"g#	c #625E5F",
"h#	c #8F8182",
"i#	c #988889",
"j#	c #B79E9F",
"k#	c #A89495",
"l#	c #A79495",
"m#	c #B3999B",
"n#	c #AE8283",
"o#	c #110A09",
"p#	c #413736",
"q#	c #585555",
"r#	c #817677",
"s#	c #766B6C",
"t#	c #938587",
"u#	c #958788",
"v#	c #787172",
"w#	c #190000",
"x#	c #5C3F40",
"y#	c #8C7F81",
"z#	c #604C4C",
"A#	c #52221B",
"B#	c #5E5B5C",
"C#	c #5A5253",
"D#	c #686162",
"E#	c #736B6C",
"F#	c #877C7D",
"G#	c #8D8182",
"H#	c #A59293",
"I#	c #790000",
"J#	c #908384",
"K#	c #908485",
"L#	c #512D27",
"M#	c #240E0D",
"N#	c #261F1E",
"O#	c #605C5D",
"P#	c #454040",
"Q#	c #B3787A",
"R#	c #6B0000",
"S#	c #5B0000",
"T#	c #9E8D90",
"U#	c #7B6966",
"V#	c #181514",
"W#	c #454242",
"X#	c #696364",
"Y#	c #867B7C",
"Z#	c #AC9798",
"`#	c #615D5E",
" $	c #0A0000",
".$	c #1D0A07",
"+$	c #20110E",
"@$	c #3F3B3C",
"#$	c #464343",
"$$	c #7F7576",
"%$	c #6D6667",
"&$	c #83797A",
"*$	c #6B5454",
"=$	c #4E4B4B",
"-$	c #454142",
";$	c #756E6F",
">$	c #584647",
",$	c #120604",
"'$	c #080201",
")$	c #575253",
"!$	c #4A4646",
"~$	c #8B7E7F",
"{$	c #725959",
"]$	c #877D7E",
"^$	c #1F0B08",
"/$	c #64261D",
"($	c #776F70",
"_$	c #7B7172",
":$	c #7B7273",
"<$	c #6C5859",
"[$	c #797172",
"}$	c #090000",
"|$	c #060000",
"1$	c #110E0E",
"2$	c #AD9899",
"3$	c #A49193",
"4$	c #827071",
"5$	c #857A7B",
"6$	c #676162",
"7$	c #615C5C",
"8$	c #86797A",
"9$	c #AB9697",
"0$	c #92696A",
"a$	c #3A0F0F",
"b$	c #9D8587",
"c$	c #998A8B",
"d$	c #7C7475",
"e$	c #3A3636",
"f$	c #625C5D",
"g$	c #6B6566",
"h$	c #575354",
"i$	c #3D3A3A",
"j$	c #151111",
"k$	c #7E7576",
"l$	c #A08F91",
"m$	c #440809",
"n$	c #A08B8C",
"o$	c #A39091",
"p$	c #918485",
"q$	c #2E2B2B",
"r$	c #423E3E",
"s$	c #575455",
"t$	c #4D4849",
"u$	c #A28D8E",
"v$	c #A49192",
"w$	c #948586",
"x$	c #585253",
"y$	c #9B8889",
"z$	c #A69394",
"A$	c #463838",
"B$	c #524F50",
"C$	c #907879",
"D$	c #A79394",
"E$	c #3D393A",
"F$	c #464243",
"G$	c #4D4A4B",
"H$	c #4E4A4B",
"I$	c #330000",
"J$	c #865F60",
"K$	c #887C7D",
"L$	c #2B2121",
"M$	c #535050",
"N$	c #282523",
"O$	c #282424",
"P$	c #652828",
"Q$	c #A99596",
"R$	c #A18F90",
"S$	c #54312B",
"T$	c #C0A0A2",
"U$	c #6E6768",
"V$	c #240000",
"W$	c #846062",
"X$	c #C58D8F",
"Y$	c #B2999A",
"Z$	c #A99495",
"`$	c #9F8E90",
" %	c #544344",
".%	c #AC9899",
"+%	c #928687",
"@%	c #211A1A",
"#%	c #A47172",
"$%	c #918385",
"%%	c #B79D9F",
"&%	c #705F5F",
"*%	c #494646",
"=%	c #AE9899",
"-%	c #BA9FA1",
";%	c #847879",
">%	c #290000",
",%	c #393535",
"'%	c #A39193",
")%	c #A28F90",
"!%	c #140000",
"~%	c #7A7172",
"{%	c #8D8081",
"]%	c #585455",
"^%	c #938687",
"/%	c #83797B",
"(%	c #282626",
"_%	c #110504",
":%	c #302524",
"<%	c #271A19",
"[%	c #070403",
"}%	c #29110F",
"|%	c #100C0B",
"1%	c #554241",
"2%	c #281A19",
"3%	c #160E0E",
"4%	c #190906",
"5%	c #0B0201",
"6%	c #574847",
"7%	c #332928",
"8%	c #221514",
"9%	c #210E0C",
"0%	c #211717",
"a%	c #090504",
"b%	c #28100E",
"c%	c #2B1A19",
"d%	c #6D5654",
"e%	c #331B19",
"f%	c #6E5855",
"g%	c #4E3C3A",
"h%	c #201A19",
"i%	c #5E4A48",
"j%	c #594543",
"k%	c #4F3C3A",
"l%	c #110706",
"m%	c #2B1E1D",
"n%	c #18110F",
"o%	c #4A3735",
"p%	c #120B0B",
"q%	c #372927",
"r%	c #271C1A",
"s%	c #231B18",
"t%	c #854D47",
"                                            . + @ #                                             ",
"                                        $ % % & * = - @                                         ",
"                                        + ; ; * & > - + ,                                       ",
"                                      @ ' ) ! % ; ; ~ { $ ]                                     ",
"                                      + ^ ' / ( _ ; { : $ <                                     ",
"                                      / [ } | / / = { / $ .                                     ",
"                                      1 2 3 4 / ( + + / 5 ]                                     ",
"                                      6 7 8 9 0 a < b # c d                                     ",
"                                      e f g h i < < < j k k                                     ",
"                                . e . l m n k o p q k r s t                                     ",
"                            $ u v w . x y z k A k B C D E F                                     ",
"                            G H < e e I J K k L M D D D D N                                     ",
"                        O P Q @ R # > S T U V W D D X Y Z `                                     ",
"                       ...+.@.#.$.+ %.> w &.*.=.D -.k k ;.                                      ",
"                  >.,.'.).!.@.~.{.].^.# $ u /.(.D _.k k D                                       ",
"                  :.k k <.[./ @ }.|.1.2.3.4.5.k D k 6.7.D                                       ",
"                8.k k 9.0.a.b.c.# d.e.j @.f.u k k k g.h.                                        ",
"              i.j.k k.l.m.n.o.p.q.r.s.t.u.>.v.k k k g.g.                                        ",
"              w.x.y.z.A.B.C.D.E.F.G.H.I.J.k K.2.r . / w L.                                      ",
"              M.&.N.O.P.Q.R.S.A.T.U.V.1 e ;.k k W.$ k X.Y.k                                     ",
"                Z.`. +.+++@+$ ;.#+$+%+&+k k k *+=+-+k ;+;.k                                     ",
"                >+,+'+)+!+W.~+;+{+]+&+^+;.w w /+(+_+=+:+k k                                     ",
"                <+[+}+'+|+1+W.2+3+4+k k k k k 5+6+7+8+9+0+5+                                    ",
"                a+b+W.W.c+2.d+k e+f+g+k k k _.u.h+i+j+k+l+m+n+o+                                ",
"                  # p+q+/+v k r+0+s+'.k k K.D _.t+u+v+t+w+t+x+y+z+A+                            ",
"                B+# C+D+E+< k m+F+G+H+k k D _.I+t+J+K+L+M+t+k N+O+z+k                           ",
"                P+Q+R+S+w T+k _+U+u+V+W+k K.k X+Y+Z+`+ @.@I+k A+z+A+k k                         ",
"              +@@@#@$@%@&@k k K.*@=@-@;@5+k >@,@'@)@!@~@{@k k K.k ;+k k k                       ",
"              ]@^@/@/@(@k _@-+n+:@<@[@}@=+|@1@2@J+3@4@5@{@6@k k   k k k k ;+k                   ",
"              7@P+8@9@0@k _@|+a@b@c@d@e@D t+f@g@h@i@j@k@l@W+k k   k k k k X.m@k                 ",
"              n@# o@p@k k k q@q@r@s@t@u@v@0+w@x@y@t+x+z@k k k k         k ;+;.w A@B@w           ",
"            C@D@E@F@;.G@k k =+(+H@I@J@K@L@M@N@[+0+0+k k k k k k               k _.w O@k         ",
"          P@Q@R@S@T@*+k k k 5+(+5+U@V@W@=+X@X@<+k@Y@k k k M@k k                 k u.k k k       ",
"          Z@`@ #.#+#k     k k @###$#%#&#k *#|+k k k K.K.k k k k                   ;.k k k J.k   ",
"        t.=#-#w k k         k D _.k X@k k m@W.k k k K.k k X@K.k                     k m@0@k ;#  ",
"        k 0@>#,#k           k k k k k k k k W.k k k k k O+k K.k                     k _.,#k 3.  ",
"      k k k 1 k k           r k *+'#k k k )#c+k k k k k k k                           k k K.&+  ",
"      k !#w w k k           k &@&+v *+k k ~#2+k k {#_.k ;+G@                            /+u.e < ",
"      &+4.A@;.k             ;./+;.;.;.k k g.g.K.k k /+k k k                               >#w   ",
"      &+] 1 ;+              ;.;.]#5 . '#k ^#/#&+&+&+] )#k k                               e     ",
"    k ;.] k k               v < . < < >#&+(#u $ _#:#3.:#k <#{#                                  ",
"    k w ] k k             v [## e v /+J.w u }#. 3.3.v 3.|#;+1#{#                                ",
"    J.>#, k             2#3#+ { . u ;.$ 4#$ ] w r r ;+5#3.;+3.6#u                               ",
"    e 6 &+            |@7#8#9#0#a#b#c#f.# f.j ;+&+d#c+e#&+/+f#3.k                               ",
"    >#u ;+            g#h#i#j#k#l#m#n#z+o#D [+p#g.c+q#-+Z k v ;.k                               ",
"    /+3.;+            v+r#s#[+t#u#v#5+w#D x#0+[+|+y#[+[+z#A#A#D O+                              ",
"    /+*+k             B#C#D#E#F#G#H#I#D D |+[+J#|+|+|+K#_+_+_+L#K#                              ",
"  M#u.k N#            O#P#a+0+K#[+K#Q#R#S#|+0+|+T#'+|+'+|+|+U#t+i#0+                            ",
"  u.J.w , V#          W#{@<+X#Y#K#H#'+(+S#'+0+|+Z#'+|+|+y#k M@O#F+0+`#                          ",
"k /+ $.$+$, ;.      a+{@@$#$<+E#$$0+[+R#S#K#t+|+0+%$&$0+[+*$z#D 0+[+0+                          ",
"k K./+;.;.;.;.      =$-$a+a+<+|@0+[+G#n+=+|+[+|+$$;$t+0+[+z#>$K.0+|@<+                          ",
"k ,$w (@;.'$k 0@      <+{@{@)$t+[+G#K#[+0+z#a+<+M@!$0+0+~${$q@5+K#]$0+                          ",
"w w /+^$;.    k /$      {@a+{@a+|@|@t+B#s+{@X@k k <+0+($_$:$z#D <$[$0+<+                        ",
";.J.k }$|$              {@a+{@#$<+B#t+X#B#|@K.k k 1$0+2$Z#3$z#K.4$5$<@a+                        ",
"k ,#;+;+u.              {@a+<+<+|@6$t+t+7$<+k k k k a+8$Z#9$0$a$b$c$d$<+{@                      ",
"k k /+  /+              M@e$f$g$h$<+<+<+<+i$K.  k j$0+|@k$l$0$m$n$o$p$|@M@                      ",
"k &+/+  k               q$M@r$%$0+s$<+|@<+|@D     M@t$w+t+t+A#(+u$v$w$x${@                      ",
"  k _./+                a+e$M@M@<+7$0+[+[+t+K.      {@t$0+K.n+D y$z$o$[+0+                      ",
"      k                 <+{@@$|@s$<+a+a+<+t+A$      a+B$z#5+q@5+C$D$l#p$t+                      ",
"                        <+E$F$G$v+t+t+t+0+0+{@      M@G$H$D I$5+J$k#z$K$t+                      ",
"                        L$|@M${@a+M$|@t+0+F+N$        O$|@K.5+5+P$Q$z$R$<+                      ",
"                          a+s+|@t+|@6$&$[+|@x+          a+x+D (+S$T$7#9$0+                      ",
"                          {@{@<+0+0+[+b#U$t+x+          {@k@D V$W$X$Y$Z$U$                      ",
"                          {@{@a+0+]$|+`$`$b# %              w#D z#z#.%H#K#{@                    ",
"                            {@a+0++%2$Z#l#|+A$              5+K.z#@%#%u#|+a+                    ",
"                            {@E$t+$%T#2$%%K#A$              A$K.z#z+=+&%K#a+                    ",
"                            *%{@t+t+=%-%-%;%x+                K.0+D =+K.>%k ,%                  ",
"                            a+{@a+[+'%Z#)%;%M@                k *#K.!%k k k k                   ",
"                            |@s+a+~%t+{%[+E#k                 k !%K.k k k k k                   ",
"                            [+a+a+t+]%[+X#a+                X@K.k D k k k k k k                 ",
"                          ^%|+{@{@|@{@k k {@                k z+k K.k k ;+k k k                 ",
"                          |+/%{@{@|@W+k k {@                O+L$k k k k ;+k k k                 ",
"                        5+(+L$L${@1$k k k j$                  X@k k k ,#&+k k g.                ",
"                        k D {@(%g.k k k k k                     4.4.;+3.r k k k                 ",
"                        _.D k k k k M@k k k                     r 3.r 3.r k k k                 ",
"                        -.K.k k k k k k k                       4.f#r r _%k k k                 ",
"                          k k k k k k k                           r 3.r ;+k k k                 ",
"                          k k k k k k                             r v :%{#k k k                 ",
"                          k k k k k k                             j <%v r k k k                 ",
"                          k k k k k k                               u k ;.k k k                 ",
"                          k k k k k k                               , k k k k k                 ",
"                          k k k k [%                                  < . r k k                 ",
"                          ^#k k K.                                    k w k k k                 ",
"                          k [%G@G@                                    }%w k k k                 ",
"                        &+_.;+|%k                                     w 1%&+k k G@              ",
"                        2% $;+;+;+                                    k r k 3%4.5.j             ",
"                        4%3.*+;+5%                                    . . f.v 6%j 7%            ",
"                        8%9%w < u r                                 0%. 3.3.r , k a%            ",
"                        w b%. # w e e                             . . . . j r j k k             ",
"                        c%d%< e%w . ;.                            f%. . g%u r h%k k             ",
"                        i%j%k%. r l%^#                          v v u u u m%4.k k n%            ",
"                        . o%  ;.;+^#                        # v p%r 4## A#q%r%s%q%              ",
"                                                            t%n+q%m+z+q%z+q%q%s%                "};
