/* XPM */
static char * A4_xpm[] = {
"47 93 500 2",
"  	c None",
". 	c #735C58",
"+ 	c #5D4946",
"@ 	c #69534F",
"# 	c #725B57",
"$ 	c #54413F",
"% 	c #493836",
"& 	c #5B4845",
"* 	c #3C2C2B",
"= 	c #846A66",
"- 	c #816863",
"; 	c #846B66",
"> 	c #2A2B2E",
", 	c #54423F",
"' 	c #5F4B48",
") 	c #5F4B47",
"! 	c #5D4A48",
"~ 	c #221615",
"{ 	c #65514E",
"] 	c #866E68",
"^ 	c #464242",
"/ 	c #574341",
"( 	c #2A1917",
"_ 	c #020000",
": 	c #80625D",
"< 	c #745D5A",
"[ 	c #58332E",
"} 	c #210C0A",
"| 	c #4A3837",
"1 	c #473634",
"2 	c #483635",
"3 	c #0D0201",
"4 	c #877069",
"5 	c #8A746E",
"6 	c #7E5F5A",
"7 	c #785550",
"8 	c #816460",
"9 	c #764F4A",
"0 	c #40302F",
"a 	c #241D1C",
"b 	c #8B766F",
"c 	c #88736C",
"d 	c #4C2722",
"e 	c #714641",
"f 	c #754F4A",
"g 	c #3E2E2D",
"h 	c #423130",
"i 	c #463533",
"j 	c #352524",
"k 	c #181211",
"l 	c #5C4C4B",
"m 	c #3C1D1B",
"n 	c #73544F",
"o 	c #6B5553",
"p 	c #483735",
"q 	c #453534",
"r 	c #402F2E",
"s 	c #6B4540",
"t 	c #715B58",
"u 	c #705855",
"v 	c #4A3938",
"w 	c #443332",
"x 	c #433231",
"y 	c #523F3D",
"z 	c #150F0F",
"A 	c #000000",
"B 	c #492B27",
"C 	c #302120",
"D 	c #695451",
"E 	c #685350",
"F 	c #6A5452",
"G 	c #41302F",
"H 	c #312B2D",
"I 	c #483736",
"J 	c #762B1E",
"K 	c #453433",
"L 	c #6F5A57",
"M 	c #342423",
"N 	c #272B2E",
"O 	c #4F4241",
"P 	c #6D5754",
"Q 	c #180C0B",
"R 	c #59423E",
"S 	c #71423C",
"T 	c #0C0000",
"U 	c #6E5754",
"V 	c #3F2F2E",
"W 	c #252B2E",
"X 	c #584442",
"Y 	c #231C1B",
"Z 	c #1E0000",
"` 	c #E3D486",
" .	c #6C695F",
"..	c #5C4947",
"+.	c #523F3E",
"@.	c #594C4B",
"#.	c #66514E",
"$.	c #2A1D1C",
"%.	c #302726",
"&.	c #0B0605",
"*.	c #564340",
"=.	c #493736",
"-.	c #2D2B2D",
";.	c #806B69",
">.	c #444243",
",.	c #474444",
"'.	c #7B6460",
").	c #594A49",
"!.	c #160502",
"~.	c #010000",
"{.	c #160F0F",
"].	c #554140",
"^.	c #78605C",
"/.	c #333638",
"(.	c #4E4A4C",
"_.	c #2E2D2D",
":.	c #292626",
"<.	c #7A635F",
"[.	c #765F5C",
"}.	c #7C6662",
"|.	c #201615",
"1.	c #605555",
"2.	c #2A2829",
"3.	c #361D1B",
"4.	c #7C6864",
"5.	c #765E5A",
"6.	c #735955",
"7.	c #090101",
"8.	c #635454",
"9.	c #2B2929",
"0.	c #0C0B0B",
"a.	c #34211F",
"b.	c #4C3937",
"c.	c #120000",
"d.	c #270100",
"e.	c #554240",
"f.	c #735B58",
"g.	c #5F4A48",
"h.	c #67524F",
"i.	c #6B6260",
"j.	c #746262",
"k.	c #716D6D",
"l.	c #110D0D",
"m.	c #453331",
"n.	c #402E2C",
"o.	c #43312F",
"p.	c #030202",
"q.	c #050000",
"r.	c #311B19",
"s.	c #79625E",
"t.	c #78615E",
"u.	c #412E2C",
"v.	c #A47071",
"w.	c #5A5454",
"x.	c #0B0A0A",
"y.	c #564240",
"z.	c #513D3B",
"A.	c #483533",
"B.	c #42312F",
"C.	c #473432",
"D.	c #4A3836",
"E.	c #755E5B",
"F.	c #806863",
"G.	c #77625D",
"H.	c #856F6A",
"I.	c #5B4846",
"J.	c #624D4B",
"K.	c #3C3231",
"L.	c #918586",
"M.	c #C48B7F",
"N.	c #88726B",
"O.	c #242020",
"P.	c #0F0A0A",
"Q.	c #4C3936",
"R.	c #463432",
"S.	c #453230",
"T.	c #443230",
"U.	c #4D3A37",
"V.	c #020202",
"W.	c #5D4845",
"X.	c #644F4C",
"Y.	c #6A5552",
"Z.	c #755E5A",
"`.	c #714E49",
" +	c #5C413F",
".+	c #6B5653",
"++	c #8F7575",
"@+	c #7B6562",
"#+	c #1D0000",
"$+	c #503E3B",
"%+	c #483331",
"&+	c #463230",
"*+	c #473330",
"=+	c #594543",
"-+	c #1E100E",
";+	c #271613",
">+	c #77605D",
",+	c #5B4745",
"'+	c #5B4A47",
")+	c #4F2F2B",
"!+	c #7A7274",
"~+	c #847679",
"{+	c #0E0D0D",
"]+	c #0B0000",
"^+	c #675859",
"/+	c #81797A",
"(+	c #290504",
"_+	c #3D2524",
":+	c #503D3B",
"<+	c #291E1D",
"[+	c #010101",
"}+	c #0B0808",
"|+	c #331715",
"1+	c #220D0B",
"2+	c #433939",
"3+	c #3B3839",
"4+	c #221A1A",
"5+	c #AB9598",
"6+	c #988A8B",
"7+	c #98888B",
"8+	c #8B7678",
"9+	c #211A1B",
"0+	c #988B8C",
"a+	c #908386",
"b+	c #181717",
"c+	c #343132",
"d+	c #232122",
"e+	c #352625",
"f+	c #A39093",
"g+	c #9E8E91",
"h+	c #968184",
"i+	c #C88586",
"j+	c #371C1D",
"k+	c #998B8D",
"l+	c #897F80",
"m+	c #0F0E0E",
"n+	c #1F1E1E",
"o+	c #A08F91",
"p+	c #A08F92",
"q+	c #947E80",
"r+	c #4D0101",
"s+	c #783024",
"t+	c #96888A",
"u+	c #796F71",
"v+	c #2D2B2C",
"w+	c #9A8B8E",
"x+	c #897B7E",
"y+	c #857375",
"z+	c #200202",
"A+	c #7F7678",
"B+	c #8A7F81",
"C+	c #1B1818",
"D+	c #211C1C",
"E+	c #0E0301",
"F+	c #2B1210",
"G+	c #020101",
"H+	c #0E0908",
"I+	c #9E8587",
"J+	c #7A6D70",
"K+	c #573B38",
"L+	c #6A6465",
"M+	c #504D4D",
"N+	c #423E3F",
"O+	c #232222",
"P+	c #0C0C0C",
"Q+	c #421B17",
"R+	c #271312",
"S+	c #150F0E",
"T+	c #211A19",
"U+	c #7D7375",
"V+	c #83797B",
"W+	c #322728",
"X+	c #110E0E",
"Y+	c #222020",
"Z+	c #1C1B1B",
"`+	c #3D1C18",
" @	c #7C7274",
".@	c #7D7374",
"+@	c #302626",
"@@	c #2B2525",
"#@	c #605C5D",
"$@	c #3C3A3B",
"%@	c #463838",
"&@	c #391310",
"*@	c #310807",
"=@	c #270C0B",
"-@	c #1B1919",
";@	c #260D0C",
">@	c #54322E",
",@	c #766F70",
"'@	c #120F0D",
")@	c #6C524E",
"!@	c #362320",
"~@	c #837879",
"{@	c #140E0C",
"]@	c #2D1311",
"^@	c #1A0908",
"/@	c #070302",
"(@	c #343232",
"_@	c #1A1616",
":@	c #28110F",
"<@	c #2E0908",
"[@	c #250503",
"}@	c #260000",
"|@	c #070000",
"1@	c #030000",
"2@	c #110807",
"3@	c #160C0B",
"4@	c #160E0E",
"5@	c #0F0605",
"6@	c #0A0706",
"7@	c #2F2322",
"8@	c #382726",
"9@	c #3D2C2A",
"0@	c #4F3C39",
"a@	c #453332",
"b@	c #1E1211",
"c@	c #241A19",
"d@	c #3E2D2B",
"e@	c #3A2928",
"f@	c #392827",
"g@	c #4E3B39",
"h@	c #533F3C",
"i@	c #040000",
"j@	c #1B0F0E",
"k@	c #55413F",
"l@	c #3F2E2C",
"m@	c #4C3A37",
"n@	c #5F4A47",
"o@	c #55413E",
"p@	c #5A4542",
"q@	c #181212",
"r@	c #3D2C2B",
"s@	c #6B5552",
"t@	c #68534F",
"u@	c #5D4947",
"v@	c #463433",
"w@	c #856F68",
"x@	c #6B5551",
"y@	c #705955",
"z@	c #523E3C",
"A@	c #1E1513",
"B@	c #312221",
"C@	c #373131",
"D@	c #433E3E",
"E@	c #35221E",
"F@	c #837A7B",
"G@	c #635F5F",
"H@	c #5D4E4F",
"I@	c #B09A9B",
"J@	c #715858",
"K@	c #2E0000",
"L@	c #736B6C",
"M@	c #7A7172",
"N@	c #5B5859",
"O@	c #23110D",
"P@	c #9C8C8F",
"Q@	c #A99597",
"R@	c #928485",
"S@	c #604C4C",
"T@	c #2B2121",
"U@	c #908485",
"V@	c #7A7273",
"W@	c #938687",
"X@	c #877C7D",
"Y@	c #544344",
"Z@	c #4F4C4C",
"`@	c #615D5E",
" #	c #846062",
".#	c #100000",
"+#	c #97888A",
"@#	c #9B8B8E",
"##	c #706A6B",
"$#	c #7F7576",
"%#	c #8C7F81",
"&#	c #908384",
"*#	c #948788",
"=#	c #331C18",
"-#	c #656061",
";#	c #676162",
">#	c #807677",
",#	c #726B6C",
"'#	c #555151",
")#	c #201E1E",
"!#	c #8C8081",
"~#	c #6D6667",
"{#	c #504B4C",
"]#	c #4B4748",
"^#	c #454142",
"/#	c #524F50",
"(#	c #333030",
"_#	c #938587",
":#	c #454242",
"<#	c #3A3636",
"[#	c #363333",
"}#	c #423F3F",
"|#	c #696363",
"1#	c #3F3B3C",
"2#	c #3D393A",
"3#	c #111010",
"4#	c #090808",
"5#	c #221E1F",
"6#	c #302C2B",
"7#	c #342E2D",
"8#	c #575455",
"9#	c #231F1F",
"0#	c #161313",
"a#	c #484343",
"b#	c #413838",
"c#	c #5E5B5C",
"d#	c #585455",
"e#	c #5C5758",
"f#	c #2E2B2B",
"g#	c #1A1717",
"h#	c #535050",
"i#	c #050505",
"j#	c #565354",
"k#	c #474344",
"l#	c #0C0A09",
"m#	c #2A2727",
"n#	c #282424",
"o#	c #151111",
"p#	c #1C1818",
"q#	c #645E5F",
"r#	c #312E2E",
"s#	c #1F1B1B",
"t#	c #443E3F",
"u#	c #1D1919",
"v#	c #383535",
"w#	c #2A2322",
"x#	c #181414",
"y#	c #343031",
"z#	c #736D6E",
"A#	c #877D7E",
"B#	c #696364",
"C#	c #4C4949",
"D#	c #322F2F",
"E#	c #352C2D",
"F#	c #9C8B8C",
"G#	c #98898C",
"H#	c #A59293",
"I#	c #C7A7AA",
"J#	c #AC9798",
"K#	c #8D8081",
"L#	c #776F70",
"M#	c #3E0000",
"N#	c #544F50",
"O#	c #161515",
"P#	c #320000",
"Q#	c #64261D",
"R#	c #343131",
"S#	c #413D3E",
"T#	c #615C5C",
"U#	c #272525",
"V#	c #464345",
"W#	c #060404",
"X#	c #6D6768",
"Y#	c #080000",
"Z#	c #18110F",
"`#	c #887C7E",
" $	c #585253",
".$	c #201413",
"+$	c #1A0E0D",
"@$	c #92696A",
"#$	c #948688",
"$$	c #332827",
"%$	c #7F7677",
"&$	c #3B2B29",
"*$	c #0F0403",
"=$	c #1C100F",
"-$	c #42201B",
";$	c #170B09",
">$	c #473C3B",
",$	c #060100",
"'$	c #382C2B",
")$	c #260C07",
"!$	c #201312",
"~$	c #140807",
"{$	c #080201",
"]$	c #271A19",
"^$	c #0F0201",
"/$	c #050202",
"($	c #2F1F1D",
"_$	c #655553",
":$	c #1F0F0C",
"<$	c #070403",
"[$	c #332322",
"}$	c #574847",
"|$	c #382827",
"1$	c #392A29",
"2$	c #7C5853",
"3$	c #473534",
"4$	c #2A1715",
"5$	c #342524",
"6$	c #42231E",
"7$	c #5F3732",
"8$	c #6B4D48",
"9$	c #231B18",
"0$	c #372927",
"a$	c #040202",
"                                                                                              ",
"                                    . + @ # $ % & *                                           ",
"                                    = - ; > , ' ) ! ~                                         ",
"                                ; = { = ; ; ] ^ / ( * _                                       ",
"                                : ] < = ; ; [ } | 1 2 3                                       ",
"                                4 5 6 7 8 = 9 { * 0 * a                                       ",
"                                b c d e f ; = = g h i j k                                     ",
"                                l * m * [ n ; < o p q r * ~                                   ",
"                                * * * * s [ ; < t u | v w x                                   ",
"                                y * z m A B = C D E F * G H h I                               ",
"                                A C J m { A } * K L + M * N O P * Q                           ",
"                                  R S A A < } | T U E V * W W W X C Y                         ",
"                                    Z `  .A * X ~ ..< +.g N @.< < #.$.%.&.                    ",
"                                          Z { X * * *.< =.-.; ;.>.,.'.< ).* !.                ",
"                                        Z Z { !.~.{.G ].^./.(._._.:.<.[.}.X } T               ",
"                                          Z 3 _ _ |.| ^.1.(.2.&.d 3.4.5.6.< | A Q             ",
"                                              A 7.] 8.9.0.k a.b.c.d.e.[.f.< g.h.!.!.          ",
"                                            i.A A j.k.0.l.m.n.o.p.d.q.r.< < s.t.u.!.A         ",
"                                        v.{ b } A w.x.y.z.A.B.C.D.!.* | < E.F.G.H.I.J.K.      ",
"                                      L.M.N.X A O.x.P.Q.R.S.T.U.V.A A !.W.X.Y.Z.`. +< .+_     ",
"                                      L.++@+} #+(.A $+%+&+*+=+~ Q A _ -+;+=.Y.>+,+< t.Y.'+    ",
"                                    )+!+~+{+]+^+/+} (+_+:+<+[+3 A A A A }+f.|+1+2+3+A 4+=+*   ",
"                                    5+6+7+8+9+0+a+T !.A A A A A A A A A A T Y b+b+c+d+A e+3   ",
"                                    f+g+h+i+j+k+l+q.q.A A A A A A A A A A c.(.x.m+n+3+3+3 7.  ",
"                                    o+p+q+r+s+t+u+3+>.A A ~.T A A A _ A A v+k c.]+A A A A A   ",
"                                    w+x+y+z+A+B+C+b+_.D+Y Y A q.A E+d.d.F+A A G+H+k k A       ",
"                                    I+J+K+Z L+M+N+O+>.O+P+Q K.Q Q+d R+A A A A &.S+T+A A       ",
"                                    U+V+W+A X+Y+A Z+b+O+O+O+d.`+T A A A A A A A               ",
"                                     @.@+@A A A A ~.D+@@_ T E+A A A A A A A A A               ",
"                                    L+#@$@A A A A _ q.A A A A A A A _.A A A A                 ",
"                                    %@A A A E+&@*@q.=@Q+`+d.A A -@>._.A A A A                 ",
"                                    } c.;@>@< } ]+d F+A A A x.(.3+,@%@A '@A                   ",
"                                    A A d )@!@} d.} ~.A A A A ~@L+L+{@A '@A                   ",
"                                    } < } q.F+]@^@/@A A A A '@(@A _@A A A                     ",
"                                :@A <@} [@}@} A A A A A ~.~.A A A A A A A                     ",
"                                A A !.A |@!.E+A A A A A A A A A A A A A A                     ",
"                            A A c.1@A A A A A A A A 2@3@A 4@5@A 3 A A A                       ",
"                              } A   A A A A A 6@7@8@9@0@a@a@b@3 c@A A A                       ",
"                              A     A   A   k d@e@A.f@g@b.h@C C Y A A                         ",
"                                  A   i@    j@k@z.l@m@n@o@p@T T q@_ A                         ",
"                                            r@d@r@s@' t@k@u@* Q _ A A k                       ",
"                                            { v@U F.w@x@y@z@| !.~.A A@R                       ",
"                                          ; X * * * } B@C C@D@@@A A A E@R                     ",
"                                        @@A A T A F@3+3+G@H@I@J@K@J@L@M@N@O@W+                ",
"                                        2+A A c.(.k.G@P@Q@I@R@S@O@,@M@L@N@,@T@                ",
"                                        U@~.A @@G@3+V@~@P@W@X@,@Y@Z@N@Z@`@,@W+                ",
"                                       #P@O@.# #P@~@~@+#P@@#W@U@S@,@N@N@##$#Y@                ",
"                                    I@I@L+~.~. #P@%#&#P@P@P@P@P@S@~@N@N@,@~@,@                ",
"                                  U@L+W+A Z Z U@*#P@P@P@P@U@P@*#=#-#N@N@;#~@L+                ",
"                              ,@-#N@A .#U@I@Q@P@~@~@>#,@,@,#L+,@W+N@N@Z@N@;#'#                ",
"                            U@~@N@)#Z Z P@P@P@P@!#~@,@~#L+L+{#N+W+]#N+^#Z@/#N+                ",
"                          Z@N+N+A (#~@~@_#*#~@/#N+/#L+L+#@:#(#'@_@<#(#N+N+N+[#                ",
"                        L+L+}#'@Z@Z@|#~@~@,#L+1#(#1#2#(#(#(#3#4#X+5#N+1#[#_@                  ",
"                      ~@L+L+6#7#;#8#Z@V@M@L+#@(#(#(#(#(#(#9#0#_@A (#(#(#(#                    ",
"                      Z@a#b#L+L+c#N@Z@N@L+d#2#(#(#9#X+A A _@A 4#X+(#9#9#(#                    ",
"                      _@'@N@N@,@,@L+N+N+e#N@f#g#A A A A A A A A N+N+N+N+N+                    ",
"                    ,@A a#h#N@~@N@L+N+N+N+N+_@i#A X+_@A A A A Y+N+N+N+N+                      ",
"                    ,@A@N+N+L+~@Z@Z@j#k#(#N+l#A A _@i#A X+_@_@m#N+Z@N+N+                      ",
"                  P@,@N@N+n#N@~@Z@Z@N@N@X+A V.o#(#_@A Y+f#p#A _@_@_@X+A                       ",
"                  ~@%@N@]#_@<#q#N@N+N@h#A A o#_@N+_@A _@(#r#s#_@_@4#A A                       ",
"                ~@t#A N@N@_@u#<#L+Z@_@_@o#A   (#f#s#_@f#(#(#(#(#(#v#N+                        ",
"            ,@N+N@A 9.(#N+N+m#_@f#2#A A       r#_@(#_@(#(#(#2#N+N+N+5#                        ",
"            ,@Z@L+w#N+Z@N+N+[#s#s#Y+A x#      s#f#(#_@f#(#(#2#N+N+y#_@                        ",
"            N@W+T@N+N+,@,@/#1#f#X+A           _@N+<#_@_@f#(#(#(#(#s#                          ",
"            A L+,@~@L+(#(#_@A A A             T@N+5#_@(#_@_@_@n#N+(#                          ",
"            ~.L+z#A#U@B#C#c+A A               T@N+_@9#(#(#(#(#N+D#p#                          ",
"          %@J@M@L+,@N@Z@^#{+                  E#N+(#(#(#(#(#(#f#p#                            ",
"          A P@~@,@F#I@p+%#'@0#                N+1#(#r#_@(#s#_@_@                              ",
"          A G#U@U@H#I#J#P@W+A                 N+[#f#p#_@_@_@_@i#(#                            ",
"          A U@K#L#U@P@,#L+M#Z                 N+n#_@_@p#f#(#[#^#Z@N+                          ",
"          A P@N#O#P#Q#L+^ A A                 (#1#4#_@f#(#R#S#C#T#L+A                         ",
"          N@U#A _ A c.W+T@A                   S#(#A 9#m#[#S#N+N@-#,#l#A                       ",
"          V#A _ T _ 1@A A@W#                  u#N+N+m#9#y#N+e#X#N@~@L+A@~.                    ",
"          A Y#Q Q Q A A V.Z#                      A A o#_@(#P@ #K@=#P@`# $A                   ",
"          A T .$+$Q A A A                         A A V.x#m#P@@$K@Z W@#$~@A@                  ",
"          _ T $$j@3 7.A A                           A A V.o#N+a#Q# #%$U@Z@&$A@                ",
"            3 3 *$Q 3 A A                             A A A A l#O@J@~@N+A@R =#                ",
"            Q C =$*$3 A A                                 A A A ~.-$X+A ;$_ _                 ",
"            >$>$C ,$7.A A                                     A A A A A A A A A               ",
"            '$C '$~.A A                                         A A ~.)$T Y#A A A             ",
"          A C C !$A 3 A                                         A A =#T ~$!.{$A A             ",
"          >$>$]$C A A A                                             _ A A ^$!.!.C             ",
"          ~ C T 1@A A                                                 &./$~ ($!.~ ~           ",
"          _$A A A k A                                                 &.&.T C :$~ ~ ~         ",
"        K.T %.<$A                                                         A !$C C [$* [$      ",
"        * * }$C Y                                                           &.|$C 1$* *       ",
"        { X >$* *                                                             * C * V =.K.    ",
"    2$~ C K.>$* 3$                                                            X | | | K * ~   ",
"    2$K._$_$_$* }$                                                        m } { 4$* * * 5$~   ",
"    6$_ C >$C C }$                                                      } | } * * * * 1$C ~   ",
"  7$8$%.~ Q _ ~ }$                                                  | | = C C ~ C 5$* [$C Q O@",
"9$0$0$&.&.&.&.&.&.                                          X < !.!.!.T T A a$&./$Q Q Q /$&.0$",
"    0$&.&.&.&.&.&.                                          A A A A &.&.&.&.&.&.&.&.&.&.&.&.  "};
