/* XPM */
static char * A5_xpm[] = {
"49 93 444 2",
"  	c None",
". 	c #856B67",
"+ 	c #866E68",
"@ 	c #8B766F",
"# 	c #846A66",
"$ 	c #745D5A",
"% 	c #5E4947",
"& 	c #856C67",
"* 	c #846B66",
"= 	c #4A3837",
"- 	c #65514E",
"; 	c #6B5552",
"> 	c #584442",
", 	c #252B2E",
"' 	c #655754",
") 	c #2B1210",
"! 	c #7B5E5A",
"~ 	c #6F5956",
"{ 	c #6A5552",
"] 	c #5C4846",
"^ 	c #302120",
"/ 	c #210C0A",
"( 	c #2E1E1E",
"_ 	c #574847",
": 	c #6F413C",
"< 	c #5F4C49",
"[ 	c #7F6662",
"} 	c #5D4946",
"| 	c #1C100F",
"1 	c #3C1D1B",
"2 	c #584947",
"3 	c #5B4745",
"4 	c #604C49",
"5 	c #41302F",
"6 	c #4C2722",
"7 	c #66504E",
"8 	c #3D3434",
"9 	c #323335",
"0 	c #715A57",
"a 	c #67524F",
"b 	c #64504D",
"c 	c #503E3C",
"d 	c #3B2221",
"e 	c #270100",
"f 	c #361F1D",
"g 	c #7A625E",
"h 	c #66524F",
"i 	c #594C4C",
"j 	c #190C0C",
"k 	c #3C2C2B",
"l 	c #624D4A",
"m 	c #2A1715",
"n 	c #816763",
"o 	c #160502",
"p 	c #77605D",
"q 	c #685350",
"r 	c #372C2C",
"s 	c #2A2B2D",
"t 	c #554240",
"u 	c #352625",
"v 	c #3F2825",
"w 	c #705A56",
"x 	c #6E5955",
"y 	c #4F4443",
"z 	c #604C4A",
"A 	c #5F4F4D",
"B 	c #412E2C",
"C 	c #382421",
"D 	c #130403",
"E 	c #000000",
"F 	c #221615",
"G 	c #444243",
"H 	c #433D3C",
"I 	c #6E5C5A",
"J 	c #655350",
"K 	c #0C0000",
"L 	c #1A0B08",
"M 	c #2E2525",
"N 	c #232222",
"O 	c #372928",
"P 	c #231C1B",
"Q 	c #2E2D2D",
"R 	c #3C3231",
"S 	c #57423F",
"T 	c #0F0403",
"U 	c #2B1E1D",
"V 	c #0D0201",
"W 	c #0B0A0A",
"X 	c #171212",
"Y 	c #2C2322",
"Z 	c #181211",
"` 	c #181717",
" .	c #49322E",
"..	c #3A231F",
"+.	c #110403",
"@.	c #0B0000",
"#.	c #302726",
"$.	c #020000",
"%.	c #171616",
"&.	c #362B29",
"*.	c #604D4A",
"=.	c #2F2E2E",
"-.	c #070707",
";.	c #140B09",
">.	c #452D29",
",.	c #412A26",
"'.	c #240E0C",
").	c #050000",
"!.	c #201918",
"~.	c #27201F",
"{.	c #0B0605",
"].	c #0E0D0D",
"^.	c #36302F",
"/.	c #100F0F",
"(.	c #52403D",
"_.	c #543C38",
":.	c #3B2521",
"<.	c #3D2723",
"[.	c #100807",
"}.	c #1E1D1D",
"|.	c #634F4C",
"1.	c #1F1A1A",
"2.	c #3B3839",
"3.	c #574643",
"4.	c #563E39",
"5.	c #573F3A",
"6.	c #341D1A",
"7.	c #493330",
"8.	c #231A19",
"9.	c #372927",
"0.	c #4A3734",
"a.	c #51403E",
"b.	c #494242",
"c.	c #2F1916",
"d.	c #3C2521",
"e.	c #3C2522",
"f.	c #473533",
"g.	c #180C0B",
"h.	c #050202",
"i.	c #070403",
"j.	c #5B5859",
"k.	c #2B2121",
"l.	c #333030",
"m.	c #1A1616",
"n.	c #504341",
"o.	c #4D4343",
"p.	c #565153",
"q.	c #32201D",
"r.	c #3A231E",
"s.	c #37201C",
"t.	c #39201C",
"u.	c #2E1613",
"v.	c #080000",
"w.	c #050404",
"x.	c #150F0E",
"y.	c #23110D",
"z.	c #2A1916",
"A.	c #47403F",
"B.	c #464343",
"C.	c #423E3F",
"D.	c #3F3837",
"E.	c #4A3F3E",
"F.	c #92696A",
"G.	c #3B2926",
"H.	c #341D19",
"I.	c #3A2420",
"J.	c #140505",
"K.	c #0E0302",
"L.	c #0E0908",
"M.	c #140D0C",
"N.	c #2E2220",
"O.	c #433230",
"P.	c #4F4C4C",
"Q.	c #222020",
"R.	c #1D1817",
"S.	c #3C312F",
"T.	c #71423C",
"U.	c #B09A9B",
"V.	c #635F5F",
"W.	c #402D2A",
"X.	c #28130F",
"Y.	c #231615",
"Z.	c #010000",
"`.	c #271C1A",
" +	c #271612",
".+	c #484241",
"++	c #575455",
"@+	c #120F0D",
"#+	c #4B4748",
"$+	c #1C1717",
"%+	c #1E1919",
"&+	c #9C8C8F",
"*+	c #846062",
"=+	c #9A2918",
"-+	c #310807",
";+	c #1E1817",
">+	c #170B09",
",+	c #331C18",
"'+	c #463838",
")+	c #383434",
"!+	c #1C1918",
"~+	c #A4230A",
"{+	c #8A0C00",
"]+	c #3E0000",
"^+	c #1F1918",
"/+	c #1E1513",
"(+	c #332422",
"_+	c #231B18",
":+	c #050505",
"<+	c #282524",
"[+	c #110E0E",
"}+	c #361612",
"|+	c #0C0807",
"1+	c #140E0C",
"2+	c #0C0A09",
"3+	c #2A2727",
"4+	c #201917",
"5+	c #971A05",
"6+	c #3C0000",
"7+	c #1C0D0A",
"8+	c #3F3B3B",
"9+	c #625A5C",
"0+	c #1C1A1A",
"a+	c #3C3A3B",
"b+	c #1F1816",
"c+	c #090808",
"d+	c #6B4D48",
"e+	c #6A6465",
"f+	c #96888A",
"g+	c #A39093",
"h+	c #96898B",
"i+	c #99878A",
"j+	c #8C7F81",
"k+	c #332624",
"l+	c #0C0908",
"m+	c #2D1B18",
"n+	c #694B46",
"o+	c #52221B",
"p+	c #100000",
"q+	c #1E0000",
"r+	c #766F70",
"s+	c #877C7D",
"t+	c #928586",
"u+	c #9B8B8E",
"v+	c #9C8B8E",
"w+	c #2E0000",
"x+	c #301A16",
"y+	c #4B211A",
"z+	c #762B1E",
"A+	c #B13213",
"B+	c #030101",
"C+	c #837879",
"D+	c #9A8B8E",
"E+	c #512D27",
"F+	c #36201C",
"G+	c #180D0B",
"H+	c #94301E",
"I+	c #5B0000",
"J+	c #938285",
"K+	c #604C4C",
"L+	c #040303",
"M+	c #39231F",
"N+	c #3A2421",
"O+	c #211614",
"P+	c #64261D",
"Q+	c #140000",
"R+	c #908485",
"S+	c #1F0000",
"T+	c #3D2825",
"U+	c #341E1A",
"V+	c #321B17",
"W+	c #221310",
"X+	c #7B0600",
"Y+	c #464242",
"Z+	c #2B1815",
"`+	c #2C1815",
" @	c #240000",
".@	c #2C1512",
"+@	c #281511",
"@@	c #2F1A16",
"#@	c #33130A",
"$@	c #4C0000",
"%@	c #42201B",
"&@	c #18110F",
"*@	c #190C0A",
"=@	c #271D1C",
"-@	c #301C18",
";@	c #38211D",
">@	c #0A0504",
",@	c #090504",
"'@	c #160C0A",
")@	c #0E0807",
"!@	c #281F1E",
"~@	c #483635",
"{@	c #664D49",
"]@	c #281613",
"^@	c #40302F",
"/@	c #705956",
"(@	c #806A65",
"_@	c #87716A",
":@	c #2E1C1B",
"<@	c #2F1613",
"[@	c #89736D",
"}@	c #4A2F2C",
"|@	c #290000",
"1@	c #2A0604",
"2@	c #331715",
"3@	c #655553",
"4@	c #705E5D",
"5@	c #230000",
"6@	c #0C0604",
"7@	c #433939",
"8@	c #5B5454",
"9@	c #242020",
"0@	c #291916",
"a@	c #1E1211",
"b@	c #0D0000",
"c@	c #312F30",
"d@	c #595557",
"e@	c #2B2828",
"f@	c #716D6D",
"g@	c #706061",
"h@	c #9D8C8F",
"i@	c #9B8C8E",
"j@	c #9D8D90",
"k@	c #AD979A",
"l@	c #897D7F",
"m@	c #AA9598",
"n@	c #887D7E",
"o@	c #605C5C",
"p@	c #5A5657",
"q@	c #211C1C",
"r@	c #715858",
"s@	c #A08F92",
"t@	c #9F8E91",
"u@	c #B1999C",
"v@	c #A49091",
"w@	c #A18F92",
"x@	c #5F3732",
"y@	c #605C5D",
"z@	c #656061",
"A@	c #646061",
"B@	c #877D7E",
"C@	c #524F4F",
"D@	c #544344",
"E@	c #807677",
"F@	c #797172",
"G@	c #83797A",
"H@	c #938687",
"I@	c #9E8D90",
"J@	c #A29093",
"K@	c #988587",
"L@	c #948788",
"M@	c #998A8D",
"N@	c #AC9798",
"O@	c #B39A9D",
"P@	c #8C8081",
"Q@	c #A99597",
"R@	c #B19A9B",
"S@	c #585556",
"T@	c #938587",
"U@	c #220C07",
"V@	c #6E6869",
"W@	c #736B6C",
"X@	c #594F4D",
"Y@	c #524F50",
"Z@	c #221210",
"`@	c #535050",
" #	c #3D3A3A",
".#	c #3F3B3C",
"+#	c #383535",
"@#	c #160604",
"##	c #282626",
"$#	c #111010",
"%#	c #363333",
"&#	c #151111",
"*#	c #231F1F",
"=#	c #282424",
"-#	c #1A1717",
";#	c #020202",
">#	c #272425",
",#	c #454243",
"'#	c #413E3E",
")#	c #191717",
"!#	c #181414",
"~#	c #221E1F",
"{#	c #3A3636",
"]#	c #0E0C0C",
"^#	c #312D2E",
"/#	c #343031",
"(#	c #1F1B1B",
"_#	c #4C4949",
":#	c #302C2C",
"<#	c #2C2929",
"[#	c #0E0C0A",
"}#	c #413D3E",
"|#	c #151312",
"1#	c #010101",
"2#	c #736D6E",
"3#	c #1C1818",
"4#	c #2E2B2B",
"5#	c #3D393A",
"6#	c #373131",
"7#	c #090101",
"8#	c #555151",
"9#	c #484343",
"0#	c #322728",
"a#	c #393636",
"b#	c #060000",
"c#	c #1B0000",
"d#	c #42231E",
"e#	c #6E6868",
"f#	c #1C1B1B",
"g#	c #26130F",
"h#	c #100C0B",
"i#	c #472626",
"j#	c #211513",
"k#	c #060100",
"l#	c #201A19",
"m#	c #2B2929",
"n#	c #080403",
"o#	c #040000",
"p#	c #261F1E",
"q#	c #0E0301",
"r#	c #040202",
"s#	c #271716",
"t#	c #2B2322",
"u#	c #251817",
"v#	c #0B0807",
"w#	c #382827",
"x#	c #1B1413",
"y#	c #332322",
"z#	c #53403E",
"A#	c #7C5853",
"B#	c #473C3B",
"C#	c #2F2322",
"D#	c #3D2D2C",
"E#	c #473534",
"F#	c #453433",
"G#	c #1A1514",
"H#	c #2F2726",
"I#	c #524443",
"J#	c #3F2F2E",
"K#	c #342524",
"                                            . + @ # # $ %                                         ",
"                                          $ + & * $ = - ; >                                       ",
"                                          # + , ' ) ! ~ { ] ^                                     ",
"                                        $ $ / ( , * $ $ - - _                                     ",
"                                      > $ : - = , - $ ~ - < ^                                     ",
"                                      > [ $ $ = , $ - - - } |                                     ",
"                                      > - 1 - * , 2 - 3 - 4 5                                     ",
"                                      > $ 6 > 7 8 9 - 0 a b c                                     ",
"                                      = d e ) = f > # g - h ~ - i                                 ",
"                                      j = k k k / k # * h h l m k n $                             ",
"                                        = o ^ > ^ k p n h q - r s $ t = u                         ",
"                                          / ^ o = v { $ w x - , y 3 - z = A                       ",
"                                          = B o k - C D E F = _ G H I J = =                       ",
"                                          k o o = > / / ^ K o L M G N F k O P Q                   ",
"                                            E E R S T / > k U F F V W E E X Y Z `                 ",
"                                            ` E  ...+.@.= k k #.R #.$.%.E E E &.*.=.              ",
"                                          -.E ;.>.,.'.).^ ^ F !.#.~.{.N ].E E E - ^.              ",
"                                        /.E (._.:.<.= k F [.E {.{.Z Z }.N E ` E |.1.              ",
"                                      2.E 3.4.5.6.7.#.R P E E 8.9.9.0.E Q E ` E a.b.              ",
"                                      ` $.- c.d.e.f.g.F h.i.E 9.9.9.0.9.j.k.l.m.n.o.              ",
"                                      p.q.r.s.t.u.v.w.x.{.{.y.z.9.9.9.A.B.E E C.D.E.              ",
"                                F.2.2.G.H.H.I.J.K.E Z L.M.N.y.y.9.O.C.l.P.E Q.C.R.S.              ",
"                              T.U.N G V.W.X.Y.P Z.E E `.9.9. +y.9..+C.P.++@+#+C.$+%+              ",
"                            &+*+=+-+).E ;+E E E E E >+9.9.,+9.y.9.'+j.Q.E E )+!+E E               ",
"                        ~+{+]+@.E Z ^+i.E E E E E Z./+9.O.,+z.(+O.0._+:+m.E @+<+[+E               ",
"                        ~+}+E E E |+Z {.E E E E E E 1+Z./+/+y.9.1+E 2+m.3+/+C.4+m._+              ",
"                    5+6+E E E y.7+E E ` 8+9+0+P./+a+E E E m.E E E E E m.b+9.9.m.c+d+              ",
"                  ]+E E E E E E     Z.e+f+g+&+h+i+&+j+Z.E E E E E E E O.k+l+E l.m+n+              ",
"              o+p+q+y.y.E E         p+r+s+t+&+u+v+U.&+w+E m.E E E E 1+9.l+E E [+x+y+              ",
"          {+z+A+5+o+y.B+            p+k.P.r+C+D+u+&+&+E+E <+@+E E E 2+m.m.m.E E F+G+y.            ",
"      H+I+~+5+E E E                 Z.E E E Q.&+J+&+&+K+Z.@+L+E E E E E E E E E M+,+N+O+          ",
"      P+z+z+Q+E E                   q+E Z.E E U.R+&+&+S+Z.2+E E E E E E E E /+E T+U+V+W+y.        ",
"    {+X+X+E E                     p+Z.E E E Z.Z.a+E Y+Z.E E E E E E E y.E     E ,+x+Z+`+,+        ",
"    I+]+,+Z.E                      @E E Z.q+q+.@Z.y.E Z./+y./+E E E E E         9.+@x+@@y.#@      ",
"  q+$@%@@.E E                     E E E $.E E o $.E Z.$.V >+E E E E E &@        9.,+F+x+*@#@      ",
"  Z.Z.Z.E                             E o E =@o k = > = E E E E E E E           E E -@;@>@q+      ",
"E E E E                               {.k = - > > o * - E E E E E E E E           E ,@'@)@Z.p+    ",
"E Z.E                                 !@~@$ $ ) {@/ # % v.E E E E E E E           Z.E E E E ]@    ",
"  E E                                 ^@/@(@_@:@) ] w # o E $.E E E E E             <@q+7+B+E     ",
"                                      $ [ + [@# ) - }@1 o V Z.E Z.R R P {.          q+|@1@y.B+    ",
"                                      _@_@. + + 2@> > - K K E [.^ 3@4@P {.          Z.w+5@6@7+    ",
"                                  ^ / ^ k 7@8@9@E E $./ 0@a@#.{.P + $ $.9.y.          p+b@E Z.    ",
"                                E c@d@d@e@f@d@E K g@h@i@j@k@&+l@m@d+,+R+C+n@e+          E y.E     ",
"                                V d@o@V.f@p@q@Z.r@&+s@t@u@v@r+j+w@U.x@K+y@z@e+          E y.E     ",
"                                '+r+A@R+R+C+C+p+r+r+&+&+B@r+r+&+&+&+w+p+z@y@C@            Z./+    ",
"                                D@E@F@&+&+&+&+q+&+s@U.s@r+G@H@I@w@J@K@,+R+j.j.            E y.E   ",
"                                E C+C+&+&+&+L@q+U.U.U.U.R+R+M@N@O@I@I@E+&+e+P.P.          E Z.E   ",
"                              E Z.C+P@R+L@&+C+q+U.U.U.U.&+U.&+Q@R@J@k@E+&+j.P.S@        E E p+E E ",
"                              K+&+r+r+r+r+r+r@q+&+R+T@C+R+R+L@&+s@N@U.r@r+j.#+C.      E U@Z.q+Z.E ",
"                            p+D@&+r+V@j.j.e+D@p+C+C+C+W@j.j.e+j+&+&+R+X@e+Y@C.C.    E Z.U@E Z@@.Z.",
"                            j.C+e+P.e+j.`@P.k.@+k.P.P. #m.l..##+e+e+j.P.P.C.+#l.    E E E E E @#y.",
"                            P.r+e+l.l.l.C.##E m.m.m.l.m.c+$#%#C.C.C.C.C.3+m.l.  Z.Z.      Z.E y.y.",
"                            C.r+V@l.l.l.l.W E &#m.m.m.[+E E @+C.C..#%#*#m.=#C.    E       p+E >+y.",
"                          P.P.A@r+l.l.l.-#E E ;#&#&#:+E E E m.l.l.l.l.l.C.C.              #@Z.E E ",
"                          P.P.+#C.+#*#E E E E E E E E E E >#C.C.C.B.P.P.#+C.              E Z.Z.E ",
"                          j.j.,#l.C.m.E E E m.m.E E E E 2+C.#+P.P.P.P.B.l..#                Z.Z.Z.",
"                          j.P.j.'#l.Q.E E E E E E   E E Q.C.P.P.P.P.P.C..#%#                Z.>+E ",
"                          C.#+Y@j.m.E E )#m.[+E     m.m.E m.3+l.l.3+m.m.m.l.                E y.  ",
"                          m.Y@P.#+l.E E m.m.[+E     m.E !#m.m.m.m.m.m.~#{#C.                      ",
"                        C.l.P.#+B.]#E l.m.E E         m.3+l.l.l.l.C.P..#^#m.                      ",
"                        C.=#m.m./#E E :+m.m.          m.C.#+P.P.#+C.%#l.(#:+                      ",
"                        _#C.:#m.m.E E &#m.            m.C.C.C.C.C.C.C.<#[#E                       ",
"                        l.Y@C.C.Q.E E m.;#            l.l.l.%#}#C.l.l.|#1#                        ",
"                        r+j.C.=#E E E E               m.m.m.*#l.C.C.C.E E                         ",
"                        2#e+l.##E E E                 3#4#%#5#C.C..#%#E                           ",
"                        e+y@l.W E l.@+                l.l.C.%#l.l.4#-#E                           ",
"                      r+&+&+e+E W E E                 3#4#l.l.4#(#m.E                             ",
"                      e+s+&+6#7#E E E                 m.m.m.m.m.m.m.m.                            ",
"                      8#e+e+E [.).E E                 :+m.m.m. #j.9#Z.                            ",
"                      Z.0#C.E E E E E                   m./#r+C+C+p+p+p+                          ",
"                      q+E /+7#E E E E                   a#P.e+&+D@b#p+c#Z.                        ",
"                    d#q+w+,+g.$.Z.E E                   C@e#e+r+f#E E E E Z.                      ",
"                    g#,+E $.V $.h#E                     r+i#0#V.2.E E E E E                       ",
"                    ,+j#E Z.V $.h#E                     r@q+'+V.G 3#E E E E                       ",
"                    V k#E E E E E E                     ,+,+e+d@W #.V $.Z.E                       ",
"                      V V V E E E                       @+r@C+E g.g.g.$.$.E                       ",
"                      P l#E $.E E                       E Z@m#E [.F [.$.$.E                       ",
"                      P E E Z E E                         E E E E Z.$.$.n#{.                      ",
"                    #.$.$.$.E E E                             E $.Z.Z.$.E E                       ",
"                    Z $.P E E E                               $.o#E E $.E E                       ",
"                    p#E $.h.,@E                               E E q#o F E E                       ",
"                    E P r#i.{.                                  K o s#k 7#E                       ",
"                    Z L.,@E E                                   V o ^ k g.E                       ",
"                    t#x.{.,@E                                     u#^ = R E                       ",
"                  R ^ ^ h.{.v#E                                   ^ w#= 5 $.                      ",
"                0.P F k R x#i.E                                   y#k z#= V                       ",
"                A#B#C#g.$.h#E E E                                 D#E#$ F#k                       ",
"                ,+G#B#B#H#E {.E E E                               = = z#k y#                      ",
"                ,+E I#B#B#l#E E E E 9.                            J#= E#k ^                       ",
"                9.{.{.{.{.{.{.{.9._+/+                          / k = D#k ^ $.                    ",
"                                                              o+o K#k K#F g.$.                    ",
"                                                              ,+$.K F g.V {.{.                    ",
"                                                                      {.{.{.                      "};
