/* XPM */
static char * A6_xpm[] = {
"47 93 500 2",
"  	c None",
". 	c #3C2C2B",
"+ 	c #5B4845",
"@ 	c #493836",
"# 	c #54413F",
"$ 	c #725B57",
"% 	c #69534F",
"& 	c #5D4946",
"* 	c #735C58",
"= 	c #221615",
"- 	c #5D4A48",
"; 	c #5F4B47",
"> 	c #5F4B48",
", 	c #54423F",
"' 	c #2A2B2E",
") 	c #846B66",
"! 	c #816863",
"~ 	c #846A66",
"{ 	c #020000",
"] 	c #2A1917",
"^ 	c #574341",
"/ 	c #464242",
"( 	c #866E68",
"_ 	c #65514E",
": 	c #0D0201",
"< 	c #483635",
"[ 	c #473634",
"} 	c #4A3837",
"| 	c #210C0A",
"1 	c #58332E",
"2 	c #745D5A",
"3 	c #80625D",
"4 	c #241D1C",
"5 	c #40302F",
"6 	c #764F4A",
"7 	c #816460",
"8 	c #785550",
"9 	c #7E5F5A",
"0 	c #8A746E",
"a 	c #877069",
"b 	c #181211",
"c 	c #352524",
"d 	c #463533",
"e 	c #423130",
"f 	c #3E2E2D",
"g 	c #754F4A",
"h 	c #714641",
"i 	c #4C2722",
"j 	c #88736C",
"k 	c #8B766F",
"l 	c #402F2E",
"m 	c #453534",
"n 	c #483735",
"o 	c #6B5553",
"p 	c #73544F",
"q 	c #3C1D1B",
"r 	c #5C4C4B",
"s 	c #433231",
"t 	c #443332",
"u 	c #4A3938",
"v 	c #705855",
"w 	c #715B58",
"x 	c #6B4540",
"y 	c #483736",
"z 	c #312B2D",
"A 	c #41302F",
"B 	c #6A5452",
"C 	c #685350",
"D 	c #695451",
"E 	c #302120",
"F 	c #492B27",
"G 	c #000000",
"H 	c #150F0F",
"I 	c #523F3D",
"J 	c #180C0B",
"K 	c #6D5754",
"L 	c #4F4241",
"M 	c #272B2E",
"N 	c #342423",
"O 	c #6F5A57",
"P 	c #453433",
"Q 	c #762B1E",
"R 	c #231C1B",
"S 	c #584442",
"T 	c #252B2E",
"U 	c #3F2F2E",
"V 	c #6E5754",
"W 	c #0C0000",
"X 	c #71423C",
"Y 	c #59423E",
"Z 	c #0B0605",
"` 	c #302726",
" .	c #2A1D1C",
"..	c #66514E",
"+.	c #594C4B",
"@.	c #523F3E",
"#.	c #5C4947",
"$.	c #6C695F",
"%.	c #E3D486",
"&.	c #1E0000",
"*.	c #160502",
"=.	c #594A49",
"-.	c #7B6460",
";.	c #474444",
">.	c #444243",
",.	c #806B69",
"'.	c #2D2B2D",
").	c #493736",
"!.	c #564340",
"~.	c #7C6662",
"{.	c #765F5C",
"].	c #7A635F",
"^.	c #292626",
"/.	c #2E2D2D",
"(.	c #4E4A4C",
"_.	c #333638",
":.	c #78605C",
"<.	c #554140",
"[.	c #160F0F",
"}.	c #010000",
"|.	c #735955",
"1.	c #765E5A",
"2.	c #7C6864",
"3.	c #361D1B",
"4.	c #2A2829",
"5.	c #605555",
"6.	c #201615",
"7.	c #67524F",
"8.	c #5F4A48",
"9.	c #735B58",
"0.	c #554240",
"a.	c #270100",
"b.	c #120000",
"c.	c #4C3937",
"d.	c #34211F",
"e.	c #0C0B0B",
"f.	c #2B2929",
"g.	c #635454",
"h.	c #090101",
"i.	c #412E2C",
"j.	c #78615E",
"k.	c #79625E",
"l.	c #311B19",
"m.	c #050000",
"n.	c #030202",
"o.	c #43312F",
"p.	c #402E2C",
"q.	c #453331",
"r.	c #110D0D",
"s.	c #716D6D",
"t.	c #746262",
"u.	c #6B6260",
"v.	c #3C3231",
"w.	c #624D4B",
"x.	c #5B4846",
"y.	c #856F6A",
"z.	c #77625D",
"A.	c #806863",
"B.	c #755E5B",
"C.	c #4A3836",
"D.	c #473432",
"E.	c #42312F",
"F.	c #483533",
"G.	c #513D3B",
"H.	c #564240",
"I.	c #0B0A0A",
"J.	c #5A5454",
"K.	c #A47071",
"L.	c #6B5653",
"M.	c #5C413F",
"N.	c #714E49",
"O.	c #755E5A",
"P.	c #6A5552",
"Q.	c #644F4C",
"R.	c #5D4845",
"S.	c #020202",
"T.	c #4D3A37",
"U.	c #443230",
"V.	c #453230",
"W.	c #463432",
"X.	c #4C3936",
"Y.	c #0F0A0A",
"Z.	c #242020",
"`.	c #88726B",
" +	c #C48B7F",
".+	c #918586",
"++	c #5B4A47",
"@+	c #5B4745",
"#+	c #77605D",
"$+	c #271613",
"%+	c #1E100E",
"&+	c #594543",
"*+	c #473330",
"=+	c #463230",
"-+	c #483331",
";+	c #503E3B",
">+	c #1D0000",
",+	c #7B6562",
"'+	c #8F7575",
")+	c #221A1A",
"!+	c #3B3839",
"~+	c #433939",
"{+	c #220D0B",
"]+	c #331715",
"^+	c #0B0808",
"/+	c #010101",
"(+	c #291E1D",
"_+	c #503D3B",
":+	c #3D2524",
"<+	c #290504",
"[+	c #81797A",
"}+	c #675859",
"|+	c #0B0000",
"1+	c #0E0D0D",
"2+	c #847679",
"3+	c #7A7274",
"4+	c #4F2F2B",
"5+	c #352625",
"6+	c #232122",
"7+	c #343132",
"8+	c #181717",
"9+	c #908386",
"0+	c #988B8C",
"a+	c #211A1B",
"b+	c #8B7678",
"c+	c #98888B",
"d+	c #988A8B",
"e+	c #AB9598",
"f+	c #1F1E1E",
"g+	c #0F0E0E",
"h+	c #897F80",
"i+	c #998B8D",
"j+	c #371C1D",
"k+	c #C88586",
"l+	c #968184",
"m+	c #9E8E91",
"n+	c #A39093",
"o+	c #2D2B2C",
"p+	c #796F71",
"q+	c #96888A",
"r+	c #783024",
"s+	c #4D0101",
"t+	c #947E80",
"u+	c #A08F92",
"v+	c #A08F91",
"w+	c #0E0908",
"x+	c #020101",
"y+	c #2B1210",
"z+	c #0E0301",
"A+	c #211C1C",
"B+	c #1B1818",
"C+	c #8A7F81",
"D+	c #7F7678",
"E+	c #200202",
"F+	c #857375",
"G+	c #897B7E",
"H+	c #9A8B8E",
"I+	c #211A19",
"J+	c #150F0E",
"K+	c #271312",
"L+	c #421B17",
"M+	c #0C0C0C",
"N+	c #232222",
"O+	c #423E3F",
"P+	c #504D4D",
"Q+	c #6A6465",
"R+	c #573B38",
"S+	c #7A6D70",
"T+	c #9E8587",
"U+	c #3D1C18",
"V+	c #1C1B1B",
"W+	c #222020",
"X+	c #110E0E",
"Y+	c #322728",
"Z+	c #83797B",
"`+	c #7D7375",
" @	c #2B2525",
".@	c #302626",
"+@	c #7D7374",
"@@	c #7C7274",
"#@	c #3C3A3B",
"$@	c #605C5D",
"%@	c #1B1919",
"&@	c #270C0B",
"*@	c #310807",
"=@	c #391310",
"-@	c #463838",
";@	c #120F0D",
">@	c #766F70",
",@	c #54322E",
"'@	c #260D0C",
")@	c #140E0C",
"!@	c #837879",
"~@	c #362320",
"{@	c #6C524E",
"]@	c #1A1616",
"^@	c #343232",
"/@	c #070302",
"(@	c #1A0908",
"_@	c #2D1311",
":@	c #260000",
"<@	c #250503",
"[@	c #2E0908",
"}@	c #28110F",
"|@	c #070000",
"1@	c #0F0605",
"2@	c #160E0E",
"3@	c #160C0B",
"4@	c #110807",
"5@	c #030000",
"6@	c #241A19",
"7@	c #1E1211",
"8@	c #453332",
"9@	c #4F3C39",
"0@	c #3D2C2A",
"a@	c #382726",
"b@	c #2F2322",
"c@	c #0A0706",
"d@	c #533F3C",
"e@	c #4E3B39",
"f@	c #392827",
"g@	c #3A2928",
"h@	c #3E2D2B",
"i@	c #181212",
"j@	c #5A4542",
"k@	c #55413E",
"l@	c #5F4A47",
"m@	c #4C3A37",
"n@	c #3F2E2C",
"o@	c #55413F",
"p@	c #1B0F0E",
"q@	c #040000",
"r@	c #5D4947",
"s@	c #68534F",
"t@	c #6B5552",
"u@	c #3D2C2B",
"v@	c #1E1513",
"w@	c #523E3C",
"x@	c #705955",
"y@	c #6B5551",
"z@	c #856F68",
"A@	c #463433",
"B@	c #35221E",
"C@	c #433E3E",
"D@	c #373131",
"E@	c #312221",
"F@	c #23110D",
"G@	c #5B5859",
"H@	c #7A7172",
"I@	c #736B6C",
"J@	c #715858",
"K@	c #2E0000",
"L@	c #B09A9B",
"M@	c #5D4E4F",
"N@	c #635F5F",
"O@	c #837A7B",
"P@	c #2B2121",
"Q@	c #604C4C",
"R@	c #928485",
"S@	c #A99597",
"T@	c #9C8C8F",
"U@	c #615D5E",
"V@	c #4F4C4C",
"W@	c #544344",
"X@	c #877C7D",
"Y@	c #938687",
"Z@	c #7A7273",
"`@	c #908485",
" #	c #7F7576",
".#	c #706A6B",
"+#	c #9B8B8E",
"@#	c #97888A",
"##	c #846062",
"$#	c #100000",
"%#	c #908384",
"&#	c #8C7F81",
"*#	c #676162",
"=#	c #656061",
"-#	c #331C18",
";#	c #948788",
">#	c #555151",
",#	c #726B6C",
"'#	c #807677",
")#	c #524F50",
"!#	c #454142",
"~#	c #4B4748",
"{#	c #504B4C",
"]#	c #6D6667",
"^#	c #8C8081",
"/#	c #201E1E",
"(#	c #363333",
"_#	c #333030",
":#	c #3A3636",
"<#	c #454242",
"[#	c #938587",
"}#	c #3F3B3C",
"|#	c #221E1F",
"1#	c #090808",
"2#	c #111010",
"3#	c #3D393A",
"4#	c #696363",
"5#	c #423F3F",
"6#	c #161313",
"7#	c #231F1F",
"8#	c #575455",
"9#	c #342E2D",
"0#	c #302C2B",
"a#	c #585455",
"b#	c #5E5B5C",
"c#	c #413838",
"d#	c #484343",
"e#	c #1A1717",
"f#	c #2E2B2B",
"g#	c #5C5758",
"h#	c #050505",
"i#	c #535050",
"j#	c #2A2727",
"k#	c #0C0A09",
"l#	c #474344",
"m#	c #565354",
"n#	c #1C1818",
"o#	c #151111",
"p#	c #282424",
"q#	c #1F1B1B",
"r#	c #312E2E",
"s#	c #645E5F",
"t#	c #383535",
"u#	c #1D1919",
"v#	c #443E3F",
"w#	c #343031",
"x#	c #181414",
"y#	c #2A2322",
"z#	c #322F2F",
"A#	c #4C4949",
"B#	c #696364",
"C#	c #877D7E",
"D#	c #736D6E",
"E#	c #352C2D",
"F#	c #9C8B8C",
"G#	c #AC9798",
"H#	c #C7A7AA",
"I#	c #A59293",
"J#	c #98898C",
"K#	c #3E0000",
"L#	c #776F70",
"M#	c #8D8081",
"N#	c #615C5C",
"O#	c #413D3E",
"P#	c #343131",
"Q#	c #64261D",
"R#	c #320000",
"S#	c #161515",
"T#	c #544F50",
"U#	c #272525",
"V#	c #6D6768",
"W#	c #060404",
"X#	c #464345",
"Y#	c #585253",
"Z#	c #887C7E",
"`#	c #18110F",
" $	c #080000",
".$	c #948688",
"+$	c #92696A",
"@$	c #1A0E0D",
"#$	c #201413",
"$$	c #3B2B29",
"%$	c #7F7677",
"&$	c #332827",
"*$	c #0F0403",
"=$	c #170B09",
"-$	c #42201B",
";$	c #1C100F",
">$	c #060100",
",$	c #473C3B",
"'$	c #260C07",
")$	c #382C2B",
"!$	c #080201",
"~$	c #140807",
"{$	c #201312",
"]$	c #0F0201",
"^$	c #271A19",
"/$	c #2F1F1D",
"($	c #050202",
"_$	c #1F0F0C",
":$	c #655553",
"<$	c #332322",
"[$	c #070403",
"}$	c #392A29",
"|$	c #382827",
"1$	c #574847",
"2$	c #473534",
"3$	c #7C5853",
"4$	c #342524",
"5$	c #2A1715",
"6$	c #42231E",
"7$	c #6B4D48",
"8$	c #5F3732",
"9$	c #372927",
"0$	c #040202",
"a$	c #231B18",
"                                                                                              ",
"                                          . + @ # $ % & *                                     ",
"                                        = - ; > , ' ) ! ~                                     ",
"                                      { . ] ^ / ( ) ) ~ _ ~ )                                 ",
"                                      : < [ } | 1 ) ) ~ 2 ( 3                                 ",
"                                      4 . 5 . _ 6 ~ 7 8 9 0 a                                 ",
"                                    b c d e f ~ ~ ) g h i j k                                 ",
"                                  = . l m n o 2 ) p 1 . q . r                                 ",
"                                  s t u } v w 2 ) 1 x . . . .                                 ",
"                              y e z A . B C D E ~ F G q H . I                                 ",
"                          J . K L M . N & O P . | G _ q Q E G                                 ",
"                        R E S T T T . U C V W } | 2 G G X Y                                   ",
"                    Z `  ...2 2 +.M f @.2 #.= S . G $.%.&.                                    ",
"                *.. =.2 -.;.>.,.) '.).2 !.. . S _ &.                                          ",
"              W | S ~.{.].^././.(._.:.<.A [.}.*._ &.&.                                        ",
"            J G } 2 |.1.2.3.i Z 4.(.5.:.} 6.{ { : &.                                          ",
"          *.*.7.8.2 9.{.0.a.b.c.d.b e.f.g.( h.G                                               ",
"        G *.i.j.k.2 2 l.m.a.n.o.p.q.r.e.s.t.G G u.                                            ",
"      v.w.x.y.z.A.B.2 } . *.C.D.E.F.G.H.I.J.G | k _ K.                                        ",
"    { L.2 M.N.O.P.Q.R.*.G G S.T.U.V.W.X.Y.I.Z.G S `. +.+                                      ",
"    ++P.j.2 @+#+P.).$+%+{ G J = &+*+=+-+;+G (.>+| ,+'+.+                                      ",
"  . &+)+G !+~+{+]+9.^+G G G G : /+(+_+:+<+| [+}+|+1+2+3+4+                                    ",
"  : 5+G 6+7+8+8+R W G G G G G G G G G G *.W 9+0+a+b+c+d+e+                                    ",
"  h.: !+!+f+g+I.(.b.G G G G G G G G G G m.m.h+i+j+k+l+m+n+                                    ",
"  G G G G G |+b.b o+G G { G G G W }.G G >.!+p+q+r+s+t+u+v+                                    ",
"      G b b w+x+G G y+a.a.z+G m.G R R A+/.8+B+C+D+E+F+G+H+                                    ",
"      G G I+J+Z G G G G K+i L+J v.J M+N+>.N+O+P+Q+&.R+S+T+                                    ",
"              G G G G G G G W U+a.N+N+N+8+V+G W+X+G Y+Z+`+                                    ",
"              G G G G G G G G G z+W {  @A+}.G G G G .@+@@@                                    ",
"                G G G G /.G G G G G G G m.{ G G G G #@$@Q+                                    ",
"                G G G G /.>.%@G G a.U+L+&@m.*@=@z+G G G -@                                    ",
"                  G ;@G -@>@!+(.I.G G G y+i |+| 2 ,@'@b.|                                     ",
"                  G ;@G )@Q+Q+!@G G G G }.| a.| ~@{@i G G                                     ",
"                    G G G ]@G ^@;@G G G G /@(@_@y+m.| 2 |                                     ",
"                    G G G G G G G }.}.G G G G G | :@<@| [@G }@                                ",
"                    G G G G G G G G G G G G G G z+*.|@G *.G G                                 ",
"                      G G G : G 1@2@G 3@4@G G G G G G G G 5@b.G G                             ",
"                      G G G 6@: 7@8@8@9@0@a@b@c@G G G G G   G |                               ",
"                        G G R E E d@c.e@f@F.g@h@b   G   G     G                               ",
"                        G { i@W W j@k@l@m@n@G.o@p@    q@  G                                   ",
"                      b G G { J . r@o@s@> t@u@h@u@                                            ",
"                      Y v@G }.*.} w@x@y@z@A.V A@_                                             ",
"                    Y B@G G G  @C@D@E E@| . . . S )                                           ",
"                Y+F@G@H@I@J@K@J@L@M@N@!+!+O@G W G G  @                                        ",
"                P@>@G@I@H@>@F@Q@R@L@S@T@N@s.(.b.G G ~+                                        ",
"                Y+>@U@V@G@V@W@>@X@Y@T@!@Z@!+N@ @G }.`@                                        ",
"                W@ #.#G@G@>@Q@`@Y@+#T@@#!@!@T@##$#F@T@##                                      ",
"                >@!@>@G@G@!@Q@T@T@T@T@T@%#&#T@##}.}.Q+L@L@                                    ",
"                Q+!@*#G@G@=#-#;#T@`@T@T@T@T@;#`@&.&.G Y+Q+`@                                  ",
"                >#*#G@V@G@G@Y+>@Q+,#>@>@'#!@!@T@S@L@`@$#G G@=#>@                              ",
"                O+)#V@!#O+~#Y+O+{#Q+Q+]#>@!@^#T@T@T@T@&.&./#G@!@`@                            ",
"                (#O+O+O+_#:#]@;@_#<#$@Q+Q+)#O+)#!@;#[#!@!@_#G O+O+V@                          ",
"                  ]@(#}#O+|#X+1#2#_#_#_#3#}#_#}#Q+,#!@!@4#V@V@;@5#Q+Q+                        ",
"                    _#_#_#_#G ]@6#7#_#_#_#_#_#_#$@Q+H@Z@V@8#*#9#0#Q+Q+!@                      ",
"                    _#7#7#_#X+1#G ]@G G X+7#_#_#3#a#Q+G@V@G@b#Q+Q+c#d#V@                      ",
"                    O+O+O+O+O+G G G G G G G G e#f#G@g#O+O+Q+>@>@G@G@;@]@                      ",
"                      O+O+O+O+W+G G G G ]@X+G h#]@O+O+O+O+Q+G@!@G@i#d#G >@                    ",
"                      O+O+V@O+j#]@]@X+G h#]@G G k#O+_#l#m#V@V@!@Q+O+O+v@>@                    ",
"                      G X+]@]@]@G n#f#W+G ]@_#o#S.G X+G@G@V@V@!@G@p#O+G@>@T@                  ",
"                      G G 1#]@]@q#r#_#]@G ]@O+]@o#G G i#G@O+G@s#:#]@~#G@-@!@                  ",
"                        O+t#_#_#_#_#_#f#]@q#f#_#  G o#]@]@V@Q+:#u#]@G@G@G v#!@                ",
"                        |#O+O+O+3#_#_#_#]@_#]@r#      G G 3#f#]@j#O+O+_#f.G G@O+>@            ",
"                        ]@w#O+O+3#_#_#f#]@_#f#q#      x#G W+q#q#(#O+O+V@O+y#Q+V@>@            ",
"                          q#_#_#_#_#f#]@]@:#O+]@          G X+f#}#)#>@>@O+O+P@Y+G@            ",
"                          _#O+p#]@]@]@_#]@|#O+P@            G G G ]@_#_#Q+!@>@Q+G             ",
"                          n#z#O+_#_#_#_#7#]@O+P@              G G 7+A#B#`@C#D#Q+}.            ",
"                            n#f#_#_#_#_#_#_#O+E#                  1+!#V@G@>@Q+H@J@-@          ",
"                              ]@]@q#_#]@r#_#}#O+                6#;@&#u+L@F#>@!@T@G           ",
"                            _#h#]@]@]@]@n#f#(#O+                G Y+T@G#H#I#`@`@J#G           ",
"                          O+V@!#(#_#f#n#]@]@p#O+                &.K#Q+,#T@`@L#M#`@G           ",
"                        G Q+N#A#O#P#_#f#]@1#}#_#                G G / Q+Q#R#S#T#T@G           ",
"                      G k#,#=#G@O+O#(#j#7#G _#O#                  G P@Y+b.G { G U#G@          ",
"                    }.v@Q+!@G@V#g#O+w#7#j#O+O+u#                  W#v@G 5@{ W { G X#          ",
"                  G Y#Z#T@-#K@##T@_#]@o#G G                       `#S.G G J J J  $G           ",
"                  v@!@.$Y@&.K@+$T@j#x#S.G G                         G G G J @$#$W G           ",
"                v@$$V@`@%$##Q#d#O+o#S.G G                           G G h.: p@&$W {           ",
"                -#Y v@O+!@J@F@k#G G G G                             G G : J *$: :             ",
"                { { =$G X+-$}.G G G                                 G G : *$;$E J             ",
"              G G G G G G G G G                                     G G h.>$E ,$,$            ",
"            G G G  $W '$}.G G                                         G G }.)$E )$            ",
"            G G !$*.~$W -#G G                                         G : G {$E E G           ",
"            E *.*.]$G G {                                             G G G E ^$,$,$          ",
"          = = *./$= ($Z                                                 G G 5@W E =           ",
"        = = = _$E W Z Z                                                 G b G G G :$          ",
"      <$. <$E E {$G                                                         G [$` W v.        ",
"      . . }$E |$Z                                                           R E 1$. .         ",
"    v.).U . E .                                                             . . ,$S _         ",
"  = . P } } } S                                                             2$. ,$v.E = 3$    ",
"  = 4$. . . 5$_ | q                                                         1$. :$:$:$v.3$    ",
"  = E }$. . . . | } |                                                       1$E E ,$E { 6$    ",
"F@J E <$. 4$E = E E ~ } }                                                   1$= { J = ` 7$8$  ",
"9$Z ($J J J ($Z 0$G W W *.*.*.2 S                                           Z Z Z Z Z Z 9$9$a$",
"  Z Z Z Z Z Z Z Z Z Z Z Z G G G G                                           Z Z Z Z Z Z 9$    "};
