/* XPM */
static char * B1_xpm[] = {
"44 92 630 2",
"  	c None",
". 	c #584442",
"+ 	c #846B66",
"@ 	c #846A66",
"# 	c #745D5A",
"$ 	c #64504D",
"% 	c #754F4A",
"& 	c #252B2E",
"* 	c #726160",
"= 	c #866F6D",
"- 	c #8B766F",
"; 	c #A26D66",
"> 	c #53423F",
", 	c #715450",
"' 	c #775954",
") 	c #7E5F5A",
"! 	c #39393B",
"~ 	c #473C3B",
"{ 	c #4A3734",
"] 	c #493130",
"^ 	c #573532",
"/ 	c #684945",
"( 	c #77534E",
"_ 	c #8A746D",
": 	c #87716A",
"< 	c #65514E",
"[ 	c #302726",
"} 	c #372421",
"| 	c #45302B",
"1 	c #513937",
"2 	c #603C38",
"3 	c #7A5954",
"4 	c #877069",
"5 	c #846B65",
"6 	c #866F69",
"7 	c #4A3837",
"8 	c #231C1B",
"9 	c #2D1A18",
"0 	c #4B3733",
"a 	c #513E3C",
"b 	c #644541",
"c 	c #7E5D59",
"d 	c #866E68",
"e 	c #181211",
"f 	c #5C4643",
"g 	c #361F1E",
"h 	c #301C19",
"i 	c #6D4946",
"j 	c #826863",
"k 	c #7F6962",
"l 	c #806863",
"m 	c #816964",
"n 	c #856D66",
"o 	c #705E5D",
"p 	c #331917",
"q 	c #38201D",
"r 	c #311E1C",
"s 	c #2C1F1D",
"t 	c #6B4B49",
"u 	c #6D5553",
"v 	c #54413E",
"w 	c #836E66",
"x 	c #70524D",
"y 	c #000000",
"z 	c #705957",
"A 	c #3C3231",
"B 	c #26110F",
"C 	c #311F1D",
"D 	c #31201F",
"E 	c #2F2221",
"F 	c #624845",
"G 	c #836965",
"H 	c #251717",
"I 	c #312120",
"J 	c #3B2C2B",
"K 	c #3B2B2A",
"L 	c #332B29",
"M 	c #342523",
"N 	c #2C1412",
"O 	c #322625",
"P 	c #3B2C2A",
"Q 	c #302221",
"R 	c #433331",
"S 	c #392724",
"T 	c #7D605A",
"U 	c #251615",
"V 	c #342524",
"W 	c #180C0B",
"X 	c #3C2C2B",
"Y 	c #302120",
"Z 	c #200C0A",
"` 	c #372A29",
" .	c #332220",
"..	c #392B2A",
"+.	c #382A29",
"@.	c #402C2A",
"#.	c #7D5E59",
"$.	c #362625",
"%.	c #846E66",
"&.	c #0D0000",
"*.	c #0B0605",
"=.	c #675350",
"-.	c #42302F",
";.	c #2F1A18",
">.	c #4F3C3B",
",.	c #2B1210",
"'.	c #2D1715",
").	c #3C2A29",
"!.	c #7E605A",
"~.	c #100000",
"{.	c #13100F",
"].	c #7C6360",
"^.	c #735955",
"/.	c #594543",
"(.	c #261312",
"_.	c #261817",
":.	c #433130",
"<.	c #5E4643",
"[.	c #030000",
"}.	c #948F7F",
"|.	c #AEACA0",
"1.	c #1E0000",
"2.	c #595557",
"3.	c #4F4747",
"4.	c #645858",
"5.	c #4C4444",
"6.	c #7F7677",
"7.	c #846E6C",
"8.	c #716D6D",
"9.	c #7C6D6B",
"0.	c #806663",
"a.	c #7A625E",
"b.	c #67524F",
"c.	c #382421",
"d.	c #3A2A29",
"e.	c #846A65",
"f.	c #361612",
"g.	c #0B0A0A",
"h.	c #232222",
"i.	c #1E1717",
"j.	c #3F2F2E",
"k.	c #423432",
"l.	c #382B2A",
"m.	c #403333",
"n.	c #433E3D",
"o.	c #524F4F",
"p.	c #605C5C",
"q.	c #7A7172",
"r.	c #857272",
"s.	c #7F6662",
"t.	c #705956",
"u.	c #2B1917",
"v.	c #0B0000",
"w.	c #140000",
"x.	c #1D0000",
"y.	c #181717",
"z.	c #806763",
"A.	c #5D4B48",
"B.	c #4C3936",
"C.	c #45322F",
"D.	c #4A3836",
"E.	c #332927",
"F.	c #322927",
"G.	c #352A2A",
"H.	c #61524C",
"I.	c #6B4844",
"J.	c #7F615C",
"K.	c #4E4A4C",
"L.	c #221615",
"M.	c #0D0201",
"N.	c #D7C26B",
"O.	c #AA956B",
"P.	c #2E0000",
"Q.	c #363335",
"R.	c #735D59",
"S.	c #775E5A",
"T.	c #5A423F",
"U.	c #6E4A45",
"V.	c #785550",
"W.	c #764F4A",
"X.	c #836964",
"Y.	c #6C4944",
"Z.	c #5C3F3B",
"`.	c #403130",
" +	c #3D2C2A",
".+	c #6D4E4B",
"++	c #655553",
"@+	c #333030",
"#+	c #2F0A0A",
"$+	c #3F3534",
"%+	c #765753",
"&+	c #4F3D3A",
"*+	c #4D3634",
"=+	c #4A312D",
"-+	c #6F4F49",
";+	c #573633",
">+	c #391C1A",
",+	c #67443F",
"'+	c #73514C",
")+	c #563734",
"!+	c #3E2E2C",
"~+	c #664D49",
"{+	c #3B1D1A",
"]+	c #837A7B",
"^+	c #5B5454",
"/+	c #140A08",
"(+	c #2E2C2C",
"_+	c #322626",
":+	c #8C7373",
"<+	c #A08482",
"[+	c #7B5C58",
"}+	c #5B3F3C",
"|+	c #473534",
"1+	c #4D3633",
"2+	c #4C3531",
"3+	c #4A322E",
"4+	c #4A2E2B",
"5+	c #5F423F",
"6+	c #6B4843",
"7+	c #3E1D19",
"8+	c #311816",
"9+	c #301B1A",
"0+	c #3F1919",
"a+	c #2E0303",
"b+	c #311210",
"c+	c #837879",
"d+	c #4E2B25",
"e+	c #3B2420",
"f+	c #5F150F",
"g+	c #532019",
"h+	c #4F4C4C",
"i+	c #8E7674",
"j+	c #BAA0A2",
"k+	c #AC8F91",
"l+	c #7D605D",
"m+	c #574340",
"n+	c #25110E",
"o+	c #543C39",
"p+	c #543935",
"q+	c #422F2C",
"r+	c #4D3937",
"s+	c #2E1917",
"t+	c #2A1918",
"u+	c #2C2220",
"v+	c #3C1D1B",
"w+	c #692B1F",
"x+	c #441814",
"y+	c #290000",
"z+	c #907879",
"A+	c #9B5F56",
"B+	c #1D0F0B",
"C+	c #52221B",
"D+	c #512923",
"E+	c #6F6969",
"F+	c #B19B9C",
"G+	c #C3A5A8",
"H+	c #AB736E",
"I+	c #624E4E",
"J+	c #655F60",
"K+	c #020000",
"L+	c #0E0101",
"M+	c #413532",
"N+	c #120503",
"O+	c #372927",
"P+	c #362726",
"Q+	c #3E302E",
"R+	c #0C0000",
"S+	c #401E1A",
"T+	c #512624",
"U+	c #806462",
"V+	c #281511",
"W+	c #24120F",
"X+	c #4D4647",
"Y+	c #716667",
"Z+	c #AC9697",
"`+	c #BBA0A2",
" @	c #9E8688",
".@	c #B79EA1",
"+@	c #A69295",
"@@	c #3B3839",
"#@	c #070707",
"$@	c #201514",
"%@	c #150502",
"&@	c #130301",
"*@	c #64261D",
"=@	c #3E0000",
"-@	c #521D1B",
";@	c #734A45",
">@	c #360808",
",@	c #755A58",
"'@	c #574545",
")@	c #272525",
"!@	c #9C686A",
"~@	c #9C8C8F",
"{@	c #918586",
"]@	c #B29B9C",
"^@	c #8F8082",
"/@	c #1E1E1E",
"(@	c #C7A7AA",
"_@	c #E7B5B8",
":@	c #92696A",
"<@	c #908485",
"[@	c #8B7A7A",
"}@	c #765854",
"|@	c #744B46",
"1@	c #6C4E4B",
"2@	c #7B635F",
"3@	c #6A5652",
"4@	c #403331",
"5@	c #523F3E",
"6@	c #210C0A",
"7@	c #713F37",
"8@	c #71423C",
"9@	c #42231E",
"0@	c #8E7F81",
"a@	c #281612",
"b@	c #230000",
"c@	c #BA9FA2",
"d@	c #846062",
"e@	c #6F6060",
"f@	c #A07674",
"g@	c #734943",
"h@	c #735451",
"i@	c #010000",
"j@	c #7A635F",
"k@	c #77605D",
"l@	c #7B625F",
"m@	c #764944",
"n@	c #6D5756",
"o@	c #A79294",
"p@	c #725D5E",
"q@	c #150000",
"r@	c #1C1718",
"s@	c #BEA2A4",
"t@	c #726767",
"u@	c #9F8C8F",
"v@	c #42201B",
"w@	c #331C18",
"x@	c #220C07",
"y@	c #705A57",
"z@	c #76605C",
"A@	c #6B5653",
"B@	c #59423E",
"C@	c #756A69",
"D@	c #AB9496",
"E@	c #A78886",
"F@	c #352C2C",
"G@	c #B19A9C",
"H@	c #BCA0A3",
"I@	c #AD9699",
"J@	c #3F3535",
"K@	c #948386",
"L@	c #604C4C",
"M@	c #190000",
"N@	c #23110D",
"O@	c #090504",
"P@	c #6F5956",
"Q@	c #765E5B",
"R@	c #6C5754",
"S@	c #200C0B",
"T@	c #3B1714",
"U@	c #463838",
"V@	c #A79295",
"W@	c #837173",
"X@	c #B0979A",
"Y@	c #AC9598",
"Z@	c #484343",
"`@	c #524B4C",
" #	c #847678",
".#	c #594F4D",
"+#	c #050000",
"@#	c #65504E",
"##	c #695350",
"$#	c #2C1D1C",
"%#	c #120F0D",
"&#	c #493232",
"*#	c #5B4849",
"=#	c #5F4D4E",
"-#	c #A89093",
";#	c #988586",
">#	c #4A3E40",
",#	c #5F5355",
"'#	c #807677",
")#	c #827273",
"!#	c #544344",
"~#	c #644F4D",
"{#	c #69524F",
"]#	c #2D1311",
"^#	c #715858",
"/#	c #A47071",
"(#	c #4C0000",
"_#	c #181415",
":#	c #4B4546",
"<#	c #241E1D",
"[#	c #AF9698",
"}#	c #817274",
"|#	c #514243",
"1#	c #8E8081",
"2#	c #4D4748",
"3#	c #2B2121",
"4#	c #41231E",
"5#	c #6A5552",
"6#	c #5F4845",
"7#	c #1A0705",
"8#	c #614A4B",
"9#	c #765451",
"0#	c #675C5C",
"a#	c #A79093",
"b#	c #847778",
"c#	c #210303",
"d#	c #897C7E",
"e#	c #5B5859",
"f#	c #1C1616",
"g#	c #5B4644",
"h#	c #120000",
"i#	c #311A1A",
"j#	c #6E4647",
"k#	c #9A777A",
"l#	c #5E4C4D",
"m#	c #988688",
"n#	c #796F70",
"o#	c #766F70",
"p#	c #343232",
"q#	c #1B1A1A",
"r#	c #471C1C",
"s#	c #A18F91",
"t#	c #1F1A1A",
"u#	c #B69C9E",
"v#	c #736A6B",
"w#	c #6E6869",
"x#	c #302E2E",
"y#	c #1E1513",
"z#	c #331715",
"A#	c #6B2B2C",
"B#	c #B59DA0",
"C#	c #746869",
"D#	c #221210",
"E#	c #1A1616",
"F#	c #1C0C0B",
"G#	c #41201C",
"H#	c #3C3A3B",
"I#	c #793E3F",
"J#	c #C0A3A6",
"K#	c #353232",
"L#	c #240F0D",
"M#	c #593332",
"N#	c #493334",
"O#	c #928081",
"P#	c #160807",
"Q#	c #53413E",
"R#	c #170B09",
"S#	c #120202",
"T#	c #545050",
"U#	c #140E0C",
"V#	c #160502",
"W#	c #080201",
"X#	c #312422",
"Y#	c #0A0404",
"Z#	c #171212",
"`#	c #121212",
" $	c #2F2322",
".$	c #070302",
"+$	c #100807",
"@$	c #090101",
"#$	c #070404",
"$$	c #41302F",
"%$	c #1C1818",
"&$	c #310807",
"*$	c #180B0B",
"=$	c #070403",
"-$	c #270100",
";$	c #6D5954",
">$	c #392928",
",$	c #160E0E",
"'$	c #262525",
")$	c #4B4646",
"!$	c #6B5F60",
"~$	c #4E4343",
"{$	c #6A6465",
"]$	c #0F0E0E",
"^$	c #4D4A4B",
"/$	c #413E3E",
"($	c #381510",
"_$	c #161515",
":$	c #A18E8F",
"<$	c #9C8B8C",
"[$	c #58231C",
"}$	c #190B0A",
"|$	c #797172",
"1$	c #8F8284",
"2$	c #7C3031",
"3$	c #98898C",
"4$	c #948788",
"5$	c #6B4D48",
"6$	c #877D7E",
"7$	c #AC9798",
"8$	c #A08F92",
"9$	c #790000",
"0$	c #7B0600",
"a$	c #877C7D",
"b$	c #938687",
"c$	c #9E8E8F",
"d$	c #998A8D",
"e$	c #B09A9B",
"f$	c #450C09",
"g$	c #736060",
"h$	c #480000",
"i$	c #5B0000",
"j$	c #5F5252",
"k$	c #3C2928",
"l$	c #854D47",
"m$	c #845C58",
"n$	c #6D6768",
"o$	c #2B1A18",
"p$	c #635455",
"q$	c #2B0807",
"r$	c #3B0000",
"s$	c #7A7273",
"t$	c #565152",
"u$	c #423E3F",
"v$	c #4A4647",
"w$	c #862C1D",
"x$	c #2F0000",
"y$	c #521913",
"z$	c #726B6C",
"A$	c #5E5B5C",
"B$	c #696465",
"C$	c #696364",
"D$	c #504B4C",
"E$	c #9F8285",
"F$	c #280000",
"G$	c #201310",
"H$	c #605C5D",
"I$	c #464343",
"J$	c #595454",
"K$	c #AC8C8D",
"L$	c #362929",
"M$	c #2A1A17",
"N$	c #3D393A",
"O$	c #585455",
"P$	c #2B2627",
"Q$	c #676162",
"R$	c #8C8081",
"S$	c #2A2726",
"T$	c #7F7576",
"U$	c #3D2C2D",
"V$	c #635F60",
"W$	c #2F2C2C",
"X$	c #302C2C",
"Y$	c #646061",
"Z$	c #060000",
"`$	c #413D3E",
" %	c #363333",
".%	c #3F3B3C",
"+%	c #656061",
"@%	c #302727",
"#%	c #4B4748",
"$%	c #393636",
"%%	c #565354",
"&%	c #4E4B4C",
"*%	c #494646",
"=%	c #474344",
"-%	c #555151",
";%	c #282424",
">%	c #2B2929",
",%	c #762B1E",
"'%	c #EAB1C1",
")%	c #231F1F",
"!%	c #938587",
"~%	c #422C2D",
"{%	c #B3787A",
"]%	c #A99597",
"^%	c #322728",
"/%	c #524F50",
"(%	c #433D3D",
"_%	c #2A2727",
":%	c #160D0E",
"<%	c #1F1B1B",
"[%	c #1F1818",
"}%	c #343131",
"|%	c #877678",
"1%	c #685F60",
"2%	c #2E2B2B",
"3%	c #171515",
"4%	c #2B2525",
"5%	c #151111",
"6%	c #080000",
"7%	c #070000",
"8%	c #111010",
"9%	c #1D1A19",
"0%	c #020202",
"a%	c #282626",
"b%	c #332423",
"c%	c #1B0F0E",
"d%	c #241716",
"e%	c #302524",
"f%	c #1D100F",
"g%	c #281A19",
"h%	c #190F0E",
"i%	c #392A29",
"j%	c #201A19",
"k%	c #211313",
"l%	c #0E0301",
"m%	c #392D2C",
"n%	c #0A0201",
"o%	c #2F2727",
"p%	c #0B0706",
"q%	c #020101",
"r%	c #171110",
"s%	c #0C0706",
"t%	c #1F1514",
"u%	c #150F0E",
"v%	c #281312",
"w%	c #110402",
"x%	c #0C0807",
"y%	c #513B39",
"z%	c #261717",
"A%	c #2A1E1D",
"B%	c #3A302F",
"C%	c #6A5452",
"D%	c #3E2D2C",
"E%	c #2B2322",
"F%	c #040303",
"G%	c #4C3836",
"H%	c #2D1816",
"I%	c #342624",
"J%	c #6B5553",
"K%	c #4E3C3A",
"L%	c #352625",
"M%	c #271E1D",
"                                      . + @ #                                           ",
"                                  $ % % & * = - @ ;                                     ",
"                                > , ' ) & ! = - + ~ {                                   ",
"                                ] ^ / ( % ) ) _ : < [                                   ",
"                              } | 1 2 3 4 5 ) : 6 < 7 8                                 ",
"                              9 0 a b c d d = : d < . e                                 ",
"                              f g h i j 5 k l m n o [ [                                 ",
"                            p q r s t u v w x y z A 8                                   ",
"                            B C D E F G H I J K L M J                                   ",
"                          . N O P Q R S T U V J W y y                                   ",
"                      < X Y Z `  ...+.@.#.$.%.&.7 *.e                                   ",
"                  =.@ -.;.>.,.,.'.Q ..).!.~.&.y y {.e                                   ",
"                  @ @ @ ].^.# /.Y (._.:.<.~.[.}.|.y 1.                                  ",
"          2.3.4.5.6.7.8.9.0.a.a.b.c.V d.e.~.y y y f.                                    ",
"      g.h.i.j.k.l.m.n.o.p.q.r.s.t.< X u.< v.y w.x.~.                                    ",
"      y.h.z.A.B.C.D.E.F.G.H.I.J.K.L.M.W y y y N.O.P.                                    ",
"    2.Q.R.S.T.U.V.W.X.Y.Z.`. +.+A 8.++X y y y @+#+P.                                    ",
"    $+%+&+*+=+-+Y.;+>+,+'+)+!+~+{+v.]+^+y y /+(+_+P.                                    ",
"    :+<+[+}+|+1+2+3+4+5+6+7+8+9+r 0+a+b+c+d+e+f+g+h+                                    ",
"    i+j+k+l+m+n+D o+p+q+r+s+t+u+v+w+x+y+1.z+A+B+C+D+y                                   ",
"    E+F+G+H+I+J+[ K+L+M+N+O+P+Q+R+y y 1.S+T+U+V+W+C+y                                   ",
"    X+Y+Z+`+ @.@+@@@y #@K+$@%@R+&@C+*@*@=@-@;@>@,@~.P.                                  ",
"    '@)@!@~@{@]@^@@+/@y y y y [.(@_@(@:@<@[@}@~.|@1@y y                                 ",
"    2@3@4@5@6@7@8@9@0@a@b@P.1.y c@(@(@d@<@e@f@P.g@h@y &.i@y               y y y y       ",
"    j@k@l@. 6@6@m@n@o@p@P.P.q@r@`+(@s@d@~@t@u@=@=@v@y w@x@i@y         v.[.y y y         ",
"    y@z@A@Y v+L.B@C@D@E@i@w.y F@G@H@I@:@y J@K@L@M@~.N@i@y y y y y y y y y R+y y y O@    ",
"    P@Q@R@R+S@L.y ~.P.T@y i@U@V@W@X@Y@L@Z@`@ #.#~.+#    y y N@y y y y y y y y y y y y K+",
"    @## ##$#R+M.%#&#b@P.y i@c+*#=#-#;#>#,#'#)#!#i@y           y y y y y y y y y         ",
"    ~#{#y@]#6@y ^#1./#(#_#:#c+@+<#[#}#|#1#2#^@3#y y y                 y y y y i@i@N@4#  ",
"    5#6#y@6@7#y w@v.1.P.8#9#y Z@0#a#b#c#d#y e#f#y y y                         y ~.1.    ",
"    @ g## h#K+y ~.y ~.i#j#k#y l#m#n#o#1.p#y h+q#y i@y                                   ",
"  y < < ~ y W y ~.1.i@/#r#s#t#u#v#o#w#y y y x#h+y#y y                                   ",
"  y z#6@z#y y y ~.U@y y =@A#B#C#y D#P.v.y i@y E#y y y                                   ",
"y F#G#R+,.y y y i@H#y y 1.I#J#K#y y v.M@P.1.y#@+y y y                                   ",
"y L#,.M#Y y   y y y y y i@N#O#%#y y y (#y y y i@~.~.~.                                  ",
"P#y 7 Y Q#y     y R#y#y i@S#T#U#y y y i@y#y#O+i@9@i@                                    ",
"V#W#. R+. y     y 9@y i@X#!#p#y y y y y y y y y K+y                                     ",
"  V#W ,.,.y       y R+K+8 )@y y i@W Y#R+Z#y y `#@@                                      ",
"  y 8 v+v+      e  $y V#L.y K+y K+.$+$+#K+@$y #$y.                                      ",
"  y 8 6@z#      K+Y y X 7 y K+y @$Y L.K.y 8 y *.g.                                      ",
"  y Y [ Y     8 A Y 7 . $$Y v.V#y Y X X V#i@y %$q#                                      ",
"    &$,.y     y K++ % + Y *$y y =$8 ,.@ . y y y M.K+                                    ",
"    -$v+K+  y y W . - ;$X W $$>$N+*.V#7 W ,$y K+W W M.                                  ",
"    h#,.R+'$y.2.8.)$V#X !$~$>$$$W K++#L.@@@@y y V#X {$o#                                ",
"    y y L.y.]$h.^$8.8.8.K.y v.+#~$2.2.2.2.2./$y ($*@Z@                                  ",
"    V#V#+##$g._$h+c+:$<$o#1.~.~.<@c+<@<@~@<@o#*@*@[$O+                                  ",
"    -$-$-$. }$g.h+|$c+o#1$2$~.M@3$<@o#4$~@<@5$8@8@8@<@c+                                ",
"    v.x.x.. Y C+C+o#o#6$7$8$9$0$c+<@a$3$b$c$d$<@e#{$e$e$                                ",
"    v.6@v.X 6@C+f$g$o#c+:$e$h$i$c+~@<@~@c+~@b$j$y y <@o#                                ",
"    y +#+#k$6@y @+v@l$m$c+c+i$i$o#<@<@e#n$o#o#c+L@c+N@c+e#                              ",
"    V#v.6@6@o$w@@+e#{${$c+~@<@p${$c+c+/$e#~@<@~@^#<@~.o#h+                              ",
"    6@,.6@q$r$P.@+e#{${$s$c+c+{$t$h+e#u$u$h+h+o#!#c+1.<@{$v$                            ",
"    P.C+w$=@x$y$v@u$@+u$e#e#z$w#h+@+E#E#e#~@~@o#L@c+i@o#z${$                            ",
"    1.1.*@  C+@+=@h+h+h+h+A$B$z$C$h+y u$D${$<@(@/#E$~.c+e#h+                            ",
"      F$~.  1.E#G$e#e#e#A${$H$h+I$@+y E#J$e#n$e$K$/#P.~@{$u$                            ",
"      ~.  1.L$M$E#N$e#n${$O$u$h+h+Z@y E#P$Q$e#c+~@:@P.~@R$c+                            ",
"          i@  S$@+E#E#E#{$o#o#o#T${$y u$u$c+<@~.U$L@P.(@c+V$                            ",
"              @+E#W$X$E#@+@+Y$o#o#h+  E#h+h+~@Z$~.L@~.e$~@{$                            ",
"              `$ %@+.%e#{$+%e#h+{$h+    u${$e#1.=@d@1.e$(@e$                            ",
"              @%u$u$#%$%.%%%o#o#o#h+      {$z$~.~.P.(#:@<@c+u$                          ",
"              y u$u$&%*% %=%e#Y$o#u$      -%{$~.~.P.(#i$e$e$@+                          ",
"              y @+;%u$#%o#|$c+<@h+u$      y >%Z$~.1.:@,%'%_@{$                          ",
"                %#)% %.%o#c+!%4$c+|$        y !#~%1.e${%(@<@{$                          ",
"                %#@+@+@+w#o#~@~@!%c+          {$1.q@~@!#(@c+e#@+                        ",
"                  E#)%@+e#<@~@~@]%c+          e#w@i@~@^%~@{${$u$                        ",
"                  @+u$@+/%u$e$(@e$e#            {$i@o#N@=@i@3#@+                        ",
"                  @+@+)%u$u$e$(@e${$            (%^%!#i@1.y y y                         ",
"                  @+N$)%_%h+{$q.<@h+            ^%:%y v.v.y y y                         ",
"                v@e#u$@+<%#%D${$/%u$          ^%[%y y y y y y y                         ",
"                L@o#h+E#E#.% %h+u$}%          i@y y y y y y y y y                       ",
"              L@|%1%2%<%E#_%3%y               y Z#y y y y y y y y                       ",
"              h#4%@+E#@+E#5%y y y             y y y y y 6%6%y y y                       ",
"              7%y 8%@+9%5%0%y   y             y y @$i@y R+R+y y a%                      ",
"            y y y y E#y y y   y y               R+R+L.L.L.L.y y                         ",
"          y +#y y y y y y E#y y                 M.R+b%L.L.c%y y                         ",
"            y y y y y y y y y y                 [ W Y d%L.W y y                         ",
"            y y y y y y y y                       e%f%g%[ h%y y                         ",
"            y y y y y y y                         y i%Y $+j%y y                         ",
"            y y y y y y                             Y Y L.y y y                         ",
"          K+y y y y y y                             7 7 k%l%y                           ",
"          y y y y y y                               . m%7 o *.                          ",
"          n%y y y y y                               6@Y 7 o%y                           ",
"          e p%q%y                                   V#R+F#y y y                         ",
"          #$r%s%*.                                  y y y y y y                         ",
"          L.t%u%*.                                  y 6@X W y y                         ",
"        L.v%< ,.V#                                  w%y V#y x%L.M.                      ",
"        V#,.y%6@6@                                  # # z%. A%B%[                       ",
"        Y ,.,.C%. Y                                 7 . . D%~ E%F%                      ",
"        6@z#. G%H%6@V#                            . < . I%A A y y                       ",
"        R+V#< 6@7#Y #                         7 J%# @ K%X W @$y *.                      ",
"            L.W R+M.K+                        L%7 Y $$X X L.y y y                       ",
"                                            # K+7 M%Y # ++*.y =$*.                      "};
