/* XPM */
static char * B5_xpm[] = {
"48 94 415 2",
"  	c None",
". 	c #745D5A",
"+ 	c #5D4847",
"@ 	c #624E4B",
"# 	c #846B66",
"$ 	c #866E68",
"% 	c #7E5F5A",
"& 	c #846B65",
"* 	c #7C6560",
"= 	c #584443",
"- 	c #634F4C",
"; 	c #221615",
"> 	c #87716A",
", 	c #89726C",
"' 	c #252B2E",
") 	c #6B5451",
"! 	c #584442",
"~ 	c #5A4644",
"{ 	c #564241",
"] 	c #65514E",
"^ 	c #856D67",
"/ 	c #604D4B",
"( 	c #433D3D",
"_ 	c #846A66",
": 	c #503E3C",
"< 	c #877069",
"[ 	c #210C0A",
"} 	c #604D4A",
"| 	c #4A3837",
"1 	c #181211",
"2 	c #2B1210",
"3 	c #7B635E",
"4 	c #453332",
"5 	c #000000",
"6 	c #6C5653",
"7 	c #755E5A",
"8 	c #66514E",
"9 	c #4F3D3C",
"0 	c #5C4846",
"a 	c #614C4A",
"b 	c #4C3A39",
"c 	c #0F0403",
"d 	c #684D4A",
"e 	c #614744",
"f 	c #553936",
"g 	c #4E3C3A",
"h 	c #866D68",
"i 	c #564341",
"j 	c #271A19",
"k 	c #110B0B",
"l 	c #3C2C2B",
"m 	c #4F3331",
"n 	c #583B39",
"o 	c #513E3D",
"p 	c #8A736D",
"q 	c #5D4A47",
"r 	c #554140",
"s 	c #5E3531",
"t 	c #3C1D1B",
"u 	c #483231",
"v 	c #78605C",
"w 	c #76605B",
"x 	c #624F4B",
"y 	c #483D3D",
"z 	c #52403F",
"A 	c #301C1B",
"B 	c #4D3A39",
"C 	c #4F3C3B",
"D 	c #66514F",
"E 	c #79615E",
"F 	c #66504D",
"G 	c #2A1C1B",
"H 	c #303032",
"I 	c #302120",
"J 	c #1F0F0C",
"K 	c #190805",
"L 	c #493837",
"M 	c #574443",
"N 	c #705A56",
"O 	c #5B4C4A",
"P 	c #725B58",
"Q 	c #4E3C3B",
"R 	c #6F5955",
"S 	c #0C0000",
"T 	c #433231",
"U 	c #594542",
"V 	c #7D6461",
"W 	c #806863",
"X 	c #79615D",
"Y 	c #281F1E",
"Z 	c #180C0B",
"` 	c #444243",
" .	c #4E4A4C",
"..	c #837879",
"+.	c #635F5F",
"@.	c #5D4946",
"#.	c #4C3B3A",
"$.	c #251D1C",
"%.	c #1C1A1A",
"&.	c #191818",
"*.	c #181717",
"=.	c #2B2525",
"-.	c #544948",
";.	c #6B2E24",
">.	c #4E3B39",
",.	c #4F4C4C",
"'.	c #342F2F",
").	c #443939",
"!.	c #352827",
"~.	c #503D3C",
"{.	c #4A3A39",
"].	c #191413",
"^.	c #1C1B1B",
"/.	c #423E3F",
"(.	c #302726",
"_.	c #806B69",
":.	c #130000",
"<.	c #350E0E",
"[.	c #4A3736",
"}.	c #433E3E",
"|.	c #544544",
"1.	c #201717",
"2.	c #030303",
"3.	c #2D1B19",
"4.	c #583E3C",
"5.	c #573F3E",
"6.	c #56403D",
"7.	c #241B1A",
"8.	c #585556",
"9.	c #6D5654",
"0.	c #391616",
"a.	c #4D2826",
"b.	c #583733",
"c.	c #4B3938",
"d.	c #523735",
"e.	c #4E4949",
"f.	c #333030",
"g.	c #23110D",
"h.	c #464343",
"i.	c #100807",
"j.	c #734E49",
"k.	c #4B2F2C",
"l.	c #543C3A",
"m.	c #47302D",
"n.	c #4A3734",
"o.	c #503C3A",
"p.	c #5B5859",
"q.	c #0C0A09",
"r.	c #3D3A3A",
"s.	c #58332E",
"t.	c #543530",
"u.	c #4B3937",
"v.	c #4F3736",
"w.	c #58413E",
"x.	c #372927",
"y.	c #4D3A37",
"z.	c #484343",
"A.	c #110E0E",
"B.	c #1C1616",
"C.	c #4C4949",
"D.	c #433F40",
"E.	c #373131",
"F.	c #716D6D",
"G.	c #232222",
"H.	c #473E3D",
"I.	c #483534",
"J.	c #4C3836",
"K.	c #4C3938",
"L.	c #2E1C19",
"M.	c #473534",
"N.	c #463433",
"O.	c #221F1E",
"P.	c #211A1A",
"Q.	c #231F1F",
"R.	c #262424",
"S.	c #64261D",
"T.	c #595557",
"U.	c #2E2D2D",
"V.	c #3D3332",
"W.	c #4D3938",
"X.	c #543A37",
"Y.	c #34201D",
"Z.	c #463534",
"`.	c #382A28",
" +	c #474344",
".+	c #393636",
"++	c #413D3E",
"@+	c #3E0000",
"#+	c #331715",
"$+	c #270100",
"%+	c #020000",
"&+	c #524646",
"*+	c #5A4E4E",
"=+	c #56403C",
"-+	c #301A16",
";+	c #26130F",
">+	c #2A201D",
",+	c #524F50",
"'+	c #4B4748",
")+	c #454242",
"!+	c #3D393A",
"~+	c #363333",
"{+	c #1C0D0A",
"]+	c #0B0000",
"^+	c #050000",
"/+	c #391310",
"(+	c #310807",
"_+	c #030000",
":+	c #120F0D",
"<+	c #1E1513",
"[+	c #1A1616",
"}+	c #514948",
"|+	c #0B0A0A",
"1+	c #050505",
"2+	c #1C0C0B",
"3+	c #220E0D",
"4+	c #040000",
"5+	c #312422",
"6+	c #59423E",
"7+	c #161210",
"8+	c #322523",
"9+	c #332320",
"0+	c #222020",
"a+	c #251E1D",
"b+	c #282626",
"c+	c #090808",
"d+	c #160502",
"e+	c #160807",
"f+	c #421B17",
"g+	c #010000",
"h+	c #443331",
"i+	c #4A3735",
"j+	c #3D2C2A",
"k+	c #402B29",
"l+	c #111010",
"m+	c #0E0301",
"n+	c #544344",
"o+	c #44312F",
"p+	c #3D2926",
"q+	c #231311",
"r+	c #231B18",
"s+	c #1F1B1B",
"t+	c #2B2121",
"u+	c #343232",
"v+	c #040303",
"w+	c #060404",
"x+	c #3D2D2A",
"y+	c #312523",
"z+	c #171210",
"A+	c #0A0201",
"B+	c #6E6869",
"C+	c #766F70",
"D+	c #6A6465",
"E+	c #2C1E1C",
"F+	c #331C18",
"G+	c #7F7576",
"H+	c #100000",
"I+	c #372C2D",
"J+	c #322728",
"K+	c #7A7172",
"L+	c #8C8081",
"M+	c #715858",
"N+	c #171413",
"O+	c #322D2D",
"P+	c #908485",
"Q+	c #1E0000",
"R+	c #24120E",
"S+	c #B09A9B",
"T+	c #070403",
"U+	c #464242",
"V+	c #2E1814",
"W+	c #090101",
"X+	c #291715",
"Y+	c #443332",
"Z+	c #1B0F0E",
"`+	c #2B201F",
" @	c #33130A",
".@	c #281715",
"+@	c #352523",
"@@	c #5E4A48",
"#@	c #41302F",
"$@	c #201615",
"%@	c #453433",
"&@	c #523F3D",
"*@	c #171212",
"=@	c #4D3B3A",
"-@	c #090504",
";@	c #3C3130",
">@	c #554240",
",@	c #3F2F2E",
"'@	c #564441",
")@	c #53403E",
"!@	c #634E4C",
"~@	c #5B4745",
"{@	c #54413F",
"]@	c #493533",
"^@	c #231C1B",
"/@	c #5A4744",
"(@	c #503E3D",
"_@	c #574442",
":@	c #442B29",
"<@	c #3F2B2A",
"[@	c #170B09",
"}@	c #3C3231",
"|@	c #473C3B",
"1@	c #5B5454",
"2@	c #42201B",
"3@	c #2C2423",
"4@	c #C7A7AA",
"5@	c #2E0000",
"6@	c #71423C",
"7@	c #9C8C8F",
"8@	c #7E7475",
"9@	c #836764",
"0@	c #524F4F",
"a@	c #332A2A",
"b@	c #512D27",
"c@	c #A59293",
"d@	c #6F6869",
"e@	c #726B6C",
"f@	c #604C4C",
"g@	c #7F7677",
"h@	c #908384",
"i@	c #807677",
"j@	c #797172",
"k@	c #736B6C",
"l@	c #867B7C",
"m@	c #877C7D",
"n@	c #887C7E",
"o@	c #A08F92",
"p@	c #AC9798",
"q@	c #9E8D90",
"r@	c #83797B",
"s@	c #998A8D",
"t@	c #97888A",
"u@	c #7A7273",
"v@	c #948788",
"w@	c #938687",
"x@	c #756D6E",
"y@	c #635151",
"z@	c #231717",
"A@	c #605C5D",
"B@	c #575455",
"C@	c #545151",
"D@	c #454243",
"E@	c #383535",
"F@	c #343031",
"G@	c #2E2B2B",
"H@	c #231E1E",
"I@	c #221A1A",
"J@	c #181414",
"K@	c #151111",
"L@	c #271F1F",
"M@	c #0A0707",
"N@	c #020202",
"O@	c #2A2727",
"P@	c #242020",
"Q@	c #282424",
"R@	c #221E1F",
"S@	c #302C2C",
"T@	c #3F3B3C",
"U@	c #3A3636",
"V@	c #1A1717",
"W@	c #535050",
"X@	c #615D5E",
"Y@	c #4F4B4C",
"Z@	c #575354",
"`@	c #706A6B",
" #	c #8F8284",
".#	c #221210",
"+#	c #846062",
"@#	c #463838",
"##	c #060000",
"$#	c #6D6768",
"%#	c #240000",
"&#	c #0D0000",
"*#	c #0D0201",
"=#	c #A18E8F",
"-#	c #42231E",
";#	c #633F3B",
">#	c #070000",
",#	c #0B0605",
"'#	c #5F3732",
")#	c #A99597",
"!#	c #807376",
"~#	c #131212",
"{#	c #070302",
"]#	c #4C0000",
"^#	c #343030",
"/#	c #070505",
"(#	c #130909",
"_#	c #7B7273",
":#	c #1F1312",
"<#	c #140807",
"[#	c #1A0E0E",
"}#	c #0E0C0C",
"|#	c #090000",
"1#	c #160E0E",
"2#	c #0F0201",
"3#	c #180604",
"4#	c #220F0D",
"5#	c #020101",
"6#	c #0A0605",
"7#	c #2D1D1B",
"8#	c #574847",
"9#	c #050202",
"0#	c #312221",
"a#	c #655553",
"b#	c #392A29",
"c#	c #5C4B49",
"d#	c #18110F",
"e#	c #332322",
"f#	c #705E5D",
"g#	c #1B1413",
"h#	c #1F1412",
"                                                . . . . + @                                     ",
"                                            . # # $ % & * = - ;                                 ",
"                                          > , # # ' ' ) ! ~ { !                                 ",
"                                          ] # $ # ^ / ( ] _ : {                                 ",
"                                          $ < _ _ # % ' ! [ } | 1                               ",
"                                          $ ^ _ _ 2 | _ _ 3 ! 4 5                               ",
"                                          6 _ 7 8 9 0 ! # a ! b c                               ",
"                                          _ d e f g | | _ h 6 i j k                             ",
"                                          l e m n o o . p h $ _ q b r                           ",
"                                          | . s t u | v w x ! | y r z |                         ",
"                                            [ ] . A | B C D ] E _ F G H i {                     ",
"                                              I J K | L M # # _ N l ' O P Q R                   ",
"                                              I I S I T U V _ _ . | ' . W X Q Y                 ",
"                                                l Z I | ` `  ...+.+.` _ $ _ @.#.$.%.&.*.        ",
"                                                  5 =.-.# $ 2 ;.>.,.'.).5 !.~.| {.].^./.,.      ",
"                                                  (._.# N | :.<.| [.}.|.1.2.3.4.5.6.7.5 ,.8.    ",
"                                                2 ] $ > $ 9.0.a.b.c.d.e.,.5 f.5 5 g.5 5 h.,.    ",
"                                              i.5 # % j.k.| l.m.n.c.o.p.,.5 /.5 5 5 5 q.r.,.    ",
"                                            _ 5 5 # s.t.~.u.v.w.x.| y.,.,.5 z.A.5 5 5 B.C.D.    ",
"                                          ] l E.F.G.` H.I.J.K.x.L.M.N.O./.5 P.Q.f.R.5 5 /./.    ",
"      S.                              5 5 5 T.+. .5 U.V.| W.X.Y.x.Z.`. +p.5 5 .+,.f.5 5 f.++    ",
"      5 @+                          [ #+2 $+2 $+$+$+%+&+*+=+-+;+x.x.>+,+'+5 5 )+.+R.5 5 !+~+    ",
"        {+5 5 ]+^+            ^+/+(+_+5 5 5 5 5 5 5 :+<+:+[+g.<+n.}+/.r.)+:+5 /.f.|+5 1+A.[+    ",
"    5 5 5 5 2+2 3+5 5 4+5 5 5 5 5 5 5 5 5 5 5 5 5 5+6+g.7+8+9+L.x././.)+r.5 0+[+a+b+5 [+c+5     ",
"      5 d+[ e+5 5 5 5 f+f+f+2 d+5 5 5 5 5 5 5 g+5 g+6+g.h+i+j+k+n.z.z.[+A.5 B.:+<+f.5 f.l+5     ",
"5 5 5 5 5 5 5 5 5 5 5 e+m+5 5 5 5 5         n+]+g+5 5 <+i+o+p+q+5 5 5 :+5 5 5 /.r+x.c+s+f.[+    ",
"  5 %+5 5 5 5 5 5 5 5 5 5                 t+5 5 5 5 u+n+v+w+:+5 5 5 5 5 [+:+x.x+r+f.[+[+[+y+    ",
"5 5 5 5 5 5 5 5 5 5 5                     /.5 5 q.g+,.z.5 5 :+5 5 5 5 5 5 z+g.r+r+5 [+[+[+n.    ",
"    A+5 5 5                               z.B+C+p.g+D+p.5 5 5 5 5 5 5 5 x.5 5 c+[+5 A.[+E+F+    ",
"                                          n+C+G+..H+....I+5 f.5 5 5 5 5 5 [+[+[+A.5 5 5 F+g.    ",
"                                          J+D+K+..H+..L+M+g+N+q.5 5 5 5 5 5 :+5 5 5 5 5 F+F+    ",
"                                          5 O+D+P+Q+M+P+..H+:+q.5 5 5 5 5 5 5 5 5 5 5 g+-+R+    ",
"                                          5 5 g+5 S+S+P+..H+5 5 5 5 5 5 5 5 5 <+5 5 5 T+g.g.<+  ",
"                                          5 5 5 5 U+../.C+]+5 5 5 5 5 5 5 5 5 <+5 5 5 {+g.V+5   ",
"                                          5 5 5 5 5 5 5 5 5 5 5 W+1 5 5 5 5 5 5 5   5 6+g+F+g+g.",
"                                          5 5 5 %+5 m+d+I X+Y+Z+%+5 %+5 5 5 5 5     5 `+g.x.g+ @",
"                                            5 5 S 5 .@+@| @@| #@$@%+5 5 5 5 5 5     5 v+`+x.5 g.",
"                                              5 #@| %@&@| #+d+B M.S 5 5 5 5 5 5     5 5 5 <+5   ",
"                                              *@| =@| b I [ d+T g I 5 5 5 5 5 -@    5 5 5 5 5   ",
"                                              ;@T B >@b I [ l ,@'@l 5 5 5 5 5 %+    5 5 g+5 5   ",
"                                              l : )@!@=@~@{@]@2 2 d+5 5 5 5 *@(.^@    %+Q+g.5   ",
"                                            | ! | | /@(@_@:@2 <@| S 5 [@g+Z }@}@%+5   5 g+5     ",
"                                          I ; [ [ I |@1@5 5 5 5 d+d+2@g.5 n.}@3@5 5   g+5 5     ",
"                                          5 G.Z ` C+4@S+5@@+6@7@C+C+L+8@D+P+9@g+n+p.0@a@<+5     ",
"                                          b@7@P+c@7@P+C+g+D+..7@......d@e@7@P+g+<+'+8.,.5 5     ",
"                                          f@C+g@P+......H+P+C+7@h@i@j@k@l@P+m@g.5 /.p.,.5 5     ",
"                                          f@..n@7@7@o@S+@+S+S+p@q@r@C+l@P+s@7@f@H+C+p.,.g+g+    ",
"                                        D+C+..t@7@7@S+S+@+4@S+S+p@7@s@P+7@7@7@..Q+..p.,.5 5     ",
"                                        z.u@G+P+v@7@7@7@5@S+S+S+S+7@w@P+w@7@7@P+Q+x@p.,.g+5     ",
"                                      z.y@i@C+C+C+C+....Q+P+P+7@......m@P+7@7@..n+p.p.,.H+5     ",
"                                    z.z@D+L+..D+A@p.p.p.J+<+D+C+,+/./.C.B@..C+C@z.p.D@f.[@5     ",
"                                    z.n+../.,.D+D+,.,.,.f.5 /.,./.E@E@D.C.D+D+z.z.)+f.f.5 5     ",
"                                    f.p.C+f.f.f./.f.F@[+q.5 f.f.5 5 5 /./././.t+/.G@H@I@g+5     ",
"                                    ,./.D+!+f.f.f.Q.J@1+5 1+[+K@5 5 5 f.f.f.G@Q.[+[+L@M@5       ",
"                                    ,./.,./.E@[+f.J@N@5 5 [+K@N@5 5 5 f.f.f.[+O@f.f.:+g+g+      ",
"                                    D+p.f.,+/.[+J@N@5 5 5 5 5 5 5 5 P@/././././.'+,.g.5 5       ",
"                                  f.D+,./.[+/.Q@1+5 5 5 5 5 5 5 q.f./.'+,.'+/./././.g.          ",
"                                  f.D+,./.R@S@/.5 5 5 5 5 5 5 c+K@G@!+,.,.'+/.,././.            ",
"                                  f.D+,./.T@R@A.5 [+[+[+5   [+A.5 [+G@f././.S@Q.[+[+            ",
"                                  f./.p./././.5 5 5 5 5     1+[+f.G@[+[+[+[+Q.S@/.f.            ",
"                                  [+R@U@E@[+[+5 5 5 5 5     /.Q@f.f.f.f.f.f./././.[+            ",
"                                  [+[+[+[+F@f.5 5 1+[+5     /./././.'+,.,.'+/.E@f.              ",
"                                  f.f.G@s+5 [+5 [+[+        /.E@~+T@/./././.T@f.|+              ",
"                                  f././.f.0+5 5 5 5         /.s+G@f.f.~+++/.f.V@5               ",
"                                  W@f.f.[+[+[+5 5           G@Q.[+[+[+Q.f.T@/.5                 ",
"                                p.x@D+T@~+5 5 5             s+O@f././././.~+[+                  ",
"                                D+C+X@Y@/.5 5 5             s+f.f././.E@f.f.[+                  ",
"                                Z@C+`@p./.5 f.5             f.f.O@s+[+f.[+5 5                   ",
"                                C+ #7@7@..P.5 5             [+[+[+f.[+s+O@/.t+                  ",
"                                D+P+P+P+C+.#5 5 5           [+[+f.[+[+r.,.p.5                   ",
"                                f.+#D+D+q.5 5 5 5           [+[+s+E@p.....@#H+##                ",
"                                5 Q+5 5 5 5 5 5 5             [+F@p.$#S+S+5@%#&#5               ",
"                                {+5 5 5 *#5 5 5 5             f.,.D+..=#S+2@@+5 5 5             ",
"                                -#%+]+5 i.%+5 5               5 p.P+;#..4@D+Z ^+>#5             ",
"                                *#*#5 5 %+5 ,#5               5 /.'#@+D+)#!#~#{#Z %+            ",
"                                *#*#5 %+5 5 5 5                 f.f@]#r@7@^#/#(#*#*#            ",
"                                %+%+5 5 %+5 5                   5 A.2@7@_#Z l :#Z %+            ",
"                                  *#5 ^@5 5 5                     5 5 5 5 <#S [#Z %+            ",
"                                  ^@,#5 5 ,#5                       }#5 5 S 5 |#*#%+            ",
"                                  (.5 5 5 ,#5                         5 5 5 5 5 5 %+5           ",
"                                  Z 5 (.5 5 5                           5 1#d+d+d+d+5           ",
"                                  ; 5 %+5 5                             ,#S 2#3#4#I 5           ",
"                                  %+5 5 5#6#                              %+I [ 7#I *#          ",
"                                (.,#5 -@,#,#                              5 Z J I I l           ",
"                                5 ,#,#,#,#5#                                %+I I I | %+        ",
"                                8#! 9#,#,#1                                   I 0#l | ;         ",
"                              |@| | a#^@5 5 5                                 I b#M.c#|@        ",
"                              8#| | #@*#,#5#d#                                e#,@| 0 l         ",
"                              S | f#| I 5#,#<+<+g.                            l M.| | I         ",
"                              ,#g#|@a#|@i.5 <+<+h#g.                          l | | #@I %+      ",
"                              ,#,#,#,#1 1 ,#x.x.r+x.                        | l | | l I %+      ",
"                                ,#,#,#                                    d+d+; I I d+Z %+      ",
"                                                                            ,#,#%+,#,#,#,#      ",
"                                                                                  ,#,#,#        "};
