/* XPM */
static char * B6_xpm[] = {
"47 93 448 2",
"  	c None",
". 	c #473C3B",
"+ 	c #846A66",
"@ 	c #87716B",
"# 	c #3C3231",
"$ 	c #816763",
"% 	c #77605D",
"& 	c #745D5A",
"* 	c #846B66",
"= 	c #866E68",
"- 	c #87716A",
"; 	c #8B766F",
"> 	c #0B0605",
", 	c #645452",
"' 	c #765E5B",
") 	c #7F6662",
"! 	c #201917",
"~ 	c #5E4B49",
"{ 	c #5D4946",
"] 	c #7E5F5A",
"^ 	c #252B2E",
"/ 	c #312524",
"( 	c #594543",
"_ 	c #5E4A47",
": 	c #725A58",
"< 	c #92837E",
"[ 	c #866F6D",
"} 	c #866F6B",
"| 	c #181211",
"1 	c #413230",
"2 	c #564240",
"3 	c #5C4846",
"4 	c #544847",
"5 	c #89746E",
"6 	c #0C0706",
"7 	c #493938",
"8 	c #53413F",
"9 	c #4A3735",
"0 	c #584442",
"a 	c #624D4A",
"b 	c #685C59",
"c 	c #806863",
"d 	c #65514E",
"e 	c #1B1413",
"f 	c #3D2F2D",
"g 	c #4C3A38",
"h 	c #3D2D2C",
"i 	c #341C1A",
"j 	c #68463E",
"k 	c #221615",
"l 	c #2B2322",
"m 	c #392C2A",
"n 	c #1D1615",
"o 	c #4A3837",
"p 	c #685451",
"q 	c #4A2F2C",
"r 	c #754F4A",
"s 	c #3C1D1B",
"t 	c #231A19",
"u 	c #1E1717",
"v 	c #120D0C",
"w 	c #331715",
"x 	c #442C29",
"y 	c #715A57",
"z 	c #7D6561",
"A 	c #624E4B",
"B 	c #443332",
"C 	c #65504D",
"D 	c #554240",
"E 	c #4F3F3D",
"F 	c #332423",
"G 	c #392928",
"H 	c #3C2C2B",
"I 	c #210C0A",
"J 	c #361917",
"K 	c #2B1210",
"L 	c #231716",
"M 	c #3B2B2A",
"N 	c #564441",
"O 	c #503E3C",
"P 	c #564341",
"Q 	c #574442",
"R 	c #574341",
"S 	c #4B3938",
"T 	c #423130",
"U 	c #302120",
"V 	c #160502",
"W 	c #240E0B",
"X 	c #372827",
"Y 	c #544240",
"Z 	c #503F3D",
"` 	c #584542",
" .	c #5D4A47",
"..	c #685350",
"+.	c #6B5553",
"@.	c #53403E",
"#.	c #4A3937",
"$.	c #0C0000",
"%.	c #0F0201",
"&.	c #3F2F2E",
"*.	c #584644",
"=.	c #51403E",
"-.	c #524341",
";.	c #645B5A",
">.	c #776766",
",.	c #2A1715",
"'.	c #282424",
").	c #4D3D3B",
"!.	c #413432",
"~.	c #433936",
"{.	c #3B322F",
"].	c #373231",
"^.	c #2E2D2D",
"/.	c #4E4A4C",
"(.	c #433E3E",
"_.	c #180B0B",
":.	c #342524",
"<.	c #0B0A0A",
"[.	c #544D4D",
"}.	c #564643",
"|.	c #7F6965",
"1.	c #8A746E",
"2.	c #88716B",
"3.	c #6C5955",
"4.	c #7B6662",
"5.	c #665956",
"6.	c #5A5250",
"7.	c #444243",
"8.	c #1C1212",
"9.	c #020000",
"0.	c #705E5D",
"a.	c #483732",
"b.	c #72615C",
"c.	c #84706B",
"d.	c #7E6C66",
"e.	c #5C4B48",
"f.	c #270100",
"g.	c #34201F",
"h.	c #755F5B",
"i.	c #6D5A56",
"j.	c #3B3839",
"k.	c #595557",
"l.	c #010000",
"m.	c #000000",
"n.	c #89736D",
"o.	c #8C7871",
"p.	c #907F77",
"q.	c #8E7B75",
"r.	c #8B7771",
"s.	c #5B4745",
"t.	c #050000",
"u.	c #856D68",
"v.	c #74625D",
"w.	c #716D6D",
"x.	c #66524F",
"y.	c #88756F",
"z.	c #8F7D75",
"A.	c #85726C",
"B.	c #7D6C66",
"C.	c #8B7A72",
"D.	c #92827A",
"E.	c #0E0301",
"F.	c #705956",
"G.	c #856C67",
"H.	c #826761",
"I.	c #534E4E",
"J.	c #796360",
"K.	c #755E57",
"L.	c #7F6D67",
"M.	c #796762",
"N.	c #7F6B66",
"O.	c #4F3C3B",
"P.	c #624F4B",
"Q.	c #331A18",
"R.	c #120000",
"S.	c #180C0B",
"T.	c #271917",
"U.	c #76524C",
"V.	c #93857D",
"W.	c #4C2722",
"X.	c #725F5A",
"Y.	c #6D5F5B",
"Z.	c #6C5550",
"`.	c #8D7972",
" +	c #8D7B73",
".+	c #8C7972",
"++	c #695552",
"@+	c #0D0201",
"#+	c #3D1C18",
"$+	c #58332E",
"%+	c #635F5F",
"&+	c #110402",
"*+	c #070707",
"=+	c #856C68",
"-+	c #766661",
";+	c #8A746F",
">+	c #786661",
",+	c #705F5A",
"'+	c #4B3834",
")+	c #5B4845",
"!+	c #271D1C",
"~+	c #080000",
"{+	c #433939",
"]+	c #242020",
"^+	c #0B0000",
"/+	c #030000",
"(+	c #837879",
"_+	c #171212",
":+	c #211C1C",
"<+	c #040202",
"[+	c #837A7B",
"}+	c #C7A7AA",
"|+	c #9C8C8F",
"1+	c #231C1B",
"2+	c #181717",
"3+	c #0A0606",
"4+	c #171210",
"5+	c #1E0000",
"6+	c #908485",
"7+	c #B09A9B",
"8+	c #161313",
"9+	c #070403",
"0+	c #2E0000",
"a+	c #100000",
"b+	c #766F70",
"c+	c #7F7576",
"d+	c #1A1616",
"e+	c #1E1513",
"f+	c #23110D",
"g+	c #201411",
"h+	c #0D0000",
"i+	c #240000",
"j+	c #2B0000",
"k+	c #5B5859",
"l+	c #4D4849",
"m+	c #6B6566",
"n+	c #604C4C",
"o+	c #52221B",
"p+	c #0C0604",
"q+	c #30221F",
"r+	c #2F2C2C",
"s+	c #4B4748",
"t+	c #423E3F",
"u+	c #5C5758",
"v+	c #4F4C4C",
"w+	c #3E0000",
"x+	c #4C4748",
"y+	c #575454",
"z+	c #3C3A3B",
"A+	c #333030",
"B+	c #383535",
"C+	c #1C1513",
"D+	c #120F0D",
"E+	c #140E0C",
"F+	c #6A6465",
"G+	c #8C8081",
"H+	c #151111",
"I+	c #060504",
"J+	c #2B2121",
"K+	c #7A7273",
"L+	c #331C18",
"M+	c #0E0C0A",
"N+	c #5E5B5C",
"O+	c #676162",
"P+	c #484343",
"Q+	c #150000",
"R+	c #140000",
"S+	c #010101",
"T+	c #726B6C",
"U+	c #290000",
"V+	c #160000",
"W+	c #390000",
"X+	c #090000",
"Y+	c #382827",
"Z+	c #201615",
"`+	c #66514E",
" @	c #725C57",
".@	c #6F5955",
"+@	c #5A4643",
"@@	c #755F59",
"#@	c #6C5652",
"$@	c #150808",
"%@	c #7C6763",
"&@	c #7C6460",
"*@	c #705955",
"=@	c #463433",
"-@	c #7C655F",
";@	c #78625D",
">@	c #3A2A29",
",@	c #6B5552",
"'@	c #66524E",
")@	c #866D68",
"!@	c #816A64",
"~@	c #66514D",
"{@	c #77615B",
"]@	c #836C66",
"^@	c #765F5C",
"/@	c #302726",
"(@	c #5E4B47",
"_@	c #877069",
":@	c #7C6561",
"<@	c #816964",
"[@	c #423230",
"}@	c #372927",
"|@	c #090101",
"1@	c #1F0F0C",
"2@	c #4A3734",
"3@	c #92696A",
"4@	c #42201B",
"5@	c #512D27",
"6@	c #544344",
"7@	c #15100F",
"8@	c #060303",
"9@	c #98898C",
"0@	c #230000",
"a@	c #605C5D",
"b@	c #A08F92",
"c@	c #97888A",
"d@	c #A59293",
"e@	c #948788",
"f@	c #AC9798",
"g@	c #854D47",
"h@	c #535050",
"i@	c #656061",
"j@	c #877C7D",
"k@	c #9C7F7B",
"l@	c #0A0000",
"m@	c #5F3732",
"n@	c #615C5C",
"o@	c #604F50",
"p@	c #463838",
"q@	c #4C4949",
"r@	c #565354",
"s@	c #797172",
"t@	c #433F40",
"u@	c #454142",
"v@	c #2B2929",
"w@	c #444141",
"x@	c #807677",
"y@	c #8D8182",
"z@	c #2C1210",
"A@	c #413838",
"B@	c #363333",
"C@	c #3F3B3C",
"D@	c #231F1F",
"E@	c #3D393A",
"F@	c #1B1A1A",
"G@	c #343232",
"H@	c #524F4F",
"I@	c #5C595A",
"J@	c #696364",
"K@	c #2E2B2B",
"L@	c #494646",
"M@	c #696363",
"N@	c #222020",
"O@	c #1F1B1B",
"P@	c #1A1717",
"Q@	c #4D4A4A",
"R@	c #6D6667",
"S@	c #5C5859",
"T@	c #575455",
"U@	c #211A1A",
"V@	c #464242",
"W@	c #282626",
"X@	c #040404",
"Y@	c #393636",
"Z@	c #484546",
"`@	c #090808",
" #	c #2A2727",
".#	c #272425",
"+#	c #131313",
"@#	c #0E0C0C",
"##	c #050505",
"$#	c #302C2C",
"%#	c #110E0E",
"&#	c #181414",
"*#	c #343031",
"=#	c #3D3A3A",
"-#	c #312E2E",
";#	c #111010",
">#	c #454242",
",#	c #555151",
"'#	c #332B2B",
")#	c #221E1F",
"!#	c #645E5F",
"~#	c #322728",
"{#	c #343131",
"]#	c #6E6869",
"^#	c #736D6E",
"/#	c #6D6768",
"(#	c #7A7172",
"_#	c #252121",
":#	c #131212",
"<#	c #776F70",
"[#	c #343132",
"}#	c #252323",
"|#	c #846062",
"1#	c #464343",
"2#	c #4C0000",
"3#	c #413D3E",
"4#	c #060404",
"5#	c #1C0A08",
"6#	c #625554",
"7#	c #544E4F",
"8#	c #3D1F1A",
"9#	c #646061",
"0#	c #5F595A",
"a#	c #42231E",
"b#	c #715858",
"c#	c #020202",
"d#	c #0C0A09",
"e#	c #040101",
"f#	c #1C0D0A",
"g#	c #1C1616",
"h#	c #190F0E",
"i#	c #382E2D",
"j#	c #342B2A",
"k#	c #251A19",
"l#	c #2E1814",
"m#	c #281511",
"n#	c #170B09",
"o#	c #26130F",
"p#	c #0B0201",
"q#	c #21120F",
"r#	c #100807",
"s#	c #100404",
"t#	c #160E0E",
"u#	c #574847",
"v#	c #1B0F0E",
"w#	c #271A19",
"x#	c #251817",
"y#	c #2D1F1E",
"z#	c #090504",
"A#	c #312726",
"B#	c #332322",
"C#	c #302524",
"D#	c #231817",
"E#	c #524443",
"F#	c #453432",
"G#	c #473534",
"H#	c #655553",
"I#	c #140908",
"J#	c #41302F",
"K#	c #382725",
"L#	c #190D0C",
"M#	c #241A19",
"N#	c #1E100E",
"O#	c #050202",
"                                                . + @                                         ",
"                                          # $ % & * = * - ;                                   ",
"                                        > , ' ) + + + * = = =                                 ",
"                                        ! ~ { + + = ] ^ = * = =                               ",
"                                      > / ( _ : + ) & ^ < [ } =                               ",
"                                      | 1 2 ( 3 & & 4 ^ [ 5 + *                               ",
"                                      6 7 8 9 0 & a ^ b & c ] ] d                             ",
"                                      e f g h i j = + j ) & # k                               ",
"                                      > l m n o & p q r s o d d                               ",
"                                    | t k u v w x y d + + & d z                               ",
"                            A B C D E F G 0 H I I * d J K s 0 &                               ",
"                        L M N O P Q R S M I d T U V W K K o o                                 ",
"                        X g Y Z `  ...+.@.H #.d $.%.V o &.  0                                 ",
"                      # *.=.=.-.;.>.+ ) & + & d V H ,.o o                                     ",
"                    > '.).!.!.~.{.].^./.(.+ 0 _.U :.H o +.=                                   ",
"                    <.[.}.|.1.2.3.4.5.6.7.d o U 8.9.$.k * 0.                                  ",
"                  a.b.c.d.e.K f.I g.h.i.o j.k.H 9.l.m.m.                                      ",
"              n.o.p.q.o.r.s.I t.o K * u.v.* d w.(.                                            ",
"          x.y.z.A.B.C.D.@ H m.m.m.E.0 F.G.H.% I.w.                                            ",
"      0 J.K.L.M.N.O.P.Q.R.I U S.9.m.T.0 * U.V.W.K V $.                                        ",
"  <.t.t.X.Y.Z.`.A. +.+++E.m.9.m.m.m.@+m.m.s #+$++ %+m.&+                                      ",
"> *+m.m.=+-+;+>+,+'+)+!+m.m.m.m.m.m.m.m.m.~+I s s {+]+m.                                      ",
"m.m.V K ^+f./+m.m.9.m.m.m.m.m.m.m.m.m.m.m.m.m.m.m.9.w.{+(+                                    ",
"_+m.m.m.m.m.m.m.:+> <+/ / m.m.m.m.m.m.m.m.m.m.m./+9.[+}+|+                                    ",
"1+m.m.m.m.m.m.m.m.2+> 9.H $.3+| > 4+m.m.m.5+m.l.5+6+7+}+7+                                    ",
"      m.m.m.m.^+8+> 9+m.> > | | l.l.0+0+a+0+0+a+b+b+c+6+7+                                    ",
"        m.a+m.  d+m.m.e+e+e+f+g+m.m.m.m.h+i+5+j+k+l+m+b+n+                                    ",
"        m.5+o+  d+m.m.m.d+m.p+q+r+m.m.m./+a+5+5+b+s+t+u+v+                                    ",
"        m.w+l.    m.m.m.m.m.m.x+y+m.z+b+k+k+k+t+A+d+B+t+v+                                    ",
"                  C+m.m.D+m.E+k+k+m.F+(+G+}+(+n+f+l.m.m.k+                                    ",
"                  H+m.m.D+I+J+k+k+l.K+c+(+|+F+L+5+w+m.m.k+                                    ",
"                  m.m.m.M+D+J+N+O+a+c+K+b+t+P+m.m.Q+R+m.                                      ",
"                      m.S+D+m.F+T+b+|+t+m.^+^+l.m.5+5+l.                                      ",
"                      m.m.m.m.z+b+c+6+v+m.m.l.l.m.R+U+V+                                      ",
"                      m.m.m.m.m.m.<.m.l.m.m.m.m.m.m.W+0+                                      ",
"                      m.m.m.m.m.m.m.m.m.m.9.m.m.m.m./+0+                                      ",
"                      m.m.m.9.m.m.@+m.m.~+X+9.m.m.m.m.m.                                      ",
"                      m.m.9.m.m.~+H $.U U Y+H m.m.*+  m.                                      ",
"                      m.m.m.m.Z+`+ @.@+@U @@#@$@|     m.                                      ",
"                      m.m.9.m.$.G.%@&@*@=@-@;@>@>     m.                                      ",
"                        m.m.9.9.,@'@)@!@~@{@]@^@/@<.                                          ",
"                      1+m.m.m.U (@G.= _@= :@<@[@d                                             ",
"                      }@m.m.|@1@U U H o d + = * o                                             ",
"                  J+2@J+J+L+0+3@(+4@5@o+6@6@7@8@$.                                            ",
"                  F+F+b+(+F+m.b+7+7+6+(+9@6+n+0+0@7+a+                                        ",
"                A+F+a@v+v+v+l.b+b@7+c@(+6+d@7+W+0+7+0+                                        ",
"                A+F+a@t+k+k+6@(+e@|+(+K+b+b@f@5+0+6+g@5+                                      ",
"                P+F+F+h@k+i@F+j@6+|+|+|+j@6+|+a+l.6+k@7+0+                                    ",
"                P+F+a@k+k+i@T+6+6+|+|+9@6+|+|+5+l@v+(+|+m@o+                                  ",
"                v+n@k+k+k+k+6@(+(+(+(+6+6+6+6+o@5+l.l.p@k+|+m.                                ",
"                  v+v+t+q@v+m.t+r@O+F+b+s@(+6+d@7+n+5+Q+m.F+F+b+                              ",
"                  t@v+t+u@v+m.v@w@N+F+b+x@y@|+6+(+3@z@5+l.A@F+(+(+                            ",
"                  B@t+C@B@D@m.<.A+A+E@E@A+A+E@b+(+6+(+(+t+F@G@t+H@I@J@                        ",
"                    d+K@A+A+D+8+D@A+A+A+A+A+A+L@M@x@b+F+v+G@F@N@N+F+k+                        ",
"                      O@A+d+m.m.m.m.P@A+A+A+d+A+Q@J@R@S@v+T@U@m.V@b+F+b+                      ",
"                      d+A+A+W@X@m.m.m.m.<.W@d+O@Y@v+v+v+h@N+F+z+m.m.Z@h@                      ",
"                        t+t+C@v@m.m.m.m.m.m.`@d+t+d+d+ #k+F+F+k+t+.#+#k+(+                    ",
"                        t+t+t+t+D+D+@#m.m.m.##H+t+d+d+d+k+k+b+k+t+t+D+t+F+                    ",
"                        B@t+t+$#d+d+d+%#m.m.d+m.&#d+d+*#s+v+b+F+A+A+P+n+F+                    ",
"                          m.`@d+d+O@K@A+m.m.d+H+m.d+ #E@t+t+b+F+D@A+k+p@(+|+                  ",
"                          d+d+d+ #A+A+d+%#m.d+ #<.%#A+A+B+t+b+=#O@A+k+m.V@e@|+                ",
"                          t+t+t+B+A+A+-#O@s+t+B+r+m.m.;#A+t+A+d+K@>#k+E+m.(+(+                ",
"                            B@C@t+t+A+A+A+t+t+t+d+  H+m.K@d+m.d+t+v+t+t+m.6@,#F+              ",
"                            A+A+A+A+A+A+A+t+t+t+d+      d+d+d+D@A+t+t+t+'#l.F+b+(+            ",
"                            d+d+d+d+d+d+d+)#C@t+A+        m.N@A+t+u+!#t+t+p@m.F+F+            ",
"                              A+A+A+A+A+ #d+)#t+~#          m.;#A+A+A+v+F+(+F+l.F+F+          ",
"                              d+t+t+A+A+A+D@d+v+~#k+          m.A+{#C@(+6+b+]#m.F+^#          ",
"                              d+A+A+A+A+A+A+A+t+m.F+            A+w@r@k+F+T+b+L+f+p@          ",
"                                `@d+d+d+d+D@A+t+A+F+            d+k+/#(+(#F+F+(+m.m.          ",
"                              v+_#O@A+O@d+d+A+d+d+k+            D+F+6+d@d@6+K+(+m.m.          ",
"                            v+v+v+A+A+A+ #d+&#:#t+t+            l.k+(#6+6+<#(+(+l.m.          ",
"                          A+i@k+v+t+E@A+A+d+m.[#'.              m.}#k+|#|#m.G@6+p@m.          ",
"                        m.t+k+H@v+1#E@A+ #D@D@A+A+              m.m.v@2#w+E+m.6+F+v+          ",
"                      J+a@F+J+p@T@v+K@O@D@ #A+A+3#              m.e+4#5+5#L+L+f+6#6+          ",
"                      F+F+7#Q+5+b+F+d+`@m.m.m.                    e+e+w+L+L+8#f+f+f+          ",
"                    e+/#9#v+5+U+0#K@H+m.m.m.m.                    e+e+a+L+a#4@9.m.m.          ",
"                  }@}@9#/#(+b#J+A+P@c#m.m.m.                      m.d#D+L+L+S.9.@+9.          ",
"                  f+f+m.N@6@l.D+m.m.m.                              m.E+}@f+|@9.@+|           ",
"                e+e#f#m.m.g#e+d#m.m.                                m.m.m.9.9.9.h#/@          ",
"              m.m.m.l.m.m.m.m.m.m.                                  m.m.m.1+S.i#j#k#          ",
"              m.m.9.9.l#m#n#m.m.                                      m.m.@+/@j#i#9.          ",
"              9.l.m.9.o#L+L+m.                                        m.m.l.1+k S.@+          ",
"            @+p#9.@+9.f+q#e+                                          m.m.m.r## # k           ",
"          S.S.s#k |@m.2@e+                                              m.m.m.t#u#.           ",
"        S.S.S.v#k m.m.                                                    m.m.m.9..           ",
"        U w#k x#y#>                                                         l.z#/@S.@+        ",
"    A#H M B#U U C#                                                          > D#. E#d F#      ",
"    h G#G#&.H k 9.                                                          1+H . . 8 d       ",
"    o o o o o o @.                                                          1+H H#H#H#u#U     ",
"  9.o o o o H o o H K                                                       . U U . U I#@+k   ",
"  @+J#o o o H o @.V K#o H                                                   u#U L#9.9.@+M##   ",
"  m.V U U U U V $.N#V I I I d 0                                             | > > > > > O#9.@+",
"  > > > > > > > > > > > > > m.m.m.                                            > > > > > > m.  "};
