/* XPM */
static char * C1_xpm[] = {
"34 92 549 2",
"  	c None",
". 	c #866E68",
"+ 	c #745D5A",
"@ 	c #6A5451",
"# 	c #705A56",
"$ 	c #584442",
"% 	c #866F6D",
"& 	c #846A66",
"* 	c #8B766F",
"= 	c #363133",
"- 	c #63514D",
"; 	c #5D4340",
"> 	c #5E4340",
", 	c #614D4B",
"' 	c #473C3B",
") 	c #846B66",
"! 	c #252B2E",
"~ 	c #796361",
"{ 	c #6D524E",
"] 	c #584342",
"^ 	c #5D4746",
"/ 	c #302726",
"( 	c #65514E",
"_ 	c #87716A",
": 	c #8A746D",
"< 	c #7E5F5A",
"[ 	c #754F4A",
"} 	c #6E4E4A",
"| 	c #664946",
"1 	c #543C3B",
"2 	c #604A49",
"3 	c #4A3837",
"4 	c #866F69",
"5 	c #433D3D",
"6 	c #877069",
"7 	c #613E3B",
"8 	c #523E3D",
"9 	c #574240",
"0 	c #856B67",
"a 	c #70514B",
"b 	c #55403F",
"c 	c #594544",
"d 	c #705E5D",
"e 	c #745C59",
"f 	c #452D2C",
"g 	c #48302E",
"h 	c #261E1D",
"i 	c #231C1B",
"j 	c #3C3231",
"k 	c #614E4C",
"l 	c #2D1E1D",
"m 	c #624945",
"n 	c #634E4C",
"o 	c #3F2D2B",
"p 	c #473231",
"q 	c #4A3938",
"r 	c #322524",
"s 	c #0F0A0A",
"t 	c #775F5C",
"u 	c #614C4A",
"v 	c #402F2E",
"w 	c #473432",
"x 	c #4E3C3B",
"y 	c #180C0B",
"z 	c #221615",
"A 	c #000000",
"B 	c #685550",
"C 	c #090707",
"D 	c #4F3D3C",
"E 	c #43302E",
"F 	c #4D3938",
"G 	c #503D3C",
"H 	c #2B1311",
"I 	c #564240",
"J 	c #6A5452",
"K 	c #181211",
"L 	c #0B0605",
"M 	c #4B3836",
"N 	c #3A2624",
"O 	c #54403F",
"P 	c #220D0B",
"Q 	c #322322",
"R 	c #5A4544",
"S 	c #52403F",
"T 	c #4C3A39",
"U 	c #3C2C2B",
"V 	c #13100F",
"W 	c #856D67",
"X 	c #0C0A0A",
"Y 	c #54403E",
"Z 	c #302120",
"` 	c #2D1715",
" .	c #2B1210",
"..	c #574341",
"+.	c #655252",
"@.	c #6E5D5C",
"#.	c #AEACA0",
"$.	c #948F7F",
"%.	c #100000",
"&.	c #1D0C09",
"*.	c #261312",
"=.	c #54413F",
"-.	c #513E3D",
";.	c #594441",
">.	c #857475",
",.	c #877675",
"'.	c #8A7A7B",
").	c #776C6D",
"!.	c #524847",
"~.	c #322928",
"{.	c #0E0301",
"].	c #362625",
"^.	c #634F4B",
"/.	c #3E2E2D",
"(.	c #342524",
"_.	c #382421",
":.	c #685352",
"<.	c #574342",
"[.	c #685351",
"}.	c #8A7A7A",
"|.	c #847474",
"1.	c #7C7374",
"2.	c #70696A",
"3.	c #72696B",
"4.	c #726768",
"5.	c #443B3B",
"6.	c #211E1E",
"7.	c #5E4A48",
"8.	c #5C4847",
"9.	c #2A1715",
"0.	c #604D4B",
"a.	c #715957",
"b.	c #8B7C7E",
"c.	c #85797B",
"d.	c #5F5758",
"e.	c #3B3837",
"f.	c #866E6A",
"g.	c #87706A",
"h.	c #0D0201",
"i.	c #6B6062",
"j.	c #8C7F81",
"k.	c #8B7E80",
"l.	c #524D4F",
"m.	c #40302F",
"n.	c #56423F",
"o.	c #0C0000",
"p.	c #442623",
"q.	c #533F3E",
"r.	c #846B67",
"s.	c #866E6B",
"t.	c #0F0202",
"u.	c #0B0A0A",
"v.	c #655553",
"w.	c #726060",
"x.	c #887879",
"y.	c #857A7B",
"z.	c #373535",
"A.	c #0F0B0B",
"B.	c #6A5553",
"C.	c #503C3B",
"D.	c #211616",
"E.	c #482F2E",
"F.	c #503E3D",
"G.	c #846C69",
"H.	c #856E6B",
"I.	c #634947",
"J.	c #281B1A",
"K.	c #5B5454",
"L.	c #887778",
"M.	c #938587",
"N.	c #8A7E7F",
"O.	c #735C59",
"P.	c #7E6764",
"Q.	c #806764",
"R.	c #564241",
"S.	c #341F1D",
"T.	c #675250",
"U.	c #77615F",
"V.	c #604C4A",
"W.	c #020000",
"X.	c #210C0A",
"Y.	c #4E4A4C",
"Z.	c #3F3839",
"`.	c #8F8183",
" +	c #918485",
".+	c #5F4C4B",
"++	c #735E5C",
"@+	c #675351",
"#+	c #513D3C",
"$+	c #200F0C",
"%+	c #040000",
"&+	c #221110",
"*+	c #4E3A39",
"=+	c #5A4644",
"-+	c #826B69",
";+	c #564341",
">+	c #160502",
",+	c #413E3E",
"'+	c #86797B",
")+	c #8A7B7C",
"!+	c #5C4645",
"~+	c #584443",
"{+	c #594543",
"]+	c #180704",
"^+	c #0F0201",
"/+	c #1B0A08",
"(+	c #4F3B3A",
"_+	c #6A5753",
":+	c #755F5D",
"<+	c #715B59",
"[+	c #474243",
"}+	c #595557",
"|+	c #7D6E6E",
"1+	c #716465",
"2+	c #2A1412",
"3+	c #371C1A",
"4+	c #180908",
"5+	c #221818",
"6+	c #23110D",
"7+	c #010000",
"8+	c #2D1D1C",
"9+	c #5D4745",
"0+	c #755F5C",
"a+	c #856C6A",
"b+	c #79625F",
"c+	c #948688",
"d+	c #312D2E",
"e+	c #030000",
"f+	c #110F0F",
"g+	c #84797B",
"h+	c #7D7576",
"i+	c #110C0C",
"j+	c #503E3C",
"k+	c #4E3634",
"l+	c #654C49",
"m+	c #6B5554",
"n+	c #634C4B",
"o+	c #68514F",
"p+	c #9B8A8C",
"q+	c #958688",
"r+	c #755D5D",
"s+	c #71423C",
"t+	c #482223",
"u+	c #9D8C8E",
"v+	c #150000",
"w+	c #1E0000",
"x+	c #302423",
"y+	c #493534",
"z+	c #544341",
"A+	c #3D3839",
"B+	c #1C1B1B",
"C+	c #A08F91",
"D+	c #A39092",
"E+	c #663F3B",
"F+	c #6D0606",
"G+	c #99898B",
"H+	c #998A8C",
"I+	c #3A2A29",
"J+	c #473534",
"K+	c #0E0B0B",
"L+	c #171616",
"M+	c #181717",
"N+	c #7A7071",
"O+	c #98898B",
"P+	c #7C6667",
"Q+	c #4C0000",
"R+	c #5B0000",
"S+	c #97888A",
"T+	c #948587",
"U+	c #5E4F50",
"V+	c #170708",
"W+	c #190000",
"X+	c #52221B",
"Y+	c #0D0000",
"Z+	c #050000",
"`+	c #270100",
" @	c #280201",
".@	c #605455",
"+@	c #4A4241",
"@@	c #886769",
"#@	c #2E0000",
"$@	c #3E0000",
"%@	c #8E8182",
"&@	c #857B7C",
"*@	c #331C18",
"=@	c #060000",
"-@	c #070000",
";@	c #5D5657",
">@	c #5B5859",
",@	c #484343",
"'@	c #71696A",
")@	c #766F70",
"!@	c #655E5E",
"~@	c #1E1513",
"{@	c #6B4D48",
"]@	c #4A3734",
"^@	c #807677",
"/@	c #322728",
"(@	c #1A1616",
"_@	c #2F2B2B",
":@	c #555151",
"<@	c #383535",
"[@	c #423E3F",
"}@	c #4A4646",
"|@	c #242223",
"1@	c #2B2121",
"2@	c #222020",
"3@	c #2F2C2C",
"4@	c #604C4C",
"5@	c #4B4748",
"6@	c #574F50",
"7@	c #0B0000",
"8@	c #464242",
"9@	c #1C1616",
"0@	c #6B5D5B",
"a@	c #4E4A4B",
"b@	c #545151",
"c@	c #463838",
"d@	c #4F4C4C",
"e@	c #512D27",
"f@	c #42201B",
"g@	c #2E2525",
"h@	c #42231E",
"i@	c #4E494A",
"j@	c #333030",
"k@	c #544D4E",
"l@	c #221A1A",
"m@	c #6A6465",
"n@	c #2B2929",
"o@	c #120F0D",
"p@	c #240000",
"q@	c #020202",
"r@	c #18110F",
"s@	c #0B0706",
"t@	c #170B09",
"u@	c #1C1210",
"v@	c #100807",
"w@	c #080000",
"x@	c #090100",
"y@	c #392928",
"z@	c #150503",
"A@	c #271411",
"B@	c #5E4A49",
"C@	c #5C4947",
"D@	c #201615",
"E@	c #5D4947",
"F@	c #65514F",
"G@	c #3E2D2C",
"H@	c #312524",
"I@	c #1C0C0B",
"J@	c #1F0F0C",
"K@	c #352523",
"L@	c #614C4B",
"M@	c #594645",
"N@	c #4A3836",
"O@	c #785F5C",
"P@	c #38211F",
"Q@	c #41302F",
"R@	c #271716",
"S@	c #241310",
"T@	c #5F4B49",
"U@	c #6F5955",
"V@	c #7C6360",
"W@	c #382725",
"X@	c #1B1313",
"Y@	c #564442",
"Z@	c #5C4746",
"`@	c #030101",
" #	c #373131",
".#	c #2C2221",
"+#	c #3B3839",
"@#	c #180604",
"##	c #412E2C",
"$#	c #676263",
"%#	c #837A7B",
"&#	c #635F5F",
"*#	c #4B484A",
"=#	c #433939",
"-#	c #1D0000",
";#	c #190806",
">#	c #777172",
",#	c #361512",
"'#	c #837879",
")#	c #211C1C",
"!#	c #716D6D",
"~#	c #463C3D",
"{#	c #170807",
"]#	c #0F0403",
"^#	c #594C4C",
"/#	c #574847",
"(#	c #646061",
"_#	c #171212",
":#	c #605C5C",
"<#	c #332120",
"[#	c #9A594F",
"}#	c #B28485",
"|#	c #B09A9B",
"1#	c #908485",
"2#	c #8A7370",
"3#	c #845C58",
"4#	c #797172",
"5#	c #474546",
"6#	c #9C8C8F",
"7#	c #AB8B89",
"8#	c #9C7F7B",
"9#	c #AE999A",
"0#	c #A08F92",
"a#	c #8C8081",
"b#	c #656162",
"c#	c #C7A7AA",
"d#	c #716A6B",
"e#	c #6C5B5B",
"f#	c #715858",
"g#	c #535050",
"h#	c #372C2D",
"i#	c #7F7576",
"j#	c #656061",
"k#	c #282626",
"l#	c #363031",
"m#	c #726B6C",
"n#	c #6E6869",
"o#	c #464343",
"p#	c #454142",
"q#	c #282424",
"r#	c #544344",
"s#	c #6D6768",
"t#	c #413838",
"u#	c #585556",
"v#	c #524F4F",
"w#	c #575455",
"x#	c #5E5B5C",
"y#	c #846062",
"z#	c #4B2929",
"A#	c #605C5D",
"B#	c #7A7273",
"C#	c #6F6869",
"D#	c #938687",
"E#	c #98898C",
"F#	c #7A7172",
"G#	c #736B6C",
"H#	c #7E7475",
"I#	c #4D4A4B",
"J#	c #8B8081",
"K#	c #736D6E",
"L#	c #6D6465",
"M#	c #573C39",
"N#	c #8B7E81",
"O#	c #7E7577",
"P#	c #6D6667",
"Q#	c #7B7273",
"R#	c #593E3B",
"S#	c #8F8284",
"T#	c #2A2727",
"U#	c #1F1B1B",
"V#	c #7E7576",
"W#	c #706A6B",
"X#	c #615D5E",
"Y#	c #4A3D3F",
"Z#	c #A69295",
"`#	c #AB9697",
" $	c #A99597",
".$	c #A69396",
"+$	c #A69395",
"@$	c #A79496",
"#$	c #4E3F40",
"$$	c #A18F92",
"%$	c #C3A2A5",
"&$	c #B49B9D",
"*$	c #877D7E",
"=$	c #454242",
"-$	c #96888B",
";$	c #A28F92",
">$	c #AF979A",
",$	c #BD9EA1",
"'$	c #C4A2A5",
")$	c #A09092",
"!$	c #A59194",
"~$	c #BA9DA0",
"{$	c #B99DA0",
"]$	c #BDA1A4",
"^$	c #4F4B4B",
"/$	c #96878A",
"($	c #8F8283",
"_$	c #AD9598",
":$	c #AA9396",
"<$	c #BB9DA0",
"[$	c #A89596",
"}$	c #3D393A",
"|$	c #231F1F",
"1$	c #A99598",
"2$	c #3B3433",
"3$	c #A19093",
"4$	c #AB9598",
"5$	c #AB9698",
"6$	c #928485",
"7$	c #111010",
"8$	c #A49294",
"9$	c #B0989B",
"0$	c #777071",
"a$	c #8D8083",
"b$	c #AA9597",
"c$	c #686263",
"d$	c #8C7F80",
"e$	c #5C5858",
"f$	c #A59293",
"g$	c #655F5F",
"h$	c #363333",
"i$	c #3F3B3C",
"j$	c #190E0C",
"k$	c #7B7374",
"l$	c #343232",
"m$	c #221210",
"n$	c #7F7677",
"o$	c #242020",
"p$	c #696364",
"q$	c #1F1C1D",
"r$	c #171515",
"s$	c #060100",
"t$	c #161313",
"u$	c #040202",
"v$	c #080101",
"w$	c #1C1615",
"x$	c #070606",
"y$	c #1D1311",
"z$	c #2D2524",
"A$	c #140E0C",
"B$	c #0C0604",
"C$	c #070403",
"D$	c #150E0D",
"E$	c #0C0808",
"F$	c #1C0D0A",
"G$	c #241918",
"H$	c #2C2120",
"I$	c #0A0201",
"J$	c #302524",
"K$	c #30211E",
"L$	c #261F1E",
"M$	c #281E1D",
"N$	c #020101",
"O$	c #050302",
"P$	c #130909",
"Q$	c #090101",
"R$	c #331715",
"S$	c #4F3937",
"T$	c #513B39",
"U$	c #2B1E1D",
"V$	c #271E1D",
"W$	c #463A38",
"X$	c #090504",
"            . . + @ # $                                             ",
"          % & * % = - ; > ,                                         ",
"        * ' ) * % ! ~ { ] ^                                         ",
"        / ( _ : < < [ } | 1 2                                       ",
"        3 ( 4 _ < 5 6 . 7 8 9                                       ",
"        $ ( . _ % . . 0 a b c                                       ",
"        / d . ) ) 6 . ) e f g h                                     ",
"        i j k l m * ( + n o p q                                     ",
"        l r j s l l l t u v w x y z                                 ",
"        l l y A l l B C D E F G H $ I 3 J z                         ",
"        K L 3 3 B M ) A 3 3 N O P Q R S T U                         ",
"        K V A A $ ) W X Y Z `  . .3 ..+.@.U j                       ",
"        A A #.$.%.3 $ 3 &.*.Z =.-.;.>.,.'.).!.~.                    ",
"          {.A A %.].^./.(._.:.<.[.}.|.1.2.3.4.5.6.                  ",
"          %.A A %.7.8.9.U ( 0.a.b.c.d.e.i Z & W f.g.)               ",
"            #.$.%.A A y h.z i.j.k.l.m.n.o.p.q.r.& s.7.Z A           ",
"            t.u.%.A A U v.w.x.y.z.A.B.C.A D.E.F.G.H.I.J.A           ",
"            u.u.%.A A K.L.M.N.O.P.Q.O R. .S.8 T.r.U.V.W.A           ",
"            X.. $ y Y.Z.`. +.+++@+O #+$+%+&+*+=+-+% * & ;+          ",
"            >+A ( ,+A '+)+..| !+~+{+]+^+o./+*+(+_+:+<+. &           ",
"            [+A }+A A |+1+A 2+3+4+5+z 6+7+A 8+C.7.9+0+a+b+X.L       ",
"            c+d+Z e+f+g+h+A A A W.7+A A 7+A i+3 j+k+l+m+n+o+' i     ",
"            p+q+r+s+t+u+y.%.v+w+w+A A A A A A x+C.F y+3 z+A+B+A     ",
"            C+D+E+s+F+G+H+w+w+7+w+A A 7+A A A A I+J+R.K+A L+M+M+    ",
"            N+O+P+Q+R+S+T+U+V+v+W+X+Y+e+Z+Z+o.z h.`+ @X.A A A A W.  ",
"            .@+@@@#@$@%@j.y.&@W+v+*@=@%.%+7+o.A A -@{.A A A A A u.  ",
"            ;@>@,@w+%.'@)@!@'@w+%.w+A w+A A A >+A A A A 7+~@{@]@    ",
"            ^@)@A /@A (@>@_@:@<@[@,@A A A A A A A A A               ",
"            )@}@|@1@A 2@3@A 4@[@5@>@6@7+A A 7@7@A A A               ",
"            ,@|@8@9@A A A w+w+*@4@0@7+A A A a@b@A A                 ",
"            c@A (@A w+A %+7@7@7+1@d@e@f@g@A b@a@A A                 ",
"            h@A A i@7+7+%.=@7+A 2@j@1@k@c@7+>@3@A                   ",
"            ,@%.4@(@w+W+%.A A A A A C l@)@m@n@A A                   ",
"              1@7+o@m@%.p@A A A A A A A A o@A A A                   ",
"              j@A A A 7+w+A 7+q@r@s@A A A A A A                     ",
"              [@~@7+7+t@A %.A u@*@~@v@A w@w@A A                     ",
"                  6+A 6+4@]@A *@L 7+x@>+O y@Z Z i                   ",
"                  *@*@6+>@6+A A A %+z@A@B@C@z U /                   ",
"                  s+D@A K Z h.o.j Z X.E@F@E@G@( 3                   ",
"                y H@A I@ .U J@Z U >+K@L@C@M@N@E@O@v.                ",
"                y A A  .P@3 Z Q@X.R@S@T@M@[.. U@V@Z h@              ",
"                U z W@>+3 X@A U o.3 3 Y@Z@..o.`@6+~@~@              ",
"               #Z y >+.#+#o.A Z X.@###Z $#%#A w+w+)@>@              ",
"              &#A +#A &#}+*#=#-#Z+;#>+/ %#>#A w+,#'#>@[@            ",
"              )#A Y.Y.!#+#}+~#X.{#]#>+d ^#/#e@%.%.)@(#j@            ",
"               #_#Y.Y.%#}+:#X.<#U [#}#|#|#|#1#2#3#^@4#d@            ",
"              Y.>+5#Y.%#1#6#6#7#8#8#|#|#9#0#a#'#'#'#'#d@            ",
"            Y.b#7@6#'#c#1#6#6#6#6#6#|#|#0#d#'#e#f#)@)@j@            ",
"          d@>@g#1#s+'#6#'#|#h#A j@[@m@m@m@m@A %.'#i#)@              ",
"          d@j#>@m@4@f#1#'#)@k#l#)@'#1#'#m#m@|@j@)@d@d@              ",
"          >@'#'#h@w+w+5@[@)@)@)@)@n#>@>@[@'#m@d@o#>@j@              ",
"        p#d@d@[@A A j@[@q#r#m@i#)@)@s#>@m@m@t#u#v#d@                ",
"        d@w#m@>@%.c@>@[@(@4@4@6#6#1#m@>@j#m@1@m@x#[@                ",
"      (@'#6#6#y#z#'#'#[@q#>@6+)@)@'#s#>@>@/@d@A#j#(@                ",
"      >@>@m@'#1#'#B#5@o#[@)@1@'#C#A#>@j#[@A [@[@m@(@                ",
"      m@1#D#E#6#F#G#p#d@j@)@c@'#H#m@F#'#j@A [@<@I#(@                ",
"    j@d@1#6#J#K#m@H#L#[@<@)@M#6#6#N#m@[@c@m@d@(@j@(@                ",
"    O#6#'#G#)@P#Q#4#d@[@[@(@R#6#S#)@Q#6#'#r#>@T#U#                  ",
"    6#6#V#y.)@4@W#X#d@[@[@A Y#Z#`#1#E# $'#~@>@[@(@                  ",
"  B#6#.$+$@$y##@>@j#)@[@<@  #$$$%$&$1#*$)@o@d@=$j@                  ",
"  -$;$>$,$'$Q+4@m#m@>@(@(@  w+)$c+)@)@)@n#A [@<@U#                  ",
"  6#!$~${$]$Q+1#m@^$j@A     w+/$($m@d@[@c@A [@[@(@                  ",
"  _$:$<$[$|#X+'#}$j@|$        1$ $S#)@m@2$A [@<@                    ",
"  6#3$4$5$6$m#m@j@7$          8$9$0$>@m@A g@)@>@                    ",
"  a$6#b$|#A#c$:@(@A           H+[$d$)@e$A >@'#'#d@                  ",
"  ,@)@'#'#m@:@o#(@            1#6$f$*$)@7+4@)@)@)@                  ",
"  A >@1#>@)@j@j@(@[@            r#1#g$)@7+7@6#n#)@6#                ",
"  A n@'#[@)@h$i$(@[@            %.%.j$~@7+7+1#*$k$n#                ",
"  A A l$[@d@[@[@w#d@d@            e+%.A A A m$n$1#)@o@              ",
"    A A A A o$[@5@p$)@              A A A A A 7+c@6#l@A             ",
"    A A A A A q$[@'#'#              A A A A A A ,@m@A A Y+          ",
"    A A A A A A k#=$f#/@            A A A 6+A 9@>@6#A *@A           ",
"    A A A A A A u.j@j@r#              A A 6+*@~@~@6+~@h@6+          ",
"    A A A A A A A r$j@f#                A 6+h.s$A A A h.*@          ",
"        A A A A A A A t$                  W.h.h.e+A u$W.A           ",
"        A A A A A A A                       A %+v$7+W.A w$          ",
"          A A A A A A                       A A W.W.K W.i x$        ",
"          A A A y$6+~@                        A A v@y / z$h         ",
"            A$B$6+B$A                           C$A A D$/ / E$      ",
"            ~@6+6+A F$                            A A A G$H$/       ",
"            ~@6+~@A r@                            A I$' J$G$/#A     ",
"              K$6+t@A                               K L$A v@/#W./   ",
"                A L L                                 A Z+A D@y M$  ",
"                W.L N$W.                              A W.A A O$P$i ",
"              h.h.h.Q$W.W.                            A $ A 7+7+A / ",
"            z y A y W.W.W.                            >+Z Q@( v.y j ",
"          ( R$3 >+h.Q$W.W.                            ( Z Z Z U 7+A ",
"      S$ . . .X.w@A A A A                           $ ( 3 y 3 y A A ",
"    U  . .T$>+{.A A A A A                         + + + $ (.U y A A ",
"  >+o.3 W.A A A                                   3 Z Q@U U U$Q$A A ",
"                                              ( U U V$Z + W$L A X$L ",
"                                              K B+L h.h.L L L L     "};
