/* XPM */
static char * C5_xpm[] = {
"35 93 618 2",
"  	c None",
". 	c #846B66",
"+ 	c #846A66",
"@ 	c #6A534F",
"# 	c #512E27",
"$ 	c #2A2E31",
"% 	c #7C5E59",
"& 	c #75524E",
"* 	c #6A4642",
"= 	c #634F4C",
"- 	c #715955",
"; 	c #703F38",
"> 	c #814942",
", 	c #4B3938",
"' 	c #80605C",
") 	c #6F524E",
"! 	c #66514D",
"~ 	c #664744",
"{ 	c #725B56",
"] 	c #7B6660",
"^ 	c #584441",
"/ 	c #513D3B",
"( 	c #59423E",
"_ 	c #423E3F",
": 	c #775D59",
"< 	c #6E5450",
"[ 	c #65534F",
"} 	c #614C49",
"| 	c #6F5854",
"1 	c #644F4B",
"2 	c #4F3B39",
"3 	c #3E2D2C",
"4 	c #231C1B",
"5 	c #675755",
"6 	c #5B4D4D",
"7 	c #705955",
"8 	c #6B5552",
"9 	c #5C4C47",
"0 	c #56403D",
"a 	c #351B18",
"b 	c #4C3836",
"c 	c #42302F",
"d 	c #1B0F0E",
"e 	c #0D0201",
"f 	c #584643",
"g 	c #453F3F",
"h 	c #6E5B58",
"i 	c #68504D",
"j 	c #53413D",
"k 	c #54413E",
"l 	c #2B1B19",
"m 	c #252324",
"n 	c #2F1F1D",
"o 	c #0E0301",
"p 	c #040000",
"q 	c #7C6460",
"r 	c #76615D",
"s 	c #6C5854",
"t 	c #6B524E",
"u 	c #5A433F",
"v 	c #4C3A36",
"w 	c #371C1A",
"x 	c #291B1A",
"y 	c #25272A",
"z 	c #252223",
"A 	c #180C0B",
"B 	c #080303",
"C 	c #191211",
"D 	c #624F4C",
"E 	c #403B3B",
"F 	c #654642",
"G 	c #563F3C",
"H 	c #493633",
"I 	c #462F2C",
"J 	c #2E0B09",
"K 	c #252B2E",
"L 	c #231C1D",
"M 	c #3C2A28",
"N 	c #391B17",
"O 	c #120908",
"P 	c #301C19",
"Q 	c #3E2926",
"R 	c #442F2D",
"S 	c #554441",
"T 	c #4D3C39",
"U 	c #38211F",
"V 	c #160502",
"W 	c #0F0202",
"X 	c #362625",
"Y 	c #060202",
"Z 	c #261816",
"` 	c #523C38",
" .	c #65514E",
"..	c #7A615E",
"+.	c #3E2522",
"@.	c #4A3837",
"#.	c #210C0A",
"$.	c #1A0E0E",
"%.	c #493937",
"&.	c #3E2D2A",
"*.	c #473634",
"=.	c #302120",
"-.	c #020000",
";.	c #110605",
">.	c #23110D",
",.	c #271A17",
"'.	c #342523",
").	c #4B3531",
"!.	c #866E68",
"~.	c #7E5F5A",
"{.	c #7C6560",
"].	c #806763",
"^.	c #CF786D",
"/.	c #6F413C",
"(.	c #735D5A",
"_.	c #332423",
":.	c #402F2D",
"<.	c #433230",
"[.	c #1B0A07",
"}.	c #050201",
"|.	c #100504",
"1.	c #31211F",
"2.	c #362826",
"3.	c #3B2926",
"4.	c #58413D",
"5.	c #745D5A",
"6.	c #584442",
"7.	c #5B5454",
"8.	c #C7A7AA",
"9.	c #212020",
"0.	c #4E4A4C",
"a.	c #96898C",
"b.	c #716D6D",
"c.	c #705E5D",
"d.	c #63504D",
"e.	c #544240",
"f.	c #1D100F",
"g.	c #090303",
"h.	c #180E0C",
"i.	c #45322F",
"j.	c #372927",
"k.	c #87716A",
"l.	c #837A7B",
"m.	c #9A8A8D",
"n.	c #463D3C",
"o.	c #5D4745",
"p.	c #362220",
"q.	c #66504E",
"r.	c #3C2C2B",
"s.	c #655553",
"t.	c #6D6564",
"u.	c #5B5353",
"v.	c #1A0E0C",
"w.	c #2A1814",
"x.	c #1E1513",
"y.	c #322523",
"z.	c #5C5455",
"A.	c #7D7272",
"B.	c #555051",
"C.	c #5E5555",
"D.	c #5F504D",
"E.	c #0D0202",
"F.	c #41302F",
"G.	c #5C4A48",
"H.	c #635F5F",
"I.	c #292626",
"J.	c #2B1210",
"K.	c #1E0C09",
"L.	c #6A6160",
"M.	c #7C7172",
"N.	c #665C5B",
"O.	c #635A5A",
"P.	c #5D4542",
"Q.	c #837879",
"R.	c #444243",
"S.	c #3C3231",
"T.	c #766F70",
"U.	c #2F1714",
"V.	c #291412",
"W.	c #050000",
"X.	c #5E4C4A",
"Y.	c #867979",
"Z.	c #746A6B",
"`.	c #605454",
" +	c #4C3B3A",
".+	c #312E2E",
"++	c #433C3C",
"@+	c #6E6163",
"#+	c #857878",
"$+	c #877D7E",
"%+	c #5F3732",
"&+	c #9A594F",
"*+	c #908485",
"=+	c #513F3D",
"-+	c #4C403E",
";+	c #0E0B0B",
">+	c #000000",
",+	c #AD9092",
"'+	c #8A7D7F",
")+	c #706566",
"!+	c #352B2B",
"~+	c #342B2B",
"{+	c #3C3534",
"]+	c #51423F",
"^+	c #443838",
"/+	c #2E2524",
"(+	c #615250",
"_+	c #7F7576",
":+	c #594F4D",
"<+	c #775252",
"[+	c #512D27",
"}+	c #645351",
"|+	c #3B2F2E",
"1+	c #0F0C0C",
"2+	c #444141",
"3+	c #847879",
"4+	c #787071",
"5+	c #343333",
"6+	c #403D3E",
"7+	c #806B65",
"8+	c #816B66",
"9+	c #624945",
"0+	c #65504D",
"a+	c #665150",
"b+	c #3B2F2D",
"c+	c #817677",
"d+	c #6A6465",
"e+	c #4A3734",
"f+	c #2D2929",
"g+	c #5E4D4A",
"h+	c #433634",
"i+	c #151111",
"j+	c #4D4A4B",
"k+	c #6C6667",
"l+	c #6B6466",
"m+	c #2F2E2E",
"n+	c #775F5C",
"o+	c #7E6661",
"p+	c #6B5451",
"q+	c #635B5B",
"r+	c #5B5859",
"s+	c #4F4C4C",
"t+	c #343130",
"u+	c #42231E",
"v+	c #5B4745",
"w+	c #5F4D4A",
"x+	c #453735",
"y+	c #181314",
"z+	c #645E60",
"A+	c #575253",
"B+	c #3C3A3A",
"C+	c #755E5B",
"D+	c #806663",
"E+	c #866D68",
"F+	c #7C625F",
"G+	c #886662",
"H+	c #3A2B29",
"I+	c #140E0C",
"J+	c #1C1616",
"K+	c #614F4C",
"L+	c #443635",
"M+	c #0E0D0D",
"N+	c #504D4E",
"O+	c #585556",
"P+	c #3F3C3D",
"Q+	c #181515",
"R+	c #725B58",
"S+	c #7A625E",
"T+	c #7F6561",
"U+	c #816560",
"V+	c #7E6562",
"W+	c #7A635F",
"X+	c #54403D",
"Y+	c #333030",
"Z+	c #4E3D3B",
"`+	c #5F4B49",
" @	c #423432",
".@	c #080708",
"+@	c #575455",
"@@	c #524F50",
"#@	c #403E3E",
"$@	c #1F1C1C",
"%@	c #52403E",
"&@	c #745B59",
"*@	c #6F5552",
"=@	c #7F6662",
"-@	c #493531",
";@	c #393535",
">@	c #110E0E",
",@	c #2B2121",
"'@	c #564442",
")@	c #3C302D",
"!@	c #555152",
"~@	c #484445",
"{@	c #090808",
"]@	c #473433",
"^@	c #705956",
"/@	c #715855",
"(@	c #836966",
"_@	c #755C58",
":@	c #5B4542",
"<@	c #4B4748",
"[@	c #584544",
"}@	c #493735",
"|@	c #685552",
"1@	c #534847",
"2@	c #4E4B4C",
"3@	c #433F40",
"4@	c #252525",
"5@	c #422E2B",
"6@	c #5A4645",
"7@	c #745C5A",
"8@	c #67514D",
"9@	c #6E5855",
"0@	c #7F6763",
"a@	c #1D1717",
"b@	c #2B2929",
"c@	c #343132",
"d@	c #050505",
"e@	c #5A4744",
"f@	c #2D2423",
"g@	c #5A4848",
"h@	c #5B4F4D",
"i@	c #3F3535",
"j@	c #281E1D",
"k@	c #705A57",
"l@	c #7F6765",
"m@	c #6E5A56",
"n@	c #765C58",
"o@	c #50403D",
"p@	c #010101",
"q@	c #242020",
"r@	c #331715",
"s@	c #301715",
"t@	c #4B3A38",
"u@	c #1C1210",
"v@	c #4F3F3D",
"w@	c #221F1E",
"x@	c #483F3E",
"y@	c #6E5B59",
"z@	c #79615E",
"A@	c #382C2B",
"B@	c #241817",
"C@	c #332928",
"D@	c #281C1A",
"E@	c #4D3936",
"F@	c #0A0909",
"G@	c #302423",
"H@	c #64504E",
"I@	c #583D3B",
"J@	c #452622",
"K@	c #3E2A26",
"L@	c #2F2321",
"M@	c #2F2C2C",
"N@	c #484343",
"O@	c #120F0D",
"P@	c #241B1A",
"Q@	c #1F1816",
"R@	c #1A1616",
"S@	c #1E1312",
"T@	c #533B39",
"U@	c #3C201E",
"V@	c #432521",
"W@	c #201A19",
"X@	c #160E0E",
"Y@	c #3C2B28",
"Z@	c #4C3532",
"`@	c #4C2722",
" #	c #270100",
".#	c #1F1B1B",
"+#	c #0E0C0A",
"@#	c #010000",
"##	c #453230",
"$#	c #3F1B18",
"%#	c #391310",
"&#	c #100000",
"*#	c #221B1A",
"=#	c #402625",
"-#	c #3C1D1B",
";#	c #140000",
">#	c #271818",
",#	c #260E0C",
"'#	c #161313",
")#	c #0C0A09",
"!#	c #0C0000",
"~#	c #030000",
"{#	c #221615",
"]#	c #090201",
"^#	c #060404",
"/#	c #0A0707",
"(#	c #21120F",
"_#	c #4E3C3A",
":#	c #382827",
"<#	c #261A19",
"[#	c #0B0000",
"}#	c #0B0201",
"|#	c #271716",
"1#	c #2D2B2D",
"2#	c #221210",
"3#	c #020202",
"4#	c #574643",
"5#	c #0F0201",
"6#	c #342C2C",
"7#	c #574847",
"8#	c #18110F",
"9#	c #675B57",
"0#	c #8B766F",
"a#	c #7C5853",
"b#	c #58332E",
"c#	c #1D0C0B",
"d#	c #88716A",
"e#	c #86706B",
"f#	c #2E0000",
"g#	c #1D0B09",
"h#	c #854D47",
"i#	c #302726",
"j#	c #C16F63",
"k#	c #E18B80",
"l#	c #331C18",
"m#	c #1E0000",
"n#	c #433939",
"o#	c #595557",
"p#	c #B09A9B",
"q#	c #B89EA0",
"r#	c #BFA3A5",
"s#	c #6B4D48",
"t#	c #604C4C",
"u#	c #A18E8F",
"v#	c #EAB1C1",
"w#	c #BDA2A4",
"x#	c #B79D9F",
"y#	c #65281F",
"z#	c #52221B",
"A#	c #544344",
"B#	c #98898C",
"C#	c #938587",
"D#	c #8E8182",
"E#	c #A39193",
"F#	c #A08F90",
"G#	c #988889",
"H#	c #7A6566",
"I#	c #4D211B",
"J#	c #42201B",
"K#	c #383535",
"L#	c #A38886",
"M#	c #A59293",
"N#	c #92696A",
"O#	c #9A8A8B",
"P#	c #938485",
"Q#	c #462520",
"R#	c #350B09",
"S#	c #484242",
"T#	c #1C1919",
"U#	c #AB9598",
"V#	c #A99597",
"W#	c #B3787A",
"X#	c #A79496",
"Y#	c #A79495",
"Z#	c #9B8B8C",
"`#	c #836B6B",
" $	c #1C0D0A",
".$	c #080403",
"+$	c #463E3E",
"@$	c #574C4C",
"#$	c #B29B9C",
"$$	c #A08F92",
"%$	c #A47071",
"&$	c #AC9798",
"*$	c #9C8C8F",
"=$	c #AD9899",
"-$	c #A39192",
";$	c #0C0604",
">$	c #020101",
",$	c #685A5B",
"'$	c #463838",
")$	c #9F8E90",
"!$	c #948788",
"~$	c #9C8B8C",
"{$	c #785F5F",
"]$	c #343031",
"^$	c #756768",
"/$	c #3C3737",
"($	c #705F5F",
"_$	c #715858",
":$	c #83797A",
"<$	c #968788",
"[$	c #A19091",
"}$	c #8A686A",
"|$	c #231F1F",
"1$	c #564D4D",
"2$	c #675C5D",
"3$	c #3A3636",
"4$	c #645E5F",
"5$	c #645F60",
"6$	c #555151",
"7$	c #958687",
"8$	c #877A7B",
"9$	c #483532",
"0$	c #1D1919",
"a$	c #524747",
"b$	c #0E0C0C",
"c$	c #221E1F",
"d$	c #413E3E",
"e$	c #665C5D",
"f$	c #7E7071",
"g$	c #7D7171",
"h$	c #312D2E",
"i$	c #796C6D",
"j$	c #423D3D",
"k$	c #222020",
"l$	c #2E2B2B",
"m$	c #373434",
"n$	c #827475",
"o$	c #4D3633",
"p$	c #171516",
"q$	c #3D393A",
"r$	c #736768",
"s$	c #857677",
"t$	c #111010",
"u$	c #6A5F5F",
"v$	c #817374",
"w$	c #86797A",
"x$	c #564F50",
"y$	c #7E7273",
"z$	c #7A6D6E",
"A$	c #908081",
"B$	c #110E0F",
"C$	c #181414",
"D$	c #4C4647",
"E$	c #7F7273",
"F$	c #62595A",
"G$	c #575252",
"H$	c #7B6E6F",
"I$	c #776A6B",
"J$	c #554E4F",
"K$	c #595050",
"L$	c #514747",
"M$	c #312E2F",
"N$	c #363333",
"O$	c #786D6E",
"P$	c #7D6F70",
"Q$	c #6D6263",
"R$	c #5B5354",
"S$	c #6B6162",
"T$	c #6B6263",
"U$	c #211C1C",
"V$	c #6E6060",
"W$	c #474243",
"X$	c #807374",
"Y$	c #756869",
"Z$	c #5A5051",
"`$	c #786B6B",
" %	c #201B1B",
".%	c #1B1717",
"+%	c #6C5F60",
"@%	c #6C6162",
"#%	c #5F5657",
"$%	c #695D5E",
"%%	c #574E4F",
"&%	c #1D1A1A",
"*%	c #2A2727",
"=%	c #2E2727",
"-%	c #544E4F",
";%	c #443F40",
">%	c #312B2B",
",%	c #5B5252",
"'%	c #343131",
")%	c #4C4949",
"!%	c #3F3B3C",
"~%	c #1D1818",
"{%	c #252220",
"]%	c #1C1818",
"^%	c #1A1717",
"/%	c #0B0A0A",
"(%	c #322728",
"_%	c #474344",
":%	c #4C0000",
"<%	c #1C1918",
"[%	c #343232",
"}%	c #4D4343",
"|%	c #565354",
"1%	c #3E0000",
"2%	c #2B1A1A",
"3%	c #151110",
"4%	c #120000",
"5%	c #120B0B",
"6%	c #140807",
"7%	c #090000",
"8%	c #140402",
"9%	c #2B1D1C",
"0%	c #0D0807",
"a%	c #201615",
"b%	c #1F1312",
"c%	c #0B0605",
"d%	c #201413",
"e%	c #251817",
"f%	c #100C0B",
"g%	c #130B0B",
"h%	c #090404",
"i%	c #392928",
"j%	c #473736",
"k%	c #271D1C",
"l%	c #3F3332",
"m%	c #1C1514",
"n%	c #080000",
"o%	c #4D3B39",
"p%	c #53403E",
"q%	c #070403",
"r%	c #554140",
"s%	c #4F3C3B",
"t%	c #806B69",
"u%	c #180B0B",
"v%	c #181211",
"w%	c #473C3B",
"x%	c #473534",
"y%	c #392A29",
"z%	c #231B18",
"A%	c #271B1A",
"                                              . + + . @ #             ",
"                                            $ % & * = - ; >           ",
"                                          , ' ) ! ~ { ] ^ / (         ",
"                                        . _ : < [ } | 1 2 3 4         ",
"                                        5 6 7 8 9 0 a b c d e         ",
"                                      f g h i ^ j k l m n o p         ",
"                                    q r s t u v w x y z A B C         ",
"                                    D E F G H I J K L M N O C         ",
"                                . . P Q R S T U V V W X Y Z `         ",
"                           ...q +.@.#.$.%.&.*.=.-.;.>.,.'.).          ",
"                      !.~.{.].^.+ /./.(._.:.<.[.}.|.1.2.3.4.          ",
"                      5.6.7.8.8.9.0.a.b.c.d.e.f.g.h.i.j.(             ",
"                    k.+ l.m.n.o.p.@.q.r.s.t.u.v.w.x.y.                ",
"                    k.z.A.B.C.D.E.F.@.#.G.s.H.I.x.>.x.                ",
"                  J.K.L.M.N.O.P.Q.R.H.R.r.S.4 T.Q.>.                  ",
"            U.V.V W.X.Y.Z.`. +.+++@+#+$+T.T.%+%+&+*+Q.                ",
"            =+-+;+>+,+'+)+!+~+{+]+^+/+(+_+:+<+%+&+[+Q.                ",
"            }+|+1+2+3+4+5+6+7+8+9+0+a+b+c+T.d+:+e+>.f+Q.              ",
"          (.g+h+i+j+k+l+m+8 5.8 n++ o+p+q+r+s+t+u+>.>+s+              ",
"          v+w+x+y+r+z+A+B+C+C+D+E+].F+G+H+_ s+I+>+>.>+J+              ",
"           .K+L+M+N+O+P+Q+R+S+T+U+V+W+X+j.Y+>+>+>+x.>+>+>+            ",
"        Z+`+d. @.@+@@@#@$@%@&@*@+ =@| -@;@_ >@>+>+>+>+>+>+,@          ",
"        '@`+d.)@>+r+!@~@{@]@^@/@(@=@_@:@_ _ <@>+>+>+>+>+>+Y+          ",
"        [@}@|@1@>+2@3@s+4@5@6@7@8@9@0@a@b@_ _ _ c@d@>+>+>+Y+          ",
"       .e@f@g@h@i@_ _ _ >+j@k@l@m@n@o@p@>+>+>+>+q@_ >+>+>+            ",
"    r@s@t@u@>.v@:+w@_ _ M+>+x@y@n+z@A@p@>+>+>+>+>+>+>+>+>+            ",
"    r.B@C@>.D@E@j.>+>+Y+F@G@>+H@I@J@K@L@s+s+M@>+N@O@s+>+>+            ",
"      >+>+>+>+P@Q@b@>+R@>+r.>+S@T@U@V@V R@Y+Y+>+>+R@>+>+>+            ",
"        >+j.>+>+>+s+>+>+>+W@X@>+Y@Z@`@ #x.Y+.#>+>+>+>+>++#            ",
"                >+Y+>+>+>+>+@#4 -.##$#%#x.>+>+>+>+,@>+R@O@            ",
"                  >+>+&#>+>+>+>+>+*#=#-#;#>+>+>+Y+>+>+>+O@            ",
"                  >+>+x.>+>+>+>+>+>+>#,#>+>+>+>+N@>+>+>+'#            ",
"                  >+@#>+O@>+>+>+>+V >+>+>+>+>+>+>+>+>+)#              ",
"                    @#>+>+>+>+>+@#!#>+~#~#>+>+>+>+>+>+Y+              ",
"                    >+&#@#-.-.A {#!#>+]#W.>+>+x.^#>+>+R@              ",
"                      >+>+V V #.@.=./#>+#.>+>+(#x.x.>+                ",
"                    r.>+>+V V =._#:#<#>+#.>+[#e+j.>+>+_               ",
"                    6.>+>+}#V |#r.1# .>+J.>+2#( x.x.3#_               ",
"                  #.6.4#>+e 5#V 6#K . 7# #V >+&#e+>+8#  R@            ",
"                  r@6.`@#.-.>+V K 9#0#0#[#>+2#>.a#x.                  ",
"                  r@ .b#c#-.@#r.0#0#d#e#V f#&#g#h#>.                  ",
"                -.{#@.!#-.>+@#i#6.@.j#k#l#m#&#&#l#l#(                 ",
"              l#n#o#l.R.b.W.b.p#p#T.q#r#&+%+s#@#@#>+>+                ",
"              t#p#8.u#Q.p#u+Q.Q.8.v#w#x#y#z#l#@#@#O@_                 ",
"            A#t#*+B#Q.C#*+t#Q.D#p#E#F#G#H#I#J#@#>+Y+K#_               ",
"            Q.L#M#*+Q.p#p#N#p#p#p#p#F#O#P#Q#R#@#>+Y+S#T#              ",
"            *+p#8.U#E#V#r#W#8.p#p#V#X#Y#Z#`#f# $.$R@+$@$              ",
"            Q.p##$8.p#$$8.%$&$$$*$$$p#=$-$G#f#;$>.Y+>$,$              ",
"            '$*+)$p#$$!$p#N#*$*$*$*$*$F#~$~${$>+@#]$R@^$/$            ",
"            ,@($*+*+Q.T.*$_$!$*$!$:$d+c+<$[$}$@#>+R@|$1$2$_           ",
"              O@_ d+r+R@3$4$T.Q.d+5$6$r+7$8$9$@#>+Y+Y+0$a$R@          ",
"              >+b$R@Y+R@c$_ N@r+s+s+d$Y+e$f$g$&#>+Y+R@h$i$j$          ",
"                >+>@R@R@i+>+k$Y+Y+R@l$Y+m$f$n$o$p$q$Y+r$s$n$          ",
"                  >+>+R@>+>+>+t$Y+.+R@Y+Y+u$v$w$_ x$y$z$i$A$B$        ",
"                  >+R@R@C$d@>+>+k$Y+Y+Y+q$D$8$E$F$G$H$I$J$K$L$R@      ",
"                  >+>+Y+R@R@i+3#>+M$N$Y+_ s+O$P$Q$R$S$T$_ U$V$R@      ",
"                  +#>+R@R@R@R@R@>+d@q$s+_ _ W$X$Y$Z$N$>+>+>+`$ %      ",
"                  R@>+Y+Y+>+>+>+>+>+M+_ _ s+]$.%+%@%#%>+>+>+$%%%      ",
"                  Y+>+Y+Y+R@i+d@>+>+{@&%3$*%|$R@=%-%;%>+>+>+>%,%      ",
"                  Y+>+R@>+R@R@R@R@R@i+>+R@|$'%)%!%Y+Y+>+>+>+1+~%R@    ",
"                    {%R@.#l$*%R@>+R@Y+]%  _ s+_ '%Y+Y+>+>+>+>+i+R@    ",
"                    R@l$Y+Y+l$i+>+i+*%Y+  _ _ '%Y+_ N$>+>+>+>+d@R@    ",
"                      >+R@Y+^%3#>+d@R@>+      Y+Y+Y+_ >+>+>+>+>+R@l$  ",
"                      >+Y+/%>+>+>+>+R@>+      R@_ _ N$>+>+>+>+>+R@R@  ",
"                      >+>+>+>+>+>+>+>+>+        _ '%Y+>+>+>+>+{@R@d@  ",
"                    r+N@_ >+>@R@R@R@O@            Y+Y+t$>+>+>@R@R@Y+  ",
"                  *+_$>+>+>+x.Y+K#_                 |$Y+>.&#(%r+_%N$  ",
"                  J#:%>+>+>+I+_ _ <%              _ [%>+>+@#@#}%|%_   ",
"                r+@#[#>+>+>+>+Y+>+R@              N@>+@#&#@#[#>+d+3$R@",
"            >+>+=.!#~#1%m#@#>+O@>+                &#m#@#>+>+m#2%s+R@3%",
"            4%5%=.6%7%>+m#@#>+>+                (%f#1%>.&#@#&#m#M@>+  ",
"            !#=.=.r.=.>+m#@#>+'#              T.'$W.[#-.>+>+;#[#>+>+  ",
"            !#$.{#7#{#>+x.>+>+>+              o#A >+>+~#4%W.>+>+>+    ",
"            8%!#9%{#0%>+>+>+>+                0.U${#a%>+>+>+>+>+>+    ",
"          {#>+!#>+>+-.>+I+                    >+r.b%d A -.>+>+>+>+    ",
"          V =.{#i#c%>+>+x.                    =.=.A d%e >+>+>+>+      ",
"          !#=.A i#>+>+>+                      e%=.{#{#@#>+>+>+        ",
"        =.#.b%A f%>+>+                        !#!#{#g%>+>+>+>+        ",
"        V V A h%>+>+>+                        >+>+>+>+>+>+>+          ",
"        @.r.W@>+>+>+>+                        >+>+>+>+>+>+>+          ",
"      i%j%S.>+>+>+                            e k%>+>+>+>+>+          ",
"    @.@.l%m%c%>+>+                            =.@.n%>+>+>+            ",
"    6.6.S.4 >+>+                              =.6.-.>+>+>+            ",
"  S.6.@.S.i#@#>+                              o%p%!#>+q%              ",
"  7#6.6.=.=.S.>+                              r%s%{#e                 ",
"A r.@.5.t%7#i#-.                              6.@.{#e                 ",
"7#t%@.r.A {#>+>+c%                             . .=.u%                ",
"!#{#c.c.=.-.v%>+-.>.                          6.p%F.=.-.              ",
"A e t%t%s.w%>+>+-.>+j.                        @.x%y%{#A {#            ",
"c%c%c%c%v%v%c%c%c%z%x.                      @.r.r.A%!#!#V =.!#        ",
"    c%c%                                      =.9%{#{#{#{#=.#.#.      ",
"                                              i#{#d !#A A A A V =.7#  ",
"                                              c%c%c%c%                "};
