/* XPM */
static char * D2_xpm[] = {
"43 90 576 2",
"  	c None",
". 	c #65514E",
"+ 	c #735C59",
"@ 	c #65504D",
"# 	c #5E4B48",
"$ 	c #554543",
"% 	c #846B66",
"& 	c #635553",
"* 	c #252B2E",
"= 	c #464141",
"- 	c #6F5A55",
"; 	c #695450",
"> 	c #5D4A47",
", 	c #5F4C48",
"' 	c #473C3B",
") 	c #846A66",
"! 	c #80635E",
"~ 	c #604D4B",
"{ 	c #866E68",
"] 	c #7E6761",
"^ 	c #715C57",
"/ 	c #594644",
"( 	c #3B2B29",
"_ 	c #3D3231",
": 	c #745D5A",
"< 	c #856C67",
"[ 	c #867069",
"} 	c #594744",
"| 	c #443432",
"1 	c #5D4B4A",
"2 	c #8B766F",
"3 	c #7F6662",
"4 	c #331713",
"5 	c #230D0B",
"6 	c #2B1311",
"7 	c #4C3C3A",
"8 	c #483836",
"9 	c #866D69",
"0 	c #8E7470",
"a 	c #6C4E48",
"b 	c #6F413C",
"c 	c #A0978A",
"d 	c #442E2A",
"e 	c #301A18",
"f 	c #4F3A38",
"g 	c #463634",
"h 	c #4D3C3A",
"i 	c #302120",
"j 	c #493E3D",
"k 	c #927C76",
"l 	c #B9ACA6",
"m 	c #AD9A94",
"n 	c #8F7875",
"o 	c #1B0000",
"p 	c #7E5F5A",
"q 	c #7B5A54",
"r 	c #7D6661",
"s 	c #503E3C",
"t 	c #4C3A38",
"u 	c #493937",
"v 	c #4D3D3B",
"w 	c #3D2D2C",
"x 	c #372827",
"y 	c #463E3D",
"z 	c #5A4C4A",
"A 	c #473837",
"B 	c #4E3F3E",
"C 	c #493B39",
"D 	c #1A1313",
"E 	c #523430",
"F 	c #4C3B39",
"G 	c #4B3937",
"H 	c #4B3A38",
"I 	c #2F2F30",
"J 	c #564442",
"K 	c #67514F",
"L 	c #76605C",
"M 	c #2D1E1D",
"N 	c #210C0A",
"O 	c #261716",
"P 	c #281F1E",
"Q 	c #4D3D3A",
"R 	c #453533",
"S 	c #3F2C2A",
"T 	c #4D3B39",
"U 	c #604C49",
"V 	c #3B3636",
"W 	c #7B6560",
"X 	c #6D5753",
"Y 	c #67514E",
"Z 	c #6C5955",
"` 	c #493837",
" .	c #292626",
"..	c #635F5F",
"+.	c #423E3F",
"@.	c #2E2D2D",
"#.	c #383636",
"$.	c #584442",
"%.	c #58332E",
"&.	c #331715",
"*.	c #372D2B",
"=.	c #4E3B3A",
"-.	c #4A3837",
";.	c #6F5855",
">.	c #806662",
",.	c #4D3F3E",
"'.	c #292D30",
").	c #866F69",
"!.	c #836B65",
"~.	c #735B58",
"{.	c #644F4C",
"].	c #444243",
"^.	c #272626",
"/.	c #302726",
"(.	c #000000",
"_.	c #140000",
":.	c #53413F",
"<.	c #2E1614",
"[.	c #0C0000",
"}.	c #232222",
"|.	c #221615",
"1.	c #706859",
"2.	c #999690",
"3.	c #3A2D2B",
"4.	c #180C0B",
"5.	c #3F2F2E",
"6.	c #3C2C2B",
"7.	c #7F7170",
"8.	c #7B7575",
"9.	c #726A6B",
"0.	c #827779",
"a.	c #8F8384",
"b.	c #867C7D",
"c.	c #897E7F",
"d.	c #170B09",
"e.	c #010000",
"f.	c #181717",
"g.	c #231C1B",
"h.	c #1E0000",
"i.	c #443433",
"j.	c #686062",
"k.	c #71696B",
"l.	c #655C5D",
"m.	c #5D4948",
"n.	c #454042",
"o.	c #5B5557",
"p.	c #897D7F",
"q.	c #827576",
"r.	c #090809",
"s.	c #333030",
"t.	c #1F1E1E",
"u.	c #281E1D",
"v.	c #3C3231",
"w.	c #181211",
"x.	c #362827",
"y.	c #0D0201",
"z.	c #453A39",
"A.	c #1C1818",
"B.	c #816C6B",
"C.	c #291413",
"D.	c #2B1210",
"E.	c #1C100F",
"F.	c #918485",
"G.	c #9A8A8D",
"H.	c #100000",
"I.	c #544344",
"J.	c #4F4C4C",
"K.	c #1A1616",
"L.	c #070707",
"M.	c #171616",
"N.	c #0B0A0A",
"O.	c #D6C9AC",
"P.	c #B7953E",
"Q.	c #978471",
"R.	c #582E28",
"S.	c #574847",
"T.	c #3E2D2B",
"U.	c #0B0000",
"V.	c #190A09",
"W.	c #4C3330",
"X.	c #594240",
"Y.	c #4F3C3B",
"Z.	c #312324",
"`.	c #97888B",
" +	c #756D6F",
".+	c #6A6465",
"++	c #3D393A",
"@+	c #090808",
"#+	c #1C1B1B",
"$+	c #171110",
"%+	c #5B332E",
"&+	c #0B0605",
"*+	c #160A0A",
"=+	c #4B3431",
"-+	c #624B48",
";+	c #6B5552",
">+	c #65504E",
",+	c #665B5B",
"'+	c #8C7F82",
")+	c #2E2424",
"!+	c #463838",
"~+	c #010101",
"{+	c #762B1E",
"]+	c #480804",
"^+	c #4E3937",
"/+	c #37211F",
"(+	c #6D5754",
"_+	c #6F5856",
":+	c #614C4A",
"<+	c #6F5A56",
"[+	c #6E5855",
"}+	c #695451",
"|+	c #4B3A3A",
"1+	c #8D8082",
"2+	c #696264",
"3+	c #111010",
"4+	c #160502",
"5+	c #AC645A",
"6+	c #4A3635",
"7+	c #78605C",
"8+	c #765D59",
"9+	c #785F5C",
"0+	c #6D5854",
"a+	c #675350",
"b+	c #5E4A48",
"c+	c #5A4644",
"d+	c #534241",
"e+	c #807578",
"f+	c #5F5759",
"g+	c #16100E",
"h+	c #020000",
"i+	c #2B1B1A",
"j+	c #8C605B",
"k+	c #362625",
"l+	c #735D59",
"m+	c #765F5C",
"n+	c #735B57",
"o+	c #6A5653",
"p+	c #634F4C",
"q+	c #614D4A",
"r+	c #523F3E",
"s+	c #4C3938",
"t+	c #52403F",
"u+	c #6B6465",
"v+	c #6D6264",
"w+	c #615C5E",
"x+	c #110E0E",
"y+	c #090101",
"z+	c #160F0E",
"A+	c #3D1C16",
"B+	c #7C6460",
"C+	c #5A4946",
"D+	c #473735",
"E+	c #53403E",
"F+	c #736363",
"G+	c #5B5456",
"H+	c #6C6163",
"I+	c #615D5E",
"J+	c #070403",
"K+	c #020202",
"L+	c #140908",
"M+	c #050000",
"N+	c #3D1C18",
"O+	c #120000",
"P+	c #130403",
"Q+	c #331F1C",
"R+	c #705A56",
"S+	c #604D4A",
"T+	c #564240",
"U+	c #463534",
"V+	c #342524",
"W+	c #0F0201",
"X+	c #635252",
"Y+	c #413B3B",
"Z+	c #776B6D",
"`+	c #302C2C",
" @	c #120F0D",
".@	c #2B2121",
"+@	c #0A0404",
"@@	c #270100",
"#@	c #391310",
"$@	c #755E5B",
"%@	c #332120",
"&@	c #554341",
"*@	c #4E3C3A",
"=@	c #2E2523",
"-@	c #1D0A07",
";@	c #6E5B5B",
">@	c #595254",
",@	c #716869",
"'@	c #1B1717",
")@	c #23110D",
"!@	c #372927",
"~@	c #080606",
"{@	c #030000",
"]@	c #87706A",
"^@	c #513F3D",
"/@	c #2D2323",
"(@	c #382C2B",
"_@	c #5E4F4F",
":@	c #66595B",
"<@	c #342B2A",
"[@	c #222020",
"}@	c #100C0B",
"|@	c #7D6360",
"1@	c #7C635F",
"2@	c #7B625E",
"3@	c #594543",
"4@	c #221716",
"5@	c #3B2F2E",
"6@	c #473534",
"7@	c #0E0301",
"8@	c #231F20",
"9@	c #5A5154",
"0@	c #181617",
"a@	c #1E1513",
"b@	c #050505",
"c@	c #816864",
"d@	c #7F6562",
"e@	c #5F4B49",
"f@	c #5C4A47",
"g@	c #453433",
"h@	c #030101",
"i@	c #0D0A09",
"j@	c #332322",
"k@	c #201615",
"l@	c #0E0D0D",
"m@	c #1C191A",
"n@	c #060505",
"o@	c #151111",
"p@	c #2A2727",
"q@	c #171212",
"r@	c #201A19",
"s@	c #3B3839",
"t@	c #836A65",
"u@	c #7E6460",
"v@	c #64504D",
"w@	c #3E3332",
"x@	c #0C0A09",
"y@	c #161313",
"z@	c #4A3734",
"A@	c #211C1C",
"B@	c #40302F",
"C@	c #6C5754",
"D@	c #5C4946",
"E@	c #372D2C",
"F@	c #2B2525",
"G@	c #070404",
"H@	c #6E5754",
"I@	c #5B4744",
"J@	c #271A18",
"K@	c #1B1A1A",
"L@	c #4F4B4D",
"M@	c #131212",
"N@	c #2F1D1A",
"O@	c #604B48",
"P@	c #44312E",
"Q@	c #090302",
"R@	c #4E4A4C",
"S@	c #504C4E",
"T@	c #444142",
"U@	c #595557",
"V@	c #15100F",
"W@	c #180F0D",
"X@	c #413E40",
"Y@	c #333132",
"Z@	c #908485",
"`@	c #837879",
" #	c #130E0D",
".#	c #100F0F",
"+#	c #331C18",
"@#	c #484343",
"##	c #2D2B2C",
"$#	c #36211F",
"%#	c #685350",
"&#	c #6D5855",
"*#	c #392D2A",
"=#	c #423231",
"-#	c #725B57",
";#	c #78615E",
">#	c #715B57",
",#	c #5E4A47",
"'#	c #210F0C",
")#	c #5D4A48",
"!#	c #7E6662",
"~#	c #79615E",
"{#	c #79625E",
"]#	c #2A1815",
"^#	c #3E2D2C",
"/#	c #5D4846",
"(#	c #77605C",
"_#	c #6A5451",
":#	c #473533",
"<#	c #67524F",
"[#	c #5A4643",
"}#	c #68534F",
"|#	c #6C5653",
"1#	c #7B6460",
"2#	c #826C67",
"3#	c #89736C",
"4#	c #826B65",
"5#	c #332524",
"6#	c #66514F",
"7#	c #66524F",
"8#	c #4B3938",
"9#	c #37211E",
"0#	c #382826",
"a#	c #080404",
"b#	c #1D100F",
"c#	c #806A64",
"d#	c #685450",
"e#	c #170A08",
"f#	c #968B8B",
"g#	c #716D6D",
"h#	c #33130A",
"i#	c #463C3C",
"j#	c #696565",
"k#	c #715858",
"l#	c #6E6869",
"m#	c #766F70",
"n#	c #7A7273",
"o#	c #2D1F1F",
"p#	c #373131",
"q#	c #7D7475",
"r#	c #7C5853",
"s#	c #7F7677",
"t#	c #877C7D",
"u#	c #9C8C8F",
"v#	c #322728",
"w#	c #352827",
"x#	c #866B69",
"y#	c #71423C",
"z#	c #B09A9B",
"A#	c #C7A7AA",
"B#	c #B77870",
"C#	c #846062",
"D#	c #98898C",
"E#	c #2F2222",
"F#	c #2E0000",
"G#	c #867B7C",
"H#	c #5D4E4F",
"I#	c #887C7D",
"J#	c #8D8182",
"K#	c #261613",
"L#	c #958688",
"M#	c #5B5859",
"N#	c #918486",
"O#	c #7C6566",
"P#	c #040101",
"Q#	c #514749",
"R#	c #7A7072",
"S#	c #402526",
"T#	c #AF999A",
"U#	c #8B8081",
"V#	c #7B7374",
"W#	c #726B6C",
"X#	c #363333",
"Y#	c #98888B",
"Z#	c #4C4648",
"`#	c #686264",
" $	c #706A6B",
".$	c #282424",
"+$	c #7F7576",
"@$	c #95878A",
"#$	c #766E70",
"$$	c #595253",
"%$	c #524F4F",
"&$	c #535050",
"*$	c #918386",
"=$	c #948588",
"-$	c #5E5A5B",
";$	c #544F50",
">$	c #242223",
",$	c #524B4C",
"'$	c #746C6D",
")$	c #555151",
"!$	c #575455",
"~$	c #97888A",
"{$	c #98898B",
"]$	c #887D7F",
"^$	c #464242",
"/$	c #817779",
"($	c #6B6566",
"_$	c #645F60",
":$	c #4B4748",
"<$	c #8E8284",
"[$	c #666162",
"}$	c #140E0C",
"|$	c #7C7475",
"1$	c #928386",
"2$	c #877C7E",
"3$	c #656061",
"4$	c #646061",
"5$	c #696465",
"6$	c #6A6365",
"7$	c #1F1B1B",
"8$	c #312E2E",
"9$	c #97898B",
"0$	c #998A8D",
"a$	c #454142",
"b$	c #464142",
"c$	c #403839",
"d$	c #383535",
"e$	c #8A7E80",
"f$	c #8B7F82",
"g$	c #9B8B8E",
"h$	c #918586",
"i$	c #4D4A4B",
"j$	c #5C5758",
"k$	c #877B7D",
"l$	c #938588",
"m$	c #332B2B",
"n$	c #676263",
"o$	c #575354",
"p$	c #3F3B3C",
"q$	c #2E2B2B",
"r$	c #9C8B8C",
"s$	c #797173",
"t$	c #615B5C",
"u$	c #585556",
"v$	c #494646",
"w$	c #231F1F",
"x$	c #83797A",
"y$	c #393636",
"z$	c #8F8284",
"A$	c #8B7E81",
"B$	c #604C4C",
"C$	c #A59293",
"D$	c #69595A",
"E$	c #9A8A8B",
"F$	c #433939",
"G$	c #2A2929",
"H$	c #8C7F81",
"I$	c #413E3E",
"J$	c #0C0C0C",
"K$	c #080000",
"L$	c #121212",
"M$	c #5F5757",
"N$	c #050302",
"O$	c #2F2C2C",
"P$	c #564F50",
"Q$	c #0A0000",
"R$	c #1A0E0E",
"S$	c #1B0F0E",
"T$	c #130909",
"U$	c #42231E",
"V$	c #0F0C0C",
"W$	c #161212",
"X$	c #382827",
"Y$	c #090000",
"Z$	c #040000",
"`$	c #3B2D2C",
" %	c #0B0201",
".%	c #080201",
"+%	c #1C0D0A",
"@%	c #2C1D1C",
"#%	c #272120",
"$%	c #705E5D",
"%%	c #1C1514",
"&%	c #070000",
"*%	c #0C0201",
"=%	c #87716B",
"-%	c #625251",
";%	c #806B69",
">%	c #1A1514",
",%	c #040202",
"'%	c #140E0D",
")%	c #140D0C",
"!%	c #685451",
"~%	c #695553",
"{%	c #604F4E",
"]%	c #624D4A",
"^%	c #322524",
"/%	c #2B1D1C",
"(%	c #090504",
"_%	c #523F3D",
"                  . + @ # $                                                           ",
"              % & * = - ; > , '                                                       ",
"          ) % ! * ~ { { ] ^ / ( _                                                     ",
"          ) ) . : : { { < [ } | 1                                                     ",
"          2 { 3 : : { { 4 5 6 7 8                                                     ",
"          9 0 : a b c { d e f g h i                                                   ",
"        j k l m n o p q r s t u v w                                                   ",
"        x y z A B C : ) D E u F G H F / I J K L                                       ",
"          M N M O O . . : P Q R S T U V W X X Y Z `  ...+.@.#.                        ",
"            . $.) ) %.) &.*.T =.-.;.>.,.'.& ).!.3 ~.{.' ].^.@./.i                     ",
"            (.(.(.(._.. i :.<.$.) ) ) $.,.* * : ) : ) i [.(.(.}.}.-.|.(.              ",
"              1.2.2.(.3.4.5.6.7.8.9.0.a.b.c.(.(.(.(.(.d.e.(.(.f.f.-.' g.              ",
"              (.(.(.h.(.4.w i.j.k.l.m.n.o.p.q.r.(.s.(.(.(.(.(.t.f.u.v.w.              ",
"              (.(.(.(.x.-.y.z.A.B.C.D.D.i E.F.G.H.I.J.K.L.(.(.M.f.f./.N.              ",
"              O.P.Q.h.R.(.(.S.T.U.V.W.X.$.Y.Z.`. +(..+s.++M.(.(.@+N.#+N.N.$+          ",
"              h.h.h.h.%+&+-.{ U.*+=+-+;+>+$.i ,+'+)+!+s.s.}.f.(.~+@+@+(.N.N.          ",
"  {+                ]+  ^+N /+(+_+:+<+[+}+. -.|+1+2+(.3+s.@.(.(.(.(.(.(.f.}.w.        ",
"  4+D.                5+N 6+7+8+9+0+a+b+c+$.-.d+e+f+g+(.s.f.(.(.(.(.(.(.h+h+g.&+      ",
"  4+4+i+          j+(.(.k+l+m+n+o+p+q+r+s+$.Y.t+u+v+w+@+x+N.(.(.(.(.(.(.h+y+z+w.      ",
"U.' h+        A+4.|.&.-.B+m+}+p+C+D+-.E+$.$.$.F+G+H+I+x+@+s.h+J+K+N.(.(.4.L+y.w.      ",
"M+N+O+            { P+Q+R+U S+T+U+V+[.W+4+|.-.X+Y+Z+`+K.@+ @.@&+L.K+(.(.+@4.w.h+(.    ",
"4+@@#@N         $@-.N %@&@*@$.=@h+(.(.4+-@|.-.;@>@,@'@K.K. @)@!@N.(.N.N.h+y+~@w.(.h+  ",
"U.@@{@(.      ]@) ) 4+i ^@s /@(.h+g.(@-.-.i -._@:@<@(. @(.(.(.[@K.(.(.&+(.(.(./.(.}@w.",
"  N (.(.    |@1@) 2@3@w 4@h+(.(.J+g.5@6@6.i 7@8@9@0@(.(.(.a@(.b@K.(.(.(.(.&+h+v.(.(./.",
"  N M+O+N ) c@% d@e@f@g@h@(.(.(.(.i@g.6.j@k@(.l@m@n@(.(.(.(.(.o@p@(.&+(.(.(.q@r@(.e./.",
"  N M+: s@) t@u@p+v@q+w@(.  L.(.(.(.(.(.(.(.(.(.(.(.(.(.(.(.(.x@y@)@z@(.(.(.(.(.(.}@w.",
"  h+f.A@4+: B@C@v@D@E@&+  M+  (.s@(.s@(.F@(.(.(. @(.(.(.(.(.(.(.(.(.!@  (.(.(.(.(.(.(.",
"    G@(.M+-.H@v@I@J@w.(.      K+K@s@L@M@(...(._.x+(.(.(.(.(.(.(.(.a@a@    (.(.(.(.(.  ",
"      . . N@O@P@Q@w.          N.f.R@S@T@(.y+U@h.(. @(.(.(.(.(.(.(.(.(.    (.(.(.(.    ",
"      g.6.V@W@y.&+            ~+@+@.X@R@Y@(.Z@`@U.(.(.(.(.(.(.(.(.a@        (.(.(.    ",
"        &+ #h+(.              (.(..#].U@..+#Z@`@U.(.(.(.(.(.(.(.(.(.        (.(.(.    ",
"                                (.(.(.[@ @@#s@##(.(.(.(.(.(.(.(.(.(.        (.(.(.    ",
"                                  (.(.(.(.  (.(.(.[.4+4+i 6.4+h+e.(.(.      (.(.(.    ",
"                                  (.(.      h+h+(.(.-.6.$#%#&#V@y+(.(.      (.(.(.    ",
"                                  (.(.      4.(.*#=#-.$.-#;#>#,#i         (.(.(.(.    ",
"                                      (.      '#)#U i $.!#~#{#I@4+        (.(.(.(.    ",
"                                      (.      ]#p+a+^#/#>.(#(#_#i 4.      (.(.(.(.    ",
"                                            N :#<#[#}#|#1#2#3#4#: -.      (.(.(.(.    ",
"                                            6.5#6#>.% 7#8#6.9#0#|.4.a#(.(.(.(.(.(.    ",
"                                          i b#|.c#d#6.i i 4+4+4+|.u.4._.(.(.(.(.(.(.  ",
"                                        (.e#i R@4+M+M+U.O+f#g#.......+)@)@a@h#)@e.e.  ",
"                                      R@i#(.y.j#U@h+(.(.k#Z@l#m#Z@`@n#o#)@(.(.(.(.(.  ",
"                                      ].p#[.p#U@q#r#h.h.k#Z@s#t#u#`@`@v#w#e.e.(.e.a@  ",
"                                      Z@x#y#z#z#A#z#B#5+C#u#Z@D#D#Z@Z@@#E#)@F#h.(.(.  ",
"                                      G#D#u#z#Z@z#H#I#D#Z@Z@Z@Z@J#G#`@v#K#e.H.(.  )@  ",
"                                      G.L#u#z#M#u#N#O#Z@Z@`@Z@t#`@n#m#v#)@)@)@    P#)@",
"                                    Q#L#R#.+.+M#H.S#T#z#D#U#V#W#.+J.+.X#  )@e.  )@    ",
"                                  G#D#Y#m#M#Z@J.Z#`#`@Z@`@ $I+.+.+s..$+.  )@)@  !@    ",
"                                  +$@$#$+.J.u#`@$$%$`@Z@`@M#&$+.J.s.K.s.    +#        ",
"                                .+*$=$-$.+;$>$,$'$)$!$.+`@+.p@K.K.                    ",
"                              m#~${$]$.+.+(.^$/$($_$:$+.M#K.K.K.                      ",
"                              .+<$@$[$M#}$(..+|$`@m#+.++s.K.(.K.                      ",
"                              V#1$2$3$(.(.#.M#4$m#5$M#s.s. @s.                        ",
"                              u#D#6$+.U.(.M#:$:$m#M#M#J.7$8$s.                        ",
"                              9$0$a$b$v#c$M#d$+.`@M#M#J.b@K.s.                        ",
"                              e$f$0$Z@(.M#3$s.K.m#.+s.s.(.(.                          ",
"                              u#g$h$s#(.M#.+s.K.s.i$(.K.K.K.                          ",
"                            Z@u#N#G#.+a@M#j$+.K.s.s.(.s.s.                            ",
"                            k$l$`@n#(.m$+.+.s.7$(.7$8$s.s.                            ",
"                          u#n$>@+.e.(.+.M#o$p$q$K.K.K.                                ",
"                          r$s$t$+.(.e.+.+.u$v$s.w$K.K.                                ",
"                        u#m#m#.+I.I.x$.+M#%$y$(.s.s.                                  ",
"                        `@n#z$.+(..+.+A$`@.+i$s.w$K.                                  ",
"                          `@`@B$e.`@m#Z@`@m#`@.+K.                                    ",
"                          Z@M#^$e.Z@C$M#`@u#A#z#K.s.                                  ",
"                            H.e.(.D$Z@u#`@n#m#z#v#+.J.                                ",
"                            (.(.(.e.m#u#E$`@#+F$q@}.G$M#                              ",
"                              (.(.(.(.H$u#I$(.(.M+J$}.s@+.                            ",
"                                (.(.(.m#M#(.K$[.h+(.L$N..+                            ",
"                                  (.x+Z@M$(.h+[.4.N$(.(.O$                            ",
"                                  )@a@P$(.h+Q$R$S$T$(.(.(..+                          ",
"                                   @U$(.(.y.[.|.|.y.(.(.V$J.                          ",
"                                    +#(.(.y.h+S$|.y.(.(.W$f.a@                        ",
"                                      4.(.4.[.y.i 4.e.(.(.(.(.                        ",
"                                      (.g.|.|.4.' v.|.(.(.(.(.                        ",
"                                        (.r@v.i S.i 4.(.(.(.(.                        ",
"                                          (.4.X$i i 4.e.(.(.(.(.                      ",
"                                            Y$Z$i `$6.4+ %(.(.(.)@                    ",
"                                            {@K$i 6.*@.%4+(.&+(.+%                    ",
"                                            g.4.4.@%[.(.|.#%(.(.(.                    ",
"                                              (.(.K$M+4+$%v.%%(.(.)@                  ",
"                                                (.(.-.i i |.v.h+h+h+                  ",
"                                                (.&%-.6.6.v.<@h+{@*%y.                ",
"                                              i ) =%|.|.-%' /.h+ %y.y.y.              ",
"                                            -.-.;%-.S.S.' >%,%&+y.y.y.y.              ",
"                                          $.: S.6.-.|.v./.w.&+'%)%y.y.y.              ",
"                                      !%: ~%{%|.' [.y.h+h+(.(.(.(.e.h+h+              ",
"                                    6.%#]%$%^%/%4.4./.g.w.&+(%e.(.(.(.&+              ",
"                                i S._%6.$.. y.h+(.(.(.(.(.&+&+&+                      ",
"                                    (.&+  (.&+&+&+&+&+J+(.                            "};
