/* XPM */
static char * D4_xpm[] = {
"53 90 517 2",
"  	c None",
". 	c #745D5A",
"+ 	c #705E5D",
"@ 	c #846B66",
"# 	c #846A66",
"$ 	c #866E68",
"% 	c #584442",
"& 	c #4A3837",
"* 	c #79625E",
"= 	c #87716A",
"- 	c #754F4A",
"; 	c #79615E",
"> 	c #65514E",
", 	c #302726",
"' 	c #252B2E",
") 	c #512D27",
"! 	c #5D4947",
"~ 	c #7F6762",
"{ 	c #594C4B",
"] 	c #5A4340",
"^ 	c #6F5956",
"/ 	c #725C59",
"( 	c #432C2A",
"_ 	c #302120",
": 	c #020000",
"< 	c #6A4643",
"[ 	c #604C4A",
"} 	c #765F5C",
"| 	c #39383A",
"1 	c #634F4C",
"2 	c #5A4542",
"3 	c #5F4B49",
"4 	c #040100",
"5 	c #0D0201",
"6 	c #685350",
"7 	c #6D5855",
"8 	c #735C59",
"9 	c #67514E",
"0 	c #372927",
"a 	c #644F4C",
"b 	c #66524F",
"c 	c #2D1B18",
"d 	c #040000",
"e 	c #836E68",
"f 	c #695451",
"g 	c #5E4B48",
"h 	c #4D4040",
"i 	c #676263",
"j 	c #837A7B",
"k 	c #292626",
"l 	c #483835",
"m 	c #64504D",
"n 	c #5F4C49",
"o 	c #060505",
"p 	c #000000",
"q 	c #4E3C3A",
"r 	c #4D3C3A",
"s 	c #453433",
"t 	c #433332",
"u 	c #564848",
"v 	c #625251",
"w 	c #564745",
"x 	c #5F4B48",
"y 	c #4A3330",
"z 	c #210C0A",
"A 	c #3C2C2B",
"B 	c #54413F",
"C 	c #513F3E",
"D 	c #403333",
"E 	c #5B4D4D",
"F 	c #4E4140",
"G 	c #413332",
"H 	c #5C4946",
"I 	c #4D3B3A",
"J 	c #331B18",
"K 	c #2E1513",
"L 	c #160502",
"M 	c #181211",
"N 	c #39211F",
"O 	c #33211E",
"P 	c #020202",
"Q 	c #3B3839",
"R 	c #595557",
"S 	c #887A7D",
"T 	c #584543",
"U 	c #68534F",
"V 	c #0C0000",
"W 	c #211C1C",
"X 	c #444243",
"Y 	c #0B0605",
"Z 	c #0B0000",
"` 	c #050000",
" .	c #0A0909",
"..	c #706465",
"+.	c #968B8B",
"@.	c #473C3B",
"#.	c #4E4A4C",
"$.	c #3E3B3C",
"%.	c #604C4C",
"&.	c #242121",
"*.	c #8E8383",
"=.	c #83797A",
"-.	c #7B7374",
";.	c #454547",
">.	c #846C69",
",.	c #5C4C4A",
"'.	c #594C4C",
").	c #918686",
"!.	c #8A7F7F",
"~.	c #524B4C",
"{.	c #544C4D",
"].	c #4A4445",
"^.	c #918687",
"/.	c #662B23",
"(.	c #776F70",
"_.	c #1E0000",
":.	c #010000",
"<.	c #1B1819",
"[.	c #85797A",
"}.	c #918284",
"|.	c #787172",
"1.	c #8C7F80",
"2.	c #837879",
"3.	c #8B7878",
"4.	c #6B6465",
"5.	c #554F50",
"6.	c #635B5C",
"7.	c #504B4C",
"8.	c #403736",
"9.	c #403837",
"0.	c #866F6D",
"a.	c #221615",
"b.	c #0C0B0B",
"c.	c #483635",
"d.	c #614D4A",
"e.	c #8C8181",
"f.	c #6C5051",
"g.	c #7C7374",
"h.	c #887D7E",
"i.	c #191717",
"j.	c #807576",
"k.	c #817778",
"l.	c #8D8182",
"m.	c #6A605F",
"n.	c #5B514F",
"o.	c #635D5D",
"p.	c #746D6E",
"q.	c #3C393A",
"r.	c #3F3535",
"s.	c #403839",
"t.	c #695350",
"u.	c #6C5552",
"v.	c #7A635E",
"w.	c #231C1B",
"x.	c #574543",
"y.	c #897E7F",
"z.	c #786566",
"A.	c #857A7B",
"B.	c #877C7D",
"C.	c #7E7374",
"D.	c #7C7172",
"E.	c #817677",
"F.	c #6B6162",
"G.	c #706869",
"H.	c #736B6C",
"I.	c #635C5D",
"J.	c #776C6D",
"K.	c #171414",
"L.	c #2D2827",
"M.	c #423A3B",
"N.	c #614D4B",
"O.	c #715A57",
"P.	c #6A5552",
"Q.	c #715B58",
"R.	c #513F3D",
"S.	c #6A5451",
"T.	c #7F7576",
"U.	c #7C6767",
"V.	c #6A6465",
"W.	c #222020",
"X.	c #827778",
"Y.	c #7A7070",
"Z.	c #796F70",
"`.	c #7A7071",
" +	c #7D7273",
".+	c #887C7D",
"++	c #9C898B",
"@+	c #7F7273",
"#+	c #1A1818",
"$+	c #312221",
"%+	c #5A4744",
"&+	c #765F5B",
"*+	c #614C4A",
"=+	c #554240",
"-+	c #76605F",
";+	c #7F7677",
">+	c #514445",
",+	c #726B6C",
"'+	c #140000",
")+	c #5B5859",
"!+	c #746C6D",
"~+	c #797071",
"{+	c #7E7475",
"]+	c #A08B8E",
"^+	c #BB9EA0",
"/+	c #9E8B8D",
"(+	c #423E3F",
"_+	c #604D4A",
":+	c #5F4E4B",
"<+	c #3F2F2E",
"[+	c #862C1D",
"}+	c #7C6E6D",
"|+	c #352B2A",
"1+	c #544344",
"2+	c #766F70",
"3+	c #7B7172",
"4+	c #706768",
"5+	c #6E6667",
"6+	c #6D5F60",
"7+	c #685F5E",
"8+	c #7E7273",
"9+	c #B89C9F",
"0+	c #A89193",
"a+	c #333030",
"b+	c #604C49",
"c+	c #604E4B",
"d+	c #2B1210",
"e+	c #090504",
"f+	c #23110D",
"g+	c #523F3D",
"h+	c #716D6D",
"i+	c #665E5F",
"j+	c #725D5C",
"k+	c #624E4D",
"l+	c #594F4D",
"m+	c #0C0A09",
"n+	c #605C5D",
"o+	c #464243",
"p+	c #4F4C4C",
"q+	c #625859",
"r+	c #857678",
"s+	c #1A1616",
"t+	c #12100F",
"u+	c #443734",
"v+	c #5B4B49",
"w+	c #76615C",
"x+	c #331715",
"y+	c #433E3E",
"z+	c #1C1B1B",
"A+	c #521312",
"B+	c #685855",
"C+	c #482B27",
"D+	c #867A7B",
"E+	c #565051",
"F+	c #766E6F",
"G+	c #343130",
"H+	c #59423E",
"I+	c #0E0D0D",
"J+	c #463F3E",
"K+	c #624E4B",
"L+	c #3A2D2B",
"M+	c #4E4343",
"N+	c #2E2D2D",
"O+	c #45100F",
"P+	c #5E4844",
"Q+	c #766767",
"R+	c #322728",
"S+	c #776E6F",
"T+	c #5F5B5C",
"U+	c #5A5251",
"V+	c #282424",
"W+	c #3D393A",
"X+	c #5E4A47",
"Y+	c #66524E",
"Z+	c #201615",
"`+	c #6B4D48",
" @	c #635F60",
".@	c #332C2B",
"+@	c #070707",
"@@	c #42201B",
"#@	c #2E0000",
"$@	c #363333",
"%@	c #3F3B3C",
"&@	c #120F0D",
"*@	c #0B0A0A",
"=@	c #5A4845",
"-@	c #180C0B",
";@	c #070403",
">@	c #4A3734",
",@	c #353131",
"'@	c #7D7374",
")@	c #595454",
"!@	c #171515",
"~@	c #2B2121",
"{@	c #5E5A5B",
"]@	c #2E2C2D",
"^@	c #100000",
"/@	c #110E0E",
"(@	c #382C2B",
"_@	c #130E0D",
":@	c #050404",
"<@	c #1C1616",
"[@	c #1A1817",
"}@	c #2B1E1D",
"|@	c #080000",
"1@	c #3C3231",
"2@	c #0C0909",
"3@	c #574847",
"4@	c #060000",
"5@	c #030000",
"6@	c #090000",
"7@	c #170E0E",
"8@	c #282626",
"9@	c #3D1C18",
"0@	c #160807",
"a@	c #100807",
"b@	c #100C0B",
"c@	c #270100",
"d@	c #2E0605",
"e@	c #230200",
"f@	c #382725",
"g@	c #160E0E",
"h@	c #0F0201",
"i@	c #232222",
"j@	c #271D1C",
"k@	c #1E0C0A",
"l@	c #1B0C0B",
"m@	c #473634",
"n@	c #433331",
"o@	c #4F3937",
"p@	c #201312",
"q@	c #4A3937",
"r@	c #594543",
"s@	c #392928",
"t@	c #3C1D1B",
"u@	c #503D3C",
"v@	c #55413F",
"w@	c #4C2722",
"x@	c #685451",
"y@	c #655553",
"z@	c #100301",
"A@	c #7D6460",
"B@	c #362322",
"C@	c #311B19",
"D@	c #3E3636",
"E@	c #685E5F",
"F@	c #857575",
"G@	c #666162",
"H@	c #5C5051",
"I@	c #1D0000",
"J@	c #1B0100",
"K@	c #332E2E",
"L@	c #6E6566",
"M@	c #8D7F80",
"N@	c #867B7C",
"O@	c #635555",
"P@	c #6A6364",
"Q@	c #4B4849",
"R@	c #391310",
"S@	c #635F5F",
"T@	c #695F60",
"U@	c #827878",
"V@	c #928787",
"W@	c #BEA1A4",
"X@	c #968587",
"Y@	c #7B7273",
"Z@	c #897C7D",
"`@	c #3E0000",
" #	c #8D8082",
".#	c #9B8B8E",
"+#	c #5C5758",
"@#	c #1C0C0B",
"##	c #130000",
"$#	c #715858",
"%#	c #847677",
"&#	c #8A7474",
"*#	c #9C8C8F",
"=#	c #8F8284",
"-#	c #8E8182",
";#	c #8E8081",
">#	c #5F3732",
",#	c #948788",
"'#	c #71423C",
")#	c #92696A",
"!#	c #8C6C69",
"~#	c #995A50",
"{#	c #908485",
"]#	c #A39193",
"^#	c #AF9A9B",
"/#	c #BDA1A3",
"(#	c #A47E80",
"_#	c #8F8384",
":#	c #8C8081",
"<#	c #4E4B4B",
"[#	c #9C7F7B",
"}#	c #B09A9B",
"|#	c #C6A6A9",
"1#	c #C7A7AA",
"2#	c #B19A9C",
"3#	c #D4ACAE",
"4#	c #DCB0B3",
"5#	c #4C0000",
"6#	c #393636",
"7#	c #938587",
"8#	c #A99597",
"9#	c #A47071",
"0#	c #C2A4A7",
"a#	c #CEAAAD",
"b#	c #E7B5B8",
"c#	c #64261D",
"d#	c #0E0301",
"e#	c #5A3A3A",
"f#	c #B89EA0",
"g#	c #B59D9E",
"h#	c #BFA3A5",
"i#	c #656061",
"j#	c #7C7273",
"k#	c #7A7172",
"l#	c #230000",
"m#	c #8A7E7F",
"n#	c #454242",
"o#	c #2D1715",
"p#	c #7D7475",
"q#	c #4B4748",
"r#	c #565354",
"s#	c #70696A",
"t#	c #807677",
"u#	c #171516",
"v#	c #474344",
"w#	c #555151",
"x#	c #605859",
"y#	c #1C1A1A",
"z#	c #2E2B2B",
"A#	c #343131",
"B#	c #050505",
"C#	c #090808",
"D#	c #1F1B1B",
"E#	c #746B6C",
"F#	c #161313",
"G#	c #494646",
"H#	c #6E6768",
"I#	c #6B6364",
"J#	c #726A6B",
"K#	c #2A2727",
"L#	c #4C4949",
"M#	c #454142",
"N#	c #645F60",
"O#	c #696162",
"P#	c #766D6E",
"Q#	c #251E1E",
"R#	c #151111",
"S#	c #5B5556",
"T#	c #6C6667",
"U#	c #161312",
"V#	c #2B2929",
"W#	c #343031",
"X#	c #181414",
"Y#	c #231F1F",
"Z#	c #383535",
"`#	c #665F5F",
" $	c #5C5657",
".$	c #494445",
"+$	c #6D6566",
"@$	c #524E4E",
"#$	c #463838",
"$$	c #040404",
"%$	c #1A1717",
"&$	c #343232",
"*$	c #615D5E",
"=$	c #706A6B",
"-$	c #484343",
";$	c #181717",
">$	c #2B2525",
",$	c #070404",
"'$	c #413E3E",
")$	c #453232",
"!$	c #0F0C0C",
"~$	c #867A7D",
"{$	c #240000",
"]$	c #260000",
"^$	c #271716",
"/$	c #070000",
"($	c #231716",
"_$	c #2D1F1E",
":$	c #282120",
"<$	c #060100",
"[$	c #171212",
"}$	c #050100",
"|$	c #100F0F",
"1$	c #0C0504",
"2$	c #0A0707",
"3$	c #261A19",
"4$	c #372726",
"5$	c #1E1513",
"6$	c #140807",
"7$	c #2A1C1B",
"8$	c #382F2F",
"9$	c #66504E",
"0$	c #2B1A18",
"a$	c #41302F",
"b$	c #332120",
"c$	c #352625",
"d$	c #695553",
"e$	c #53403E",
"f$	c #695856",
"g$	c #392A29",
"h$	c #473534",
"i$	c #554140",
"j$	c #5B4C4B",
"k$	c #211615",
"l$	c #544544",
"m$	c #4F3C3B",
"n$	c #1A1514",
"o$	c #4A3F3E",
"p$	c #331C18",
"q$	c #050202",
"r$	c #1E0D0B",
"                                                        . + . .                                           ",
"                                                    @ # # @ @ $ % &                                       ",
"                                                  @ * & = - ; # > . ,                                     ",
"                                                  # > # ' - # @ > & )                                     ",
"                                                  ! ~ { ' ] ^ / ( _ :                                     ",
"                                                < [ } | # ' 1 2 3 4 5                                     ",
"                                                6 7 8 # 9 0 a b c 5 d                                     ",
"                                          e f ! g h i j k l m n o p :                                     ",
"                                          q r s t u v w 1 1 x y z A %                                     ",
"                                        B B C D E F G H I B J K z L _ M                                   ",
"                                      * N O P Q R S T U @ @ # @ V W X k Y                                 ",
"                                Z p ` p  ...+.+.R + # @ # # ; @.Q #.#.$.X                                 ",
"                                %.p p p &.*.=.+.-.;.>.# ,.'.).!.~.{.].X X                                 ",
"                            ^./.=.(._.:.<.[.}.|.1.2.3.4.5.6.7.8.9.@ 0.$ a.b.                              ",
"                        c.d.e.f.g.h.p p i.j.g.2.k.l.m.n.o.p.q.r.s.t.u.v.> & w.                            ",
"                        x.3 y.z.A.B.p p p C.D.2.E.F.G.H.I.J.K.L.M.N.b O.P.& A                             ",
"                      Q.R.S.T.U.A.V.p p W.X.Y.Z.`. +k..+.+++@+#+$+%+m &+. @ $         A                   ",
"                      *+=+-+;+>+`.,+p '+)+2.E.Z.!+~+X.{+]+^+/+(+5 _+1 :+<+% > a.    w.Y   [+              ",
"                      %+[ }+B.|+1+2+` Z )+E.3+2.4+5+6+7+8+9+0+(+a+b+> c+H % d+A Y : e+  z f+              ",
"                      g+> h+i+j+k+l+Z ` m+E.`.n+o+(+p+1+(+q+r+p+s+t+u+v+> w+& x+& p : :                   ",
"                      M A y+z+A+B+C+D+p p E+F+)+)+G+H+1+(+(+(+(+I+p p J+K+m ^ A A L+p p p                 ",
"                        5 M+N+O+P+Q+X.p p R+S+T+U+V.%.%.)+p+V+(+W+I+p ' & X+Y+> A Z+p p   L               ",
"                        , : W W `+(.X. @.@:.W +@p % _ @@#@_.p p $@%@&@*@p p 6 =@q p p z                   ",
"                          -@p ;@>@,@'@)@)+p p p :.a.z L #@_.p p !@W.p ~@p p : _ _ Z+p p L                 ",
"                          5 p p p a+{@)+]@p p p > a.z L #@_.^@p p p p &@/@p : _ _ (@p p z p               ",
"                            _@:@p <@1+<@p p p % # & _ L : _.p _._.p p a+[@p   V @.w.w.p p L               ",
"                            }@M Z p :.p p p : p p A a.|@p :.p p p p p a+p       p p p p p p               ",
"                            @.1@^@` p p p : 2@p p Z+:.:.p ^@p p p p p a+p         p p p p :               ",
"                            _ 3@4@^@:.p p p p p p p :.:.: p p p p p f+p p           p p : p p             ",
"                            p @.p p _.p p p p p : 5@6@7@: : :.p p p p p 8@          L 9@z 0@p             ",
"                              p p p p p p p p p 5 V V a.a@: : b@p p p p a+            c@d@d+p p           ",
"                                  p p p p p p p L z L L A A 5 5 p p p   (+              e@L V p           ",
"                                    f@d+g@p p Z+h@L L L A s _ _ :.p p   i@              L Z p ` p         ",
"                                    d+. z j@p k@l@L L L _ & m@n@w.p p   N+                L p p :         ",
"                                    o@d+- _ + l@k@L h@V p@_ q@r@s@:.p                       p p p         ",
"                                    . Z t@# # & > L -@: : : [ 1 u@A A                       p 5@L         ",
"                                  A # v@x+$ = w@t@L a.: p V > P.x@y@% Y                     p d z@p       ",
"                                  = # # - # @ . # L 5 : : L r@A@. & -@5                       :.` :.p     ",
"                                A B@C@z p p p a.p D@E@F@G@Y . # w., H@V :                   I@Z J@d p     ",
"                              L _ C@B@& ` L K@L@X.[.M@N@D+O@1@p h+h+P@Q@X p                 R@Z c@x+L     ",
"                              #.h+S@5 : T@U@y.V@W@X@2+Y@2.Z@`@#@2+2+ #.#+#(+                9@@#p ##L p   ",
"                              Q R #._.$#2.%#&#*#*#2+2+=#-#;#>#_.2+;+B.2+(+(+              p p p p p L p   ",
"                              Q *#,#'#)#-#!#~#*#{#2.{#]#^#/#(##@{#_#:#p+(+<#              p p p : ` z@p p ",
"                            [#2.*#*##@}#|#1#1#2#*#}#}#}#3#4#1#5#}#*#*#p+p+6#            p e+    L 6@5@p p ",
"                            l.2.7#8##@9#1#1#1#1#0#}#}#}#a#b#1#c#}#{#{#)+)+(+                      p p p d#",
"                            2.2.2.:##@e#f#1#1#1#g#}#}#}#h#1#1#)#7#2.2.i#)+(+                      p : p z ",
"                        :.$#2.H.j#k#l##@*#*#}#*#{#2+2.m#}#}#*#%.2.:#2+n#a+p+(+                    p z o#_ ",
"                        V.{#p+p#j.i#p 1+:.V.V.)+p+s+(+q#{#{#2.%.i#r#(+a+a+%@                        z _   ",
"                      (+V.{#s#{+t#V.p R+p (+(+(+a+p u#(++#V.2+1+)+v#(+a+a+a+                        z -@  ",
"                      w#V.2.Y@'@x#/@p s+p s+s+s+/@p p y#(+(+(+W+z#s+s+s+%@A#                              ",
"                      V.7.p#{+3+Q B#s+P p s+s+C#p p p p a+a+a+a+s+D#z#a+(+(+                              ",
"                    (+)+v#3+j#E#I+p p F#C#s+s+p     p p a+a+a+a+a+a+6#G#q#(+                              ",
"                    V.V.H#I#E.J#p p p K#s+s+s+      p p (+(+(+(+(+q#L#M#a+a+                              ",
"                  a+2+N#{+O#P#Q#p p /@s+R#B#        p p (+(+p+M#(+(+(+W+a+                                ",
"                  s+2+s#Y@'@S#p p W.s+p p p         R#p (+(+p+p+p+p+p+a+D#                                ",
"                  s+T#S+!+{+U#p V#W#s+X#p             B#s+Y#a+a+Y#s+s+Z#%@                                ",
"                  a+`#3+k# $p <@a+s+s+s+              s+K#a+a+a+Z#(+(+(+A#                                ",
"                  (+x#j#P#)+p (+(+s+C#p               s+a+a+$@%@(+p+%@A#a+                                ",
"                  L#.$+$@$#$&@s+a+a+                  s+(+(+(+p+(+a+a+a+*@                                ",
"                a+2+V.n+p+p p s+8@$$                  a+a+Z#(+(+W+a+a+%$p                                 ",
"                (+)+p+V.&$p a+/@p                       s+s+s+s+a+$@(+p p                                 ",
"              V.T.2+V.,@p p p p                         a+a+a+W+(+(+$@p p                                 ",
"              2+2+2+*$s.W.p p p                         a+a+a+a+a+a+a+p                                   ",
"              {#}#=#=$)+V.~@p                           s+Y#a+a+z#D#s+p                                   ",
"              S@R R ` ` :.p                             s+s+a+Y#s+s+W#~@-$                                ",
"            ;$>$X p ,$p p p                             s+s+'$)+2+2+)$^@d                                 ",
"            p p !$:.p p p :.                            B#s+)+~$T.2+^@^@^@                                ",
"            d p p _ d#p p {$                              a+2+*#2.p p p p p                               ",
"            -@]$a._ L -@:.p                               (+2+}#N+6@` p : p                               ",
"          a.a.p A ^$L , Y &@                              (+2+j X /$6@Z a@p p                             ",
"          ($_$:$: L <$[$p                                 (+#@#.S@N+g@p p ` p                             ",
"          _ _ : a.: }$p p                                 a+1+#.h+|$p 1$a@p p                             ",
"          ($_$% V V p p                                     %.#.Q 2$3$-@-@p p                             ",
"          4$a.: z a@: p                                     )#X : _ _ a.5 Y p                             ",
"          A -@V L : p                                       5$p |@V V 6$5 p p                             ",
"          _ p z L ;@p                                           p p 5@6@: p p                             ",
"        A L : ` p p p                                           : p p p : p p                             ",
"        z 7$> A 8$p                                             : /$5@d#L p p                             ",
"        L > 9$& @.                                                d V z 0$p p                             ",
"        & % & a$w.                                                : a.b$z a@p                             ",
"      c$& d$+ @.w.                                                  a._ _ _ p                             ",
"      & e$+ f$1@M                                                   -@_ $+g$p                             ",
"    > > y@3@@.A a.                                                    $+A h$5                             ",
"    -@a._ A @.A y@                                                    A & i$1@                            ",
"    1@@.j$y@y@_ _                                                     A % % A                             ",
"  a.p k$@.3@@.l$3@                                                    & % m$A 5                           ",
">#, , , a.5 n$o$3@                                                    & % & A V                           ",
"p$: : q$Y Y Y Y M                                                   A h$% & A V                           ",
"  Y Y Y Y Y Y Y p                                                 z r$A A a.a.5                           ",
"                                                                      Y Y Y Y 0                           "};
