/* XPM */
static char * D5_xpm[] = {
"51 91 504 2",
"  	c None",
". 	c #65514E",
"+ 	c #846A66",
"@ 	c #79615E",
"# 	c #6A5551",
"$ 	c #4D3D3B",
"% 	c #664540",
"& 	c #473A3A",
"* 	c #826864",
"= 	c #3C3231",
"- 	c #4F3D3C",
"; 	c #3F3331",
"> 	c #463936",
", 	c #654C49",
"' 	c #6F4540",
") 	c #7E5F5A",
"! 	c #5C4846",
"~ 	c #3C2C2B",
"{ 	c #413332",
"] 	c #453633",
"^ 	c #584542",
"/ 	c #6F5652",
"( 	c #734F4B",
"_ 	c #754F4A",
": 	c #87716A",
"< 	c #4A3837",
"[ 	c #221615",
"} 	c #231C1B",
"| 	c #382F2E",
"1 	c #503E3B",
"2 	c #5F4C49",
"3 	c #6D5551",
"4 	c #7D6561",
"5 	c #3C1D1B",
"6 	c #331715",
"7 	c #281D1C",
"8 	c #020000",
"9 	c #614D4A",
"0 	c #403131",
"a 	c #51403D",
"b 	c #63504D",
"c 	c #6F5754",
"d 	c #836965",
"e 	c #302120",
"f 	c #181211",
"g 	c #4C3C39",
"h 	c #462D2A",
"i 	c #563C38",
"j 	c #664F4C",
"k 	c #4F3331",
"l 	c #584442",
"m 	c #493331",
"n 	c #2B1210",
"o 	c #090000",
"p 	c #1C1615",
"q 	c #E08575",
"r 	c #4B3938",
"s 	c #160502",
"t 	c #27110F",
"u 	c #311816",
"v 	c #301514",
"w 	c #242A2E",
"x 	c #210C0A",
"y 	c #221413",
"z 	c #000000",
"A 	c #100C0B",
"B 	c #232222",
"C 	c #423130",
"D 	c #5B4846",
"E 	c #635D5F",
"F 	c #94888A",
"G 	c #958A8A",
"H 	c #745D5A",
"I 	c #3B2B2A",
"J 	c #2C1E1D",
"K 	c #200B0A",
"L 	c #151A1E",
"M 	c #574442",
"N 	c #0E0301",
"O 	c #070403",
"P 	c #0B0605",
"Q 	c #1D0907",
"R 	c #614D4B",
"S 	c #5D4F4F",
"T 	c #635858",
"U 	c #83797A",
"V 	c #6E6363",
"W 	c #453433",
"X 	c #131A1E",
"Y 	c #2C1D1C",
"Z 	c #0F0201",
"` 	c #020101",
" .	c #140E0D",
"..	c #716D6D",
"+.	c #170E0D",
"@.	c #685957",
"#.	c #675755",
"$.	c #322321",
"%.	c #946F6D",
"&.	c #5D4A49",
"*.	c #8C7D7B",
"=.	c #837A7B",
"-.	c #665654",
";.	c #140807",
">.	c #0F0302",
",.	c #0C0000",
"'.	c #302726",
").	c #090504",
"!.	c #866F70",
"~.	c #846D6C",
"{.	c #755F5C",
"].	c #615D5D",
"^.	c #605B5D",
"/.	c #6A6464",
"(.	c #2E2D2D",
"_.	c #6E6667",
":.	c #7E6462",
"<.	c #080606",
"[.	c #433534",
"}.	c #696464",
"|.	c #635F5F",
"1.	c #180C0B",
"2.	c #050404",
"3.	c #7A6866",
"4.	c #796C6B",
"5.	c #413130",
"6.	c #433839",
"7.	c #585456",
"8.	c #524E50",
"9.	c #514B4C",
"0.	c #494547",
"a.	c #534E4F",
"b.	c #7F7475",
"c.	c #331C18",
"d.	c #110605",
"e.	c #6A6565",
"f.	c #645F60",
"g.	c #271E1E",
"h.	c #0D0101",
"i.	c #010000",
"j.	c #100000",
"k.	c #726D6D",
"l.	c #6C6465",
"m.	c #6A6263",
"n.	c #352E2D",
"o.	c #483635",
"p.	c #846C66",
"q.	c #5C4D4B",
"r.	c #5C5252",
"s.	c #3D3130",
"t.	c #4F4849",
"u.	c #756C6D",
"v.	c #604C4C",
"w.	c #59423E",
"x.	c #362726",
"y.	c #3B3232",
"z.	c #615C5E",
"A.	c #141313",
"B.	c #7A7071",
"C.	c #665F60",
"D.	c #6A6363",
"E.	c #6B6263",
"F.	c #413231",
"G.	c #4E3C3B",
"H.	c #816965",
"I.	c #6A5552",
"J.	c #79625E",
"K.	c #7E6561",
"L.	c #5A4A49",
"M.	c #4D4A4B",
"N.	c #494444",
"O.	c #463838",
"P.	c #353131",
"Q.	c #464345",
"R.	c #120F0D",
"S.	c #7D7374",
"T.	c #665E60",
"U.	c #635A5B",
"V.	c #5B5252",
"W.	c #3C2E2D",
"X.	c #7A635F",
"Y.	c #78615D",
"Z.	c #866E68",
"`.	c #3C393A",
" +	c #484343",
".+	c #222020",
"++	c #333132",
"@+	c #1C1B1B",
"#+	c #050505",
"$+	c #625C5D",
"%+	c #595354",
"&+	c #544D4E",
"*+	c #473F3F",
"=+	c #463837",
"-+	c #7F6964",
";+	c #806A65",
">+	c #7A645F",
",+	c #5A4644",
"'+	c #574847",
")+	c #1C1616",
"!+	c #AC645A",
"~+	c #332A2A",
"{+	c #514B4B",
"]+	c #595455",
"^+	c #423F3F",
"/+	c #4D4140",
"(+	c #4B3A39",
"_+	c #7B6560",
":+	c #816A66",
"<+	c #836D69",
"[+	c #7A6360",
"}+	c #4C3B38",
"|+	c #2F2727",
"1+	c #635F60",
"2+	c #807576",
"3+	c #383535",
"4+	c #4C4141",
"5+	c #4A3938",
"6+	c #78635E",
"7+	c #7B635E",
"8+	c #7B5F5A",
"9+	c #64504D",
"0+	c #503E3C",
"a+	c #171212",
"b+	c #23110D",
"c+	c #5A5555",
"d+	c #777071",
"e+	c #5D4844",
"f+	c #514C4E",
"g+	c #4A4343",
"h+	c #4A3A38",
"i+	c #755F5B",
"j+	c #7A635E",
"k+	c #7B6561",
"l+	c #826B66",
"m+	c #120000",
"n+	c #0B0000",
"o+	c #070000",
"p+	c #585353",
"q+	c #5B514F",
"r+	c #3B3839",
"s+	c #2F2D2D",
"t+	c #463534",
"u+	c #5A433F",
"v+	c #755F5A",
"w+	c #594744",
"x+	c #2A1D1C",
"y+	c #0C0B0B",
"z+	c #100F0F",
"A+	c #270100",
"B+	c #705E5D",
"C+	c #1A0705",
"D+	c #766F70",
"E+	c #433F40",
"F+	c #4A3734",
"G+	c #444243",
"H+	c #443635",
"I+	c #5D4A47",
"J+	c #79645F",
"K+	c #75605C",
"L+	c #5C4946",
"M+	c #201A19",
"N+	c #0B0A0A",
"O+	c #181717",
"P+	c #110E0E",
"Q+	c #272020",
"R+	c #423E3F",
"S+	c #391310",
"T+	c #372524",
"U+	c #190504",
"V+	c #2F1513",
"W+	c #0D0403",
"X+	c #0D0201",
"Y+	c #2F1F1D",
"Z+	c #0D0A09",
"`+	c #554340",
" @	c #6B5B57",
".@	c #5D4D4A",
"+@	c #1C0C0B",
"@@	c #481D1C",
"#@	c #230605",
"$@	c #2C1211",
"%@	c #1E0C0A",
"&@	c #070302",
"*@	c #090808",
"=@	c #0B0201",
"-@	c #5E4844",
";@	c #594542",
">@	c #322728",
",@	c #171515",
"'@	c #2C2929",
")@	c #333030",
"!@	c #1D0100",
"~@	c #0A0000",
"{@	c #050000",
"]@	c #42302E",
"^@	c #594541",
"/@	c #533E3A",
"(@	c #402725",
"_@	c #4C2722",
":@	c #361916",
"<@	c #282524",
"[@	c #1A0908",
"}@	c #080000",
"|@	c #50413E",
"1@	c #362C2A",
"2@	c #261E1D",
"3@	c #3D1C18",
"4@	c #542F2A",
"5@	c #1E1513",
"6@	c #1E0000",
"7@	c #33130A",
"8@	c #0C0707",
"9@	c #534643",
"0@	c #332322",
"a@	c #310807",
"b@	c #592B29",
"c@	c #2E2525",
"d@	c #282626",
"e@	c #201615",
"f@	c #010101",
"g@	c #8A0C00",
"h@	c #52221B",
"i@	c #5B5859",
"j@	c #231F1F",
"k@	c #170B09",
"l@	c #3C1505",
"m@	c #5B0000",
"n@	c #6B0000",
"o@	c #2B2121",
"p@	c #361612",
"q@	c #1A1616",
"r@	c #170B0B",
"s@	c #3C3A3B",
"t@	c #1C1312",
"u@	c #2F2120",
"v@	c #3E0000",
"w@	c #3F2F2E",
"x@	c #3E2E2D",
"y@	c #080201",
"z@	c #7B0600",
"A@	c #3D2D2C",
"B@	c #473534",
"C@	c #554241",
"D@	c #0C0201",
"E@	c #4C0000",
"F@	c #1D0A07",
"G@	c #3F2E2D",
"H@	c #493736",
"I@	c #473635",
"J@	c #705956",
"K@	c #241615",
"L@	c #240E0C",
"M@	c #4E3B3A",
"N@	c #6B5552",
"O@	c #140402",
"P@	c #3A2B2A",
"Q@	c #483634",
"R@	c #685452",
"S@	c #77605D",
"T@	c #443130",
"U@	c #6A5452",
"V@	c #231716",
"W@	c #301D1C",
"X@	c #6E5855",
"Y@	c #78605D",
"Z@	c #7F6662",
"`@	c #462F2D",
" #	c #644A47",
".#	c #422E2B",
"+#	c #453332",
"@#	c #463E3F",
"##	c #7B625E",
"$#	c #262C2F",
"%#	c #655553",
"&#	c #5C4C4B",
"*#	c #130000",
"=#	c #1D0000",
"-#	c #473C3B",
";#	c #776361",
">#	c #42231E",
",#	c #9C8C8F",
"'#	c #B09A9B",
")#	c #9C8B8C",
"!#	c #2C0B09",
"~#	c #C7A7AA",
"{#	c #8A7E7F",
"]#	c #E7B5B8",
"^#	c #908485",
"/#	c #64261D",
"(#	c #AB9496",
"_#	c #290000",
":#	c #AC9798",
"<#	c #A08F92",
"[#	c #877D7E",
"}#	c #837879",
"|#	c #544344",
"1#	c #B3787A",
"2#	c #8C7F81",
"3#	c #7A7273",
"4#	c #6E6869",
"5#	c #605C5D",
"6#	c #715858",
"7#	c #B38B86",
"8#	c #A47E80",
"9#	c #2E0000",
"0#	c #8C8081",
"a#	c #7E7475",
"b#	c #6F6869",
"c#	c #140000",
"d#	c #AE999A",
"e#	c #998A8D",
"f#	c #908384",
"g#	c #413736",
"h#	c #846062",
"i#	c #BFA3A5",
"j#	c #92696A",
"k#	c #9E8D90",
"l#	c #A99597",
"m#	c #938587",
"n#	c #0A0808",
"o#	c #9B8C8D",
"p#	c #948788",
"q#	c #B89EA0",
"r#	c #857A7B",
"s#	c #97888A",
"t#	c #6A6465",
"u#	c #4F4C4C",
"v#	c #786F70",
"w#	c #726B6C",
"x#	c #2E2B2B",
"y#	c #524E4F",
"z#	c #3D3A3A",
"A#	c #454142",
"B#	c #422C29",
"C#	c #1F1B1B",
"D#	c #0C0A09",
"E#	c #4B4748",
"F#	c #3D393A",
"G#	c #4C4949",
"H#	c #2A1516",
"I#	c #363333",
"J#	c #161313",
"K#	c #171516",
"L#	c #524F4F",
"M#	c #585556",
"N#	c #151111",
"O#	c #474344",
"P#	c #565354",
"Q#	c #2B2929",
"R#	c #282424",
"S#	c #2A2727",
"T#	c #343031",
"U#	c #181414",
"V#	c #3C3939",
"W#	c #524F50",
"X#	c #413D3E",
"Y#	c #312E2E",
"Z#	c #240000",
"`#	c #150F0F",
" $	c #3E3A3C",
".$	c #342524",
"+$	c #4E4A4C",
"@$	c #101010",
"#$	c #382827",
"$$	c #0E0C0A",
"%$	c #2B2525",
"&$	c #201312",
"*$	c #211C1C",
"=$	c #170000",
"-$	c #100807",
";$	c #100404",
">$	c #060404",
",$	c #373131",
"'$	c #180000",
")$	c #372928",
"!$	c #0E0909",
"~$	c #080404",
"{$	c #555153",
"]$	c #160909",
"^$	c #1A0E0D",
"/$	c #140E0C",
"($	c #201413",
"_$	c #1F1312",
":$	c #1B1212",
"<$	c #090404",
"[$	c #18110F",
"}$	c #090101",
"|$	c #554140",
"1$	c #231B18",
"2$	c #413433",
"3$	c #574746",
"4$	c #272120",
"5$	c #5A4B4A",
"6$	c #625250",
"7$	c #463433",
"8$	c #0C0604",
"9$	c #372927",
"0$	c #201411",
"a$	c #22120E",
"b$	c #322523",
"c$	c #41302F",
"d$	c #392A29",
"e$	c #221311",
"                                                              . + @                                   ",
"                                                        # $ % & * + . . =                             ",
"                                                      - ; > , ' ) ) . ! ~                             ",
"                                                      { ] ^ / ( _ : < < [ }                           ",
"                                                      | 1 2 3 4 5 6 . 7 8 }                           ",
"                                                    9 0 a b c d 5 + e 8 8 f                           ",
"                                                    g h i j + k l m n o 8 p                           ",
"                                        q r s < e t u v w . x n x n y z A 8                           ",
"                                B z C D E F G H H I J K L M s s e N z O P }                           ",
"                                Q n l R S T U V H . W X e Y Z s e z ` P  .                            ",
"                            ..l n +.@.#.$.%.&.*.=.-.~ ~ ;.>.,.z '.z ).A }                             ",
"                          !.~.{...].^./.(._.:.<.[.}.|.e ,.1.,.z f z f }                               ",
"                        2.3.4.5.6.7.8.9.0.a.b.c.d.e.f.g.;.>.h.i.z z f                                 ",
"                      j.k.l.m.n.o.p.q.r.s.t.u.v.w.x.y.z.A.i.P P z z                                   ",
"                      B.C.D.E.F.G.H.I.J.K.L.M.N.O.z ,.P.Q.z ` P z                                     ",
"                    R.S.T.U.V.W.X.X.Y.+ Z.+ `. +.+z 8 z ++@+z z                                       ",
"                    #+$+%+&+*+=+X.-+;+>+,+l '+)+z 8 z z z ..                                        !+",
"                  z ~+{+]+^+/+(+_+:+<+[+}+z } z z z z z z B                             6         |+z ",
"                  R.1+2+B.3+4+5+6+7+8+9+0+,.a+z z b+z z z @+                            ~       . z x ",
"                  i.c+d+e+f+g+h+i+j+k+l+}+< z z z z z z z i.                            z z m+6 n+o+z ",
"                  O.p+q+w.r+s+t+u+v+:+w+x+'.y+z+z z z z z z                           A+B+B+n+6 C+x z ",
"                  D+E+O.F+r+G+H+I+J+K+L+z M+N+O+P+z z z z Q+R+                        S+,.T+U+V+x W+X+",
"                  O+z a+Y+s z Z+`+ @.@-.+@z z z R.z z z z R+                      @@S+#@n+m+$@%@&@    ",
"                  *@z z s =@z z 9 -@;@M . 6 ,.@+>@z z ,@'@)@                  A+!@n+m+~@8 8 z z       ",
"                  z z z [ {@z z ]@^@/@(@5 _@:@z >@z z <@R.)@                z [@n+{@o i.z z z         ",
"                    z }@e ,.z z }@|@1@2@3@4@_@z z z z R+N+)@5@i.6@7@7@z z z z z ,.z z z               ",
"                    z }@l s z z z 8@9@0@x a@b@j.c@z z z d@)@z z z i.i.z z z z z z                     ",
"                    z z e@}@z z z z f@z z S+g@h@i@z )@z )@j@z i.b+k@z z z z                           ",
"                      X+z z z z z z z z z l@m@n@o@z o@R+)@i.i.z z z                                   ",
"                      z z i.,.,.,.N z z p@h@b+h@b+z q@P+z z z z                                       ",
"                      z z 8 ;.,.r@[ i.z A+x b+7@6@o@s@z z c.z t@                                      ",
"                      z z s s ~ [ u@~ ,.{@{@z m@v@R+z z z 5@                                          ",
"                      8 z s s ~ w@x@x@5.X+s y@z@h@R.z                                                 ",
"                    z ~ {@s s e A@C B@C@,.D@s n E@5@z                                                 ",
"                    z < n+s s F@G@H@I@J@K@,.z n L@k@z                                                 ",
"                      M@N@s ,.O@P@Q@R@S@'+[ ~ n n z 6@                                                ",
"                    n T@U@V@,.,.W@X@J@Y@Z@. l n n i.z                                                 ",
"                  H 6 `@ #.#z z +#@#>+##@ . < s z 6@6@                                                ",
"                  ,.x < e 8 z z < $#Z.l %#&#e s z *#=#                                                ",
"                  z X+,.f =.z z l -#~ < ;#%#e x v@>#j.                                                ",
"                h@,#'#)#D+D+!#v@'#~#,#{#'#~#]#^#/#j.j.z )@                                            ",
"              >@i@^#^#D+D+(#v@_#D+D+'#:#<#[#D+}#h@6@i.o@R+                                            ",
"              |#D+1#,#D+D+'#h@6@}#}#,#,#2#3#4#5#c.7@j.5@)@                                            ",
"              6#,#7#'#^#^#~#8#9#'#'#'#'#0#}#a#b#b+9#c#z )@                                            ",
"              }#'#~#~#,#,#~#~#/#~#d#<#e#^#,#f#}#g#h@z i.q@                                            ",
"              h#'#i#i#'#,#~#]#j#:#k#,#^#'#l#m#}#}#h@z n#q@                                            ",
"              b+o#'#'#<#p#q#~#,#,#,#'#e#^#^#}#r#s#7@j.q@q@                                            ",
"              )@>@}#U t#u#v#0#p#,#p#w#t#t#t#}#s#p#|#6@q@q@x#                                          ",
"              )@o@u#t#y#z#c+}#}#}#}#t#t#i@t#D+u#A#B#i.q@q@q@                                          ",
"                R.q@q@)@C#z D#R+E#i@u#R+F#)@R+u#G#R+H#3+R+I#                                          ",
"                  J#*@q@q@z z K#R+R+q@q@)@)@R+L#M#R+R+R+R+R+                                          ",
"                  N#z N#q@z z z .+)@q@q@)@3+O#i@P#R+R+R+R+R+                                          ",
"                  z z #+q@*@z z z Q#R+R+R+R+P#P#A#u#u#R+R+R+z                                         ",
"                  d@z z q@q@q@q@z z u#u#u#u#u#R+u#A#R+R+R+R#q@                                        ",
"                  q@z z q@q@*@z z z u#u#G#R+G#G#A#)@)@o@)@q@q@                                        ",
"                  )@z Q#S#q@#+z z z Q#R+R+R+T#R#R#R+>@z z *@q@z                                       ",
"                  )@z q@)@q@U##+z z *@q@q@q@q@V#u#u#R.z z z )@z                                       ",
"                  R+z q@z q@q@q@q@q@q@q@q@S#R+u#G#A#D#z z z )@z                                       ",
"                    x#q@q@C#)@q@z N#)@q@T#W#i@R+R+R+z z z z q@                                        ",
"                    q@#+)@x#q@q@z z )@z R+R+R+E#u#)@z z z z q@                                        ",
"                      z q@)@x#P+z z N#  3+R+R+E#u#)@z z z z P+                                        ",
"                      z )@N+z z z z z     q@q@R+R+o@z z z z z z                                       ",
"                  i@R+z z z z z #+N#        R+X#I#j@z z z z P+q@                                      ",
"                  }#u#u#R+z z P+q@q@          )@)@.+z z z *@q@q@                                      ",
"                  h#6#z z z o@)@R+R.          Y#C#z z P+q@q@q@q@                                      ",
"                D+9#E@i.z z z )@z             q@T#t#>#v@c.t#T#q@                                      ",
"              O.R+b+z i.z z z )@z             t#}#6@6@Z#j.|#u#)@                                      ",
"            z `#~ 1.6@v@9#n+z z                $z z _#j.9#9#t#)@                                      ",
"            {@~ .$e e c.6@i.z z             +$@$n+z z j.m@c.u#q@                                      ",
"            [ #$e #$~ b+j.i.z $$            %$o+n+i.z j.6@6@R+z                                       ",
"            ,.K@&$'+e k@z z z             ..*$n+=$-$z n+c#6@R.                                        ",
"          8 ~@;$1.i.z >$5@z               |.,$z 8 z n+'$i.z                                           ",
"          )$!$1.~$2.f 5@5@              |.{$N+1.e -$z _#c#z                                           ",
"          ]$#$e '.f 2.5@                r+X+~ [ ^$1.8 /$z z                                           ",
"        z s e &$8 z D#                  z e e 1.($f z z z z                                           ",
"        e n _$1.a+>$5@                  z :$e [ [ i.z z z                                             ",
"        s s 1.<$z [$5@                    z }@1.}$z z z                                               ",
"      < |$'+z z z 1$                      z z z z z z                                                 ",
"      e < -#z z z                         z s z z z z                                                 ",
"    < < 2$f O z                           [ ~ z z z z                                                 ",
"    l l = '.P z                           [ l X+z z                                                   ",
"  l l < = '.8 z                           C l z z z                                                   ",
"  3$l l e e 4$z                           l l }$z                                                     ",
"5$6$< . '+[ z 8 b+                        l 7$1.z                                                     ",
"%#;#< ~ 1.[ z 8$b+                      < l 7$1.z                                                     ",
"X+1.B+B+e 8 f b+c.9$                    . 9 l e z                                                     ",
"P  .-#'+-#1.z 0$b+5@a$                  < < ~ e 1.8                                                   ",
"P P P P f f 9$9$9$b$5@                  < W ~ [ X+[ [                                                 ",
"    P P                               < c$d$0@1.8 e ~ x                                               ",
"                                      e e e e [ [ s s e$x x                                           ",
"                                      P } } f X+X+X+X+8 8 8 =                                         "};
