/* XPM */
static char * D6_xpm[] = {
"53 90 517 2",
"  	c None",
". 	c #745D5A",
"+ 	c #705E5D",
"@ 	c #4A3837",
"# 	c #584442",
"$ 	c #866E68",
"% 	c #846B66",
"& 	c #846A66",
"* 	c #302726",
"= 	c #65514E",
"- 	c #79615E",
"; 	c #754F4A",
"> 	c #87716A",
", 	c #79625E",
"' 	c #512D27",
") 	c #252B2E",
"! 	c #020000",
"~ 	c #302120",
"{ 	c #432C2A",
"] 	c #725C59",
"^ 	c #6F5956",
"/ 	c #5A4340",
"( 	c #594C4B",
"_ 	c #7F6762",
": 	c #5D4947",
"< 	c #0D0201",
"[ 	c #040100",
"} 	c #5F4B49",
"| 	c #5A4542",
"1 	c #634F4C",
"2 	c #39383A",
"3 	c #765F5C",
"4 	c #604C4A",
"5 	c #6A4643",
"6 	c #040000",
"7 	c #2D1B18",
"8 	c #66524F",
"9 	c #644F4C",
"0 	c #372927",
"a 	c #67514E",
"b 	c #735C59",
"c 	c #6D5855",
"d 	c #685350",
"e 	c #000000",
"f 	c #060505",
"g 	c #5F4C49",
"h 	c #64504D",
"i 	c #483835",
"j 	c #292626",
"k 	c #837A7B",
"l 	c #676263",
"m 	c #4D4040",
"n 	c #5E4B48",
"o 	c #695451",
"p 	c #836E68",
"q 	c #3C2C2B",
"r 	c #210C0A",
"s 	c #4A3330",
"t 	c #5F4B48",
"u 	c #564745",
"v 	c #625251",
"w 	c #564848",
"x 	c #433332",
"y 	c #453433",
"z 	c #4D3C3A",
"A 	c #4E3C3A",
"B 	c #181211",
"C 	c #160502",
"D 	c #2E1513",
"E 	c #331B18",
"F 	c #54413F",
"G 	c #4D3B3A",
"H 	c #5C4946",
"I 	c #413332",
"J 	c #4E4140",
"K 	c #5B4D4D",
"L 	c #403333",
"M 	c #513F3E",
"N 	c #0B0605",
"O 	c #444243",
"P 	c #211C1C",
"Q 	c #0C0000",
"R 	c #68534F",
"S 	c #584543",
"T 	c #887A7D",
"U 	c #595557",
"V 	c #3B3839",
"W 	c #020202",
"X 	c #33211E",
"Y 	c #39211F",
"Z 	c #3E3B3C",
"` 	c #4E4A4C",
" .	c #473C3B",
"..	c #968B8B",
"+.	c #706465",
"@.	c #0A0909",
"#.	c #050000",
"$.	c #0B0000",
"%.	c #4A4445",
"&.	c #544C4D",
"*.	c #524B4C",
"=.	c #8A7F7F",
"-.	c #918686",
";.	c #594C4C",
">.	c #5C4C4A",
",.	c #846C69",
"'.	c #454547",
").	c #7B7374",
"!.	c #83797A",
"~.	c #8E8383",
"{.	c #242121",
"].	c #604C4C",
"^.	c #0C0B0B",
"/.	c #221615",
"(.	c #866F6D",
"_.	c #403837",
":.	c #403736",
"<.	c #504B4C",
"[.	c #635B5C",
"}.	c #554F50",
"|.	c #6B6465",
"1.	c #8B7878",
"2.	c #837879",
"3.	c #8C7F80",
"4.	c #787172",
"5.	c #918284",
"6.	c #85797A",
"7.	c #1B1819",
"8.	c #010000",
"9.	c #1E0000",
"0.	c #776F70",
"a.	c #662B23",
"b.	c #918687",
"c.	c #231C1B",
"d.	c #7A635E",
"e.	c #6C5552",
"f.	c #695350",
"g.	c #403839",
"h.	c #3F3535",
"i.	c #3C393A",
"j.	c #746D6E",
"k.	c #635D5D",
"l.	c #5B514F",
"m.	c #6A605F",
"n.	c #8D8182",
"o.	c #817778",
"p.	c #7C7374",
"q.	c #807576",
"r.	c #191717",
"s.	c #887D7E",
"t.	c #6C5051",
"u.	c #8C8181",
"v.	c #614D4A",
"w.	c #483635",
"x.	c #6A5552",
"y.	c #715A57",
"z.	c #614D4B",
"A.	c #423A3B",
"B.	c #2D2827",
"C.	c #171414",
"D.	c #776C6D",
"E.	c #635C5D",
"F.	c #736B6C",
"G.	c #706869",
"H.	c #6B6162",
"I.	c #817677",
"J.	c #7C7172",
"K.	c #7E7374",
"L.	c #877C7D",
"M.	c #857A7B",
"N.	c #786566",
"O.	c #897E7F",
"P.	c #574543",
"Q.	c #765F5B",
"R.	c #5A4744",
"S.	c #312221",
"T.	c #1A1818",
"U.	c #7F7273",
"V.	c #9C898B",
"W.	c #887C7D",
"X.	c #7D7273",
"Y.	c #7A7071",
"Z.	c #796F70",
"`.	c #7A7070",
" +	c #827778",
".+	c #222020",
"++	c #6A6465",
"@+	c #7C6767",
"#+	c #7F7576",
"$+	c #6A5451",
"%+	c #513F3D",
"&+	c #715B58",
"*+	c #862C1D",
"=+	c #3F2F2E",
"-+	c #5F4E4B",
";+	c #604D4A",
">+	c #423E3F",
",+	c #9E8B8D",
"'+	c #BB9EA0",
")+	c #A08B8E",
"!+	c #7E7475",
"~+	c #797071",
"{+	c #746C6D",
"]+	c #5B5859",
"^+	c #140000",
"/+	c #726B6C",
"(+	c #514445",
"_+	c #7F7677",
":+	c #76605F",
"<+	c #554240",
"[+	c #614C4A",
"}+	c #23110D",
"|+	c #090504",
"1+	c #2B1210",
"2+	c #604E4B",
"3+	c #604C49",
"4+	c #333030",
"5+	c #A89193",
"6+	c #B89C9F",
"7+	c #7E7273",
"8+	c #685F5E",
"9+	c #6D5F60",
"0+	c #6E6667",
"a+	c #706768",
"b+	c #7B7172",
"c+	c #766F70",
"d+	c #544344",
"e+	c #352B2A",
"f+	c #7C6E6D",
"g+	c #331715",
"h+	c #76615C",
"i+	c #5B4B49",
"j+	c #443734",
"k+	c #12100F",
"l+	c #1A1616",
"m+	c #4F4C4C",
"n+	c #857678",
"o+	c #625859",
"p+	c #464243",
"q+	c #605C5D",
"r+	c #0C0A09",
"s+	c #594F4D",
"t+	c #624E4D",
"u+	c #725D5C",
"v+	c #665E5F",
"w+	c #716D6D",
"x+	c #523F3D",
"y+	c #3A2D2B",
"z+	c #624E4B",
"A+	c #463F3E",
"B+	c #0E0D0D",
"C+	c #59423E",
"D+	c #343130",
"E+	c #766E6F",
"F+	c #565051",
"G+	c #867A7B",
"H+	c #482B27",
"I+	c #685855",
"J+	c #521312",
"K+	c #1C1B1B",
"L+	c #433E3E",
"M+	c #201615",
"N+	c #66524E",
"O+	c #5E4A47",
"P+	c #3D393A",
"Q+	c #282424",
"R+	c #5A5251",
"S+	c #5F5B5C",
"T+	c #776E6F",
"U+	c #322728",
"V+	c #766767",
"W+	c #5E4844",
"X+	c #45100F",
"Y+	c #2E2D2D",
"Z+	c #4E4343",
"`+	c #5A4845",
" @	c #0B0A0A",
".@	c #120F0D",
"+@	c #3F3B3C",
"@@	c #363333",
"#@	c #2E0000",
"$@	c #42201B",
"%@	c #070707",
"&@	c #332C2B",
"*@	c #635F60",
"=@	c #6B4D48",
"-@	c #2B2121",
";@	c #171515",
">@	c #595454",
",@	c #7D7374",
"'@	c #353131",
")@	c #4A3734",
"!@	c #070403",
"~@	c #180C0B",
"{@	c #382C2B",
"]@	c #110E0E",
"^@	c #100000",
"/@	c #2E2C2D",
"(@	c #5E5A5B",
"_@	c #1A1817",
":@	c #1C1616",
"<@	c #050404",
"[@	c #130E0D",
"}@	c #080000",
"|@	c #2B1E1D",
"1@	c #0C0909",
"2@	c #3C3231",
"3@	c #060000",
"4@	c #574847",
"5@	c #160807",
"6@	c #3D1C18",
"7@	c #282626",
"8@	c #170E0E",
"9@	c #090000",
"0@	c #030000",
"a@	c #2E0605",
"b@	c #270100",
"c@	c #100C0B",
"d@	c #100807",
"e@	c #230200",
"f@	c #232222",
"g@	c #0F0201",
"h@	c #160E0E",
"i@	c #382725",
"j@	c #433331",
"k@	c #473634",
"l@	c #1B0C0B",
"m@	c #1E0C0A",
"n@	c #271D1C",
"o@	c #392928",
"p@	c #594543",
"q@	c #4A3937",
"r@	c #201312",
"s@	c #4F3937",
"t@	c #503D3C",
"u@	c #3C1D1B",
"v@	c #100301",
"w@	c #655553",
"x@	c #685451",
"y@	c #4C2722",
"z@	c #55413F",
"A@	c #7D6460",
"B@	c #1B0100",
"C@	c #1D0000",
"D@	c #5C5051",
"E@	c #666162",
"F@	c #857575",
"G@	c #685E5F",
"H@	c #3E3636",
"I@	c #311B19",
"J@	c #362322",
"K@	c #391310",
"L@	c #4B4849",
"M@	c #6A6364",
"N@	c #635555",
"O@	c #867B7C",
"P@	c #8D7F80",
"Q@	c #6E6566",
"R@	c #332E2E",
"S@	c #130000",
"T@	c #1C0C0B",
"U@	c #5C5758",
"V@	c #9B8B8E",
"W@	c #8D8082",
"X@	c #3E0000",
"Y@	c #897C7D",
"Z@	c #7B7273",
"`@	c #968587",
" #	c #BEA1A4",
".#	c #928787",
"+#	c #827878",
"@#	c #695F60",
"##	c #635F5F",
"$#	c #5F3732",
"%#	c #8E8081",
"&#	c #8E8182",
"*#	c #8F8284",
"=#	c #9C8C8F",
"-#	c #8A7474",
";#	c #847677",
">#	c #715858",
",#	c #4E4B4B",
"'#	c #8C8081",
")#	c #8F8384",
"!#	c #908485",
"~#	c #A47E80",
"{#	c #BDA1A3",
"]#	c #AF9A9B",
"^#	c #A39193",
"/#	c #995A50",
"(#	c #8C6C69",
"_#	c #92696A",
":#	c #71423C",
"<#	c #948788",
"[#	c #393636",
"}#	c #B09A9B",
"|#	c #4C0000",
"1#	c #C7A7AA",
"2#	c #DCB0B3",
"3#	c #D4ACAE",
"4#	c #B19A9C",
"5#	c #C6A6A9",
"6#	c #9C7F7B",
"7#	c #0E0301",
"8#	c #64261D",
"9#	c #E7B5B8",
"0#	c #CEAAAD",
"a#	c #C2A4A7",
"b#	c #A47071",
"c#	c #A99597",
"d#	c #938587",
"e#	c #656061",
"f#	c #BFA3A5",
"g#	c #B59D9E",
"h#	c #B89EA0",
"i#	c #5A3A3A",
"j#	c #2D1715",
"k#	c #454242",
"l#	c #8A7E7F",
"m#	c #230000",
"n#	c #7A7172",
"o#	c #7C7273",
"p#	c #565354",
"q#	c #4B4748",
"r#	c #7D7475",
"s#	c #474344",
"t#	c #171516",
"u#	c #807677",
"v#	c #70696A",
"w#	c #343131",
"x#	c #2E2B2B",
"y#	c #1C1A1A",
"z#	c #605859",
"A#	c #555151",
"B#	c #1F1B1B",
"C#	c #090808",
"D#	c #050505",
"E#	c #494646",
"F#	c #161313",
"G#	c #746B6C",
"H#	c #454142",
"I#	c #4C4949",
"J#	c #2A2727",
"K#	c #726A6B",
"L#	c #6B6364",
"M#	c #6E6768",
"N#	c #151111",
"O#	c #251E1E",
"P#	c #766D6E",
"Q#	c #696162",
"R#	c #645F60",
"S#	c #5B5556",
"T#	c #383535",
"U#	c #231F1F",
"V#	c #181414",
"W#	c #343031",
"X#	c #2B2929",
"Y#	c #161312",
"Z#	c #6C6667",
"`#	c #5C5657",
" $	c #665F5F",
".$	c #463838",
"+$	c #524E4E",
"@$	c #6D6566",
"#$	c #494445",
"$$	c #1A1717",
"%$	c #040404",
"&$	c #343232",
"*$	c #615D5E",
"=$	c #706A6B",
"-$	c #484343",
";$	c #453232",
">$	c #413E3E",
",$	c #070404",
"'$	c #2B2525",
")$	c #181717",
"!$	c #867A7D",
"~$	c #0F0C0C",
"{$	c #240000",
"]$	c #260000",
"^$	c #070000",
"/$	c #271716",
"($	c #171212",
"_$	c #060100",
":$	c #282120",
"<$	c #2D1F1E",
"[$	c #231716",
"}$	c #0C0504",
"|$	c #100F0F",
"1$	c #050100",
"2$	c #261A19",
"3$	c #0A0707",
"4$	c #372726",
"5$	c #140807",
"6$	c #1E1513",
"7$	c #382F2F",
"8$	c #2A1C1B",
"9$	c #2B1A18",
"0$	c #66504E",
"a$	c #332120",
"b$	c #41302F",
"c$	c #695553",
"d$	c #352625",
"e$	c #392A29",
"f$	c #695856",
"g$	c #53403E",
"h$	c #473534",
"i$	c #554140",
"j$	c #5B4C4B",
"k$	c #4F3C3B",
"l$	c #544544",
"m$	c #211615",
"n$	c #4A3F3E",
"o$	c #1A1514",
"p$	c #050202",
"q$	c #331C18",
"r$	c #1E0D0B",
"                                          . . + .                                                         ",
"                                      @ # $ % % & & %                                                     ",
"                                    * . = & - ; > @ , %                                                   ",
"                                    ' @ = % & ; ) & = &                                                   ",
"                                    ! ~ { ] ^ / ) ( _ :                                                   ",
"                                    < [ } | 1 ) & 2 3 4 5                                                 ",
"                                    6 < 7 8 9 0 a & b c d                                                 ",
"                                    ! e f g h i j k l m n : o p                                           ",
"                                    # q r s t 1 1 u v w x y z A                                           ",
"                                  B ~ C r D E F G H I J K L M F F                                         ",
"                                N j O P Q % & % % R S T U V W X Y ,                                       ",
"                                O Z ` ` V  .- & & % & + U ....+.@.e #.e $.                                ",
"                                O O %.&.*.=.-.;.>.& ,.'.)...!.~.{.e e e ].                                ",
"                              ^./.$ (.% _.:.<.[.}.|.1.2.3.4.5.6.7.8.9.0.!.a.b.                            ",
"                            c.@ = d.e.f.g.h.i.j.k.l.m.n.o.2.p.q.r.e e s.p.t.u.v.w.                        ",
"                            q @ x.y.8 z.A.B.C.D.E.F.G.H.I.2.J.K.e e e L.M.N.O.} P.                        ",
"                  q         $ % . Q.h R.S.T.U.V.W.W.o.X.Y.Z.`. +.+e e ++M.@+#+$+%+&+                      ",
"              *+  N c.    /.= # =+-+1 ;+< >+,+'+)+!+ +~+{+Z.I.2.]+^+e /+Y.(+_+:+<+[+                      ",
"              }+r   |+! N q 1+# H 2+= 3+4+>+5+6+7+8+9+0+a+2.b+I.]+$.#.c+d+e+L.f+4 R.                      ",
"                  ! ! e @ g+@ h+= i+j+k+l+m+n+o+>+d+m+>+p+q+Y.I.r+#.$.s+t+u+v+w+= x+                      ",
"                e e e y+q q ^ h z+A+e e B+>+>+>+>+d+C+D+]+]+E+F+e e G+H+I+J+K+L+q B                       ",
"              C   e e M+q = N+O+@ ) e B+P+>+Q+m+]+].].++R+S+T+U+e e  +V+W+X+Y+Z+<                         ",
"                  r e e A `+d e e  @.@+@@@e e 9.#@$@~ # e %@P 8.&@*@ +0.=@P P ! *                         ",
"                C e e M+~ ~ ! e e -@e .+;@e e 9.#@C r /.8.e e e ]+>@,@'@)@!@e ~@                          ",
"              e r e e {@~ ~ ! e ]@.@e e e e ^@9.#@C r /.= e e e /@]+(@4+e e e <                           ",
"              C e e c.c. .Q   e _@4+e e 9.9.e 9.! C ~ @ & # e e e :@d+:@e <@[@                            ",
"              e e e e e e       e 4+e e e e e 8.e }@/.q e e ! e e e 8.e $.B |@                            ",
"              ! e e e e         e 4+e e e e e ^@e 8.8.M+e e 1@! e e e #.^@2@ .                            ",
"            e e ! e e           e e }+e e e e e ! 8.8.e e e e e e e 8.^@3@4@~                             ",
"            e 5@r 6@C           7@e e e e e 8.! ! 8@9@0@! e e e e e 9.e e  .e                             ",
"          e e 1+a@b@            4+e e e e c@! ! d@/.Q Q < e e e e e e e e e                               ",
"          e Q C e@              >+  e e e < < q q C C r C e e e e e e e                                   ",
"        e #.e $.C               f@  e e 8.~ ~ y q C C C g@M+e e h@1+i@                                    ",
"        ! e e C                 Y+  e e c.j@k@@ ~ C C C l@m@e n@r . 1+                                    ",
"        e e e                       e 8.o@p@q@~ r@Q g@C m@l@+ ~ ; 1+s@                                    ",
"        C 0@e                       q q t@1 4 ! ! ! ~@C = @ & & u@$..                                     ",
"      e v@6 e                     N # w@x@x.= Q e ! /.C u@y@> $ g+z@& q                                   ",
"    e 8.#.8.                      < ~@@ . A@p@C ! ! < C & . % & ; & & >                                   ",
"    e 6 B@$.C@                  ! Q D@* c.& . N E@F@G@H@e /.e e e r I@J@q                                 ",
"    C g+b@$.K@                e O L@M@w+w+e 2@N@G+O@P@6. +Q@R@C #.@ J@I@~ C                               ",
"  e C S@e T@6@                >+U@V@W@c+c+#@X@Y@2.Z@c+`@ #.#O.+#@#! < ##w+`                               ",
"  e C e e e e e               >+>+c+L._+c+9.$#%#&#*#c+c+=#=#-#;#2.>#9.` U V                               ",
"e e v@#.! e e e               ,#>+m+'#)#!##@~#{#]#^#!#2.!#=#/#(#&#_#:#<#=#V                               ",
"e e 0@9@C     |+e             [#m+m+=#=#}#|#1#2#3#}#}#}#=#4#1#1#5#}##@=#=#2.6#                            ",
"7#e e e                       >+]+]+!#!#}#8#1#9#0#}#}#}#a#1#1#1#1#b##@c#d#2.n.                            ",
"r e ! e                       >+]+e#2.2.d#_#1#1#f#}#}#}#g#1#1#1#h#i##@'#2.2.2.                            ",
"~ j#r e                     >+m+4+k#c+'#2.].=#}#}#l#2.c+!#=#}#=#=##@m#n#o#F.2.>#8.                        ",
"  ~ r                         +@4+4+>+p#e#].2.!#!#q#>+l+m+]+++++8.d+e e#q.r#m+!#++                        ",
"  ~@r                         4+4+4+>+s#]+d+c+++U@>+t#e 4+>+>+>+e U+e ++u#!+v#!#++>+                      ",
"                              w#+@l+l+l+x#P+>+>+>+y#e e ]@l+l+l+e l+e ]@z#,@Z@2.++A#                      ",
"                              >+>+4+x#B#l+4+4+4+4+e e e e C#l+l+e W l+D#V b+!+r#<.++                      ",
"                              >+q#E#[#4+4+4+4+4+4+e e     e l+l+C#F#e e B+G#o#b+s#]+>+                    ",
"                              4+4+H#I#q#>+>+>+>+>+e e       l+l+l+J#e e e K#I.L#M#++++                    ",
"                                4+P+>+>+>+H#m+>+>+e e         D#N#l+]@e e O#P#Q#!+R#c+4+                  ",
"                                B#4+m+m+m+m+m+>+>+e N#        e e e l+.+e e S#,@Z@v#c+l+                  ",
"                                +@T#l+l+U#4+4+U#l+D#            e V#l+W#X#e Y#!+{+T+Z#l+                  ",
"                                w#>+>+>+T#4+4+4+J#l+              l+l+l+4+:@e `#n#b+ $4+                  ",
"                                4+w#+@m+>++@@@4+4+l+              e C#l+>+>+e ]+P#o#z#>+                  ",
"                                 @4+4+4+>+m+>+>+>+l+                  4+4+l+.@.$+$@$#$I#                  ",
"                                e $$4+4+P+>+>+T#4+4+                  %$7@l+e e m+q+++c+4+                ",
"                                e e >+@@4+l+l+l+l+                      e ]@4+e &$++m+]+>+                ",
"                                e e @@>+>+P+4+4+4+                        e e e e '@++c+#+++              ",
"                                  e 4+4+4+4+4+4+4+                        e e e .+g.*$c+c+c+              ",
"                                  e l+B#x#4+4+U#l+                          e -@++]+=$*#}#!#              ",
"                                -$-@W#l+l+U#4+l+l+                            e 8.#.#.U U ##              ",
"                                6 ^@;$c+c+]+>$l+l+                            e e e ,$e O '$)$            ",
"                                ^@^@^@c+#+!$]+l+D#                            8.e e e 8.~$e e             ",
"                              e e e e e 2.=#c+4+                              {$e e 7#~ e e 6             ",
"                              e ! e #.9@Y+}#c+>+                              e 8.~@C ~ /.]$~@            ",
"                            e e d@$.9@^$O k c+>+                              .@N * C /$q e /./.          ",
"                            e #.e e h@Y+##` #@>+                                e ($_$C ! :$<$[$          ",
"                            e e d@}$e |$w+` d+4+                                e e 1$! /.! ~ ~           ",
"                            e e ~@~@2$3$V ` ].                                    e e Q Q # <$[$          ",
"                            e N < /.~ ~ ! O _#                                    e ! d@r ! /.4$          ",
"                            e e < 5$Q Q }@e 6$                                      e ! C Q ~@q           ",
"                            e e ! 9@0@e e                                           e !@C r e ~           ",
"                            e e ! e e e !                                           e e e #.! C q         ",
"                            e e C 7#0@^$!                                             e 7$q = 8$r         ",
"                            e e 9$r Q 6                                                  .@ 0$= C         ",
"                            e d@r a$/.!                                                 c.b$@ # @         ",
"                            e ~ ~ ~ /.                                                  c. .+ c$@ d$      ",
"                            e e$S.~ ~@                                                  B 2@f$+ g$@       ",
"                            < h$q S.                                                    /.q  .4@w@= =     ",
"                            2@i$@ q                                                     w@q  .q ~ /.~@    ",
"                            q # # q                                                     ~ ~ w@w@j$ .2@    ",
"                          < q k$# @                                                     4@l$ .4@ .m$e /.  ",
"                          Q q @ # @                                                     4@n$o$< /.* * * $#",
"                          Q q @ # h$q                                                   B N N N N p$! ! q$",
"                          < /./.q q r$r                                                 e N N N N N N N   ",
"                          0 N N N N                                                                       "};
