/* XPM */
static char * D8_xpm[] = {
"43 90 576 2",
"  	c None",
". 	c #554543",
"+ 	c #5E4B48",
"@ 	c #65504D",
"# 	c #735C59",
"$ 	c #65514E",
"% 	c #473C3B",
"& 	c #5F4C48",
"* 	c #5D4A47",
"= 	c #695450",
"- 	c #6F5A55",
"; 	c #464141",
"> 	c #252B2E",
", 	c #635553",
"' 	c #846B66",
") 	c #3D3231",
"! 	c #3B2B29",
"~ 	c #594644",
"{ 	c #715C57",
"] 	c #7E6761",
"^ 	c #866E68",
"/ 	c #604D4B",
"( 	c #80635E",
"_ 	c #846A66",
": 	c #5D4B4A",
"< 	c #443432",
"[ 	c #594744",
"} 	c #867069",
"| 	c #856C67",
"1 	c #745D5A",
"2 	c #483836",
"3 	c #4C3C3A",
"4 	c #2B1311",
"5 	c #230D0B",
"6 	c #331713",
"7 	c #7F6662",
"8 	c #8B766F",
"9 	c #302120",
"0 	c #4D3C3A",
"a 	c #463634",
"b 	c #4F3A38",
"c 	c #301A18",
"d 	c #442E2A",
"e 	c #A0978A",
"f 	c #6F413C",
"g 	c #6C4E48",
"h 	c #8E7470",
"i 	c #866D69",
"j 	c #3D2D2C",
"k 	c #4D3D3B",
"l 	c #493937",
"m 	c #4C3A38",
"n 	c #503E3C",
"o 	c #7D6661",
"p 	c #7B5A54",
"q 	c #7E5F5A",
"r 	c #1B0000",
"s 	c #8F7875",
"t 	c #AD9A94",
"u 	c #B9ACA6",
"v 	c #927C76",
"w 	c #493E3D",
"x 	c #76605C",
"y 	c #67514F",
"z 	c #564442",
"A 	c #2F2F30",
"B 	c #4C3B39",
"C 	c #4B3A38",
"D 	c #4B3937",
"E 	c #523430",
"F 	c #1A1313",
"G 	c #493B39",
"H 	c #4E3F3E",
"I 	c #473837",
"J 	c #5A4C4A",
"K 	c #463E3D",
"L 	c #372827",
"M 	c #383636",
"N 	c #2E2D2D",
"O 	c #423E3F",
"P 	c #635F5F",
"Q 	c #292626",
"R 	c #493837",
"S 	c #6C5955",
"T 	c #67514E",
"U 	c #6D5753",
"V 	c #7B6560",
"W 	c #3B3636",
"X 	c #604C49",
"Y 	c #4D3B39",
"Z 	c #3F2C2A",
"` 	c #453533",
" .	c #4D3D3A",
"..	c #281F1E",
"+.	c #261716",
"@.	c #2D1E1D",
"#.	c #210C0A",
"$.	c #302726",
"%.	c #272626",
"&.	c #444243",
"*.	c #644F4C",
"=.	c #735B58",
"-.	c #836B65",
";.	c #866F69",
">.	c #292D30",
",.	c #4D3F3E",
"'.	c #806662",
").	c #6F5855",
"!.	c #4A3837",
"~.	c #4E3B3A",
"{.	c #372D2B",
"].	c #331715",
"^.	c #58332E",
"/.	c #584442",
"(.	c #000000",
"_.	c #221615",
":.	c #232222",
"<.	c #0C0000",
"[.	c #2E1614",
"}.	c #53413F",
"|.	c #140000",
"1.	c #231C1B",
"2.	c #181717",
"3.	c #010000",
"4.	c #170B09",
"5.	c #897E7F",
"6.	c #867C7D",
"7.	c #8F8384",
"8.	c #827779",
"9.	c #726A6B",
"0.	c #7B7575",
"a.	c #7F7170",
"b.	c #3C2C2B",
"c.	c #3F2F2E",
"d.	c #180C0B",
"e.	c #3A2D2B",
"f.	c #999690",
"g.	c #706859",
"h.	c #181211",
"i.	c #3C3231",
"j.	c #281E1D",
"k.	c #1F1E1E",
"l.	c #333030",
"m.	c #090809",
"n.	c #827576",
"o.	c #897D7F",
"p.	c #5B5557",
"q.	c #454042",
"r.	c #5D4948",
"s.	c #655C5D",
"t.	c #71696B",
"u.	c #686062",
"v.	c #443433",
"w.	c #1E0000",
"x.	c #0B0A0A",
"y.	c #171616",
"z.	c #070707",
"A.	c #1A1616",
"B.	c #4F4C4C",
"C.	c #544344",
"D.	c #100000",
"E.	c #9A8A8D",
"F.	c #918485",
"G.	c #1C100F",
"H.	c #2B1210",
"I.	c #291413",
"J.	c #816C6B",
"K.	c #1C1818",
"L.	c #453A39",
"M.	c #0D0201",
"N.	c #362827",
"O.	c #171110",
"P.	c #1C1B1B",
"Q.	c #090808",
"R.	c #3D393A",
"S.	c #6A6465",
"T.	c #756D6F",
"U.	c #97888B",
"V.	c #312324",
"W.	c #4F3C3B",
"X.	c #594240",
"Y.	c #4C3330",
"Z.	c #190A09",
"`.	c #0B0000",
" +	c #3E2D2B",
".+	c #574847",
"++	c #582E28",
"@+	c #978471",
"#+	c #B7953E",
"$+	c #D6C9AC",
"%+	c #010101",
"&+	c #463838",
"*+	c #2E2424",
"=+	c #8C7F82",
"-+	c #665B5B",
";+	c #65504E",
">+	c #6B5552",
",+	c #624B48",
"'+	c #4B3431",
")+	c #160A0A",
"!+	c #0B0605",
"~+	c #5B332E",
"{+	c #111010",
"]+	c #696264",
"^+	c #8D8082",
"/+	c #4B3A3A",
"(+	c #695451",
"_+	c #6E5855",
":+	c #6F5A56",
"<+	c #614C4A",
"[+	c #6F5856",
"}+	c #6D5754",
"|+	c #37211F",
"1+	c #4E3937",
"2+	c #480804",
"3+	c #762B1E",
"4+	c #020000",
"5+	c #16100E",
"6+	c #5F5759",
"7+	c #807578",
"8+	c #534241",
"9+	c #5A4644",
"0+	c #5E4A48",
"a+	c #675350",
"b+	c #6D5854",
"c+	c #785F5C",
"d+	c #765D59",
"e+	c #78605C",
"f+	c #4A3635",
"g+	c #AC645A",
"h+	c #160502",
"i+	c #160F0E",
"j+	c #090101",
"k+	c #110E0E",
"l+	c #615C5E",
"m+	c #6D6264",
"n+	c #6B6465",
"o+	c #52403F",
"p+	c #4C3938",
"q+	c #523F3E",
"r+	c #614D4A",
"s+	c #634F4C",
"t+	c #6A5653",
"u+	c #735B57",
"v+	c #765F5C",
"w+	c #735D59",
"x+	c #362625",
"y+	c #8C605B",
"z+	c #2B1B1A",
"A+	c #140908",
"B+	c #020202",
"C+	c #070403",
"D+	c #615D5E",
"E+	c #6C6163",
"F+	c #5B5456",
"G+	c #736363",
"H+	c #53403E",
"I+	c #473735",
"J+	c #5A4946",
"K+	c #7C6460",
"L+	c #3D1C16",
"M+	c #0A0404",
"N+	c #2B2121",
"O+	c #120F0D",
"P+	c #302C2C",
"Q+	c #776B6D",
"R+	c #413B3B",
"S+	c #635252",
"T+	c #0F0201",
"U+	c #342524",
"V+	c #463534",
"W+	c #564240",
"X+	c #604D4A",
"Y+	c #705A56",
"Z+	c #331F1C",
"`+	c #130403",
" @	c #120000",
".@	c #3D1C18",
"+@	c #050000",
"@@	c #080606",
"#@	c #372927",
"$@	c #23110D",
"%@	c #1B1717",
"&@	c #716869",
"*@	c #595254",
"=@	c #6E5B5B",
"-@	c #1D0A07",
";@	c #2E2523",
">@	c #4E3C3A",
",@	c #554341",
"'@	c #332120",
")@	c #755E5B",
"!@	c #391310",
"~@	c #270100",
"{@	c #100C0B",
"]@	c #222020",
"^@	c #342B2A",
"/@	c #66595B",
"(@	c #5E4F4F",
"_@	c #382C2B",
":@	c #2D2323",
"<@	c #513F3D",
"[@	c #87706A",
"}@	c #030000",
"|@	c #050505",
"1@	c #1E1513",
"2@	c #181617",
"3@	c #5A5154",
"4@	c #231F20",
"5@	c #0E0301",
"6@	c #473534",
"7@	c #3B2F2E",
"8@	c #221716",
"9@	c #594543",
"0@	c #7B625E",
"a@	c #7C635F",
"b@	c #7D6360",
"c@	c #201A19",
"d@	c #171212",
"e@	c #2A2727",
"f@	c #151111",
"g@	c #060505",
"h@	c #1C191A",
"i@	c #0E0D0D",
"j@	c #201615",
"k@	c #332322",
"l@	c #0D0A09",
"m@	c #030101",
"n@	c #453433",
"o@	c #5C4A47",
"p@	c #5F4B49",
"q@	c #7F6562",
"r@	c #816864",
"s@	c #4A3734",
"t@	c #161313",
"u@	c #0C0A09",
"v@	c #3E3332",
"w@	c #64504D",
"x@	c #7E6460",
"y@	c #836A65",
"z@	c #3B3839",
"A@	c #2B2525",
"B@	c #372D2C",
"C@	c #5C4946",
"D@	c #6C5754",
"E@	c #40302F",
"F@	c #211C1C",
"G@	c #131212",
"H@	c #4F4B4D",
"I@	c #1B1A1A",
"J@	c #271A18",
"K@	c #5B4744",
"L@	c #6E5754",
"M@	c #070404",
"N@	c #595557",
"O@	c #444142",
"P@	c #504C4E",
"Q@	c #4E4A4C",
"R@	c #090302",
"S@	c #44312E",
"T@	c #604B48",
"U@	c #2F1D1A",
"V@	c #837879",
"W@	c #908485",
"X@	c #333132",
"Y@	c #413E40",
"Z@	c #180F0D",
"`@	c #15100F",
" #	c #331C18",
".#	c #100F0F",
"+#	c #130E0D",
"@#	c #2D2B2C",
"##	c #484343",
"$#	c #6D5855",
"%#	c #685350",
"&#	c #36211F",
"*#	c #5E4A47",
"=#	c #715B57",
"-#	c #78615E",
";#	c #725B57",
">#	c #423231",
",#	c #392D2A",
"'#	c #79625E",
")#	c #79615E",
"!#	c #7E6662",
"~#	c #5D4A48",
"{#	c #210F0C",
"]#	c #6A5451",
"^#	c #77605C",
"/#	c #5D4846",
"(#	c #3E2D2C",
"_#	c #2A1815",
":#	c #826B65",
"<#	c #89736C",
"[#	c #826C67",
"}#	c #7B6460",
"|#	c #6C5653",
"1#	c #68534F",
"2#	c #5A4643",
"3#	c #67524F",
"4#	c #473533",
"5#	c #080404",
"6#	c #382826",
"7#	c #37211E",
"8#	c #4B3938",
"9#	c #66524F",
"0#	c #66514F",
"a#	c #332524",
"b#	c #685450",
"c#	c #806A64",
"d#	c #1D100F",
"e#	c #33130A",
"f#	c #716D6D",
"g#	c #968B8B",
"h#	c #170A08",
"i#	c #2D1F1F",
"j#	c #7A7273",
"k#	c #766F70",
"l#	c #6E6869",
"m#	c #715858",
"n#	c #696565",
"o#	c #463C3C",
"p#	c #352827",
"q#	c #322728",
"r#	c #9C8C8F",
"s#	c #877C7D",
"t#	c #7F7677",
"u#	c #7C5853",
"v#	c #7D7475",
"w#	c #373131",
"x#	c #2E0000",
"y#	c #2F2222",
"z#	c #98898C",
"A#	c #846062",
"B#	c #B77870",
"C#	c #B09A9B",
"D#	c #C7A7AA",
"E#	c #71423C",
"F#	c #866B69",
"G#	c #261613",
"H#	c #867B7C",
"I#	c #8D8182",
"J#	c #887C7D",
"K#	c #5D4E4F",
"L#	c #040101",
"M#	c #7C6566",
"N#	c #918486",
"O#	c #5B5859",
"P#	c #958688",
"Q#	c #363333",
"R#	c #726B6C",
"S#	c #7B7374",
"T#	c #8B8081",
"U#	c #AF999A",
"V#	c #402526",
"W#	c #7A7072",
"X#	c #514749",
"Y#	c #282424",
"Z#	c #706A6B",
"`#	c #686264",
" $	c #4C4648",
".$	c #98888B",
"+$	c #535050",
"@$	c #524F4F",
"#$	c #595253",
"$$	c #766E70",
"%$	c #95878A",
"&$	c #7F7576",
"*$	c #575455",
"=$	c #555151",
"-$	c #746C6D",
";$	c #524B4C",
">$	c #242223",
",$	c #544F50",
"'$	c #5E5A5B",
")$	c #948588",
"!$	c #918386",
"~$	c #4B4748",
"{$	c #645F60",
"]$	c #6B6566",
"^$	c #817779",
"/$	c #464242",
"($	c #887D7F",
"_$	c #98898B",
":$	c #97888A",
"<$	c #7C7475",
"[$	c #140E0C",
"}$	c #666162",
"|$	c #8E8284",
"1$	c #696465",
"2$	c #646061",
"3$	c #656061",
"4$	c #877C7E",
"5$	c #928386",
"6$	c #312E2E",
"7$	c #1F1B1B",
"8$	c #6A6365",
"9$	c #383535",
"0$	c #403839",
"a$	c #464142",
"b$	c #454142",
"c$	c #998A8D",
"d$	c #97898B",
"e$	c #8B7F82",
"f$	c #8A7E80",
"g$	c #4D4A4B",
"h$	c #918586",
"i$	c #9B8B8E",
"j$	c #5C5758",
"k$	c #332B2B",
"l$	c #938588",
"m$	c #877B7D",
"n$	c #2E2B2B",
"o$	c #3F3B3C",
"p$	c #575354",
"q$	c #676263",
"r$	c #231F1F",
"s$	c #494646",
"t$	c #585556",
"u$	c #615B5C",
"v$	c #797173",
"w$	c #9C8B8C",
"x$	c #393636",
"y$	c #83797A",
"z$	c #8B7E81",
"A$	c #8F8284",
"B$	c #604C4C",
"C$	c #A59293",
"D$	c #69595A",
"E$	c #2A2929",
"F$	c #433939",
"G$	c #9A8A8B",
"H$	c #0C0C0C",
"I$	c #413E3E",
"J$	c #8C7F81",
"K$	c #121212",
"L$	c #080000",
"M$	c #2F2C2C",
"N$	c #050302",
"O$	c #5F5757",
"P$	c #130909",
"Q$	c #1B0F0E",
"R$	c #1A0E0E",
"S$	c #0A0000",
"T$	c #564F50",
"U$	c #0F0C0C",
"V$	c #42231E",
"W$	c #161212",
"X$	c #382827",
"Y$	c #0B0201",
"Z$	c #3B2D2C",
"`$	c #040000",
" %	c #090000",
".%	c #1C0D0A",
"+%	c #080201",
"@%	c #272120",
"#%	c #2C1D1C",
"$%	c #1C1514",
"%%	c #705E5D",
"&%	c #0C0201",
"*%	c #070000",
"=%	c #625251",
"-%	c #87716B",
";%	c #040202",
">%	c #1A1514",
",%	c #806B69",
"'%	c #140D0C",
")%	c #140E0D",
"!%	c #604F4E",
"~%	c #695553",
"{%	c #685451",
"]%	c #090504",
"^%	c #2B1D1C",
"/%	c #322524",
"(%	c #624D4A",
"_%	c #523F3D",
"                                                          . + @ # $                   ",
"                                                      % & * = - ; > , '               ",
"                                                    ) ! ~ { ] ^ ^ / > ( ' _           ",
"                                                    : < [ } | ^ ^ 1 1 $ _ _           ",
"                                                    2 3 4 5 6 ^ ^ 1 1 7 ^ 8           ",
"                                                  9 0 a b c d ^ e f g 1 h i           ",
"                                                  j k l m n o p q r s t u v w         ",
"                                      x y z A ~ B C D B l E F _ 1 G H I J K L         ",
"                        M N O P Q R S T U U V W X Y Z `  ...1 $ $ +.+.@.#.@.          ",
"                    9 $.N %.&.% *.=.7 -.;., >.,.'.).!.~.Y {.]._ ^._ _ /.$             ",
"              (._.!.:.:.(.(.<.9 _ 1 _ 1 > > ,./._ _ _ /.[.}.9 $ |.(.(.(.(.            ",
"              1.% !.2.2.(.(.3.4.(.(.(.(.(.5.6.7.8.9.0.a.b.c.d.e.(.f.f.g.              ",
"              h.i.j.2.k.(.(.(.(.(.l.(.m.n.o.p.q.r.s.t.u.v.j d.(.w.(.(.(.              ",
"              x.$.2.2.y.(.(.z.A.B.C.D.E.F.G.9 H.H.I.J.K.L.M.!.N.(.(.(.(.              ",
"          O.x.x.P.x.Q.(.(.y.R.l.S.(.T.U.V.W./.X.Y.Z.`. +.+(.(.++w.@+#+$+              ",
"          x.x.(.Q.Q.%+(.2.:.l.l.&+*+=+-+9 /.;+>+,+'+)+`.^ !.!+~+w.w.w.w.              ",
"        h.:.2.(.(.(.(.(.(.N l.{+(.]+^+/+!.$ (+_+:+<+[+}+|+#.1+  2+                3+  ",
"      !+1.4+4+(.(.(.(.(.(.2.l.(.5+6+7+8+!./.9+0+a+b+c+d+e+f+#.g+                H.h+  ",
"      h.i+j+4+(.(.(.(.(.(.x.k+Q.l+m+n+o+W./.p+q+r+s+t+u+v+w+x+(.(.y+          z+h+h+  ",
"      h.M.A+d.(.(.x.B+C+4+l.Q.k+D+E+F+G+/././.H+!.I+J+s+(+v+K+!.]._.d.L+        4+% `.",
"    (.4+h.d.M+(.(.B+z.!+N+O+Q.A.P+Q+R+S+!._.h+T+<.U+V+W+X+X Y+Z+`+^              @.@+@",
"  4+(.h.@@j+4+x.x.(.x.#@$@O+A.A.%@&@*@=@!._.-@h+(.(.4+;@/.>@,@'@#.!.)@        #.!@~@h+",
"h.{@(.$.(.(.(.!+(.(.A.]@(.(.(.O+(.^@/@(@!.9 !.!._@1.4+(.:@n <@9 h+_ _ [@      (.}@~@`.",
"$.(.(.i.4+!+(.(.(.(.A.|@(.1@(.(.(.2@3@4@5@9 b.6@7@1.C+(.(.4+8@j 9@0@_ a@b@    (.(.#.  ",
"$.3.(.c@d@(.(.(.!+(.e@f@(.(.(.(.(.g@h@i@(.j@k@b.1.l@(.(.(.(.m@n@o@p@q@' r@_ #. @+@#.  ",
"h.{@(.(.(.(.(.(.s@$@t@u@(.(.(.(.(.(.(.(.(.(.(.(.(.(.(.(.z.  (.v@r+w@s+x@y@_ z@1 +@#.  ",
"(.(.(.(.(.(.(.  #@(.(.(.(.(.(.(.(.(.O+(.(.(.A@(.z@(.z@(.  +@  !+B@C@w@D@E@1 h+F@2.4+  ",
"  (.(.(.(.(.    1@1@(.(.(.(.(.(.(.(.k+|.(.P (.G@H@z@I@B+      (.h.J@K@w@L@!.+@(.M@    ",
"    (.(.(.(.    (.(.(.(.(.(.(.(.(.O+(.w.N@j+(.O@P@Q@2.x.          h.R@S@T@U@$ $       ",
"    (.(.(.        1@(.(.(.(.(.(.(.(.`.V@W@(.X@Q@Y@N Q.%+            !+M.Z@`@b.1.      ",
"    (.(.(.        (.(.(.(.(.(.(.(.(.`.V@W@ #P N@&..#(.(.              (.4++#!+        ",
"    (.(.(.        (.(.(.(.(.(.(.(.(.(.@#z@##O+]@(.(.(.                                ",
"    (.(.(.      (.(.3.4+h+b.9 h+h+<.(.(.(.  (.(.(.(.                                  ",
"    (.(.(.      (.(.j+`@$#%#&#b.!.(.(.4+4+      (.(.                                  ",
"    (.(.(.(.        9 *#=#-#;#/.!.>#,#(.d.      (.(.                                  ",
"    (.(.(.(.        h+K@'#)#!#/.9 X ~#{#      (.                                      ",
"    (.(.(.(.      d.9 ]#^#^#'./#(#a+s+_#      (.                                      ",
"    (.(.(.(.      !.1 :#<#[#}#|#1#2#3#4##.                                            ",
"    (.(.(.(.(.(.5#d._.6#7#b.8#9#' '.0#a#b.                                            ",
"  (.(.(.(.(.(.|.d.j._.h+h+h+9 9 b.b#c#_.d#9                                           ",
"  3.3.$@e#1@$@$@S.P P P f#g# @`.+@+@h+Q@9 h#(.                                        ",
"  (.(.(.(.(.$@i#j#V@W@k#l#W@m#(.(.4+N@n#M.(.o#Q@                                      ",
"  1@3.(.3.3.p#q#V@V@r#s#t#W@m#w.w.u#v#N@w#<.w#&.                                      ",
"  (.(.w.x#$@y###W@W@z#z#W@r#A#g+B#C#D#C#C#E#F#W@                                      ",
"  $@  (.D.3.G#q#V@H#I#W@W@W@W@z#J#K#C#W@C#r#z#H#                                      ",
"$@L#    $@$@$@q#k#j#V@s#W@V@W@W@M#N#r#O#C#r#P#E.                                      ",
"    $@  3.$@  Q#O B.S.R#S#T#z#C#U#V#D.O#S.S.W#P#X#                                    ",
"    #@  $@$@  O Y#l.S.S.D+Z#V@W@V@`# $B.W@O#k#.$z#H#                                  ",
"         #    l.A.l.B.O +$O#V@W@V@@$#$V@r#B.O $$%$&$                                  ",
"                    A.A.e@O V@S.*$=$-$;$>$,$S.'$)$!$S.                                ",
"                      A.A.A.O#O ~${$]$^$/$(.S.S.($_$:$k#                              ",
"                      A.(.A.l.R.O k#V@<$S.(.[$O#}$%$|$S.                              ",
"                        l.O+l.l.O#1$k#2$O#M (.(.3$4$5$S#                              ",
"                        l.6$7$B.O#O#k#~$~$O#(.`.O 8$z#r#                              ",
"                        l.A.|@B.O#O#V@O 9$O#0$q#a$b$c$d$                              ",
"                          (.(.l.l.S.k#A.l.3$O#(.W@c$e$f$                              ",
"                          A.A.A.(.g$l.A.l.S.O#(.t#h$i$r#                              ",
"                            l.l.(.l.l.A.O j$O#1@S.H#N#r#W@                            ",
"                            l.l.6$7$(.7$l.O O k$(.j#V@l$m$                            ",
"                                A.A.A.n$o$p$O#O (.3.O *@q$r#                          ",
"                                A.A.r$l.s$t$O O 3.(.O u$v$w$                          ",
"                                  l.l.(.x$@$O#S.y$C.C.S.k#k#r#                        ",
"                                  A.r$l.g$S.V@z$S.S.(.S.A$j#V@                        ",
"                                    A.S.V@k#V@W@k#V@3.B$V@V@                          ",
"                                  l.A.C#D#r#V@O#C$W@3./$O#W@                          ",
"                                B.O q#C#k#j#V@r#W@D$(.3.D.                            ",
"                              O#E$:.d@F$P.V@G$r#k#3.(.(.(.                            ",
"                            O z@:.H$+@(.(.I$r#J$(.(.(.(.                              ",
"                            S.x.K$(.4+<.L$(.O#k#(.(.(.                                ",
"                            M$(.(.N$d.<.4+(.O$W@k+(.                                  ",
"                          S.(.(.(.P$Q$R$S$4+(.T$1@$@                                  ",
"                          B.U$(.(.M._._.<.M.(.(.V$O+                                  ",
"                        1@2.W$(.(.M._.Q$4+M.(.(. #                                    ",
"                        (.(.(.(.3.d.9 M.<.d.(.d.                                      ",
"                        (.(.(.(._.i.% d._._.1.(.                                      ",
"                        (.(.(.(.d.9 .+9 i.c@(.                                        ",
"                      (.(.(.(.3.d.9 9 X$d.(.                                          ",
"                    $@(.(.(.Y$h+b.Z$9 `$ %                                            ",
"                    .%(.!+(.h++%>@b.9 L$}@                                            ",
"                    (.(.(.@%_.(.<.#%d.d.1.                                            ",
"                  $@(.(.$%i.%%h++@L$(.(.                                              ",
"                  4+4+4+i._.9 9 !.(.(.                                                ",
"                M.&%}@4+^@i.b.b.!.*%(.                                                ",
"              M.M.M.Y$4+$.% =%_._.-%_ 9                                               ",
"              M.M.M.M.!+;%>%% .+.+!.,%!.!.                                            ",
"              M.M.M.'%)%!+h.$.i._.!.b..+1 /.                                          ",
"              4+4+3.(.(.(.(.4+4+M.<.% _.!%~%1 {%                                      ",
"              !+(.(.(.3.]%!+h.1.$.d.d.^%/%%%(%%#b.                                    ",
"                      !+!+!+(.(.(.(.(.4+M.$ /.b._%.+9                                 ",
"                            (.C+!+!+!+!+!+(.  !+(.                                    "};
