/* XPM */
static char * A1_xpm[] = {
"40 92 597 2",
"  	c None",
". 	c #846B66",
"+ 	c #745D5A",
"@ 	c #473C3B",
"# 	c #846A66",
"$ 	c #89726C",
"% 	c #87716A",
"& 	c #866E68",
"* 	c #65514E",
"= 	c #644E4C",
"- 	c #252B2E",
"; 	c #21272B",
"> 	c #836964",
", 	c #846A64",
"' 	c #62524D",
") 	c #624F4C",
"! 	c #856D69",
"~ 	c #734946",
"{ 	c #42302E",
"] 	c #13181A",
"^ 	c #443230",
"/ 	c #352524",
"( 	c #806863",
"_ 	c #171111",
": 	c #3F2D2C",
"< 	c #413130",
"[ 	c #4A3938",
"} 	c #150F0F",
"| 	c #3C3734",
"1 	c #725953",
"2 	c #5D4442",
"3 	c #4E3D3C",
"4 	c #1D110F",
"5 	c #231C1B",
"6 	c #4A3837",
"7 	c #2E2B2B",
"8 	c #464343",
"9 	c #161212",
"0 	c #928680",
"a 	c #110F0F",
"b 	c #413E3E",
"c 	c #000000",
"d 	c #221C1B",
"e 	c #2E0000",
"f 	c #1E0000",
"g 	c #080000",
"h 	c #0B0000",
"i 	c #120000",
"j 	c #302120",
"k 	c #584442",
"l 	c #937961",
"m 	c #999690",
"n 	c #847961",
"o 	c #3C1D1B",
"p 	c #261A19",
"q 	c #050000",
"r 	c #523D3B",
"s 	c #160A07",
"t 	c #210C0A",
"u 	c #C8B894",
"v 	c #706859",
"w 	c #1C0F0C",
"x 	c #0C0000",
"y 	c #201311",
"z 	c #100000",
"A 	c #2C1D1C",
"B 	c #7E5F5A",
"C 	c #221615",
"D 	c #0D0909",
"E 	c #43302E",
"F 	c #120605",
"G 	c #23120E",
"H 	c #2B1B1A",
"I 	c #574341",
"J 	c #574847",
"K 	c #231D1D",
"L 	c #040303",
"M 	c #060404",
"N 	c #15100F",
"O 	c #312322",
"P 	c #533734",
"Q 	c #7E5954",
"R 	c #302D30",
"S 	c #3C2C2B",
"T 	c #180C0B",
"U 	c #1C100D",
"V 	c #150A0A",
"W 	c #0E0B0A",
"X 	c #372A29",
"Y 	c #2F2422",
"Z 	c #5F4744",
"` 	c #553F3C",
" .	c #614E4D",
"..	c #5E4C4A",
"+.	c #AA8D8F",
"@.	c #6A3D3C",
"#.	c #4E4847",
"$.	c #3B3839",
"%.	c #343134",
"&.	c #4F3C3B",
"*.	c #6F5855",
"=.	c #69534F",
"-.	c #5D4948",
";.	c #2A2120",
">.	c #2C2121",
",.	c #312524",
"'.	c #470101",
").	c #200000",
"!.	c #410707",
"~.	c #A69091",
"{.	c #0D0201",
"].	c #010000",
"^.	c #655553",
"/.	c #595557",
"(.	c #635F5F",
"_.	c #200F0C",
":.	c #7D6460",
"<.	c #3B2F2D",
"[.	c #201818",
"}.	c #3A2D2C",
"|.	c #4E3A39",
"1.	c #3A1D15",
"2.	c #33130A",
"3.	c #762B1E",
"4.	c #3E0000",
"5.	c #5C0000",
"6.	c #9C8C8F",
"7.	c #211615",
"8.	c #715858",
"9.	c #6F5A5E",
"0.	c #604C4C",
"a.	c #433636",
"b.	c #928082",
"c.	c #020101",
"d.	c #42201B",
"e.	c #5B0000",
"f.	c #6B0000",
"g.	c #160502",
"h.	c #2B1210",
"i.	c #181211",
"j.	c #5F4D4A",
"k.	c #512D27",
"l.	c #4C0000",
"m.	c #663031",
"n.	c #665558",
"o.	c #957C80",
"p.	c #6D6063",
"q.	c #B69799",
"r.	c #B09A9B",
"s.	c #877D7E",
"t.	c #766F70",
"u.	c #B39B9D",
"v.	c #E19697",
"w.	c #D8AABB",
"x.	c #E89192",
"y.	c #C7A7AA",
"z.	c #020000",
"A.	c #443735",
"B.	c #3B302E",
"C.	c #2A1210",
"D.	c #23110D",
"E.	c #5A2323",
"F.	c #615759",
"G.	c #8D7C7E",
"H.	c #CDAAAD",
"I.	c #CCA9AC",
"J.	c #C2A4A7",
"K.	c #BA9EA1",
"L.	c #B59A9D",
"M.	c #CDA9AE",
"N.	c #811413",
"O.	c #DCADB7",
"P.	c #140E0C",
"Q.	c #271F1E",
"R.	c #331715",
"S.	c #5D4E4E",
"T.	c #6B5E5F",
"U.	c #BFA2A4",
"V.	c #CEA9AF",
"W.	c #CBA9AC",
"X.	c #CFABAE",
"Y.	c #CAA8AD",
"Z.	c #A26E70",
"`.	c #790000",
" +	c #B3787A",
".+	c #837879",
"++	c #080504",
"@+	c #4C3B39",
"#+	c #392A29",
"$+	c #453433",
"%+	c #120F0D",
"&+	c #696364",
"*+	c #87787B",
"=+	c #C8A8AB",
"-+	c #CAA8AB",
";+	c #796768",
">+	c #5C4D4D",
",+	c #594E4F",
"'+	c #A38B8C",
")+	c #D6AEB1",
"!+	c #846062",
"~+	c #6A6465",
"{+	c #524F50",
"]+	c #2B2929",
"^+	c #1E1918",
"/+	c #2B2423",
"(+	c #413534",
"_+	c #44312F",
":+	c #4D3A39",
"<+	c #3A2B2A",
"[+	c #4A4646",
"}+	c #917F81",
"|+	c #C4A5A8",
"1+	c #BD9294",
"2+	c #5B3E3E",
"3+	c #9A3D4A",
"4+	c #B19B9C",
"5+	c #330000",
"6+	c #423E3F",
"7+	c #201919",
"8+	c #332725",
"9+	c #160F0E",
"0+	c #463B3A",
"a+	c #443A39",
"b+	c #3B3535",
"c+	c #433534",
"d+	c #594745",
"e+	c #453735",
"f+	c #382B2A",
"g+	c #3E3838",
"h+	c #34302F",
"i+	c #7A7171",
"j+	c #4F4C4C",
"k+	c #333030",
"l+	c #867B7C",
"m+	c #685E60",
"n+	c #120C0B",
"o+	c #1E1513",
"p+	c #1A1616",
"q+	c #4B3D3C",
"r+	c #4E3B38",
"s+	c #2D2221",
"t+	c #232020",
"u+	c #564443",
"v+	c #3D2F2D",
"w+	c #706A6B",
"x+	c #282626",
"y+	c #554D4E",
"z+	c #514B4D",
"A+	c #7D7374",
"B+	c #666061",
"C+	c #5B5859",
"D+	c #110806",
"E+	c #322728",
"F+	c #0C0A09",
"G+	c #231F1F",
"H+	c #423635",
"I+	c #513E3B",
"J+	c #29201F",
"K+	c #221F1F",
"L+	c #332727",
"M+	c #554341",
"N+	c #413331",
"O+	c #3B2E2C",
"P+	c #5F5757",
"Q+	c #908485",
"R+	c #575455",
"S+	c #1F1717",
"T+	c #4C4849",
"U+	c #5A5758",
"V+	c #231B18",
"W+	c #1D1614",
"X+	c #1A1415",
"Y+	c #372927",
"Z+	c #2B2121",
"`+	c #3A302F",
" @	c #473634",
".@	c #3B2A27",
"+@	c #070403",
"@@	c #392C2B",
"#@	c #352B2B",
"$@	c #3E2F2E",
"%@	c #352928",
"&@	c #040304",
"*@	c #2A2828",
"=@	c #3B3939",
"-@	c #2C0000",
";@	c #372C2D",
">@	c #6E6768",
",@	c #332423",
"'@	c #3C2D2B",
")@	c #45312E",
"!@	c #352B29",
"~@	c #271D1D",
"{@	c #191211",
"]@	c #2A1D1C",
"^@	c #0D0C0D",
"/@	c #191919",
"(@	c #423D3E",
"_@	c #524C4D",
":@	c #3D3A3A",
"<@	c #150000",
"[@	c #483230",
"}@	c #4E3835",
"|@	c #331C18",
"1@	c #171311",
"2@	c #261C1B",
"3@	c #211715",
"4@	c #241D1C",
"5@	c #221A19",
"6@	c #090909",
"7@	c #2F2C2D",
"8@	c #555051",
"9@	c #756162",
"0@	c #140000",
"a@	c #4E494A",
"b@	c #1F0000",
"c@	c #402F2D",
"d@	c #4B332E",
"e@	c #1D1616",
"f@	c #2E2322",
"g@	c #241A1A",
"h@	c #1A1211",
"i@	c #211918",
"j@	c #0F0D0D",
"k@	c #0F0E0E",
"l@	c #343233",
"m@	c #060606",
"n@	c #854D47",
"o@	c #92696A",
"p@	c #390000",
"q@	c #2D0000",
"r@	c #3C0000",
"s@	c #120E0D",
"t@	c #372B2A",
"u@	c #351E1A",
"v@	c #574441",
"w@	c #110D0C",
"x@	c #413231",
"y@	c #4F3B39",
"z@	c #151010",
"A@	c #110D0D",
"B@	c #171616",
"C@	c #232122",
"D@	c #290000",
"E@	c #2B0000",
"F@	c #222020",
"G@	c #282020",
"H@	c #503F3D",
"I@	c #1D1817",
"J@	c #221A1A",
"K@	c #5D4643",
"L@	c #553F3D",
"M@	c #503D3B",
"N@	c #140F0F",
"O@	c #241E1E",
"P@	c #312929",
"Q@	c #191818",
"R@	c #363434",
"S@	c #393333",
"T@	c #463635",
"U@	c #0F0D0C",
"V@	c #55413F",
"W@	c #54403E",
"X@	c #503C3A",
"Y@	c #2A201F",
"Z@	c #261E1E",
"`@	c #2A2121",
" #	c #181717",
".#	c #1F1817",
"+#	c #3A3434",
"@#	c #5E595A",
"##	c #5A4544",
"$#	c #554240",
"%#	c #3E2E2D",
"&#	c #312625",
"*#	c #311B17",
"=#	c #474444",
"-#	c #3D3A3B",
";#	c #090101",
">#	c #200C0B",
",#	c #160E0E",
"'#	c #433939",
")#	c #1C0D0A",
"!#	c #251E1D",
"~#	c #4A3734",
"{#	c #70504E",
"]#	c #4B3432",
"^#	c #3D3B3C",
"/#	c #151414",
"(#	c #070000",
"_#	c #312A2A",
":#	c #51413F",
"<#	c #3B2B29",
"[#	c #493431",
"}#	c #232222",
"|#	c #221919",
"1#	c #3D2F2E",
"2#	c #2C201F",
"3#	c #2B2321",
"4#	c #160807",
"5#	c #3E302F",
"6#	c #281D1D",
"7#	c #373333",
"8#	c #130E0D",
"9#	c #3C3231",
"0#	c #0C0604",
"a#	c #352726",
"b#	c #2A2322",
"c#	c #3F3B3B",
"d#	c #483937",
"e#	c #4F3D3B",
"f#	c #1E1817",
"g#	c #3E312F",
"h#	c #372C2B",
"i#	c #322828",
"j#	c #332B2A",
"k#	c #0C0B0B",
"l#	c #302726",
"m#	c #3A2A29",
"n#	c #302928",
"o#	c #4D413F",
"p#	c #1D2225",
"q#	c #3D312F",
"r#	c #463B38",
"s#	c #231110",
"t#	c #342A28",
"u#	c #221C1A",
"v#	c #1E1716",
"w#	c #070404",
"x#	c #301A16",
"y#	c #33160F",
"z#	c #2D2526",
"A#	c #282E32",
"B#	c #1B1110",
"C#	c #473937",
"D#	c #53403E",
"E#	c #331E1C",
"F#	c #3B2F2E",
"G#	c #362B29",
"H#	c #52433F",
"I#	c #3A2D2B",
"J#	c #241A19",
"K#	c #26130F",
"L#	c #221210",
"M#	c #310807",
"N#	c #64261D",
"O#	c #161011",
"P#	c #352A29",
"Q#	c #372C2A",
"R#	c #42221E",
"S#	c #200C0A",
"T#	c #0F0201",
"U#	c #080404",
"V#	c #754F4A",
"W#	c #3B2B2A",
"X#	c #1F0F0C",
"Y#	c #28211F",
"Z#	c #3A2E2C",
"`#	c #271716",
" $	c #2B2525",
".$	c #79615E",
"+$	c #5A4744",
"@$	c #392F2F",
"#$	c #705D5B",
"$$	c #484343",
"%$	c #030101",
"&$	c #3D1C18",
"*$	c #290E07",
"=$	c #716D6D",
"-$	c #837A7B",
";$	c #968B8B",
">$	c #4E4A4C",
",$	c #2E1814",
"'$	c #8D8183",
")$	c #625B5D",
"!$	c #370000",
"~$	c #454142",
"{$	c #030000",
"]$	c #8F8284",
"^$	c #342525",
"/$	c #0B0605",
"($	c #7B7374",
"_$	c #2F2727",
":$	c #A47071",
"<$	c #A59293",
"[$	c #A39193",
"}$	c #331408",
"|$	c #4C4949",
"1$	c #565354",
"2$	c #696465",
"3$	c #736D6E",
"4$	c #84686A",
"5$	c #877C7D",
"6$	c #978889",
"7$	c #555151",
"8$	c #5C5758",
"9$	c #170B09",
"0$	c #080403",
"a$	c #3F3B3C",
"b$	c #474344",
"c$	c #5E5B5C",
"d$	c #736B6C",
"e$	c #52221B",
"f$	c #8C8081",
"g$	c #635455",
"h$	c #645F60",
"i$	c #363333",
"j$	c #463838",
"k$	c #7F7677",
"l$	c #8D8182",
"m$	c #050505",
"n$	c #535050",
"o$	c #726B6C",
"p$	c #474242",
"q$	c #7C7273",
"r$	c #2A2727",
"s$	c #040000",
"t$	c #050100",
"u$	c #6E6869",
"v$	c #060504",
"w$	c #454242",
"x$	c #0B0201",
"y$	c #413D3E",
"z$	c #656061",
"A$	c #524F4F",
"B$	c #1C1A1A",
"C$	c #0E0C0C",
"D$	c #544344",
"E$	c #383535",
"F$	c #5C5859",
"G$	c #6E6868",
"H$	c #A49192",
"I$	c #937476",
"J$	c #5A5656",
"K$	c #827879",
"L$	c #4B4748",
"M$	c #6D6768",
"N$	c #171516",
"O$	c #827677",
"P$	c #8C7F81",
"Q$	c #B89EA1",
"R$	c #555253",
"S$	c #403C3D",
"T$	c #3B3738",
"U$	c #484444",
"V$	c #464344",
"W$	c #3E3B3C",
"X$	c #AB9598",
"Y$	c #6A5F60",
"Z$	c #7A696B",
"`$	c #736264",
" %	c #635354",
".%	c #5B5557",
"+%	c #E7B5B8",
"@%	c #DEAEB9",
"#%	c #8E7C80",
"$%	c #89787A",
"%%	c #837073",
"&%	c #857476",
"*%	c #655F60",
"=%	c #615C5C",
"-%	c #AA9294",
";%	c #9F8687",
">%	c #A89192",
",%	c #4E4A4A",
"'%	c #585556",
")%	c #A39091",
"!%	c #A48E8F",
"~%	c #97878A",
"{%	c #4C4848",
"]%	c #99898B",
"^%	c #877B7C",
"/%	c #494646",
"(%	c #282424",
"_%	c #2A2626",
":%	c #453232",
"<%	c #0D0000",
"[%	c #272425",
"}%	c #1C1616",
"|%	c #100C0B",
"1%	c #140E0D",
"2%	c #171212",
"3%	c #090504",
"4%	c #140908",
"5%	c #110402",
"6%	c #271D1C",
"7%	c #272120",
"8%	c #040202",
"9%	c #2D1B18",
"0%	c #423130",
"a%	c #201312",
"b%	c #554140",
"c%	c #523F3D",
"d%	c #3E2D2C",
"e%	c #100807",
"f%	c #1C1B1B",
"                                . . + @                                         ",
"                            # . $ % & # *                                       ",
"                            = - ; > , ' )                                       ",
"                          * ! ~ { ] ^ / ( _                                     ",
"                          : < [ } | 1 2 3 4 5                                   ",
"                          6 7 8 9 0 a b c c d                                   ",
"                          6 c e e e e f c g h                                   ",
"                        i j k e l m n c k c c                                   ",
"                        o p c c c c c c c q c                                   ",
"                          c e c c c c c r c c                                   ",
"                        s k t c u v m c w c c                                   ",
"                        c 6 x f c c c c y c c                                   ",
"                        z A + j B # + C c D c                                   ",
"                        z E F e c c c c c c G                                   ",
"                      j H 6 c e I J K L M N O P Q                               ",
"                    * 6 R S T U g V W X Y Z `  ...+.6 @.                        ",
"                  #.$.%.6 &.*.=.-.;.>.,.'.f c ).!.~.{.* q ].^.                  ",
"                  /.(.(.t _.:.<.[.}.|.1.2.3.4.4.5.6.T & 7.q C                   ",
"                  q 8.e 9.0.a.b.c.d.].d.e e.f.f 3.6.g.h.].c c x i.              ",
"              j.k k.l.m.n.o.p.q.r.s.t.u.4.v.w.e.x.y.c c c c c z.z.              ",
"            A.B.C.D.l.E.F.G.H.I.J.K.L.M.e.N.O.f.x.y.P.c c c c ].c               ",
"          <.Q.R.R.f ].S.T.U.y.V.y.W.X.Y.Z.e.`.e. +.+t.c c c c c ++              ",
"          @+#+$+t f %+&+*+=+-+;+>+,+'+=+)+4.4.4.!+~+{+]+c c c ^+/+              ",
"        (+k _+:+<+c [+t.}+|+1+c 6.r.2+3+4+4.5+f 8.~+6+6+7+8+9+0+a+              ",
"        b+c+d+e+f+g+t.h+i+j+k+k+j+l+m+n+o+4.h c c p+6+6+k+q+r+s+5               ",
"        t+s+u+v+0+w+x+c j+j+y+z+A+B+C+D+D.e c c c E+F+c G+H+I+J+].              ",
"        K+L+M+N+O+P+F+c Q+R+S+T+U+V+W+X+C+8.Y+].].].c c Z+`+ @.@+@5             ",
"          @@#@$@%@&@*@S..+=@-@;@c c c >@c c c e c c ].f z ,@'@)@D.z.            ",
"        !@~@{@X ]@^@/@(@_@:@c c c c E+c c Q+c <@f f z e c O+[@}@].|@            ",
"        1@2@3@4@5@6@^@7@8@9@0@c c c 3.%+a@c ].f e b@<@e c c c@d@D.|@            ",
"      e@f@g@<+h@i@j@k@l@m@].e e l.f e.n@k+6+o@p@e q@b@r@c c s@t@u@j+v@          ",
"      w@x@[ y@z@i.A@B@C@c c D@D@c c c h F+c ;@e e 4.E@0@c F@G@H@I@j+j+          ",
"      J@K@L@M@N@O@P@Q@R@z c c c c c c c c c c c c q c c c k+S@T@S@6+k+          ",
"      U@V@W@X@Y@Z@`@ #x+c c c q c c c c c c c c c i c c     c .#+#k+@#Y+        ",
"      F+##$#%#&#*#=#-#c ;#g.>#h c c c c c c T ,#c '#c c     )#c k+!#j+~#c       ",
"      5@{#]#<+<+o+^#/#c {.x h (#c ].].c x ;#c g.c _#c c       c F+o+6+Y+c       ",
"    T :#i +#<#[#  c }#c T g.z.|#1#2#3#4#c 5#6#].7#B@c 8#      ].c o+c o+].      ",
"    k g.h.9#0#)#      c z.a#b#c#d#e#f#g#R.h#O@i#j#k#z.l#c       ].z f D.c       ",
"    R.c i z.)#+@      c g.m#n#o#p#* q#r#s#t#u#v#m#w#C l#c       D.x#y#].c       ",
"    R.t h.T f         C z#A#A#B#C#* D#E#F#G#H#I#g.J#j z.{.z.      K#L#].c       ",
"  c C M#S x N#      + 6 A#O#c q I t h.P#Q#R#S#j T#g.U#T T # S     c ].c c       ",
"  c x R.t c N#    6 V#* W#g.j X#g.c c Y#Z#z.g.`#{.S T j j + |@    c c c c       ",
"  c g.h g.g.|@     $'#.$+$H g.`#6 t j @$#$S g.g.C 4#c z.c Z+.+$$  ].c D.%$      ",
"  c q &$g.*$      .+=$-$=$;$x c c c >$c }#/.-$-$q c c c 0@8.C+      ].,$D.      ",
"  c g.o c c     6+t.'$=$=$>$c q c 4#(.)$6.~+6..+e f !$z z j+~$      c |@K#      ",
"  c {$j c         E+].t.]$.+z z f Q+.+6.6..+6.Q+6.N#z z ^$&+j+        |@|@      ",
"  c c /$c         6+C+t.($Q+e.l.8.6.t.6.6.Q+r.r.6..+f f .+C+6.~+      ].e ].    ",
"  q _$c c       6+6+C+t.Q+Q+e.`.:$6.0.6.r.Q+<$r.[$0.l.e .+t.6.~+c     z }$D.    ",
"    9#c c       |$6+1$2$3$.+4$e 8.Q+~+6.6.5$Q+6$r.r.c c ~+7$R+8$6+    c 9$0$    ",
"  c C c c       k+a$b$c$~+d$.+e$4.Q+.+f$Q+t.6.Q+C+t.z Q+g$h$j+6+6+    c c c     ",
"  c c c c       k+i$6+j+~+~+C+j$e k$l$5$.+t.Q+~+.+.+0..+Z+6+p+p+m$  c c c c     ",
"  c q c         a$k+n$C+~+o$t.t.z z j+6+6+p+p$q$Q+Q+8.Q+E+j+k+r$p+    ].9$c     ",
"  s$g.t$c         k+$.C+~+o$t.u$$$v$%+c c c w$k+6+6+0..+Z+6+6+6+p+c   ].D.c     ",
"c c x$g.c         y$k+6+~+z$c$A$~$B$L c c c C$.+~+j+D$.+Z+6+E$k+F@c   c D.c     ",
"c c c c i         |$6+6+n$c$~+F$|$6+c c     c j+G$H$I$Q+E+j+p+c c c   +@D.      ",
"  c x c c         j+z$C+C+C+c$z$j+k+c c       C+J$K$r.o@d..+C+L$]+c c )#0$      ",
"  g.t c c         k+C+M$6+6+6+6+6+p+c c       A$R+C+6.o@d..+C+6+6+N$F+D.c       ",
"    6 q c         p+p+j+~+L$6+6+L$j$c         k+t.~+0.0.4.r.O$6+k+6+%+D.        ",
"    h.c c         6+6+k+k+w$t.t.C+k+c           6+.+].8.f [$r.6.P$C+p+          ",
"    g.4#c         p+6+C+$.k+6+j+6+6+%+          j+C+f .+f 6.y.Q$6.C+k+          ",
"      q x         6+E$k+n$C+C+R$y$6+%+            C+h f r@ +Q+.+~+{+6+          ",
"        C         p+j+R+S$T$U$V$W$k+%+              ].h 4.e.y.y.X$6+k+          ",
"        c         p+:@j+Y$Z$`$ %.%$$%+              ].].e e.+%@%y.8$6+          ",
"                  6+6+L$#%$%%%&%*%$$%+              k+D.d.y.y.6.r.=%j+          ",
"                    6+6+&+-%;%>%,%r$p+                D$z .+r..+f$j+'%          ",
"                    j+k+Q+)%!%~%{%p+                    ]..+r..+.+j+C+          ",
"                    j+k+5$Q+]%^%/%p+                    ]..+f |@j$6+6+6+        ",
"                  Q+C+(%6+j+~+R$_%p+                    Z+t.f c c c c k+        ",
"                  r.6+6+6+%+%+%+p+7                     c :%<%c c c c F+j+      ",
"                  .+E$6+[%c c c p+k+                    o+<%c ].c c c c x+      ",
"                  |@k+}%c c c c %+c                     D.q z c c c c c c       ",
"                  f c c c c c c c c                     D.c z c c c c c c       ",
"                  ].c c c p+c c c c                       P.c c c c c c c       ",
"                  z c c c c c c c c                         c c c c c c o+      ",
"                    c c c c c c                             c c c c c c c       ",
"                    c c c c c c                             c c c c c c c       ",
"                      o+c c o+c                             /$c c c c c c       ",
"                      c c c c c                             c c c c c./$/$      ",
"                      c c c c /$                              ].c /$/$c.c       ",
"                        c c c c                                 |%c c c c       ",
"                        /$/$/$                                  i.c c c c       ",
"                      c i.1%/$                                    5 2%c c 3%    ",
"                      {.{.c {.z.                                  c z.c c c     ",
"                      {.4%z.T z.                                  5%c c c /$].  ",
"                      {.C z.c {.                                  j 6%c c c.3%  ",
"                    T h.k * g.x                                   {.S 9#7%c i.i.",
"                    g.+ R.6 h.S S                                 + 6 k j l#/$8%",
"                    {.* * C t T #                             j 9%k 0%a%h#i./$/$",
"                                                            + + b%6 c%S T c c c ",
"                                                            + + &.b%d%T e%c /$c.",
"                                                          6 * T # S C 9#c c ].3%",
"                                                        i.f%/${.c /$c /$/$      "};
