/* XPM */
static char * A2_xpm[] = {
"34 93 528 2",
"  	c None",
". 	c #725B58",
"+ 	c #5F4B48",
"@ 	c #6B5551",
"# 	c #66504E",
"$ 	c #61504E",
"% 	c #87716A",
"& 	c #826B65",
"* 	c #76605A",
"= 	c #755F59",
"- 	c #7E6561",
"; 	c #644E4C",
"> 	c #5F4A48",
", 	c #5E4A48",
"' 	c #493C3B",
") 	c #846A65",
"! 	c #826862",
"~ 	c #775652",
"{ 	c #171D22",
"] 	c #21272B",
"^ 	c #695451",
"/ 	c #5E4947",
"( 	c #564240",
"_ 	c #5C4948",
": 	c #181211",
"< 	c #7E605A",
"[ 	c #836965",
"} 	c #634C49",
"| 	c #644D4A",
"1 	c #7B5B58",
"2 	c #735A58",
"3 	c #343436",
"4 	c #624D4A",
"5 	c #564341",
"6 	c #302726",
"7 	c #231C1B",
"8 	c #340F0D",
"9 	c #734946",
"0 	c #371B18",
"a 	c #463331",
"b 	c #422D2B",
"c 	c #3A201E",
"d 	c #624D4B",
"e 	c #513E3C",
"f 	c #574341",
"g 	c #3C3231",
"h 	c #65514E",
"i 	c #654F4D",
"j 	c #371D1B",
"k 	c #311A18",
"l 	c #564340",
"m 	c #4F3C39",
"n 	c #241C1B",
"o 	c #340000",
"p 	c #040000",
"q 	c #000000",
"r 	c #1E0000",
"s 	c #423533",
"t 	c #2B1210",
"u 	c #321917",
"v 	c #5F4A47",
"w 	c #3C221F",
"x 	c #5C4846",
"y 	c #010101",
"z 	c #0B0605",
"A 	c #71423C",
"B 	c #D2C6A8",
"C 	c #C2AE8F",
"D 	c #4A2F2C",
"E 	c #584442",
"F 	c #311310",
"G 	c #2C1A18",
"H 	c #54403F",
"I 	c #120000",
"J 	c #382421",
"K 	c #846B66",
"L 	c #4A3837",
"M 	c #3C1D1B",
"N 	c #3B2C2B",
"O 	c #3E0000",
"P 	c #302120",
"Q 	c #1F0F0C",
"R 	c #0C0000",
"S 	c #221615",
"T 	c #746650",
"U 	c #CBBEA0",
"V 	c #AEA180",
"W 	c #3C0000",
"X 	c #352625",
"Y 	c #473534",
"Z 	c #3C2C2B",
"` 	c #745D5A",
" .	c #050000",
"..	c #190000",
"+.	c #382827",
"@.	c #342524",
"#.	c #4E3C3A",
"$.	c #4D3B3A",
"%.	c #1D0F0F",
"&.	c #806B69",
"*.	c #2E0000",
"=.	c #190C0B",
"-.	c #54413F",
";.	c #180C0B",
">.	c #42302F",
",.	c #5A4543",
"'.	c #5A4644",
").	c #594543",
"!.	c #473C3B",
"~.	c #381313",
"{.	c #020000",
"].	c #4B3837",
"^.	c #64504D",
"/.	c #292626",
"(.	c #433E3E",
"_.	c #433939",
":.	c #291B1A",
"<.	c #76605B",
"[.	c #706B6B",
"}.	c #635E5E",
"|.	c #181717",
"1.	c #210C0A",
"2.	c #5B3331",
"3.	c #6C5552",
"4.	c #160502",
"5.	c #635F5F",
"6.	c #0B0A0A",
"7.	c #53332F",
"8.	c #7E5F5A",
"9.	c #754F4A",
"0.	c #130403",
"a.	c #473634",
"b.	c #76625D",
"c.	c #6C5653",
"d.	c #79615D",
"e.	c #735C59",
"f.	c #675D5E",
"g.	c #726E6E",
"h.	c #846A66",
"i.	c #89726B",
"j.	c #866E68",
"k.	c #332826",
"l.	c #6C5855",
"m.	c #0D0201",
"n.	c #373131",
"o.	c #2B2525",
"p.	c #0B0000",
"q.	c #311718",
"r.	c #897F81",
"s.	c #736E6E",
"t.	c #3D1C18",
"u.	c #4C2722",
"v.	c #1F0202",
"w.	c #685450",
"x.	c #4B3938",
"y.	c #877373",
"z.	c #837A7B",
"A.	c #595557",
"B.	c #635454",
"C.	c #856D6E",
"D.	c #432020",
"E.	c #968A8C",
"F.	c #968B8B",
"G.	c #171212",
"H.	c #0E0301",
"I.	c #010000",
"J.	c #301C1A",
"K.	c #5D585A",
"L.	c #5E585A",
"M.	c #766667",
"N.	c #8E8486",
"O.	c #282525",
"P.	c #030000",
"Q.	c #AC9899",
"R.	c #8A8182",
"S.	c #260000",
"T.	c #1A0F0F",
"U.	c #8B8183",
"V.	c #908586",
"W.	c #81787A",
"X.	c #3E2421",
"Y.	c #3D2D2C",
"Z.	c #4C3A39",
"`.	c #362B2A",
" +	c #938788",
".+	c #9C8D8F",
"++	c #4A4444",
"@+	c #686060",
"#+	c #877D7F",
"$+	c #181414",
"%+	c #877D7E",
"&+	c #827A7B",
"*+	c #655D5E",
"=+	c #4E4849",
"-+	c #161212",
";+	c #170B09",
">+	c #806E67",
",+	c #604C48",
"'+	c #604C4A",
")+	c #918587",
"!+	c #A7888A",
"~+	c #736A6A",
"{+	c #797070",
"]+	c #9A8C8F",
"^+	c #BA9D9F",
"/+	c #0F0E0E",
"(+	c #7A7173",
"_+	c #686163",
":+	c #665E60",
"<+	c #7E7476",
"[+	c #605B5C",
"}+	c #090808",
"|+	c #140000",
"1+	c #6B615D",
"2+	c #353436",
"3+	c #5D4947",
"4+	c #644D4B",
"5+	c #040303",
"6+	c #555151",
"7+	c #70696A",
"8+	c #51494A",
"9+	c #847B7C",
"0+	c #776F71",
"a+	c #1D1717",
"b+	c #0D0B0B",
"c+	c #5A5656",
"d+	c #4F4C4C",
"e+	c #5F5859",
"f+	c #817778",
"g+	c #746A6C",
"h+	c #625B5C",
"i+	c #3C3132",
"j+	c #100000",
"k+	c #3E3535",
"l+	c #282E32",
"m+	c #333335",
"n+	c #574543",
"o+	c #2D2322",
"p+	c #0C0706",
"q+	c #6A6465",
"r+	c #464242",
"s+	c #887E80",
"t+	c #908486",
"u+	c #2F2C2C",
"v+	c #272222",
"w+	c #2B2121",
"x+	c #211A1A",
"y+	c #605253",
"z+	c #615A5B",
"A+	c #797072",
"B+	c #655E5F",
"C+	c #7B7374",
"D+	c #372623",
"E+	c #331C18",
"F+	c #512D27",
"G+	c #342A2A",
"H+	c #614D4B",
"I+	c #241817",
"J+	c #362B2C",
"K+	c #7E7577",
"L+	c #1C1616",
"M+	c #484343",
"N+	c #5F5757",
"O+	c #23110D",
"P+	c #7C7375",
"Q+	c #6B6567",
"R+	c #7E7576",
"S+	c #9A8B8E",
"T+	c #42231E",
"U+	c #301715",
"V+	c #5B4745",
"W+	c #695350",
"X+	c #100807",
"Y+	c #766F70",
"Z+	c #3D2724",
"`+	c #363333",
" @	c #333030",
".@	c #4C0000",
"+@	c #6D6768",
"@@	c #756D6E",
"#@	c #716A6C",
"$@	c #746C6E",
"%@	c #343232",
"&@	c #151516",
"*@	c #331715",
"=@	c #523F3D",
"-@	c #130E0D",
";@	c #837879",
">@	c #5B5859",
",@	c #342525",
"'@	c #1E1513",
")@	c #1A1616",
"!@	c #5C5555",
"~@	c #565051",
"{@	c #423E3F",
"]@	c #32201E",
"^@	c #523C3A",
"/@	c #503F3D",
"(@	c #6A4546",
"_@	c #5F3732",
":@	c #240000",
"<@	c #320000",
"[@	c #0A0808",
"}@	c #675E60",
"|@	c #4C4646",
"1@	c #373232",
"2@	c #222020",
"3@	c #35211F",
"4@	c #533F3D",
"5@	c #322728",
"6@	c #150000",
"7@	c #250000",
"8@	c #423D3E",
"9@	c #151210",
"0@	c #383434",
"a@	c #594949",
"b@	c #5E4A47",
"c@	c #544344",
"d@	c #140E0C",
"e@	c #370000",
"f@	c #2B2929",
"g@	c #2E2D2D",
"h@	c #3B3130",
"i@	c #5B4846",
"j@	c #554343",
"k@	c #514444",
"l@	c #3B3839",
"m@	c #4B1612",
"n@	c #171515",
"o@	c #282626",
"p@	c #040404",
"q@	c #0A0909",
"r@	c #3C3534",
"s@	c #5A4745",
"t@	c #544241",
"u@	c #514240",
"v@	c #64261D",
"w@	c #463F3E",
"x@	c #5F4C4B",
"y@	c #4C3A38",
"z@	c #68524F",
"A@	c #221210",
"B@	c #655958",
"C@	c #5A4643",
"D@	c #28100F",
"E@	c #422623",
"F@	c #2A1B1A",
"G@	c #100606",
"H@	c #4F4847",
"I@	c #2F201F",
"J@	c #2C1715",
"K@	c #634F4C",
"L@	c #1C1B1B",
"M@	c #151010",
"N@	c #4E3C3B",
"O@	c #261A18",
"P@	c #5F4B49",
"Q@	c #5B5151",
"R@	c #0C0504",
"S@	c #2A1C1A",
"T@	c #5D4846",
"U@	c #5C4845",
"V@	c #3C2C2A",
"W@	c #271A19",
"X@	c #270100",
"Y@	c #381D1B",
"Z@	c #66504D",
"`@	c #2C1E1C",
" #	c #2D1F1E",
".#	c #4D3B39",
"+#	c #5D4946",
"@#	c #281B1A",
"##	c #463533",
"$#	c #614D4A",
"%#	c #421B17",
"&#	c #3E201E",
"*#	c #58423F",
"=#	c #5D4541",
"-#	c #170909",
";#	c #453332",
">#	c #362726",
",#	c #604C49",
"'#	c #6B5552",
")#	c #574643",
"!#	c #201615",
"~#	c #321B19",
"{#	c #67463E",
"]#	c #493735",
"^#	c #604B49",
"/#	c #1A0906",
"(#	c #180704",
"_#	c #080201",
":#	c #1A0806",
"<#	c #170D0C",
"[#	c #3C2B2A",
"}#	c #7C6360",
"|#	c #3B2B29",
"1#	c #2F1F1D",
"2#	c #160807",
"3#	c #42201B",
"4#	c #372927",
"5#	c #9C8C8F",
"6#	c #B09A9B",
"7#	c #4E4343",
"8#	c #716D6D",
"9#	c #C7A7AA",
"0#	c #908485",
"a#	c #604C4C",
"b#	c #5E5253",
"c#	c #7B6D70",
"d#	c #493031",
"e#	c #280000",
"f#	c #83797B",
"g#	c #4E4243",
"h#	c #44393B",
"i#	c #736264",
"j#	c #271210",
"k#	c #4C4949",
"l#	c #433F40",
"m#	c #5B0000",
"n#	c #510000",
"o#	c #433739",
"p#	c #463436",
"q#	c #4C3C3F",
"r#	c #715858",
"s#	c #380000",
"t#	c #140201",
"u#	c #551612",
"v#	c #4B3D3F",
"w#	c #6B5D5F",
"x#	c #430000",
"y#	c #2E2525",
"z#	c #454142",
"A#	c #160000",
"B#	c #4F4445",
"C#	c #6A6262",
"D#	c #2D2929",
"E#	c #524F50",
"F#	c #50494A",
"G#	c #736B6C",
"H#	c #332626",
"I#	c #575455",
"J#	c #53494A",
"K#	c #332B2B",
"L#	c #2E2B2B",
"M#	c #151111",
"N#	c #3A3636",
"O#	c #221E1F",
"P#	c #070000",
"Q#	c #52221B",
"R#	c #615C5C",
"S#	c #4B4242",
"T#	c #221313",
"U#	c #463838",
"V#	c #383535",
"W#	c #1C1818",
"X#	c #3C1505",
"Y#	c #33130A",
"Z#	c #676162",
"`#	c #5E5B5C",
" $	c #191313",
".$	c #120F0D",
"+$	c #343031",
"@$	c #050505",
"#$	c #110402",
"$$	c #535050",
"%$	c #020202",
"&$	c #3D3A3A",
"*$	c #494646",
"=$	c #393636",
"-$	c #A4230A",
";$	c #9A594F",
">$	c #450C09",
",$	c #252121",
"'$	c #444141",
")$	c #696364",
"!$	c #332F2E",
"~$	c #854D47",
"{$	c #2A2727",
"]$	c #464142",
"^$	c #AC645A",
"/$	c #92696A",
"($	c #E7B5B8",
"_$	c #656061",
":$	c #595556",
"<$	c #474344",
"[$	c #645F60",
"}$	c #282424",
"|$	c #706A6B",
"1$	c #403839",
"2$	c #797172",
"3$	c #A18E8F",
"4$	c #7F7576",
"5$	c #938587",
"6$	c #726B6C",
"7$	c #635C5D",
"8$	c #83797A",
"9$	c #0E0C0A",
"0$	c #191718",
"a$	c #8F8284",
"b$	c #585252",
"c$	c #232222",
"d$	c #2D2B2C",
"e$	c #070404",
"f$	c #040202",
"g$	c #070403",
"h$	c #090504",
"i$	c #020101",
"j$	c #1C1615",
"k$	c #180B09",
"l$	c #272120",
"m$	c #574847",
"n$	c #866F6D",
"o$	c #705E5D",
"p$	c #413635",
"q$	c #150F0E",
"r$	c #0F0A09",
"s$	c #0B0807",
"t$	c #655553",
"u$	c #3D2E2D",
"v$	c #1B0F0E",
"w$	c #735E5B",
"x$	c #453A39",
"y$	c #140908",
"z$	c #100C0B",
"A$	c #4B3A39",
"B$	c #140E0D",
"C$	c #1C1513",
"                              . + @ # $                             ",
"                          % & * = - ; > , '                         ",
"                          ) ! ~ { ] ^ / ( _ :                       ",
"                        < [ } | 1 2 3 4 ( 5 6 7                     ",
"                        8 9 0 a a b c d e f g :                     ",
"                        a h i a a j k l m f n :                     ",
"                      o p q r s 7 t u v w x y z                     ",
"                      A B C q 7 s D E F G H q                       ",
"                      q q q q I J h K L M N :                       ",
"                      q q q r O P P Q R S :                         ",
"                    q T U V W O P R X Y Z q                         ",
"                    ` p  .O O ..+.@.#.$.%.q                         ",
"                    &.K K h *. .=.E f -.S P                         ",
"                      q q ;.*.P >.,.'.).E E E                       ",
"                      !.E L ~.{.].> 5 ^.6 /.(._.                    ",
"                      P q :.L E <.[.}.|.P 1.K 2.1.h %               ",
"                    3.3.h 4.q q 5.6.;.7.8.9.h 1.0.t a.b.c.          ",
"                L . d.e.E 1. .f.g.R h.8.i.j.h Z !.1.k.l.d.&.m.      ",
"            n.o.5.q R q p.q q.r.s.` t.t.u.E R ;.E L v.^.w.x.P       ",
"            y.z.5.A.R B.C.D.E.F.G.m.q H.I.q q q {.q 4.q x.J.7       ",
"            F.F.K.L. .B.L M.F.N.O.P.q q q q q q q q 4.P S 1.{.      ",
"          Q.F.E.R.F.p.S.T.U.V.W.g.q q q q q q q X.P S Y.Z.`.7       ",
"         +.+++@+#+F. .q $+%+&+*+=+-+q q q q q q ;+4.R >+b.,+'+q     ",
"        )+!+~+{+]+^+*.q /+(+_+:+<+[+}+|+I.q q q q 1.1.1+2+3+4+5+    ",
"      6+7+8+9+0+a+b+I.q q c+d+e+f+g+h+i+j+q q q q A k+l+m+E n+o+p+  ",
"      q+r+s+t+u+v+w+q q I.x+q w+y+z+A+B+C+D+I.I.E+F+l+l+G+).H+I+z   ",
"      q+J+K+L+/+M+N+q I.I.q q O O+M+P+Q+R+S+I.x+O+T+l+E U+V+W+X+{.  ",
"      Y+Z+`+q  @q q r I.q I..@j+r E++@@@#@$@M+%@q q &@l+*@E =@{.-@  ",
"    w+;@I.q L+q+>@,@j+j+r *.*.'@q q )@!@~@w+{@q q q q t u.]@^@/@q   ",
"     @(@r q _@q )@j+:@p.r <@q I.O+r [@}@|@1@2@q q q   h M 3@4@3+y   ",
"    5@r 6@*.O A >@O O 7@r q q q j+q q 8@9@0@q q q       q a@n+b@q q ",
"    c@q O I.q d@L+6@O e@r q q q q q q  @{@f@q q         g@h@i@j@k@l@",
"    c@q r q q q q I.m@O r I.q q q q q n@o@p@q           q@r@s@t@u@6+",
"  q M+{@*.q q I.O+O+v@O r q O+q I.p.q q q q               w@x@y@z@q ",
"  ;@ @  O '@j+j+q A@A *.;+q {.I.m.R P.q q                 4.B@C@H q ",
"  {@  *.    j+D@E@q _.q q {.q I.S F@G@q                    .H@4+I@{.",
"g@          P J@z@K@L@S q 7 M@E L N@O@P                   q : P@Q@4.",
"            {.*@M t G.q R@;.S@T@U@V@W@L :                   X@t.6 q ",
"            R Y@P@Z@{.'+`@ #.#V++#@###$#`.                  %#*@7 q ",
"        S Z 1.&#*#=#E M -#;#>#+#'.E ,#'#)#7                 X@L 6 q ",
"        4.q !#~#$#{#4.Z q P {.]#^#^ /#(#S S                 1.!.;. .",
"        P I._#:#E R R P q <#P [#}#|#{.{.{.{.                q 6 R 4.",
"    l@` P 4.4.1#Z 4.4.4.2#q 3#4#Y+5#6#E+q q >@>@              {.q q ",
"    5.7#q q 6.g@5.8#*.6@r j+..6#9#0#0#a#q I.q+d+              q q q ",
"    5#O+*.O Y+5#b#c#d#e#.@I.j+;@5#f#q+Y+q q {@`+              {.q q ",
"    Y+I.I.E+;@5#g#h#i#W *.j+j#;@0#5#0#;@q q k#l#            X@q q q ",
"    q+m#n#a#Y+5#o#p#q#r#s#.@5#Y+5#5#q+M+q I.d+d+            X@t#q q ",
"    {@u#m#A ;@5#v#c@w#E+.@x#0#0#6#>@>@'@I.y#d+z#          %#A#X@q  .",
"      ;@*.*.;@5#B#C#+@o@q  @{@;@;@>@D#q I.Y+E#{@          t.4.t q q ",
"    r >@r#O %+Y+F#G#H#Y+q+>@>@d+{@ @q q E#{@{@{@      6 : 2#q 1.q q ",
"    E+I#d+j+J#q+Y+Y+K#{@ @ @L#M#q )@q q {@N#O#)@    P#q q q q 4.q q ",
"  *.Q#d+R#S#T#U#r#U#{@{@V#L#W#q q q q q 2@)@)@    q q     2#q q q q ",
"  X#Y#c@Z#`#U# $q+w+{@{@{@)@)@)@)@q )@q q )@              Z {.q q   ",
"  *.O c@>@{@{@.$U# @ @V#+$)@)@$+q M#)@@$q                 #$q q q   ",
"v@q j+ @$$>@d+d+I.d+)@)@)@)@$+%$@$M#)@)@q                 q q q     ",
"  O+*.M+d+>@k#z#E+Y+>@I#&$M#%$q )@q )@@$              1.H.q q q     ",
"  E+3#U# @V#{@{@a#Y+d+*$=$q q q )@q )@q               P q q q       ",
"v@*.-$*.d+{@k#>@0#;@{@ @ @{@L+q {@q )@q                 q q q       ",
";$Q#>$I.,$'$)$q+5#6#0#Y+Y+>@M+!${@q q                               ",
"~$Q#Q#A {$O#{@U#9#9#0#Y+Y+>@M+]${@q q                               ",
"~$v@E+;$  {@q+r#0#;@q+Y+Y+r+q {@{@q                                 ",
"  ;$  ^$    {@/$6#5#d+{@{@q q {@V#                                  ",
"            q+5#($5#_$:$<$q q {@ @                                  ",
"            Y+5#6#Y+[$q+>@'@>@}$                                    ",
"            ;@;@6#Y+|$>@1$q+Z#`#                                    ",
"            2$;@3$Y+4$q+I.q+q+q+ @                                  ",
"              5$;@0#;@r+I.;@;@>@;@                                  ",
"              0#q *.q I.I.y#0#6$6$Y+                                ",
"              q+'@I.q q q I.7$8$q+;@                                ",
"                >@9$q q q q 0$Y+a$q p.                              ",
"                  q q q q q q b$Y+q q q                             ",
"                  q q q q q q q+c$q q q                             ",
"                    q q q q q d$l@q q q                             ",
"                    q q q q q q q q q q G.                          ",
"                    q q q q q q q q q z e$                          ",
"                        q q q q q q q q q                           ",
"                          q q q q q q z q                           ",
"                          q I.z q q f$z q q                         ",
"                            g$I.q : z h$q q                         ",
"                              q q q z q q q                         ",
"                              q q q z z I.q                         ",
"                              z : : h$i$7 q q                       ",
"                              z j$q q : q I.k$O+                    ",
"                                q q q {.q X+{.q                     ",
"                                q q q q l$m.7 m.{.                  ",
"                              q P#: R P S m$6 z {.                  ",
"                              P !.n$Z ;.o$p$q$r$q                   ",
"                          L Z o$m$o$S m.{.: z s$q O+                ",
"                        h h t$u$m$m.v$7 q q q q g$                  ",
"                      h w$&.t$m$x$y$m.z$q q q q                     ",
"                Z Z L L &.A$S m.m.B$z q q C$4#4#                    ",
"              /.g ;.P o$g z z f$f$z 4#4#4#4#4#4#                    ",
"                          f$z z z z z z                             "};
