/* XPM */
static char * A3_xpm[] = {
"43 93 553 2",
"  	c None",
". 	c #745D5A",
"+ 	c #846A66",
"@ 	c #574847",
"# 	c #866E68",
"$ 	c #8A746E",
"% 	c #282E32",
"& 	c #462D2B",
"* 	c #735E59",
"= 	c #65504E",
"- 	c #614D4A",
"; 	c #4C3A39",
"> 	c #302726",
", 	c #846C66",
"' 	c #846A65",
") 	c #1D2328",
"! 	c #4A3633",
"~ 	c #5B4745",
"{ 	c #66504E",
"] 	c #5C4946",
"^ 	c #423230",
"/ 	c #251D1C",
"( 	c #836965",
"_ 	c #87716A",
": 	c #8B766E",
"< 	c #171D22",
"[ 	c #795753",
"} 	c #5B4845",
"| 	c #5D4946",
"1 	c #504140",
"2 	c #231C1B",
"3 	c #734D49",
"4 	c #643E3C",
"5 	c #754F4C",
"6 	c #5E4643",
"7 	c #7F635F",
"8 	c #22282C",
"9 	c #5E4442",
"0 	c #6D5351",
"a 	c #5C4846",
"b 	c #594744",
"c 	c #594745",
"d 	c #89736A",
"e 	c #463331",
"f 	c #3D2826",
"g 	c #2B1210",
"h 	c #846B66",
"i 	c #65514E",
"j 	c #6F5553",
"k 	c #694D4A",
"l 	c #604C4A",
"m 	c #5E4B48",
"n 	c #61504E",
"o 	c #181211",
"p 	c #4F302E",
"q 	c #664D49",
"r 	c #866F6D",
"s 	c #3D1C18",
"t 	c #6E3E3B",
"u 	c #311310",
"v 	c #231414",
"w 	c #53403E",
"x 	c #2C1D1C",
"y 	c #1E1210",
"z 	c #150F0F",
"A 	c #171111",
"B 	c #4A3837",
"C 	c #3C1D1B",
"D 	c #371A17",
"E 	c #867069",
"F 	c #836865",
"G 	c #7F615D",
"H 	c #3B2927",
"I 	c #301D1C",
"J 	c #271E1D",
"K 	c #14100F",
"L 	c #000000",
"M 	c #100808",
"N 	c #95928C",
"O 	c #99845D",
"P 	c #B29F7E",
"Q 	c #7C5E59",
"R 	c #7E5F5A",
"S 	c #836863",
"T 	c #584442",
"U 	c #4B3C39",
"V 	c #010101",
"W 	c #150807",
"X 	c #433734",
"Y 	c #201817",
"Z 	c #2E0000",
"` 	c #2D0000",
" .	c #634D4A",
"..	c #4B3A38",
"+.	c #3D302E",
"@.	c #372A28",
"#.	c #3C2724",
"$.	c #3B2623",
"%.	c #010000",
"&.	c #54413E",
"*.	c #624F4D",
"=.	c #604C49",
"-.	c #221B19",
";.	c #473633",
">.	c #271716",
",.	c #271817",
"'.	c #96948E",
").	c #927B54",
"!.	c #BCA889",
"~.	c #3F302E",
"{.	c #67504C",
"].	c #574340",
"^.	c #4A3938",
"/.	c #201110",
"(.	c #201615",
"_.	c #8E7B73",
":.	c #280000",
"<.	c #674642",
"[.	c #604846",
"}.	c #533D3B",
"|.	c #270E0D",
"1.	c #171212",
"2.	c #050404",
"3.	c #0D0403",
"4.	c #392B29",
"5.	c #2B2120",
"6.	c #160502",
"7.	c #020000",
"8.	c #564240",
"9.	c #41302F",
"0.	c #56423F",
"a.	c #563D3C",
"b.	c #4F3937",
"c.	c #4C302E",
"d.	c #4F3331",
"e.	c #432C29",
"f.	c #392522",
"g.	c #4F3230",
"h.	c #261210",
"i.	c #342928",
"j.	c #180C0B",
"k.	c #3C2C2B",
"l.	c #271715",
"m.	c #462F2C",
"n.	c #4A3432",
"o.	c #574441",
"p.	c #422E2C",
"q.	c #4E3937",
"r.	c #604A47",
"s.	c #513D3B",
"t.	c #4F413F",
"u.	c #372523",
"v.	c #0D0000",
"w.	c #433130",
"x.	c #2E2525",
"y.	c #343333",
"z.	c #232222",
"A.	c #252323",
"B.	c #262322",
"C.	c #413433",
"D.	c #270F0C",
"E.	c #564442",
"F.	c #554543",
"G.	c #181717",
"H.	c #261A18",
"I.	c #1C1B1B",
"J.	c #58332D",
"K.	c #371715",
"L.	c #050000",
"M.	c #6D5955",
"N.	c #55413E",
"O.	c #574543",
"P.	c #53413F",
"Q.	c #120908",
"R.	c #0B0504",
"S.	c #100807",
"T.	c #635F5F",
"U.	c #0D0201",
"V.	c #4C2722",
"W.	c #210C0A",
"X.	c #270100",
"Y.	c #403332",
"Z.	c #534240",
"`.	c #564340",
" +	c #554341",
".+	c #121212",
"++	c #0D0606",
"@+	c #1C1513",
"#+	c #373131",
"$+	c #3B3839",
"%+	c #754F4A",
"&+	c #1C0C0B",
"*+	c #1D1616",
"=+	c #423332",
"-+	c #5E4745",
";+	c #544240",
">+	c #0E0301",
",+	c #0D0C0C",
"'+	c #070000",
")+	c #221615",
"!+	c #331C18",
"~+	c #1E1717",
"{+	c #3E2F2E",
"]+	c #5E4945",
"^+	c #554240",
"/+	c #503E3C",
"(+	c #070606",
"_+	c #746262",
":+	c #444243",
"<+	c #5F3732",
"[+	c #42201B",
"}+	c #23110D",
"|+	c #2B2221",
"1+	c #392D2B",
"2+	c #675250",
"3+	c #41312F",
"4+	c #0C0000",
"5+	c #070201",
"6+	c #594C4C",
"7+	c #716D6D",
"8+	c #170A08",
"9+	c #1D1413",
"0+	c #3A2D2C",
"a+	c #4D3A38",
"b+	c #352827",
"c+	c #3A2B2A",
"d+	c #302120",
"e+	c #201312",
"f+	c #575355",
"g+	c #4E4A4C",
"h+	c #140000",
"i+	c #512D27",
"j+	c #59423E",
"k+	c #0B0605",
"l+	c #281613",
"m+	c #201412",
"n+	c #3C302E",
"o+	c #2E2523",
"p+	c #53433E",
"q+	c #634F4C",
"r+	c #5C4645",
"s+	c #323030",
"t+	c #1E0000",
"u+	c #6B4D48",
"v+	c #362522",
"w+	c #372927",
"x+	c #785F5C",
"y+	c #5B534D",
"z+	c #0B1014",
"A+	c #21272B",
"B+	c #262C30",
"C+	c #070404",
"D+	c #4F4C4C",
"E+	c #6A6465",
"F+	c #6B5D5B",
"G+	c #B38B86",
"H+	c #7C5853",
"I+	c #311F1D",
"J+	c #614E4B",
"K+	c #664F4B",
"L+	c #6B5452",
"M+	c #614D4B",
"N+	c #2E2E30",
"O+	c #3A3131",
"P+	c #0B0A0A",
"Q+	c #1A1616",
"R+	c #423E3F",
"S+	c #766F70",
"T+	c #B77870",
"U+	c #A26D66",
"V+	c #251715",
"W+	c #42231E",
"X+	c #372C2A",
"Y+	c #5A4745",
"Z+	c #705E59",
"`+	c #52423F",
" @	c #201A1A",
".@	c #120F0D",
"+@	c #715858",
"@@	c #484343",
"#@	c #646061",
"$@	c #8A7370",
"%@	c #422E2A",
"&@	c #423533",
"*@	c #5D4A47",
"=@	c #685350",
"-@	c #241B1A",
";@	c #261F1E",
">@	c #290000",
",@	c #837879",
"'@	c #C5A0A2",
")@	c #C7A7AA",
"!@	c #9C8C8F",
"~@	c #92696A",
"{@	c #B09A9B",
"]@	c #8F110D",
"^@	c #6B0000",
"/@	c #544344",
"(@	c #614A47",
"_@	c #403230",
":@	c #2A2120",
"<@	c #1C1616",
"[@	c #736B6C",
"}@	c #877C7D",
"|@	c #8C8081",
"1@	c #908485",
"2@	c #100000",
"3@	c #76291D",
"4@	c #3F211F",
"5@	c #513F3D",
"6@	c #372A29",
"7@	c #140C0B",
"8@	c #5B5859",
"9@	c #8D8182",
"0@	c #998A8D",
"a@	c #938687",
"b@	c #060000",
"c@	c #94301E",
"d@	c #5A3E3A",
"e@	c #4A3A38",
"f@	c #28201F",
"g@	c #221919",
"h@	c #423C3C",
"i@	c #3C2D2E",
"j@	c #7C6767",
"k@	c #8F8384",
"l@	c #6E6162",
"m@	c #52221B",
"n@	c #694643",
"o@	c #634F4B",
"p@	c #231A19",
"q@	c #312625",
"r@	c #4E3E3C",
"s@	c #333030",
"t@	c #2B2121",
"u@	c #867B7C",
"v@	c #281919",
"w@	c #110A09",
"x@	c #161313",
"y@	c #756D6E",
"z@	c #615D5F",
"A@	c #2D2B2C",
"B@	c #98898C",
"C@	c #604C4C",
"D@	c #110E0E",
"E@	c #180000",
"F@	c #150000",
"G@	c #615251",
"H@	c #2E2D2D",
"I@	c #401612",
"J@	c #3E0000",
"K@	c #1A0000",
"L@	c #150C0A",
"M@	c #21120F",
"N@	c #3F2521",
"O@	c #201411",
"P@	c #342929",
"Q@	c #2A1513",
"R@	c #3C3231",
"S@	c #0B0000",
"T@	c #211C1C",
"U@	c #020202",
"V@	c #2D2423",
"W@	c #402F2E",
"X@	c #443332",
"Y@	c #433332",
"Z@	c #29201F",
"`@	c #1C1515",
" #	c #1E1513",
".#	c #170B08",
"+#	c #571E15",
"@#	c #57332F",
"##	c #181313",
"$#	c #1E1817",
"%#	c #4E3D3B",
"&#	c #4C3B39",
"*#	c #1E1716",
"=#	c #312422",
"-#	c #1C1615",
";#	c #221B1B",
">#	c #503F3D",
",#	c #52403E",
"'#	c #4D3C3A",
")#	c #201918",
"!#	c #130D0D",
"~#	c #0C0604",
"{#	c #421B17",
"]#	c #140F0F",
"^#	c #4F3E3C",
"/#	c #574542",
"(#	c #1F1817",
"_#	c #3E2E2D",
":#	c #170B09",
"<#	c #080403",
"[#	c #120000",
"}#	c #473534",
"|#	c #352C29",
"1#	c #6E5754",
"2#	c #634E4C",
"3#	c #52413F",
"4#	c #332827",
"5#	c #292020",
"6#	c #261E1D",
"7#	c #0F0201",
"8#	c #310807",
"9#	c #281A19",
"0#	c #392B2A",
"a#	c #2D2120",
"b#	c #211919",
"c#	c #1E1515",
"d#	c #261C1B",
"e#	c #2C2221",
"f#	c #7C4842",
"g#	c #64261D",
"h#	c #080201",
"i#	c #312727",
"j#	c #776968",
"k#	c #030000",
"l#	c #937476",
"m#	c #B59D9E",
"n#	c #390000",
"o#	c #5B0000",
"p#	c #A59293",
"q#	c #AC9798",
"r#	c #A08F92",
"s#	c #322728",
"t#	c #201A19",
"u#	c #080000",
"v#	c #C2A4A7",
"w#	c #AB9598",
"x#	c #948788",
"y#	c #310000",
"z#	c #854D47",
"A#	c #846062",
"B#	c #7F7677",
"C#	c #110402",
"D#	c #CDA7AA",
"E#	c #8C7F81",
"F#	c #331715",
"G#	c #040000",
"H#	c #8C605B",
"I#	c #4C4949",
"J#	c #4A3734",
"K#	c #971A05",
"L#	c #0B0201",
"M#	c #454142",
"N#	c #0C0A09",
"O#	c #6D6768",
"P#	c #664F50",
"Q#	c #7B0600",
"R#	c #090808",
"S#	c #413E3E",
"T#	c #2A0505",
"U#	c #1E1111",
"V#	c #050100",
"W#	c #3D393A",
"X#	c #2E2B2B",
"Y#	c #343031",
"Z#	c #181414",
"`#	c #222020",
" $	c #1F1B1B",
".$	c #2A2727",
"+$	c #160807",
"@$	c #151111",
"#$	c #050505",
"$$	c #463838",
"%$	c #100F0F",
"&$	c #201310",
"*$	c #302D2D",
"=$	c #282523",
"-$	c #281C19",
";$	c #A79394",
">$	c #3B3434",
",$	c #302C2C",
"'$	c #383535",
")$	c #3C3A3B",
"!$	c #111010",
"~$	c #312D2E",
"{$	c #231F1F",
"]$	c #615B5B",
"^$	c #585455",
"/$	c #544F50",
"($	c #2B2929",
"_$	c #524F50",
":$	c #252223",
"<$	c #6F6869",
"[$	c #605C5D",
"}$	c #7A7172",
"|$	c #776F70",
"1$	c #83797A",
"2$	c #817677",
"3$	c #1B1A1A",
"4$	c #4B4748",
"5$	c #312E2E",
"6$	c #1C1818",
"7$	c #726B6C",
"8$	c #696364",
"9$	c #5C595A",
"0$	c #535050",
"a$	c #3F3A3A",
"b$	c #938587",
"c$	c #5E5B5C",
"d$	c #7A7273",
"e$	c #454242",
"f$	c #343131",
"g$	c #3F3B3C",
"h$	c #282626",
"i$	c #3A3636",
"j$	c #6E6868",
"k$	c #16110F",
"l$	c #100404",
"m$	c #130909",
"n$	c #020101",
"o$	c #1D1919",
"p$	c #221E1F",
"q$	c #1B1718",
"r$	c #585556",
"s$	c #382C2B",
"t$	c #373030",
"u$	c #1F1312",
"v$	c #231B18",
"w$	c #090000",
"x$	c #1A0E0D",
"y$	c #2B1D1C",
"z$	c #211514",
"A$	c #161111",
"B$	c #160E0E",
"C$	c #3B2F2E",
"D$	c #272120",
"E$	c #140E0C",
"F$	c #271A19",
"G$	c #090101",
"H$	c #655553",
"I$	c #0F0403",
"J$	c #160A09",
"K$	c #161110",
"L$	c #271B1A",
"M$	c #473C3B",
"N$	c #5F4B49",
"O$	c #382827",
"P$	c #705E5D",
"Q$	c #2F2322",
"R$	c #1D1211",
"S$	c #21100D",
"T$	c #180603",
"U$	c #43302F",
"V$	c #251817",
"W$	c #2B1E1D",
"X$	c #0C0808",
"Y$	c #1B0F0E",
"Z$	c #0C0302",
"`$	c #040202",
" %	c #2E2220",
"                                                    . + @                             ",
"                                              # $ % & * = - ; >                       ",
"                                            . , # ' ) ! ~ { ] ^ /                     ",
"                                          ( ' _ . : < [ } - | ~ 1 2                   ",
"                                          3 4 5 6 + 7 8 9 0 a b c 2                   ",
"                                        d e e f g g h i j k l m n 2 o                 ",
"                                        ( e p g q r s t u v w x y z A                 ",
"                                        B C D E F G + H I J K L L M                   ",
"                                      N O P L Q R S T U V W X Y A                     ",
"                                      L L Z `  .T ..+.@.#.$.%.L L                     ",
"                                      L L Z Z &.*.=.-.;.>.,.L                         ",
"                                      '.).!.Z ~.{.].^.V /.(.L                         ",
"                                      _.:.Z <.T [.}.|.1.2.L 3.4.5.                    ",
"                                      6.7.Z 8.9.0.a.b.c.d.e.f.g.h.i.                  ",
"                                      L j.k.l.m.n.o.p.q.r.s.t.u.v.w.x.                ",
"                                          y.z.A.B.C.D.g E.=.F.G.L H.L                 ",
"                                      z.I.( J.. K.L.; M.N.O.P.Q.L R.S.                ",
"                                    T.U.V.r h h W.X.Y.Z.`. +P.L L .+++@+              ",
"                                #+$+B %+%+. + . &+L *+=+-+;+O.>+L L ,+L               ",
"                              6.T.L '+C i k.)+!+L L ~+{+]+^+/+6.L L (+L               ",
"                            L._+:+L L 6.6.U.<+[+}+L |+1+2+] 3+4+L 5+L L               ",
"                            6+7+#+L L 6.8+%.%.L L L 9+0+a+b+c+d+e+7.%.L               ",
"                            f+g+g+L h+i+j+L k+l+!+!+m+n+o+p+q+r+d+L L L               ",
"                            g+s+T.L t+u+u+%.!+v+w+w+L x+y+z+A+B+B L L L               ",
"                          C+G.z.D+E+F+G+G+%.}+j+H+H+7.I+J+K+L+M+N+O+o P+              ",
"                        L I.Q+E+R+S+S+T+U+u+!+V+}+W+<+X+Y+b Z+ +`+ @2                 ",
"                        L .@+@@@D+#@S+$@H+u+%@!+!+!+<+&@*@T =@ +-@;@o                 ",
"                        L >@t+!+,@'@)@!@~@Z {@]@^@L /@/@C (@s._@:@o o                 ",
"                        v.L L <@[@}@|@1@t+!@!@2@2@L .@L 3@4@5@6@7@L                   ",
"                        %.L L L 8@9@,@,@t+0@a@2@b@L L L c@d@;+e@f@g@2                 ",
"                      L L L Z Z t+h@1@i@j@k@l@2@L L L L m@n@o@p@q@r@B                 ",
"                  L L L s@L L %.%.t@}@1@1@u@v@w@L L L L x@y@7+z@A@L )+                ",
"                    L L @@L %.%.L L E+B@1@C@%.D@L L L L Q+,@7+7+$+z.z.                ",
"                    E@L Q+L t+F@L h+Z 2@s@L L L L L L L S+,@G@7+H@G.G.                ",
"                    Z L Q+  I@t+m@J@K@Z !+L L L L L L@M@1@N@> j.g+L L                 ",
"                    t+  Q+  L 6.6.6.L 6.4+L L L L L M@O@P@Q@R@S@T@L L                 ",
"                  #+U@P+    W.V@B W@X@Y@Z@`@6.7. #.@}+j+.#+#@#L $+L                   ",
"                  P+P+      ##$#8.%#;+&#*#9+W.U.w+L =#u+t+V.L L L                     ",
"                  P+        -#;#>#,#'#P.)#!#4+L }+~#L !+L {#L L 4+                    ",
"                  z.        2 ]#O.^#/# +(#|+_#j.}+:#<#S@W.[#6.&+L                     ",
"                        }#)+h |#1#2#3#4#1.5#6#V@W+<#}+%.6.7#8#4+L                     ",
"                        )+9#k.0#B k.a#b#c#d#e#f#g#L %.L h#6.X.L                       ",
"                      j.6.k.i#7.4+4+4+!+}+S+W+w+j#{@}+L L W.k#L                       ",
"                    S+Z l#m#)@~@n#Z J@o#!@p#1@1@q#r#s#L t#u#L L                       ",
"                    ,@t+{@v#w#x#y#J@J@z#)@1@}@!@0@a@t@L > L L                         ",
"                    E+%.,@,@!@!@K@Z t+A#!@S+B#1@1@}@t@u#L L C#                        ",
"                    ,@2@,@,@D#!@%.%.t+x#!@E#a@!@!@,@i+6.7.F#G#                        ",
"                    ,@t+S+{@E+8@L L Z !@!@!@B@1@!@,@W.@ L.s L                         ",
"                  L ,@/@S+8@t@%.Z [+A#,@,@1@,@,@S+H#+ X.W.X.L                         ",
"              s#8@D+I#R+D+L 2@2@+@1@1@!@!@S+S+J#K#m@C L.L#6.                          ",
"              E+8@D+M#R+N#L t@8@O#,@,@S+E+,@P#Z Q#L C L C#6.                          ",
"            s@Q+Q+L L L L R#D@S#8@8@8@D+R+g#T#U#t+L g L V#6.L                         ",
"          I#R+Q+Q+s@Q+L D@D@R#L R+D+W#X#Q+s@Q+Q+!+L W.L S@7.                          ",
"          R+Y#Q+Q+Z#L R#Q+Q+L L `#D+s@ $Q+Q+Q+.$[+G#+$L L L                           ",
"        Q+Q+Q+Q+@$L Q+Q+Q+s@`#L L R+Y#Z##$L L $$Z L L L L L                           ",
"        D+.$@$#$L L #$Q+R+Q+Q+R#L s@@$U@L L L J@ #%$L L L L                           ",
"        8@s@L L L L L D@R+Q+Q+Q+Q+`#L L L U@@$&$s@s@L     L                           ",
"      8@*$Q+D@L =$L L L s@Q+Q+Q+D@R#L L L @$!+Q+L t+Q+ #  L                           ",
"      S+S+8@$$L D+L L L R+Q+Q+.$L @$R+D@L Q+s@s@-$ #R+L                               ",
"    ;$,@,@E+s#>$8@@$U@L R+.$Q+s@Q+,$W#Q+L Q+s@s@s@'$R+                                ",
"    ,@,@,@)$L 8@8@Y#Z#L Q+s@!$L Q+R+~$Q+Q+{$s@s@R+R+R+                                ",
"!@E+R+]$,@L L R+'$s@Q+Q+Q+s@s@R+.@X#Q+Y#'$s@s@s@s@.$Q+                                ",
"!@E+R+^$/$L <@E+R+R+Y#Q+R#L   R+.@{$.$R+R+ $X#X#Q+Q+                                  ",
"S+S+8@E+L ($R+R+_$s@s@s@        s@L s@R+R+Q+Q+Q+X#s@                                  ",
"1@D+%.:$E+,@,@<$[$Q+L L         D+@@.@R+s@Q+Q+X#s@R+s@                                ",
"}$E+L s#|$1$!@2$<$s@            8@8@3$4$R+Q+Q+X#s@5$6$                                ",
"E+7$2@+@1$|$,@S+,@1@            8$9$0$a$R+X#6$6$s@6$Q+                                ",
"%.$$%.!+!@E+,@b$)@B@1@          E+8$c$R+W#s@X#Q+Q+Q+6$s@                              ",
"%.L L S@,@1@d$,@,@,@S+2@        c$E+E+s@s@s@.$Q+Q+ $5$s@D+                            ",
"  L L L :#1@{@8@s@g#[+@@          D+D+e$s@L @$Q+.$s@f$g$E+8@                          ",
"    L L L E+!@t@}+L >@t+            s@Q+.$h$#$Q+.$s@g$M#D+D+D+                        ",
"    L L L D+,@L 4+L.L G#              R+Q+Y#Y#Q+Q+Q+i$D+8@D+j$@@                      ",
"       #k$!@$+L 4+l$m$n$              o$R+p$Q+Q+@$L q$i$8@}+L D+r$                    ",
"       # #s$L %.j.j.j.m$L                 L L L L L U@@$8@!+%.t$D+                    ",
"        }+ #L 7.4+u$j.j.L                 L L L L L L L `#$$[+$$D+v$                  ",
"         # #L 7.w$)+x$U.L                     L L L L L L D@}+/@F+ #}+                ",
"          w+L S.7.y$z$x$%.L                         L L L L .@L L L L                 ",
"          }+L j.A$R@)+)+U.L                         L L L L L L L L L L               ",
"            L B$R@C$d+d+U.L                           L L L }+L L L L L L             ",
"              L D$d+d+s$7.L                             E$L }+o L L L L L             ",
"              7.L F$d+k.u#L                               L  #L L L L L L             ",
"              L m$)+@ k.L w$                                 #L k+L L G$U.U.7.        ",
"                U.)+H$)+L d+o                                     L L I$J$j.j.j.      ",
"                L k.H$7.T d+k+                                    K$L j.j.j.x$z$      ",
"                L j.B j.)+)+R@                                        2 R@)+)+L$k.    ",
"                L k.B k.M$k.>                                           k.k.k.k.k.d+  ",
"                j.j.B i @ @ 2 )+                                      B N$k.k.k.O$d+  ",
"              T P$M$Q$j.j.j.> R$                                  B W.S$9.d+d+)+d+d+7.",
"          B k.k.@ M$M$R@M$M$M$>                             T$g U$a k.4+d+)+d+)+d+V$7.",
"        B B k.W$)+7.7.7.j.> > X$                            g W.g 6.)+4+L U.j.Y$)+Y$L ",
"    B d+d+j.d+R@R@R@R@> 2 Z$k+n$                      i k.4+7.7.L L L k+k+k+k+k+k+k+  ",
"d+H$j.U.7.`$k+k+k+k+k+k+k+k+k+k+                                                      ",
"  L k+k+k+k+k+k+k+k+k+k+k+k+k+ %                                                      "};
