/* XPM */
static char * A4_xpm[] = {
"47 92 530 2",
"  	c None",
". 	c #745D5A",
"+ 	c #846A66",
"@ 	c #846B66",
"# 	c #65514E",
"$ 	c #513E3D",
"% 	c #403332",
"& 	c #544544",
"* 	c #87716A",
"= 	c #866F68",
"- 	c #856D67",
"; 	c #735D59",
"> 	c #604C49",
", 	c #211A18",
"' 	c #2D2524",
") 	c #866F69",
"! 	c #7E6763",
"~ 	c #806864",
"{ 	c #473B3A",
"] 	c #3A2F2F",
"^ 	c #221615",
"/ 	c #181211",
"( 	c #6F413C",
"_ 	c #89726C",
": 	c #8B766F",
"< 	c #7F6863",
"[ 	c #7F6762",
"} 	c #645351",
"| 	c #423736",
"1 	c #180C0B",
"2 	c #0D0201",
"3 	c #7D5C58",
"4 	c #866E68",
"5 	c #88716B",
"6 	c #81645E",
"7 	c #816965",
"8 	c #64504D",
"9 	c #302928",
"0 	c #020000",
"a 	c #694E4A",
"b 	c #6B403F",
"c 	c #7E5F5A",
"d 	c #856D65",
"e 	c #5A4542",
"f 	c #715956",
"g 	c #523D3B",
"h 	c #3D312E",
"i 	c #080000",
"j 	c #2B1210",
"k 	c #704C47",
"l 	c #71554F",
"m 	c #584442",
"n 	c #4C3733",
"o 	c #0C0000",
"p 	c #100000",
"q 	c #1C0D0C",
"r 	c #1A0A08",
"s 	c #000000",
"t 	c #161010",
"u 	c #58332E",
"v 	c #6E514B",
"w 	c #614642",
"x 	c #7D6360",
"y 	c #282E32",
"z 	c #463230",
"A 	c #5F4744",
"B 	c #6E5451",
"C 	c #806560",
"D 	c #2B1C1B",
"E 	c #100402",
"F 	c #1C1513",
"G 	c #42221F",
"H 	c #6A4C48",
"I 	c #6D5652",
"J 	c #6B534F",
"K 	c #3C2120",
"L 	c #391E1D",
"M 	c #2C1512",
"N 	c #1A0705",
"O 	c #210C0A",
"P 	c #5E4A47",
"Q 	c #6A5552",
"R 	c #7C635E",
"S 	c #806761",
"T 	c #5B423F",
"U 	c #3C2826",
"V 	c #2D1B1A",
"W 	c #1E1312",
"X 	c #4A3632",
"Y 	c #77605C",
"Z 	c #68534F",
"` 	c #685655",
" .	c #2E2322",
"..	c #1C1412",
"+.	c #181413",
"@.	c #030202",
"#.	c #3C2C2B",
"$.	c #3C2C2A",
"%.	c #493736",
"&.	c #423838",
"*.	c #38383A",
"=.	c #645453",
"-.	c #634946",
";.	c #6A514E",
">.	c #755D59",
",.	c #745C59",
"'.	c #816864",
").	c #1E0D0B",
"!.	c #5A4744",
"~.	c #644F4D",
"{.	c #313437",
"].	c #5E4D4D",
"^.	c #6D524F",
"/.	c #705551",
"(.	c #79605C",
"_.	c #775A56",
":.	c #3E2C2A",
"<.	c #473331",
"[.	c #644F4C",
"}.	c #765F5B",
"|.	c #2E3235",
"1.	c #6D524E",
"2.	c #725956",
"3.	c #735C58",
"4.	c #5E4442",
"5.	c #331F1E",
"6.	c #634D4A",
"7.	c #826A65",
"8.	c #2F2727",
"9.	c #3B3839",
"0.	c #816964",
"a.	c #846F69",
"b.	c #7F6763",
"c.	c #706968",
"d.	c #493633",
"e.	c #4A3332",
"f.	c #342321",
"g.	c #765F5C",
"h.	c #614D4A",
"i.	c #4A3837",
"j.	c #231C1B",
"k.	c #181717",
"l.	c #171212",
"m.	c #836A63",
"n.	c #775651",
"o.	c #7B605C",
"p.	c #67524F",
"q.	c #584543",
"r.	c #4E4A4C",
"s.	c #393738",
"t.	c #292323",
"u.	c #634E4B",
"v.	c #7C6460",
"w.	c #685451",
"x.	c #665553",
"y.	c #302726",
"z.	c #3C1D1B",
"A.	c #765550",
"B.	c #7B5E5A",
"C.	c #765E5A",
"D.	c #3E2B28",
"E.	c #332322",
"F.	c #160502",
"G.	c #271716",
"H.	c #474546",
"I.	c #232222",
"J.	c #54413F",
"K.	c #6C5753",
"L.	c #806763",
"M.	c #6C5653",
"N.	c #0B0605",
"O.	c #1B1A1A",
"P.	c #351C1A",
"Q.	c #86716B",
"R.	c #130604",
"S.	c #190906",
"T.	c #2E2D2D",
"U.	c #160E0E",
"V.	c #665653",
"W.	c #594543",
"X.	c #473C3B",
"Y.	c #0B0A0A",
"Z.	c #4F4C4C",
"`.	c #854D47",
" +	c #271210",
".+	c #775955",
"++	c #755E5B",
"@+	c #3C2928",
"#+	c #261312",
"$+	c #302120",
"%+	c #2D1F1E",
"&+	c #251817",
"*+	c #372927",
"=+	c #333030",
"-+	c #3C3231",
";+	c #231B18",
">+	c #6A6465",
",+	c #423E3F",
"'+	c #762B1E",
")+	c #39211E",
"!+	c #7E6662",
"~+	c #240E0B",
"{+	c #1B0B08",
"]+	c #322322",
"^+	c #4A3734",
"/+	c #3D3A3A",
"(+	c #18110F",
"_+	c #513A36",
":+	c #71423C",
"<+	c #6B4D48",
"[+	c #1E1513",
"}+	c #3A3333",
"|+	c #1E0000",
"1+	c #705A57",
"2+	c #5E4A48",
"3+	c #201413",
"4+	c #453332",
"5+	c #41302F",
"6+	c #4E3C3A",
"7+	c #5B5859",
"8+	c #020202",
"9+	c #5F3732",
"0+	c #46332F",
"a+	c #120F0D",
"b+	c #B09A9B",
"c+	c #010000",
"d+	c #7D6561",
"e+	c #7F6662",
"f+	c #403432",
"g+	c #584A49",
"h+	c #2A1715",
"i+	c #382827",
"j+	c #060404",
"k+	c #1A1616",
"l+	c #494545",
"m+	c #837879",
"n+	c #735E5A",
"o+	c #7A635F",
"p+	c #826964",
"q+	c #453634",
"r+	c #241D1B",
"s+	c #140502",
"t+	c #464343",
"u+	c #504D4D",
"v+	c #585556",
"w+	c #1C1616",
"x+	c #222020",
"y+	c #231F1F",
"z+	c #2B2121",
"A+	c #2E0000",
"B+	c #6F5B57",
"C+	c #79625E",
"D+	c #705A56",
"E+	c #2C2222",
"F+	c #0D0302",
"G+	c #363334",
"H+	c #343232",
"I+	c #110E0E",
"J+	c #454242",
"K+	c #484241",
"L+	c #393636",
"M+	c #230000",
"N+	c #53403F",
"O+	c #806964",
"P+	c #7D6661",
"Q+	c #392E2C",
"R+	c #352B29",
"S+	c #454142",
"T+	c #362B2A",
"U+	c #745F5D",
"V+	c #3C312F",
"W+	c #3F3230",
"X+	c #181212",
"Y+	c #413D3D",
"Z+	c #2B2929",
"`+	c #272425",
" @	c #908485",
".@	c #C7A7AA",
"+@	c #512D27",
"@@	c #715858",
"#@	c #78615D",
"$@	c #7C6561",
"%@	c #322827",
"&@	c #302827",
"*@	c #080808",
"=@	c #9C8C8F",
"-@	c #92696A",
";@	c #4B3836",
">@	c #755E5A",
",@	c #261E1E",
"'@	c #231B1A",
")@	c #0C0A09",
"!@	c #322E2E",
"~@	c #282424",
"{@	c #050505",
"]@	c #100F0F",
"^@	c #282626",
"/@	c #948788",
"(@	c #846062",
"_@	c #040403",
":@	c #6A5753",
"<@	c #806A64",
"[@	c #342A29",
"}@	c #29201E",
"|@	c #2C2929",
"1@	c #191614",
"2@	c #1E1E1E",
"3@	c #241D1C",
"4@	c #604C4C",
"5@	c #53403E",
"6@	c #655250",
"7@	c #77605D",
"8@	c #3B302E",
"9@	c #241B1A",
"0@	c #0A0606",
"a@	c #1A1413",
"b@	c #1F1918",
"c@	c #100B0A",
"d@	c #2E2525",
"e@	c #A08F92",
"f@	c #2B2220",
"g@	c #493A38",
"h@	c #4F4240",
"i@	c #7D5F5B",
"j@	c #4F413D",
"k@	c #483A38",
"l@	c #23201F",
"m@	c #151111",
"n@	c #171110",
"o@	c #5F5757",
"p@	c #A99597",
"q@	c #A39193",
"r@	c #7D6A67",
"s@	c #6D6260",
"t@	c #292626",
"u@	c #332826",
"v@	c #1B1616",
"w@	c #110E0C",
"x@	c #766F70",
"y@	c #331C18",
"z@	c #836E6C",
"A@	c #776A6A",
"B@	c #3A3737",
"C@	c #040303",
"D@	c #0E0C0A",
"E@	c #8C605B",
"F@	c #8F6D6D",
"G@	c #42201B",
"H@	c #201A19",
"I@	c #5B4440",
"J@	c #070606",
"K@	c #130E0D",
"L@	c #3A1915",
"M@	c #3E0000",
"N@	c #52221B",
"O@	c #56332D",
"P@	c #463636",
"Q@	c #382A28",
"R@	c #7B0600",
"S@	c #54423F",
"T@	c #261D1B",
"U@	c #191413",
"V@	c #151010",
"W@	c #281614",
"X@	c #64261D",
"Y@	c #611313",
"Z@	c #4C3C3D",
"`@	c #971A05",
" #	c #5B0800",
".#	c #372C2A",
"+#	c #020101",
"@#	c #4A3836",
"##	c #23110D",
"$#	c #473737",
"%#	c #382E2C",
"&#	c #3B2E2C",
"*#	c #0A0909",
"=#	c #473534",
"-#	c #360D0A",
";#	c #0B0000",
">#	c #473836",
",#	c #55423F",
"'#	c #705E5D",
")#	c #70291E",
"!#	c #352623",
"~#	c #433231",
"{#	c #574442",
"]#	c #100807",
"^#	c #2F201E",
"/#	c #846C66",
"(#	c #140000",
"_#	c #331715",
":#	c #090504",
"<#	c #877069",
"[#	c #8A0C00",
"}#	c #221210",
"|#	c #94301E",
"1#	c #27201F",
"2#	c #862C1D",
"3#	c #6B5D5B",
"4#	c #39302F",
"5#	c #4C0000",
"6#	c #170B09",
"7#	c #B49B9D",
"8#	c #544344",
"9#	c #BFA3A5",
"0#	c #7B6966",
"a#	c #484343",
"b#	c #33130A",
"c#	c #A18F90",
"d#	c #877C7D",
"e#	c #736B6C",
"f#	c #59423E",
"g#	c #9A2918",
"h#	c #8C8081",
"i#	c #2B0000",
"j#	c #210000",
"k#	c #463838",
"l#	c #938587",
"m#	c #8D8182",
"n#	c #998A8D",
"o#	c #150504",
"p#	c #3C3A3B",
"q#	c #7F5E5A",
"r#	c #766E6F",
"s#	c #7A7273",
"t#	c #84797A",
"u#	c #908385",
"v#	c #4B3A3A",
"w#	c #79130A",
"x#	c #322728",
"y#	c #676162",
"z#	c #5E5B5C",
"A#	c #6C6667",
"B#	c #7E7475",
"C#	c #1E0E0C",
"D#	c #343031",
"E#	c #150000",
"F#	c #5B0000",
"G#	c #0E0C0C",
"H#	c #151110",
"I#	c #383535",
"J#	c #524F4F",
"K#	c #620C09",
"L#	c #4B1F17",
"M#	c #1F1B1B",
"N#	c #3A160E",
"O#	c #220C07",
"P#	c #030000",
"Q#	c #575455",
"R#	c #1D0B09",
"S#	c #16110F",
"T#	c #010101",
"U#	c #4D4A4B",
"V#	c #2A2727",
"W#	c #0F0706",
"X#	c #090808",
"Y#	c #312E2E",
"Z#	c #3D393A",
"`#	c #4B4748",
" $	c #1C1818",
".$	c #2E2B2B",
"+$	c #4E4B4C",
"@$	c #1C0D0A",
"#$	c #464242",
"$$	c #171516",
"%$	c #363333",
"&$	c #3F3B3C",
"*$	c #302D2D",
"=$	c #494647",
"-$	c #181414",
";$	c #4E4949",
">$	c #645E5F",
",$	c #6D6768",
"'$	c #524F50",
")$	c #3A3636",
"!$	c #382F2F",
"~$	c #413E3E",
"{$	c #322F2F",
"]$	c #4C4949",
"^$	c #83797A",
"/$	c #7F7677",
"($	c #504B4C",
"_$	c #544E4F",
":$	c #726B6C",
"<$	c #776F70",
"[$	c #8B7E81",
"}$	c #433F40",
"|$	c #646061",
"1$	c #070000",
"2$	c #050000",
"3$	c #353131",
"4$	c #656061",
"5$	c #6E6869",
"6$	c #1A0B08",
"7$	c #201312",
"8$	c #2B1D1C",
"9$	c #120B0B",
"0$	c #271A19",
"a$	c #050302",
"b$	c #130909",
"c$	c #574646",
"d$	c #351A1A",
"e$	c #2D2B2C",
"f$	c #322C2C",
"g$	c #271D1C",
"h$	c #090101",
"i$	c #2B1E1D",
"j$	c #1B1111",
"k$	c #2B1714",
"l$	c #080100",
"m$	c #433736",
"n$	c #392A29",
"o$	c #53413E",
"p$	c #1D100F",
"q$	c #332423",
"r$	c #271B1A",
"s$	c #574847",
"t$	c #140908",
"u$	c #342524",
"v$	c #574745",
"w$	c #4A3938",
"x$	c #655553",
"y$	c #302524",
"z$	c #2B2120",
"A$	c #281E1D",
"B$	c #3F2F2E",
"C$	c #040202",
"D$	c #0C0302",
"E$	c #050202",
"                                                      . + @ @ # $ % &                         ",
"                                                    * = - + + ; > , '                         ",
"                                                  * + * ) @ @ ! ~ { ] ^ /                     ",
"                                                  @ ( @ @ _ : < [ } | 1 2                     ",
"                                                  3 ( + 4 5 6 < 7 8 9 1 0                     ",
"                                                . ( a b . c d e f g h i 2                     ",
"                                                j k l < # m n o p q r s t                     ",
"                                                u v w x y z A B C D E F                       ",
"                                                G H I J y K L M N s s                         ",
"                                                O P Q R S T U V W s s                         ",
"                                                O X Y Z ` y A  ...+.@.                        ",
"                                                #.$.%.&.*.=.-.;.>.,.'.                        ",
"                                                ).!.~.{.].^./.(._.:.<.s                       ",
"                                                1 [.}.|.1.2.3.4.5.6.7.8.s                     ",
"                                              9.0.a.b.c.d.!.e.f.g.Y h.i.j.                    ",
"                                      k.l.m.n.o.g.p.q.i.r.s.t.# u.v.}.w.x.                    ",
"                                      y.z.A.B.C.D.E.F.G.H.r.I.J.K.L.Y M.x.N.                  ",
"                                    O.P.Q.- # O R.F.^ S.l.T.9.s U.V.W.i.X.s Y.Z.              ",
"                                  `..  +.+++j @+#+$+%+&+*+=+I.s s -+$+$+y.s ;+>+,+,+          ",
"                                  '+i.)+!+++~+{+]+i.$+$+^+/+Z.s s (+_+:+<+[+}+=+/+Z.          ",
"                                  |+o $.1+2+F.3+4+5+6+^ ;+Z.7+s s 8+(+9+0+s (+a+Z.Z.          ",
"                                b+|+s c+P d+e+f+g+h+i+$+=+Z.Z.s s ,+s s s [+j+k+Z.l+          ",
"                                m+|+s s n+o+p+q+r+s+$+$+t+u+v+s w+=+s s s s x+y+,+z+          ",
"                              7+s A+|+s B+C+C+D+E+F+1 1 Z.v+G+s H+k+I+s a+Z.J+=+K+[+          ",
"                            Z.L+M+A+|+s N+C+O+P+Q+R+y./ ,+,+s s s =+,+s s S+Z.,+T+=+          ",
"                            Z.Z.A+A+A+s U+o+!+v.V+W+0 X+=+Y+s s s Z.Z+s s `+,+,+=+=+          ",
"                             @.@.@+@@@s e+#@Y $@%@&@0 0 J+x+s Z+,+=+s s s s k.*@N.N.          ",
"                          p  @=@-@ @ @A+;@o+>@$@,@'@s *+s s )@!@~@k+k+8+s s {@]@y.y.          ",
"                        s ^@/@=@(@=@=@p _@< :@<@[@}@s k+s s |@1@[+x+s k+s s 2@Y.' 3@          ",
"                        s s =@=@4@=@=@|+s 5@6@7@8@Q+s k+s s T+=+9@8+k+s Y.0 0@a@b@c@          ",
"                      s s s d@.@A+e@b+|+f@g@h@i@j@k@s s [+a+k+l@s m@k+m@s 2 a@j.n@N.          ",
"                      s s s s o@b+p@q@|+r@s@t@F.u@v@a+w@s s s k+s m@k+k+j.1 j.j.N.N.          ",
"                        s s s s x@>+ @y@z@x@x@m+A@B@C@D@k+k+k+8+s s   [+2 / j.j.c+0           ",
"                        s s   |+|+c+s E@F@Z.y@G@H@I@s s s s s s s       s J@j.K@0 0           ",
"                        s s   L@|+M@N@O@P@Q@R@R@S@T@s s s s s s         s U@V@s 0 s           ",
"                          s   $+W@i.X@Y@Z@`@ #I+.#s s s s s s           s / +#s j.s           ",
"                        s s $+@#i.m + ##$#N@s %#&#s s s s N.s             s s s j.s           ",
"                        *#s =##.i.i.+ -#X@;#J@>##.s s s s N.s             s s s / s           ",
"                        Y.  #.,#@ D+'#X@)#s !#~#{#]#s s s s s             s s j.s s           ",
"                          ^#+ /#4 @ F.`@(#s '+. _#o s s s l./             s s :#/ N.          ",
"                          + - 4 <#: j [#s }#|#j i.O s s s 1#y.            s s c+:#N.          ",
"                        1 $+$+O $+#.2#(#s 3#@@y@0 j o 0 0 y.4#s           s s s s s           ",
"                        s s s p Z.4@5#s 6#7# @|+N@(@8#q@b+9#0#c+a#        s s s s s           ",
"                        A+A+M@N@b+A+M@c+b# @x@p @@=@.@c#>+b+ @@@s         ##c+s s s           ",
"                        m+|+|+m+ @c+s '+*+d# @4@m+>+m+>+e#m+m+4@##,+      p A+A+[+s           ",
"                        m+##p =@f#N@g#A+/@=@b+(@=@/@m+Z.m+h#=@/@8#Z.      ##i#j#s             ",
"                        k#s |+=@G@`@g#c+=@=@p@@@p@l#m+7+m+m#n#=@@@Z.      p |+o#s             ",
"                    7+p#c+p q#'+M@`@[#z+=@=@=@4@m+m+r#>+s#t#u#=@x@,+      s c+s               ",
"                  Z.s c+v#=@'+w#M@R@N@x#x@m+m+|+m+e#y#z#7+A#B#m+k#a#      s c+##              ",
"                  ,+c+c+x@m+2#5#N@'+|+C#>+>+x@c+7+7+7+,+7+z#>+>+x#        s c+s               ",
"              {@k+s m@D#>+>+R@A+X@M@E#|+7+7+a#a+=+D#k+=+Z.Z.Z.Z.a#        s c+c+              ",
"            k+k+s k+s k+7+7+R@M@F#A+A+##D#k+G#s k+k+H#,+,+,+,+I#=+    s c+p c+c+              ",
"            m@8+)@k+s k+J#v+R@M@K#L#b#s k+s s s k+{@a+=+=+I#,+,+,+    p c+p c+s               ",
"          s s x+=+M#k+k+/+Z.X@M@N@N#O#s 8+k+s s s s )@,+t+Z.Z.Z.Z.z+}#P#p p s s               ",
"          s s y+=+=+k+s s ,+s c+s s s s s s s s s s s =+Z.Z.Z.Q#7+=+s s p R#s                 ",
"          s s k+,+k+k+m@s ,+S#[+s s T#a+s s s s s s )@=+t+Z.Z.7+U#=+s s c+c+s                 ",
"        s k+s =+,+V#k+V#=+=+[+W#s s a+T#  I+s k+s {@k+k+M#=+=+=+=+=+c+s c+c+s                 ",
"        a#,+X#k+,+I#k+,+7+,+s s s s s     =+X#k+s m@k+M#Y#=+=+Z#,+`#}#c+}#s                   ",
"      >+x#,+~@k+,+,+k+,+>+H+s s s s s     k+ $.$X#k+V#=+=+=+/+J#+$,+[+c+@$s                   ",
"      #$s 7+,+$$%$&$Z.t+x+s k+s             =+V#k+k+=+=+J+Z.Z.7+J#=+s s c+                    ",
"    Z.s `+,+,+,+*$=+=$Z.s s                 k+k+k+k+=+=+,+,+S+Z.S+=+s 6#c+                    ",
"    ,+s ,+,+,+,+,+I#=+x+s -$                k+k+k+y+V#=+Z#,+,+,+,+=+[+y@                      ",
"  >+;$,+,+>$,$'$,+,+s s                       k+)$=+M#k+=+=+I#S+Z.=+s                         ",
"7+!$>+>+7+7+7+~$s k+s -$                        ,+k+ ${$,+Z.7+]$,+k+                          ",
">+[+>+^$ @/$>+($s s                             ,+~@.$&$Z.Z.7+Z.Z.k+                          ",
"_$>+:$m+<$ @[$>+[+,+                            ,+,+=+,+}$Z.,+,+,+                            ",
"x#8#s#m+b+b+.@b+5#|+                            z+,+,+,+,+,+,+,+%$k+                          ",
"s k#m+m+ @ @m+4@M@F#                            ,+=+&$,+,+S+Z.,+=+,+Z.                        ",
"  z+x@Z.a#(@>+=+s s                               =+=+=+Z.Z.Z.|$x@>+7+                        ",
"  s m+##[+1$s 2 ^ 0                               =+k+.$7+J#Z.x@x@m+m+s                       ",
"  z+>+A+F.s 2$o ^ 0 s                               .$3$J#7+4$x@5$h#m+c+p                     ",
"  m+k#G@6$U.s 7$$+1 s                               =+Z.,+J#7+x@m+ @=@x#|+                    ",
"    [+1 ^ 8$N.$+9$1                                 =+s m@k+,+@@A+x#x@m+a#c+                  ",
"    s 1 0$$+0$s a$b$                                  s 8+m@=+c$d$##>+b+e$s s                 ",
"      1 %+^ %+s 1 s                                     s s Y.f$4@8#>+9.s l.c+s               ",
"      2 $+$+$+g$a$b$                                      s s s )@@@m+s h$^ 2 s               ",
"      2 #.#.i$U.s j$                                        s s s k$x+s l$2 2 0               ",
"      j.m$#.#.s s s                                             s s s s s s s s               ",
"        -+n$E.0 $+F.                                              s 6#i s s s s s             ",
"        &+$+$+s o s                                               s c+1 1 i s s o s           ",
"        $+o$O 2$j $+                                                s s s F.F.F.$+p$          ",
"        X.s $+m ^ j.                                                  N.0 q$i$O $+$+          ",
"        X.6+#.#.$+/                                                     s r$#.#+$+$+          ",
"        $+#.#.s$X.N.                                                      t$^ $+E.#.i.        ",
"        i.m 6+#.u$N.                                                        y.#.#.=#i.i.      ",
"      X.# m v$#.#.1                                                           #.#.i.{#m       ",
"      ^ $+#.X.#.w$s$                                                          i.5@m m m $+    ",
"    $+-+s$x$'##.s$|                                                       j m . i.i.i.i.$+2   ",
"    ^ 0 1 y$X.$+s$X.                                                    i.j i.i.#.%.i.i.$+1   ",
"  ^ z$y.A$1 2 ^ s$X.                                                j m m O #.$+#.B$i.5+^ o s ",
"s N.N.N.N.N.N.N.N.N.                                          i.^ o o o o 0 C$N.D$F.^ F.E$N.N.",
"    C$N.N.N.N.N.N.                                            s s s N.N.N.N.N.N.N.s N.N.N.N.  "};
