/* XPM */
static char * A5_xpm[] = {
"39 94 638 2",
"  	c None",
". 	c #745D5A",
"+ 	c #866F6D",
"@ 	c #89736D",
"# 	c #7D655F",
"$ 	c #846B66",
"% 	c #474344",
"& 	c #715D5B",
"* 	c #866E68",
"= 	c #6A544F",
"- 	c #51413E",
"; 	c #302625",
"> 	c #655554",
", 	c #846A66",
"' 	c #7C635F",
") 	c #453635",
"! 	c #3D322F",
"~ 	c #87716A",
"{ 	c #80635D",
"] 	c #7B5D58",
"^ 	c #836964",
"/ 	c #785551",
"( 	c #7F635E",
"_ 	c #80645F",
": 	c #382928",
"< 	c #291615",
"[ 	c #1C1513",
"} 	c #856D6A",
"| 	c #806560",
"1 	c #5A413D",
"2 	c #533D3B",
"3 	c #3B2828",
"4 	c #1C0F0E",
"5 	c #070000",
"6 	c #8A746D",
"7 	c #856C67",
"8 	c #836965",
"9 	c #65514E",
"0 	c #433332",
"a 	c #4E3F3D",
"b 	c #332928",
"c 	c #0B0000",
"d 	c #816864",
"e 	c #765C59",
"f 	c #816660",
"g 	c #6C5552",
"h 	c #211A1A",
"i 	c #16100F",
"j 	c #6F413C",
"k 	c #2B1210",
"l 	c #4A3837",
"m 	c #644E4C",
"n 	c #604846",
"o 	c #3F2B28",
"p 	c #321E1D",
"q 	c #000000",
"r 	c #201817",
"s 	c #4C2722",
"t 	c #584442",
"u 	c #483633",
"v 	c #3B2927",
"w 	c #3B2F2E",
"x 	c #090100",
"y 	c #181211",
"z 	c #523D3B",
"A 	c #6F5553",
"B 	c #735A58",
"C 	c #55423F",
"D 	c #2E201E",
"E 	c #170B0A",
"F 	c #604947",
"G 	c #4D3836",
"H 	c #4A3633",
"I 	c #4A3332",
"J 	c #30201E",
"K 	c #020000",
"L 	c #050000",
"M 	c #1A0C0A",
"N 	c #010000",
"O 	c #846A65",
"P 	c #24292D",
"Q 	c #513D3B",
"R 	c #2C201F",
"S 	c #3C2F2E",
"T 	c #584543",
"U 	c #200805",
"V 	c #260D0B",
"W 	c #221615",
"X 	c #655654",
"Y 	c #282E32",
"Z 	c #6A514F",
"` 	c #806660",
" .	c #272D30",
"..	c #1D0806",
"+.	c #1B0604",
"@.	c #160A07",
"#.	c #635252",
"$.	c #493331",
"%.	c #816862",
"&.	c #816662",
"*.	c #271716",
"=.	c #5A4D4C",
"-.	c #554646",
";.	c #2C1B19",
">.	c #52423D",
",.	c #463532",
"'.	c #2E2121",
").	c #57413E",
"!.	c #100000",
"~.	c #D78D7B",
"{.	c #908485",
"].	c #574A49",
"^.	c #2B1716",
"/.	c #6E524F",
"(.	c #6A5450",
"_.	c #4B3938",
":.	c #312625",
"<.	c #483A36",
"[.	c #66514D",
"}.	c #22272A",
"|.	c #161011",
"1.	c #473331",
"2.	c #382726",
"3.	c #B49B9D",
"4.	c #574847",
"5.	c #6E5452",
"6.	c #775F5D",
"7.	c #846C67",
"8.	c #77605A",
"9.	c #7B615E",
"0.	c #856E6C",
"a.	c #856C68",
"b.	c #64514F",
"c.	c #5A4644",
"d.	c #3E3535",
"e.	c #402E2C",
"f.	c #475B6A",
"g.	c #3E2523",
"h.	c #3D2523",
"i.	c #554241",
"j.	c #331A18",
"k.	c #9C8C8F",
"l.	c #C7A7AA",
"m.	c #99878A",
"n.	c #7D6762",
"o.	c #665755",
"p.	c #846B67",
"q.	c #554442",
"r.	c #614E4C",
"s.	c #3B2A29",
"t.	c #180C0B",
"u.	c #834E48",
"v.	c #593631",
"w.	c #362726",
"x.	c #563E3C",
"y.	c #5E4A48",
"z.	c #534240",
"A.	c #4F3735",
"B.	c #4C3A39",
"C.	c #B09A9B",
"D.	c #796360",
"E.	c #554441",
"F.	c #584B4B",
"G.	c #866F6A",
"H.	c #856E6B",
"I.	c #76625F",
"J.	c #4F403F",
"K.	c #4D3E3C",
"L.	c #312524",
"M.	c #3E4043",
"N.	c #6F6869",
"O.	c #706768",
"P.	c #4E4A4A",
"Q.	c #1C0A07",
"R.	c #533F3D",
"S.	c #604B49",
"T.	c #5E4D4B",
"U.	c #594845",
"V.	c #5C4C4A",
"W.	c #837879",
"X.	c #180907",
"Y.	c #6C5957",
"Z.	c #4C3D3B",
"`.	c #5E4B4A",
" +	c #7F6764",
".+	c #866E6A",
"++	c #473736",
"@+	c #5B4947",
"#+	c #614D4B",
"$+	c #605B5C",
"%+	c #535051",
"&+	c #625E5F",
"*+	c #5B5859",
"=+	c #4A3734",
"-+	c #382522",
";+	c #635250",
">+	c #5A4846",
",+	c #5F4D49",
"'+	c #534443",
")+	c #0F0000",
"!+	c #403636",
"~+	c #403A3A",
"{+	c #806B69",
"]+	c #3B2B2A",
"^+	c #160502",
"/+	c #3C2C2B",
"(+	c #4B4647",
"_+	c #524F4F",
":+	c #545152",
"<+	c #595657",
"[+	c #59423E",
"}+	c #6B4D48",
"|+	c #402F2D",
"1+	c #5D4745",
"2+	c #75605D",
"3+	c #5B4B4A",
"4+	c #4F3F3E",
"5+	c #50403F",
"6+	c #7E4842",
"7+	c #120F0D",
"8+	c #0E0A0A",
"9+	c #473635",
"0+	c #594745",
"a+	c #0C0000",
"b+	c #160E0E",
"c+	c #1A191A",
"d+	c #585556",
"e+	c #555252",
"f+	c #23110D",
"g+	c #371D18",
"h+	c #5F3732",
"i+	c #5B4746",
"j+	c #665352",
"k+	c #725D5B",
"l+	c #6F5D5C",
"m+	c #6C5856",
"n+	c #423534",
"o+	c #664944",
"p+	c #6A6465",
"q+	c #170B09",
"r+	c #4F4C4C",
"s+	c #110E0E",
"t+	c #2E130F",
"u+	c #4F3835",
"v+	c #140E0C",
"w+	c #434041",
"x+	c #575455",
"y+	c #423E3F",
"z+	c #301A16",
"A+	c #4C3531",
"B+	c #1E1513",
"C+	c #4D3B3A",
"D+	c #655351",
"E+	c #6F5B59",
"F+	c #7B6664",
"G+	c #261A19",
"H+	c #42312E",
"I+	c #3D3A3A",
"J+	c #1A1616",
"K+	c #332524",
"L+	c #312F2F",
"M+	c #565354",
"N+	c #565253",
"O+	c #585555",
"P+	c #2B1915",
"Q+	c #26130F",
"R+	c #331C18",
"S+	c #3F302F",
"T+	c #5F4D4B",
"U+	c #735E5C",
"V+	c #776260",
"W+	c #291C1B",
"X+	c #2F1B17",
"Y+	c #535050",
"Z+	c #2A2727",
"`+	c #222020",
" @	c #3F3C3D",
".@	c #524F50",
"+@	c #564E4D",
"@@	c #543E3B",
"#@	c #422F2C",
"$@	c #0C0604",
"%@	c #333030",
"&@	c #191614",
"*@	c #473937",
"=@	c #4F413F",
"-@	c #7E6967",
";@	c #6E5B59",
">@	c #5A4746",
",@	c #302120",
"'@	c #464343",
")@	c #4B4748",
"!@	c #555253",
"~@	c #4E4B4C",
"{@	c #4F4C4D",
"]@	c #4E4A4B",
"^@	c #282220",
"/@	c #363333",
"(@	c #3D393A",
"_@	c #4A3C3A",
":@	c #453937",
"<@	c #675452",
"[@	c #6F5957",
"}@	c #231C1B",
"|@	c #251E1D",
"1@	c #393636",
"2@	c #454142",
"3@	c #373535",
"4@	c #403D3E",
"5@	c #343131",
"6@	c #484445",
"7@	c #231F1F",
"8@	c #3F3B3C",
"9@	c #62504E",
"0@	c #786361",
"a@	c #705C5A",
"b@	c #544140",
"c@	c #0B0605",
"d@	c #494646",
"e@	c #343232",
"f@	c #0E0D0D",
"g@	c #272425",
"h@	c #2B2929",
"i@	c #282626",
"j@	c #655553",
"k@	c #181717",
"l@	c #423231",
"m@	c #665452",
"n@	c #766261",
"o@	c #452A28",
"p@	c #343132",
"q@	c #221F1E",
"r@	c #3C3A3B",
"s@	c #86706B",
"t@	c #5C4846",
"u@	c #6C5857",
"v@	c #7C6664",
"w@	c #66524F",
"x@	c #484343",
"y@	c #281C19",
"z@	c #3E3231",
"A@	c #856D6B",
"B@	c #846D6B",
"C@	c #473634",
"D@	c #665351",
"E@	c #48372E",
"F@	c #040303",
"G@	c #2E2626",
"H@	c #231B18",
"I@	c #0C0A09",
"J@	c #7B6563",
"K@	c #564342",
"L@	c #060505",
"M@	c #836E6A",
"N@	c #694E4B",
"O@	c #7C6461",
"P@	c #2E2D2D",
"Q@	c #0E0C0A",
"R@	c #372927",
"S@	c #151111",
"T@	c #050505",
"U@	c #513F3E",
"V@	c #5D4948",
"W@	c #483635",
"X@	c #3C3231",
"Y@	c #171212",
"Z@	c #5A4543",
"`@	c #433939",
" #	c #2B2525",
".#	c #100F0F",
"+#	c #050303",
"@#	c #110E0C",
"##	c #090808",
"$#	c #191717",
"%#	c #705A58",
"&#	c #352625",
"*#	c #453332",
"=#	c #473C3B",
"-#	c #444243",
";#	c #4E4A4C",
">#	c #373435",
",#	c #232222",
"'#	c #201A19",
")#	c #180B0B",
"!#	c #272424",
"~#	c #362A29",
"{#	c #2A0C0B",
"]#	c #322A29",
"^#	c #080201",
"/#	c #5E4A49",
"(#	c #210C0A",
"_#	c #3B3839",
":#	c #421B17",
"<#	c #270100",
"[#	c #100C0B",
"}#	c #080000",
"|#	c #1A0906",
"1#	c #7D6663",
"2#	c #1B1111",
"3#	c #0D0201",
"4#	c #090101",
"5#	c #130E0D",
"6#	c #050404",
"7#	c #6F5A58",
"8#	c #2B1D1C",
"9#	c #302726",
"0#	c #100807",
"a#	c #67514F",
"b#	c #4F3C3B",
"c#	c #1A0908",
"d#	c #433938",
"e#	c #090000",
"f#	c #030000",
"g#	c #312827",
"h#	c #3B3130",
"i#	c #110504",
"j#	c #241615",
"k#	c #1D1615",
"l#	c #0E0908",
"m#	c #1F0100",
"n#	c #4F4140",
"o#	c #705E5D",
"p#	c #7B6765",
"q#	c #4A3D3C",
"r#	c #2B2322",
"s#	c #0A0909",
"t#	c #1C1B1B",
"u#	c #5D4947",
"v#	c #2D1917",
"w#	c #2B1F1F",
"x#	c #504544",
"y#	c #493F3E",
"z#	c #211514",
"A#	c #7E6964",
"B#	c #1C0C0B",
"C#	c #160807",
"D#	c #070404",
"E#	c #4D2E2B",
"F#	c #8F8081",
"G#	c #716869",
"H#	c #827576",
"I#	c #948586",
"J#	c #A08D8E",
"K#	c #877C7D",
"L#	c #918686",
"M#	c #5D5152",
"N#	c #4D4242",
"O#	c #716D6D",
"P#	c #696464",
"Q#	c #766F70",
"R#	c #331715",
"S#	c #6E6868",
"T#	c #6C6667",
"U#	c #534F4F",
"V#	c #2B2121",
"W#	c #4D3F3F",
"X#	c #867071",
"Y#	c #958586",
"Z#	c #92787D",
"`#	c #9F7C85",
" $	c #B39A9C",
".$	c #968587",
"+$	c #85797A",
"@$	c #B8999C",
"#$	c #9C8C8D",
"$$	c #9D8283",
"%$	c #2E0000",
"&$	c #5A3A3A",
"*$	c #847A7B",
"=$	c #5C5758",
"-$	c #0E0301",
";$	c #686162",
">$	c #635D5E",
",$	c #544344",
"'$	c #8B7C7D",
")$	c #8A7E7F",
"!$	c #A99597",
"~$	c #83797B",
"{$	c #948788",
"]$	c #A08F92",
"^$	c #AD9899",
"/$	c #978889",
"($	c #350A0A",
"_$	c #887C7D",
":$	c #310807",
"<$	c #2C0908",
"[$	c #575353",
"}$	c #746C6D",
"|$	c #71696A",
"1$	c #7C6768",
"2$	c #918081",
"3$	c #B1999A",
"4$	c #C2A4A7",
"5$	c #9E8D90",
"6$	c #AE999A",
"7$	c #C09FA1",
"8$	c #A08B8C",
"9$	c #5B312B",
"0$	c #301211",
"a$	c #6B6465",
"b$	c #7C7475",
"c$	c #776262",
"d$	c #968788",
"e$	c #BC9FA2",
"f$	c #B19A9C",
"g$	c #AC9798",
"h$	c #C2A0A2",
"i$	c #A78E90",
"j$	c #92696A",
"k$	c #906F70",
"l$	c #9B8A8B",
"m$	c #998A8D",
"n$	c #938687",
"o$	c #160000",
"p$	c #625C5C",
"q$	c #7A7172",
"r$	c #797172",
"s$	c #705F60",
"t$	c #948485",
"u$	c #B99A9C",
"v$	c #B59D9E",
"w$	c #C3A4A6",
"x$	c #BD9DA0",
"y$	c #795652",
"z$	c #968688",
"A$	c #110402",
"B$	c #5C5455",
"C$	c #756D6E",
"D$	c #5E5152",
"E$	c #947B7C",
"F$	c #A59293",
"G$	c #A39091",
"H$	c #9A8A8B",
"I$	c #A39193",
"J$	c #BFA3A5",
"K$	c #86686A",
"L$	c #736564",
"M$	c #444041",
"N$	c #5D5758",
"O$	c #6C6465",
"P$	c #666162",
"Q$	c #493B3C",
"R$	c #492924",
"S$	c #9F8F91",
"T$	c #A18F90",
"U$	c #9F8D8E",
"V$	c #97898A",
"W$	c #A99596",
"X$	c #6F524E",
"Y$	c #786B6A",
"Z$	c #595251",
"`$	c #464142",
" %	c #554F50",
".%	c #464243",
"+%	c #322728",
"@%	c #696263",
"#%	c #8D8182",
"$%	c #867B7C",
"%%	c #715858",
"&%	c #7C7374",
"*%	c #676162",
"=%	c #282424",
"-%	c #1C1A1A",
";%	c #605253",
">%	c #5E5B5C",
",%	c #181414",
"'%	c #020202",
")%	c #464242",
"!%	c #6E6869",
"~%	c #8C8081",
"{%	c #7E7475",
"]%	c #0B0A0A",
"^%	c #463838",
"/%	c #585455",
"(%	c #1A1717",
"_%	c #656061",
":%	c #877D7E",
"<%	c #736D6E",
"[%	c #6D6667",
"}%	c #2C2828",
"|%	c #7F7576",
"1%	c #605C5D",
"2%	c #2E2B2B",
"3%	c #726B6C",
"4%	c #3A3636",
"5%	c #1D1919",
"6%	c #151110",
"7%	c #6B6566",
"8%	c #544E4F",
"9%	c #6D6768",
"0%	c #2E2525",
"a%	c #3E0000",
"b%	c #343031",
"c%	c #121212",
"d%	c #765C5E",
"e%	c #877678",
"f%	c #604C4C",
"g%	c #2B0000",
"h%	c #1E0000",
"i%	c #2D0000",
"j%	c #120000",
"k%	c #351A1A",
"l%	c #0B0807",
"m%	c #4C0000",
"n%	c #501612",
"o%	c #5B0000",
"p%	c #320000",
"q%	c #0D0000",
"r%	c #0D0807",
"s%	c #373131",
"t%	c #1F1312",
"u%	c #130909",
"v%	c #020101",
"w%	c #453433",
"x%	c #0F0302",
"y%	c #0F0301",
"z%	c #100A09",
"A%	c #090504",
"B%	c #180604",
"C%	c #271311",
"D%	c #3F2F2E",
"E%	c #362524",
"F%	c #1C1514",
"G%	c #181110",
"H%	c #332322",
"I%	c #3D2D2C",
"J%	c #473534",
"K%	c #574746",
"L%	c #302322",
"M%	c #493736",
"N%	c #53403E",
"O%	c #181212",
"P%	c #0E0909",
"Q%	c #41302F",
"R%	c #170E0E",
"S%	c #6A5452",
"T%	c #080605",
"U%	c #554140",
"                                        . + @ #                               ",
"                                    $ % & $ * = - ;                           ",
"                                    $ > % $ , ' ) !                           ",
"                                  ~ { ] ^ / ( _ : < [                         ",
"                                  * ~ } | _ 1 2 3 4 5                         ",
"                                  ~ 6 * 7 8 9 0 a b c                         ",
"                                  9 $ d 8 e f g h i 5                         ",
"                                j k l , m n o p q q r                         ",
"                                s 8 $ , t u v w q q x y                       ",
"                                  z A B C u D E 5 q q                         ",
"                                  F G H I J K L M N q                         ",
"                                  , O P Q R S T U V W                         ",
"                                  . X Y d Z `  ...+.@.                        ",
"                                , > Y #.$.%.&.Y *.D q q                       ",
"                              =.Y Y -.;.>.,.'.).c !.L q                       ",
"                          ~.{.Y ].^./.(._.:.<.[.}.Y |.1.2.                    ",
"                  * . 9 . {.3.4.5.6.7.8.9.0.a.b.c.d.Y e.1.f.                  ",
"                g.h.i.j.l k.l.m.t } n.o.p.+ + q.r.s.W t.u.v.                  ",
"              w.x.y.z.A.B.C.C.!.q D.E.F.G.H.I.J.K.L.W M.N.O.P.                ",
"            Q.R.S.T.U.V.t W.l.!.X.Y.Z.`.,  +.+++@+#+K $+%+&+*+=+              ",
"            -+;+>+4.,+'+t {.C.L )+!.!+~+, $ {+]+^+/+(+_+:+<+*+[+}+            ",
"            |+1+2+3+4+5+6+{.W.N N 7+q 8+9+0+a+K b+q c+<+d+e+*+f+g+h+          ",
"            i+j+k+l+m+n+o+p+p+N q+r+s+q q t+u+v+q q w+x+*+y+=+f+f+z+A+B+      ",
"            C+D+E+F+Y.G+H+*+*+q f+I+J+q q q K+q q L+M+N+O+r+=+P+N Q+R+f+      ",
"            S+T+U+V+b.W+X+*+Y+q h J+Z+`+q q B+q  @d+*+.@M++@@@#@f+$@%@&@      ",
"            *@=@-@;@>@,@f+y+y+q q q '@)@q q q J+!@M+~@{@]@f+R+^@/@y+(@%@      ",
"            _@:@<@[@l }@|@1@r+q q s+r+2@q q q q 3@4@5@6@% 7@%@%@8@y+y+%@      ",
"            9@0@a@b@t.c@%@d@e@q f@y+y+g@q q q q q h@8@%@y+i@q %@j@9 k@q       ",
"          l@m@n@o@q }@q `+s+q q p@y+q@q J+q q q q q q s+s+q r@$ ~ s@K c@      ",
"          t@u@v@w@q c@q q q q q x@%@y@v+q q J+J+J+q q q q e@z@A@s@B@t.y       ",
"          C@D@U+E@q q q q q J+F@7+G@%@H@I@q q %@q q %@J+J+W b@J@U+K@W }@      ",
"        L@M@N@O@W P@q q q q q Q@R@J+J+H@J+q q J+J+S@T@q q W U@k+V@W@4.X@      ",
"        Y@Z@`@ #.#q +#7+q q q @#I@q q ##J+q q $#J+J+J+J+B+y _.%#&#*#4.=#q     ",
"      -#;#;#>#,#q q ,#q q q q q q q J+J+s+q q q q q q q q q '#Z@)#,@t.t.q     ",
"      !#a+q ~#W q     q q q q q q q q q q q q q q q q q q q q W K B.^+^+c@    ",
"      a+{#q ]#K       q q q q q q q q q q q q q q q q q q q   ^+^#/#(#(#q     ",
"    _#:#<#}@[#q       K K t.}#q q q q q q q q q q q q q q ##  ^+|#1#W W q     ",
"    Y@(#q q q q       2#K q 3#X@4#q q q q q N 5#6#6#y q q     a+K@7#8#b+q q   ",
"    q L N q q q     K 9#3#0#K =#t.q q q q q K y y y [#q q     q a#b#t.q q q   ",
"    c#q L q q       X@d#q K K X@t e#f#K q q K q }@}@q q q       /+,@,@q q q   ",
"    <#L q q         g#h#X@i#t./+l j#a+t.q q X@=#=#9#k#y l#        =#c@q q q   ",
"    m#q q q     l . n#b X@t.t.t t k ^+9#y }@o#o#p#q#r#y y         W [#q q K   ",
"    q q q q     t.t.s#t#t#q q u#B.v#w#x#y#z#. A#o#,@}@K q q       q q c@q q   ",
"    q B#C#q     P@D#t#_#t#q E#F#G#H#I#J#K#L#M#N#L O#P#O#-#Q#y+      q q q q   ",
"    q R#f#q     S#r+T#U#V#W#X#Y#Z#`# $.$+$@$#$$$%$&$*${.C.=$y+      q q q q   ",
"    (#-$q       r+_+;$>$,$'$)$C.C.!$k.~${$]$^$/$%$($_$W.W.y+/@      :$R#K q   ",
"  (#<$q q       r+[$}$|$1$2$3$4$l.k.W.k.5$6$7$8$h+9$Y#k.k.y+/@      <#<#q q   ",
"  0$m#q         r+a$}$b$c$d$4$l.e$f$k.k.g$l.h$i$j$k$l$m$n$)@y+      o$<#q q   ",
"  <#}#q         r+p$q$r$s$t$3.l.u$l.l.l.C.v$w$x$C.y$z${.{..@y+        e#q q   ",
"  A$q q       Q#y+B$C$|$D$E$F$G$H$C.C.k.I$C.J$J$C.K$_$L$W.y+y+        q q K   ",
"  q q q q     *+M$N$O$P$Q$R$S$T$U$I$W.Q#Q#V$W$W$V$X$Y$Z$*+%@y+y+      q q q   ",
"  q q q q   J+)@`$ %.%[$V#V#+%p+p+r+%@J+y+@%{.#%$%%%&%*%*+y+y+          q q   ",
"  q L q q   J+y+=%%@%@%@q q q J+J+S@q q -%y+Q#W.r$;%p+>%*+)@y+          A$q   ",
"  q ^+q q   q y+7@%@J+s+q q q J+,%'%q q q )%!%Q#Q#Q#Q#K#~%r+%@          A$q   ",
"  q q q     q i@Z+J+$#q q q T@J+'%q   q q N.{%K#{.{.{.{.$%p+y+          q q q ",
"  q q q     S@]%%@J+q q 7+T@J+q q       ^%W.~%{.{.{.W.W.q$p+y+      q <#q q q ",
"    q q     S@##r+y+q q S@J+J+J+q       x@W.{.k.{.{.{.Q#p+/%J+      q k q q q ",
"      q q   T@(%/@y+q q T@J+q q q       y+r+d+*+Y+y+y+y+y+*+q         ^+q q   ",
"      q q   ]%%@8@=%q h@y+J+S@q         2@r+r+*+*+p+Q#W.Q#x@q         ^+q q   ",
"      q q   %@1@r+I@q J+%@J+s+q         r+x+*+_%W.{.:%<%[%`+q         ^+q q   ",
"            %@r+}%q $#J+##q q           y+p+{.{.|%Q#[%p+1%q q         }#q     ",
"          %@J+2%V#q J+J+J+J+J+          y+p+3%Q#Q#Q#<%_%*+q q       ^+q       ",
"          *+4%5%6%q J+J+J+J+            y+p+p+p+p+p+*+*+]@q q       ^+K       ",
"          %@y+4%s+q s+J+J+              %@r+r+r+Q#W.<%p+N q q       q q       ",
"          Q#p+y+q q q q q                 *+p+|%Q#<%7%8%q q                   ",
"          *+y+`$q q q q q                 *+9%Q#!%p+p+x@q q                   ",
"        W.k.W.^%0%q 7+J+                  % *+*+*+*+r+J+T@                    ",
"      p+{.{.,$a%c q q                     %@r+r+y+y+y+b%J+                    ",
"      p+W.-#q q q q q                     J+% *+y+y+)@r+r+                    ",
"      a%q c%0#q q q q                       *+*+{.{.d%%$%$                    ",
"      %$q q t.N q q q                       p+C.e%f%%$g%h%i%                  ",
"      c j%q t.N q q q                       W.C.f%k%!.h%a%h%                  ",
"      q q b+3#q l%c@q                       W.l.f%m%m%h%R+c h%                ",
"      c@t.c@N q c@N                         f%l.p+n%m%o%p%q q%                ",
"      W r%q q q q q                         p+l.p+s%L q q q q                 ",
"      W t%t.q q q q                         W.l.y /+,@W 0#q q                 ",
"      t.u%v%[#c@q                           p+V#w%/+,@a+t.q                   ",
"      G+q N [#q q                           %@f+/+/+j#x%t.q                   ",
"      q b+y%N q                             q h%L t.a+t.z%q q                 ",
"      K a+q q A%                              h%q q f#a+q                     ",
"      (#(#(#y c@                              a+f#q L q q                     ",
"    a+,@,@9#q q                               q B%C%/+}#q                     ",
"  l D%/+X@c@A%q                                 (#E%k ,@q                     ",
"  &#l l 9#F%c@                                  (#/+/+,@q                     ",
"  t t X@9#9#G%                                  H%I%J%,@q                     ",
"  K%t /+,@L%9#q                                 I%M%N%,@q                     ",
"}@l l , o#4.O%K                                 l l 9 /+P%                    ",
"4.l l Q%t.R%K q                                 l N%S%l /+                    ",
"a+l o#l ,@K T%q q R+                            l U%t /+/+                    ",
"t.l {+j@j@=#q q q N                             l _.U%/+H%                    ",
"c@c@c@c@y y c@c@R@H@R@                        k I%J%l /+,@                    ",
"  c@c@c@                                    ^+^+/+/+,@W W                     ",
"                                            K K W W ^+y y q                   ",
"                                                  c@c@c@c@                    "};
