/* XPM */
static char * A6_xpm[] = {
"47 92 530 2",
"  	c None",
". 	c #544544",
"+ 	c #403332",
"@ 	c #513E3D",
"# 	c #65514E",
"$ 	c #846B66",
"% 	c #846A66",
"& 	c #745D5A",
"* 	c #2D2524",
"= 	c #211A18",
"- 	c #604C49",
"; 	c #735D59",
"> 	c #856D67",
", 	c #866F68",
"' 	c #87716A",
") 	c #181211",
"! 	c #221615",
"~ 	c #3A2F2F",
"{ 	c #473B3A",
"] 	c #806864",
"^ 	c #7E6763",
"/ 	c #866F69",
"( 	c #0D0201",
"_ 	c #180C0B",
": 	c #423736",
"< 	c #645351",
"[ 	c #7F6762",
"} 	c #7F6863",
"| 	c #8B766F",
"1 	c #89726C",
"2 	c #6F413C",
"3 	c #020000",
"4 	c #302928",
"5 	c #64504D",
"6 	c #816965",
"7 	c #81645E",
"8 	c #88716B",
"9 	c #866E68",
"0 	c #7D5C58",
"a 	c #080000",
"b 	c #3D312E",
"c 	c #523D3B",
"d 	c #715956",
"e 	c #5A4542",
"f 	c #856D65",
"g 	c #7E5F5A",
"h 	c #6B403F",
"i 	c #694E4A",
"j 	c #161010",
"k 	c #000000",
"l 	c #1A0A08",
"m 	c #1C0D0C",
"n 	c #100000",
"o 	c #0C0000",
"p 	c #4C3733",
"q 	c #584442",
"r 	c #71554F",
"s 	c #704C47",
"t 	c #2B1210",
"u 	c #1C1513",
"v 	c #100402",
"w 	c #2B1C1B",
"x 	c #806560",
"y 	c #6E5451",
"z 	c #5F4744",
"A 	c #463230",
"B 	c #282E32",
"C 	c #7D6360",
"D 	c #614642",
"E 	c #6E514B",
"F 	c #58332E",
"G 	c #1A0705",
"H 	c #2C1512",
"I 	c #391E1D",
"J 	c #3C2120",
"K 	c #6B534F",
"L 	c #6D5652",
"M 	c #6A4C48",
"N 	c #42221F",
"O 	c #1E1312",
"P 	c #2D1B1A",
"Q 	c #3C2826",
"R 	c #5B423F",
"S 	c #806761",
"T 	c #7C635E",
"U 	c #6A5552",
"V 	c #5E4A47",
"W 	c #210C0A",
"X 	c #030202",
"Y 	c #181413",
"Z 	c #1C1412",
"` 	c #2E2322",
" .	c #685655",
"..	c #68534F",
"+.	c #77605C",
"@.	c #4A3632",
"#.	c #816864",
"$.	c #745C59",
"%.	c #755D59",
"&.	c #6A514E",
"*.	c #634946",
"=.	c #645453",
"-.	c #38383A",
";.	c #423838",
">.	c #493736",
",.	c #3C2C2A",
"'.	c #3C2C2B",
").	c #473331",
"!.	c #3E2C2A",
"~.	c #775A56",
"{.	c #79605C",
"].	c #705551",
"^.	c #6D524F",
"/.	c #5E4D4D",
"(.	c #313437",
"_.	c #644F4D",
":.	c #5A4744",
"<.	c #1E0D0B",
"[.	c #2F2727",
"}.	c #826A65",
"|.	c #634D4A",
"1.	c #331F1E",
"2.	c #5E4442",
"3.	c #735C58",
"4.	c #725956",
"5.	c #6D524E",
"6.	c #2E3235",
"7.	c #765F5B",
"8.	c #644F4C",
"9.	c #231C1B",
"0.	c #4A3837",
"a.	c #614D4A",
"b.	c #765F5C",
"c.	c #342321",
"d.	c #4A3332",
"e.	c #493633",
"f.	c #706968",
"g.	c #7F6763",
"h.	c #846F69",
"i.	c #816964",
"j.	c #3B3839",
"k.	c #665553",
"l.	c #685451",
"m.	c #7C6460",
"n.	c #634E4B",
"o.	c #292323",
"p.	c #393738",
"q.	c #4E4A4C",
"r.	c #584543",
"s.	c #67524F",
"t.	c #7B605C",
"u.	c #775651",
"v.	c #836A63",
"w.	c #171212",
"x.	c #181717",
"y.	c #0B0605",
"z.	c #6C5653",
"A.	c #806763",
"B.	c #6C5753",
"C.	c #54413F",
"D.	c #232222",
"E.	c #474546",
"F.	c #271716",
"G.	c #160502",
"H.	c #332322",
"I.	c #3E2B28",
"J.	c #765E5A",
"K.	c #7B5E5A",
"L.	c #765550",
"M.	c #3C1D1B",
"N.	c #302726",
"O.	c #4F4C4C",
"P.	c #0B0A0A",
"Q.	c #473C3B",
"R.	c #594543",
"S.	c #665653",
"T.	c #160E0E",
"U.	c #2E2D2D",
"V.	c #190906",
"W.	c #130604",
"X.	c #86716B",
"Y.	c #351C1A",
"Z.	c #1B1A1A",
"`.	c #423E3F",
" +	c #6A6465",
".+	c #231B18",
"++	c #302120",
"@+	c #3C3231",
"#+	c #333030",
"$+	c #372927",
"%+	c #251817",
"&+	c #2D1F1E",
"*+	c #261312",
"=+	c #3C2928",
"-+	c #755E5B",
";+	c #775955",
">+	c #271210",
",+	c #854D47",
"'+	c #3D3A3A",
")+	c #3A3333",
"!+	c #1E1513",
"~+	c #6B4D48",
"{+	c #71423C",
"]+	c #513A36",
"^+	c #18110F",
"/+	c #4A3734",
"(+	c #322322",
"_+	c #1B0B08",
":+	c #240E0B",
"<+	c #7E6662",
"[+	c #39211E",
"}+	c #762B1E",
"|+	c #120F0D",
"1+	c #46332F",
"2+	c #5F3732",
"3+	c #020202",
"4+	c #5B5859",
"5+	c #4E3C3A",
"6+	c #41302F",
"7+	c #453332",
"8+	c #201413",
"9+	c #5E4A48",
"0+	c #705A57",
"a+	c #1E0000",
"b+	c #494545",
"c+	c #1A1616",
"d+	c #060404",
"e+	c #382827",
"f+	c #2A1715",
"g+	c #584A49",
"h+	c #403432",
"i+	c #7F6662",
"j+	c #7D6561",
"k+	c #010000",
"l+	c #B09A9B",
"m+	c #2B2121",
"n+	c #231F1F",
"o+	c #222020",
"p+	c #1C1616",
"q+	c #585556",
"r+	c #504D4D",
"s+	c #464343",
"t+	c #140502",
"u+	c #241D1B",
"v+	c #453634",
"w+	c #826964",
"x+	c #7A635F",
"y+	c #735E5A",
"z+	c #837879",
"A+	c #484241",
"B+	c #454242",
"C+	c #110E0E",
"D+	c #343232",
"E+	c #363334",
"F+	c #0D0302",
"G+	c #2C2222",
"H+	c #705A56",
"I+	c #79625E",
"J+	c #6F5B57",
"K+	c #2E0000",
"L+	c #362B2A",
"M+	c #454142",
"N+	c #352B29",
"O+	c #392E2C",
"P+	c #7D6661",
"Q+	c #806964",
"R+	c #53403F",
"S+	c #230000",
"T+	c #393636",
"U+	c #272425",
"V+	c #2B2929",
"W+	c #413D3D",
"X+	c #181212",
"Y+	c #3F3230",
"Z+	c #3C312F",
"`+	c #745F5D",
" @	c #080808",
".@	c #302827",
"+@	c #322827",
"@@	c #7C6561",
"#@	c #78615D",
"$@	c #715858",
"%@	c #512D27",
"&@	c #C7A7AA",
"*@	c #908485",
"=@	c #100F0F",
"-@	c #050505",
";@	c #282424",
">@	c #322E2E",
",@	c #0C0A09",
"'@	c #231B1A",
")@	c #261E1E",
"!@	c #755E5A",
"~@	c #4B3836",
"{@	c #92696A",
"]@	c #9C8C8F",
"^@	c #241D1C",
"/@	c #1E1E1E",
"(@	c #191614",
"_@	c #2C2929",
":@	c #29201E",
"<@	c #342A29",
"[@	c #806A64",
"}@	c #6A5753",
"|@	c #040403",
"1@	c #846062",
"2@	c #948788",
"3@	c #282626",
"4@	c #100B0A",
"5@	c #1F1918",
"6@	c #1A1413",
"7@	c #0A0606",
"8@	c #241B1A",
"9@	c #3B302E",
"0@	c #77605D",
"a@	c #655250",
"b@	c #53403E",
"c@	c #604C4C",
"d@	c #171110",
"e@	c #151111",
"f@	c #23201F",
"g@	c #483A38",
"h@	c #4F413D",
"i@	c #7D5F5B",
"j@	c #4F4240",
"k@	c #493A38",
"l@	c #2B2220",
"m@	c #A08F92",
"n@	c #2E2525",
"o@	c #110E0C",
"p@	c #1B1616",
"q@	c #332826",
"r@	c #292626",
"s@	c #6D6260",
"t@	c #7D6A67",
"u@	c #A39193",
"v@	c #A99597",
"w@	c #5F5757",
"x@	c #0E0C0A",
"y@	c #040303",
"z@	c #3A3737",
"A@	c #776A6A",
"B@	c #766F70",
"C@	c #836E6C",
"D@	c #331C18",
"E@	c #130E0D",
"F@	c #070606",
"G@	c #5B4440",
"H@	c #201A19",
"I@	c #42201B",
"J@	c #8F6D6D",
"K@	c #8C605B",
"L@	c #151010",
"M@	c #191413",
"N@	c #261D1B",
"O@	c #54423F",
"P@	c #7B0600",
"Q@	c #382A28",
"R@	c #463636",
"S@	c #56332D",
"T@	c #52221B",
"U@	c #3E0000",
"V@	c #3A1915",
"W@	c #020101",
"X@	c #372C2A",
"Y@	c #5B0800",
"Z@	c #971A05",
"`@	c #4C3C3D",
" #	c #611313",
".#	c #64261D",
"+#	c #281614",
"@#	c #3B2E2C",
"##	c #382E2C",
"$#	c #473737",
"%#	c #23110D",
"&#	c #4A3836",
"*#	c #473836",
"=#	c #0B0000",
"-#	c #360D0A",
";#	c #473534",
">#	c #0A0909",
",#	c #100807",
"'#	c #574442",
")#	c #433231",
"!#	c #352623",
"~#	c #70291E",
"{#	c #705E5D",
"]#	c #55423F",
"^#	c #090504",
"/#	c #331715",
"(#	c #140000",
"_#	c #846C66",
":#	c #2F201E",
"<#	c #27201F",
"[#	c #94301E",
"}#	c #221210",
"|#	c #8A0C00",
"1#	c #877069",
"2#	c #39302F",
"3#	c #6B5D5B",
"4#	c #862C1D",
"5#	c #484343",
"6#	c #7B6966",
"7#	c #BFA3A5",
"8#	c #544344",
"9#	c #B49B9D",
"0#	c #170B09",
"a#	c #4C0000",
"b#	c #A18F90",
"c#	c #33130A",
"d#	c #736B6C",
"e#	c #877C7D",
"f#	c #210000",
"g#	c #2B0000",
"h#	c #8C8081",
"i#	c #9A2918",
"j#	c #59423E",
"k#	c #150504",
"l#	c #998A8D",
"m#	c #8D8182",
"n#	c #938587",
"o#	c #463838",
"p#	c #908385",
"q#	c #84797A",
"r#	c #7A7273",
"s#	c #766E6F",
"t#	c #7F5E5A",
"u#	c #3C3A3B",
"v#	c #7E7475",
"w#	c #6C6667",
"x#	c #5E5B5C",
"y#	c #676162",
"z#	c #322728",
"A#	c #79130A",
"B#	c #4B3A3A",
"C#	c #1E0E0C",
"D#	c #343031",
"E#	c #150000",
"F#	c #383535",
"G#	c #151110",
"H#	c #0E0C0C",
"I#	c #5B0000",
"J#	c #4B1F17",
"K#	c #620C09",
"L#	c #524F4F",
"M#	c #030000",
"N#	c #220C07",
"O#	c #3A160E",
"P#	c #1F1B1B",
"Q#	c #1D0B09",
"R#	c #575455",
"S#	c #4D4A4B",
"T#	c #010101",
"U#	c #16110F",
"V#	c #0F0706",
"W#	c #2A2727",
"X#	c #4B4748",
"Y#	c #3D393A",
"Z#	c #312E2E",
"`#	c #090808",
" $	c #1C0D0A",
".$	c #4E4B4C",
"+$	c #2E2B2B",
"@$	c #1C1818",
"#$	c #3F3B3C",
"$$	c #363333",
"%$	c #171516",
"&$	c #464242",
"*$	c #494647",
"=$	c #302D2D",
"-$	c #181414",
";$	c #3A3636",
">$	c #524F50",
",$	c #6D6768",
"'$	c #645E5F",
")$	c #4E4949",
"!$	c #4C4949",
"~$	c #322F2F",
"{$	c #413E3E",
"]$	c #382F2F",
"^$	c #504B4C",
"/$	c #7F7677",
"($	c #83797A",
"_$	c #433F40",
":$	c #8B7E81",
"<$	c #776F70",
"[$	c #726B6C",
"}$	c #544E4F",
"|$	c #646061",
"1$	c #070000",
"2$	c #6E6869",
"3$	c #656061",
"4$	c #353131",
"5$	c #050000",
"6$	c #201312",
"7$	c #1A0B08",
"8$	c #120B0B",
"9$	c #2B1D1C",
"0$	c #2D2B2C",
"a$	c #351A1A",
"b$	c #574646",
"c$	c #130909",
"d$	c #050302",
"e$	c #271A19",
"f$	c #322C2C",
"g$	c #090101",
"h$	c #271D1C",
"i$	c #080100",
"j$	c #2B1714",
"k$	c #1B1111",
"l$	c #2B1E1D",
"m$	c #433736",
"n$	c #392A29",
"o$	c #1D100F",
"p$	c #53413E",
"q$	c #332423",
"r$	c #271B1A",
"s$	c #140908",
"t$	c #574847",
"u$	c #342524",
"v$	c #574745",
"w$	c #4A3938",
"x$	c #655553",
"y$	c #302524",
"z$	c #3F2F2E",
"A$	c #281E1D",
"B$	c #2B2120",
"C$	c #050202",
"D$	c #0C0302",
"E$	c #040202",
"                        . + @ # $ $ % &                                                       ",
"                        * = - ; % % > , '                                                     ",
"                    ) ! ~ { ] ^ $ $ / ' % '                                                   ",
"                    ( _ : < [ } | 1 $ $ 2 $                                                   ",
"                    3 _ 4 5 6 } 7 8 9 % 2 0                                                   ",
"                    ( a b c d e f g & h i 2 &                                                 ",
"                    j k l m n o p q # } r s t                                                 ",
"                      u v w x y z A B C D E F                                                 ",
"                        k k G H I J B K L M N                                                 ",
"                        k k O P Q R S T U V W                                                 ",
"                        X Y Z ` z B  ...+.@.W                                                 ",
"                        #.$.%.&.*.=.-.;.>.,.'.                                                ",
"                      k ).!.~.{.].^./.(._.:.<.                                                ",
"                    k [.}.|.1.2.3.4.5.6.7.8._                                                 ",
"                    9.0.a.+.b.c.d.:.e.f.g.h.i.j.                                              ",
"                    k.l.7.m.n.# o.p.q.0.r.s.b.t.u.v.w.x.                                      ",
"                  y.k.z.+.A.B.C.D.q.E.F.G.H.I.J.K.L.M.N.                                      ",
"              O.P.k Q.0.R.S.T.k j.U.w.V.! G.W.W # > X.Y.Z.                                    ",
"          `.`. +.+k N.++++@+k k D.#+$+%+&+++*+=+t -+;+>+& ,+                                  ",
"          O.'+#+)+!+~+{+]+^+k k O.'+/+++++0.(+_+:+-+<+[+0.}+                                  ",
"          O.O.|+^+k 1+2+^+3+k k 4+O..+! 5+6+7+8+G.9+0+,.o a+                                  ",
"          b+O.c+d+!+k k k `.k k O.O.#+++e+f+g+h+i+j+V k+k a+l+                                ",
"          m+`.n+o+k k k k #+p+k q+r+s+++++t+u+v+w+x+y+k k a+z+                                ",
"          !+A+#+B+O.|+k C+c+D+k E+q+O._ _ F+G+H+I+I+J+k a+K+k 4+                              ",
"          #+L+`.O.M+k k `.#+k k k `.`.) N.N+O+P+Q+I+R+k a+K+S+T+O.                            ",
"          #+#+`.`.U+k k V+O.k k k W+#+X+3 Y+Z+m.<+x+`+k K+K+K+O.O.                            ",
"          y.y. @x.k k k k #+`.V+k o+B+3 3 .@+@@@+.#@i+k $@%@&@&@*@                            ",
"          N.N.=@-@k k 3+c+c+;@>@,@k k $+k '@)@@@!@x+~@K+*@*@{@]@*@n                           ",
"          ^@* P./@k k c+k o+!+(@_@k k c+k :@<@[@}@} |@n ]@]@1@]@2@3@k                         ",
"          4@5@6@7@3 P.k c+3+8@#+L+k k c+k O+9@0@a@b@k a+]@]@c@]@]@k k                         ",
"          y.d@9.6@( k e@c+e@k f@c+|+!+k k g@h@i@j@k@l@a+l+m@K+&@n@k k k                       ",
"          y.y.9.9._ 9.c+c+e@k c+k k k o@|+p@q@G.r@s@t@a+u@v@l+w@k k k k                       ",
"          3 k+9.9.) ( !+  k k 3+c+c+c+x@y@z@A@z+B@B@C@D@*@ +B@k k k k                         ",
"          3 3 E@9.F@k       k k k k k k k G@H@I@D@O.J@K@k k+a+a+  k k                         ",
"          k 3 k L@M@k         k k k k k k N@O@P@P@Q@R@S@T@U@a+V@  k k                         ",
"          k 9.k W@) k           k k k k k k X@C+Y@Z@`@ #.#0.+#++  k                           ",
"          k 9.k k k             k y.k k k k @###k T@$#%#% q 0.&#++k k                         ",
"          k ) k k k             k y.k k k k '.*#F@=#.#-#% 0.0.'.;#k >#                        ",
"          k k 9.k k             k k k k k ,#'#)#!#k ~#.#{#H+$ ]#'.  P.                        ",
"          y.) ^#k k             ) w.k k k o /#& }+k (#Z@G.$ 9 _#% :#                          ",
"          y.^#k+k k             N.<#k k k W 0.t [#}#k |#t | 1#9 > %                           ",
"          k k k k k           k 2#N.3 3 o t 3 D@$@3#k (#4#'.++W ++++_                         ",
"          k k k k k         5#k+6#7#l+u@8#1@T@a+*@9#0#k a#c@O.n k k k                         ",
"          k k k k+%#        k $@*@l+ +b#&@]@$@n B@*@c#k+U@K+l+T@U@K+K+                        ",
"          k !+K+K+n       `.%#c@z+z+d# +z+ +z+c@*@e#$+}+k k+*@z+a+a+z+                        ",
"            k f#g#%#      O.8#2@]@h#z+O.z+2@]@1@l+]@2@K+i#T@j#]@n %#z+                        ",
"            k k#a+n       O.$@]@l#m#z+4+z+n#v@$@v@]@]@k+i#Z@I@]@a+k o#                        ",
"              k k+k       `.B@]@p#q#r# +s#z+z+c@]@]@]@m+|#Z@U@}+t#n k+u#4+                    ",
"              %#k+k       5#o#z+v#w#4+x#y#d#z+a+z+z+B@z#T@P@U@A#}+]@B#k+k O.                  ",
"              k k+k         z# + +x#4+`.4+4+4+k+B@ + +C#a+}+T@a#4#z+B@k+k+`.                  ",
"              k+k+k         5#O.O.O.O.#+c+D##+|+5#4+4+a+E#U@.#K+P@ + +D#e@k c+-@              ",
"              k+k+n k+k     #+F#`.`.`.`.G#c+c+k H#c+D#%#K+K+I#U@P@4+4+c+k c+k c+c+            ",
"              k k+n k+n     `.`.`.F##+#+|+-@c+k k k c+k c#J#K#U@P@q+L#c+k c+,@3+e@            ",
"              k k n n M#}#m+O.O.O.O.s+`.,@k k k k c+3+k N#O#T@U@.#O.'+c+c+P##+o+k k           ",
"                k Q#n k k #+4+R#O.O.O.#+k k k k k k k k k k k k+k `.k k c+#+#+n+k k           ",
"                k k+k+k k #+S#4+O.O.s+#+,@k k k k k k |+T#k k !+U#`.k e@c+c+`.c+k k           ",
"                k k+k+k k+#+#+#+#+#+P#c+c+-@k c+k C+  T#|+k k V#!+#+#+W#c+W#`.#+k c+k         ",
"                  k }#k+}#X#`.Y##+#+Z#P#c+e@k c+`##+    k k k k k `.4+`.c+F#`.c+`#`.5#        ",
"                  k  $k+!+`..$L#'+#+#+#+W#c+`#+$@$c+    k k k k k D+ +`.c+`.`.c+;@`.z# +      ",
"                    k+k k #+L#4+O.O.B+#+#+c+c+W##+            k c+k o+s+O.#$$$%$`.4+k &$      ",
"                    k+0#k #+M+O.M+`.`.#+#+c+c+c+c+                k k O.*$#+=$`.`.`.U+k O.    ",
"                      D@!+#+`.`.`.`.Y##+W#n+c+c+c+                -$k o+#+F#`.`.`.`.`.k `.    ",
"                        k #+O.M+F##+#+c+P##+;$c+                      k k `.`.>$,$'$`.`.)$ +  ",
"                          c+`.!$4+O.`.~$@$c+`.                        -$k c+k {$4+4+4+ + +]$4+",
"                          c+O.O.4+O.O.#$+$;@`.                            k k ^$ +/$*@($ +!+ +",
"                            `.`.`.O._$`.#+`.`.                            `.!+ +:$*@<$z+[$ +}$",
"                          c+$$`.`.`.`.`.`.`.m+                            a+a#l+&@l+l+z+r#8#z#",
"                        O.`.#+`.O.M+`.`.#$#+`.                            I#U@c@z+*@*@z+z+o#k ",
"                        4+ +B@|$O.O.O.#+#+#+                              k k #+ +1@5#O.B@m+  ",
"                      k z+z+B@B@O.L#4++$c+#+                              3 ! ( k 1$!+%#z+k   ",
"                    n k+z+h#2$B@3$4+L#4$+$                              k 3 ! o 5$k G.K+ +m+  ",
"                    a+z#]@*@z+B@4+L#`.O.#+                              k _ ++6$k T.7$I@o#z+  ",
"                  k+5#z+B@z#K+$@`.c+e@k #+                                _ 8$++y.9$! _ !+    ",
"                k k 0$l+ +%#a$b$#+e@3+k                                   c$d$k e$++e$_ k     ",
"              k k+w.k j. +8#c@f$P.k k                                     k _ k &+! &+_       ",
"              k ( ! g$k z+$@,@k k k                                       c$d$h$++++++(       ",
"              3 ( ( i$k o+j$k k k                                         k$k T.l$'.'.(       ",
"              k k k k k k k k                                             k k k '.'.m$9.      ",
"            k k k k k a 0#k                                               G.++3 H.n$@+        ",
"          k o k k a _ _ k+k                                               k o k ++++%+        ",
"          o$++G.G.G.k k k                                                 ++t 5$W p$++        ",
"          ++++W l$q$3 y.                                                  9.! q ++k Q.        ",
"          ++++*+'.r$k                                                     ) ++'.'.5+Q.        ",
"        0.'.H.++! s$                                                      y.Q.t$'.'.++        ",
"      0.0.;#'.'.N.                                                        y.u$'.5+q 0.        ",
"      q '#0.'.'.                                                          _ '.'.v$q # Q.      ",
"    ++q q q b@0.                                                          t$w$'.Q.'.++!       ",
"  ( ++0.0.0.0.& q t                                                       : t$'.{#x$t$@+++    ",
"  _ ++0.0.>.'.0.0.t 0.                                                    Q.t$++Q.y$_ 3 !     ",
"k o ! 6+0.z$'.++'.W q q t                                                 Q.t$! ( _ A$N.B$!   ",
"y.y.C$G.! G.D$y.E$3 o o o o ! 0.                                          y.y.y.y.y.y.y.y.y.k ",
"  y.y.y.y.k y.y.y.y.y.y.y.k k k                                             y.y.y.y.y.y.E$    "};
