/* XPM */
static char * A7_xpm[] = {
"43 93 553 2",
"  	c None",
". 	c #574847",
"+ 	c #846A66",
"@ 	c #745D5A",
"# 	c #302726",
"$ 	c #4C3A39",
"% 	c #614D4A",
"& 	c #65504E",
"* 	c #735E59",
"= 	c #462D2B",
"- 	c #282E32",
"; 	c #8A746E",
"> 	c #866E68",
", 	c #251D1C",
"' 	c #423230",
") 	c #5C4946",
"! 	c #66504E",
"~ 	c #5B4745",
"{ 	c #4A3633",
"] 	c #1D2328",
"^ 	c #846A65",
"/ 	c #846C66",
"( 	c #231C1B",
"_ 	c #504140",
": 	c #5D4946",
"< 	c #5B4845",
"[ 	c #795753",
"} 	c #171D22",
"| 	c #8B766E",
"1 	c #87716A",
"2 	c #836965",
"3 	c #594745",
"4 	c #594744",
"5 	c #5C4846",
"6 	c #6D5351",
"7 	c #5E4442",
"8 	c #22282C",
"9 	c #7F635F",
"0 	c #5E4643",
"a 	c #754F4C",
"b 	c #643E3C",
"c 	c #734D49",
"d 	c #181211",
"e 	c #61504E",
"f 	c #5E4B48",
"g 	c #604C4A",
"h 	c #694D4A",
"i 	c #6F5553",
"j 	c #65514E",
"k 	c #846B66",
"l 	c #2B1210",
"m 	c #3D2826",
"n 	c #463331",
"o 	c #89736A",
"p 	c #171111",
"q 	c #150F0F",
"r 	c #1E1210",
"s 	c #2C1D1C",
"t 	c #53403E",
"u 	c #231414",
"v 	c #311310",
"w 	c #6E3E3B",
"x 	c #3D1C18",
"y 	c #866F6D",
"z 	c #664D49",
"A 	c #4F302E",
"B 	c #100808",
"C 	c #000000",
"D 	c #14100F",
"E 	c #271E1D",
"F 	c #301D1C",
"G 	c #3B2927",
"H 	c #7F615D",
"I 	c #836865",
"J 	c #867069",
"K 	c #371A17",
"L 	c #3C1D1B",
"M 	c #4A3837",
"N 	c #201817",
"O 	c #433734",
"P 	c #150807",
"Q 	c #010101",
"R 	c #4B3C39",
"S 	c #584442",
"T 	c #836863",
"U 	c #7E5F5A",
"V 	c #7C5E59",
"W 	c #B29F7E",
"X 	c #99845D",
"Y 	c #95928C",
"Z 	c #010000",
"` 	c #3B2623",
" .	c #3C2724",
"..	c #372A28",
"+.	c #3D302E",
"@.	c #4B3A38",
"#.	c #634D4A",
"$.	c #2D0000",
"%.	c #2E0000",
"&.	c #271817",
"*.	c #271716",
"=.	c #473633",
"-.	c #221B19",
";.	c #604C49",
">.	c #624F4D",
",.	c #54413E",
"'.	c #201615",
").	c #201110",
"!.	c #4A3938",
"~.	c #574340",
"{.	c #67504C",
"].	c #3F302E",
"^.	c #BCA889",
"/.	c #927B54",
"(.	c #96948E",
"_.	c #2B2120",
":.	c #392B29",
"<.	c #0D0403",
"[.	c #050404",
"}.	c #171212",
"|.	c #270E0D",
"1.	c #533D3B",
"2.	c #604846",
"3.	c #674642",
"4.	c #280000",
"5.	c #8E7B73",
"6.	c #342928",
"7.	c #261210",
"8.	c #4F3230",
"9.	c #392522",
"0.	c #432C29",
"a.	c #4F3331",
"b.	c #4C302E",
"c.	c #4F3937",
"d.	c #563D3C",
"e.	c #56423F",
"f.	c #41302F",
"g.	c #564240",
"h.	c #020000",
"i.	c #160502",
"j.	c #2E2525",
"k.	c #433130",
"l.	c #0D0000",
"m.	c #372523",
"n.	c #4F413F",
"o.	c #513D3B",
"p.	c #604A47",
"q.	c #4E3937",
"r.	c #422E2C",
"s.	c #574441",
"t.	c #4A3432",
"u.	c #462F2C",
"v.	c #271715",
"w.	c #3C2C2B",
"x.	c #180C0B",
"y.	c #261A18",
"z.	c #181717",
"A.	c #554543",
"B.	c #564442",
"C.	c #270F0C",
"D.	c #413433",
"E.	c #262322",
"F.	c #252323",
"G.	c #232222",
"H.	c #343333",
"I.	c #100807",
"J.	c #0B0504",
"K.	c #120908",
"L.	c #53413F",
"M.	c #574543",
"N.	c #55413E",
"O.	c #6D5955",
"P.	c #050000",
"Q.	c #371715",
"R.	c #58332D",
"S.	c #1C1B1B",
"T.	c #1C1513",
"U.	c #0D0606",
"V.	c #121212",
"W.	c #554341",
"X.	c #564340",
"Y.	c #534240",
"Z.	c #403332",
"`.	c #270100",
" +	c #210C0A",
".+	c #4C2722",
"++	c #0D0201",
"@+	c #635F5F",
"#+	c #0D0C0C",
"$+	c #0E0301",
"%+	c #544240",
"&+	c #5E4745",
"*+	c #423332",
"=+	c #1D1616",
"-+	c #1C0C0B",
";+	c #754F4A",
">+	c #3B3839",
",+	c #373131",
"'+	c #070606",
")+	c #503E3C",
"!+	c #554240",
"~+	c #5E4945",
"{+	c #3E2F2E",
"]+	c #1E1717",
"^+	c #331C18",
"/+	c #221615",
"(+	c #070000",
"_+	c #070201",
":+	c #0C0000",
"<+	c #41312F",
"[+	c #675250",
"}+	c #392D2B",
"|+	c #2B2221",
"1+	c #23110D",
"2+	c #42201B",
"3+	c #5F3732",
"4+	c #444243",
"5+	c #746262",
"6+	c #201312",
"7+	c #302120",
"8+	c #3A2B2A",
"9+	c #352827",
"0+	c #4D3A38",
"a+	c #3A2D2C",
"b+	c #1D1413",
"c+	c #170A08",
"d+	c #716D6D",
"e+	c #594C4C",
"f+	c #5C4645",
"g+	c #634F4C",
"h+	c #53433E",
"i+	c #2E2523",
"j+	c #3C302E",
"k+	c #201412",
"l+	c #281613",
"m+	c #0B0605",
"n+	c #59423E",
"o+	c #512D27",
"p+	c #140000",
"q+	c #4E4A4C",
"r+	c #575355",
"s+	c #262C30",
"t+	c #21272B",
"u+	c #0B1014",
"v+	c #5B534D",
"w+	c #785F5C",
"x+	c #372927",
"y+	c #362522",
"z+	c #6B4D48",
"A+	c #1E0000",
"B+	c #323030",
"C+	c #0B0A0A",
"D+	c #3A3131",
"E+	c #2E2E30",
"F+	c #614D4B",
"G+	c #6B5452",
"H+	c #664F4B",
"I+	c #614E4B",
"J+	c #311F1D",
"K+	c #7C5853",
"L+	c #B38B86",
"M+	c #6B5D5B",
"N+	c #6A6465",
"O+	c #4F4C4C",
"P+	c #070404",
"Q+	c #201A1A",
"R+	c #52423F",
"S+	c #705E59",
"T+	c #5A4745",
"U+	c #372C2A",
"V+	c #42231E",
"W+	c #251715",
"X+	c #A26D66",
"Y+	c #B77870",
"Z+	c #766F70",
"`+	c #423E3F",
" @	c #1A1616",
".@	c #261F1E",
"+@	c #241B1A",
"@@	c #685350",
"#@	c #5D4A47",
"$@	c #423533",
"%@	c #422E2A",
"&@	c #8A7370",
"*@	c #646061",
"=@	c #484343",
"-@	c #715858",
";@	c #120F0D",
">@	c #2A2120",
",@	c #403230",
"'@	c #614A47",
")@	c #544344",
"!@	c #6B0000",
"~@	c #8F110D",
"{@	c #B09A9B",
"]@	c #92696A",
"^@	c #9C8C8F",
"/@	c #C7A7AA",
"(@	c #C5A0A2",
"_@	c #837879",
":@	c #290000",
"<@	c #140C0B",
"[@	c #372A29",
"}@	c #513F3D",
"|@	c #3F211F",
"1@	c #76291D",
"2@	c #100000",
"3@	c #908485",
"4@	c #8C8081",
"5@	c #877C7D",
"6@	c #736B6C",
"7@	c #1C1616",
"8@	c #221919",
"9@	c #28201F",
"0@	c #4A3A38",
"a@	c #5A3E3A",
"b@	c #94301E",
"c@	c #060000",
"d@	c #938687",
"e@	c #998A8D",
"f@	c #8D8182",
"g@	c #5B5859",
"h@	c #4E3E3C",
"i@	c #312625",
"j@	c #231A19",
"k@	c #634F4B",
"l@	c #694643",
"m@	c #52221B",
"n@	c #6E6162",
"o@	c #8F8384",
"p@	c #7C6767",
"q@	c #3C2D2E",
"r@	c #423C3C",
"s@	c #2D2B2C",
"t@	c #615D5F",
"u@	c #756D6E",
"v@	c #161313",
"w@	c #110A09",
"x@	c #281919",
"y@	c #867B7C",
"z@	c #2B2121",
"A@	c #333030",
"B@	c #110E0E",
"C@	c #604C4C",
"D@	c #98898C",
"E@	c #2E2D2D",
"F@	c #615251",
"G@	c #150000",
"H@	c #180000",
"I@	c #3F2521",
"J@	c #21120F",
"K@	c #150C0A",
"L@	c #1A0000",
"M@	c #3E0000",
"N@	c #401612",
"O@	c #211C1C",
"P@	c #0B0000",
"Q@	c #3C3231",
"R@	c #2A1513",
"S@	c #342929",
"T@	c #201411",
"U@	c #57332F",
"V@	c #571E15",
"W@	c #170B08",
"X@	c #1E1513",
"Y@	c #1C1515",
"Z@	c #29201F",
"`@	c #433332",
" #	c #443332",
".#	c #402F2E",
"+#	c #2D2423",
"@#	c #020202",
"##	c #312422",
"$#	c #1E1716",
"%#	c #4C3B39",
"&#	c #4E3D3B",
"*#	c #1E1817",
"=#	c #181313",
"-#	c #421B17",
";#	c #0C0604",
">#	c #130D0D",
",#	c #201918",
"'#	c #4D3C3A",
")#	c #52403E",
"!#	c #503F3D",
"~#	c #221B1B",
"{#	c #1C1615",
"]#	c #120000",
"^#	c #080403",
"/#	c #170B09",
"(#	c #3E2E2D",
"_#	c #1F1817",
":#	c #574542",
"<#	c #4F3E3C",
"[#	c #140F0F",
"}#	c #310807",
"|#	c #0F0201",
"1#	c #261E1D",
"2#	c #292020",
"3#	c #332827",
"4#	c #52413F",
"5#	c #634E4C",
"6#	c #6E5754",
"7#	c #352C29",
"8#	c #473534",
"9#	c #080201",
"0#	c #64261D",
"a#	c #7C4842",
"b#	c #2C2221",
"c#	c #261C1B",
"d#	c #1E1515",
"e#	c #211919",
"f#	c #2D2120",
"g#	c #392B2A",
"h#	c #281A19",
"i#	c #030000",
"j#	c #776968",
"k#	c #312727",
"l#	c #080000",
"m#	c #201A19",
"n#	c #322728",
"o#	c #A08F92",
"p#	c #AC9798",
"q#	c #A59293",
"r#	c #5B0000",
"s#	c #390000",
"t#	c #B59D9E",
"u#	c #937476",
"v#	c #854D47",
"w#	c #310000",
"x#	c #948788",
"y#	c #AB9598",
"z#	c #C2A4A7",
"A#	c #110402",
"B#	c #7F7677",
"C#	c #846062",
"D#	c #040000",
"E#	c #331715",
"F#	c #8C7F81",
"G#	c #CDA7AA",
"H#	c #8C605B",
"I#	c #0B0201",
"J#	c #971A05",
"K#	c #4A3734",
"L#	c #4C4949",
"M#	c #7B0600",
"N#	c #664F50",
"O#	c #6D6768",
"P#	c #0C0A09",
"Q#	c #454142",
"R#	c #050100",
"S#	c #1E1111",
"T#	c #2A0505",
"U#	c #413E3E",
"V#	c #090808",
"W#	c #2E2B2B",
"X#	c #3D393A",
"Y#	c #160807",
"Z#	c #2A2727",
"`#	c #1F1B1B",
" $	c #222020",
".$	c #181414",
"+$	c #343031",
"@$	c #463838",
"#$	c #050505",
"$$	c #151111",
"%$	c #100F0F",
"&$	c #201310",
"*$	c #282523",
"=$	c #302D2D",
"-$	c #281C19",
";$	c #383535",
">$	c #302C2C",
",$	c #3B3434",
"'$	c #A79394",
")$	c #231F1F",
"!$	c #312D2E",
"~$	c #111010",
"{$	c #3C3A3B",
"]$	c #615B5B",
"^$	c #544F50",
"/$	c #585455",
"($	c #524F50",
"_$	c #2B2929",
":$	c #605C5D",
"<$	c #6F6869",
"[$	c #252223",
"}$	c #1C1818",
"|$	c #312E2E",
"1$	c #4B4748",
"2$	c #1B1A1A",
"3$	c #817677",
"4$	c #83797A",
"5$	c #776F70",
"6$	c #7A7172",
"7$	c #3F3A3A",
"8$	c #535050",
"9$	c #5C595A",
"0$	c #696364",
"a$	c #726B6C",
"b$	c #5E5B5C",
"c$	c #938587",
"d$	c #7A7273",
"e$	c #3F3B3C",
"f$	c #343131",
"g$	c #454242",
"h$	c #282626",
"i$	c #6E6868",
"j$	c #3A3636",
"k$	c #585556",
"l$	c #1B1718",
"m$	c #221E1F",
"n$	c #1D1919",
"o$	c #020101",
"p$	c #130909",
"q$	c #100404",
"r$	c #16110F",
"s$	c #373030",
"t$	c #382C2B",
"u$	c #231B18",
"v$	c #1F1312",
"w$	c #1A0E0D",
"x$	c #090000",
"y$	c #211514",
"z$	c #2B1D1C",
"A$	c #161111",
"B$	c #3B2F2E",
"C$	c #160E0E",
"D$	c #140E0C",
"E$	c #272120",
"F$	c #271A19",
"G$	c #090101",
"H$	c #160A09",
"I$	c #0F0403",
"J$	c #655553",
"K$	c #161110",
"L$	c #271B1A",
"M$	c #473C3B",
"N$	c #382827",
"O$	c #5F4B49",
"P$	c #21100D",
"Q$	c #1D1211",
"R$	c #2F2322",
"S$	c #705E5D",
"T$	c #251817",
"U$	c #43302F",
"V$	c #180603",
"W$	c #1B0F0E",
"X$	c #0C0808",
"Y$	c #2B1E1D",
"Z$	c #0C0302",
"`$	c #040202",
" %	c #2E2220",
"                            . + @                                                     ",
"                      # $ % & * = - ; >                                               ",
"                    , ' ) ! ~ { ] ^ > / @                                             ",
"                  ( _ ~ : % < [ } | @ 1 ^ 2                                           ",
"                  ( 3 4 5 6 7 8 9 + 0 a b c                                           ",
"                d ( e f g h i j k l l m n n o                                         ",
"                p q r s t u v w x y z l A n 2                                         ",
"                  B C C D E F G + H I J K L M                                         ",
"                    p N O P Q R S T U V C W X Y                                       ",
"                    C C Z `  ...+.@.S #.$.%.C C                                       ",
"                        C &.*.=.-.;.>.,.%.%.C C                                       ",
"                        C '.).Q !.~.{.].%.^./.(.                                      ",
"                    _.:.<.C [.}.|.1.2.S 3.%.4.5.                                      ",
"                  6.7.8.9.0.a.b.c.d.e.f.g.%.h.i.                                      ",
"                j.k.l.m.n.o.p.q.r.s.t.u.v.w.x.C                                       ",
"                C y.C z.A.;.B.l C.D.E.F.G.H.                                          ",
"                I.J.C K.L.M.N.O.$ P.Q.@ R.2 S.G.                                      ",
"              T.U.V.C C L.W.X.Y.Z.`. +k k y .+++@+                                    ",
"              C #+C C $+M.%+&+*+=+C -+@ + @ ;+;+M >+,+                                ",
"              C '+C C i.)+!+~+{+]+C C ^+/+w.j L (+C @+i.                              ",
"              C C _+C :+<+) [+}+|+C 1+2+3+++i.i.C C 4+5+P.                            ",
"              C Z h.6+7+8+9+0+a+b+C C C Z Z c+i.C C ,+d+e+                            ",
"              C C C 7+f+g+h+i+j+k+^+^+l+m+C n+o+p+C q+q+r+                            ",
"              C C C M s+t+u+v+w+C x+x+y+^+Z z+z+A+C @+B+q+                            ",
"              C+d D+E+F+G+H+I+J+h.K+K+n+1+Z L+L+M+N+O+G.z.P+                          ",
"                ( Q+R+W.S+4 T+U+3+V+1+W+^+z+X+Y+Z+Z+`+N+ @S.C                         ",
"                d .@+@W.@@S #@$@3+^+^+^+%@z+K+&@Z+*@O+=@-@;@C                         ",
"                d d >@,@o.'@L )@)@C !@~@{@%.]@^@/@(@_@^+A+:@C                         ",
"                  C <@[@}@|@1@C ;@C 2@2@^@^@A+3@4@5@6@7@C C l.                        ",
"                ( 8@9@0@%+a@b@C C C c@2@d@e@A+_@_@f@g@C C C Z                         ",
"                M h@i@j@k@l@m@C C C C 2@n@o@p@q@3@r@A+%.%.C C C                       ",
"                /+C s@t@d+u@v@C C C C w@x@y@3@3@5@z@Z Z C C A@C C C                   ",
"                G.G.>+d+d+_@ @C C C C B@Z C@3@D@N+C C Z Z C =@C C                     ",
"                z.z.E@d+F@_@Z+C C C C C C C A@2@%.p+C G@A+C  @C H@                    ",
"                C C q+x.# I@3@J@K@C C C C C ^+%.L@M@m@A+N@   @C %.                    ",
"                C C O@P@Q@R@S@T@J@C C C C C :+i.C i.i.i.C    @  A+                    ",
"                  C >+C U@V@W@n+1+;@X@h.i.Y@Z@`@ #.#M +# +    C+@#,+                  ",
"                    C C C .+A+z+##C x+++ +b+$#%#%+&#g.*#=#      C+C+                  ",
"                    :+C C -#C ^+C ;#1+C :+>#,#L.'#)#!#~#{#        C+                  ",
"                    C -+i.]# +P@^#/#1+x.(#|+_#W.:#<#M.[#(         G.                  ",
"                    C :+}#|#i.Z 1+^#V++#1#2#}.3#4#5#6#7#k /+8#                        ",
"                      C `.i.9#C Z C 0#a#b#c#d#e#f#w.M g#w.h#/+                        ",
"                      C i# +C C 1+{@j#x+V+Z+1+^+:+:+:+h.k#w.i.x.                      ",
"                      C C l#m#C n#o#p#3@3@q#^@r#M@%.s#]@/@t#u#%.Z+                    ",
"                        C C # C z@d@e@^@5@3@/@v#M@M@w#x#y#z#{@A+_@                    ",
"                        A#C C l#z@5@3@3@B#Z+^@C#A+%.L@^@^@_@_@Z N+                    ",
"                        D#E#h.i.o+_@^@^@d@F#^@x#A+Z Z ^@G#_@_@2@_@                    ",
"                        C x P..  +_@^@3@D@^@^@^@%.C C g@N+{@Z+A+_@                    ",
"                        C `. +`.+ H#Z+_@_@3@_@_@C#2+%.Z z@g@Z+)@_@C                   ",
"                          i.I#P.L m@J#K#Z+Z+^@^@3@3@-@2@2@C O+`+L#O+g@n#              ",
"                          i.A#C L C M#%.N#_@N+Z+_@_@O#g@z@C P#`+Q#O+g@N+              ",
"                        C i.R#C l C A+S#T#0#`+O+g@g@g@U#B@V#C C C C  @ @A@            ",
"                          h.P@C  +C ^+ @ @A@ @W#X#O+`+C V#B@B@C  @A@ @ @`+L#          ",
"                          C C C Y#D#2+Z# @ @ @`#A@O+ $C C  @ @V#C .$ @ @+$`+          ",
"                          C C C C C %.@$C C #$.$+$`+C C  $A@ @ @ @C $$ @ @ @ @        ",
"                          C C C C %$X@M@C C C @#$$A@C V# @ @`+ @#$C C #$$$Z#O+        ",
"                          C     C A@A@&$$$@#C C C  $ @ @ @ @`+B@C C C C C A@g@        ",
"                          C   X@ @A+C  @^+$$C C C V#B@ @ @ @A@C C C *$C B@ @=$g@      ",
"                              C `+X@-$A@A@ @C B@`+$$C Z# @ @`+C C C O+C @$g@Z+Z+      ",
"                                `+;$A@A@A@ @C  @X#>$ @A@ @Z#`+C @#$$g@,$n#N+_@_@'$    ",
"                                `+`+`+A@A@)$ @ @!$`+ @C ~$A@ @C .$+$g@g@C {$_@_@_@    ",
"                                 @Z#A@A@A@A@;$+$ @W#;@`+A@A@ @ @ @A@;$`+C C _@]$`+N+^@",
"                                   @ @W#W#`#`+`+Z#)$;@`+  C V# @+$`+`+N+7@C ^$/$`+N+^@",
"                                  A@W# @ @ @`+`+A@C A@        A@A@A@($`+`+_$C N+g@Z+Z+",
"                                A@`+A@W# @ @A@`+;@=@O+        C C  @:$<$_@_@N+[$Z O+3@",
"                                }$|$A@W# @ @`+1$2$g@g@            A@<$3$^@4$5$n#C N+6$",
"                                 @}$A@}$}$W#`+7$8$9$0$            3@_@Z+_@5$4$-@2@a$N+",
"                              A@}$ @ @ @W#A@X#`+b$0$N+          3@D@/@c$_@N+^@^+Z @$Z ",
"                            O+A@|$`# @ @Z#A@A@A@N+N+b$        2@Z+_@_@_@d$3@_@P@C C Z ",
"                          g@N+e$f$A@Z# @$$C A@g$O+O+          =@2+0#A@g@{@3@/#C C C   ",
"                        O+O+O+Q#e$A@Z# @#$h$Z# @A@            A+:@C 1+z@^@N+C C C     ",
"                      =@i$O+g@O+j$ @ @ @+$+$ @`+              D#C P.:+C _@O+C C C     ",
"                    k$O+C 1+g@j$l$C $$ @ @m$`+n$              o$p$q$:+C >+^@r$X@      ",
"                    O+s$Z ^+g@$$@#C C C C C                 C p$x.x.x.Z C t$X@X@      ",
"                  u$O+@$2+@$ $C C C C C C C                 C x.x.v$:+h.C X@1+        ",
"                1+X@M+)@1+B@C C C C C C                     C ++w$/+x$h.C X@X@        ",
"                C C C C ;@C C C C                         C Z w$y$z$h.I.C x+          ",
"              C C C C C C C C C C                         C ++/+/+Q@A$x.C 1+          ",
"            C C C C C C 1+C C C                           C ++7+7+B$Q@C$C             ",
"            C C C C C d 1+C D$                            C h.t$7+7+E$C               ",
"            C C C C C C X@C                               C l#w.7+F$C h.              ",
"        h.++++G$C C m+C X@                                x$C w.. /+p$C               ",
"      x.x.x.H$I$C C                                     d 7+C /+J$/+++                ",
"      y$w$x.x.x.C K$                                    m+7+S h.J$w.C                 ",
"    w.L$/+/+Q@(                                         Q@/+/+x.M x.C                 ",
"  7+w.w.w.w.w.                                          # w.M$w.M w.C                 ",
"  7+N$w.w.w.O$M                                       /+( . . j M x.x.                ",
"h.7+7+/+7+7+f.P$ +M                                   Q$# x.x.x.R$M$S$S               ",
"h.T$7+/+7+/+7+:+w.5 U$l V$                            # M$M$M$Q@M$M$. w.w.M           ",
"C W$/+W$x.++C :+/+i.l  +l                             X$# # x.h.h.h./+Y$w.M M         ",
"  m+m+m+m+m+m+m+C C C h.h.:+w.j                       o$m+Z$( # Q@Q@Q@Q@7+x.7+7+M     ",
"                                                      m+m+m+m+m+m+m+m+m+m+`$h.++x.J$7+",
"                                                       %m+m+m+m+m+m+m+m+m+m+m+m+m+C   "};
