/* XPM */
static char * A8_xpm[] = {
"34 93 528 2",
"  	c None",
". 	c #61504E",
"+ 	c #66504E",
"@ 	c #6B5551",
"# 	c #5F4B48",
"$ 	c #725B58",
"% 	c #493C3B",
"& 	c #5E4A48",
"* 	c #5F4A48",
"= 	c #644E4C",
"- 	c #7E6561",
"; 	c #755F59",
"> 	c #76605A",
", 	c #826B65",
"' 	c #87716A",
") 	c #181211",
"! 	c #5C4948",
"~ 	c #564240",
"{ 	c #5E4947",
"] 	c #695451",
"^ 	c #21272B",
"/ 	c #171D22",
"( 	c #775652",
"_ 	c #826862",
": 	c #846A65",
"< 	c #231C1B",
"[ 	c #302726",
"} 	c #564341",
"| 	c #624D4A",
"1 	c #343436",
"2 	c #735A58",
"3 	c #7B5B58",
"4 	c #644D4A",
"5 	c #634C49",
"6 	c #836965",
"7 	c #7E605A",
"8 	c #3C3231",
"9 	c #574341",
"0 	c #513E3C",
"a 	c #624D4B",
"b 	c #3A201E",
"c 	c #422D2B",
"d 	c #463331",
"e 	c #371B18",
"f 	c #734946",
"g 	c #340F0D",
"h 	c #241C1B",
"i 	c #4F3C39",
"j 	c #564340",
"k 	c #311A18",
"l 	c #371D1B",
"m 	c #654F4D",
"n 	c #65514E",
"o 	c #0B0605",
"p 	c #010101",
"q 	c #5C4846",
"r 	c #3C221F",
"s 	c #5F4A47",
"t 	c #321917",
"u 	c #2B1210",
"v 	c #423533",
"w 	c #1E0000",
"x 	c #000000",
"y 	c #040000",
"z 	c #340000",
"A 	c #54403F",
"B 	c #2C1A18",
"C 	c #311310",
"D 	c #584442",
"E 	c #4A2F2C",
"F 	c #C2AE8F",
"G 	c #D2C6A8",
"H 	c #71423C",
"I 	c #3B2C2B",
"J 	c #3C1D1B",
"K 	c #4A3837",
"L 	c #846B66",
"M 	c #382421",
"N 	c #120000",
"O 	c #221615",
"P 	c #0C0000",
"Q 	c #1F0F0C",
"R 	c #302120",
"S 	c #3E0000",
"T 	c #3C2C2B",
"U 	c #473534",
"V 	c #352625",
"W 	c #3C0000",
"X 	c #AEA180",
"Y 	c #CBBEA0",
"Z 	c #746650",
"` 	c #1D0F0F",
" .	c #4D3B3A",
"..	c #4E3C3A",
"+.	c #342524",
"@.	c #382827",
"#.	c #190000",
"$.	c #050000",
"%.	c #745D5A",
"&.	c #54413F",
"*.	c #190C0B",
"=.	c #2E0000",
"-.	c #806B69",
";.	c #594543",
">.	c #5A4644",
",.	c #5A4543",
"'.	c #42302F",
").	c #180C0B",
"!.	c #433939",
"~.	c #433E3E",
"{.	c #292626",
"].	c #64504D",
"^.	c #4B3837",
"/.	c #020000",
"(.	c #381313",
"_.	c #473C3B",
":.	c #210C0A",
"<.	c #5B3331",
"[.	c #181717",
"}.	c #635E5E",
"|.	c #706B6B",
"1.	c #76605B",
"2.	c #291B1A",
"3.	c #6C5653",
"4.	c #76625D",
"5.	c #473634",
"6.	c #130403",
"7.	c #754F4A",
"8.	c #7E5F5A",
"9.	c #53332F",
"0.	c #0B0A0A",
"a.	c #635F5F",
"b.	c #160502",
"c.	c #6C5552",
"d.	c #0D0201",
"e.	c #79615D",
"f.	c #6C5855",
"g.	c #332826",
"h.	c #866E68",
"i.	c #89726B",
"j.	c #846A66",
"k.	c #726E6E",
"l.	c #675D5E",
"m.	c #735C59",
"n.	c #4B3938",
"o.	c #685450",
"p.	c #1F0202",
"q.	c #4C2722",
"r.	c #3D1C18",
"s.	c #736E6E",
"t.	c #897F81",
"u.	c #311718",
"v.	c #0B0000",
"w.	c #2B2525",
"x.	c #373131",
"y.	c #301C1A",
"z.	c #010000",
"A.	c #0E0301",
"B.	c #171212",
"C.	c #968B8B",
"D.	c #968A8C",
"E.	c #432020",
"F.	c #856D6E",
"G.	c #635454",
"H.	c #595557",
"I.	c #837A7B",
"J.	c #877373",
"K.	c #030000",
"L.	c #282525",
"M.	c #8E8486",
"N.	c #766667",
"O.	c #5E585A",
"P.	c #5D585A",
"Q.	c #362B2A",
"R.	c #4C3A39",
"S.	c #3D2D2C",
"T.	c #3E2421",
"U.	c #81787A",
"V.	c #908586",
"W.	c #8B8183",
"X.	c #1A0F0F",
"Y.	c #260000",
"Z.	c #8A8182",
"`.	c #AC9899",
" +	c #604C4A",
".+	c #604C48",
"++	c #806E67",
"@+	c #170B09",
"#+	c #161212",
"$+	c #4E4849",
"%+	c #655D5E",
"&+	c #827A7B",
"*+	c #877D7E",
"=+	c #181414",
"-+	c #877D7F",
";+	c #686060",
">+	c #4A4444",
",+	c #9C8D8F",
"'+	c #938788",
")+	c #040303",
"!+	c #644D4B",
"~+	c #5D4947",
"{+	c #353436",
"]+	c #6B615D",
"^+	c #140000",
"/+	c #090808",
"(+	c #605B5C",
"_+	c #7E7476",
":+	c #665E60",
"<+	c #686163",
"[+	c #7A7173",
"}+	c #0F0E0E",
"|+	c #BA9D9F",
"1+	c #9A8C8F",
"2+	c #797070",
"3+	c #736A6A",
"4+	c #A7888A",
"5+	c #918587",
"6+	c #0C0706",
"7+	c #2D2322",
"8+	c #574543",
"9+	c #333335",
"0+	c #282E32",
"a+	c #3E3535",
"b+	c #100000",
"c+	c #3C3132",
"d+	c #625B5C",
"e+	c #746A6C",
"f+	c #817778",
"g+	c #5F5859",
"h+	c #4F4C4C",
"i+	c #5A5656",
"j+	c #0D0B0B",
"k+	c #1D1717",
"l+	c #776F71",
"m+	c #847B7C",
"n+	c #51494A",
"o+	c #70696A",
"p+	c #555151",
"q+	c #241817",
"r+	c #614D4B",
"s+	c #342A2A",
"t+	c #512D27",
"u+	c #331C18",
"v+	c #372623",
"w+	c #7B7374",
"x+	c #655E5F",
"y+	c #797072",
"z+	c #615A5B",
"A+	c #605253",
"B+	c #2B2121",
"C+	c #211A1A",
"D+	c #272222",
"E+	c #2F2C2C",
"F+	c #908486",
"G+	c #887E80",
"H+	c #464242",
"I+	c #6A6465",
"J+	c #100807",
"K+	c #695350",
"L+	c #5B4745",
"M+	c #301715",
"N+	c #42231E",
"O+	c #23110D",
"P+	c #9A8B8E",
"Q+	c #7E7576",
"R+	c #6B6567",
"S+	c #7C7375",
"T+	c #484343",
"U+	c #5F5757",
"V+	c #1C1616",
"W+	c #7E7577",
"X+	c #362B2C",
"Y+	c #130E0D",
"Z+	c #523F3D",
"`+	c #331715",
" @	c #151516",
".@	c #343232",
"+@	c #746C6E",
"@@	c #716A6C",
"#@	c #756D6E",
"$@	c #6D6768",
"%@	c #4C0000",
"&@	c #333030",
"*@	c #363333",
"=@	c #3D2724",
"-@	c #766F70",
";@	c #503F3D",
">@	c #523C3A",
",@	c #32201E",
"'@	c #423E3F",
")@	c #565051",
"!@	c #5C5555",
"~@	c #1A1616",
"{@	c #1E1513",
"]@	c #342525",
"^@	c #5B5859",
"/@	c #837879",
"(@	c #533F3D",
"_@	c #35211F",
":@	c #222020",
"<@	c #373232",
"[@	c #4C4646",
"}@	c #675E60",
"|@	c #0A0808",
"1@	c #320000",
"2@	c #240000",
"3@	c #5F3732",
"4@	c #6A4546",
"5@	c #5E4A47",
"6@	c #594949",
"7@	c #383434",
"8@	c #151210",
"9@	c #423D3E",
"0@	c #250000",
"a@	c #150000",
"b@	c #322728",
"c@	c #3B3839",
"d@	c #514444",
"e@	c #554343",
"f@	c #5B4846",
"g@	c #3B3130",
"h@	c #2E2D2D",
"i@	c #2B2929",
"j@	c #370000",
"k@	c #140E0C",
"l@	c #544344",
"m@	c #514240",
"n@	c #544241",
"o@	c #5A4745",
"p@	c #3C3534",
"q@	c #0A0909",
"r@	c #040404",
"s@	c #282626",
"t@	c #171515",
"u@	c #4B1612",
"v@	c #68524F",
"w@	c #4C3A38",
"x@	c #5F4C4B",
"y@	c #463F3E",
"z@	c #64261D",
"A@	c #5A4643",
"B@	c #655958",
"C@	c #221210",
"D@	c #2F201F",
"E@	c #4F4847",
"F@	c #100606",
"G@	c #2A1B1A",
"H@	c #422623",
"I@	c #28100F",
"J@	c #5B5151",
"K@	c #5F4B49",
"L@	c #261A18",
"M@	c #4E3C3B",
"N@	c #151010",
"O@	c #1C1B1B",
"P@	c #634F4C",
"Q@	c #2C1715",
"R@	c #270100",
"S@	c #271A19",
"T@	c #3C2C2A",
"U@	c #5C4845",
"V@	c #5D4846",
"W@	c #2A1C1A",
"X@	c #0C0504",
"Y@	c #421B17",
"Z@	c #614D4A",
"`@	c #463533",
" #	c #281B1A",
".#	c #5D4946",
"+#	c #4D3B39",
"@#	c #2D1F1E",
"##	c #2C1E1C",
"$#	c #66504D",
"%#	c #381D1B",
"&#	c #574643",
"*#	c #6B5552",
"=#	c #604C49",
"-#	c #362726",
";#	c #453332",
">#	c #170909",
",#	c #5D4541",
"'#	c #58423F",
")#	c #3E201E",
"!#	c #180704",
"~#	c #1A0906",
"{#	c #604B49",
"]#	c #493735",
"^#	c #67463E",
"/#	c #321B19",
"(#	c #201615",
"_#	c #3B2B29",
":#	c #7C6360",
"<#	c #3C2B2A",
"[#	c #170D0C",
"}#	c #1A0806",
"|#	c #080201",
"1#	c #B09A9B",
"2#	c #9C8C8F",
"3#	c #372927",
"4#	c #42201B",
"5#	c #160807",
"6#	c #2F1F1D",
"7#	c #604C4C",
"8#	c #908485",
"9#	c #C7A7AA",
"0#	c #716D6D",
"a#	c #4E4343",
"b#	c #83797B",
"c#	c #280000",
"d#	c #493031",
"e#	c #7B6D70",
"f#	c #5E5253",
"g#	c #433F40",
"h#	c #4C4949",
"i#	c #271210",
"j#	c #736264",
"k#	c #44393B",
"l#	c #4E4243",
"m#	c #140201",
"n#	c #380000",
"o#	c #715858",
"p#	c #4C3C3F",
"q#	c #463436",
"r#	c #433739",
"s#	c #510000",
"t#	c #5B0000",
"u#	c #160000",
"v#	c #454142",
"w#	c #2E2525",
"x#	c #430000",
"y#	c #6B5D5F",
"z#	c #4B3D3F",
"A#	c #551612",
"B#	c #524F50",
"C#	c #2D2929",
"D#	c #6A6262",
"E#	c #4F4445",
"F#	c #332626",
"G#	c #736B6C",
"H#	c #50494A",
"I#	c #070000",
"J#	c #221E1F",
"K#	c #3A3636",
"L#	c #151111",
"M#	c #2E2B2B",
"N#	c #332B2B",
"O#	c #53494A",
"P#	c #575455",
"Q#	c #1C1818",
"R#	c #383535",
"S#	c #463838",
"T#	c #221313",
"U#	c #4B4242",
"V#	c #615C5C",
"W#	c #52221B",
"X#	c #191313",
"Y#	c #5E5B5C",
"Z#	c #676162",
"`#	c #33130A",
" $	c #3C1505",
".$	c #110402",
"+$	c #050505",
"@$	c #343031",
"#$	c #120F0D",
"$$	c #020202",
"%$	c #535050",
"&$	c #3D3A3A",
"*$	c #393636",
"=$	c #494646",
"-$	c #A4230A",
";$	c #332F2E",
">$	c #696364",
",$	c #444141",
"'$	c #252121",
")$	c #450C09",
"!$	c #9A594F",
"~$	c #464142",
"{$	c #2A2727",
"]$	c #854D47",
"^$	c #92696A",
"/$	c #AC645A",
"($	c #474344",
"_$	c #595556",
":$	c #656061",
"<$	c #E7B5B8",
"[$	c #282424",
"}$	c #645F60",
"|$	c #403839",
"1$	c #706A6B",
"2$	c #7F7576",
"3$	c #A18E8F",
"4$	c #797172",
"5$	c #938587",
"6$	c #726B6C",
"7$	c #83797A",
"8$	c #635C5D",
"9$	c #8F8284",
"0$	c #191718",
"a$	c #0E0C0A",
"b$	c #585252",
"c$	c #232222",
"d$	c #2D2B2C",
"e$	c #070404",
"f$	c #040202",
"g$	c #090504",
"h$	c #070403",
"i$	c #020101",
"j$	c #180B09",
"k$	c #1C1615",
"l$	c #272120",
"m$	c #574847",
"n$	c #0F0A09",
"o$	c #150F0E",
"p$	c #413635",
"q$	c #705E5D",
"r$	c #866F6D",
"s$	c #0B0807",
"t$	c #1B0F0E",
"u$	c #3D2E2D",
"v$	c #655553",
"w$	c #100C0B",
"x$	c #140908",
"y$	c #453A39",
"z$	c #735E5B",
"A$	c #1C1513",
"B$	c #140E0D",
"C$	c #4B3A39",
"                            . + @ # $                               ",
"                        % & * = - ; > , '                           ",
"                      ) ! ~ { ] ^ / ( _ :                           ",
"                    < [ } ~ | 1 2 3 4 5 6 7                         ",
"                    ) 8 9 0 a b c d d e f g                         ",
"                    ) h 9 i j k l d d m n d                         ",
"                    o p q r s t u < v w x y z                       ",
"                      x A B C D E v < x F G H                       ",
"                      ) I J K L n M N x x x x                       ",
"                        ) O P Q R R S w x x x                       ",
"                        x T U V P R S W X Y Z x                     ",
"                        x `  ...+.@.#.S S $.y %.                    ",
"                        R O &.9 D *.$.=.n L L -.                    ",
"                      D D D ;.>.,.'.R =.).x x                       ",
"                    !.~.{.[ ].} * ^./.(.K D _.                      ",
"              ' n :.<.L :.R [.}.|.1.D K 2.x R                       ",
"          3.4.5.u 6.:.n 7.8.9.).0.a.x x b.n c.c.                    ",
"      d.-.e.f.g.:._.T n h.i.8.j.P k.l.$.:.D m.e.$ K                 ",
"      R n.o.].p.K D ).P D q.r.r.%.s.t.u.x v.x P x a.w.x.            ",
"      < y.n.x b.x /.x x x z.A.x d.B.C.D.E.F.G.P H.a.I.J.            ",
"      /.:.O R b.x x x x x x x x K.L.M.C.N.K G.$.O.P.C.C.            ",
"      < Q.R.S.O R T.x x x x x x x k.U.V.W.X.Y.v.C.Z.D.C.`.          ",
"    x  +.+4.++P b.@+x x x x x x #+$+%+&+*+=+x $.C.-+;+>+,+'+        ",
"    )+!+~+{+]+:.:.x x x x z.^+/+(+_+:+<+[+}+x =.|+1+2+3+4+5+        ",
"  6+7+8+D 9+0+a+H x x x x b+c+d+e+f+g+h+i+x x z.j+k+l+m+n+o+p+      ",
"  o q+r+;.s+0+0+t+u+z.z.v+w+x+y+z+A+B+x C+z.x x B+D+E+F+G+H+I+      ",
"  /.J+K+L+M+D 0+N+O+C+z.P+Q+R+S+T+O+S x x z.z.x U+T+}+V+W+X+I+      ",
"  Y+/.Z+D `+0+ @x x .@T++@@@#@$@u+w b+%@z.x z.w x x &@x *@=@-@      ",
"  x ;@>@,@q.u x x x x '@B+)@!@~@x x {@=.=.w b+b+]@^@I+V+x z./@B+    ",
"  p ~+(@_@J n   x x x :@<@[@}@|@w O+z.x 1@w v.2@b+~@x 3@x w 4@&@    ",
"x x 5@8+6@x       x x x 7@8@9@x x b+x x x w 0@S S ^@H S =.a@w b@    ",
"c@d@e@f@g@h@        x x i@'@&@x x x x x x w j@S a@V+k@x z.S x l@    ",
"p+m@n@o@p@q@          x r@s@t@x x x x x z.w S u@z.x x x x w x l@    ",
"x v@w@x@y@              x x x x v.z.x O+x w S z@O+O+z.x x =.'@T+x   ",
"x A A@B@b.                x x K.P d.z./.x @+=.H C@x b+b+{@S   &@/@  ",
"/.D@!+E@$.                  x F@G@O z.x /.x x !.x H@I@b+    =.  '@  ",
"b.J@K@) x                   R L@M@K D N@< x O O@P@v@Q@R           h@",
"x [ r.R@                  ) K S@T@U@V@W@).X@x B.u J `+/.            ",
"x < `+Y@                  Q.Z@`@ #.#L++#@### +/.$#K@%#P             ",
"x [ K R@                < &#*#=#D >..#-#;#>#J D ,#'#)#:.T O         ",
"$.)._.:.                O O !#~#] {#]#/.R x T b.^#Z@/#(#x b.        ",
"b.P [ x                 /./././._#:#<#R [#x R P P D }#|#z.R         ",
"x x /.              ^@^@x x u+1#2#-@3#4#x 5#b.b.b.T 6#b.b.R %.c@    ",
"x x x               h+I+z.x 7#8#8#9#1##.b+w a@=.0#a.h@0.x x a#a.    ",
"x x /.              *@'@x x -@I+b#2#/@b+z.%@c#d#e#f#2#-@S =.O+2#    ",
"x x x R@            g#h#x x /@8#2#8#/@i#b+=.W j#k#l#2#/@u+z.z.-@    ",
"x x m#R@            h+h+z.x T+I+2#2#-@2#%@n#o#p#q#r#2#-@7#s#t#I+    ",
"$.x R@u#Y@          v#h+w#z.{@^@^@1#8#8#x#%@u+y#l@z#2#/@H t#A#'@    ",
"x x u b.r.          '@B#-@z.x C#^@/@/@'@&@x s@$@D#E#2#/@=.=./@      ",
"x x :.x 5#) [       '@'@'@B#x x &@'@h+^@^@I+-@F#G#H#-@*+S o#^@w     ",
"x x b.x x x x I#    ~@J#K#'@x x ~@x L#M#&@&@'@N#-@-@I+O#b+h+P#u+    ",
"x x x x 5#    x x     ~@~@:@x x x x x Q#M#R#'@'@S#o#S#T#U#V#h+W#=.  ",
"  x x /.T               ~@x x ~@x ~@~@~@~@'@'@'@B+I+X#S#Y#Z#l@`# $  ",
"  x x x .$                x +$~@L#x =+~@~@@$R#&@&@S##$'@'@^@l@S =.  ",
"    x x x                 x ~@~@L#+$$$=+~@~@~@~@h+z.h+h+^@%$&@b+x z@",
"    x x x A.:.              +$~@x ~@x $$L#&$P#^@-@u+v#h#^@h+T+=.O+  ",
"      x x x R               x ~@x ~@x x x *$=$h+-@7#'@'@R#&@S#4#u+  ",
"      x x x                 x ~@x '@x V+'@&@&@'@/@8#^@h#'@h+=.-$=.z@",
"                              x x '@;$T+^@-@-@8#1#2#I+>$,$'$z.)$W#!$",
"                              x x '@~$T+^@-@-@8#9#9#S#'@J#{$H W#W#]$",
"                                x '@'@x H+-@-@I+/@8#o#I+'@  !$u+z@]$",
"                                  R#'@x x '@'@h+2#1#^$'@    /$  !$  ",
"                                  &@'@x x ($_$:$2#<$2#I+            ",
"                                    [$^@{@^@I+}$-@1#2#-@            ",
"                                    Y#Z#I+|$^@1$-@1#/@/@            ",
"                                  &@I+I+I+z.I+2$-@3$/@4$            ",
"                                  /@^@/@/@z.H+/@8#/@5$              ",
"                                -@6$6$8#w#z.z.x =.x 8#              ",
"                                /@I+7$8$z.x x x z.{@I+              ",
"                              v.x 9$-@0$x x x x a$^@                ",
"                            x x x -@b$x x x x x x                   ",
"                            x x x c$I+x x x x x x                   ",
"                            x x x c@d$x x x x x                     ",
"                          B.x x x x x x x x x x                     ",
"                          e$o x x x x x x x x x                     ",
"                          x x x x x x x x x                         ",
"                          x o x x x x x x                           ",
"                        x x o f$x x o z.x                           ",
"                        x x g$o ) x z.h$                            ",
"                        x x x o x x x                               ",
"                        x z.o o x x x                               ",
"                      x x < i$g$) ) o                               ",
"                    O+j$z.x ) x x k$o                               ",
"                    x /.J+x /.x x x                                 ",
"                  /.d.< d.l$x x x x                                 ",
"                  /.o [ m$O R P ) I#x                               ",
"                  x n$o$p$q$).T r$_.R                               ",
"                O+x s$o ) /.d.O q$m$q$T K                           ",
"                  h$x x x x < t$d.m$u$v$n n                         ",
"                    x x x x w$d.x$y$m$v$-.z$n                       ",
"                    3#3#A$x x o B$d.d.O C$-.K K T T                 ",
"                    3#3#3#3#3#3#o f$f$o o 8 q$R ).8 {.              ",
"                            o o o o o o f$                          "};
