/* XPM */
static char * B1_xpm[] = {
"40 97 624 2",
"  	c None",
". 	c #846B66",
"+ 	c #745D5A",
"@ 	c #867069",
"# 	c #282D30",
"$ 	c #655955",
"% 	c #866E68",
"& 	c #705A56",
"* 	c #302726",
"= 	c #795F5C",
"- 	c #7A625D",
"; 	c #715F5A",
"> 	c #4E4646",
", 	c #8B766F",
"' 	c #473C3B",
") 	c #513E3D",
"! 	c #735B57",
"~ 	c #654E4C",
"{ 	c #715855",
"] 	c #715956",
"^ 	c #745B58",
"/ 	c #5E4946",
"( 	c #826964",
"_ 	c #644E4C",
": 	c #685350",
"< 	c #68514E",
"[ 	c #69514F",
"} 	c #5F4A47",
"| 	c #5C4643",
"1 	c #745C57",
"2 	c #3A2524",
"3 	c #382826",
"4 	c #3E302D",
"5 	c #47221D",
"6 	c #54403F",
"7 	c #6E5653",
"8 	c #3D2B29",
"9 	c #271613",
"0 	c #261613",
"a 	c #3D1C1B",
"b 	c #251613",
"c 	c #2B1A17",
"d 	c #372623",
"e 	c #321A16",
"f 	c #453634",
"g 	c #6F5855",
"h 	c #3C2A28",
"i 	c #332220",
"j 	c #7A5E5A",
"k 	c #6B5148",
"l 	c #70554E",
"m 	c #1C0000",
"n 	c #42302D",
"o 	c #42231E",
"p 	c #271816",
"q 	c #6B5351",
"r 	c #3D2B28",
"s 	c #65514E",
"t 	c #210C0A",
"u 	c #64261D",
"v 	c #71423C",
"w 	c #23110D",
"x 	c #352826",
"y 	c #6B5350",
"z 	c #312524",
"A 	c #000000",
"B 	c #6E654D",
"C 	c #9A8762",
"D 	c #847A65",
"E 	c #281613",
"F 	c #0C0000",
"G 	c #3D312F",
"H 	c #140F0E",
"I 	c #270000",
"J 	c #180000",
"K 	c #160000",
"L 	c #322626",
"M 	c #312626",
"N 	c #4E2825",
"O 	c #3B0000",
"P 	c #85764C",
"Q 	c #6F6038",
"R 	c #C1B291",
"S 	c #1E0000",
"T 	c #1D0C0A",
"U 	c #372927",
"V 	c #251D1C",
"W 	c #2D2322",
"X 	c #372827",
"Y 	c #170000",
"Z 	c #4C2B25",
"` 	c #512D27",
" .	c #201919",
"..	c #342B29",
"+.	c #2F2523",
"@.	c #3B0101",
"#.	c #71574E",
"$.	c #70534D",
"%.	c #070000",
"&.	c #010000",
"*.	c #854D47",
"=.	c #302120",
"-.	c #180C0B",
";.	c #281F1E",
">.	c #413130",
",.	c #3F3532",
"'.	c #7F6562",
").	c #150C0B",
"!.	c #AC645A",
"~.	c #4A3837",
"{.	c #584442",
"].	c #846A66",
"^.	c #1A1211",
"/.	c #2E2524",
"(.	c #211615",
"_.	c #2F2120",
":.	c #160E0E",
"<.	c #908485",
"[.	c #2E2D2D",
"}.	c #68463E",
"|.	c #79615E",
"1.	c #705A57",
"2.	c #261A19",
"3.	c #2D2423",
"4.	c #2F201E",
"5.	c #2C2624",
"6.	c #393130",
"7.	c #3C2C2B",
"8.	c #190E0D",
"9.	c #0D0201",
"0.	c #070403",
"a.	c #090101",
"b.	c #574847",
"c.	c #6A6465",
"d.	c #221615",
"e.	c #998E85",
"f.	c #220D0B",
"g.	c #574543",
"h.	c #2D2221",
"i.	c #302524",
"j.	c #0B0605",
"k.	c #341F1D",
"l.	c #020000",
"m.	c #716D6D",
"n.	c #423E3F",
"o.	c #331715",
"p.	c #866F6D",
"q.	c #7E5F5A",
"r.	c #58332E",
"s.	c #403230",
"t.	c #332827",
"u.	c #3B3839",
"v.	c #4F3C3B",
"w.	c #715858",
"x.	c #9B8B8E",
"y.	c #762B1E",
"z.	c #4C2722",
"A.	c #221413",
"B.	c #665350",
"C.	c #010101",
"D.	c #4E4A4C",
"E.	c #806963",
"F.	c #705B56",
"G.	c #99524A",
"H.	c #99534A",
"I.	c #2E0000",
"J.	c #450B0B",
"K.	c #A79395",
"L.	c #662A21",
"M.	c #94301E",
"N.	c #2B1D1C",
"O.	c #5F4C49",
"P.	c #67524F",
"Q.	c #595557",
"R.	c #574341",
"S.	c #714C47",
"T.	c #451F1F",
"U.	c #998A8B",
"V.	c #97898A",
"W.	c #3E0000",
"X.	c #0B0000",
"Y.	c #160502",
"Z.	c #77615D",
"`.	c #6D5753",
" +	c #735E5C",
".+	c #4D3E3C",
"++	c #140909",
"@+	c #504D4E",
"#+	c #0B0A0A",
"$+	c #100000",
"%+	c #5B0000",
"&+	c #562525",
"*+	c #A38F94",
"=+	c #A99294",
"-+	c #290000",
";+	c #423230",
">+	c #503E3C",
",+	c #614D4A",
"'+	c #6E5855",
")+	c #755F5C",
"!+	c #332927",
"~+	c #362421",
"{+	c #4E4142",
"]+	c #908384",
"^+	c #746E6E",
"/+	c #7A7374",
"(+	c #422C29",
"_+	c #9A594F",
":+	c #50120C",
"<+	c #612829",
"[+	c #A99196",
"}+	c #B29799",
"|+	c #461612",
"1+	c #140000",
"2+	c #423130",
"3+	c #5D4947",
"4+	c #5C4946",
"5+	c #675350",
"6+	c #624D4A",
"7+	c #392D2B",
"8+	c #342A28",
"9+	c #2D2422",
"0+	c #3B2B2A",
"a+	c #0E0D0D",
"b+	c #897879",
"c+	c #9C8B8D",
"d+	c #96888A",
"e+	c #8B3E3F",
"f+	c #692D2D",
"g+	c #762525",
"h+	c #AC9699",
"i+	c #9A8B8D",
"j+	c #837879",
"k+	c #322728",
"l+	c #544241",
"m+	c #675250",
"n+	c #6B5653",
"o+	c #5C4846",
"p+	c #594947",
"q+	c #241C1B",
"r+	c #352625",
"s+	c #4F4B4D",
"t+	c #9D8D8E",
"u+	c #988A8B",
"v+	c #9A8C8D",
"w+	c #9F8C8F",
"x+	c #958889",
"y+	c #9E8E8F",
"z+	c #603833",
"A+	c #420000",
"B+	c #310404",
"C+	c #A37172",
"D+	c #766F70",
"E+	c #7F7576",
"F+	c #5B5859",
"G+	c #251E1D",
"H+	c #5F4C4A",
"I+	c #352220",
"J+	c #533D3B",
"K+	c #634E4C",
"L+	c #0E0302",
"M+	c #2F2727",
"N+	c #362D2B",
"O+	c #564240",
"P+	c #291C1B",
"Q+	c #998B8C",
"R+	c #9C8C8E",
"S+	c #9E8D8E",
"T+	c #938687",
"U+	c #797071",
"V+	c #988B8C",
"W+	c #A99192",
"X+	c #2B0000",
"Y+	c #210000",
"Z+	c #846062",
"`+	c #6E6869",
" @	c #6B4D48",
".@	c #2C2322",
"+@	c #130F0F",
"@@	c #594542",
"#@	c #220F0E",
"$@	c #2C1614",
"%@	c #5B4846",
"&@	c #090606",
"*@	c #38302F",
"=@	c #493A37",
"-@	c #6A5755",
";@	c #595455",
">@	c #8E8183",
",@	c #9A8A8D",
"'@	c #948788",
")@	c #847A7B",
"!@	c #2B2121",
"~@	c #060000",
"{@	c #1A1616",
"]@	c #4F4C4C",
"^@	c #484445",
"/@	c #130304",
"(@	c #0B0909",
"_@	c #1C1616",
":@	c #443635",
"<@	c #030000",
"[@	c #341814",
"}@	c #3F3432",
"|@	c #4F413F",
"1@	c #705D5B",
"2@	c #746D6E",
"3@	c #484344",
"4@	c #6D6364",
"5@	c #998B8D",
"6@	c #696364",
"7@	c #222020",
"8@	c #1A1919",
"9@	c #444040",
"0@	c #343131",
"a@	c #474243",
"b@	c #250D0E",
"c@	c #200D0C",
"d@	c #3E3432",
"e@	c #524240",
"f@	c #6A5856",
"g@	c #413838",
"h@	c #7F7677",
"i@	c #534F4F",
"j@	c #544344",
"k@	c #8B7E81",
"l@	c #544F50",
"m@	c #120F0D",
"n@	c #343232",
"o@	c #040404",
"p@	c #443B3C",
"q@	c #3C3637",
"r@	c #464344",
"s@	c #4F494A",
"t@	c #464041",
"u@	c #271715",
"v@	c #0A0708",
"w@	c #373131",
"x@	c #444243",
"y@	c #604744",
"z@	c #6F5F5E",
"A@	c #534D4D",
"B@	c #918485",
"C@	c #080808",
"D@	c #1F0101",
"E@	c #1D1010",
"F@	c #474344",
"G@	c #4E4A4B",
"H@	c #444142",
"I@	c #5A4643",
"J@	c #493A3A",
"K@	c #9C8C8F",
"L@	c #333030",
"M@	c #410000",
"N@	c #300000",
"O@	c #4C0000",
"P@	c #1F1C1C",
"Q@	c #4A4748",
"R@	c #3E3A3B",
"S@	c #484343",
"T@	c #5C4A47",
"U@	c #493A38",
"V@	c #483939",
"W@	c #461212",
"X@	c #282626",
"Y@	c #575253",
"Z@	c #3C0000",
"`@	c #3A0000",
" #	c #150000",
".#	c #060606",
"+#	c #161515",
"@#	c #433E3E",
"##	c #1B1617",
"$#	c #1E1817",
"%#	c #5D4543",
"&#	c #4E3E3B",
"*#	c #4F3F3E",
"=#	c #580404",
"-#	c #612425",
";#	c #1F1313",
">#	c #670000",
",#	c #380000",
"'#	c #1E1111",
")#	c #504847",
"!#	c #59413F",
"~#	c #543D3A",
"{#	c #582F29",
"]#	c #330000",
"^#	c #130F0D",
"/#	c #451E1E",
"(#	c #040000",
"_#	c #340000",
":#	c #403637",
"<#	c #3C3231",
"[#	c #2E2523",
"}#	c #48322F",
"|#	c #4E3533",
"1#	c #4E3430",
"2#	c #363232",
"3#	c #413433",
"4#	c #210F0D",
"5#	c #4A3230",
"6#	c #2B1F1D",
"7#	c #252222",
"8#	c #1C0D0A",
"9#	c #140E0C",
"0#	c #532323",
"a#	c #120000",
"b#	c #090000",
"c#	c #4A3937",
"d#	c #261A18",
"e#	c #292627",
"f#	c #150C0A",
"g#	c #331C18",
"h#	c #4A3734",
"i#	c #1E1513",
"j#	c #543F3C",
"k#	c #0E0301",
"l#	c #100C0B",
"m#	c #3E2C2A",
"n#	c #3F3B3C",
"o#	c #050000",
"p#	c #604C4C",
"q#	c #351713",
"r#	c #240E0B",
"s#	c #272120",
"t#	c #170B09",
"u#	c #433634",
"v#	c #0C0A09",
"w#	c #170E0E",
"x#	c #181211",
"y#	c #1E100E",
"z#	c #3C1D1B",
"A#	c #270100",
"B#	c #4E4343",
"C#	c #685250",
"D#	c #614E4B",
"E#	c #6B5553",
"F#	c #6F5955",
"G#	c #0D0A09",
"H#	c #1C1B1B",
"I#	c #231C1B",
"J#	c #391310",
"K#	c #080000",
"L#	c #1E0D0B",
"M#	c #1C100F",
"N#	c #4F3533",
"O#	c #6E5754",
"P#	c #67514E",
"Q#	c #6A504E",
"R#	c #634E4B",
"S#	c #66504E",
"T#	c #070404",
"U#	c #130403",
"V#	c #614C4A",
"W#	c #53403E",
"X#	c #4F3C3A",
"Y#	c #6E5854",
"Z#	c #594240",
"`#	c #705956",
" $	c #725A57",
".$	c #1A1212",
"+$	c #18100F",
"@$	c #201615",
"#$	c #090302",
"$$	c #110402",
"%$	c #2B1210",
"&$	c #311D1B",
"*$	c #5D3E3A",
"=$	c #5B4745",
"-$	c #5F443E",
";$	c #634F4D",
">$	c #090100",
",$	c #393233",
"'$	c #2D2020",
")$	c #755D5A",
"!$	c #140F0F",
"~$	c #5F4A48",
"{$	c #3F2E2D",
"]$	c #180B0B",
"^$	c #241615",
"/$	c #2E2929",
"($	c #0C0505",
"_$	c #310807",
":$	c #1C0C0B",
"<$	c #5B5454",
"[$	c #4E4847",
"}$	c #481E18",
"|$	c #2F1A18",
"1$	c #422624",
"2$	c #352726",
"3$	c #1F0F0C",
"4$	c #332F30",
"5$	c #1D1C1D",
"6$	c #272626",
"7$	c #421B17",
"8$	c #AA8C8F",
"9$	c #D9979A",
"0$	c #433F40",
"a$	c #2C2A2B",
"b$	c #171516",
"c$	c #242121",
"d$	c #373434",
"e$	c #B09A9B",
"f$	c #867676",
"g$	c #877C7D",
"h$	c #655E5F",
"i$	c #635F5F",
"j$	c #413D3E",
"k$	c #373435",
"l$	c #121111",
"m$	c #302D2E",
"n$	c #42201B",
"o$	c #292626",
"p$	c #817376",
"q$	c #96878A",
"r$	c #3D393A",
"s$	c #251F20",
"t$	c #363334",
"u$	c #790000",
"v$	c #650000",
"w$	c #867B7C",
"x$	c #8D8182",
"y$	c #280000",
"z$	c #454142",
"A$	c #393636",
"B$	c #170F0E",
"C$	c #803F40",
"D$	c #A59293",
"E$	c #230000",
"F$	c #3E3B3B",
"G$	c #181717",
"H$	c #151414",
"I$	c #938587",
"J$	c #8C7F81",
"K$	c #272425",
"L$	c #383435",
"M$	c #1E1C1C",
"N$	c #3A2C2B",
"O$	c #160807",
"P$	c #393637",
"Q$	c #98898C",
"R$	c #7B7273",
"S$	c #494646",
"T$	c #322F2F",
"U$	c #191717",
"V$	c #271717",
"W$	c #131212",
"X$	c #242223",
"Y$	c #5C5758",
"Z$	c #7A7172",
"`$	c #6A6061",
" %	c #463838",
".%	c #383535",
"+%	c #302C2D",
"@%	c #252221",
"#%	c #585455",
"$%	c #4B4748",
"%%	c #3A3637",
"&%	c #535050",
"*%	c #5E5B5C",
"=%	c #676162",
"-%	c #110E0E",
";%	c #7A7273",
">%	c #3A3636",
",%	c #221E1F",
"'%	c #363333",
")%	c #524F50",
"!%	c #797172",
"~%	c #231F1F",
"{%	c #726B6C",
"]%	c #736D6E",
"^%	c #343031",
"/%	c #2A2727",
"(%	c #413E3E",
"_%	c #151111",
":%	c #020202",
"<%	c #8F8284",
"[%	c #111010",
"}%	c #4D4A4B",
"|%	c #6D6768",
"1%	c #646061",
"2%	c #777071",
"3%	c #807677",
"4%	c #3D3A3A",
"5%	c #786F70",
"6%	c #5A5555",
"7%	c #A99597",
"8%	c #C7A7AA",
"9%	c #8C7F80",
"0%	c #736B6C",
"a%	c #9B8C8D",
"b%	c #A39193",
"c%	c #92696A",
"d%	c #2C1512",
"e%	c #52221B",
"f%	c #9F8E90",
"g%	c #0D0000",
"h%	c #937476",
"i%	c #1F1B1B",
"j%	c #190000",
"k%	c #211A1A",
"l%	c #0E0C0A",
"m%	c #18110F",
"n%	c #0A0706",
"o%	c #221A17",
"p%	c #281E1B",
"q%	c #191210",
"r%	c #231B18",
"s%	c #1F1412",
"t%	c #090504",
"u%	c #060404",
"v%	c #130E0D",
"w%	c #0E0908",
"x%	c #140908",
"y%	c #050100",
"z%	c #190906",
"A%	c #201A19",
"B%	c #463433",
"C%	c #3D2F2F",
"D%	c #281D1C",
"E%	c #5C4947",
"F%	c #3C3130",
"G%	c #090201",
"                              . . + +                                           ",
"                            @ # $ % . & *                                       ",
"                          = - ; > , , . '                                       ",
"                        ) ! ~ { ] ^ / ( _                                       ",
"                        : < [ } | 1 2 3 4 5                                     ",
"                        6 7 8 9 0 a b c d e                                     ",
"                        f g h i j k l m n o                                     ",
"                        p q r s t t u m v o w                                   ",
"                        x y z A A B C D A E w                                   ",
"                        F G H I J A A A K A                                     ",
"                          L M N O P Q R S T U                                   ",
"                          V W X O A A A Y Z `                                   ",
"                           ...+.@.#.$.%.&.*.=.-.                                ",
"                          ;.>.,.O '.).A A !.~.{.{.].^.A ;./.                    ",
"                          (._.A A A A A :.<.[.. }.|.1.2.3.4.5.6.                ",
"                        7.8.9.~.* 0.A a.b.c.d.].e.% ~.+ f.g.h.i.j.              ",
"                        k.{.d.l.A -.=.].m.n.o.p.q.r.A A A s.s t.-.              ",
"                      u.{.v.].{.7.~.~.t w.x.y.}.z.s A A &.A.: B.C.              ",
"                      D.s ~.E.F.G.H.I.A J.K.L.M.M.y.A A =.N.O.P.A               ",
"                    Q.m.=.].R.S.I.S u S T.U.V.W.S X.A A ~.Y.Z.`. +              ",
"                  .+A A ++@+#+A $+W.%+W.&+*+=+I.-+S A A ;+>+,+'+)+              ",
"                !+~+Y.A {+]+^+/+(+S _+:+<+[+}+|+I.1+A A 2+3+4+5+6+7+            ",
"              8+9+0+a+b+c+U.d+<.U.e+%+f+g+h+i+j+k+A A A l+m+n+o+o+p+            ",
"              q+r+=.s+t+u+U.v+w+x+y+z+A+B+C+D+E+F+F+X.A G+H+: I+J+K+L+          ",
"            M+N+O+P+Q+R+S+T+v+U+V+W+D+X+Y+Z+`+D+n.n. @S .@+@@@#@$@%@&@          ",
"            *@=@-@;@>@,@u+'@)@j+c.A !@J ~@A {@]@n.^@/@A (@_@:@<@[@Y.Y.          ",
"            }@|@1@c.2@3@4@5@j+6@k+A !@A A A k+7@A 8@9@0@n.a@b@c@z.t d.          ",
"            d@e@f@g@h@i@j@k@l@A c.m@n@A A A &.A A o@p@q@r@s@t@u@v@w@x@          ",
"            s y@z@A@B@j+w.l@C@A j+7@#+A W.A A &.S I.D@E@F@G@n.H@3@n.D+F+        ",
"          e@P.I@J@<.h@K@1+A A A {@A L@A M@N@&.X.O@&.A C.P@0@L@Q@R@n.D+S@v       ",
"          ;.T@U@V@<.j+K@A A A W@S X@Y@W.Z@`@&. #S S A A .#L@  L@+#@###A ~.      ",
"          $#%#&#*#c.c.` S S S =#-#;#]@>#Z@W.-+Y+,#X.A A m@L@    A '#)#A 7.A     ",
"          G+!#~#{#n.L@A S ]#X.A X.m@m@^#/#(#1+_#Z@l.A A A X@      A :#A <#F     ",
"          [#}#|#1#+#2#A I.W.A A A A A A A &.A I.Z@&.A A A A       A Y.A -.A     ",
"          3#4#5#6#+#7#A &.S A A A w 8#A w A 9#S 0#K A A A         a#a##@A b#    ",
"        7.A l.c#d#e#n.A -.X.A A A A f#w w g#h#&.I.W.A i#A           t + t l.    ",
"        j#k#A l#m#n#    -.o#A A A A A A l.l.l.w p#p#w w A           a#q#Y.A A   ",
"    F s Y.r#s#A t#L@    =.X.l.A u#o+z v#<#w#l.~.u.#+x#l.A             Y.y#A A   ",
"    z#o.A#=.F A A       Y.B#A H C#D#E#F#} t G#=.H#A * I#A j.          A I#A A   ",
"    d.=.J#l.K#A         L#7.l.M#N#O#P#Q#R#z#S#=.I#T#* I#A x#          Y.Y.A A   ",
"    t U#o.A A           7.V#F A z#W#X#Y#Z#`# $7.A .$F l.A +$            o.@$A   ",
"    #$t t A $$        7.%$X.A %.%$~.&$*$=$-$;$7.l.F >$9.-.,$'$          X.~.A   ",
"    x#A#{.A Y.      ~.)$7.=.F !$l.A o#6+~${$]$=.d.F 9.^$=./$($A         %$t Y.A ",
"    F _$:$A       A Q.<$[$~.Y.}$|$1$2$+ Z.{.=.3$Y.@$A &.d.4$5$6$2#    7$o#o.A A ",
"    A =.A A       [.[.x@m.m.8$9$%+W. #A Q.A x@m.B#A A A A 0$a$b$c$    o.(#A#A A ",
"    A * A A       d$]@c.K@e$f$g$S W.W.%+<.h$i$i$w@A %.&.$+j$k$l$m$  n$y.F o.A A ",
"  A A A l.        d$]@F+o$D+p$q$S $+&.w.<.<.K@K@'@<.$+~@A n.r$l$s$&.A W.A t A A ",
"  t F A A         t$L@n.D+j+j+D+u$v$%+j+w$x$K@K@K@K@y$K k+z$A$B$&.    %$d.<@A A ",
"  b#A A A         t$L@n.D+D+e$e$C$u$u$e$D+j+K@'@D$e$E$I.i#n.F$G$H$    %$:.A A A ",
"  A A A           k$L@n.D+D+j+I$K@O@I.<.j+<.K@h@<.J$K@O@A K$n.L$M$    N$A A A A ",
"A k#O$A           P$n.n.F+F+j+j+c.S W.Q$x$g$j+c.K@K@R$!@A G$S$T$U$    A A A A A ",
"A <@F A           0@j$n.F+F+j+j+<.j@V$c.D+D+D+c.<.D+n.&.A W$n.n.X$A   A A A A A ",
"o#A A (#%$        L@L@j$Y$c.Z$Z$c.`$j@ %n.n.n.{@L@]@S@A A A L@.%+%@%v   A A A   ",
"A %$A A           n.r$L@n.#%c.c.]@n.n.A L@A A A A A L@L@j@&.c.$%%%A   &.A A     ",
"t %$A A           n.n.]@n.&%F+*%=%c.c.$+k+A A -%]@F+;%E+j+$+F+>%,%A A A         ",
"A %.o#A           '%n.)%F+F+F+F+F+$%n.A {@  A {@D+j+j+!%D+A L@{@{@A A           ",
"  A A A           L@,%>%Z$c.n.n.n.n.n.&.n.    {@n.L@D+D+j+&.n.n..%A A           ",
"  A Y.A           L@~%{@s@{%]@]@]@F+c.$+n.    A c.]@n.c.]%&.$%n.^%{@A           ",
"    A l.            L@/%{@(%F+D+j+D+c.i#{@    A -%F+j+]%c.A L@~%_%:%A           ",
"    A Y.A           L@L@F+F+]@n.n.F+F+!@L@      A ]@<.<%D+A n#0@[%A A           ",
"      ]$A           j$0@}%c.F+F+D+D+D+m@L@      A F+|%K@j+$+$%j$'%{@A           ",
"                    n.n#L@L@F+1%2%3%c.m@{@        (%F+c.Z+S c.)%n.A A           ",
"                      {@F+c.c.D+3%6@]@m@{@          j+A g#$+<.D+]@4%n.          ",
"                      {@F+D+j+<.c.F+D+A {@          j+&. %A K@K@5%6%n.          ",
"                      n.n.c.K@<.K@K@K@&.L@          c.&.w.$+K@7%e$j+F+          ",
"                        n.c.e$e$e$e$e$i#{@            &.S S 8%e$9%0%]@          ",
"                        n.c.<.a%e$e$b%w               k+$+$+c%<.j+F+]@m@        ",
"                        n.$%e$8%8%e$<.!@                &.d%e%8%8%K@c.{@        ",
"                        {@n.<.K@e$f%<.{@                g%&.c%e$e$K@F+{@        ",
"                        n.n.F+j+j+<.h@A                 $+&.<.h%e$K@F+i%L@      ",
"                        L@L@]@c.]@c.]@A                   A S@c.<.j+]@L@L@      ",
"                      e$n#L@{@A A m@n.                    !@n.$+j%k+k%A l%      ",
"                      K@n.L@-%A A v#n.                    i#i#$+$+A A A A       ",
"                      o !@7@A A A A X@                    !@A A $+A A A A ]@    ",
"                    &.S -%A A A A A A                     !@A b#(#A A A A L@    ",
"                    $+$+A A A {@A A                       !@&.&.A A A A A n.    ",
"                    &.&.A A A A A A                         A A A A A A A ]@    ",
"                      !@A A A A A A                         A A m@i#i#i#i#i#    ",
"                        A A A A A A                           A A A A A m%i#    ",
"                        A A A A A A                           U i#w i#9#n%A     ",
"                        8#A A A A 8#                          w i#i#i#i#o%      ",
"                        w A w 0.9#                              U p%i#A q%r%    ",
"                        s%w w w w                               U U U A A w     ",
"                        t%A A A                                   A &.A A r%    ",
"                        A A u%x#                                  A A 9#i#i#    ",
"                        l.l.v%w%                                  o x#0.A A A   ",
"                        d.x%9.9.A                                 A Y.A A A t%  ",
"                        d.x%y%l.A                                 l.(#A A A j.A ",
"                        z%d.l.a.A                                 %$x#F A A A x#",
"                        t F l.A%A                                 . {.B%7.' I#A ",
"                        t =.&.l.l.                                + {.{.=.' A A ",
"                      t t Y.' w#l.l.                          7.{.+ ~.F C%* A A ",
"                      F %$~.].=.l.l.A                       ~.+ s ].~.^$F &.A j.",
"                        %${.].=.l.l.A                       =.{.=.7.7.7.K#A A A ",
"                        t {.h#Y.l.D%                      s -.d.b.E%7.F%A j.A   ",
"                          ~.Y.t =.+                                             ",
"                            G%Y.d.{.                                            "};
