/* XPM */
static char * B7_xpm[] = {
"36 97 583 2",
"  	c None",
". 	c #473C3B",
"+ 	c #6D5C5B",
"@ 	c #252B2E",
"# 	c #3A302F",
"$ 	c #4F3D3B",
"% 	c #52413F",
"& 	c #5D4A49",
"* 	c #5A4F4C",
"= 	c #474343",
"- 	c #866E68",
"; 	c #87706A",
"> 	c #846B66",
", 	c #342B2B",
"' 	c #413534",
") 	c #3B2F2F",
"! 	c #66514F",
"~ 	c #88746D",
"{ 	c #655955",
"] 	c #846A66",
"^ 	c #87716A",
"/ 	c #231C1B",
"( 	c #4F4341",
"_ 	c #473836",
": 	c #5D4A47",
"< 	c #806662",
"[ 	c #65514E",
"} 	c #7A635F",
"| 	c #8B766F",
"1 	c #463331",
"2 	c #3C3231",
"3 	c #4D3F3E",
"4 	c #3F3230",
"5 	c #6B5551",
"6 	c #826B65",
"7 	c #754F4A",
"8 	c #806863",
"9 	c #31211E",
"0 	c #291A17",
"a 	c #392826",
"b 	c #181211",
"c 	c #191010",
"d 	c #544440",
"e 	c #65504E",
"f 	c #5B4946",
"g 	c #66524F",
"h 	c #715B57",
"i 	c #765C59",
"j 	c #7A5954",
"k 	c #745D5A",
"l 	c #43312E",
"m 	c #382826",
"n 	c #6A5351",
"o 	c #020000",
"p 	c #382F2F",
"q 	c #291B1A",
"r 	c #40302F",
"s 	c #1B0B09",
"t 	c #533836",
"u 	c #614B48",
"v 	c #715B58",
"w 	c #856B68",
"x 	c #7F615C",
"y 	c #714C47",
"z 	c #836A64",
"A 	c #302120",
"B 	c #271A19",
"C 	c #210C0A",
"D 	c #755E5B",
"E 	c #715551",
"F 	c #7F625D",
"G 	c #856B67",
"H 	c #80635F",
"I 	c #000000",
"J 	c #3C1D1B",
"K 	c #96948E",
"L 	c #190D0C",
"M 	c #483736",
"N 	c #7E605C",
"O 	c #816560",
"P 	c #58332E",
"Q 	c #574847",
"R 	c #79625E",
"S 	c #7C635F",
"T 	c #767570",
"U 	c #443A39",
"V 	c #100B0B",
"W 	c #382928",
"X 	c #261312",
"Y 	c #564341",
"Z 	c #3C2C2B",
"` 	c #423533",
" .	c #5F4D49",
"..	c #3F3432",
"+.	c #513F3D",
"@.	c #3E3131",
"#.	c #473735",
"$.	c #3A2A29",
"%.	c #3C2D2C",
"&.	c #483635",
"*.	c #4D3A39",
"=.	c #493837",
"-.	c #3A2B2A",
";.	c #150502",
">.	c #4A3837",
",.	c #2B2120",
"'.	c #403431",
").	c #574744",
"!.	c #433534",
"~.	c #423131",
"{.	c #4C3B39",
"].	c #614E4B",
"^.	c #614F4C",
"/.	c #5D4B48",
"(.	c #78605D",
"_.	c #67524F",
":.	c #392A29",
"<.	c #816864",
"[.	c #54403F",
"}.	c #5A4744",
"|.	c #3C3130",
"1.	c #604F4B",
"2.	c #52403E",
"3.	c #312423",
"4.	c #2E2D2D",
"5.	c #454344",
"6.	c #4F4B4D",
"7.	c #413130",
"8.	c #7E5F5A",
"9.	c #826B69",
"0.	c #381B19",
"a.	c #3C1C18",
"b.	c #6B5552",
"c.	c #5D4846",
"d.	c #5B4947",
"e.	c #211C1C",
"f.	c #4E4A4C",
"g.	c #5D5A5B",
"h.	c #6C6362",
"i.	c #392E2E",
"j.	c #180B0B",
"k.	c #785550",
"l.	c #816662",
"m.	c #7C5E59",
"n.	c #301614",
"o.	c #150F0E",
"p.	c #5B4846",
"q.	c #5F4D4A",
"r.	c #463634",
"s.	c #221C1B",
"t.	c #766F70",
"u.	c #5F5959",
"v.	c #706566",
"w.	c #403435",
"x.	c #382827",
"y.	c #1E0B09",
"z.	c #3D3434",
"A.	c #634946",
"B.	c #775752",
"C.	c #7D5E59",
"D.	c #624E4C",
"E.	c #0A0000",
"F.	c #64504D",
"G.	c #232222",
"H.	c #282525",
"I.	c #292120",
"J.	c #312524",
"K.	c #322728",
"L.	c #686465",
"M.	c #716667",
"N.	c #574645",
"O.	c #050000",
"P.	c #3E3A3B",
"Q.	c #63514F",
"R.	c #7A5853",
"S.	c #6D5754",
"T.	c #695450",
"U.	c #0C0000",
"V.	c #584442",
"W.	c #1C1B1B",
"X.	c #0B0605",
"Y.	c #352B2B",
"Z.	c #4F4C4C",
"`.	c #605C5C",
" +	c #696364",
".+	c #7C696A",
"++	c #615353",
"@+	c #372928",
"#+	c #221615",
"$+	c #574442",
"%+	c #6C5653",
"&+	c #785F5C",
"*+	c #6C5553",
"=+	c #170F0D",
"-+	c #140502",
";+	c #1E1513",
">+	c #302523",
",+	c #170B08",
"'+	c #333030",
")+	c #222020",
"!+	c #524F4F",
"~+	c #6B6667",
"{+	c #6C6566",
"]+	c #7D6D6A",
"^+	c #625452",
"/+	c #413230",
"(+	c #251514",
"_+	c #160502",
":+	c #5A4845",
"<+	c #5E4B47",
"[+	c #7E6561",
"}+	c #685351",
"|+	c #2A1F1D",
"1+	c #2D1F1E",
"2+	c #423E3F",
"3+	c #4B4748",
"4+	c #5B5859",
"5+	c #6A6364",
"6+	c #7B6A6B",
"7+	c #625252",
"8+	c #453835",
"9+	c #130502",
"0+	c #0A0201",
"a+	c #5F4D4B",
"b+	c #856D69",
"c+	c #7E6765",
"d+	c #1C1311",
"e+	c #080000",
"f+	c #282424",
"g+	c #635D5E",
"h+	c #6C6667",
"i+	c #524847",
"j+	c #3D2F2D",
"k+	c #070100",
"l+	c #120402",
"m+	c #52423F",
"n+	c #614E4C",
"o+	c #856D67",
"p+	c #7D6561",
"q+	c #1D1716",
"r+	c #1A1616",
"s+	c #282626",
"t+	c #5B5657",
"u+	c #645F5F",
"v+	c #5D595A",
"w+	c #2F2E2E",
"x+	c #3F3130",
"y+	c #110502",
"z+	c #3D2F2C",
"A+	c #534341",
"B+	c #66504A",
"C+	c #806864",
"D+	c #7B6561",
"E+	c #1A1111",
"F+	c #0B0A0A",
"G+	c #575455",
"H+	c #545051",
"I+	c #555050",
"J+	c #322E2E",
"K+	c #565151",
"L+	c #655350",
"M+	c #2C1F1E",
"N+	c #1E1818",
"O+	c #473B3A",
"P+	c #4A3A37",
"Q+	c #4C3E3B",
"R+	c #534644",
"S+	c #806B67",
"T+	c #76605D",
"U+	c #3B2D2C",
"V+	c #524E50",
"W+	c #4A3734",
"X+	c #2B2929",
"Y+	c #535050",
"Z+	c #5F5B5C",
"`+	c #555252",
" @	c #494445",
".@	c #5A504E",
"+@	c #262020",
"@@	c #180E0C",
"#@	c #392D2B",
"$@	c #433936",
"%@	c #5D4745",
"&@	c #483B3B",
"*@	c #2B2A2A",
"=@	c #120F0D",
"-@	c #4D494A",
";@	c #514E4E",
">@	c #484343",
",@	c #393233",
"'@	c #1A1311",
")@	c #2F2423",
"!@	c #282221",
"~@	c #493B39",
"{@	c #564342",
"]@	c #534340",
"^@	c #745C5A",
"/@	c #382624",
"(@	c #201F1F",
"_@	c #3B3839",
":@	c #151111",
"<@	c #110E0E",
"[@	c #050505",
"}@	c #2B2121",
"|@	c #0F0C0B",
"1@	c #1A0000",
"2@	c #423733",
"3@	c #080201",
"4@	c #64524D",
"5@	c #6B5754",
"6@	c #362827",
"7@	c #080808",
"8@	c #181717",
"9@	c #282523",
"0@	c #0F0807",
"a@	c #221A19",
"b@	c #3B2A29",
"c@	c #65504D",
"d@	c #261E1E",
"e@	c #171313",
"f@	c #312523",
"g@	c #3E3737",
"h@	c #0C0A09",
"i@	c #161313",
"j@	c #0E0C0C",
"k@	c #362727",
"l@	c #372F2B",
"m@	c #544441",
"n@	c #201A1A",
"o@	c #372927",
"p@	c #140E0C",
"q@	c #453836",
"r@	c #070404",
"s@	c #444343",
"t@	c #393738",
"u@	c #424041",
"v@	c #2B201F",
"w@	c #1F1816",
"x@	c #090808",
"y@	c #312E2F",
"z@	c #3D3B3C",
"A@	c #2C2B2B",
"B@	c #494646",
"C@	c #6F5955",
"D@	c #292424",
"E@	c #040303",
"F@	c #060606",
"G@	c #302F2F",
"H@	c #3A3738",
"I@	c #161515",
"J@	c #696061",
"K@	c #634F4C",
"L@	c #444243",
"M@	c #262424",
"N@	c #120000",
"O@	c #5B5858",
"P@	c #4F4241",
"Q@	c #2B2323",
"R@	c #270100",
"S@	c #555153",
"T@	c #271E1F",
"U@	c #0E0301",
"V@	c #201411",
"W@	c #150D0B",
"X@	c #010000",
"Y@	c #150A08",
"Z@	c #060404",
"`@	c #160E0E",
" #	c #331715",
".#	c #3D1C18",
"+#	c #5C413D",
"@#	c #18110F",
"##	c #100807",
"$#	c #080404",
"%#	c #0D0201",
"&#	c #250C0B",
"*#	c #421B17",
"=#	c #634742",
"-#	c #080606",
";#	c #59423E",
">#	c #272120",
",#	c #090101",
"'#	c #180C0B",
")#	c #302726",
"!#	c #1C1514",
"~#	c #1A0100",
"{#	c #42312E",
"]#	c #543D39",
"^#	c #100000",
"/#	c #171212",
"(#	c #2F2726",
"_#	c #1F1716",
":#	c #121212",
"<#	c #240E0B",
"[#	c #23110D",
"}#	c #331C18",
"|#	c #0A0404",
"1#	c #110402",
"2#	c #281613",
"3#	c #41302F",
"4#	c #866F6D",
"5#	c #806B69",
"6#	c #655553",
"7#	c #2F1C19",
"8#	c #522B26",
"9#	c #3D2E2D",
"0#	c #312322",
"a#	c #310807",
"b#	c #6C4540",
"c#	c #604C4C",
"d#	c #7A6866",
"e#	c #6F433E",
"f#	c #2B1210",
"g#	c #371915",
"h#	c #3E3130",
"i#	c #908485",
"j#	c #97888B",
"k#	c #686263",
"l#	c #9C8789",
"m#	c #7C7273",
"n#	c #400707",
"o#	c #1E0000",
"p#	c #663F3B",
"q#	c #7F7576",
"r#	c #8A7E7F",
"s#	c #70696A",
"t#	c #766C6D",
"u#	c #817678",
"v#	c #3E0505",
"w#	c #2E0000",
"x#	c #837879",
"y#	c #0B0000",
"z#	c #190807",
"A#	c #391310",
"B#	c #676263",
"C#	c #817677",
"D#	c #645E5F",
"E#	c #776F70",
"F#	c #210303",
"G#	c #7A7273",
"H#	c #736B6C",
"I#	c #6A6465",
"J#	c #463838",
"K#	c #210B09",
"L#	c #280503",
"M#	c #120301",
"N#	c #776767",
"O#	c #6D5D59",
"P#	c #6B6364",
"Q#	c #726464",
"R#	c #624845",
"S#	c #544344",
"T#	c #090403",
"U#	c #604D4D",
"V#	c #6B5A5A",
"W#	c #675656",
"X#	c #6A5858",
"Y#	c #6E6363",
"Z#	c #6C5757",
"`#	c #604D4C",
" $	c #6D5A5B",
".$	c #675757",
"+$	c #695858",
"@$	c #6C615F",
"#$	c #6F6462",
"$$	c #656061",
"%$	c #605C5D",
"&$	c #594F4D",
"*$	c #190000",
"=$	c #433A39",
"-$	c #584B4A",
";$	c #665656",
">$	c #686162",
",$	c #716462",
"'$	c #7C6F70",
")$	c #765C5E",
"!$	c #240000",
"~$	c #807677",
"{$	c #040000",
"]$	c #454142",
"^$	c #585455",
"/$	c #585354",
"($	c #817778",
"_$	c #5E5B5C",
":$	c #484445",
"<$	c #3D393B",
"[$	c #6F6869",
"}$	c #3D3A3A",
"|$	c #171516",
"1$	c #33130A",
"2$	c #2D2929",
"3$	c #2C2828",
"4$	c #272425",
"5$	c #0F0C0C",
"6$	c #2A2727",
"7$	c #2E2B2B",
"8$	c #252220",
"9$	c #1C1818",
"0$	c #343031",
"a$	c #312D2E",
"b$	c #2F2C2C",
"c$	c #363333",
"d$	c #302D2D",
"e$	c #040404",
"f$	c #312E2E",
"g$	c #383535",
"h$	c #474344",
"i$	c #444041",
"j$	c #595657",
"k$	c #5A5658",
"l$	c #494747",
"m$	c #463F3F",
"n$	c #322627",
"o$	c #6D6768",
"p$	c #565354",
"q$	c #413D3E",
"r$	c #312C2C",
"s$	c #0F0B0A",
"t$	c #251D1D",
"u$	c #7E7374",
"v$	c #1C0000",
"w$	c #85696B",
"x$	c #8E8183",
"y$	c #726B6C",
"z$	c #4D2923",
"A$	c #97888A",
"B$	c #504B4C",
"C$	c #6E6869",
"D$	c #B09A9B",
"E$	c #9C8C8F",
"F$	c #8B7E81",
"G$	c #2E2525",
"H$	c #070000",
"I$	c #464242",
"J$	c #030000",
"K$	c #060302",
"L$	c #130909",
"M$	c #140807",
"N$	c #090000",
"O$	c #4D4848",
"P$	c #0C0504",
"Q$	c #140908",
"R$	c #1A0E0D",
"S$	c #201413",
"T$	c #0F0403",
"U$	c #050100",
"V$	c #100404",
"W$	c #1B0F0E",
"X$	c #241918",
"Y$	c #281E1D",
"Z$	c #2B1D1C",
"`$	c #100C0B",
" %	c #2A1E1D",
".%	c #271B1A",
"+%	c #0C0201",
"@%	c #0B0201",
"#%	c #050303",
"$%	c #4E3E3D",
"%%	c #231A19",
"&%	c #201615",
"*%	c #0D0909",
"=%	c #332827",
"-%	c #705E5D",
";%	c #403130",
">%	c #0C0908",
",%	c #3E3433",
"'%	c #453A39",
")%	c #332624",
"!%	c #0D0A09",
"~%	c #2C2423",
"{%	c #4E403F",
"]%	c #433938",
"^%	c #251817",
"/%	c #4B3836",
"(%	c #463431",
"_%	c #3F2F2E",
":%	c #352725",
"<%	c #201715",
"[%	c #322523",
"}%	c #241715",
"|%	c #3C2F2E",
"1%	c #3A2D2B",
"2%	c #181313",
"                          . + @                                         ",
"                    # $ % & * = - ; >                                   ",
"                  , ' ) ! ~ = { ] - > ^                                 ",
"                / ( _ : < - ] [ - } | 1                                 ",
"                2 3 4 5 6 > > 7 7 8 9 0 a                               ",
"                b c d e f g h i j k l m n [                             ",
"                o p q r s t u v w x 7 y z [                             ",
"                b / A B C D E F G H I ] J K                             ",
"                  o L A A A M N ] O I P I                               ",
"                    / Q [ [ [ R S ] I J I T                             ",
"                    U V W X A D S Y Z Z ` I                             ",
"                 ...+.@.#.$.%.&.*.=.-.;.>.I                             ",
"              ,.'.).!.% ~.{.].^./.(._.:.<.[.                            ",
"            }.|.1.2.3.2 4.5.6.A 7.[ 8.8.8.9.0.a.                        ",
"            '.b.c.d.e.f.g.h.i.A j.C @ @ k.l.m.n.A                       ",
"          o.p.q.r.s.e.t.u.v.w.x.Z y.z.@ A.B.C.D.E.F.                    ",
"      G.H.I.J.I I I K.g.L.M.N.k >.I O.q P.Q.R.S.T.U.V.                  ",
"      W.X.Y.I I I I Z.`. +.+++] @+#+U.I $+%+&+*+=+-+>.                  ",
"    Z.;+>+,+'+)+I I !+~+{+]+^+k /+(+_+_+:+<+[+}+|+1+C                   ",
"    Z.I I I 2+3+I I 4+{+5+6+7+V.8+9+0+O.F.a+b+c+d+e+I                   ",
"    Z.I I )+f+2+I I 2+g+h+g+i+V.j+I k+l+m+n+o+p+q+I                     ",
"    Z.)+I '+r+s+I I 2+t+u+v+w+V.x+I y+z+A+B+C+D+E+I                     ",
"    4+2+I '+'+F+I I G+H+I+J+K+L+M+N+O+P+Q+R+S+T+U+V+                    ",
"    W+2+I r+2+X+I I Y+G+Z+`+ @.@V I +@@@#@$@%@p+&@*@                    ",
"      '+=@r+Z.Z.I I )+2+-@v+;@>@,@'@)@!@~@{@]@^@/@(@_@                  ",
"      :@I <@;+2+I I [@:@r+=@}@;+|@1@I I 2@3@4@5@6@7@8@                  ",
"      I r+I '+9@I I r+I r+I I I I I I 0@a@I b@c@d@8@e@                  ",
"      :@I <@f@g@h@I '+i@j@I I I I I I k@l@0+0+m@_@_@I                   ",
"        I r+n@o@p@I r+=@I I I I I I I 3.q@r@Y+s@t@u@o                   ",
"          r+r+I I I v@w@I I I I I I I x@y@z@A@B@C@D@W.I                 ",
"          r+r+I I I E@v@;+I I I =@I I F@G@H@I@J@m@K@L@I                 ",
"            o@;+r+r+i@I I I I I =@I I M@I N@A@O@P@A k I                 ",
"            W+W+I I I I I I I I I I I Q@X.X.R@S@#+>.Z I I               ",
"              o@I I I I I I I I I I I T@I I U@U@3@2 C I I               ",
"                W+V@W@I I I I I X@X@X@Y@I I I 3@U@_+b I                 ",
"                I W@V@Z@I I I `@o o X@I I I X@U. #.# #C                 ",
"                I I +#@#I I I ##o ##$#I I I %##+I &#*#O.                ",
"                =#-#X@;#I I >#o ,#'#'#)#/ !#)#A I I ~#J _+              ",
"                {#]#I ^#I /#%##+I . . )#(#_#'#>.  :#I <#_+              ",
"                [#}#X.X@X@'#'#o o Q 2 )#)#'#|#V.    I U@1#I             ",
"                    2#I I A 3#4#5#6#6#Q 2 #+%#U.    I I I p 2           ",
"                      I 7#8#A 9#0#A #+'#_#/ I / #+     #a#%##+          ",
"                    t.4+b#c#d#e#A X _+'#'#o I b '#    f#g#V.h#          ",
"                    i#j#k#l#m#n#o#[#I I f.f.4.W.'#o     f#p#V.N@*#      ",
"                  >@q#r#s#t#u#v#o#w#w#w#x#t.Z.4+x#c#/#  I R@R@y#z#A#    ",
"                  >@B#C#D#5+E#F#o#w#1@G#x#H#2+2+I#J#[#  I K#L#M#y#.#    ",
"                  4+{+N#O#P#Q#R#o#[#^#x#x#x#Z.Z.4+J#S#    T#f#a#O.f#    ",
"                  Z.U#V#W#X#Y#Z#o#I I }@I#4+2+2+t.^#x#    I C R@R@y#    ",
"                  >@`# $.$+$@$#$w#^#I }@$$%$2+'+&$[#i#    _+_+*$R@y#    ",
"                  }@=$-$;$>$,$'$)$!$^#X@4+I#Z.2+I t.~$    ^#{$I O.I I   ",
"                    ]$^${+/$4+s#($^#^#I I#_$2+2+I t.t.    I o I I I I I ",
"                    2+^$:$<$4+[$t.J#X@I 4+4+Z.'+I Z.K.I#  I O.I I I I _+",
"                    '+J+<$B@4+Z.}$r+[@I X+2+2+2+|$>@^#4+  [#1$I   I I I ",
"                        2$Z.Z.3$r+r+:@I I I 4$2+2+}@X@Z.      I I       ",
"                        '+Z.}$r+I r+r+5$I I x@r+6$}@^#I#      I         ",
"                        '+r+I r+7$'+6$r+r+r+r+r+r+r+I '+                ",
"                        8$r+r+r+9$7$6$r+I r+r+r+6$'+}#Z.                ",
"                        r+'+r+r+r+r+r+<@I <@r+r+0$2+}#I#                ",
"                        I '+r+a$b$:@[@I I I I I :@'+w#4+                ",
"                        =@'+c$2+X+I I r+I I <@<@x@K.I#Z.                ",
"                        I 2+2+d$e$I I '+=@=@r+2+'+}@I#Z.                ",
"                          B@'+I I )+2+2+}@}@x@r+J#J#4+'+                ",
"                          f$r+g$h$4+Z.>@;+4+4+'+o#S#I#                  ",
"                          r+f+i$j$k$l$m$n$4+o$I#^#c#t.                  ",
"                          '+2+p$4+q$r$s$t$s#s#u$v$w$x$                  ",
"                            r+I#t.2+g$}@I y$I# +z$x$A$                  ",
"                            r+Z.Z.2+2+9@X@I#B$4+c#i#i#                  ",
"                              I#I#I#4+I#I 4+y$C$x#i#D$                  ",
"                            Z.I#t.i#t.I#I K.C$y$t.i#i#                  ",
"                            4+%$I#x#y$I#I }@Z.t.t.I#t.                  ",
"                          E$D$D$i#Z.I#F$X@[#x#I#B$4+4+                  ",
"                          t.i#x#i#x#i#i#X@G$>@^$I#Z.                    ",
"                        I x#D$4+t.E$E$x#I X@X@r+4+'+                    ",
"                      4.r@H$I <@i#x#t.y#I I I I                         ",
"                    /#/#{$I U.I I$I#[#I I I I                           ",
"                    I O.X@o U.J$I 4+4+I I I                             ",
"                  I I I K$L$M$N$I O$4+I                                 ",
"                I I I P$Q$R$S$o X@I p@[#                                ",
"                I I I '#T$#+#+o ,#I I 2#                                ",
"              I I I U$%#%#'#'#V$%#I o I                                 ",
"            I o I I %#W$#+2 %#'#%#X.                                    ",
"            I o o o )#'##+2 X$Y$X@I                                     ",
"            o I o o Q$#+Z$2 2 `@I                                       ",
"        %#o o o o X@#+'#Z #+)#I                                         ",
"      b %#{$o o `$I  %.%Q A %#I                                         ",
"  R$#+'#%#+%o @%2 `@#%@+$%'#2                                           ",
"b #+#+'#%#%#%#%#%%#+&%*%Z X@I                                           ",
"o@W$#+Q$%#%#o %##+=%-%I '#I I                                           ",
"  }#%#%#%#)#%#Q$. ;%A #+>.I I                                           ",
"    o@>%o I o X@,%'%V.6#>.A U.                                          ",
"      )%I o o !%~%2 {%-%k A V.                                          ",
"          o@I / . ]%2 2 2 '#^%/%Z                                       ",
"            (%>+/ / o o o R$#+'#A _%>.                                  ",
"            :%;+[#[#o o %##+#+A '#>.A >.                                ",
"            <%[%o@o@}%o o o %#'#'#U.'#q >.5#                            ",
"                o@|%1%|%2%2%X.X.X.X.X.X.I I                             ",
"                                                                        "};
