/* XPM */
static char * B8_xpm[] = {
"41 97 404 2",
"  	c None",
". 	c #705E5D",
"+ 	c #745D5A",
"@ 	c #65514E",
"# 	c #655553",
"$ 	c #856C67",
"% 	c #866E68",
"& 	c #72625D",
"* 	c #252B2E",
"= 	c #846B66",
"- 	c #231C1B",
"; 	c #574847",
"> 	c #3C2C2B",
", 	c #846A66",
"' 	c #464242",
") 	c #604D4B",
"! 	c #856E6B",
"~ 	c #181211",
"{ 	c #3C3231",
"] 	c #53403E",
"^ 	c #4A3837",
"/ 	c #5C4846",
"( 	c #655754",
"_ 	c #8B766F",
": 	c #463331",
"< 	c #866D68",
"[ 	c #473C3B",
"} 	c #87716A",
"| 	c #443230",
"1 	c #3F2E2C",
"2 	c #42312E",
"3 	c #816964",
"4 	c #42302D",
"5 	c #302726",
"6 	c #302120",
"7 	c #584442",
"8 	c #4A2F2C",
"9 	c #3C2B28",
"0 	c #22100F",
"a 	c #120504",
"b 	c #211311",
"c 	c #392826",
"d 	c #412E2C",
"e 	c #090504",
"f 	c #000000",
"g 	c #3D1C18",
"h 	c #2B1210",
"i 	c #79625E",
"j 	c #423230",
"k 	c #3E2D2B",
"l 	c #261716",
"m 	c #6E554F",
"n 	c #7F6562",
"o 	c #735B59",
"p 	c #020000",
"q 	c #331715",
"r 	c #553835",
"s 	c #3C1D1B",
"t 	c #806A63",
"u 	c #1E0000",
"v 	c #C1B295",
"w 	c #9A8762",
"x 	c #D2C7AD",
"y 	c #0B0605",
"z 	c #210C0A",
"A 	c #3B0000",
"B 	c #280000",
"C 	c #45312F",
"D 	c #2B1A18",
"E 	c #1F0F0C",
"F 	c #91745F",
"G 	c #9C8B65",
"H 	c #CFC4AB",
"I 	c #221615",
"J 	c #0D0201",
"K 	c #41302F",
"L 	c #4A3B3A",
"M 	c #D67E71",
"N 	c #806B69",
"O 	c #705956",
"P 	c #6D5954",
"Q 	c #1C1B1B",
"R 	c #816461",
"S 	c #836A67",
"T 	c #0C0000",
"U 	c #160502",
"V 	c #0B0A0A",
"W 	c #444243",
"X 	c #866F6D",
"Y 	c #80625E",
"Z 	c #0B0000",
"` 	c #270100",
" .	c #755D5A",
"..	c #67514E",
"+.	c #120F0D",
"@.	c #4E4A4C",
"#.	c #856B67",
"$.	c #7E5F5A",
"%.	c #78544F",
"&.	c #5C5454",
"*.	c #211C1C",
"=.	c #080000",
"-.	c #4E3937",
";.	c #68463E",
">.	c #4F4C4C",
",.	c #6A6465",
"'.	c #010000",
").	c #3B2221",
"!.	c #3C2928",
"~.	c #140807",
"{.	c #201312",
"].	c #595557",
"^.	c #484343",
"/.	c #080404",
"(.	c #180C0B",
"_.	c #1A0807",
":.	c #635F5F",
"<.	c #373131",
"[.	c #343130",
"}.	c #484241",
"|.	c #342726",
"1.	c #4B3C3A",
"2.	c #8E7C74",
"3.	c #94867D",
"4.	c #716D6D",
"5.	c #040202",
"6.	c #604D4A",
"7.	c #2E0000",
"8.	c #290000",
"9.	c #E7B5B8",
"0.	c #B3787A",
"a.	c #544344",
"b.	c #766F70",
"c.	c #3D3A3A",
"d.	c #6A5552",
"e.	c #79615E",
"f.	c #330000",
"g.	c #CB8485",
"h.	c #604C4C",
"i.	c #837879",
"j.	c #423E3F",
"k.	c #5C5758",
"l.	c #7B645F",
"m.	c #100000",
"n.	c #908485",
"o.	c #B09A9B",
"p.	c #715858",
"q.	c #A47071",
"r.	c #433F40",
"s.	c #281D1B",
"t.	c #5F3732",
"u.	c #5B5859",
"v.	c #92696A",
"w.	c #3E0000",
"x.	c #454142",
"y.	c #372927",
"z.	c #66504E",
"A.	c #050505",
"B.	c #1A1616",
"C.	c #322728",
"D.	c #050303",
"E.	c #1B1313",
"F.	c #463838",
"G.	c #4B4748",
"H.	c #0F0C0C",
"I.	c #2B2121",
"J.	c #222020",
"K.	c #575354",
"L.	c #837A7B",
"M.	c #5B5454",
"N.	c #4E4343",
"O.	c #C7A7AA",
"P.	c #331C18",
"Q.	c #372C2D",
"R.	c #6E6869",
"S.	c #0C0A09",
"T.	c #23110D",
"U.	c #877C7D",
"V.	c #140000",
"W.	c #060000",
"X.	c #333132",
"Y.	c #B49B9D",
"Z.	c #333030",
"`.	c #1F0000",
" +	c #150000",
".+	c #9C8C8F",
"++	c #130000",
"@+	c #240000",
"#+	c #1A0000",
"$+	c #1B0000",
"%+	c #4C0000",
"&+	c #0E0301",
"*+	c #4A3734",
"=+	c #0A0000",
"-+	c #050100",
";+	c #110402",
">+	c #030000",
",+	c #040000",
"'+	c #1B0B08",
")+	c #2B1B1A",
"!+	c #4A3836",
"~+	c #624D4A",
"{+	c #171212",
"]+	c #201615",
"^+	c #5B0000",
"/+	c #090101",
"(+	c #060100",
"_+	c #170E0C",
":+	c #655453",
"<+	c #715248",
"[+	c #58332E",
"}+	c #0F0201",
"|+	c #5E4744",
"1+	c #050000",
"2+	c #42231E",
"3+	c #624A47",
"4+	c #64261D",
"5+	c #271716",
"6+	c #2B2525",
"7+	c #524E50",
"8+	c #160E0E",
"9+	c #070404",
"0+	c #120301",
"a+	c #85797C",
"b+	c #594F4D",
"c+	c #170C0B",
"d+	c #846062",
"e+	c #8C8081",
"f+	c #3B3839",
"g+	c #1B0201",
"h+	c #42201B",
"i+	c #6A5A5A",
"j+	c #7A7273",
"k+	c #6B0000",
"l+	c #423837",
"m+	c #231B18",
"n+	c #2E120B",
"o+	c #7B0600",
"p+	c #52221B",
"q+	c #790000",
"r+	c #6D6768",
"s+	c #201411",
"t+	c #762B1E",
"u+	c #98898C",
"v+	c #938587",
"w+	c #575455",
"x+	c #535050",
"y+	c #33130A",
"z+	c #7F7677",
"A+	c #A18E8F",
"B+	c #2E2D2D",
"C+	c #0E0000",
"D+	c #343031",
"E+	c #524F4F",
"F+	c #221210",
"G+	c #71423C",
"H+	c #7A7172",
"I+	c #151111",
"J+	c #464343",
"K+	c #1E1513",
"L+	c #2B2929",
"M+	c #361612",
"N+	c #181414",
"O+	c #020202",
"P+	c #090808",
"Q+	c #2A2727",
"R+	c #3D3030",
"S+	c #211A1A",
"T+	c #070302",
"U+	c #110E0E",
"V+	c #302B2B",
"W+	c #383535",
"X+	c #421B17",
"Y+	c #282626",
"Z+	c #454242",
"`+	c #3D393A",
" @	c #646061",
".@	c #854D47",
"+@	c #231F1F",
"@@	c #111010",
"#@	c #605C5D",
"$@	c #7F7576",
"%@	c #797172",
"&@	c #9A594F",
"*@	c #272323",
"=@	c #3E3B3C",
"-@	c #312C2C",
";@	c #4C4848",
">@	c #7E7374",
",@	c #2E2929",
"'@	c #322E2E",
")@	c #AC645A",
"!@	c #0A0909",
"~@	c #342F2F",
"{@	c #504B4C",
"]@	c #666062",
"^@	c #756E6F",
"/@	c #3C3839",
"(@	c #3B3738",
"_@	c #5F595A",
":@	c #696364",
"<@	c #1F1B1B",
"[@	c #3F3232",
"}@	c #595455",
"|@	c #343131",
"1@	c #413D3E",
"2@	c #625C5D",
"3@	c #5E5B5C",
"4@	c #493F3F",
"5@	c #5D4848",
"6@	c #716A6B",
"7@	c #656061",
"8@	c #363333",
"9@	c #4A4647",
"0@	c #676162",
"a@	c #695B5C",
"b@	c #A39193",
"c@	c #A08F92",
"d@	c #4E4A4A",
"e@	c #5B5758",
"f@	c #817678",
"g@	c #AE999A",
"h@	c #181515",
"i@	c #8C7879",
"j@	c #B19A9C",
"k@	c #100C0C",
"l@	c #282323",
"m@	c #272222",
"n@	c #433F3F",
"o@	c #514A4C",
"p@	c #786E6F",
"q@	c #6F6668",
"r@	c #6A4E4E",
"s@	c #8A7C7E",
"t@	c #3D393B",
"u@	c #464243",
"v@	c #9B8C8D",
"w@	c #5B4747",
"x@	c #8C7F80",
"y@	c #2E2B2B",
"z@	c #3A3636",
"A@	c #8C7F81",
"B@	c #393636",
"C@	c #221E1F",
"D@	c #585455",
"E@	c #555151",
"F@	c #2F2C2C",
"G@	c #4A4646",
"H@	c #564B4B",
"I@	c #6E6868",
"J@	c #615D5E",
"K@	c #565252",
"L@	c #615C5C",
"M@	c #4C4646",
"N@	c #221A1A",
"O@	c #332B2B",
"P@	c #090707",
"Q@	c #272525",
"R@	c #100F0F",
"S@	c #0E0C0A",
"T@	c #18110F",
"U@	c #0A0706",
"V@	c #060404",
"W@	c #020101",
"X@	c #070403",
"Y@	c #170B09",
"Z@	c #0E0807",
"`@	c #140E0C",
" #	c #140E0D",
".#	c #070606",
"+#	c #191413",
"@#	c #1A1413",
"##	c #0E0908",
"$#	c #100C0B",
"%#	c #1B1312",
"&#	c #150F0E",
"*#	c #28201F",
"=#	c #0A0201",
"-#	c #040100",
";#	c #0C0201",
">#	c #1B0F0E",
",#	c #403534",
"'#	c #675655",
")#	c #241A19",
"!#	c #4A3F3E",
"~#	c #564746",
"{#	c #453635",
"]#	c #1A0E0E",
"^#	c #2F2322",
"/#	c #221413",
"(#	c #1A0E0D",
"_#	c #0A0404",
":#	c #110504",
"<#	c #4A3937",
"[#	c #180604",
"}#	c #200B09",
"|#	c #210E0C",
"1#	c #211514",
"2#	c #281E1D",
"3#	c #2B1D1C",
"4#	c #634F4C",
"5#	c #1A0B08",
"6#	c #503D3C",
"7#	c #725D59",
"                                        . + @                                     ",
"                                    # + $ % & * =                                 ",
"                                - ; > , % ' * ) ! = =                             ",
"                              ~ { ; ] ^ / * ( _ : = <                             ",
"                              ~ [ > ^ = ^ } | 1 2 3 4                             ",
"                              - 5 6 7 + @ 8 9 0 a b c d                           ",
"                              e f g h = i @ j k l m n o                           ",
"                              f p q 7 = r s f s t f f f                           ",
"                                f f g h @ q f = u v w x                           ",
"                                y y 6 z z z f A B f f f                           ",
"                                5 f @ C z D E A A F G H                           ",
"                          @ I . - J K ^ ^ L 6 @ B A u M                           ",
"                          @ z + N , ^ ^ O P > + f A % ,                           ",
"                      - Q 6 = , R S > + f > > T U A _ .                           ",
"                    V W f + % % X Y Z ` Z z  ...6 A f                             ",
"                  +.@.p f @ #.% $.%.h + ^ ^ .. .@ ; f                             ",
"                +.&.*.6 f =.7 @ , -.z = f f 6 ..;.                                ",
"                >.,.~ 6 '.f p ).^ z !.T ~.p {.6 s ].                              ",
"                >.^.~ ; p /.(.^ ^ 7 ^ _.=.f I U h :.<.                            ",
"                [.}.y |.- (.1.% 2.3._ U f f T f f 4.*..                           ",
"                >.>.5.y p I ^ + + _ 6.> f f 7.8.u 9.0.a.b.                        ",
"                >.c.Q ~ f > @ + d.e.= + f f u u f.9.g.h.i.                        ",
"                j.j.k.y y [ @ % l.@ _ % f Z m.f n.o.0.p.i.q.                      ",
"                >.r.j.s.y (.> = $.s } ^ f t.h.u.,.i.v.w.o.n.                      ",
"                x.>.j.y.y I U @ e.Z z.^ f t.a.j.j.n.b.7.i.n.                      ",
"                A.B.C.B.D.f # 8 @ Z ^ E.F.C.u j.G.u.B.m.^.a.                      ",
"                B.H.f f f f ^ . N ;.:.].u.>.^.h.+.I.J.f I.b.K.                    ",
"                B.f f f f f T L.M.N.4.O.,.b.C.P.7.f f f Q.R.b.                    ",
"                  S.f f T.i.n.u.n.>.n.U.i.b.u u V.'.f u W.+.j.a.                  ",
"                    f f f X.> y Y.n.b.n.Z.Z.f f '.`.m. +u ,.f ^.                  ",
"                      f f f 6 (.].n..+u.u 7.V.f f u m.++u Z.f ^.                  ",
"                      f f f p , [ i..+Z.m.m.Z '.f @+#+$+u a.%+T.                  ",
"                        f f &++ . *+S.f f f '.f f =+7.C.' f '.u.                  ",
"                          f f @ ^ J f f f f '.f f f '.S.f f f                     ",
"                          f f (.^ s f f T f T 7.u u I.f f f '.                    ",
"                          f f 5 @ 7 -+;+U U =.f >+'.T.'.'.f Z.7.                  ",
"                          f ,+{ h ^ '+)+> 6 f f f f f f T.f B.w.                  ",
"                            f &+6 ~ 6 !+~++ f {+V ~ ]+f p P.B.^+                  ",
"                            f f f /+6 K + , J p p z ^ I I T f                     ",
"                            f f f f 6 6 + + /+(+]++ @ z U _+f z                   ",
"                          [ :+f f f h ; ^ U (+/+^ <+[+h }+U 6 `                   ",
"                          I I >+f f z -.^ f p J U |+, z 1+1+f z                   ",
"                      u.2+T J z f f !.z !.T p (.p U @ f T (.f U f                 ",
"                      j.m.f f Z Z f q 3+z J 4+U U 5+z 6 6 > + T W W               ",
"                      b.m.'.6+p f f Z m.h h u u u :.].7+J f 8+4.:.6+              ",
"                      u.f C.W 9+f f 0+Z ` U 7.f.u i.a+].6 f f W :.*.              ",
"                      b+f F.@.@.f c+U f g U f m.d+n..+i.e+f f <.f+{ f             ",
"                    y.^.f +.,.f+p U g+1+g w.h+n.i+o.o.j+i.^+k+].W p l+f           ",
"                    m+a.f +.u.u.T.n+k+w.o+p+a..+o.o.o.b.o.q+%+].f+T ; 6           ",
"                      i.m.I.u.r+s+T.7.u t+u n.i.n.u+v+i.i.w.d+.+f+p ` (.f         ",
"                    Z.>.'.C.w+x+Z.f f f y+'.p+.+z+e+i.A+d+7.,.b.B+f 1+C+f &+z     ",
"                    B.D+I.^.E+u.^.'.f f F+u T.G+b.i.i.b.u 7.i.H+,.T 1+1+1+f f     ",
"                      I+f J.J+>.>.T.K+T.f u L+f M+j.j.h.u ,.b.,.,.  z f f f f z   ",
"                    N+O+f f f c.>.I.,.f C.f f f f j.G.f f j.>.>.>.  Z f f f f     ",
"                    f f f f P+B.B.Q+>.I.R+F.S+f f j.G.m.u b.b.b.>.  p+f T f T+z   ",
"                    f B.f U+B.B.B.B.B.V+I.h.J.f V W+j.f f j.J+>.r.j.T.7.f X+z z   ",
"                    f B.f B.B.B.B.D+j.j.T.p.f f Y+Z+,.P.u >.G.x.j.j.  f f f u *+t+",
"                    f f f I+B.Z.Z.`+G.>.T.a.f f W+j.,.a.u b.b. @>.>.  '.V.f h+  .@",
"                  O+B.f f O+N+B.+@Z.Z.Z.C.,.A.I+j.j.>.h.u b.i.b.j.B.  t+h+t+  %+  ",
"                  I+A.f f f A.B.P+@@Z.`+a.>.B.B.j.k.#@P.$@%@ @>.>.Z.  4+  t+  &@  ",
"                  I+f B.f f f *@=@-@=@;@>@,@-@'@j.,.,.T.j+i.%@r+u.        )@      ",
"                  f f Z.f +.f !@~@f+{@]@^@'@-@/@(@_@,.F.,.i.i.:@f+                ",
"                    <@Z.f J+>.Z.Z.j.i.a.    j.j.,.;@[@}@^@>.j+i.>.                ",
"                    Z.Y+f >.w+u.>.,..+'.    |@1@2@3@4@5@6@,.,.i.>.                ",
"                    Z.V f >.u.7@n.o.n.m.    <@8@9@0@a@d+b@o.c@.+                  ",
"                  Z.Z.f f d@d@e@:@f@g@u     h@'@'@^@d+i@o.O.j@.+                  ",
"                    k@D.f l@m@n@o@p@p@1+      k@X.q@r@s@.+O.O..+                  ",
"                  t@=@'@f u@>.,.v@o.d+        h@V+]@w@x@.+O.O.o.                  ",
"                B.u.,.j.f >.>.u.o.o.        y@B.Q+j.>.n..+o..+n.                  ",
"                j.u.Z+Z.f c.>.,..+n.        B.B.B.z@W+n.A@.+A@b.                  ",
"                ,.Z.Z.<@f u.b.n.b.i.      >.B@D+B.C@G.u.u.u.j.>.                  ",
"              ,.D@E@,.f f F@G@b.H@      ,.I@G.j.W+,.u.J@b.f f                     ",
"              u.E@,.,.f f f f '.'.      i.b.j.j.j.,.Z.K@Z+f                       ",
"            f f L@M@N@f f f f f       u .+x.B.U+f f <@J.f                         ",
"            f f j.O@P@f f f f       a.p+j.I+A.f f f f f f                         ",
"          f f f j.j.f f f f f       p.C.J.f f f f f f f I+                        ",
"          f K+f Q@R@f f K+f f       '.f f f f f f f f f                           ",
"          S@f f f f f f f f f       f f f f f f f f                               ",
"          T@f f f f f f f           f f f f f f f                                 ",
"          f f f f f f f f           K+K+O+f f f f                                 ",
"        f y f f f f f f           K+U@V@K+O+f                                     ",
"        W@y f X@y y f f           Y@f T.Z@`@                                      ",
"        y y ~ e W@f f           f f f T.T.T.                                      ",
"        y y f f f f f         f f y W@*+                                          ",
"        y  #f f f f           p f  #y *+                                          ",
"      .#- p f y - y         (.p p p y ~                                           ",
"    f +#@#~ f f p         J J p /+J J J                                           ",
"    ##~ ~ $#f f f         J /+f J %#p p                                           ",
"  y &#~ *#f f f =#        f -#;#>#f p p                                           ",
"  y 5 [ ,#J ; '#T             ,+T T )#J                                           ",
"  f f *#[ [ !#~#; {#          T ]#U J >+                                          ",
"  ~ y ~ - 5 ^#!#; ; @ @       T z z /#(#_#                                        ",
"f f f f f p (.:#; |.<#@ @       [#}#|#1#(#p                                       ",
"f '.e y ~ - 2#(.6 3#I . 7 4#^   -+[#z 5#I p                                       ",
"  y y y f f f f p J J ; @ 6#^ ^ 6 (., f (.p                                       ",
"        f y y y y y y y f   f       ^ 7#U T                                       ",
"                                      ^ p                                         "};
