/* XPM */
static char * C1_xpm[] = {
"40 95 687 2",
"  	c None",
". 	c #745D5A",
"+ 	c #6B5A54",
"@ 	c #735E59",
"# 	c #816863",
"$ 	c #5E4C4A",
"% 	c #67524E",
"& 	c #6D5B56",
"* 	c #2F3133",
"= 	c #655955",
"- 	c #866E68",
"; 	c #846B66",
"> 	c #705A56",
", 	c #302726",
"' 	c #63504D",
") 	c #79625E",
"! 	c #7A635E",
"~ 	c #715D58",
"{ 	c #514948",
"] 	c #847069",
"^ 	c #7A6761",
"/ 	c #473C3B",
"( 	c #352928",
"_ 	c #413131",
": 	c #7B635F",
"< 	c #594542",
"[ 	c #745B56",
"} 	c #604D4A",
"| 	c #634F4D",
"1 	c #554341",
"2 	c #7B625E",
"3 	c #644E4C",
"4 	c #453735",
"5 	c #533F3D",
"6 	c #604B49",
"7 	c #3E2C2A",
"8 	c #332322",
"9 	c #69534D",
"0 	c #3C2726",
"a 	c #382826",
"b 	c #3E302D",
"c 	c #47221D",
"d 	c #3E3230",
"e 	c #52403D",
"f 	c #725A56",
"g 	c #3B2927",
"h 	c #392724",
"i 	c #2B1A17",
"j 	c #3C1B1A",
"k 	c #251613",
"l 	c #372623",
"m 	c #321A16",
"n 	c #3C2E2C",
"o 	c #523F3D",
"p 	c #745E5A",
"q 	c #432F2D",
"r 	c #392826",
"s 	c #775D59",
"t 	c #6B5249",
"u 	c #70554E",
"v 	c #000000",
"w 	c #42302D",
"x 	c #42231E",
"y 	c #130C0B",
"z 	c #3B2D2B",
"A 	c #6A5550",
"B 	c #513C38",
"C 	c #65514E",
"D 	c #291412",
"E 	c #331E1C",
"F 	c #26110F",
"G 	c #4A2B27",
"H 	c #23110D",
"I 	c #221615",
"J 	c #463836",
"K 	c #5A4946",
"L 	c #4F3F3D",
"M 	c #060505",
"N 	c #6E644E",
"O 	c #8C785E",
"P 	c #C5B698",
"Q 	c #281613",
"R 	c #190E0D",
"S 	c #50403D",
"T 	c #382D2C",
"U 	c #432C2A",
"V 	c #030202",
"W 	c #27201E",
"X 	c #160000",
"Y 	c #302725",
"Z 	c #675451",
"` 	c #674642",
" .	c #85764C",
"..	c #6F6038",
"+.	c #C1B291",
"@.	c #351919",
"#.	c #251311",
"$.	c #302625",
"%.	c #574744",
"&.	c #6A4C48",
"*.	c #2B0000",
"=.	c #290000",
"-.	c #170000",
";.	c #2A1D1A",
">.	c #342928",
",.	c #3F3331",
"'.	c #4C3D3C",
").	c #1F1919",
"!.	c #4A3B39",
"~.	c #6D5551",
"{.	c #493836",
"].	c #1E1716",
"^.	c #392A29",
"/.	c #3E2D2C",
"(.	c #322827",
"_.	c #312625",
":.	c #493C39",
"<.	c #150000",
"[.	c #4E3C3A",
"}.	c #110D0D",
"|.	c #433634",
"1.	c #493A38",
"2.	c #1A1311",
"3.	c #2A1D1C",
"4.	c #2D2423",
"5.	c #473735",
"6.	c #423432",
"7.	c #453B3A",
"8.	c #534441",
"9.	c #5E4743",
"0.	c #644743",
"a.	c #5E3935",
"b.	c #8C605B",
"c.	c #140909",
"d.	c #0D0201",
"e.	c #4A3837",
"f.	c #070403",
"g.	c #13100F",
"h.	c #4D3C3B",
"i.	c #51403E",
"j.	c #564442",
"k.	c #5D4946",
"l.	c #745552",
"m.	c #81554D",
"n.	c #807070",
"o.	c #908485",
"p.	c #C6A6A9",
"q.	c #6A3D3C",
"r.	c #4E4847",
"s.	c #4D4A4B",
"t.	c #716D6D",
"u.	c #020000",
"v.	c #180C0B",
"w.	c #3C2B2A",
"x.	c #695351",
"y.	c #634F4C",
"z.	c #7A5A56",
"A.	c #501614",
"B.	c #200302",
"C.	c #200000",
"D.	c #3E0000",
"E.	c #B09A9B",
"F.	c #050000",
"G.	c #010000",
"H.	c #655553",
"I.	c #595557",
"J.	c #615251",
"K.	c #846A66",
"L.	c #584442",
"M.	c #837A7B",
"N.	c #4D413E",
"O.	c #805D58",
"P.	c #3D1F17",
"Q.	c #33130A",
"R.	c #762B1E",
"S.	c #5C0000",
"T.	c #9F8C8F",
"U.	c #211615",
"V.	c #3C2C2B",
"W.	c #866F6D",
"X.	c #8E7C74",
"Y.	c #302120",
"Z.	c #968B8B",
"`.	c #42201B",
" +	c #2E0000",
".+	c #5C0101",
"++	c #6C0202",
"@+	c #1E0000",
"#+	c #160502",
"$+	c #2B1210",
"%+	c #0C0000",
"&+	c #181211",
"*+	c #614E4C",
"=+	c #54403E",
"-+	c #512D27",
";+	c #4C0000",
">+	c #856B67",
",+	c #685451",
"'+	c #22100E",
")+	c #5C4745",
"!+	c #9C8C8F",
"~+	c #877D7E",
"{+	c #807677",
"]+	c #AB9698",
"^+	c #E69192",
"/+	c #E0AAC5",
"(+	c #5B0000",
"_+	c #E79192",
":+	c #C2A4A7",
"<+	c #5B4946",
"[+	c #735D59",
"}+	c #4E1717",
"|+	c #C0A1A4",
"1+	c #B29A9D",
"2+	c #B2989B",
"3+	c #B4999C",
"4+	c #A89496",
"5+	c #958689",
"6+	c #99898C",
"7+	c #AE959C",
"8+	c #7D0B09",
"9+	c #E5AEBD",
"0+	c #6B0000",
"a+	c #140E0C",
"b+	c #52413F",
"c+	c #624D4B",
"d+	c #4B312F",
"e+	c #331715",
"f+	c #715D5D",
"g+	c #B3999C",
"h+	c #AA9497",
"i+	c #A69396",
"j+	c #A99397",
"k+	c #A69295",
"l+	c #B1979A",
"m+	c #B79B9E",
"n+	c #A99399",
"o+	c #A48082",
"p+	c #5B0101",
"q+	c #790000",
"r+	c #B37A7C",
"s+	c #877A7C",
"t+	c #766F70",
"u+	c #090504",
"v+	c #554442",
"w+	c #4F3D3B",
"x+	c #210C0A",
"y+	c #120F0D",
"z+	c #7F7677",
"A+	c #A89396",
"B+	c #AD9598",
"C+	c #433D3C",
"D+	c #1D1917",
"E+	c #5C5455",
"F+	c #9D8A8D",
"G+	c #A08E91",
"H+	c #3F0202",
"I+	c #846062",
"J+	c #6C6566",
"K+	c #524F50",
"L+	c #2B2929",
"M+	c #272120",
"N+	c #3C3231",
"O+	c #3D3231",
"P+	c #644F4D",
"Q+	c #543F3C",
"R+	c #3F2E2D",
"S+	c #1F1514",
"T+	c #4A4646",
"U+	c #938587",
"V+	c #A49294",
"W+	c #AA8587",
"X+	c #0A0808",
"Y+	c #9E8C8F",
"Z+	c #A49194",
"`+	c #A29093",
" @	c #AE969B",
".@	c #330000",
"+@	c #715858",
"@@	c #6A6465",
"#@	c #423E3F",
"$@	c #2B2121",
"%@	c #0B0605",
"&@	c #3F3737",
"*@	c #6B5B58",
"=@	c #695756",
"-@	c #2C2525",
";@	c #262323",
">@	c #34302F",
",@	c #7B7172",
"'@	c #524F4F",
")@	c #333030",
"!@	c #585151",
"~@	c #99898B",
"{@	c #938688",
"]@	c #1E1513",
"^@	c #0B0000",
"/@	c #1A1616",
"(@	c #231C1B",
"_@	c #322C2C",
":@	c #473835",
"<@	c #635250",
"[@	c #454242",
"}@	c #282626",
"|@	c #4F4C4C",
"1@	c #545050",
"2@	c #665557",
"3@	c #9E8D90",
"4@	c #97878A",
"5@	c #6C6667",
"6@	c #5B5859",
"7@	c #2F1D19",
"8@	c #350808",
"9@	c #322728",
"0@	c #0C0A09",
"a@	c #231F1F",
"b@	c #6B4D48",
"c@	c #282726",
"d@	c #352E2D",
"e@	c #685C5A",
"f@	c #4B4545",
"g@	c #928586",
"h@	c #5F5B5C",
"i@	c #5D4546",
"j@	c #9D8C8F",
"k@	c #231B18",
"l@	c #29201D",
"m@	c #3C3031",
"n@	c #625E5F",
"o@	c #7A6263",
"p@	c #382A28",
"q@	c #1C0D0A",
"r@	c #251E1D",
"s@	c #413C3D",
"t@	c #1A1718",
"u@	c #807778",
"v@	c #604C4C",
"w@	c #8E8183",
"x@	c #918285",
"y@	c #372C2D",
"z@	c #110E0F",
"A@	c #7C7475",
"B@	c #030303",
"C@	c #0A0909",
"D@	c #100000",
"E@	c #362522",
"F@	c #2E1814",
"G@	c #332927",
"H@	c #170603",
"I@	c #472D2C",
"J@	c #1F1C1D",
"K@	c #9A8A8D",
"L@	c #918385",
"M@	c #938586",
"N@	c #0F0C0C",
"O@	c #493E3F",
"P@	c #A18D90",
"Q@	c #331C18",
"R@	c #33160F",
"S@	c #715A57",
"T@	c #443534",
"U@	c #171212",
"V@	c #50403E",
"W@	c #3C3334",
"X@	c #928486",
"Y@	c #918485",
"Z@	c #9E797A",
"`@	c #140000",
" #	c #191513",
".#	c #6D6263",
"+#	c #786A6C",
"@#	c #2D2626",
"##	c #1F0000",
"$#	c #3B2B29",
"%#	c #5A4745",
"&#	c #6E5855",
"*#	c #221818",
"=#	c #120000",
"-#	c #2B1D1B",
";#	c #4E3F3C",
">#	c #453A39",
",#	c #96888A",
"'#	c #854D47",
")#	c #3D3939",
"!#	c #625B5C",
"~#	c #9D7779",
"{#	c #390000",
"]#	c #2D0000",
"^#	c #3C0000",
"/#	c #351E1A",
"(#	c #574441",
"_#	c #544441",
":#	c #6A5552",
"<#	c #100D0D",
"[#	c #352220",
"}#	c #574543",
"|#	c #50403C",
"1#	c #413534",
"2#	c #908283",
"3#	c #433E3F",
"4#	c #222020",
"5#	c #0B0A0A",
"6#	c #554340",
"7#	c #664E4B",
"8#	c #2F1A18",
"9#	c #5D4947",
"0#	c #6B5350",
"a#	c #534341",
"b#	c #433737",
"c#	c #867A7C",
"d#	c #161313",
"e#	c #4D403E",
"f#	c #685351",
"g#	c #1D110F",
"h#	c #634D4A",
"i#	c #685350",
"j#	c #463837",
"k#	c #332525",
"l#	c #7A7273",
"m#	c #5E595A",
"n#	c #372927",
"o#	c #50413F",
"p#	c #5E4E4C",
"q#	c #332C2D",
"r#	c #624B48",
"s#	c #6F5653",
"t#	c #2E1B17",
"u#	c #373333",
"v#	c #686263",
"w#	c #090101",
"x#	c #200C0B",
"y#	c #160E0E",
"z#	c #433939",
"A#	c #4A3734",
"B#	c #554342",
"C#	c #5B4745",
"D#	c #361D1B",
"E#	c #5C4543",
"F#	c #654945",
"G#	c #1F1614",
"H#	c #403D3E",
"I#	c #181717",
"J#	c #070000",
"K#	c #4E4343",
"L#	c #634E4B",
"M#	c #150808",
"N#	c #403939",
"O#	c #604B47",
"P#	c #5F4642",
"Q#	c #232222",
"R#	c #271D1C",
"S#	c #493937",
"T#	c #140502",
"U#	c #4A3D3C",
"V#	c #1D0F0C",
"W#	c #5B5454",
"X#	c #755D5A",
"Y#	c #3A2D2B",
"Z#	c #211C1C",
"`#	c #2F1614",
" $	c #3B3839",
".$	c #140E0D",
"+$	c #301A16",
"@$	c #373131",
"#$	c #140807",
"$$	c #100404",
"%$	c #161212",
"&$	c #26130F",
"*$	c #221210",
"=$	c #310807",
"-$	c #64261D",
";$	c #170E0E",
">$	c #754F4A",
",$	c #2B2525",
"'$	c #3C1D1B",
")$	c #2B1D1C",
"!$	c #1D100F",
"~$	c #332827",
"{$	c #837879",
"]$	c #484343",
"^$	c #030101",
"/$	c #3D1C18",
"($	c #290E07",
"_$	c #444243",
":$	c #5E5756",
"<$	c #6B6260",
"[$	c #806B69",
"}$	c #574847",
"|$	c #271A19",
"1$	c #241A19",
"2$	c #333132",
"3$	c #4E4A4C",
"4$	c #544344",
"5$	c #71696A",
"6$	c #030000",
"7$	c #917273",
"8$	c #867B7C",
"9$	c #4C4949",
"0$	c #270100",
"a$	c #585556",
"b$	c #4D4343",
"c$	c #83797B",
"d$	c #948688",
"e$	c #8C6F71",
"f$	c #8D8182",
"g$	c #464343",
"h$	c #2F2727",
"i$	c #393636",
"j$	c #8F8284",
"k$	c #705F5F",
"l$	c #331408",
"m$	c #7A7172",
"n$	c #A59293",
"o$	c #660000",
"p$	c #170B09",
"q$	c #4B4748",
"r$	c #110A08",
"s$	c #080403",
"t$	c #605C5D",
"u$	c #83797A",
"v$	c #948788",
"w$	c #877C7D",
"x$	c #1D1A19",
"y$	c #3F3B3C",
"z$	c #504B4C",
"A$	c #463838",
"B$	c #71423C",
"C$	c #383535",
"D$	c #040000",
"E$	c #050100",
"F$	c #535050",
"G$	c #3E3737",
"H$	c #2D2424",
"I$	c #3D3A3A",
"J$	c #0B0201",
"K$	c #312D2D",
"L$	c #090808",
"M$	c #575455",
"N$	c #5F3732",
"O$	c #0C0604",
"P$	c #2C2828",
"Q$	c #6C5B5B",
"R$	c #2A1A17",
"S$	c #3D393A",
"T$	c #615C5C",
"U$	c #756C6E",
"V$	c #84787A",
"W$	c #6B6566",
"X$	c #2E2B2B",
"Y$	c #1F1B1B",
"Z$	c #726B6C",
"`$	c #736D6E",
" %	c #84797A",
".%	c #282424",
"+%	c #454142",
"@%	c #413E3E",
"#%	c #736B6C",
"$%	c #7F7576",
"%%	c #897A7C",
"&%	c #615B5B",
"*%	c #575253",
"=%	c #5B5556",
"-%	c #312E2E",
";%	c #1A1717",
">%	c #160807",
",%	c #857A7C",
"'%	c #716A6B",
")%	c #665F60",
"!%	c #595454",
"~%	c #72595A",
"{%	c #050505",
"]%	c #413D3E",
"^%	c #363333",
"/%	c #7E7576",
"(%	c #97888B",
"_%	c #9B8B8E",
":%	c #736C6D",
"<%	c #6E6668",
"[%	c #615A5B",
"}%	c #817778",
"|%	c #897D7F",
"1%	c #A99596",
"2%	c #847478",
"3%	c #7C6A6C",
"4%	c #1D1919",
"5%	c #3A3636",
"6%	c #8D8183",
"7%	c #A59294",
"8%	c #BC9FA2",
"9%	c #BDA0A3",
"0%	c #988186",
"a%	c #957B7D",
"b%	c #5D5A5B",
"c%	c #8B7E81",
"d%	c #8D8083",
"e%	c #908284",
"f%	c #9E8A8D",
"g%	c #7D686B",
"h%	c #876F74",
"i%	c #281F20",
"j%	c #060000",
"k%	c #1B0C0C",
"l%	c #786F71",
"m%	c #5C595A",
"n%	c #343131",
"o%	c #5D5859",
"p%	c #7C7274",
"q%	c #8E8083",
"r%	c #897A7D",
"s%	c #947C80",
"t%	c #796668",
"u%	c #7C676A",
"v%	c #463839",
"w%	c #8E8184",
"x%	c #877B7D",
"y%	c #A49192",
"z%	c #AA9597",
"A%	c #B59B9E",
"B%	c #988586",
"C%	c #6B5F60",
"D%	c #231414",
"E%	c #5F4E50",
"F%	c #9A888B",
"G%	c #A79194",
"H%	c #8F8385",
"I%	c #A39193",
"J%	c #AB9798",
"K%	c #958486",
"L%	c #666161",
"M%	c #4E2B2D",
"N%	c #9B8A8C",
"O%	c #544445",
"P%	c #6B6465",
"Q%	c #70686A",
"R%	c #30191A",
"S%	c #918487",
"T%	c #A89495",
"U%	c #494646",
"V%	c #4C3638",
"W%	c #343132",
"X%	c #6F6769",
"Y%	c #524B4D",
"Z%	c #170A0A",
"`%	c #8E7576",
" &	c #AD9698",
".&	c #A59193",
"+&	c #2F2929",
"@&	c #332C2C",
"#&	c #3E3A3A",
"$&	c #624541",
"%&	c #958789",
"&&	c #180F0F",
"*&	c #492B2C",
"=&	c #352B2B",
"-&	c #7D7476",
";&	c #270D0D",
">&	c #211E1E",
",&	c #2A2121",
"'&	c #282524",
")&	c #120202",
"!&	c #494444",
"~&	c #110E0E",
"{&	c #340000",
"]&	c #372C2C",
"^&	c #0D0000",
"/&	c #0E0C0A",
"(&	c #090000",
"_&	c #18110F",
":&	c #020101",
"<&	c #060100",
"[&	c #140D0C",
"}&	c #040202",
"|&	c #120D0D",
"1&	c #261F1E",
"2&	c #1D1211",
"3&	c #302524",
"4&	c #080606",
"5&	c #070404",
"6&	c #130E0D",
"7&	c #2F1E1D",
"8&	c #2D1311",
"9&	c #1A0705",
"0&	c #100C0B",
"a&	c #2C2423",
"b&	c #281E1D",
"c&	c #311614",
"d&	c #4E3937",
"                            .                                                   ",
"                        + @ # . .                                               ",
"                    $ % & * = - ; > ,                                           ",
"                    ' ) ! ~ { ] ^ ! /                                           ",
"                  ( _ : < [ } | 1 2 3                                           ",
"                  4 } 5 6 7 8 9 0 a b c                                         ",
"                  d e f g h i j k i l m                                         ",
"                  n o p q r s t u v w x                                         ",
"                  y z A B C D E F v G x H                                       ",
"                  I J K L M v N O P v Q H                                       ",
"                    R S T U v v V W X v                                         ",
"                      Y Z ` v  ...+.@.#.                                        ",
"                      $.%.&.v v *.=.-.;.                                        ",
"                      >.,.'.).!.~.{.].^./.                                      ",
"                      (._.:.<.L [.4 }.|.1.                                      ",
"                      2.3.v v v 4.5.6.7.8.9.0.a.b.                              ",
"                    C c.d.e., f.g.h.i.j.k.l.m.n.o.p.e.q.                        ",
"                  r.s.t.I u.v v.w.x.y.z.A.B.v C.D.E.d.C F.G.H.                  ",
"                  I.t.J.K.L.v d.M.N.O.P.Q.R.D.D.S.T.v.- U.F.I                   ",
"                  F.V.L.W.X.Y.L.Z.`.G.`. +.+++@+R.T.#+$+G.v v %+&+              ",
"              *+=+-+;+>+; ,+'+)+!+~+{+]+D.^+/+(+_+:+v v v v v u.u.              ",
"            <+[+$+H ;+}+|+1+2+3+4+5+6+7+.+8+9+0+_+:+a+v v v v u.v               ",
"          b+c+d+e+@+G.f+g+h+i+j+k+l+m+n+o+p+q+(+r+s+t+v v v v v u+              ",
"          v+L.w+x+@+y+z+A+k+B+C+D+E+F+G+k+H+D.D.I+J+K+L+v v v M+N+              ",
"        O+P+Q+R+S+v T+t+U+V+W+X+Y+Z+`+ @]+D..@@++@@@#@#@$@G.%@/ /               ",
"        &@*@=@-@v ;@t+>@,@'@)@!@~@{@!+]@]@D.^@v v /@#@#@)@)@H &+(@              ",
"        _@:@<@v v [@}@v |@1@2@3@4@5@6@H 7@8@G.v v 9@0@v a@)@b@v G.              ",
"        c@d@e@v v f@0@v g@h@i@j@6@k@l@m@n@o@p@G.G.G.v v $@#@b@q@f.(@            ",
"          r@s@v v t@u@v@w@x@D.y@v v z@A@B@C@v  +v v G.@+D@D@E@F@H u.            ",
"        ,+G@H@v I@J@K@j@L@M@v v v v y@N@O@P@v <.@+@+D@ +v 0@Q@R@G.Q@            ",
"        S@T@x+U@V@W@X@!+Y@Z@`@v v v R. #.#+#@#@+ +##<. +v v $#Q.H Q@            ",
"      %#&#*#=#-#;#>#,#6@v G. + +;+@+(+'#)#!#~#{# +]###^#v v v v /#|@(#          ",
"      _#:#<#[#}#|#1#2#3#v v =.=.v v v ^@0@v y@ + +D.*.`@v 4#/@}@5#|@|@          ",
"      6#7#8#9#0#a#b#c#|@D@v v v v v v v v v v v v F.v v v )@)@d#)@#@)@          ",
"      e#f#g#h#i#j#k#l#L+v v v F.v v v v v v v v v =#v v     v v )@)@m#n#        ",
"      o#p#q#r#s#t#u#v#v w##+x#^@v v v v v v v.y#v z#v v     q@v )@r@|@A#v       ",
"      B#C#D#E#F#G#H#I#v d.%+^@J#v G.G.v %+w#v #+v K#v v       v 0@]@#@n#v       ",
"    v.L#M#N#O#P#  v Q#v v.#+u.V.L./.C x+v L.R#v v v v &+      G.v ]@v ]@G.      ",
"    S#T#$+U#G#V#      v G.V.N+W#X#Y#v v v u.Z#v %@G.v v v       G.D@@+H v       ",
"    `#v =#u.q@f.      v v v d.v N+v v v v v. $v .$u+v &+v       H +$R@G.v       ",
"    e+x+$+v.@+        @$u.v G.#$$$v d.v v u.%$v (@u.v &+d.u.      &$*$G.v       ",
"  v I =$V.%+-$      . v.;$u.v $$#$v.Y.y#v u.u.%@%@f.v u.(@K.V.    v G.v v       ",
"  v %+e+x+v -$    e.>$Y.v v =#$+$+x+L.C C e.v.v.u.v u.u./ u.Q@    v v v v       ",
"  v #+^@#+#+Q@    ,$C V.v v v v v %+'$; ; , )$!$u.v v d.~$v {$]$  G.v H ^$      ",
"  v F./$#+($      _$:$<$v.L.#+V.e.e+V.[$}$V.|$Y.Y.v.u.1$d.H |@v     G.F@H       ",
"  v #+'$v v     #@2$_$3$M.M.M.M.^@v v ,$ $_$t+;+D.@+ +4$t+5$|@      v Q@&$      ",
"  v 6$Y.v         |@@@t+E.E.o.t+ +D. +7$o.8$U+ + +@+;++@t+9$#@    0$  Q@Q@      ",
"  v v %@v         |@a$b$@@c$d$e$D@G.G.o.o.f${$ +{#G.G.$@#@g$|@#@=#0$  G. +G.    ",
"  F.h$v v       #@i$'@6@{$j$t+!+(+(+;+{${$!+!+o.k$^@G.$@#@#@)@Q@Q@#+  D@l$H     ",
"    N+v v       |@)@|@@@m$o.n$E.(+o$0+{${$!+!+E.o.Q@G.p$q$#@`.Q@r$v v v p$s$    ",
"  v I v v       #@#@#@t$@@u$o.o.-$;+D.o.{$U+v$o.w${$=.G./@4$v )@x$p$v v v v     ",
"  v v v v       #@)@y$6@@@@@@@@@z$A$@+{${${$6@!+!+!+]$v v ]$[@)@)@B$v v v v     ",
"  v F.v         9$y$C$)@|@6@t+t+@@t$]$6@6@t+6@o.o.6@$@v v )@)@#@)@B$v v H v     ",
"  D$#+E$v         #@|@#@F$6@@@@@@@@@G$H$)@)@)@/@/@I$G.v v a@)@#@)@Q.v v H v     ",
"v v J$#+v         #@6@@@6@q$|@|@|@|@$@K$/@v v v L$/@v v v $@|@|@9@G.G.v H v     ",
"v v v v =#        #@|@@@t+@@|@M$@@@@A$s.4#v v v v /@#@]@G.H |@g$N$Q@v O$H       ",
"  v %+v v         /@v P$|@6@{$o.o.{$Q$|@v v v )@6@t+t+Q@G.v /@R$v H G.H s$      ",
"  #+x+v v         )@S$|@T$@@|@|@6@U$V$)@    v v #@W${$Q@G.v X$Y$n#p$v H v       ",
"    e.F.v         Y$)@s.Z$@@`$t+{$o. %)@      )@.%#@W$Q@G.v #@)@)@v v H         ",
"    $+v v         +%@%)@#@|@#%t+$%%%&%#@      v |@*%=%9@v v )@-%;%v v           ",
"    #+>%v         |@+%6@@@#%,%j$'%)%!%)@      v I$|@K@~%v v )@Y${%v v           ",
"      F.%+        ]%^%[@t+/%(%_%:%<%[%)@        )@#@~+}%G.v )@/@v /@v           ",
"        I         -%/@)@t+|%K@1%K@2%3%)@        /@|@z+~+@+<.|@#@}@5#v           ",
"        v         4%5%)@t+6%7%8%9%0%a%#@          )@9@A$@+@+b%q$/@)@)@          ",
"                  #@#@C$W$c%d%e%f%g%h%#@          )@i%G.j%k%l%m%)@#@n%          ",
"                    #@#@o%p%q%r%s%t%u%#@            G.^@D@v%w%6+!+#@#@          ",
"                    9$#@#@x%y%z%A%B%C%              ]@F.D%E%F%G%H%|@)@          ",
"                    |@+%#@c#j$I%J%K%L%                v D@M%N% %t+|@i$y$        ",
"                  O%a$9$#@P%@@{$t+Q%n@                v D@R%S%(%T%T$U%)@        ",
"                  V%W%t+)@6@v v $@X%Y%                  D$Z%`% &.&@@|@/@|@      ",
"                  +&@&o.)@|@v v 0@h@#&                  v G.$&y%%&@@#@/@)@      ",
"                  &&*&6@#@L+v v v #@/@                  v v =&c#-&6@)@y+)@      ",
"                  ;&>&,&v v v v v y+v                   y+'&)@)&!&|@~&v #@      ",
"                  {&]&#@v v v v v v v                   y+0@v G.v G.v v }@      ",
"                  D@X 0@v v )@y+v v v                   v v v v v v v v v       ",
"                  G.^&v v v v v v v v                   /&v v v v v v v v       ",
"                  D@G.v v v v v v v v                     v v v v v v v v       ",
"                  D$(&v v v v v v v v                       v v v v v v ]@      ",
"                    v v v v v v v v v                       ]@v v v v v v       ",
"                    v v v v v v v                           v v v v v v v       ",
"                      v v v ]@v _&                            v v v v v v       ",
"                      ]@v v v v                               v v %@v v v       ",
"                      v v v v v                                 v v v v G.u+    ",
"                      v v v v q@                                v v v v %@G.    ",
"                      v v v v q@                                  v v v v v v   ",
"                      d.v v u.v                                   v v v v %@%@  ",
"                    v.v v f.u.%+                                  v v v v :&%@&+",
"                    #+<&d.[&u.V.V.                              u.v v G.(@&+f.}&",
"                    d.d.d.w#u.v.K.                            Y.&+U@v u.v v :&%@",
"                    Y.Y.%+u.u.                              . |&1&2&3&&+4&v v v ",
"                    v.e.e.F.(&u.                            , , u., 2&5&6&%@%@%@",
"                    7&8&e+L.x+9&                          v 0&u.a&v.b&u.G.v v v ",
"                    $+c&e+- x+x+%+                      &+v u.a&, v.Y.%@v u+%@  ",
"                    C d&x+K.C v.C                                               ",
"                    v.x+9&$+x+v L.                                              "};
