/* XPM */
static char * C3_xpm[] = {
"41 93 623 2",
"  	c None",
". 	c #745D5A",
"+ 	c #846A66",
"@ 	c #79615E",
"# 	c #655955",
"$ 	c #464141",
"% 	c #705A56",
"& 	c #4A3837",
"* 	c #302726",
"= 	c #846B66",
"- 	c #866E68",
"; 	c #8B766F",
"> 	c #252B2E",
", 	c #604D4B",
"' 	c #866F69",
") 	c #765F5B",
"! 	c #6C5855",
"~ 	c #5A4846",
"{ 	c #342A29",
"] 	c #705E5D",
"^ 	c #87716A",
"/ 	c #77524D",
"( 	c #836965",
"_ 	c #826964",
": 	c #7B6560",
"< 	c #79635D",
"[ 	c #624E4B",
"} 	c #4E3F3D",
"| 	c #3C2C2B",
"1 	c #68463E",
"2 	c #7E615C",
"3 	c #7B5A55",
"4 	c #826661",
"5 	c #79605C",
"6 	c #755E59",
"7 	c #6F5855",
"8 	c #614D4C",
"9 	c #473C3B",
"0 	c #584442",
"a 	c #3F201E",
"b 	c #5F3D38",
"c 	c #685450",
"d 	c #7F625D",
"e 	c #846C66",
"f 	c #775D58",
"g 	c #68524E",
"h 	c #78605C",
"i 	c #78635D",
"j 	c #77605C",
"k 	c #2A1C1B",
"l 	c #6B4D48",
"m 	c #754F4A",
"n 	c #78534E",
"o 	c #836761",
"p 	c #826862",
"q 	c #7E605B",
"r 	c #826560",
"s 	c #59413E",
"t 	c #5C403C",
"u 	c #27100E",
"v 	c #443332",
"w 	c #52403E",
"x 	c #020000",
"y 	c #000000",
"z 	c #65514E",
"A 	c #3C1D1B",
"B 	c #553935",
"C 	c #816560",
"D 	c #7F635F",
"E 	c #7F615C",
"F 	c #331C1B",
"G 	c #6E5854",
"H 	c #271413",
"I 	c #332322",
"J 	c #3C3231",
"K 	c #181211",
"L 	c #221615",
"M 	c #40201C",
"N 	c #795651",
"O 	c #7C5E5A",
"P 	c #7B5E59",
"Q 	c #60413C",
"R 	c #2F2221",
"S 	c #231716",
"T 	c #201514",
"U 	c #2F2120",
"V 	c #271B1A",
"W 	c #2B1210",
"X 	c #5C4643",
"Y 	c #372221",
"Z 	c #564441",
"` 	c #534340",
" .	c #574644",
"..	c #4C3F3B",
"+.	c #413533",
"@.	c #2E2624",
"#.	c #483938",
"$.	c #200C0A",
"%.	c #564340",
"&.	c #433331",
"*.	c #493937",
"=.	c #594845",
"-.	c #3A2A2A",
";.	c #2D1A18",
">.	c #3B2D2C",
",.	c #392E2D",
"'.	c #392D2B",
").	c #67534F",
"!.	c #55413F",
"~.	c #0C0000",
"{.	c #644E4A",
"].	c #3B2A29",
"^.	c #463635",
"/.	c #443534",
"(.	c #403130",
"_.	c #342625",
":.	c #352827",
"<.	c #2B2120",
"[.	c #5D4B47",
"}.	c #3F3331",
"|.	c #66524E",
"1.	c #5B4845",
"2.	c #614E4B",
"3.	c #6F5856",
"4.	c #856B6A",
"5.	c #504A49",
"6.	c #3B393A",
"7.	c #554A4A",
"8.	c #604D4A",
"9.	c #423433",
"0.	c #6D5854",
"a.	c #816864",
"b.	c #79615C",
"c.	c #695350",
"d.	c #695751",
"e.	c #433938",
"f.	c #725A58",
"g.	c #634F4B",
"h.	c #6A5552",
"i.	c #775E5B",
"j.	c #5B5657",
"k.	c #595557",
"l.	c #656162",
"m.	c #4E4A4C",
"n.	c #4E4343",
"o.	c #846A65",
"p.	c #806762",
"q.	c #816762",
"r.	c #7B6761",
"s.	c #786462",
"t.	c #3E1F1D",
"u.	c #88706A",
"v.	c #826865",
"w.	c #6B514D",
"x.	c #6B5756",
"y.	c #1F0B09",
"z.	c #2C292A",
"A.	c #51494A",
"B.	c #746262",
"C.	c #180C0B",
"D.	c #67514E",
"E.	c #302120",
"F.	c #444243",
"G.	c #9C8C8F",
"H.	c #4F4C4C",
"I.	c #270100",
"J.	c #100D0C",
"K.	c #826763",
"L.	c #8C7871",
"M.	c #745D57",
"N.	c #705E59",
"O.	c #2D1F1E",
"P.	c #614D4A",
"Q.	c #423B3D",
"R.	c #716164",
"S.	c #5C575A",
"T.	c #2D2423",
"U.	c #42201B",
"V.	c #715858",
"W.	c #423E3F",
"X.	c #5F4744",
"Y.	c #836863",
"Z.	c #806460",
"`.	c #735C57",
" +	c #6B5753",
".+	c #050000",
"++	c #6B5552",
"@+	c #6F5956",
"#+	c #5E4947",
"$+	c #4E4647",
"%+	c #87797B",
"&+	c #7F7274",
"*+	c #070101",
"=+	c #100000",
"-+	c #010000",
";+	c #0C0A09",
">+	c #5F3732",
",+	c #AC645A",
"'+	c #331C18",
")+	c #512D27",
"!+	c #614B47",
"~+	c #836864",
"{+	c #77534E",
"]+	c #623D38",
"^+	c #715A56",
"/+	c #1E0B09",
"(+	c #846B65",
"_+	c #504949",
":+	c #8A7B7E",
"<+	c #8A7D7F",
"[+	c #1C0C0C",
"}+	c #7E7576",
"|+	c #6F6769",
"1+	c #010101",
"2+	c #170B09",
"3+	c #1E1513",
"4+	c #3D3A3A",
"5+	c #664C48",
"6+	c #50322D",
"7+	c #5A4946",
"8+	c #140502",
"9+	c #080201",
"0+	c #5C4F4F",
"a+	c #8B7E80",
"b+	c #817477",
"c+	c #110E0F",
"d+	c #807677",
"e+	c #7D7374",
"f+	c #595254",
"g+	c #241C1C",
"h+	c #333030",
"i+	c #3D393A",
"j+	c #785D59",
"k+	c #453431",
"l+	c #5A4643",
"m+	c #4F3E3B",
"n+	c #261B1A",
"o+	c #160502",
"p+	c #67524F",
"q+	c #5A4C4C",
"r+	c #8D7E81",
"s+	c #837679",
"t+	c #0C0B0B",
"u+	c #474343",
"v+	c #71686A",
"w+	c #696163",
"x+	c #696364",
"y+	c #2F2C2C",
"z+	c #454242",
"A+	c #4A3734",
"B+	c #735955",
"C+	c #67524E",
"D+	c #584542",
"E+	c #4F3F3C",
"F+	c #200B0A",
"G+	c #523F3D",
"H+	c #4F3C3B",
"I+	c #4E4847",
"J+	c #575153",
"K+	c #8F8083",
"L+	c #7F7475",
"M+	c #1F1919",
"N+	c #201B1C",
"O+	c #817778",
"P+	c #746C6D",
"Q+	c #080707",
"R+	c #282626",
"S+	c #806B65",
"T+	c #7B5F5C",
"U+	c #7D615C",
"V+	c #6D5652",
"W+	c #443433",
"X+	c #170F0F",
"Y+	c #3E2E2D",
"Z+	c #585355",
"`+	c #827779",
" @	c #847779",
".@	c #72696B",
"+@	c #6A6465",
"@@	c #6D6465",
"#@	c #5E5758",
"$@	c #0B0A0A",
"%@	c #7A605C",
"&@	c #816660",
"*@	c #725754",
"=@	c #5D4947",
"-@	c #030101",
";@	c #6D6768",
">@	c #726969",
",@	c #82787A",
"'@	c #7D7576",
")@	c #463838",
"!@	c #110E0E",
"~@	c #685E60",
"{@	c #252020",
"]@	c #120F0D",
"^@	c #1A1616",
"/@	c #484343",
"(@	c #2B211E",
"_@	c #6A524F",
":@	c #836A65",
"<@	c #6C5651",
"[@	c #403230",
"}@	c #2F0A09",
"|@	c #6C4C47",
"1@	c #754A45",
"2@	c #615C5C",
"3@	c #5B5656",
"4@	c #746D6E",
"5@	c #6D6667",
"6@	c #464242",
"7@	c #1E1A1A",
"8@	c #151110",
"9@	c #222020",
"0@	c #836762",
"a@	c #5A4442",
"b@	c #4A3A39",
"c@	c #0D0706",
"d@	c #312423",
"e@	c #5B5859",
"f@	c #473939",
"g@	c #554445",
"h@	c #2A2727",
"i@	c #343130",
"j@	c #5F4947",
"k@	c #7B605B",
"l@	c #604F4A",
"m@	c #070505",
"n@	c #423F3F",
"o@	c #090808",
"p@	c #231F1F",
"q@	c #2E1815",
"r@	c #785F5B",
"s@	c #3F2F2D",
"t@	c #63504F",
"u@	c #120E0E",
"v@	c #241B1A",
"w@	c #372927",
"x@	c #100F0F",
"y@	c #836A64",
"z@	c #281A19",
"A@	c #413231",
"B@	c #0E0C0C",
"C@	c #1A1717",
"D@	c #5F4D4B",
"E@	c #120E0D",
"F@	c #67544F",
"G@	c #090000",
"H@	c #030000",
"I@	c #130E0D",
"J@	c #050505",
"K@	c #231817",
"L@	c #23110D",
"M@	c #171212",
"N@	c #6C605F",
"O@	c #625D5D",
"P@	c #551311",
"Q@	c #0D0000",
"R@	c #040303",
"S@	c #3D211C",
"T@	c #4C4646",
"U@	c #494547",
"V@	c #484446",
"W@	c #4C4949",
"X@	c #1E0000",
"Y@	c #5A342E",
"Z@	c #171110",
"`@	c #0B0605",
" #	c #676363",
".#	c #373435",
"+#	c #3B3839",
"@#	c #563B36",
"##	c #342E2E",
"$#	c #7B655F",
"%#	c #5F504E",
"&#	c #595555",
"*#	c #1A0100",
"=#	c #0B0000",
"-#	c #140E0C",
";#	c #1C0D0A",
">#	c #7B635E",
",#	c #160B0A",
"'#	c #524E50",
")#	c #2B120F",
"!#	c #020202",
"~#	c #47312D",
"{#	c #362624",
"]#	c #7E6761",
"^#	c #716D6D",
"/#	c #210C0A",
"(#	c #30211E",
"_#	c #312422",
":#	c #110A08",
"<#	c #271312",
"[#	c #423130",
"}#	c #21120F",
"|#	c #59423E",
"1#	c #331715",
"2#	c #271D1C",
"3#	c #1F1412",
"4#	c #170E0E",
"5#	c #4E3C3A",
"6#	c #4E3834",
"7#	c #421B17",
"8#	c #100C0B",
"9#	c #53403E",
"0#	c #715854",
"a#	c #87706A",
"b#	c #6A5451",
"c#	c #271210",
"d#	c #423533",
"e#	c #231C1B",
"f#	c #0D0201",
"g#	c #574240",
"h#	c #765D58",
"i#	c #7B615C",
"j#	c #836963",
"k#	c #836763",
"l#	c #614B49",
"m#	c #856B65",
"n#	c #876F69",
"o#	c #8A756E",
"p#	c #41302F",
"q#	c #473534",
"r#	c #64261D",
"s#	c #762B1E",
"t#	c #371D18",
"u#	c #1E1716",
"v#	c #090504",
"w#	c #342524",
"x#	c #52221B",
"y#	c #766F70",
"z#	c #604C4C",
"A#	c #7B6966",
"B#	c #311210",
"C#	c #2D0000",
"D#	c #302828",
"E#	c #686565",
"F#	c #7F7979",
"G#	c #3C1512",
"H#	c #310807",
"I#	c #837879",
"J#	c #A18E8F",
"K#	c #B09A9B",
"L#	c #42231E",
"M#	c #2E0000",
"N#	c #290000",
"O#	c #AA9C9C",
"P#	c #909090",
"Q#	c #707070",
"R#	c #656565",
"S#	c #898686",
"T#	c #807979",
"U#	c #3D1C18",
"V#	c #110302",
"W#	c #7F7576",
"X#	c #908485",
"Y#	c #6A5354",
"Z#	c #958F90",
"`#	c #858585",
" $	c #7A7A7A",
".$	c #6D6D6D",
"+$	c #868686",
"@$	c #5A5859",
"#$	c #1C0C0B",
"$$	c #7A7273",
"%$	c #97888A",
"&$	c #150000",
"*$	c #929292",
"=$	c #666565",
"-$	c #0F0201",
";$	c #1A0402",
">$	c #736D6E",
",$	c #0A0000",
"'$	c #868585",
")$	c #787878",
"!$	c #5A5A5A",
"~$	c #545454",
"{$	c #040000",
"]$	c #230200",
"^$	c #2F0F0E",
"/$	c #605C5D",
"($	c #322728",
"_$	c #6B6B6B",
":$	c #5B5B5B",
"<$	c #555555",
"[$	c #444444",
"}$	c #464444",
"|$	c #2B2121",
"1$	c #928F90",
"2$	c #737373",
"3$	c #484848",
"4$	c #2F2E2E",
"5$	c #323030",
"6$	c #1E0C0B",
"7$	c #120000",
"8$	c #110A09",
"9$	c #656061",
"0$	c #575455",
"a$	c #817879",
"b$	c #737070",
"c$	c #747373",
"d$	c #3F3F3F",
"e$	c #352C2C",
"f$	c #585556",
"g$	c #535050",
"h$	c #221B1A",
"i$	c #4B4748",
"j$	c #0E0C0A",
"k$	c #090807",
"l$	c #282424",
"m$	c #454142",
"n$	c #524F4F",
"o$	c #272425",
"p$	c #151111",
"q$	c #302D2D",
"r$	c #343031",
"s$	c #1F1B1B",
"t$	c #544344",
"u$	c #181414",
"v$	c #1C1818",
"w$	c #2E2B2B",
"x$	c #0F0C0C",
"y$	c #3A3636",
"z$	c #5E5B5C",
"A$	c #322F2F",
"B$	c #726B6C",
"C$	c #6A6061",
"D$	c #363333",
"E$	c #867B7C",
"F$	c #301717",
"G$	c #565354",
"H$	c #3F3B3C",
"I$	c #171516",
"J$	c #A59293",
"K$	c #C2A4A7",
"L$	c #3E0000",
"M$	c #444141",
"N$	c #343131",
"O$	c #383535",
"P$	c #A39193",
"Q$	c #595454",
"R$	c #464343",
"S$	c #433F40",
"T$	c #918486",
"U$	c #524F50",
"V$	c #8B8081",
"W$	c #5C5858",
"X$	c #938687",
"Y$	c #756C6E",
"Z$	c #585354",
"`$	c #413D3E",
" %	c #312E2E",
".%	c #706A6B",
"+%	c #544F50",
"@%	c #504B4C",
"#%	c #635D5E",
"$%	c #7E7475",
"%%	c #4D4A4B",
"&%	c #4F4A4A",
"*%	c #4D4949",
"=%	c #6F6869",
"-%	c #575253",
";%	c #676162",
">%	c #887C7E",
",%	c #BFA3A5",
"'%	c #948788",
")%	c #6B5F60",
"!%	c #8C8081",
"~%	c #83797A",
"{%	c #585455",
"]%	c #251919",
"^%	c #181717",
"/%	c #736B6C",
"(%	c #2E2525",
"_%	c #080000",
":%	c #070000",
"<%	c #070707",
"[%	c #2B2525",
"}%	c #433939",
"|%	c #100807",
"1%	c #090101",
"2%	c #373131",
"3%	c #3A3736",
"4%	c #170B0A",
"5%	c #070404",
"6%	c #18110F",
"7%	c #150C0B",
"8%	c #190D0C",
"9%	c #080404",
"0%	c #060404",
"a%	c #040101",
"b%	c #130909",
"c%	c #1C1312",
"d%	c #22120E",
"e%	c #332423",
"f%	c #2B1D1C",
"g%	c #080403",
"h%	c #201A19",
"i%	c #3A2F2E",
"j%	c #150F0E",
"k%	c #070403",
"l%	c #0C0404",
"m%	c #110504",
"n%	c #272120",
"o%	c #2F2322",
"p%	c #140908",
"q%	c #574847",
"r%	c #655553",
"s%	c #160A09",
"t%	c #0E0302",
"u%	c #534342",
"v%	c #231615",
"w%	c #160F0F",
"x%	c #3C2E2D",
"y%	c #574442",
"z%	c #372D2C",
"A%	c #251E1D",
"B%	c #2A1513",
"C%	c #453332",
"D%	c #635150",
"E%	c #050202",
"F%	c #3F3332",
"                                  . + + @                                         ",
"                                . . # $ + % & *                                   ",
"                            = = - ; > , ' ) ! ~ {                                 ",
"                          ] - ^ . / > ( _ : < [ } *                               ",
"                          | - = 1 2 3 4 5 : 6 7 8 9                               ",
"                        . 0 a b c d e f g h i j k l                               ",
"                        + m n o p q r s t u v w x y                               ",
"                        z A B C q D E F G H I | J K                               ",
"                        L . M N O P Q R S T U V x                                 ",
"                          0 W X Y Z `  ...+.@.#.                                  ",
"                          . $.%.&.*.=.-.;.>.,.'.).                                ",
"                        . !.~.{.].^./.(._.:.<.[.}.Z                               ",
"                        |.1.2.3.4.5.6.7.8.9.0.a.b.c.d.e.                          ",
"                        f.g.h.i.j.k.l.m.n.. . o.p.q.r.s.                          ",
"                  t.u.v.w.x.y.W W L z.A.B.x C.z . + D.. E.F.G.H.                  ",
"              I.J.K.L.E M.N.O.& 0 P.Q.R.S.y y y y T.+ = L U.V.W.H.                ",
"              I.X.Y.Z./ `. +.+++@+#+$+%+&+*+=+-+y ;+>+,+>+'+)+H.H.                ",
"              I.!+~+{+]+^+/+~.(+= . _+:+<+[+=+-+}+|+1+y 2+-+3+4+H.                ",
"              & 5+Y.6+7+8+9+| ~+. . 0+a+b+c+y y d+e+f+g+y y y h+i+                ",
"              x j+k+l+m+n+o+E.p+. . q+r+s+t+y y u+v+w+x+y y y+z+h+A+              ",
"              y B+C+D+E+8.F+| G+H+I+J+K+L+M+y y y N+O+P+Q+y R+z+W.'+A+            ",
"                l+S+T+U+V+W+X+Y+G+Z+`+ @.@+@-+y y y @@#@y 3+$@h+W.A+A+            ",
"                | %@&@r *@=@-@n+| ;@>@,@'@+@)@y y !@~@{@y ]@y ^@/@A+(@            ",
"                . _@= :@<@[@}@|@1@2@3@4@5@6@!@y ]@4+7@8@y y y 9@h+^@^@            ",
"                ] ++0@2 a@b@c@d@e@f@g@h@^@y y y y W.'+i@y y ^@y y y h+            ",
"                & j@k@U+2.l@m@n@h+3+3+^@^@o@y ^@y W.h+h+y y p@h+y y h+            ",
"                  q@r@Y.s@t@y y y y y y u@^@h+W.y v@A+w@y y h+x@^@y h+            ",
"                  W (+y@z@A@-@y ^@y y y y y B@^@3+y 9@]@y C@h+^@h@/@w@            ",
"                  o+( D@E@F@-@G@H@y y y y y I@w@y y J@^@y 9@h+K@'+L@w@            ",
"                  M@N@O@y [@P@Q@=+;+y y y 3+w@R@y y ^@!@y y w@'+S@A+w@            ",
"                  F.T@U@V@m.W@)@X@^@y y y y y y y ]@y y y y 3+Y@)+A+              ",
"                k.Z@`@ #.#+#H./@X@]@;+y y y y y y y y y y y w@)+@#A+              ",
"                ##$#%#&#y *#w@e@=#R@]@y y y y y y 3+-#y -@;#'+L@L@                ",
"                >#,#y.'#)#y y y y y y y y y y y y !#3+y ;#L@L@~#'+{#              ",
"              y ]#=#K ^#/#w@y y -#-+'+U.2+y y y y y y ;+(#L@L@_#:#'+              ",
"              y <#x .+W y y y y x E.[#/#W -+y x y y -#}#A+A+|#y y A+              ",
"              G@y ~.I.H@y y y -+x r@K.+ 0 o+1#++2#y -#3+-+y L@y 2+3#              ",
"              I.x /#<#y y y x x 4#4 (+r@0 + W | 5#y y L@y y L@y 6#L@              ",
"              y A 7#y   y   8#x 9#0#- a#b#c#1#/#& d#y 3+y -+-+3+|#                ",
"              =#1#W y   y   e#f#g#h#i#j#k#o.= . & z y L@-+-+y ;#                  ",
"              o+I./#    y   e#C.l#m#n#o#o#^ ^ ^ = 0 3+L@-+;#3+y                   ",
"            y y y y           & 0 & & p#q#| | & | r#s#t#L@L@y                     ",
"          ~.u#y -+1#        y v#~.o+L L w#| w#x#L@y#z#>++@A#=+                    ",
"          ~.~./#A W         y y x k.^#y y f#B#C#D#E#F#u++@G.-+                    ",
"          * J G#H#=+    h+H.I#J#K#G.G.L#M#M#C#N#O#P#Q#R#S#T#e@                    ",
"      /#U#/#1#H#V#      /@/@I#W#y#I#G.X#Y#M#X@X@Z#`# $.$+$R#@$                    ",
"      I.I..+=##$y       h+H.+@$$d+%$G.X#X#'+&$X@S#`#*$`# $Q#=$                    ",
"    =#U#-$;$I.y y       L@e@+@y#+@>$y#y#e@y ,$X@'$)$)$R#!$~$=$                    ",
"  {$y 1#o+]$^$y Q@    y#L@e@L@y#/$+@y#5@($-+X@N#+$+$_$:$<$[$}$                    ",
".+y y I..+I.=#M#-+  I#y#X@H.3+|$e@x+5@+@)@N#X@G.1$P# $2$3$4$5$                    ",
"    x 6$.+7$x#x#3+H.8$=+=+W.W.y 9$e@H.0$($X@&$I#a$b$c$ $d$5$                      ",
"    y .+-+M#X@=++@+@=+e$^@y 9@]@W.e@f$g$h$]@W.W@f$e@e@e@i+h+                      ",
"    y y y -+y 3+W.]@]@h+!@y y ^@h+i$W.W.j$k$l$m$n$e@H.e@h+                        ",
"  y y y y y   '+/@=+e@H.y y y e@e@W.o$y y p$^@y ^@q$e@e@]@                        ",
"  y   y   y   w@z#X@y#H.J@p$]@r$^@y !#^@y s$h+^@^@y y W.                          ",
"  y   y   y   ($t$M#+@h+^@h+8@^@^@y u$^@y h+h@^@h+u$J@h+                          ",
"              I#V.z#W.H.r$^@v$w$h@^@^@x$y p$s$h+^@^@^@^@                          ",
"              I#t$($+@e@h+^@w$W.W.p$J@y y !#p$s$h+v$^@y$                          ",
"            z$+@)@($9$e@h+^@h+h+R+y y y y y y y W.A$s$W.                          ",
"            +@B$t$C$e@W.D$h+W.D$$@!@^@y y y y y o$W.D$h+                          ",
"          E$X#V.F$t$g$G$H$h+W.W.W.h+y ;+|$W.D$C@!#I$W.e@                          ",
"          X#J$x#L@e@+@G$H$h+W.W.r$^@y ]@/@W.H$w$p$y h+H.                          ",
"          K$K#L$I#;@e@M$N$h+^@^@^@^@W.e@($|$H.e@i$m$O$^@                          ",
"          K#P$V.I#+@h+h+h+h+p@^@^@Q$y#+@+@y W.W.R$H.S$W.                          ",
"        G.K#T$+@y#U$W.W.h+h+h+h+  V$y#5@+@y O$W.U$W$W@W.                          ",
"        X$G.Y$Z$W.W.`$N$ %s$^@    y#y#>$+@y O$W.e@e@h+y                           ",
"        y#y#y#W.W.`$N$h+^@^@      e@W.W.+@3+W.W.H.H.W.                            ",
"        y#e@.%D$W.N$h+h+w$^@      +@+%@%#%/@+@/$I#$%+@H.                          ",
"        H.i$%%h+h+h+i+W.i$e@I#+@  $%+@+@&%*%+@+@I#=%B$X#                          ",
"          +@h+-%H$h+W.i$z$;%y#G.>%I#+@H.t$)@y#y#e@+@K#,%G.L#                      ",
"          /@h+H.i$W.W.H.+@+@y#'%G.  +@+@+@=+)%!%H.y#P$K#y#+@=+                    ",
"          y y y y y p$h@+@~%V.t$K#    {%6@H@]%I#I#I#e@^%E.7$x                     ",
"            y y y y J@^@+@X#L$X@)@+@  y y y y y /%I#k.y y y y .+                  ",
"              y y y y !@W.V.L$M#'+G.    y y y y (%y#k.y _%_%y :%                  ",
"                  y y y y <%[%}%z#I#3+    y y y y e@^%y ~.~.|%y y                 ",
"                    y y y y y 1%2%]@w@        y ]@3%F.x G@4%C.L C.                ",
"                    y y y y y y 5%y 6%          R@]@5%x x 7%L 8%C.9%              ",
"                      y y y y y y y y           y 3+0%-+x a%b%C.C.C.f#            ",
"                        y y y y y y y y             c%0%f#H@x J L L E.            ",
"                        y y K y y y y y             d%3+{$f#x | e%L f%            ",
"                          y y y y y y y y             y g%x h%J 9 i%L y x         ",
"                            j%k%y l%m%x y                 y y n%o%9 L :%G@/#      ",
"                            `@`@y m%p%x x                   y y E.q%E.G@:%0       ",
"                              K x f#C.m%f#                    K J L r%y L E.J     ",
"                                  * z@C.s%t%                  `@y |%q%o+u%E.| 9   ",
"                                  L E.v%C.C.                      y 9 C.E.E.q%q%  ",
"                                  & p#E.E.L L                     y w%| | 9 x%J   ",
"                            & & & z 0 | E.L L C.                  & | y%r%q%z%A%  ",
"                            B%C%E.& p#E.E.L L C.                & D%r%L C.C.e#e#x ",
"                        /#& z E.E.| E.E.E.L L C.            & & 9#q%9 9 J J 9 9 K ",
"                  & . | o+o+C.~.x y y f#f#~.E%`@        & E.[#O.E.L C.f#x x y y y ",
"              | . & x x y y y y `@`@`@`@`@`@`@-+        o+E.L O.F%J J J * * f#'+3+",
"                                                    ] 9 f#f#x x `@`@`@`@`@`@w@w@w@"};
