/* XPM */
static char * C4_xpm[] = {
"42 94 610 2",
"  	c None",
". 	c #745D5A",
"+ 	c #584442",
"@ 	c #705E5D",
"# 	c #846A66",
"$ 	c #705A56",
"% 	c #87716A",
"& 	c #89726C",
"* 	c #846B66",
"= 	c #252B2E",
"- 	c #685451",
"; 	c #6F5956",
"> 	c #866E68",
", 	c #856D67",
"' 	c #87706A",
") 	c #866F68",
"! 	c #464242",
"~ 	c #4A3837",
"{ 	c #0D0201",
"] 	c #58332E",
"^ 	c #755753",
"/ 	c #7E5F5A",
"( 	c #65514E",
"_ 	c #020000",
": 	c #7C625C",
"< 	c #6F413C",
"[ 	c #492F2D",
"} 	c #836D68",
"| 	c #160502",
"1 	c #53413F",
"2 	c #473C3B",
"3 	c #331C18",
"4 	c #3C1D1B",
"5 	c #4C2722",
"6 	c #754F4A",
"7 	c #715B58",
"8 	c #715A57",
"9 	c #765F5B",
"0 	c #64504D",
"a 	c #5C4846",
"b 	c #231C1B",
"c 	c #6A5552",
"d 	c #584543",
"e 	c #66524F",
"f 	c #634F4C",
"g 	c #624E4C",
"h 	c #544240",
"i 	c #302120",
"j 	c #2B1210",
"k 	c #442C29",
"l 	c #7F6662",
"m 	c #8E7C74",
"n 	c #7D6561",
"o 	c #6B5552",
"p 	c #0A0202",
"q 	c #000000",
"r 	c #210C0A",
"s 	c #332120",
"t 	c #6F5856",
"u 	c #6E5855",
"v 	c #5C4745",
"w 	c #4C3938",
"x 	c #030202",
"y 	c #180604",
"z 	c #311B19",
"A 	c #67534F",
"B 	c #53403E",
"C 	c #715B57",
"D 	c #8A756E",
"E 	c #624E4B",
"F 	c #5E4A48",
"G 	c #120505",
"H 	c #7A625E",
"I 	c #7E6662",
"J 	c #524A49",
"K 	c #806864",
"L 	c #876F69",
"M 	c #6B5451",
"N 	c #443331",
"O 	c #523F3D",
"P 	c #B3787A",
"Q 	c #B09A9B",
"R 	c #B77870",
"S 	c #6E5955",
"T 	c #79625E",
"U 	c #786360",
"V 	c #544C4A",
"W 	c #856C67",
"X 	c #877069",
"Y 	c #66514E",
"Z 	c #69534F",
"` 	c #3E2E2D",
" .	c #776260",
"..	c #7A5754",
"+.	c #A08F91",
"@.	c #C0A2A4",
"#.	c #CCA7A9",
"$.	c #1E1513",
"%.	c #221615",
"&.	c #856B67",
"*.	c #444040",
"=.	c #705D5A",
"-.	c #836B66",
";.	c #604B48",
">.	c #3D2D2C",
",.	c #332322",
"'.	c #827778",
").	c #6F6869",
"!.	c #9A8A8D",
"~.	c #362120",
"{.	c #7C5956",
"].	c #BA9EA0",
"^.	c #C6A4A6",
"/.	c #8F5D5E",
"(.	c #1E0000",
"_.	c #120000",
":.	c #050000",
"<.	c #77605C",
"[.	c #7B635F",
"}.	c #3C2928",
"|.	c #382321",
"1.	c #39211F",
"2.	c #433939",
"3.	c #625D5F",
"4.	c #817778",
"5.	c #7D7576",
"6.	c #5E595B",
"7.	c #0B0A0A",
"8.	c #8B766F",
"9.	c #665251",
"0.	c #997775",
"a.	c #B59B9D",
"b.	c #BD9596",
"c.	c #330606",
"d.	c #291D1C",
"e.	c #66504D",
"f.	c #755E5B",
"g.	c #312524",
"h.	c #70696A",
"i.	c #7C7475",
"j.	c #5A5557",
"k.	c #1C1B1B",
"l.	c #5F4C49",
"m.	c #513B3B",
"n.	c #513231",
"o.	c #B79D9F",
"p.	c #AC9798",
"q.	c #B59394",
"r.	c #470000",
"s.	c #3E0000",
"t.	c #500A0A",
"u.	c #686464",
"v.	c #2D2B2C",
"w.	c #392F2F",
"x.	c #0C0000",
"y.	c #373535",
"z.	c #746C6D",
"A.	c #7E7576",
"B.	c #70696B",
"C.	c #454243",
"D.	c #181211",
"E.	c #503D3C",
"F.	c #342626",
"G.	c #3D2828",
"H.	c #B29B9D",
"I.	c #AB9798",
"J.	c #B39B9D",
"K.	c #3B0000",
"L.	c #310000",
"M.	c #541313",
"N.	c #897E7F",
"O.	c #4B4849",
"P.	c #372929",
"Q.	c #837879",
"R.	c #787071",
"S.	c #625E5F",
"T.	c #444243",
"U.	c #2B1614",
"V.	c #604C49",
"W.	c #3C2C2B",
"X.	c #21100D",
"Y.	c #2A201F",
"Z.	c #3B2828",
"`.	c #A39192",
" +	c #AF9899",
".+	c #B29B9C",
"++	c #2E0000",
"@+	c #230000",
"#+	c #846062",
"$+	c #7F7677",
"%+	c #736B6C",
"&+	c #826365",
"*+	c #0B0000",
"=+	c #807677",
"-+	c #7E7677",
";+	c #7C7374",
">+	c #7D7475",
",+	c #7A7273",
"'+	c #595557",
")+	c #4E4A4C",
"!+	c #4A2E2C",
"~+	c #644F4D",
"{+	c #342524",
"]+	c #3F2F2E",
"^+	c #54413F",
"/+	c #6C5653",
"(+	c #352929",
"_+	c #3E2A2B",
":+	c #A99596",
"<+	c #A79395",
"[+	c #A59192",
"}+	c #7A6666",
"|+	c #390000",
"1+	c #6A6465",
"2+	c #6F696A",
"3+	c #7E7475",
"4+	c #24120E",
"5+	c #060505",
"6+	c #7F6462",
"7+	c #726B6C",
"8+	c #776F70",
"9+	c #5B5859",
"0+	c #2A1614",
"a+	c #614B49",
"b+	c #5D4947",
"c+	c #4D3A39",
"d+	c #7D6762",
"e+	c #231616",
"f+	c #3C2A2A",
"g+	c #A69293",
"h+	c #9F8E8F",
"i+	c #A79394",
"j+	c #A78B8C",
"k+	c #250000",
"l+	c #0A0000",
"m+	c #6E6768",
"n+	c #887C7F",
"o+	c #867B7C",
"p+	c #484445",
"q+	c #030303",
"r+	c #7D6867",
"s+	c #282626",
"t+	c #645F5F",
"u+	c #5E5A5B",
"v+	c #605C5D",
"w+	c #5B5354",
"x+	c #42312F",
"y+	c #564240",
"z+	c #5A4644",
"A+	c #3F2E2D",
"B+	c #7E6561",
"C+	c #624C4A",
"D+	c #423230",
"E+	c #3D2A2A",
"F+	c #9D8B8C",
"G+	c #A49294",
"H+	c #AE9A9B",
"I+	c #010000",
"J+	c #8A7E80",
"K+	c #5F5A5A",
"L+	c #5A5656",
"M+	c #120F0D",
"N+	c #594341",
"O+	c #040404",
"P+	c #322F2F",
"Q+	c #625D5E",
"R+	c #483E3D",
"S+	c #674B48",
"T+	c #4F3E3D",
"U+	c #514341",
"V+	c #2C2626",
"W+	c #433231",
"X+	c #523E3D",
"Y+	c #473634",
"Z+	c #826A65",
"`+	c #624D4B",
" @	c #68524F",
".@	c #392A2A",
"+@	c #9E8B8C",
"@@	c #A08E91",
"#@	c #A19091",
"$@	c #9A898A",
"%@	c #807879",
"&@	c #867A7C",
"*@	c #212020",
"=@	c #585454",
"-@	c #423E3F",
";@	c #1A1616",
">@	c #333030",
",@	c #4B4342",
"'@	c #594340",
")@	c #191312",
"!@	c #181717",
"~@	c #191818",
"{@	c #453836",
"]@	c #473D3C",
"^@	c #846B67",
"/@	c #806763",
"(@	c #5F4A48",
"_@	c #614C49",
":@	c #382A2A",
"<@	c #736566",
"[@	c #524E4E",
"}@	c #504D4D",
"|@	c #564D4E",
"1@	c #716A6B",
"2@	c #372927",
"3@	c #4F4848",
"4@	c #3D393A",
"5@	c #312E2E",
"6@	c #1F1B1B",
"7@	c #1D1818",
"8@	c #050505",
"9@	c #2E2D2D",
"0@	c #473B3A",
"a@	c #262020",
"b@	c #0B0605",
"c@	c #79605C",
"d@	c #5C4845",
"e@	c #594543",
"f@	c #362828",
"g@	c #4F3B3B",
"h@	c #23110D",
"i@	c #100000",
"j@	c #6B6566",
"k@	c #675F5F",
"l@	c #433B39",
"m@	c #3A2B29",
"n@	c #4F4C4C",
"o@	c #151111",
"p@	c #443634",
"q@	c #363130",
"r@	c #574847",
"s@	c #6F5450",
"t@	c #7D6460",
"u@	c #5B4745",
"v@	c #211918",
"w@	c #171010",
"x@	c #221210",
"y@	c #2B2121",
"z@	c #484343",
"A@	c #766F70",
"B@	c #59423F",
"C@	c #504B4B",
"D@	c #1A1818",
"E@	c #070505",
"F@	c #403230",
"G@	c #3F3535",
"H@	c #7E6661",
"I@	c #5D4340",
"J@	c #0F0C0C",
"K@	c #0C0A09",
"L@	c #4A3734",
"M@	c #110E0E",
"N@	c #2C2927",
"O@	c #362A2B",
"P@	c #544646",
"Q@	c #40302E",
"R@	c #453332",
"S@	c #5C4B49",
"T@	c #32221F",
"U@	c #6E5854",
"V@	c #654E4B",
"W@	c #604846",
"X@	c #070404",
"Y@	c #231B18",
"Z@	c #59423E",
"`@	c #222020",
" #	c #231F1F",
".#	c #201917",
"+#	c #2A2220",
"@#	c #4F3D3B",
"##	c #494141",
"$#	c #6C5854",
"%#	c #674E4B",
"&#	c #664E4B",
"*#	c #3E2D2C",
"=#	c #241B1A",
"-#	c #221B1A",
";#	c #281B1A",
">#	c #574341",
",#	c #302726",
"'#	c #474040",
")#	c #8A7777",
"!#	c #918382",
"~#	c #655958",
"{#	c #594D4D",
"]#	c #0E0C0C",
"^#	c #1C1616",
"/#	c #211A1A",
"(#	c #322728",
"_#	c #060504",
":#	c #312221",
"<#	c #574745",
"[#	c #6B6260",
"}#	c #655A59",
"|#	c #4B4343",
"1#	c #1D1616",
"2#	c #130E0D",
"3#	c #3B3839",
"4#	c #100C0D",
"5#	c #180C0B",
"6#	c #271210",
"7#	c #524748",
"8#	c #6B4E4C",
"9#	c #6B3E3C",
"0#	c #655553",
"a#	c #110605",
"b#	c #281714",
"c#	c #7B6C6B",
"d#	c #6A3E3C",
"e#	c #4B211F",
"f#	c #0C0807",
"g#	c #030000",
"h#	c #171211",
"i#	c #3A2321",
"j#	c #070000",
"k#	c #1E100F",
"l#	c #4C3D3B",
"m#	c #080000",
"n#	c #3C3231",
"o#	c #270100",
"p#	c #331715",
"q#	c #1E1010",
"r#	c #220F0E",
"s#	c #090000",
"t#	c #160E0E",
"u#	c #421B17",
"v#	c #765F5C",
"w#	c #271A19",
"x#	c #121212",
"y#	c #110402",
"z#	c #391310",
"A#	c #826965",
"B#	c #090201",
"C#	c #080201",
"D#	c #634D4B",
"E#	c #685350",
"F#	c #472420",
"G#	c #41201D",
"H#	c #0E0301",
"I#	c #070403",
"J#	c #1A0100",
"K#	c #040000",
"L#	c #8A746D",
"M#	c #050100",
"N#	c #1B0B0A",
"O#	c #361917",
"P#	c #614744",
"Q#	c #272525",
"R#	c #806B69",
"S#	c #070504",
"T#	c #1F0B08",
"U#	c #1C0C0B",
"V#	c #837A7B",
"W#	c #232222",
"X#	c #292626",
"Y#	c #373131",
"Z#	c #968B8B",
"`#	c #4E4343",
" $	c #635F5F",
".$	c #140908",
"+$	c #1D0807",
"@$	c #9C8C8F",
"#$	c #7F7B7B",
"$$	c #575757",
"%$	c #4D4A4C",
"&$	c #817A7B",
"*$	c #211C1C",
"=$	c #716D6D",
"-$	c #706A6A",
";$	c #7B6966",
">$	c #71423C",
",$	c #481D1C",
"'$	c #908485",
")$	c #4E251E",
"!$	c #A19F9F",
"~$	c #7A7A7A",
"{$	c #717070",
"]$	c #919090",
"^$	c #A09F9F",
"/$	c #A89C9D",
"($	c #544344",
"_$	c #6E6869",
":$	c #A07874",
"<$	c #7C5853",
"[$	c #1D0000",
"}$	c #310807",
"|$	c #332623",
"1$	c #969595",
"2$	c #8E8B8B",
"3$	c #959292",
"4$	c #736D6E",
"5$	c #6B4D48",
"6$	c #604C4C",
"7$	c #554F4F",
"8$	c #8A8787",
"9$	c #AEAAAA",
"0$	c #A8A4A4",
"a$	c #ACA8A7",
"b$	c #A5A1A1",
"c$	c #999696",
"d$	c #9A8E8F",
"e$	c #A99597",
"f$	c #0E0000",
"g$	c #A78C8A",
"h$	c #898584",
"i$	c #84807F",
"j$	c #7A7676",
"k$	c #AB9B9C",
"l$	c #715858",
"m$	c #877D7E",
"n$	c #756E6F",
"o$	c #6D6667",
"p$	c #1D0A07",
"q$	c #060000",
"r$	c #9B8C8F",
"s$	c #968F90",
"t$	c #7C7A7A",
"u$	c #736D6D",
"v$	c #83787A",
"w$	c #190000",
"x$	c #8A8686",
"y$	c #6D6A69",
"z$	c #85625E",
"A$	c #585455",
"B$	c #463838",
"C$	c #7F797A",
"D$	c #706C6C",
"E$	c #454242",
"F$	c #676162",
"G$	c #4C4949",
"H$	c #221F1E",
"I$	c #2E2B2B",
"J$	c #2B1512",
"K$	c #360F0D",
"L$	c #5E5B5C",
"M$	c #211E1D",
"N$	c #151110",
"O$	c #1C1818",
"P$	c #281613",
"Q$	c #2D0F0D",
"R$	c #090808",
"S$	c #3B3738",
"T$	c #33130A",
"U$	c #111010",
"V$	c #7A7172",
"W$	c #343031",
"X$	c #1D1919",
"Y$	c #696364",
"Z$	c #1D1A19",
"`$	c #282424",
" %	c #383535",
".%	c #464343",
"+%	c #2A2727",
"@%	c #5C5758",
"#%	c #524F50",
"$%	c #363333",
"%%	c #312D2E",
"&%	c #271C1A",
"*%	c #3D3A3A",
"=%	c #4D4A4B",
"-%	c #3F3B3C",
";%	c #575455",
">%	c #535050",
",%	c #474344",
"'%	c #4B4748",
")%	c #565354",
"!%	c #6C6667",
"~%	c #645F60",
"{%	c #4E4B4B",
"]%	c #A18E8F",
"^%	c #B89EA1",
"/%	c #560000",
"(%	c #615C5C",
"_%	c #8C7F81",
":%	c #504B4C",
"<%	c #5B0000",
"[%	c #42201B",
"}%	c #2B2525",
"|%	c #201312",
"1%	c #171212",
"2%	c #534342",
"3%	c #100B0B",
"4%	c #382827",
"5%	c #41302F",
"6%	c #080404",
"7%	c #2D1E1D",
"8%	c #0A0404",
"9%	c #473534",
"0%	c #3D302F",
"a%	c #725E5C",
"b%	c #060100",
"c%	c #614F4D",
"d%	c #241A19",
"e%	c #76605E",
"f%	c #1E1716",
"g%	c #4E3E3C",
"h%	c #1C1514",
"i%	c #0F0403",
"j%	c #160A09",
"k%	c #1A0E0D",
"l%	c #433938",
"m%	c #201413",
"n%	c #3D2E2D",
"o%	c #42231E",
"p%	c #161111",
"q%	c #231919",
"r%	c #040101",
"s%	c #100807",
"                                                . + @                               ",
"                                              # # # $ + @                           ",
"                                          % # & * * # = - ;                         ",
"                                        > . # , % ' ) ! ; - +                       ",
"                                        * . * # % > % > > = ~ {                     ",
"                                        ] ^ * # % / # + # ( ~ _                     ",
"                                      . : ] < [ . } ~ | 1 ( 2 3                     ",
"                                      4 5 5 6 . . 7 8 9 0 a b                       ",
"                                      . . c ~ d . e f g h i                         ",
"                                      j k . l % m n o + p q                         ",
"                                      r s l . . t u v w x q                         ",
"                                      y z A B C > D E F G                           ",
"                                      e H I J K & L $ M N O                         ",
"                              P Q R ( S T U V W ' X Y Z + `                         ",
"                         ...+.@.#.$.%.# &.*.=.-.L ' ;.8 >.,.'.).!.                  ",
"                    . * ~.{.].^./.(._._.:.<.[.X , }.|.1.2.3.4.5.6.7.                ",
"                    8.W 9.0.a.b.c.(.q q q d.e.f.* r r g.q h.5.i.j.k.                ",
"                    l.m.n.o.p.q.r.s.t.u.v.q q q w.~ x.q y.z.A.B.C.b D.              ",
"                  ( E.F.G.H.I.J.K.L.M.N.O.q q q q q P.Q.i.R.i.S.T.U.V.W.W.          ",
"                  0 X.Y.Z.`. +.+++@+#+$+%+&+*+q $.q =+-+;+>+,+'+)+!+~+{+]+i W.      ",
"                  ^+/+(+_+:+<+[+}+|+++1+2+3+4+5+6+q z.3+7+8+9+T.0+a+b++ c+| x._     ",
"                  d+g e+f+g+h+i+j+k+l+m+n+o+p+q+r+q s+t+u+v+w+x+y+F z++ + A+%.q     ",
"                  B+C+D+E+F+G+p.H+I+q R.J+K+L+M+N+q O+P+Q+R+S+T+V.U+V+W+X+Y+{ q     ",
"                * Z+`+ @.@+@@@#@$@q q %@&@*@=@-@q q ;@q >@,@'@+ )@!@!@~@{@]@7.7.    ",
"                ^@/@(@_@:@<@[@}@|@q *+1@1+2@3@;@q q 4@5@6@7@8@q 7.9@!@!@0@a@D.b@    ",
"                B+c@d@e@f@g@-@-@>@h@i@j@k@l@m@2@q q >@6@n@;@o@q 7.!@!@q p@q@i r@    ",
"                s@t@b+u@v@w@x@y@z@A@i@B@'@'@'@C@q q >@D@;@;@;@>@2@>@>@E@F@G@i @     ",
"                H@c@e.I@J@E@I+q K@>@M+L@4+>@L@M@q q >@>@>@;@;@N@>@;@>@O@P@Q@R@S@q   ",
"                T@U@V@W@X@K@q q q Y@Z@x@q q q q q q `@ #;@;@.#3 -@-@-@+#@#E.+ ~ q   ",
"              ##E $#%#&#*#I+q q q =#=#q M@>@n@-@q q q q K@L@$.q K@M+-#;#B >#+ ,#b@  ",
"              '#)#!#~#{#]#A@^#q q q q q /#(#^#q q q q q q q h@q q _#M+:#+ + <#q _   ",
"              [#t+[#}#|#7.A@1#I+I+q q q q q q q q q q q q q q q q q M+%.+ E.r@q 2#  ",
"            2.3#W.5 q ~ k.1+I+4#q q q q q q q b@D.q q q q q q q q q   _ 5#( _ q q   ",
"          6#7#8#9#r 0#b   ;@q q q q q I+q q q q q q q q q q q q q M+  q a#%.| %.x.  ",
"          b#c#d#e#{ D.      q I+3 x@q q q q q q q q q q q q q q q q     %.f#g#i |   ",
"          h#i#j#q q         k#| W.r l#q x.q q q q q m#W.I+q q q q       n#| q ( %._ ",
"          o#p#q q           q#+ j + j 4 * > r#g#s#| | i i t#q q q       q q m#> x.b@",
"        q u#r | q           m@v#( 4 # r ( % 4 x.x.| | w#i W.q x#!@      q y#| . x.q ",
"        z#x.q q             e@A#8.*+_.~ + # > % :.| B#5#5#~ _ ,#7.        | C#( D.q ",
"      | p#q q               + D#E#% % ( ( . * F#G#| q q %.+ n#D.q         x.q H#I#q ",
"      :.J#q K#              * % % % L#* 6 4 4 G#F#r q q i + 2 D.q         | M#q q q ",
"      q q N#r             ~ W.W.W.W.~ ~ j O#4 P#5#5#q Q#x.W.R#%.S#        T#y#q q q ",
"    q q U#r               5#| r r _ q V#W#X#Y#i Z#`#)+ $ $V#n#.$%.        r o#+$q q ",
"    K#z#u#q               @$i@h@q *+9@#$$$%$&$*$=$Y#q  $-$Q ;$A@>$        _.o#o#q   ",
"  q | ,$p#              A@'$(.(.(.)$!$~${$]$^$/$Q.A@($9+7+_$@$:$<$        *+[$r q   ",
"  *+}$j q                 Q.($3 i@|$1$2$3$]$^$!$@$@$#+'$1+4$'$@$5$>@      q H#g#q   ",
"  :.o#g#q                 Q.6$3 i@7$8$9$0$a$b$c$d$Q #+@$A@A@@$e$Q -@      q q q q   ",
"| *+}$q f$                9+M+q I+g$h$h$h$h$i$j$k$@$l$m$n$o$@$e$Q n@      q q q     ",
"q _.p$| r                 9+q$i@++r$s$t$j$j$j$u$'$'$6$4$j@1+v$@$@$        _ q q     ",
":.[$| *+r                 9+i@w$@$@$@$r$x$y$y$z$;$Q.($1+v+A$1+A@A@        q q q     ",
"*+*+| H#q               -@9+i@B$Q.A@A@Q.'$C$D$1+9+z@>@-@-@-@9+n@z@    q ++| J#q     ",
"q q q q q               -@>@>@E$n@9+9+F$1+A@1+F$G$M+;@H$-@4@>@I$;@  q J$I+K$}$q     ",
"q q q I+                -@M+ #>@-@9+9+9+1+1+1+L$M$N$;@N$>@>@>@O$  q q P$I+}$Q$q     ",
"  q q H#                q q q R$6@>@n@1+1+S$q q q ;@q ;@;@;@  q q     I+q x.H#q     ",
"  q q q T$              q M@;@;@I$U$q 1+V$q q `@>@ #;@;@W$            I+q q q q     ",
"    q                   q ;@X$-@>@U$q n@Y$I+q Z$>@>@>@>@              (.q m#_ q     ",
"                      o@q M@-@`$;@I$ %.%n@q q z@`$-@-@>@              I+h@x.q       ",
"                      q q q >@>@+% #-@@%1+q ^##%-@-@$%6@            L@q q _ q       ",
"                      q q q `@-@>@;@>@1+7+q >@-@%%;@q             L@&%I+q x.        ",
"                      q q q q o@*%-@-@-@n@q =%>@6@;@>@                q I+          ",
"                      o@q -@q q o@-@9+A@9+>@;@-@-@-@                  $.            ",
"                        q -@;@M@R$-@-@Q.($>@ #-%%%;@                                ",
"                        q -@#%;%>%-@ %n@q >@>@>@6@                                  ",
"                        q  %-@>%;%1+1+v+q >@-@>@                                    ",
"                        q >@1+1+7+A@7+! q >@I$O$                                    ",
"                      n@q  %,%9+1+L$'%q q ;@;@                                      ",
"                      -@y@-@)%!%Q.1+9+M@U$$%-@                                      ",
"                      ~%n@A@'$Q.1+L$9+;@>@-@{%q                                     ",
"                      n@A$1+1+%+V$e$@$B$($n@9+q                                     ",
"                      9+1+v+Q.]%^%@$@$++/%(%n@q q                                   ",
"                        B$A@Q.Q.@$_%Q.i@++1+:%q I+                                  ",
"                        q 1+1+-@($<%(.L@[%1+1+>@I+i@                                ",
"                        q ^#A@I+3 3 s.s.i _ }%9@q q                                 ",
"                        q q 9+q | 2 x.[$i |%1%v.q q                                 ",
"                          K@q g#x.i 2%3%i i { q b@I+                                ",
"                            q s#x.w#i i 4%5#I+q I#b@q                               ",
"                            q m#x.4%i 5%%.5#6%q q q q                               ",
"                              q I+i 7%W.{+8%5#1%q q q                               ",
"                                q %.W.W.W._ q i q q q                               ",
"                                q 5#9%W.9%x.q x.q q q q                             ",
"                                  ,#0%~ i b i | q q _ _                             ",
"                                    ,#~ ~ ~ r j { _ _ _                             ",
"                                    q ~ a ( W.( ,#I+_ _                             ",
"                                      0#:.R#a%+ W.{ b%_                             ",
"                                      n#W.c%+ + ~ d%{ { {                           ",
"                                      %.W.+ e%. r@b { { f%                          ",
"                                      n#~ ( R#g%n#h%i%j%%.k%                        ",
"                                      @ 0#r@l%n#W.n#5#k%%.%.                        ",
"                                      %.%.%.n#n#i r@5#m%i i                         ",
"                                    n#2 r@0#0#r@n%,#5#%.%.| o%                      ",
"                                5#%.n#p%_ _ _ q%r@2 _ r%b@b@Y@                      ",
"                                  i n#n#,#s%_ _ r@2   b@b@b@                        ",
"                                  2@2@b@b@b@b@b@b@b@                                ",
"                                          b@b@b@                                    "};
