/* XPM */
static char * C5_xpm[] = {
"40 93 543 2",
"  	c None",
". 	c #8B766F",
"+ 	c #8E7C74",
"@ 	c #846A66",
"# 	c #79625E",
"$ 	c #846B66",
"% 	c #866E68",
"& 	c #866F6D",
"* 	c #846C66",
"= 	c #856C67",
"- 	c #302726",
"; 	c #87716A",
"> 	c #754F4A",
", 	c #645653",
"' 	c #252B2E",
") 	c #3C2C2B",
"! 	c #745D5A",
"~ 	c #75524D",
"{ 	c #7E5F5A",
"] 	c #80635E",
"^ 	c #705E5A",
"/ 	c #473B3B",
"( 	c #302120",
"_ 	c #816863",
": 	c #39383A",
"< 	c #4F4443",
"[ 	c #3C3231",
"} 	c #3C1D1B",
"| 	c #584442",
"1 	c #210C0A",
"2 	c #4A3837",
"3 	c #6A5452",
"4 	c #020000",
"5 	c #2B1210",
"6 	c #705A56",
"7 	c #65514E",
"8 	c #463433",
"9 	c #0F0301",
"0 	c #0A0000",
"a 	c #7F6662",
"b 	c #010000",
"c 	c #624D4A",
"d 	c #4A3836",
"e 	c #160502",
"f 	c #7A6361",
"g 	c #78625D",
"h 	c #272C2F",
"i 	c #4A3533",
"j 	c #0D0201",
"k 	c #887972",
"l 	c #624D4B",
"m 	c #5D4946",
"n 	c #5D4845",
"o 	c #5F4A48",
"p 	c #75625F",
"q 	c #584C4D",
"r 	c #756A69",
"s 	c #5E4947",
"t 	c #180C0B",
"u 	c #000000",
"v 	c #4E4A4C",
"w 	c #463B39",
"x 	c #5F4C49",
"y 	c #594543",
"z 	c #685A5A",
"A 	c #866E6C",
"B 	c #776869",
"C 	c #807070",
"D 	c #8D7571",
"E 	c #372726",
"F 	c #5C4845",
"G 	c #5F4B48",
"H 	c #5A4543",
"I 	c #615251",
"J 	c #8C706E",
"K 	c #AE9899",
"L 	c #BBA1A3",
"M 	c #B2999B",
"N 	c #928384",
"O 	c #655553",
"P 	c #523F3D",
"Q 	c #030303",
"R 	c #2E0000",
"S 	c #0B0000",
"T 	c #6C5653",
"U 	c #604C4A",
"V 	c #46302E",
"W 	c #5E4A47",
"X 	c #6A6565",
"Y 	c #A39192",
"Z 	c #BBA0A2",
"` 	c #B49C9E",
" .	c #4B3835",
"..	c #261F1E",
"+.	c #231C1B",
"@.	c #181211",
"#.	c #715E5C",
"$.	c #8E6F6F",
"%.	c #543A38",
"&.	c #1E0000",
"*.	c #58413F",
"=.	c #050000",
"-.	c #6C6365",
";.	c #B09A9B",
">.	c #C7A6A8",
",.	c #8C7F80",
"'.	c #57403D",
").	c #7C6460",
"!.	c #7D6662",
"~.	c #695A58",
"{.	c #7F6362",
"].	c #7A6B6B",
"^.	c #463838",
"/.	c #23110D",
"(.	c #28100E",
"_.	c #0C0000",
":.	c #080808",
"<.	c #585354",
"[.	c #85797A",
"}.	c #B89EA0",
"|.	c #998587",
"1.	c #583F3B",
"2.	c #675350",
"3.	c #836A65",
"4.	c #806762",
"5.	c #6D5652",
"6.	c #513E3D",
"7.	c #181717",
"8.	c #5A4644",
"9.	c #9C8C8F",
"0.	c #322728",
"a.	c #200000",
"b.	c #471112",
"c.	c #958687",
"d.	c #9B8B8D",
"e.	c #897B7C",
"f.	c #AB9293",
"g.	c #7C6B6B",
"h.	c #603D38",
"i.	c #7E6562",
"j.	c #755F5B",
"k.	c #54413F",
"l.	c #614D4A",
"m.	c #373131",
"n.	c #401D1C",
"o.	c #908485",
"p.	c #544344",
"q.	c #481313",
"r.	c #847475",
"s.	c #B49C9D",
"t.	c #A08E8F",
"u.	c #9F8788",
"v.	c #675856",
"w.	c #6E534F",
"x.	c #604B48",
"y.	c #584441",
"z.	c #5A4542",
"A.	c #543F3C",
"B.	c #65504F",
"C.	c #210303",
"D.	c #5B5859",
"E.	c #604C4C",
"F.	c #353031",
"G.	c #887C7C",
"H.	c #857A7B",
"I.	c #9B8B8C",
"J.	c #AA9698",
"K.	c #837070",
"L.	c #514241",
"M.	c #806763",
"N.	c #3A393A",
"O.	c #614C49",
"P.	c #65504C",
"Q.	c #65504D",
"R.	c #8D8182",
"S.	c #837879",
"T.	c #4C0000",
"U.	c #766F70",
"V.	c #6A6465",
"W.	c #4E4243",
"X.	c #7C7374",
"Y.	c #84797A",
"Z.	c #A49091",
"`.	c #6E5F5E",
" +	c #463938",
".+	c #725B58",
"++	c #5D4C4B",
"@+	c #5F4A47",
"#+	c #695350",
"$+	c #938587",
"%+	c #52221B",
"&+	c #1E1513",
"*+	c #786868",
"=+	c #756E6F",
"-+	c #676162",
";+	c #908283",
">+	c #827677",
",+	c #655656",
"'+	c #443635",
")+	c #433E3E",
"!+	c #292626",
"~+	c #4C3F3D",
"{+	c #624E4B",
"]+	c #705956",
"^+	c #1E1E1E",
"/+	c #232222",
"(+	c #100F0F",
"_+	c #484343",
":+	c #423E3F",
"<+	c #686263",
"[+	c #676061",
"}+	c #5F5859",
"|+	c #787172",
"1+	c #716B6C",
"2+	c #6E6363",
"3+	c #483937",
"4+	c #3B3839",
"5+	c #363435",
"6+	c #444243",
"7+	c #2E2D2D",
"8+	c #333031",
"9+	c #212020",
"0+	c #0B0A0A",
"a+	c #4F4C4C",
"b+	c #120F0D",
"c+	c #4A3734",
"d+	c #696465",
"e+	c #6E696A",
"f+	c #696464",
"g+	c #5D5758",
"h+	c #645F60",
"i+	c #625C5D",
"j+	c #3B393A",
"k+	c #6E5855",
"l+	c #453C3D",
"m+	c #594F4D",
"n+	c #211A1A",
"o+	c #676263",
"p+	c #605A5B",
"q+	c #565152",
"r+	c #454142",
"s+	c #514C4D",
"t+	c #504B4C",
"u+	c #464344",
"v+	c #403736",
"w+	c #735E5A",
"x+	c #7B655F",
"y+	c #5F4E4B",
"z+	c #3A3736",
"A+	c #5C595A",
"B+	c #4E494A",
"C+	c #453938",
"D+	c #333030",
"E+	c #383535",
"F+	c #524F50",
"G+	c #2A2727",
"H+	c #473E3E",
"I+	c #725C57",
"J+	c #735E59",
"K+	c #76615F",
"L+	c #59423E",
"M+	c #56403C",
"N+	c #161313",
"O+	c #524E4F",
"P+	c #464343",
"Q+	c #403B3B",
"R+	c #1A1616",
"S+	c #353030",
"T+	c #464040",
"U+	c #735B58",
"V+	c #68524F",
"W+	c #4D3936",
"X+	c #3B3231",
"Y+	c #231B18",
"Z+	c #563F3C",
"`+	c #544B4B",
" @	c #7B5E5B",
".@	c #5B4745",
"+@	c #66514E",
"@@	c #67524F",
"#@	c #221615",
"$@	c #5C4745",
"%@	c #372927",
"&@	c #454242",
"*@	c #2B2121",
"=@	c #0B0808",
"-@	c #583934",
";@	c #5E4B4B",
">@	c #645451",
",@	c #806B69",
"'@	c #705E5D",
")@	c #635F5F",
"!@	c #584644",
"~@	c #584543",
"{@	c #221C1B",
"]@	c #2E2525",
"^@	c #140000",
"/@	c #42201B",
"(@	c #0C0A09",
"_@	c #796362",
":@	c #716565",
"<@	c #0B0605",
"[@	c #534342",
"}@	c #574442",
"|@	c #1F1C1C",
"1@	c #100000",
"2@	c #331C18",
"3@	c #625B5B",
"4@	c #796664",
"5@	c #453634",
"6@	c #0E0302",
"7@	c #170B09",
"8@	c #512D27",
"9@	c #524D4D",
"0@	c #7C6564",
"a@	c #0D0605",
"b@	c #331715",
"c@	c #877373",
"d@	c #51403E",
"e@	c #040000",
"f@	c #140E0C",
"g@	c #180000",
"h@	c #030000",
"i@	c #1C1B1B",
"j@	c #705C5A",
"k@	c #170603",
"l@	c #837A7B",
"m@	c #67514F",
"n@	c #4C3B39",
"o@	c #090000",
"p@	c #161110",
"q@	c #0B0201",
"r@	c #382827",
"s@	c #200505",
"t@	c #020101",
"u@	c #030202",
"v@	c #0E0301",
"w@	c #53403E",
"x@	c #190705",
"y@	c #271716",
"z@	c #270100",
"A@	c #1C0C0B",
"B@	c #3D2826",
"C@	c #271312",
"D@	c #554140",
"E@	c #503D3B",
"F@	c #5C4846",
"G@	c #080000",
"H@	c #100301",
"I@	c #1A0908",
"J@	c #4E3634",
"K@	c #130D0C",
"L@	c #42302E",
"M@	c #564240",
"N@	c #050100",
"O@	c #574341",
"P@	c #594542",
"Q@	c #2D1412",
"R@	c #2B1B1A",
"S@	c #1B0B08",
"T@	c #1E0D0B",
"U@	c #41302F",
"V@	c #4C3A38",
"W@	c #382421",
"X@	c #201A19",
"Y@	c #4E2D29",
"Z@	c #5C4541",
"`@	c #6E413C",
" #	c #7D6561",
".#	c #715C5A",
"+#	c #5D4947",
"@#	c #6A4F4B",
"##	c #4C2722",
"$#	c #58332E",
"%#	c #6D3C38",
"&#	c #4B3938",
"*#	c #7D6460",
"=#	c #2D0605",
"-#	c #421B17",
";#	c #4E2B28",
">#	c #48372E",
",#	c #6B5D5B",
"'#	c #705C59",
")#	c #866F69",
"!#	c #250D09",
"~#	c #211C1C",
"{#	c #5A5253",
"]#	c #E7B5B8",
"^#	c #846062",
"/#	c #C7A7AA",
"(#	c #AB9598",
"_#	c #B99DA0",
":#	c #A59295",
"<#	c #916F6D",
"[#	c #574847",
"}#	c #514E4E",
"|#	c #310807",
"1#	c #33130A",
"2#	c #BFA3A5",
"3#	c #92696A",
"4#	c #DCB0B3",
"5#	c #918283",
"6#	c #BEA1A4",
"7#	c #9C7F7B",
"8#	c #71423C",
"9#	c #854D47",
"0#	c #83797A",
"a#	c #41231E",
"b#	c #7F7979",
"c#	c #8A8586",
"d#	c #958F90",
"e#	c #817879",
"f#	c #8C8081",
"g#	c #AD6D65",
"h#	c #9A594F",
"i#	c #7B6966",
"j#	c #7F7576",
"k#	c #1D0000",
"l#	c #413939",
"m#	c #8B8483",
"n#	c #919090",
"o#	c #948F90",
"p#	c #3E0000",
"q#	c #B59D9E",
"r#	c #8C7F81",
"s#	c #A39193",
"t#	c #7F4A42",
"u#	c #8A7370",
"v#	c #877D7E",
"w#	c #4D4646",
"x#	c #948D8C",
"y#	c #979191",
"z#	c #A09F9F",
"A#	c #AA9C9C",
"B#	c #A39092",
"C#	c #B29B9C",
"D#	c #C2A4A7",
"E#	c #D2ACAF",
"F#	c #5F3732",
"G#	c #64261D",
"H#	c #7A6563",
"I#	c #7F7978",
"J#	c #888180",
"K#	c #E0B2B5",
"L#	c #898686",
"M#	c #7D7878",
"N#	c #7C7675",
"O#	c #878686",
"P#	c #9A8E8F",
"Q#	c #C5A6A9",
"R#	c #CAA8AB",
"S#	c #7F797A",
"T#	c #736D6D",
"U#	c #7C7876",
"V#	c #9C7A7B",
"W#	c #9B8C8D",
"X#	c #715858",
"Y#	c #4D4A4B",
"Z#	c #737070",
"`#	c #7B7A7A",
" $	c #6E6C6C",
".$	c #4B4748",
"+$	c #585253",
"@$	c #110402",
"#$	c #747070",
"$$	c #171516",
"%$	c #3D3A3A",
"&$	c #312E2E",
"*$	c #585556",
"=$	c #413838",
"-$	c #1C1616",
";$	c #111010",
">$	c #2E2B2B",
",$	c #151111",
"'$	c #363333",
")$	c #3F3B3C",
"!$	c #1F1B1B",
"~$	c #120000",
"{$	c #615C5C",
"]$	c #222020",
"^$	c #1A1717",
"/$	c #020202",
"($	c #231F1F",
"_$	c #343031",
":$	c #4A4747",
"<$	c #646061",
"[$	c #413D3E",
"}$	c #343131",
"|$	c #191614",
"1$	c #050505",
"2$	c #3A3636",
"3$	c #221E1F",
"4$	c #181414",
"5$	c #302C2C",
"6$	c #0E0D0D",
"7$	c #726B6C",
"8$	c #110E0E",
"9$	c #6E6869",
"0$	c #2B2929",
"a$	c #736D6E",
"b$	c #3D393A",
"c$	c #585455",
"d$	c #413D3D",
"e$	c #8B7E81",
"f$	c #190E0C",
"g$	c #595557",
"h$	c #161212",
"i$	c #756D6E",
"j$	c #190000",
"k$	c #2D2B2C",
"l$	c #330000",
"m$	c #3A2D2B",
"n$	c #160807",
"o$	c #1C0000",
"p$	c #271A19",
"q$	c #433939",
"r$	c #180301",
"s$	c #100807",
"t$	c #231210",
"u$	c #272120",
"v$	c #281A19",
"w$	c #1D100F",
"x$	c #4E4847",
"y$	c #110504",
"z$	c #241615",
"A$	c #090101",
"B$	c #473C3B",
"C$	c #2D1D1B",
"D$	c #342422",
"E$	c #190C0A",
"F$	c #332322",
"G$	c #4F3C3B",
"H$	c #3D2D2C",
"I$	c #473534",
"J$	c #4E403F",
"K$	c #493736",
"L$	c #342B2A",
"M$	c #050404",
"N$	c #2A1D1C",
"O$	c #4D3B39",
"P$	c #2B1A18",
"Q$	c #120503",
"R$	c #140E0D",
"                                                  . +                           ",
"                                              @ # $ % % &                       ",
"                                            * % = $ @ @ @ -                     ",
"                                            % ; % > @ , ' )                     ",
"                                          ! ~ { . ] ^ ' / (                     ",
"                                          _ ! ; & $ : < $ [                     ",
"                                        } | 1 2 @ @ @ 3 | 4                     ",
"                                        } 5 $ . @ 6 7 | 8 4 4                   ",
"                                        2 2 ! ! ! 7 7 2 9 4 0                   ",
"                                        ! % $ a ! ( ( 4 4 b                     ",
"                                      @ 1 c ! 2 d ( 5 5 e                       ",
"                                    f g h ! i ) ( ( ( ( j                       ",
"                                k l m n o p q r @ s 1 t u                       ",
"                            v w x y | o z A B C D @ ' ( u                       ",
"                          u E m F G H I J K L M N O ! P Q                       ",
"                      R S 7 T U 7 V W X Y Z `  ...+.@.#.,                       ",
"                    $.%.&.2 *.1 1 5 =.-.;.>.,.'.+.).@ !.~.                      ",
"                  {.y ].^./.1 (._.:.<.[.}.|.1.2.@ 3.4.5.6.7.                    ",
"                  8.%.9.0.b u a.b.c.d.e.f.g.h.i.@ j.k.H y l.m.                  ",
"                  8.n.o.p.b b q.r.c.s.t.u.v.w.@ $ x.y.z.A.| ! )                 ",
"                ;.B.C.D.E.F.G.H.I.K ;.J.K.L.M.@ N.O.P.Q.2 e ( (                 ",
"                R.S.T.U.V.W.S.X.Y.;.Z.;.`. +.+! ++@+#+| 2 u u 4 u               ",
"                S.$+%+S.V.&+*+=+-+;+>+R.,+'+)+!+~+{+]+) t u ^+/+(+              ",
"                U.9._+9.:+u Q <+[+}+|+1+2+3+7./+4+/+5+6+7+6+6+8+9+0+            ",
"                  a+b+U.c+u u d+e+f+g+h+i+8+6+/+/+/+j+9+)+k+( 4+u               ",
"                  :+l+V.m+n+u o+p+q+r+s+t+u+a+7+7+0+7.7.v+w+x+) ^+u             ",
"                  u V.y+s V./.z+A+B+a+a+A+C+D+E+:+F+G+7.H+I+J+K+t +.            ",
"                  ( D+L+M+c+:+u N+O+P+D+:+Q+:+:+R+:+S+T+P U+V+| ) [             ",
"                  ( - L+W+X+D+u u D.R+R+Y+Z+:+:+D+:+`+ @.@+@@@2 ) [             ",
"                #@$@#+%@u D+&@u u &+u u c+%@u *@u b+=@-@;@>@| 2 ,@'@            ",
"                )@!@~@{@u 0.]@u u u b ^@&.%+/@&.u u u (@_@:@e ( ) 2 <@          ",
"              /+v [@}@|@u b u u u u 1@b u 2@/@&.u u u u 3@4@_.#@#@| u           ",
"              6+u 5@y 6@b+u u 7@/.2@b u 1@b 8@2@b u u u 9@0@a@e 2 b@<@          ",
"            )@c@u d@.@u u b e@1@1@&+f@b u u u ^@g@h@u u i@j@k@e 2 e ) u         ",
"            l@} ( m@n@u   b o@h@u u u u u p@_.u 0 g@b u u f@q@e r@( ) 4         ",
"            1 s@u t@u@    #@u u u u v@e w@| x@( ( _.u 4 u u 2@e y@( u u         ",
"            z@u A@e@u     B@l C@u u e e D@| E@F@7 G@e@[ <@    H@e ) u u e       ",
"            I@u e u u     y | J@K@u e e L@M@k.8.@ e@G@( u       #@) u u e N@    ",
"            u u u u u   | | O@P@m Q@R@S@T@U@V@y 7 W@@ 4 u       [ X@u u v@e     ",
"            u u u u     | | | Y@Z@`@( ( u 4 P $@ #T 2 ( u       u u @.<@u u     ",
"            u S u     .#+#@#} ##$#%#U@( u 4 &#*#% @ | ) u         u u u u u u   ",
"            =#-#u     ) Q@} ;#u >#) u E.,#@.O '#@ )#2 e _.        u u u u u u   ",
"            -#!#  u ~#u {#;.]#T.T.^#/#(#S._#:#<#[##@) ( ( 4+V.}#    |#5 b u u   ",
"            5 1#  1@V.D.;.2#9.1@R 3#4#/#S.5#6#9.7#8#9#9#8#9.0#V.    |#z@v@u u   ",
"          |#1@R   a#b#c#d#e#S.1@U.>+;.;.f#S.;.;.2#g#h#h#i#U.j#V.    k#z@u u u   ",
"          } R R u l#m#n#n#o#;.p#/#;./#q#o.r#s#;.;.h#h#t#u#v#U.:+      o@u _.u   ",
"          1 p#1#%+w#m#x#y#z#A#p#/#/#/#/#B#9.s#C#D#]#E#F#;.9.S.:+      u u u u   ",
"          u G#&.T.H#I#J#m#z#A#p#/#]#/#]#/#D#;./#/#K#]#T./#o.U.a+        u u u   ",
"          p#%+b E.L#M#N#N#O#P#R q#D#/#/#Q#C#;.;.}.R#K#8#9.S.U.a+        u u u   ",
"          T.L+/.9.S#O#T#N#U#S.p#V#;.}./#q#W#9.s#;./#/#X#f#S.Y#D+        =.e e   ",
"          %+b 1#V.a+Z#`# $d+U.X#1@U.o.o.D.:+.$U.o.9.o.E.S.+$D+D+        =.@$4 u ",
"            u (@D.D.D.#$d+V.^.n+u a+:+:+u $$:+F+V.V.V._+%$R+R+&$        z@u u u ",
"            u u *$a+D.U.V.=$-$u ;$D+>$,$u u '$)$:+:+:+G+R+R+D+!$        ~$u u u ",
"            %+u a+{$D.-$u p.u ]$D+D+^$/$u u R+D+D+D+($R+R+_$'$          1 u u u ",
"            /$,$R+U.v#u u b+_+D.:$D+u   u u D+D+D+D+E+r+a+:+:+          e v@u u ",
"            R+R+R+<$U.u u b+a+D.F+:+    u (@)$'$'$)$:+a+.$[$}$          e q@u u ",
"            R+R+_$:+a+u b D..$:+)$}$    u D+:+:+:+:+:+:+:+'$|$          @$u u   ",
"            R+R+V.S.D.u _+V.D.a+D+0+    1$,$_$:+:+:+2$3$R+*@u           u u u   ",
"            >$R+V.U.V.u a+D.D.:+R+      4$u !$G+G+($R+R+G+(@u           e@u u   ",
"            :+:+a+:+*@D.V.:+E+G+R+      R+R+D+($($5$:+:+:+u             4 u     ",
"            6$:+7$V.u a+D+:+:+R+        D+)$:+:+:+:+[$D+D+u             u       ",
"            R+D+V.V.b a+E+:+:+R+        D+'$:+:+:+)$D+:+8$u                     ",
"            :+:+:+R+u :+:+:+E+          R+R+($D+D+D+D+]$u                       ",
"            V.U.9$^.u D.D.8$u           R+>$}$)$:+:+:+u u                       ",
"            V.d+U.n+u a+:+u u             D+)$:+E+D+D+u u                       ",
"          R+V.V.0$u ]$R+,$u               R+R+R+D+R+R+u ,$                      ",
"          a$V.7$u -$:+R+u                 R+R+R+!$G+b$1@b                       ",
"          V.c$:+/.V.D+R+R+                R+R+_$:+d$D+u u                       ",
"        V.e$/#^#p.b S R+R+                  D.D.D.f$1@1@1@                      ",
"        g$6+h$u _.^@b _+                    D.i$V.1@j$b u 1@                    ",
"        v k$u u u u b /.                  D+D.9.a+l$p#/.1@1@                    ",
"        u u m$n$u u &.R                   :+U.;.U.p#o$S b u                     ",
"        k#k#7 ( ( p$j u                   /.S./#o.q$u j u =.                    ",
"        k#r$7 ) r@( s$u                   /.o./#9.<@t #@s$u u                   ",
"      #@u 2 | t$) u$u u                     o.a+/@r@v$t t u                     ",
"      w$( x$_._.b u u                       R+/.#@( ( t y$                      ",
"      ( ( '@u e u u u                       u u o@z$p$t @.                      ",
"      t ) [#2 ) - u                           u b o@_.A$u                       ",
"      #@u B$( ( u u                           _.v@u u u u                       ",
"      - 1 '@1 #@<@                              e =.@$4 u                       ",
"      C$1 2 e t u                               _.1 D$E$u                       ",
"      1 *.2 B$4                                   ( 5 ) u                       ",
"      1 O | - u                                   F$) ) u                       ",
"    G$| ! 2 B$j                                   ) H$I$4                       ",
"  ( .@7 J$[ +.u                                   H$K$2 t                       ",
"  2 l.F@[ L$@.M$                                  2 2 2 N$                      ",
"  [#U@2 ) ) - @.                                  | | | 2                       ",
"  B$2 2 ,@'@A$u                                   | | O$2                       ",
"  O ) ) ) _.u u                                 1 &#| 2 2                       ",
"  ( [#7 B$t u u 4 (                           1 P$2 2 U@) t                     ",
"j #@O '@O [#u u 4 u 4                         4 <@Q$t +.R$<@                    ",
"u <@@.[ B$+.&+&+&+&+/.2@                          <@<@<@<@b                     ",
"  %@%@%@%@%@Y+%@                                                                "};
