/* XPM */
static char * C7_xpm[] = {
"41 93 623 2",
"  	c None",
". 	c #79615E",
"+ 	c #846A66",
"@ 	c #745D5A",
"# 	c #302726",
"$ 	c #4A3837",
"% 	c #705A56",
"& 	c #464141",
"* 	c #655955",
"= 	c #342A29",
"- 	c #5A4846",
"; 	c #6C5855",
"> 	c #765F5B",
", 	c #866F69",
"' 	c #604D4B",
") 	c #252B2E",
"! 	c #8B766F",
"~ 	c #866E68",
"{ 	c #846B66",
"] 	c #4E3F3D",
"^ 	c #624E4B",
"/ 	c #79635D",
"( 	c #7B6560",
"_ 	c #826964",
": 	c #836965",
"< 	c #77524D",
"[ 	c #87716A",
"} 	c #705E5D",
"| 	c #473C3B",
"1 	c #614D4C",
"2 	c #6F5855",
"3 	c #755E59",
"4 	c #79605C",
"5 	c #826661",
"6 	c #7B5A55",
"7 	c #7E615C",
"8 	c #68463E",
"9 	c #3C2C2B",
"0 	c #6B4D48",
"a 	c #2A1C1B",
"b 	c #77605C",
"c 	c #78635D",
"d 	c #78605C",
"e 	c #68524E",
"f 	c #775D58",
"g 	c #846C66",
"h 	c #7F625D",
"i 	c #685450",
"j 	c #5F3D38",
"k 	c #3F201E",
"l 	c #584442",
"m 	c #000000",
"n 	c #020000",
"o 	c #52403E",
"p 	c #443332",
"q 	c #27100E",
"r 	c #5C403C",
"s 	c #59413E",
"t 	c #826560",
"u 	c #7E605B",
"v 	c #826862",
"w 	c #836761",
"x 	c #78534E",
"y 	c #754F4A",
"z 	c #181211",
"A 	c #3C3231",
"B 	c #332322",
"C 	c #271413",
"D 	c #6E5854",
"E 	c #331C1B",
"F 	c #7F615C",
"G 	c #7F635F",
"H 	c #816560",
"I 	c #553935",
"J 	c #3C1D1B",
"K 	c #65514E",
"L 	c #271B1A",
"M 	c #2F2120",
"N 	c #201514",
"O 	c #231716",
"P 	c #2F2221",
"Q 	c #60413C",
"R 	c #7B5E59",
"S 	c #7C5E5A",
"T 	c #795651",
"U 	c #40201C",
"V 	c #221615",
"W 	c #483938",
"X 	c #2E2624",
"Y 	c #413533",
"Z 	c #4C3F3B",
"` 	c #574644",
" .	c #534340",
"..	c #564441",
"+.	c #372221",
"@.	c #5C4643",
"#.	c #2B1210",
"$.	c #67534F",
"%.	c #392D2B",
"&.	c #392E2D",
"*.	c #3B2D2C",
"=.	c #2D1A18",
"-.	c #3A2A2A",
";.	c #594845",
">.	c #493937",
",.	c #433331",
"'.	c #564340",
").	c #200C0A",
"!.	c #3F3331",
"~.	c #5D4B47",
"{.	c #2B2120",
"].	c #352827",
"^.	c #342625",
"/.	c #403130",
"(.	c #443534",
"_.	c #463635",
":.	c #3B2A29",
"<.	c #644E4A",
"[.	c #0C0000",
"}.	c #55413F",
"|.	c #433938",
"1.	c #695751",
"2.	c #695350",
"3.	c #79615C",
"4.	c #816864",
"5.	c #6D5854",
"6.	c #423433",
"7.	c #604D4A",
"8.	c #554A4A",
"9.	c #3B393A",
"0.	c #504A49",
"a.	c #856B6A",
"b.	c #6F5856",
"c.	c #614E4B",
"d.	c #5B4845",
"e.	c #66524E",
"f.	c #786462",
"g.	c #7B6761",
"h.	c #816762",
"i.	c #806762",
"j.	c #846A65",
"k.	c #4E4343",
"l.	c #4E4A4C",
"m.	c #656162",
"n.	c #595557",
"o.	c #5B5657",
"p.	c #775E5B",
"q.	c #6A5552",
"r.	c #634F4B",
"s.	c #725A58",
"t.	c #4F4C4C",
"u.	c #9C8C8F",
"v.	c #444243",
"w.	c #302120",
"x.	c #67514E",
"y.	c #180C0B",
"z.	c #746262",
"A.	c #51494A",
"B.	c #2C292A",
"C.	c #1F0B09",
"D.	c #6B5756",
"E.	c #6B514D",
"F.	c #826865",
"G.	c #88706A",
"H.	c #3E1F1D",
"I.	c #423E3F",
"J.	c #715858",
"K.	c #42201B",
"L.	c #2D2423",
"M.	c #5C575A",
"N.	c #716164",
"O.	c #423B3D",
"P.	c #614D4A",
"Q.	c #2D1F1E",
"R.	c #705E59",
"S.	c #745D57",
"T.	c #8C7871",
"U.	c #826763",
"V.	c #100D0C",
"W.	c #270100",
"X.	c #512D27",
"Y.	c #331C18",
"Z.	c #5F3732",
"`.	c #AC645A",
" +	c #0C0A09",
".+	c #010000",
"++	c #100000",
"@+	c #070101",
"#+	c #7F7274",
"$+	c #87797B",
"%+	c #4E4647",
"&+	c #5E4947",
"*+	c #6F5956",
"=+	c #6B5552",
"-+	c #050000",
";+	c #6B5753",
">+	c #735C57",
",+	c #806460",
"'+	c #836863",
")+	c #5F4744",
"!+	c #3D3A3A",
"~+	c #1E1513",
"{+	c #170B09",
"]+	c #010101",
"^+	c #6F6769",
"/+	c #7E7576",
"(+	c #1C0C0C",
"_+	c #8A7D7F",
":+	c #8A7B7E",
"<+	c #504949",
"[+	c #846B65",
"}+	c #1E0B09",
"|+	c #715A56",
"1+	c #623D38",
"2+	c #77534E",
"3+	c #836864",
"4+	c #614B47",
"5+	c #3D393A",
"6+	c #333030",
"7+	c #241C1C",
"8+	c #595254",
"9+	c #7D7374",
"0+	c #807677",
"a+	c #110E0F",
"b+	c #817477",
"c+	c #8B7E80",
"d+	c #5C4F4F",
"e+	c #080201",
"f+	c #140502",
"g+	c #5A4946",
"h+	c #50322D",
"i+	c #664C48",
"j+	c #4A3734",
"k+	c #454242",
"l+	c #2F2C2C",
"m+	c #696364",
"n+	c #696163",
"o+	c #71686A",
"p+	c #474343",
"q+	c #0C0B0B",
"r+	c #837679",
"s+	c #8D7E81",
"t+	c #5A4C4C",
"u+	c #67524F",
"v+	c #160502",
"w+	c #261B1A",
"x+	c #4F3E3B",
"y+	c #5A4643",
"z+	c #453431",
"A+	c #785D59",
"B+	c #282626",
"C+	c #080707",
"D+	c #746C6D",
"E+	c #817778",
"F+	c #201B1C",
"G+	c #1F1919",
"H+	c #7F7475",
"I+	c #8F8083",
"J+	c #575153",
"K+	c #4E4847",
"L+	c #4F3C3B",
"M+	c #523F3D",
"N+	c #200B0A",
"O+	c #4F3F3C",
"P+	c #584542",
"Q+	c #67524E",
"R+	c #735955",
"S+	c #0B0A0A",
"T+	c #5E5758",
"U+	c #6D6465",
"V+	c #6A6465",
"W+	c #72696B",
"X+	c #847779",
"Y+	c #827779",
"Z+	c #585355",
"`+	c #3E2E2D",
" @	c #170F0F",
".@	c #443433",
"+@	c #6D5652",
"@@	c #7D615C",
"#@	c #7B5F5C",
"$@	c #806B65",
"%@	c #2B211E",
"&@	c #484343",
"*@	c #1A1616",
"=@	c #120F0D",
"-@	c #252020",
";@	c #685E60",
">@	c #110E0E",
",@	c #463838",
"'@	c #7D7576",
")@	c #82787A",
"!@	c #726969",
"~@	c #6D6768",
"{@	c #030101",
"]@	c #5D4947",
"^@	c #725754",
"/@	c #816660",
"(@	c #7A605C",
"_@	c #222020",
":@	c #151110",
"<@	c #1E1A1A",
"[@	c #464242",
"}@	c #6D6667",
"|@	c #746D6E",
"1@	c #5B5656",
"2@	c #615C5C",
"3@	c #754A45",
"4@	c #6C4C47",
"5@	c #2F0A09",
"6@	c #403230",
"7@	c #6C5651",
"8@	c #836A65",
"9@	c #6A524F",
"0@	c #343130",
"a@	c #2A2727",
"b@	c #554445",
"c@	c #473939",
"d@	c #5B5859",
"e@	c #312423",
"f@	c #0D0706",
"g@	c #4A3A39",
"h@	c #5A4442",
"i@	c #836762",
"j@	c #231F1F",
"k@	c #090808",
"l@	c #423F3F",
"m@	c #070505",
"n@	c #604F4A",
"o@	c #7B605B",
"p@	c #5F4947",
"q@	c #100F0F",
"r@	c #372927",
"s@	c #241B1A",
"t@	c #120E0E",
"u@	c #63504F",
"v@	c #3F2F2D",
"w@	c #785F5B",
"x@	c #2E1815",
"y@	c #1A1717",
"z@	c #0E0C0C",
"A@	c #413231",
"B@	c #281A19",
"C@	c #836A64",
"D@	c #23110D",
"E@	c #231817",
"F@	c #050505",
"G@	c #130E0D",
"H@	c #030000",
"I@	c #090000",
"J@	c #67544F",
"K@	c #120E0D",
"L@	c #5F4D4B",
"M@	c #3D211C",
"N@	c #040303",
"O@	c #0D0000",
"P@	c #551311",
"Q@	c #625D5D",
"R@	c #6C605F",
"S@	c #171212",
"T@	c #5A342E",
"U@	c #1E0000",
"V@	c #4C4949",
"W@	c #484446",
"X@	c #494547",
"Y@	c #4C4646",
"Z@	c #563B36",
"`@	c #3B3839",
" #	c #373435",
".#	c #676363",
"+#	c #0B0605",
"@#	c #171110",
"##	c #1C0D0A",
"$#	c #140E0C",
"%#	c #0B0000",
"&#	c #1A0100",
"*#	c #595555",
"=#	c #5F504E",
"-#	c #7B655F",
";#	c #342E2E",
">#	c #362624",
",#	c #47312D",
"'#	c #020202",
")#	c #2B120F",
"!#	c #524E50",
"~#	c #160B0A",
"{#	c #7B635E",
"]#	c #110A08",
"^#	c #312422",
"/#	c #30211E",
"(#	c #210C0A",
"_#	c #716D6D",
":#	c #7E6761",
"<#	c #59423E",
"[#	c #21120F",
"}#	c #423130",
"|#	c #271312",
"1#	c #1F1412",
"2#	c #271D1C",
"3#	c #331715",
"4#	c #4E3834",
"5#	c #4E3C3A",
"6#	c #170E0E",
"7#	c #423533",
"8#	c #271210",
"9#	c #6A5451",
"0#	c #87706A",
"a#	c #715854",
"b#	c #53403E",
"c#	c #100C0B",
"d#	c #421B17",
"e#	c #836763",
"f#	c #836963",
"g#	c #7B615C",
"h#	c #765D58",
"i#	c #574240",
"j#	c #0D0201",
"k#	c #231C1B",
"l#	c #8A756E",
"m#	c #876F69",
"n#	c #856B65",
"o#	c #614B49",
"p#	c #371D18",
"q#	c #762B1E",
"r#	c #64261D",
"s#	c #473534",
"t#	c #41302F",
"u#	c #7B6966",
"v#	c #604C4C",
"w#	c #766F70",
"x#	c #52221B",
"y#	c #342524",
"z#	c #090504",
"A#	c #1E1716",
"B#	c #7F7979",
"C#	c #686565",
"D#	c #302828",
"E#	c #2D0000",
"F#	c #311210",
"G#	c #807979",
"H#	c #898686",
"I#	c #656565",
"J#	c #707070",
"K#	c #909090",
"L#	c #AA9C9C",
"M#	c #290000",
"N#	c #2E0000",
"O#	c #42231E",
"P#	c #B09A9B",
"Q#	c #A18E8F",
"R#	c #837879",
"S#	c #310807",
"T#	c #3C1512",
"U#	c #5A5859",
"V#	c #868686",
"W#	c #6D6D6D",
"X#	c #7A7A7A",
"Y#	c #858585",
"Z#	c #958F90",
"`#	c #6A5354",
" $	c #908485",
".$	c #7F7576",
"+$	c #110302",
"@$	c #3D1C18",
"#$	c #666565",
"$$	c #929292",
"%$	c #150000",
"&$	c #97888A",
"*$	c #7A7273",
"=$	c #1C0C0B",
"-$	c #545454",
";$	c #5A5A5A",
">$	c #787878",
",$	c #868585",
"'$	c #0A0000",
")$	c #736D6E",
"!$	c #1A0402",
"~$	c #0F0201",
"{$	c #464444",
"]$	c #444444",
"^$	c #555555",
"/$	c #5B5B5B",
"($	c #6B6B6B",
"_$	c #322728",
":$	c #605C5D",
"<$	c #2F0F0E",
"[$	c #230200",
"}$	c #040000",
"|$	c #323030",
"1$	c #2F2E2E",
"2$	c #484848",
"3$	c #737373",
"4$	c #928F90",
"5$	c #2B2121",
"6$	c #3F3F3F",
"7$	c #747373",
"8$	c #737070",
"9$	c #817879",
"0$	c #575455",
"a$	c #656061",
"b$	c #110A09",
"c$	c #120000",
"d$	c #1E0C0B",
"e$	c #585556",
"f$	c #221B1A",
"g$	c #535050",
"h$	c #352C2C",
"i$	c #524F4F",
"j$	c #454142",
"k$	c #282424",
"l$	c #090807",
"m$	c #0E0C0A",
"n$	c #4B4748",
"o$	c #302D2D",
"p$	c #151111",
"q$	c #272425",
"r$	c #1F1B1B",
"s$	c #343031",
"t$	c #181414",
"u$	c #544344",
"v$	c #0F0C0C",
"w$	c #2E2B2B",
"x$	c #1C1818",
"y$	c #3A3636",
"z$	c #322F2F",
"A$	c #5E5B5C",
"B$	c #363333",
"C$	c #6A6061",
"D$	c #726B6C",
"E$	c #171516",
"F$	c #3F3B3C",
"G$	c #565354",
"H$	c #301717",
"I$	c #867B7C",
"J$	c #A59293",
"K$	c #383535",
"L$	c #343131",
"M$	c #444141",
"N$	c #3E0000",
"O$	c #C2A4A7",
"P$	c #433F40",
"Q$	c #464343",
"R$	c #595454",
"S$	c #A39193",
"T$	c #5C5858",
"U$	c #524F50",
"V$	c #8B8081",
"W$	c #918486",
"X$	c #312E2E",
"Y$	c #413D3E",
"Z$	c #585354",
"`$	c #756C6E",
" %	c #938687",
".%	c #7E7475",
"+%	c #635D5E",
"@%	c #504B4C",
"#%	c #544F50",
"$%	c #706A6B",
"%%	c #6F6869",
"&%	c #4D4949",
"*%	c #4F4A4A",
"=%	c #4D4A4B",
"-%	c #BFA3A5",
";%	c #887C7E",
">%	c #676162",
",%	c #575253",
"'%	c #8C8081",
")%	c #6B5F60",
"!%	c #948788",
"~%	c #181717",
"{%	c #251919",
"]%	c #585455",
"^%	c #83797A",
"/%	c #736B6C",
"(%	c #070000",
"_%	c #080000",
":%	c #2E2525",
"<%	c #100807",
"[%	c #433939",
"}%	c #2B2525",
"|%	c #070707",
"1%	c #170B0A",
"2%	c #3A3736",
"3%	c #373131",
"4%	c #090101",
"5%	c #080404",
"6%	c #190D0C",
"7%	c #150C0B",
"8%	c #070404",
"9%	c #18110F",
"0%	c #130909",
"a%	c #040101",
"b%	c #060404",
"c%	c #1C1312",
"d%	c #2B1D1C",
"e%	c #332423",
"f%	c #22120E",
"g%	c #3A2F2E",
"h%	c #201A19",
"i%	c #080403",
"j%	c #2F2322",
"k%	c #272120",
"l%	c #110504",
"m%	c #0C0404",
"n%	c #070403",
"o%	c #150F0E",
"p%	c #574847",
"q%	c #140908",
"r%	c #655553",
"s%	c #534342",
"t%	c #0E0302",
"u%	c #160A09",
"v%	c #231615",
"w%	c #3C2E2D",
"x%	c #160F0F",
"y%	c #251E1D",
"z%	c #372D2C",
"A%	c #574442",
"B%	c #635150",
"C%	c #453332",
"D%	c #2A1513",
"E%	c #050202",
"F%	c #3F3332",
"                                        . + + @                                   ",
"                                  # $ % + & * @ @                                 ",
"                                = - ; > , ' ) ! ~ { {                             ",
"                              # ] ^ / ( _ : ) < @ [ ~ }                           ",
"                              | 1 2 3 ( 4 5 6 7 8 { ~ 9                           ",
"                              0 a b c d e f g h i j k l @                         ",
"                              m n o p q r s t u v w x y +                         ",
"                              z A 9 B C D E F G u H I J K                         ",
"                                n L M N O P Q R S T U @ V                         ",
"                                  W X Y Z `  ...+.@.#.l                           ",
"                                $.%.&.*.=.-.;.>.,.'.).@                           ",
"                              ..!.~.{.].^./.(._.:.<.[.}.@                         ",
"                          |.1.2.3.4.5.6.7.8.9.0.a.b.c.d.e.                        ",
"                          f.g.h.i.j.@ @ k.l.m.n.o.p.q.r.s.                        ",
"                  t.u.v.w.@ x.+ @ K y.n z.A.B.V #.#.C.D.E.F.G.H.                  ",
"                t.I.J.K.V { + L.m m m m M.N.O.P.l $ Q.R.S.F T.U.V.W.              ",
"                t.t.X.Y.Z.`.Z. +m .+++@+#+$+%+&+*+=+-+;+>+< ,+'+)+W.              ",
"                t.!+~+.+{+m ]+^+/+.+++(+_+:+<+@ { [+[.}+|+1+2+3+4+W.              ",
"                5+6+m m m 7+8+9+0+m m a+b+c+d+@ @ 3+9 e+f+g+h+'+i+$               ",
"              j+6+k+l+m m m+n+o+p+m m q+r+s+t+@ @ u+w.v+w+x+y+z+A+n               ",
"            j+Y.I.k+B+m C+D+E+F+m m m G+H+I+J+K+L+M+9 N+7.O+P+Q+R+m               ",
"            j+j+I.6+S+~+m T+U+m m m .+V+W+X+Y+Z+M+`+ @.@+@@@#@$@y+                ",
"            %@j+&@*@m =@m -@;@>@m m ,@V+'@)@!@~@9 w+{@]@^@t /@(@9                 ",
"            *@*@6+_@m m m :@<@!+=@m >@[@}@|@1@2@3@4@5@6@7@8@{ 9@@                 ",
"            6+m m m *@m m 0@Y.I.m m m m *@a@b@c@d@e@f@g@h@7 i@=+}                 ",
"            6+m m 6+j@m m 6+6+I.m *@m k@*@*@~+~+6+l@m@n@c.@@o@p@$                 ",
"            6+m *@q@6+m m r@j+s@m I.6+*@t@m m m m m m u@v@'+w@x@                  ",
"            r@&@a@*@6+y@m =@_@m ~+*@z@m m m m m *@m {@A@B@C@[+#.                  ",
"            r@D@Y.E@6+_@m *@F@m m r@G@m m m m m H@I@{@J@K@L@: v+                  ",
"            r@j+M@Y.r@m m >@*@m m N@r@~+m m m  +++O@P@6@m Q@R@S@                  ",
"              j+X.T@~+m m m m =@m m m m m m m *@U@,@V@l.W@X@Y@v.                  ",
"              j+Z@X.r@m m m m m m m m m m m  +=@U@&@t.`@ #.#+#@#n.                ",
"                D@D@Y.##{@m $#~+m m m m m m =@N@%#d@r@&#m *#=#-#;#                ",
"              >#Y.,#D@D@##m ~+'#m m m m m m m m m m m m )#!#C.~#{#                ",
"              Y.]#^#D@D@/# +m m m m m m {+K.Y..+$#m m r@(#_#z %#:#m               ",
"              j+m m <#j+j+[#$#m m n m .+#.(#}#w.n m m m m #.-+n |#m               ",
"              1#{+m D@m .+~+$#m 2#=+3#v+l + U.w@n .+m m m H@W.[.m I@              ",
"              D@4#m D@m m D@m m 5#9 #.+ l w@[+5 6#n n m m m |#(#n W.              ",
"                <#~+.+.+m ~+m 7#$ (#3#8#9#0#~ a#b#n c#  m   m d#J m               ",
"                  ##m .+.+D@m K $ @ { j.e#f#g#h#i#j#k#  m   m #.3#%#              ",
"                  m ~+##.+D@~+l { [ [ [ l#l#m#n#o#y.k#  m     (#W.v+              ",
"                    m D@D@p#q#r#9 $ 9 9 s#t#$ $ l $           m m m m             ",
"                    ++u#V+Z.v#w#D@x#y#9 y#V V v+[.z#m         3#.+m A#[.          ",
"                    .+u.V+p+B#C#D#E#F#j#m m _#n.n m m         #.J (#[.[.          ",
"                    d@G#H#I#J#K#L#M#E#N#N#O#u.u.P#Q#R#t.6+    ++S#T#A #           ",
"                    U#I#V#W#X#Y#Z#U@U@N#`# $u.R#w#.$R#&@&@      +$S#3#(#@$(#      ",
"                    #$J#X#Y#$$Y#H#U@%$Y. $ $u.&$0+*$V+t.6+      m =$%#-+W.W.      ",
"                    #$-$;$I#>$>$,$U@'$m d@w#w#)$V+w#V+d@D@      m m W.!$~$@$%#    ",
"                    {$]$^$/$($V#V#M#U@.+_$}@w#V+:$w#D@d@D@w#    O@m <$[$v+3#m }$  ",
"                    |$1$2$3$X#K#4$u.U@M#,@V+}@m+d@5$~+t.U@w#R#  .+N#%#W.-+W.m m -+",
"                      |$6$X#7$8$9$R#%$U@_$0$t.d@a$m I.I.++++b$t.~+x#x#c$-+d$n     ",
"                      6+5+d@d@d@e$V@I.=@f$g$e$d@I.=@_@m *@h$++V+V+++U@N#.+-+m     ",
"                        6+d@t.d@i$j$k$l$m$I.I.n$6+*@m m >@6+=@=@I.~+m .+m m m     ",
"                        =@d@d@o$*@m *@p$m m q$I.d@d@m m m t.d@++&@Y.  m m m m m   ",
"                          I.m m *@*@6+r$m *@'#m *@s$=@p$F@t.w#U@v#r@  m   m   m   ",
"                          6+F@t$6+*@a@6+m *@t$m *@*@:@6+*@6+V+N#u$_$  m   m   m   ",
"                          *@*@*@*@6+r$p$m v$*@*@a@w$x$*@s$t.I.v#J.R#              ",
"                          y$*@x$6+r$p$'#m m F@p$I.I.w$*@6+d@V+_$u$R#              ",
"                          I.r$z$I.m m m m m m m B+6+6+*@6+d@a$_$,@V+A$            ",
"                          6+B$I.q$m m m m m *@>@S+B$I.6+B$I.d@C$u$D$V+            ",
"                          d@I.E$'#y@B$I.5$ +m 6+I.I.I.6+F$G$g$u$H$J. $I$          ",
"                          t.6+m p$w$F$I.&@=@m *@s$I.I.6+F$G$V+d@D@x#J$ $          ",
"                          *@K$j$n$d@t.5$_$d@I.*@*@*@*@6+L$M$d@~@R#N$P#O$          ",
"                          I.P$t.Q$I.I.m V+V+w#R$*@*@j@6+6+6+6+V+R#J.S$P#          ",
"                          I.V@T$U$I.K$m V+}@w#V$  6+6+6+6+I.I.U$w#V+W$P#u.        ",
"                          m 6+d@d@I.K$m V+)$w#w#    *@r$X$L$Y$I.I.Z$`$u. %        ",
"                            I.t.t.I.I.~+V+I.I.d@      *@*@6+L$Y$I.I.w#w#w#        ",
"                          t.V+.%R#:$V+&@+%@%#%V+      *@w$6+6+L$I.B$$%d@w#        ",
"                           $D$%%R#V+V+&%*%V+V+.%  V+R#d@n$I.5+6+6+6+=%n$t.        ",
"                      O#u.-%P#V+d@w#w#,@u$t.V+R#;%u.w#>%A$n$I.6+F$,%6+V+          ",
"                    ++V+w#P#S$w#t.'%)%++V+V+V+  u.!%w#V+V+t.I.I.n$t.6+&@          ",
"                    n c$w.~%d@R#R#R#{%H@[@]%    P#u$J.^%V+a@p$m m m m m           ",
"                  -+m m m m n.R#/%m m m m m   V+,@U@N$ $V+*@F@m m m m             ",
"                  (%m _%_%m n.w#:%m m m m     u.Y.N#N$J.I.>@m m m m               ",
"                m m <%[.[.m ~%d@m m m m     ~+R#v#[%}%|%m m m m                   ",
"                y.V y.1%I@n v.2%=@m         r@=@3%4%m m m m m                     ",
"              5%y.6%V 7%n n 8%=@N@          9%m 8%m m m m m m                     ",
"            j#y.y.y.0%a%n .+b%~+m           m m m m m m m m                       ",
"            w.V V A n H@j#b%c%            m m m m m m m m                         ",
"            d%V e%9 n j#}$~+f%            m m m m m z m m                         ",
"        n m V g%| A h%n i%m             m m m m m m m m                           ",
"      (#I@(%V | j%k%m m                 m n l%m%m n%o%                            ",
"      l (%I@w.p%w.m m                   n n q%l%m +#+#                            ",
"    A w.V m r%V A z                     j#l%y.j#n z                               ",
"  | 9 w.s%v+p%<%m +#                  t%u%y.B@#                                   ",
"  p%p%w.w.y.| m                       y.y.v%w.V                                   ",
"  A w%| 9 9 x%m                     V V w.w.t#$                                   ",
"  y%z%p%r%A%9 $                   y.V V w.9 l K $ $ $                             ",
"n k#k#y.y.V r%B%$                 y.V V w.w.t#$ w.C%D%                            ",
"z | | A A | | p%b#$ $             y.V V w.w.w.9 w.w.K $ (#                        ",
"m m m n n j#y.V w.Q.}#w.$         +#E%[.j#j#m m n [.y.v+v+9 @ $                   ",
"~+Y.j## # A A A F%Q.V w.v+        .++#+#+#+#+#+#+#m m m m n n $ @ 9               ",
"r@r@r@+#+#+#+#+#+#n n j#j#| }                                                     "};
