/* XPM */
static char * C8_xpm[] = {
"44 94 528 2",
"  	c None",
". 	c #705E5D",
"+ 	c #715A58",
"@ 	c #64504D",
"# 	c #5F504E",
"$ 	c #4F3F3D",
"% 	c #64504C",
"& 	c #6A5451",
"* 	c #6C5C57",
"= 	c #252B2E",
"- 	c #846B66",
"; 	c #231C1B",
"> 	c #453735",
", 	c #3B2E2C",
"' 	c #513F3D",
") 	c #5E4A48",
"! 	c #464040",
"~ 	c #272C2F",
"{ 	c #5A4946",
"] 	c #856F6B",
"^ 	c #181211",
"/ 	c #382D2C",
"( 	c #3B2F2D",
"_ 	c #4B3937",
": 	c #4D3B3A",
"< 	c #543F3E",
"[ 	c #493D3B",
"} 	c #544642",
"| 	c #8E7671",
"1 	c #89736C",
"2 	c #89706A",
"3 	c #1A1413",
"4 	c #3C312F",
"5 	c #3B2D2C",
"6 	c #443433",
"7 	c #4C3B39",
"8 	c #503D3C",
"9 	c #544440",
"0 	c #4A3B37",
"a 	c #77635C",
"b 	c #77635E",
"c 	c #947F7A",
"d 	c #5E4C48",
"e 	c #251D1C",
"f 	c #322927",
"g 	c #302120",
"h 	c #453634",
"i 	c #4B3B38",
"j 	c #5E4C47",
"k 	c #554541",
"l 	c #594742",
"m 	c #443331",
"n 	c #5B4C4A",
"o 	c #483836",
"p 	c #453432",
"q 	c #090504",
"r 	c #040303",
"s 	c #3D1C18",
"t 	c #40302E",
"u 	c #4E3C3B",
"v 	c #715C58",
"w 	c #4B3D3A",
"x 	c #1D1816",
"y 	c #967C78",
"z 	c #8A6863",
"A 	c #866E68",
"B 	c #846A66",
"C 	c #745D5A",
"D 	c #000000",
"E 	c #020000",
"F 	c #331715",
"G 	c #4F3D3B",
"H 	c #5A4240",
"I 	c #350B0A",
"J 	c #3C1D1B",
"K 	c #87716A",
"L 	c #1E0000",
"M 	c #1E1513",
"N 	c #070605",
"O 	c #3D2D2B",
"P 	c #3C2624",
"Q 	c #604C49",
"R 	c #4B312D",
"S 	c #2E0000",
"T 	c #C1B295",
"U 	c #9A8762",
"V 	c #B7953E",
"W 	c #382A28",
"X 	c #0F0908",
"Y 	c #413130",
"Z 	c #2D1918",
"` 	c #301C1B",
" .	c #240F0D",
"..	c #584442",
"+.	c #5C4B49",
"@.	c #554241",
"#.	c #261E1D",
"$.	c #53403E",
"%.	c #473432",
"&.	c #2D1816",
"*.	c #3C2A28",
"=.	c #34231F",
"-.	c #3C2C2B",
";.	c #BEB091",
">.	c #9C8B65",
",.	c #564241",
"'.	c #624D4B",
").	c #423231",
"!.	c #523E3D",
"~.	c #513F3E",
"{.	c #130E0E",
"].	c #241717",
"^.	c #453332",
"/.	c #4A3837",
"(.	c #5D4C49",
"_.	c #65514E",
":.	c #5F4B49",
"<.	c #584543",
"[.	c #392322",
"}.	c #4F3D3C",
"|.	c #665351",
"1.	c #594644",
"2.	c #5F4B48",
"3.	c #6F5A55",
"4.	c #4A3938",
"5.	c #7E5F5A",
"6.	c #866F68",
"7.	c #786462",
"8.	c #523F3D",
"9.	c #3F3332",
"0.	c #4E4A4C",
"a.	c #4D4748",
"b.	c #4E4648",
"c.	c #715F5E",
"d.	c #866F6B",
"e.	c #876F6A",
"f.	c #77605C",
"g.	c #0C0000",
"h.	c #8A756E",
"i.	c #3C3231",
"j.	c #080606",
"k.	c #2E2D2D",
"l.	c #353030",
"m.	c #180C0B",
"n.	c #2B1715",
"o.	c #80635E",
"p.	c #826762",
"q.	c #866F69",
"r.	c #0B0000",
"s.	c #270100",
"t.	c #160502",
"u.	c #322728",
"v.	c #181717",
"w.	c #171010",
"x.	c #0C0404",
"y.	c #705956",
"z.	c #644F4C",
"A.	c #76605B",
"B.	c #856D67",
"C.	c #8C7872",
"D.	c #826660",
"E.	c #120000",
"F.	c #0D0201",
"G.	c #453938",
"H.	c #1E1C1B",
"I.	c #383636",
"J.	c #181818",
"K.	c #221616",
"L.	c #342726",
"M.	c #050000",
"N.	c #010101",
"O.	c #68534F",
"P.	c #866D68",
"Q.	c #866F6A",
"R.	c #877069",
"S.	c #1A0C0B",
"T.	c #070000",
"U.	c #120F0D",
"V.	c #221917",
"W.	c #474444",
"X.	c #403E3E",
"Y.	c #383434",
"Z.	c #221615",
"`.	c #160E0E",
" +	c #563936",
".+	c #856B67",
"++	c #7B5E59",
"@+	c #735E59",
"#+	c #352927",
"$+	c #1C1515",
"%+	c #433F40",
"&+	c #373636",
"*+	c #484545",
"=+	c #3F3C3C",
"-+	c #1F1918",
";+	c #322827",
">+	c #3A2E2C",
",+	c #1D1110",
"'+	c #4D3A39",
")+	c #6E5955",
"!+	c #514441",
"~+	c #2B1210",
"{+	c #635F5F",
"]+	c #383535",
"^+	c #413D3D",
"/+	c #353232",
"(+	c #201E1D",
"_+	c #2F2423",
":+	c #372C2A",
"<+	c #010000",
"[+	c #3C211E",
"}+	c #362625",
"|+	c #392A29",
"1+	c #2B1714",
"2+	c #42201B",
"3+	c #96564D",
"4+	c #333030",
"5+	c #2A2828",
"6+	c #3A3737",
"7+	c #464343",
"8+	c #242020",
"9+	c #211A18",
"0+	c #352A28",
"a+	c #403331",
"b+	c #0B0605",
"c+	c #180B0A",
"d+	c #6E5956",
"e+	c #826A64",
"f+	c #755F5B",
"g+	c #614D4A",
"h+	c #090201",
"i+	c #512D27",
"j+	c #381D19",
"k+	c #423E3F",
"l+	c #121212",
"m+	c #454242",
"n+	c #343131",
"o+	c #191818",
"p+	c #1F1818",
"q+	c #332927",
"r+	c #564440",
"s+	c #88726B",
"t+	c #87706B",
"u+	c #110402",
"v+	c #0F0000",
"w+	c #837879",
"x+	c #544344",
"y+	c #282626",
"z+	c #121010",
"A+	c #363333",
"B+	c #494646",
"C+	c #363434",
"D+	c #373536",
"E+	c #2F2221",
"F+	c #2D2422",
"G+	c #64504B",
"H+	c #856C67",
"I+	c #88706A",
"J+	c #87706A",
"K+	c #080000",
"L+	c #0B0202",
"M+	c #0A0000",
"N+	c #9C8C8F",
"O+	c #715858",
"P+	c #1E1A1A",
"Q+	c #3E3B3B",
"R+	c #373535",
"S+	c #2E2422",
"T+	c #362B29",
"U+	c #473C3B",
"V+	c #78625C",
"W+	c #7F6762",
"X+	c #5C4846",
"Y+	c #473937",
"Z+	c #0B0807",
"`+	c #B09A9B",
" @	c #5F3732",
".@	c #181513",
"+@	c #292727",
"@@	c #3B3737",
"#@	c #3C2F2D",
"$@	c #382C2A",
"%@	c #6A5551",
"&@	c #210C0A",
"*@	c #201818",
"=@	c #3F2B28",
"-@	c #3C3A3B",
";@	c #908485",
">@	c #3E0000",
",@	c #14110F",
"'@	c #100F0F",
")@	c #423F3F",
"!@	c #3C3636",
"~@	c #423B3B",
"{@	c #473C3A",
"]@	c #372927",
"^@	c #3E2E2D",
"/@	c #5B4341",
"(@	c #221918",
"_@	c #312523",
":@	c #1E0E0C",
"<@	c #5B5859",
"[@	c #110E0E",
"}@	c #373434",
"|@	c #2F2D2D",
"1@	c #060504",
"2@	c #231B18",
"3@	c #41201C",
"4@	c #100000",
"5@	c #1D0000",
"6@	c #6A6465",
"7@	c #292828",
"8@	c #130F0F",
"9@	c #343031",
"0@	c #1F1B1B",
"a@	c #2E2B2B",
"b@	c #1A1616",
"c@	c #1D1C1C",
"d@	c #2F2C2C",
"e@	c #331C18",
"f@	c #3D2421",
"g@	c #4C2722",
"h@	c #4D4746",
"i@	c #310000",
"j@	c #484343",
"k@	c #181615",
"l@	c #2E2C2C",
"m@	c #201F1F",
"n@	c #433231",
"o@	c #82706B",
"p@	c #1C1B1B",
"q@	c #575355",
"r@	c #282222",
"s@	c #220000",
"t@	c #290000",
"u@	c #060000",
"v@	c #1B1717",
"w@	c #0E0E0E",
"x@	c #090808",
"y@	c #0F0D0D",
"z@	c #35302F",
"A@	c #7F6B66",
"B@	c #7F6964",
"C@	c #826D6A",
"D@	c #3A3535",
"E@	c #3E3B3C",
"F@	c #424041",
"G@	c #1E1B1C",
"H@	c #2C2B2B",
"I@	c #150000",
"J@	c #180000",
"K@	c #2B2121",
"L@	c #171414",
"M@	c #493F3E",
"N@	c #705D57",
"O@	c #816A64",
"P@	c #84706B",
"Q@	c #504C4D",
"R@	c #444243",
"S@	c #4B4848",
"T@	c #050404",
"U@	c #242122",
"V@	c #110F0D",
"W@	c #0C0A09",
"X@	c #7E625D",
"Y@	c #806B67",
"Z@	c #070707",
"`@	c #0D0000",
" #	c #8A716B",
".#	c #8F706A",
"+#	c #7D6964",
"@#	c #7B6966",
"##	c #52221B",
"$#	c #8D6D67",
"%#	c #896A64",
"&#	c #5B4440",
"*#	c #4A3734",
"=#	c #484546",
"-#	c #85544E",
";#	c #44302B",
">#	c #23110D",
",#	c #33130A",
"'#	c #080403",
")#	c #060303",
"!#	c #030202",
"~#	c #1E1716",
"{#	c #090101",
"]#	c #171212",
"^#	c #121111",
"/#	c #140A09",
"(#	c #241B1A",
"_#	c #160807",
":#	c #342928",
"<#	c #302726",
"[#	c #1D1615",
"}#	c #0A0707",
"|#	c #261A19",
"1#	c #201312",
"2#	c #100807",
"3#	c #030000",
"4#	c #4F4C4C",
"5#	c #170B09",
"6#	c #040000",
"7#	c #2E2525",
"8#	c #64261D",
"9#	c #1C1616",
"0#	c #7B0600",
"a#	c #762B1E",
"b#	c #D47A6E",
"c#	c #4C0000",
"d#	c #A47071",
"e#	c #7F7677",
"f#	c #766F70",
"g#	c #484040",
"h#	c #5B0000",
"i#	c #94301E",
"j#	c #B3787A",
"k#	c #8D8182",
"l#	c #877C7D",
"m#	c #524F4F",
"n#	c #140403",
"o#	c #240000",
"p#	c #6D1009",
"q#	c #8C8081",
"r#	c #30211E",
"s#	c #1F0D0A",
"t#	c #790000",
"u#	c #6B0000",
"v#	c #535050",
"w#	c #524F50",
"x#	c #656061",
"y#	c #300C09",
"z#	c #988889",
"A#	c #8B7E81",
"B#	c #3D393A",
"C#	c #4B4748",
"D#	c #6D6667",
"E#	c #222020",
"F#	c #231F1F",
"G#	c #3F3B3C",
"H#	c #463838",
"I#	c #7F7576",
"J#	c #696364",
"K#	c #362321",
"L#	c #454142",
"M#	c #050505",
"N#	c #312E2E",
"O#	c #211A1A",
"P#	c #301916",
"Q#	c #604C4C",
"R#	c #1C1818",
"S#	c #42231E",
"T#	c #846062",
"U#	c #786F70",
"V#	c #5C5858",
"W#	c #393636",
"X#	c #151111",
"Y#	c #6E6869",
"Z#	c #8F8284",
"`#	c #877D7E",
" $	c #716A6B",
".$	c #2A2727",
"+$	c #7B7273",
"@$	c #575455",
"#$	c #938687",
"$$	c #282424",
"%$	c #625C5D",
"&$	c #C7A7AA",
"*$	c #B19A9C",
"=$	c #171516",
"-$	c #4A4647",
";$	c #B59D9E",
">$	c #C2A4A7",
",$	c #A59295",
"'$	c #71423C",
")$	c #DCB0B3",
"!$	c #A08F92",
"~$	c #AC9798",
"{$	c #BFA3A5",
"]$	c #E7B5B8",
"^$	c #504B4C",
"/$	c #92696A",
"($	c #83797A",
"_$	c #756D6E",
":$	c #605C5D",
"<$	c #4E4B4C",
"[$	c #797172",
"}$	c #6D6465",
"|$	c #464242",
"1$	c #646061",
"2$	c #2B2929",
"3$	c #292524",
"4$	c #332B2B",
"5$	c #5C4A4A",
"6$	c #040404",
"7$	c #7A7172",
"8$	c #0B0A0A",
"9$	c #221210",
"0$	c #4E494A",
"a$	c #020202",
"b$	c #060404",
"c$	c #140E0C",
"d$	c #020101",
"e$	c #18110F",
"f$	c #070403",
"g$	c #0E0908",
"h$	c #050202",
"i$	c #574847",
"j$	c #190F0E",
"k$	c #2B2322",
"l$	c #100C0B",
"m$	c #040202",
"n$	c #382E2D",
"o$	c #332928",
"p$	c #0B0201",
"q$	c #140E0D",
"r$	c #342B2A",
"s$	c #0A0606",
"t$	c #060100",
"u$	c #2C2221",
"v$	c #332A29",
"w$	c #2C2423",
"x$	c #2A201D",
"y$	c #1B1312",
"z$	c #140908",
"A$	c #251A19",
"B$	c #0E0301",
"C$	c #382827",
"                                                              . + @                     ",
"                                                          # $ % & * = -                 ",
"                                                      ; > , ' ) ! ~ { ] - -             ",
"                                                    ^ / ( _ : < = [ } | 1 2             ",
"                                                    3 4 5 6 7 8 9 0 a b c d             ",
"                                                    e f g h i j k l m n o p             ",
"                                                    q r s t u v w x y z A B C           ",
"                                                    D E F h G H l I J K L L L           ",
"                                                      M N O P Q R D - S T U V           ",
"                                                      W X Y Z `  .D ..S D D D           ",
"                                                  +.@.#.D $.%.&.*.=.-.S ;.>.V           ",
"                                            ,.'.).!.~.{.].^././.(.m _.S D D S           ",
"                                          :./.<.[./.}.|.1././.2.3.4.C S 5.6.-           ",
"                                        7.8.'.9.0.a.b.c.d.e.f.D -.-.g.S ..h..           ",
"                                        i.j.k.l.m.n.G o.p.q.q.r.s.t...g D D             ",
"                                      M u.v.w.m.x.y.z.A.B.C.D.t.s.E...F.G.D             ",
"                                    D H.I.J.K.L.M.N.O.A.P.Q.R.r.S.T...C                 ",
"                                  U.V.W.X.Y.L., Z.D `. +.+++@+_.#+$+g -.                ",
"                                  %+&+*+=+-+;+>+,+D D -.'+)+!+_.D D D ~+{+              ",
"                                  %+]+^+/+(+_+:+:+<+D g [+}+_.|+D D 1+2+3+              ",
"                                4+5+6+7+k.8+9+0+a+b+c+d+e+f+g+Z.L.h+i+j+2+              ",
"                                k+l+I.m+n+o+p+q+g.D r+A s+t+d.M.u+D v+<+w+x+            ",
"                                y+z+A+B+C+D+E+F+E F.G+H+I+h.J+K+L+D M+<+N+O+            ",
"                                D P+Q+m+A+R+S+T+b+U+V+H+W+X+/.Y+T.Z+D D `+ @            ",
"                                  .@+@@@=+]+#@$@^ Z.%@A A &@..*@D =@D -@;@>@            ",
"                                  ,@'@=+)@!@~@{@]@m.^@A H+~+/@(@_@:@U.<@w+2+            ",
"                                  U.[@}@|@4+U.1@2@; g F F 3@~+D 4@5@4@k+6@4@            ",
"                                    4+7@|@A+N.U.<+E .+~+E.J /.8@<+D 4+9@0@a@            ",
"                                    b@c@4+d@D D e@g.B f@&@g@h@h+i@S j@b@4+0@            ",
"                                      k@l@m@D D <+D n@o@A+p@q@r@s@t@L u@D U.            ",
"                                      v@w@x@D y@z@A@B@C@D@E@F@G@H@v+I@J@D K@            ",
"                                      U.D D D L@M@N@O@P@Q@R@S@T@U@V@<+<+D U.            ",
"                                        D D D W@M+X@B.Y@0.Z@D T.`@r.D <+D K@            ",
"                                          D D D S  #.#+#@#D D D D D D D r.K@            ",
"                                          D D D ##$#%#&#*#D D D D D D D =#K@            ",
"                                          D e@D <+-#;#>#,#<+D D <+<+D D D               ",
"                                          ; E '#D )#!#t.s.D `@D D M D D D               ",
"                                          ~#{#E D D D ~+~+<+D D D D D D D               ",
"                                          F.F.i.t.D ]#-.-.Z.D ^#<+D D D D               ",
"                                        D /#(#^ D _#Z.:#-.E b+b+<+D D                   ",
"                                        <#<#[#-+E t.K+}#g D D F.D D D                   ",
"                                      m.#.<#i.i.F.D D |#1#D ^#g <+D                     ",
"                                  e@E D D D D D ^ D D Z.t.E 2#Z.K+3#D                   ",
"                                4#>#5#D D D D D ; D D U+M.<+E -.6#g.D                   ",
"                                <@<+D D 7#6@6@<@6@8#>#####e@2+t.g E -.E k.              ",
"                              k+k+D D 9#4#4#4#<@w+0#S a#b#c#d#;@e#N+S S f#N+            ",
"                              g#*#D D K@<@<@4#<@w+h#>@c#i###j#N+k#l#u@4@6@;@            ",
"                              *#*#D D 4+4#m#<@6@w+>#n#o#p###8#;@w+q#4@4@d#f#            ",
"                              *#*#D D b@k+7+m#<@w+r#s#4@####S 4@4@O+t#u#`+N+6@          ",
"                              ]@4#D D b@k+k+v#<@f#u.e@<+####S D D S c#>@`+w+f#          ",
"                              <@4#D D b@k+k+w#x#D D >#L y###,#;@6@z#4@S N+A#6@6@        ",
"                              4+B#D W@4+4+4+k+C#D D <+e@S ##,#f#6@6@4@D <@6@f#D#k+      ",
"                              4+E#D b@F#4+G#k+k+D D D D <+<+<+4#4+m+H#L f#w+I#J#4#      ",
"                              D D D [@b@a@B#k+]+D D D D D D D ##K#4+4+D D k+4#4#L#      ",
"                              D D D D M#b@N#m+<@4@O#D D D <+D P###k+f#f#S Q#f#6@<@      ",
"                              D D D D D D R#a@k+<+Q#>#K@<+D 4@4+e@S#f#w+>@T#N+;@U#4#    ",
"                              b@b@D [@b@b@b@b@b@D j@H#  D D M#b@k+k+V#f#>@O+6@6@4#W#    ",
"                            D D D D [@X#'@4+k+k+D 6@x+    D X#0@4+<@<@<@S#;@N+;@w+6@k+  ",
"                            D D D D D D 4+4+k+k+D 6@j@    D b@a@4+4#f#Y#e@f#Z#;@w+6@k+  ",
"                            b@D D D D D x@X#b@b@D <@        b@k+k+k+f#f#e@Y#f#`#N+ $4#  ",
"                            D D D D D b@[@D b@.$x+6@          k+k+L#4#4#Q#6@I#f#+$N+f#  ",
"                            D b@D D D D k+k+k+4#Q#            A+k+4#@$k+S O+;@;@w+N+#$  ",
"                            D 4+D E#E#D b@k+w#6@6@            b@$$k+%$6@H#>@&$&$&$*$N+  ",
"                            b@4+D k+4#4#k+C#;@e@                D =$-$6@;@c#;$>$&$&$,$  ",
"                            b@W@D k+<@<@<@f#;@<+                  b@.$4#;@'$`+`+`+)$&$  ",
"                            k+D D 4#<@x#A#`+w+>#                    b@9@f#Q#!$~${$]$&$  ",
"                            b@D D 4+4+^$6@f#/$4@                    b@b@4#<@+$N+N+N+w+  ",
"                          4+4+D 0@4+4+C#<@f#O+                        b@4#k+6@($f#;@6@  ",
"                          6@6@D 4+m+4#@$_$N+                          b@4+4+w+6@<@<@D   ",
"                      w+6@:$v#D K@7+4#4#w+k#                        b@b@4+4+6@^$f#4+D   ",
"                      ;@f#C#<@D K@C#<$V#[$w+                        4+k+4+B#4#k+}$[@D   ",
"                    4#<@<@x#|$D j@w#C#f#1$                        4#<@4#4#6@4+w#2$D D   ",
"                  D 4#w+f#<@D D 9#U.j@4+                        u.w+k+4+D D D D D D     ",
"                D D f#w+<@3$D D D D D D                         L O+B#y+D D D D D b@    ",
"                >#>#6@-$4$D D D D D                           u.S 5$d@6$D D D D D D     ",
"                e@M 7$%$k+D D D D D                           O+H#4+8$D D D D D D       ",
"                9$D 0$<@9#a$M D D                             O+M b@D D D D D D D       ",
"              D D D D D D M D D D                             D D U.D D D D D D         ",
"            b+q D D D D D b$c$                                  D D D D D D D           ",
"            b+b+d$D D D D D M                                   D D D D D D             ",
"            b+b+b+D D D D                                       e$D D D D D             ",
"          E D b+d$D D D                                         M D D D D D             ",
"        D ; b+b+D D D D                                       D >#D b+D D               ",
"      F.D <#D ^ D D                                           D D D b+D                 ",
"    ; m.D <#D D b+                                            D D D ^ ^                 ",
"    ; E F.]#D D D                                             D f$b+^ g$                ",
"  ^ <#<#i.D D D D                                             D b+h$E                   ",
"  b+; i$U+j$k$l$D                                           E E F.{#E E                 ",
"  b+m$F.n$o$^ ^ D ^                                         E E p$m.2#E                 ",
"]@b+b+q$r$i.<#<#<#^ ^ ;                                     E E 3#p$F.F.D               ",
"M M m$b+s$^ F.t$u$F.v$w$#.<#                              D E E E E -...-.g             ",
"]@x$D b+q$^ y$F.F.z$w$v$<#A$Z.                            D D D D D B$~+F ~+..C$        ",
"  ]@]@b+b+b+D D D D ; i.U+i$<#g -.                          2@]@q D D E -.C ..../.      ",
"                                                                                        "};
