/* XPM */
static char * D1_xpm[] = {
"39 93 357 2",
"  	c None",
". 	c #745D5A",
"+ 	c #6A5552",
"@ 	c #866D68",
"# 	c #846B66",
"$ 	c #816863",
"% 	c #473C3B",
"& 	c #846A66",
"* 	c #89726C",
"= 	c #87716A",
"- 	c #866E68",
"; 	c #65514E",
"> 	c #59423E",
", 	c #644E4C",
"' 	c #252B2E",
") 	c #21272B",
"! 	c #836964",
"~ 	c #846A64",
"{ 	c #856D69",
"] 	c #734946",
"^ 	c #4E3937",
"/ 	c #1E2528",
"( 	c #5D4442",
"_ 	c #4B3533",
": 	c #171111",
"< 	c #3F2D2C",
"[ 	c #413130",
"} 	c #4A3938",
"| 	c #41302E",
"1 	c #998C86",
"2 	c #745A54",
"3 	c #4E3D3C",
"4 	c #1D110F",
"5 	c #231C1B",
"6 	c #4A3837",
"7 	c #2E2B2B",
"8 	c #464343",
"9 	c #171313",
"0 	c #968983",
"a 	c #110F0F",
"b 	c #413E3E",
"c 	c #000000",
"d 	c #221C1B",
"e 	c #2E0000",
"f 	c #1E0000",
"g 	c #080000",
"h 	c #0B0000",
"i 	c #120000",
"j 	c #302120",
"k 	c #584442",
"l 	c #937961",
"m 	c #999690",
"n 	c #847961",
"o 	c #3C1D1B",
"p 	c #261A19",
"q 	c #050000",
"r 	c #523D3B",
"s 	c #160A07",
"t 	c #210C0A",
"u 	c #C8B894",
"v 	c #706859",
"w 	c #1C0F0C",
"x 	c #0C0000",
"y 	c #201311",
"z 	c #100000",
"A 	c #2C1D1C",
"B 	c #7E5F5A",
"C 	c #221615",
"D 	c #150F0F",
"E 	c #130909",
"F 	c #43302E",
"G 	c #120605",
"H 	c #2F1713",
"I 	c #574847",
"J 	c #2B1B1A",
"K 	c #574341",
"L 	c #2F2727",
"M 	c #301915",
"N 	c #59312B",
"O 	c #5F3732",
"P 	c #8C605B",
"Q 	c #421B17",
"R 	c #302D30",
"S 	c #3C2C2B",
"T 	c #180C0B",
"U 	c #1C100D",
"V 	c #331715",
"W 	c #9A594F",
"X 	c #EA8675",
"Y 	c #908485",
"Z 	c #A58A8B",
"` 	c #442B29",
" .	c #4E4847",
"..	c #3B3839",
"+.	c #343134",
"@.	c #816763",
"#.	c #AC645A",
"$.	c #4C0000",
"%.	c #200000",
"&.	c #3E0000",
"*.	c #B09A9B",
"=.	c #79615E",
"-.	c #0B0201",
";.	c #160502",
">.	c #0B0605",
",.	c #595557",
"'.	c #635F5F",
").	c #77605D",
"!.	c #C27A68",
"~.	c #475B6A",
"{.	c #C16F63",
"].	c #33130A",
"^.	c #762B1E",
"/.	c #5C0000",
"(.	c #9C8C8F",
"_.	c #100807",
":.	c #715858",
"<.	c #604C4C",
"[.	c #463838",
"}.	c #C7A7AA",
"|.	c #010000",
"1.	c #42201B",
"2.	c #3B1512",
"3.	c #5B0000",
"4.	c #6B0000",
"5.	c #090101",
"6.	c #0A0201",
"7.	c #0E0301",
"8.	c #2B1210",
"9.	c #512D27",
"0.	c #521913",
"a.	c #862C1D",
"b.	c #B13213",
"c.	c #D47A6E",
"d.	c #220F0E",
"e.	c #020000",
"f.	c #090504",
"g.	c #070404",
"h.	c #716D6D",
"i.	c #CB8485",
"j.	c #E7B5B8",
"k.	c #050100",
"l.	c #866F70",
"m.	c #4E4A4C",
"n.	c #1C1818",
"o.	c #E89192",
"p.	c #EA8C8F",
"q.	c #EAB1C1",
"r.	c #302726",
"s.	c #181211",
"t.	c #B3787A",
"u.	c #968B8B",
"v.	c #444243",
"w.	c #594C4C",
"x.	c #464242",
"y.	c #705E5D",
"z.	c #211C1C",
"A.	c #A47071",
"B.	c #D2ACAF",
"C.	c #E9B2BE",
"D.	c #7D0B09",
"E.	c #8C8081",
"F.	c #837879",
"G.	c #766F70",
"H.	c #171212",
"I.	c #120706",
"J.	c #110605",
"K.	c #6A6465",
"L.	c #510000",
"M.	c #1E1716",
"N.	c #1E1211",
"O.	c #94301E",
"P.	c #5B5859",
"Q.	c #4D4343",
"R.	c #290000",
"S.	c #333030",
"T.	c #4F4C4C",
"U.	c #696364",
"V.	c #4B3330",
"W.	c #271D1C",
"X.	c #575455",
"Y.	c #2B2121",
"Z.	c #846062",
"`.	c #0A0000",
" +	c #423E3F",
".+	c #1A1616",
"++	c #5C5758",
"@+	c #504B4C",
"#+	c #331C18",
"$+	c #3C3231",
"%+	c #493F3F",
"&+	c #6D6768",
"*+	c #6C6161",
"=+	c #484343",
"-+	c #3D3A3A",
";+	c #625C5D",
">+	c #322728",
",+	c #1C1B1B",
"'+	c #232222",
")+	c #5E5455",
"!+	c #8B7E81",
"~+	c #1D1A19",
"{+	c #392D2D",
"]+	c #140000",
"^+	c #120F0D",
"/+	c #544344",
"(+	c #5D4946",
"_+	c #7F7677",
":+	c #0D0000",
"<+	c #030000",
"[+	c #171516",
"}+	c #343031",
"|+	c #050505",
"1+	c #222020",
"2+	c #0B0A0A",
"3+	c #877C7D",
"4+	c #191718",
"5+	c #240000",
"6+	c #2B2929",
"7+	c #736D6E",
"8+	c #3C0000",
"9+	c #23110D",
"0+	c #544F50",
"a+	c #6B4D48",
"b+	c #2B2525",
"c+	c #230000",
"d+	c #52221B",
"e+	c #151111",
"f+	c #343232",
"g+	c #43302F",
"h+	c #1E1513",
"i+	c #140E0C",
"j+	c #372927",
"k+	c #140403",
"l+	c #161212",
"m+	c #433939",
"n+	c #3C1505",
"o+	c #350604",
"p+	c #2E2D2D",
"q+	c #1C0D0A",
"r+	c #100F0F",
"s+	c #100C0B",
"t+	c #0C0807",
"u+	c #64261D",
"v+	c #270100",
"w+	c #1F1918",
"x+	c #310807",
"y+	c #1B1111",
"z+	c #0D0201",
"A+	c #110504",
"B+	c #1C0C0B",
"C+	c #715248",
"D+	c #6F413C",
"E+	c #655553",
"F+	c #361917",
"G+	c #623E3A",
"H+	c #160807",
"I+	c #1A0100",
"J+	c #806B69",
"K+	c #837A7B",
"L+	c #4E4343",
"M+	c #1D0000",
"N+	c #181717",
"O+	c #777172",
"P+	c #6E6869",
"Q+	c #A99597",
"R+	c #391310",
"S+	c #938587",
"T+	c #84686A",
"U+	c #8C7F81",
"V+	c #060000",
"W+	c #726B6C",
"X+	c #908384",
"Y+	c #190000",
"Z+	c #130100",
"`+	c #110402",
" @	c #4B4748",
".@	c #790000",
"+@	c #7B0600",
"@@	c #7A7273",
"#@	c #A59293",
"$@	c #512626",
"%@	c #363333",
"&@	c #7E7475",
"*@	c #040000",
"=@	c #1F1B1B",
"-@	c #6F6869",
";@	c #454242",
">@	c #645F60",
",@	c #615B5B",
"'@	c #312E2E",
")@	c #020202",
"!@	c #3F3B3C",
"~@	c #373030",
"{@	c #3D393A",
"]@	c #585455",
"^@	c #7F7576",
"/@	c #110E0E",
"(@	c #AC9798",
"_@	c #1F1C1D",
":@	c #524F4F",
"<@	c #585556",
"[@	c #7B7273",
"}@	c #9E8D90",
"|@	c #090000",
"1@	c #716A6B",
"2@	c #2F2322",
"3@	c #603F3F",
"4@	c #C08687",
"5@	c #C9A1A4",
"6@	c #5A5455",
"7@	c #706A6B",
"8@	c #534344",
"9@	c #817678",
"0@	c #423E3E",
"a@	c #221E1F",
"b@	c #BFA3A5",
"c@	c #383535",
"d@	c #807677",
"e@	c #71423C",
"f@	c #4D4A4B",
"g@	c #736B6C",
"h@	c #2F2C2C",
"i@	c #9B8C8D",
"j@	c #A39193",
"k@	c #524F50",
"l@	c #C9A7A9",
"m@	c #B09799",
"n@	c #8F8284",
"o@	c #4C4949",
"p@	c #797172",
"q@	c #827778",
"r@	c #4D4849",
"s@	c #060404",
"t@	c #18110F",
"u@	c #221F1E",
"v@	c #0E0C0A",
"w@	c #322E2E",
"x@	c #493536",
"y@	c #282626",
"z@	c #010101",
"A@	c #110000",
"B@	c #1B0000",
"C@	c #221A17",
"D@	c #4A3734",
"E@	c #241B1A",
"F@	c #080606",
"G@	c #050404",
"H@	c #020101",
"I@	c #4D3B39",
"J@	c #53403E",
"K@	c #554140",
"L@	c #4F3C3B",
"M@	c #0F0A09",
"N@	c #86706B",
"O@	c #382725",
"P@	c #301513",
"                                . +                                           ",
"                            @ # $ . %                                         ",
"                          & # * = - & ; >                                     ",
"                        . , ' ) ! ~ = ; >                                     ",
"                        ; { ] ^ / ( _ $ :                                     ",
"                        < [ } | 1 2 ( 3 4 5                                   ",
"                        6 7 8 9 0 a b c c d                                   ",
"                        6 c e e e e f c g h                                   ",
"                      i j k e l m n c k c c c                                 ",
"                      o p c c c c c c c q c                                   ",
"                        c e c c c c c r c c                                   ",
"                      s k t c u v m c w c c                                   ",
"                      c 6 x f c c c c y c c c                                 ",
"                      z A . j B & . C c D c E                                 ",
"                      z F G e c c c c c c H ; 6 . & # I                       ",
"                    j J 6 c e K I L c c M N O P ; ; Q c # &                   ",
"                  ; 6 R S T U g T C V W X W Y Y Z ; ` c V ; I                 ",
"                 ...+.6 6 & @.. 6 W #.$.f c %.&.*.=.; 6 -.;.I >.              ",
"                ,.'.'.t ;.& ).!.~.{.].].^.&.&./.(.= C j ;.;.c _.              ",
"                q :.e (.<.[.}.|.1.|.2.e 3.4.f ^.(.& 5.c |.g c c 6.            ",
"                  *.I S . S 7.c 8.9.e 0.Y a.b.c.k d.c c c c e.f.|.            ",
"              ; & :.i g.h.c c c h 4.e i.j.9.f h |.c c c |.k.c >.>.            ",
"              . o *.q l.m.,.n.c 6 o.e p.q.:.f |.c c c c |.e.r.5 s.            ",
"              8.;.*.t.u.h.v.u.w.^.q.4.p.}.&.f z x.c c c c c % y.%             ",
"              T z.}.A.B.j.*.j.C.3.D.$.t.E.F.G.z |.|.c c c H.I.C J.            ",
"              e.K.}.A.j.j.j.j.j.L.3.&.A.F.F.K.Y f z c c 5.M.M.J.N.            ",
"              c G.*.O.P.Q.F.B.j.&.R.f :.K.G.S.T.U.<.c c V.I.5 c W.            ",
"              ..T.X.Y.K.P.K.G.c Z.f `.c S.T.S. +T..+++@+#+$+|.c c c           ",
"              ..%+T.c P.&+*.*+c :.|.c c .+=+.+T.-+S. +;+>+,+c z c c           ",
"            ; '+=+S.z F.Y )+*.c :.c c c |.c c e [.>+K.!+~+S.{+8.t s.          ",
"          . 6 ,+T.G.f F.c c Y G.c c z c c c ]+z z z  + +7 .+S.^+/+K.(+        ",
"          . 6 g.Y _+z |.c c F.c c c &.c c |.&.:+<+c [+}+.+|+1+T.-+K.K.        ",
"          k o 2+3+Y #+c c c c 4+G.c &.5+`.|.e c c c c .+    c 6+T.K.7+ +      ",
"          6 V H.P.e e ]+c 8+9+G.0+e z e e z &.c c c c S.    c c P.>+(.a+      ",
"          8.8.b+T.c |.c+e &.#+>+ +K.d+|.f z ]+c c c c e+    c c f+#+Y > c     ",
"          g+8.b+ +c c e `.c c c c c h+c i+e c c c c c c       c c e /+j+c     ",
"        S x e.e.T.  c c c c c c 9+c c c c ]+Z.|.c c c c       |.|.f 9+9+k+    ",
"      c ; x e.l+T.    h+|.|.c |.c c c e.c c m+c c c c c         |.n+o+9+9+    ",
"      6 8.i ;.p+ +    h+q+c c c e.c c c c r+m.c c s+t+c           u+a.|.|.    ",
"    8.6 v+h c 2+        c c c c % c e.c c e.'+c c w+s.c           9+^.f c     ",
"    c 6 x+7.c 2+      x y+c g T x e._.c c C 2+c c r.s.c           c ;.c c     ",
"    c C 8.c c         j 6 z+x V 8.k ; & S 8.T A+s.e.5 c 5         e.c c c     ",
"    c 7.;.c e.        j c c B+V 8.o C+o D+. j T T c C e.E+%         e.S e.    ",
"    e.c v+c c       ; t c c c c x F+o G+; r.C x C c T z+I T ^+      c o ;.    ",
"    c H+I+c c     k # & 6 C S ; o k 6 J+E+j C ; % $+6 S p+K.T.        v+S     ",
"    c h c e.    ..h.K+K+,.K+x c c c m.H.,.,.L+q c c M+M+(.K. +        i o c   ",
"    c q c c     N+v.'.O+K+P+c q c H+(.Y (.Q+*.z &.e f e Y T. +        ;.R+c   ",
"    j |.c         >+=+G.S+F.z z z T+U+(.(.(.F.$.&.z V+>+W+K.G.S.      t x+c   ",
"    j c c          +P.G.F.F.4.3.$.F.F.X+(.(.*.(.:.Y+z =+K.K.(.P.c     Z+`+c c ",
"    _.c c          + @G.(.Y Z..@+@*.@@F.*.Y #@(.G.$@c ^+P.Y Y K..+    ;.k.c c ",
"  c c e.c       T.%@ +K.&@F.*.u+&.Y Y F.(.3+Y F.@@G./+G.G.K.T. +S.    *@c c c ",
"  c c c         =@S.8 T.-@3+Y _+&.d+(.F.Y F.P.F.3+Y 3+[. +S.=@|+c     c c c c ",
"  c ;.c         S.S.;@>@G.Y Y Y e f P.F.F.,@8 Y Y Y Y /+T.;@'@.+)@    e.;.c c ",
"c *@;.c           !@S.@+K.K.K.P. + +|. +S.~@T.S. +T.F.[. + +{@7 .+    ;.-.c   ",
"c c i *@e.         + + +T.]@K.^@G.G./+=+/@c .+(.(@*.G.9+ @ +_@c c c   c c c   ",
"c c g i c          +T. +:@<@K.G.G.P+>+S.c c /@[@}@(@Y e P. +c c c c   c H+    ",
"c t c c |@         +P.G.P. @ + + + +c  +c   c T.1@(.A.&.Y G.T.T.S.c   c 2@    ",
"c t c c           .+.+ +F.W+P+K.@@F.#+ +      G.P.U.3@e 4@5@6@.+c e+  h c     ",
"  q c c           S.c c P.P+W+F.F.F./+S.      T.7@8@z f A.j.9@U.0@.+  #+      ",
"    c c           a@ +T. + + +T.P.K.K..+       +P.=+|.f 3.}.b@*.Y S.          ",
"    `+c |.         +c@S.K.K.G.d@F.F.G.S.        P.>+|.f t.o.*.*.G.T.^+        ",
"    e@9+|.         +T.S.@+K.G.G.d@F.K.S.        P.  9+f }.Z.F.Y P. +^+        ",
"    h+u+O         !@S.f@P.T.P.^@@@P.P..+            [.z G./+G.G.P. +^+        ",
"                  S.=@ +G.F.(.Y g@F.g@S.              c G.c K.T.K. +^+        ",
"                    .+S.G.Y (.Y F.F.F..+              h+K.Y.z f P. +^+        ",
"                     +S.K.F.*.*.*.*.Y .+              >+h@c c c c c c  +      ",
"                      S.K.F.i@*.*.j@F.                ^+c c c c c c c S.      ",
"                       +k@P.}.l@*.Y F.                ^+c c c c c c c .+      ",
"                       + +F.m@}.*.n@G.                  c c c c c c c S.      ",
"                      o@ +p@q@E.Y G.r@                  c c c c c c c S.      ",
"                      P. +P+p@F.F.P. +                  c c c c c s@t@        ",
"                    F.Y S.P.Y.S. +k@S.                    h+h+h+h+h+h+        ",
"                    }.K.S.T.c c u@ +.+                    h+h+h+h+h+h+        ",
"                    Y {@S.6+c c v@w@.+                      h+h+h+h+h+        ",
"                  f x@y@2+c c c z@^+c                       h+h+t@s@c         ",
"                  A@B@c c c c c c c c                       c c c c t@C@      ",
"                  z z c c c .+c c c c                     e c c i+j+h+h+      ",
"                  *@:+c c c c c c c c                       c c >.c c j+D@    ",
"                    c c c c c c c c c                       c c c c c E@>     ",
"                      c c c c c c                           e.c c c c F@s+    ",
"                      c c c c c t@                          c c c c H.s+G@c   ",
"                      t@c c c c                             & 6 j s.>.>.>.c   ",
"                      9+c 9+c c                             ; k j z+>.f.c     ",
"                        c c c >.                          % t S C e.5 H@>.    ",
"                        c c c c                           I@J@k j T 5 c c     ",
"                        c G@s.c                           K@L@y.S r.e.c c     ",
"                      e.s.s.M@                          S j S I 6 j j c       ",
"                      S z+c e.c                         ; T x k x T E+        ",
"                      S T c c c                         k c |.N@C T %         ",
"                    T j j c c 6.                        I f.c s.              ",
"                    O@8.k . t T                                               ",
"                    8.P@o & ;.d+9+                                            ",
"                    C ; S S 8.#+{.                                            "};
