/* XPM */
static char * D2_xpm[] = {
"29 93 386 2",
"  	c None",
". 	c #79615E",
"+ 	c #816763",
"@ 	c #846A66",
"# 	c #745D5A",
"$ 	c #65514E",
"% 	c #846B66",
"& 	c #655553",
"* 	c #584442",
"= 	c #87716A",
"- 	c #866E68",
"; 	c #856E66",
"> 	c #806B69",
", 	c #473C3B",
"' 	c #302726",
") 	c #8B766F",
"! 	c #846A65",
"~ 	c #846A63",
"{ 	c #7A5854",
"] 	c #171D22",
"^ 	c #21272B",
"/ 	c #705855",
"( 	c #473331",
"_ 	c #705E5D",
": 	c #181211",
"< 	c #7E605A",
"[ 	c #836965",
"} 	c #634C49",
"| 	c #644D4A",
"1 	c #7B5B58",
"2 	c #735A58",
"3 	c #282E32",
"4 	c #836964",
"5 	c #4A3837",
"6 	c #231C1B",
"7 	c #340F0D",
"8 	c #734946",
"9 	c #3B211E",
"0 	c #42302D",
"a 	c #483633",
"b 	c #684E4A",
"c 	c #331715",
"d 	c #372523",
"e 	c #3C3231",
"f 	c #C16F63",
"g 	c #463331",
"h 	c #392725",
"i 	c #4D3C39",
"j 	c #27100E",
"k 	c #54413E",
"l 	c #44312E",
"m 	c #340000",
"n 	c #3C0000",
"o 	c #360000",
"p 	c #3E0000",
"q 	c #3D201D",
"r 	c #4D3937",
"s 	c #2B1210",
"t 	c #2E100D",
"u 	c #000000",
"v 	c #0B0605",
"w 	c #9D8C69",
"x 	c #D2C6A8",
"y 	c #C2AE8F",
"z 	c #3E1E1A",
"A 	c #1E0000",
"B 	c #4A2F2C",
"C 	c #311310",
"D 	c #150402",
"E 	c #070000",
"F 	c #CCC09F",
"G 	c #382421",
"H 	c #3C1D1B",
"I 	c #392B2A",
"J 	c #040000",
"K 	c #2E0000",
"L 	c #2F1615",
"M 	c #302120",
"N 	c #1F0F0C",
"O 	c #0C0000",
"P 	c #221615",
"Q 	c #0E0908",
"R 	c #746650",
"S 	c #CBBEA0",
"T 	c #AEA180",
"U 	c #020000",
"V 	c #352625",
"W 	c #473534",
"X 	c #3C2C2B",
"Y 	c #866F6D",
"Z 	c #050000",
"` 	c #453332",
" .	c #1C0F0F",
"..	c #4F3D3B",
"+.	c #210C0A",
"@.	c #180000",
"#.	c #554140",
"$.	c #4D3B39",
"%.	c #695756",
"&.	c #180C0B",
"*.	c #1F1312",
"=.	c #624E4B",
"-.	c #5B4745",
";.	c #866D68",
">.	c #524644",
",.	c #232222",
"'.	c #1C1B1B",
").	c #231514",
"!.	c #53413F",
"~.	c #4A3734",
"{.	c #160502",
"].	c #240E0B",
"^.	c #80635E",
"/.	c #4F4C4C",
"(.	c #2E2424",
"_.	c #291B1A",
":.	c #3F2F2E",
"<.	c #716D6D",
"[.	c #635F5F",
"}.	c #93847C",
"|.	c #76605B",
"1.	c #656262",
"2.	c #0B0000",
"3.	c #7B5B55",
"4.	c #908485",
"5.	c #595557",
"6.	c #4E4343",
"7.	c #080000",
"8.	c #372927",
"9.	c #2B2121",
"0.	c #160E0E",
"a.	c #3D1C18",
"b.	c #0D0201",
"c.	c #333030",
"d.	c #211C1C",
"e.	c #010000",
"f.	c #433939",
"g.	c #4E4A4C",
"h.	c #8A8080",
"i.	c #908586",
"j.	c #4E2B27",
"k.	c #856C67",
"l.	c #776260",
"m.	c #574847",
"n.	c #282626",
"o.	c #9C8C8F",
"p.	c #030000",
"q.	c #52221B",
"r.	c #8A746D",
"s.	c #867069",
"t.	c #755E5A",
"u.	c #0B0A0A",
"v.	c #C7A7AA",
"w.	c #120000",
"x.	c #100000",
"y.	c #3B3839",
"z.	c #181717",
"A.	c #B09A9B",
"B.	c #413E3E",
"C.	c #090101",
"D.	c #331C18",
"E.	c #6A5452",
"F.	c #86706B",
"G.	c #615D5E",
"H.	c #766F70",
"I.	c #423E3F",
"J.	c #6A6465",
"K.	c #6B4D48",
"L.	c #1C0D0A",
"M.	c #2D1E1C",
"N.	c #382827",
"O.	c #171212",
"P.	c #5B5859",
"Q.	c #463838",
"R.	c #080403",
"S.	c #261411",
"T.	c #503D3B",
"U.	c #341F1D",
"V.	c #4E3937",
"W.	c #453C3C",
"X.	c #3D393A",
"Y.	c #302D2D",
"Z.	c #B89EA1",
"`.	c #512D27",
" +	c #5D5657",
".+	c #413838",
"++	c #120F0D",
"@+	c #1D1A19",
"#+	c #CDA7AA",
"$+	c #604C4C",
"%+	c #373131",
"&+	c #130403",
"*+	c #382F2F",
"=+	c #544D4E",
"-+	c #837879",
";+	c #8C8081",
">+	c #2B2525",
",+	c #58332E",
"'+	c #675655",
")+	c #716A6B",
"!+	c #060000",
"~+	c #211A1A",
"{+	c #7E706F",
"]+	c #444243",
"^+	c #1A1616",
"/+	c #4E494A",
"(+	c #7B6966",
"_+	c #968B8B",
":+	c #0C0A09",
"<+	c #64261D",
"[+	c #372C2D",
"}+	c #1E1513",
"|+	c #070404",
"1+	c #23110D",
"2+	c #170B09",
"3+	c #71423B",
"4+	c #71423C",
"5+	c #020202",
"6+	c #120C0B",
"7+	c #0E0000",
"8+	c #854D47",
"9+	c #4C0000",
"0+	c #241716",
"a+	c #5B0000",
"b+	c #242424",
"c+	c #332423",
"d+	c #342524",
"e+	c #0E0301",
"f+	c #755D5A",
"g+	c #453433",
"h+	c #27201F",
"i+	c #261717",
"j+	c #100D0D",
"k+	c #160F0F",
"l+	c #42201B",
"m+	c #8C7F81",
"n+	c #AC645A",
"o+	c #42231E",
"p+	c #544344",
"q+	c #948788",
"r+	c #221311",
"s+	c #8D6E6F",
"t+	c #150000",
"u+	c #240000",
"v+	c #1D0B09",
"w+	c #332120",
"x+	c #110402",
"y+	c #867B7C",
"z+	c #8D8182",
"A+	c #452D2E",
"B+	c #330000",
"C+	c #736B6C",
"D+	c #9B8C8D",
"E+	c #A18E8F",
"F+	c #322728",
"G+	c #090000",
"H+	c #7F7677",
"I+	c #A99596",
"J+	c #97898A",
"K+	c #8E8182",
"L+	c #A39193",
"M+	c #343232",
"N+	c #846062",
"O+	c #6B0000",
"P+	c #564F50",
"Q+	c #827677",
"R+	c #351E1A",
"S+	c #762B1E",
"T+	c #534A4A",
"U+	c #060606",
"V+	c #3E3C3C",
"W+	c #4B4748",
"X+	c #59423E",
"Y+	c #290000",
"Z+	c #5F3732",
"`+	c #938587",
" @	c #715858",
".@	c #111010",
"+@	c #494646",
"@@	c #3D3A3A",
"#@	c #383535",
"$@	c #2A2727",
"%@	c #090808",
"&@	c #222020",
"*@	c #5E5B5C",
"=@	c #5E5050",
"-@	c #4C4949",
";@	c #110E0E",
">@	c #676162",
",@	c #484343",
"'@	c #5C5758",
")@	c #050505",
"!@	c #110706",
"~@	c #4C1F19",
"{@	c #3E1E19",
"]@	c #2D1510",
"^@	c #535050",
"/@	c #151111",
"(@	c #33130A",
"_@	c #231F1F",
":@	c #6E6869",
"<@	c #AB9598",
"[@	c #585556",
"}@	c #524F4F",
"|@	c #343031",
"1@	c #7F7576",
"2@	c #3C3A3B",
"3@	c #7A7273",
"4@	c #9A8384",
"5@	c #877C7D",
"6@	c #474344",
"7@	c #6B6566",
"8@	c #B69B9D",
"9@	c #877D7E",
"0@	c #6D6768",
"a@	c #565354",
"b@	c #3A3636",
"c@	c #A59293",
"d@	c #726B6C",
"e@	c #585455",
"f@	c #BFA3A5",
"g@	c #8C7F80",
"h@	c #756D6E",
"i@	c #646061",
"j@	c #645E5F",
"k@	c #4F4A4B",
"l@	c #302C2C",
"m@	c #261815",
"n@	c #544F50",
"o@	c #381E1A",
"p@	c #3F3B3C",
"q@	c #1C1616",
"r@	c #0A0706",
"s@	c #322523",
"t@	c #271612",
"u@	c #2B2929",
"v@	c #524F50",
"w@	c #060404",
"x@	c #18110F",
"y@	c #231917",
"z@	c #1A1717",
"A@	c #685F60",
"B@	c #231B18",
"C@	c #332624",
"D@	c #100C0B",
"E@	c #201715",
"F@	c #271E1B",
"G@	c #150B0A",
"H@	c #1C1514",
"I@	c #0C0908",
"J@	c #2B201F",
"K@	c #1D1513",
"L@	c #020101",
"M@	c #090504",
"N@	c #30211E",
"O@	c #1C1312",
"P@	c #2B1E1D",
"Q@	c #625250",
"R@	c #3E2E2D",
"S@	c #453533",
"T@	c #514241",
"U@	c #413332",
"V@	c #2C2221",
"W@	c #1B1616",
"X@	c #2D2524",
"Y@	c #1D1211",
"Z@	c #170F0E",
"`@	c #3D2A27",
" #	c #161110",
".#	c #050404",
"+#	c #251A19",
"@#	c #2A1916",
"##	c #0F0A09",
"$#	c #201514",
"%#	c #281E1D",
"&#	c #090302",
"*#	c #181212",
"=#	c #1B1413",
"-#	c #040101",
";#	c #0B0201",
">#	c #0A0605",
",#	c #0C0100",
"'#	c #0A0201",
")#	c #0A0606",
"!#	c #040202",
"~#	c #130E0E",
"                . + @ # $                                 ",
"              % + # @ # & *                               ",
"            = - ; ; @ % @ > , '                           ",
"        ) % ! ~ { ] ^ # / ( _ :                           ",
"        @ < [ } | 1 2 3 4 ( 5 ' 6                         ",
"        5 7 8 9 0 a b c 2 d , e :                         ",
"        f ( $ g h i c j k l , 6 :                         ",
"        m n o p q r s s | t @ u v                         ",
"        w x y z A $ B * C D 5 u                           ",
"        u u E F u G $ % 5 H I :                           ",
"        u u u J K L M N O P : Q                           ",
"      u R S T U K K O V W X u 6 Y P                       ",
"      # J Z Z Z K K M ` X  .u ..# X * M                   ",
"      > % % $ +.K @.* #.$.P M # %., $ M M                 ",
"        u u &.*.K M # =.-.* $ - @ ;.>.,.'.                ",
"        , * 5 ).K X @ !.~.{.].# ^.% - M U /.(.            ",
"        M u _.:.* - <.[.{.u {.# }.= |.* u 1./.            ",
"              u u [.@ - X 2.H +.= 3.* * u U 4.            ",
"          $ 5.# 6.# $ 7.u 7.$ $ M # s M u * 8.9.          ",
"        # 5 [.@ @ # 0.u a.u E O u $ 5 b.u * 8.c.          ",
"        u d.<.s s e.u u u u O U 5 P M ' v &.v c.          ",
"    f.g.u h.i.u u u u u u u j.O = = k.l.m.u u n.c.        ",
"    o.[.2.i.h.p.u u u u u u q.Z ) r.s.t.* u u.u.c.        ",
"    v.5.w.<.<.d.u u u u x.u q.{.X $ * * * : y.z.c.        ",
"    v.A.2.g.g.,.B.u C.e.x.e.D.5 # M * E.F.6 u.u           ",
"    G.H.p H.4.I.J.x.K.e.u e.L.M.@ N.* - % b.O.u           ",
"    H.H.A P.P.P.P.K Q.x.x.e.R.S.M T.U.V.5 b.v             ",
"    H.W.u X.c.Y.P.I./.4.o.Z.A `.& u Z +.5 e u             ",
"     +.+++c.@+Q.Q.I.J.A.#+o.A $+%+X +.&+s > u             ",
"    *+=+u u u A A $+H.-+-+;+x.-+>+u ,+5 g.'+u             ",
"    u.c.u u 2.e.u c.I.;+-+-+x.-+Q.u ,.z.)+g.g.            ",
"    c.c.e.Z x.u u !+x.c.H.o.A -+~+u P.z.{+]+y.u.          ",
"    D.^+x.x.2.u u 2.x.e.P.o.H./+u u /.(+_+u @ d.          ",
"    K c.e.u u u u u u u u u I.u u u :+<+[.X % u u         ",
"    e.++[+u u u u u u u u e.u u u u u <+(+X # u u         ",
"    e.u u u }+|+2.1+e.1+D.A 2+u u u u   u 3+4+K ++        ",
"    p ^+  u 5+6+e.U u &.{.{.U u e.b.U   7+u 8+u u         ",
"    9+^+    u u d.b.u M M P P 0+X O u   s u a+u e.        ",
"    A u     u b+u.v U $ 5 c+P X d+_ U     +.s u U         ",
"    I.        v z.u &.# # # d+X $ 5 $ &.  e e e+u         ",
"    ^+      u &.z.b.U * * f+X g+* * X _ , ' h+e+u         ",
"            U * @ &.U M i+* * @ - % # * 5 j+' u u         ",
"            u # # u O M k+X % $ {.&.&.`.l++.6 u u         ",
"            {.5 U &.&.P X d+f 4+m+o.u u 1++.e u u         ",
"    I.H.n+O u ]+]+u {.D.o+p+o.v.o.q+A x.!++.r+u u         ",
"    o.p+K s+-+-+A.t+A x.u+-+o.-+J.-+-+v+x.w++.u x+        ",
"    H.e.x.y+z+4.4.A+B+e.x.C+-+-+D+E+-+F+e.X 2.u G+        ",
"    4.p x.4.H+I+J+4.o+x.x.H.-+K+A.L+M+u 9+P +.u u         ",
"    4.N+O+o.H.A.A.A.P+u A H.J.A.Q+P.u R+S+u {.u u         ",
"    -+o.a+A.-+E+A.T+U+V+I.I.W+/./.P.K.X+Y+u {.u u         ",
"    -+H.a+Z+`+-+ @.@+@@@#@I.I.c.F+<+++c.u u {.u u         ",
"    4.4.p K D.$+$+/.I.#@$@^+%@u u u u &@~+u u u u         ",
"    J.*@=@K p J.e./.-@I.^+^+^+;@u u u u 1+u U u u         ",
"  I.J.>@P.~+e.Q.,@c.c.c.c.^+^+;@u ^+u u l+u u u           ",
"  I.'@J.P.e.u 1+/.^+^+^+^+^+%@)@^+^+u !@q.u u             ",
"  I.I.I.c.u :+p+P.I.I.$@^+;@u u )@^+!@~@{@u u             ",
"  I.W+P.p+A $+H.J./.I.u u u )@^+u ^+q.]@  u u             ",
"c.^@-+4.J.A 1+A.-+I.#@/.@@,@^+^+u /@    (@u               ",
"_@c.:@H.J.K 1+v.<@H.H.[@}@,@|@^+u u                       ",
"I.P.H.1@4. @ @v.v.1@H.P.2@u I.c.u u                       ",
"c.P.3@-+H. @4@H.J.J.H.J.u u I.$@^+                        ",
"#@I.-+;+J.N+4.5@P.6@W+~+u u ^+^+                          ",
"I.7@-+P.H.A.8@9@0@a@I.u u &@b@^+                          ",
"  4.4.4.o.J+I+H.:@P.,@P.I.c.                              ",
"  4.c@A.L+4.4.H.9@/.u d@J././.                            ",
"  4.v.v.A.-+J.H.H.J.u J.J.H.4.o.                          ",
"  A.v.A.L+-+1+-+/.P.}+p+-+e@J.J. @                        ",
"  A.f@v.o.-+u [+9.P.Q.e.J.J.>@*@9.K                       ",
"  g@A.A.o.P.2@u u u u u u ~+P.0@9.u x.                    ",
"  J.H.4.H.H.#@X.;@u u u u u u I.c.e.1+u                   ",
"  I./.h@i@j@k@l@_@u u u u u u /.^+u o+m@                  ",
"    u P.^@n@j@_@$@u c.u u u ^+I.J.u o@o+                  ",
"    u :+j@I.c.P.W+p@#@q@u u u r@}+}+}+s@t@                ",
"  u   u u@v@^+9.I.c.I.J.u w@x@}+}+}+}+y@8.                ",
"    u   u u u u u z@c.A@K }+}+}+}+}+}+}+~.U               ",
"        u u u u u u u.n.c.o+}+u 1+B@C@8.v D@U             ",
"        u u u u u u u u ;@}+  }+}+E@F@8.v 6 G@            ",
"        u u u u u u u u u u     u u u u u H@6 u           ",
"              u u u u u u u       u I@J@v v ' '           ",
"              u u u u u }+u       }+8.K@L@M@6 &.e         ",
"                u u u 2+N@u u       O@5+u u : P@Q@R@m.    ",
"                  x@u }+1+u L.      u u u u v & S@T@Q@,   ",
"                  1+}+1+8.u 1+      8.u u u U U@&., V@b.U ",
"                      1+1+u 1+1+    u u u W@X@Y@e /@b.Z@v ",
"                      8.~.8.`@1+     #.#e.' 6 ' +#V@b.v v ",
"                        8.@#~.1+    |+: ##6 G@$#%#b.&#v   ",
"                        U b.U U U   |+D@: *#U e =#v v     ",
"                      U U U p.b.U -#: U U U U L@v         ",
"                      ;#U J b.J U : : : .#U e.>#v         ",
"                  b.b.,#P '#p.u e.U U )# #u >#            ",
"              U &.s s +.e+u u u !#v u e v                 ",
"              M 5 # # O u u M@v v ~#u '                   ",
"                  u           v !#u                       "};
