/* XPM */
static char * D3_xpm[] = {
"37 92 469 2",
"  	c None",
". 	c #745D5A",
"+ 	c #846A66",
"@ 	c #79615E",
"# 	c #65514E",
"$ 	c #806863",
"% 	c #866E68",
"& 	c #67514E",
"* 	c #473C3B",
"= 	c #846B66",
"- 	c #252B2E",
"; 	c #635453",
"> 	c #80635E",
", 	c #584442",
"' 	c #181211",
") 	c #866F6B",
"! 	c #867069",
"~ 	c #675754",
"{ 	c #363637",
"] 	c #87716A",
"^ 	c #846C66",
"/ 	c #866D68",
"( 	c #574847",
"_ 	c #4A3734",
": 	c #4A3837",
"< 	c #856D67",
"[ 	c #856B67",
"} 	c #836D67",
"| 	c #6B4D48",
"1 	c #3E2522",
"2 	c #754F4A",
"3 	c #78544F",
"4 	c #7E5F5A",
"5 	c #221615",
"6 	c #6C5653",
"7 	c #674641",
"8 	c #8C7972",
"9 	c #836A67",
"0 	c #6F413C",
"a 	c #3D1C18",
"b 	c #3C2C2B",
"c 	c #020000",
"d 	c #000000",
"e 	c #764F4A",
"f 	c #836963",
"g 	c #2B1210",
"h 	c #2C1917",
"i 	c #160502",
"j 	c #3C1D1B",
"k 	c #030202",
"l 	c #443332",
"m 	c #453635",
"n 	c #302726",
"o 	c #331715",
"p 	c #604D4A",
"q 	c #67514D",
"r 	c #574542",
"s 	c #4C3A39",
"t 	c #483837",
"u 	c #4E3F3E",
"v 	c #231C1B",
"w 	c #5F4D4A",
"x 	c #352826",
"y 	c #210C0A",
"z 	c #483635",
"A 	c #4E3C3A",
"B 	c #503E3C",
"C 	c #4C3A38",
"D 	c #453432",
"E 	c #4D3C3B",
"F 	c #423131",
"G 	c #180C0B",
"H 	c #0C0706",
"I 	c #392D2C",
"J 	c #231918",
"K 	c #634E4B",
"L 	c #4B3937",
"M 	c #2C1513",
"N 	c #281C1B",
"O 	c #2F2322",
"P 	c #302322",
"Q 	c #2E2221",
"R 	c #3D302E",
"S 	c #433533",
"T 	c #2D2322",
"U 	c #392C2B",
"V 	c #170603",
"W 	c #574341",
"X 	c #54413F",
"Y 	c #63504D",
"Z 	c #685350",
"` 	c #624E4B",
" .	c #5C4846",
"..	c #51403E",
"+.	c #4D3937",
"@.	c #453433",
"#.	c #272A2D",
"$.	c #604C49",
"%.	c #513F3D",
"&.	c #362827",
"*.	c #302120",
"=.	c #554240",
"-.	c #715C5A",
";.	c #7C6868",
">.	c #604F4D",
",.	c #614D4A",
"'.	c #5F4C4A",
").	c #584643",
"!.	c #473533",
"~.	c #272424",
"{.	c #5E4B48",
"].	c #0C0000",
"^.	c #725C59",
"/.	c #4E4A4C",
"(.	c #4D484A",
"_.	c #5F5656",
":.	c #795752",
"<.	c #483938",
"[.	c #503C3A",
"}.	c #56423F",
"|.	c #735C59",
"1.	c #624D4A",
"2.	c #866E69",
"3.	c #785450",
"4.	c #050000",
"5.	c #261312",
"6.	c #3B3839",
"7.	c #716A6B",
"8.	c #8B7F80",
"9.	c #44322F",
"0.	c #5C4442",
"a.	c #4D3B3A",
"b.	c #55413F",
"c.	c #3C3231",
"d.	c #232222",
"e.	c #181717",
"f.	c #5F3732",
"g.	c #391310",
"h.	c #81635F",
"i.	c #846B65",
"j.	c #80625D",
"k.	c #5B5859",
"l.	c #837879",
"m.	c #1F1311",
"n.	c #644945",
"o.	c #513E3D",
"p.	c #4E3E3C",
"q.	c #221D1D",
"r.	c #1E0000",
"s.	c #310807",
"t.	c #836864",
"u.	c #826662",
"v.	c #160807",
"w.	c #362929",
"x.	c #342625",
"y.	c #1D1A1A",
"z.	c #4F4C4C",
"A.	c #020101",
"B.	c #3C2926",
"C.	c #5E4442",
"D.	c #654A46",
"E.	c #322728",
"F.	c #423E3F",
"G.	c #AC645A",
"H.	c #42231E",
"I.	c #4C2722",
"J.	c #3F2D2C",
"K.	c #473937",
"L.	c #221A19",
"M.	c #070707",
"N.	c #222020",
"O.	c #333030",
"P.	c #221210",
"Q.	c #1E1513",
"R.	c #9A594F",
"S.	c #010000",
"T.	c #3E2421",
"U.	c #7A625E",
"V.	c #604B49",
"W.	c #080000",
"X.	c #261D1C",
"Y.	c #1B1211",
"Z.	c #464343",
"`.	c #64261D",
" +	c #512D27",
".+	c #42201B",
"++	c #3C2E2D",
"@+	c #6D5957",
"#+	c #6A5552",
"$+	c #5F4C49",
"%+	c #4F3D3B",
"&+	c #3F312F",
"*+	c #281D1D",
"=+	c #281C1A",
"-+	c #484241",
";+	c #6A6465",
">+	c #1C1616",
",+	c #4B4748",
"'+	c #171516",
")+	c #060504",
"!+	c #120F0D",
"~+	c #1A1616",
"{+	c #23110D",
"]+	c #856C69",
"^+	c #836C69",
"/+	c #6D5856",
"(+	c #1A1313",
"_+	c #3C3839",
":+	c #2B2121",
"<+	c #282424",
"[+	c #1C1716",
"}+	c #876F69",
"|+	c #89716C",
"1+	c #88716D",
"2+	c #846C68",
"3+	c #715A57",
"4+	c #130D0D",
"5+	c #343333",
"6+	c #535050",
"7+	c #0E0D0D",
"8+	c #1B1A1A",
"9+	c #766F70",
"0+	c #372927",
"a+	c #191413",
"b+	c #5D4947",
"c+	c #735D59",
"d+	c #856C68",
"e+	c #765F5B",
"f+	c #191818",
"g+	c #131212",
"h+	c #322A2B",
"i+	c #343132",
"j+	c #1E1C1D",
"k+	c #141111",
"l+	c #0B0605",
"m+	c #2E0000",
"n+	c #331C18",
"o+	c #725F5E",
"p+	c #856D68",
"q+	c #866E6A",
"r+	c #735C58",
"s+	c #040404",
"t+	c #454242",
"u+	c #302D2E",
"v+	c #272120",
"w+	c #7F6662",
"x+	c #6F5451",
"y+	c #2E2D2D",
"z+	c #544344",
"A+	c #806662",
"B+	c #6F5855",
"C+	c #7E6562",
"D+	c #908485",
"E+	c #B09A9B",
"F+	c #1E0301",
"G+	c #856E68",
"H+	c #5B4644",
"I+	c #2F2423",
"J+	c #0B0A0A",
"K+	c #22201F",
"L+	c #C7A7AA",
"M+	c #71423C",
"N+	c #040303",
"O+	c #040101",
"P+	c #100000",
"Q+	c #98898C",
"R+	c #390000",
"S+	c #9C8C8F",
"T+	c #635F5F",
"U+	c #5E4E4C",
"V+	c #3F3230",
"W+	c #020202",
"X+	c #0D0201",
"Y+	c #2B2929",
"Z+	c #444243",
"`+	c #786C6D",
" @	c #685D5D",
".@	c #100F0F",
"+@	c #231B18",
"@@	c #090808",
"#@	c #161313",
"$@	c #100807",
"%@	c #543031",
"&@	c #62595A",
"*@	c #645D5D",
"=@	c #110E0E",
"-@	c #0B0000",
";@	c #484343",
">@	c #6B6261",
",@	c #150F0D",
"'@	c #6B6260",
")@	c #171212",
"!@	c #6C5B59",
"~@	c #7A635F",
"{@	c #120000",
"]@	c #230000",
"^@	c #332827",
"/@	c #79625E",
"(@	c #826864",
"_@	c #433939",
":@	c #2B201F",
"<@	c #110D0D",
"[@	c #201A19",
"}@	c #3B0000",
"|@	c #050100",
"1@	c #533D3A",
"2@	c #7D6460",
"3@	c #856C67",
"4@	c #070403",
"5@	c #0E0301",
"6@	c #4E3E3B",
"7@	c #7B635F",
"8@	c #6A4E4B",
"9@	c #090201",
"0@	c #624E4A",
"a@	c #7A615D",
"b@	c #51302E",
"c@	c #080201",
"d@	c #6D5553",
"e@	c #7E6662",
"f@	c #371311",
"g@	c #301410",
"h@	c #100C0B",
"i@	c #614C4A",
"j@	c #624D49",
"k@	c #816763",
"l@	c #0E0B0B",
"m@	c #4D3B39",
"n@	c #6D5652",
"o@	c #0A0807",
"p@	c #2A0606",
"q@	c #190201",
"r@	c #332A29",
"s@	c #775F5C",
"t@	c #060000",
"u@	c #1C1514",
"v@	c #140908",
"w@	c #342624",
"x@	c #504B4C",
"y@	c #594F4D",
"z@	c #908384",
"A@	c #7C5954",
"B@	c #59423E",
"C@	c #645F60",
"D@	c #463838",
"E@	c #33130A",
"F@	c #7B0600",
"G@	c #781E14",
"H@	c #2E2525",
"I@	c #555151",
"J@	c #8C8081",
"K@	c #604C4C",
"L@	c #52221B",
"M@	c #8D1303",
"N@	c #575455",
"O@	c #070404",
"P@	c #8A0C00",
"Q@	c #7A7273",
"R@	c #5F2929",
"S@	c #C16F63",
"T@	c #4C0000",
"U@	c #3E0000",
"V@	c #762B1E",
"W@	c #676162",
"X@	c #736D6E",
"Y@	c #7F7576",
"Z@	c #862C1D",
"`@	c #5E5B5C",
" #	c #6B6566",
".#	c #430000",
"+#	c #050303",
"@#	c #140000",
"##	c #380000",
"$#	c #726B6C",
"%#	c #363333",
"&#	c #231F1F",
"*#	c #050505",
"=#	c #1A0000",
"-#	c #5B0000",
";#	c #3D393A",
">#	c #4C4949",
",#	c #343031",
"'#	c #3B1512",
")#	c #2A2727",
"!#	c #0C0A09",
"~#	c #151111",
"{#	c #140403",
"]#	c #251D1D",
"^#	c #151110",
"/#	c #140E0C",
"(#	c #1F1B1B",
"_#	c #2E2B2B",
":#	c #080403",
"<#	c #181414",
"[#	c #392D2D",
"}#	c #241D1C",
"|#	c #948788",
"1#	c #6E6869",
"2#	c #0F0B0B",
"3#	c #343232",
"4#	c #372C2D",
"5#	c #242020",
"6#	c #383535",
"7#	c #201D1D",
"8#	c #1C1818",
"9#	c #3C3A3B",
"0#	c #5C5858",
"a#	c #564F50",
"b#	c #615B5B",
"c#	c #7A7172",
"d#	c #97898A",
"e#	c #3F3B3C",
"f#	c #312D2E",
"g#	c #A99596",
"h#	c #BFA3A5",
"i#	c #7B7273",
"j#	c #6F6869",
"k#	c #383233",
"l#	c #797172",
"m#	c #2E2626",
"n#	c #3E1E19",
"o#	c #312E2E",
"p#	c #242223",
"q#	c #464242",
"r#	c #504D4D",
"s#	c #1C0404",
"t#	c #120B0B",
"u#	c #100E0E",
"v#	c #100404",
"w#	c #271A19",
"x#	c #251817",
"y#	c #1E1919",
"z#	c #524F4F",
"A#	c #0D0807",
"B#	c #201413",
"C#	c #1F1312",
"D#	c #2F201F",
"E#	c #272626",
"F#	c #544E4F",
"G#	c #2B1D1C",
"H#	c #3F3B3B",
"I#	c #382827",
"J#	c #332322",
"K#	c #4A4647",
"L#	c #342524",
"M#	c #0F0C0C",
"N#	c #312C2C",
"O#	c #392F2F",
"P#	c #2F2727",
"Q#	c #3E2E2D",
"R#	c #6E5855",
"S#	c #3A2D2B",
"T#	c #6A5452",
"U#	c #705E5D",
"V#	c #281613",
"W#	c #231210",
"X#	c #140E0D",
"Y#	c #584543",
"Z#	c #342726",
"`#	c #090101",
" $	c #0B0201",
".$	c #241A19",
"+$	c #060100",
"@$	c #4A3B3A",
"#$	c #140D0C",
"$$	c #050202",
"%$	c #030000",
"&$	c #0C0202",
"*$	c #0C0302",
"                                      . + @ #                             ",
"                                    . $ % + + & *                         ",
"                                % = = - ; > = + . , '                     ",
"                              % ) + ! ~ { - ] ^ / + ( _                   ",
"                              : = < [ } . + = < + + ( |                   ",
"                            + 1 . 2 3 4 2 + + + + = 5 '                   ",
"                            6 + 7 8 4 9 = 0 a b b , c d                   ",
"                            2 e + 4 f ] 2 g + h b i c '                   ",
"                            , j . 0 2 ] + . k l m n c                     ",
"                              # a o p q r s l t u v                       ",
"                            w x y z A B C D E F G H                       ",
"                            I J y b K L M N O P Q R S =                   ",
"                            T U V W X Y Z `  ...+.@.#.$. .b               ",
"                            %.&.*.: =.-.;.>.,.'.).!.~.B {..               ",
"                            5 ].% = % ^.W /./.(._.:.<.[.}.|.              ",
"                          i 1.2.3.4 9 y 4.5.*.6.7.8.9.0.a.b.c.d.e.        ",
"                        f.g.+ 2.h.i.j.g * *.*.e.k.l.d m.n.o.p.q.6.        ",
"                        r.s.+ t.u.+ / v.d w.x.y.z.z.d d A.B.C.D.E.F.      ",
"                      G.H.I.J.+ h.[ [ d d K.L.M.k.k.d d N.O.d P.Q.z.z.    ",
"                    R.R.S.T.d + + U.V.d W.I X.Y.z.z.d d F.F.d d Q.Z.z.    ",
"                    `. +.+d ++@+#+Y $+%+4.&+*+=+-+;+>+d ,+F.'+)+!+~+z.    ",
"                      {+S.d l < ]+^+/+#+y *.(+_+k.k.:+d N.<+F.!+!+F.k.    ",
"                      E.d d [+}+|+1+2+3+: d 4+5+k.6+:+d d 7+F.d d e.8+    ",
"                      9+d 0+a+b+c+d+= + e+, f+g+~+O.h+d d i+j+d d k+l+    ",
"                      ;+m+n+d o+# p+q+[ r+: s+e.z.t+N.d u+F.d d d l+A.    ",
"                    z.9+m+S.d v+# > p+w+x+b v y+z.Z.d d F.F.d d d l+d     ",
"                    F.z+m+r.d d g . A+B+C+n l+d d ~+d d O.{+d d d d d l+  ",
"                    O.~+D+E+m+F+g y # G+H+*.*.d !+d O.d I+0+d J+d M.K+l+  ",
"                  d E.F.L+L+m+m+M+y j % }.: = d d d O.d 0+0+N+J+d l+l+O+  ",
"                  P+P+;+D+Q+m+R+S+: T+U+V+*.+ d d d Q.d ~+~+M.W+d c X+'   ",
"                  S.d Y+D+D+.+.+S+Z+/.`+ @/.y+.@d +@d @@~+@@#@d $@G G '   ",
"                  d d d k.S+m+%@S+y+6.&@*@Z+Z+.@d d ~+~+=@d Q.d c 5 v '   ",
"                  d d d -@;@L+S+S+>@,@X+'@e.)@d d d d d d d Q.d ' X+c l+  ",
"                d d -@S.d d >+l.~+!@~@v y Z+{@d d d d 0+d   Q.d c S.v d   ",
"                d d ]@m+d d d d ^@/@(@*.g _@g d d d d :@    Q.d d <@[@d ' ",
"                  m+m+}@  d d |@1@2@3@*.c i c d d d d d       d 4@[@<@d n ",
"                            ].5@6@7@8@d 9@i c 5 n S.d         d S.[@d d c.",
"                            *.*.0@a@b@c@i c@d G c.G d       d d d d d S.n ",
"                            : b d@e@f@i g@d S.c S.v d         d d d d h@v ",
"                            , i@j@k@l@s.s.n c c c G d         d d d d d d ",
"                            : . m@n@o@p@q@n r@v X+X+d         d d d d d   ",
"                              *./ s@d {@t@v v u@X+v@S.d       d d d d d   ",
"                              : w@' H.r.S.Q.Q.;+x@{+{+z+y@    d d d c     ",
"                            ].n z@A@B@d P+d d z.C@+@9+D@D@    d d d d     ",
"                          y+E+L+ +.+E@F@G@d H@;+I@z.l.J@;+d   d d d d     ",
"                          K@D+9+L@.+E@M@F@d D@z.z.N@l.l.9+O@  d d d d     ",
"                          z+l.l.R.f.L@P@`.d ;@z.z.k.l.l.Q@)@  d d d d     ",
"                          ;+l.R@S@T@U@V@{+d k.k.W@X@Y@l.l.)@  d d d d     ",
"                      d O.9+Z@E@Z@m+L@T@S.z.z.6+`@ #X@9+Z+d d d d d d     ",
"                    ;@z.z.{+`.m+F@m+.#T@S.N@z.6+`@;+;+k.y++#d d d d d     ",
"                  O.O.O.@#d r.E@V@r.T@##P+F.F.k.W@$#z.z.J+  d d d d d     ",
"              F.%#&#~+~+*#d =#m+`.m+-#E@S.O.O.O.O.;#;#O.d d c d d d d     ",
"              >#,#~+~+~+~+d m+'#V@m+L@E@{+O.O.O.O.O.O.&#  d i d d d d     ",
"            O.)#~+~+)#!#d d m+d E@d d d d &#O.&#~+&#O.  d d c d d d d     ",
"            ~+~+~+@@d W+~#~+{+=@d d d N.Q.=@d d !+~+{#{+d d d d d d d     ",
"          z.z.)#=@d W+~+~+]#^#~+*#d d O./#d d d (#_#{+:#  d d d d d d     ",
"          F.~+d d d ~+d ~#E@~+Q.<#*#d ~+@@d d N.O.        d d d d d d     ",
"          z.k.[#D@F.~+d d O.~+S.~+~+!+d ~#~+~+;#O.      d d ].d d d d     ",
"        S+9+9+D@}#z.O.d d ,#~+d ~+=@d ~#~+~+~+F.O.      d d d d d d d     ",
"      S+|#9+1#d d k.F.=@d ~+O.~+O.d d O.O.(#@@d         '   d   d   d     ",
"    W@k.k.l.>+2#3#k.t+O.d =@O._#&#~+~+~+~+_#O.~+            d   d   d     ",
"    k.,+F.4#2#5#F.6#O.&#*#d O.7#~+~+8#_#O.F.O.F.                c         ",
"  9+9+;+9#d d F.;+F.F.,#~#d F.F.~+~+O.O.O.O.O.                            ",
"9+9+0#D@d a#b#F.k.9+9+O.!+6#F.F.~+~+~+~+~+~+                              ",
"  9+k.E.d Q@l.c#$#d#E+E+d F.e#f#~+~+~+~+~+~+                              ",
"  l.;+S.P+9+;+;+D+g#h#S+;+;@O.~+~+)#O.O.O.                                ",
"  E.;+z+d 9+i#j#;+;+F.9+-#m+O._#~+)#O.O.O.                                ",
"    d {+d k#l#l.l.;+x@O.r.T@m#O.~+~+~+~+~+                                ",
"      d d d d 3#;+D+;+n+L@n#m+T@~+~+~+(#o#                                ",
"          d d d p#;+q#P+L@L@M+{+]#~+O.O.F.r#k.                            ",
"          d d d :+k.O.s#G 5 *.*.t#u#(#O.z.k.k.                            ",
"              d d 9+z+G v#5 b w#*.x#y#e.Z.z#k.O.                          ",
"                d Q.Q.c c A#B#C#*.D#x#e.E#y+:+;+F#                        ",
"                  Q.Q.d |@c G G#*.*.*.e.y+.@d ;#W@H#                      ",
"                    Q.d d c X+*.I#b J#].[@d d 7+K#;+                      ",
"                        d 4@v c.c.L#I#G d d d M#z.z.0+                    ",
"                        d d h@n 5 G#b g -@)@d +#N#z.0+                    ",
"                            d d 5 5 ( *.i c.d d d d S.Q.                  ",
"                              d h@c c.d y n O#d d d d d                   ",
"                                d d c.d *.b , d d d {+d d                 ",
"                                d d d P#Q#R#1.# S#d d d {+{+              ",
"                                  d d b . , T#+ U#b c S.d V#              ",
"                                    d U#*.U#U#b W#i *.X+d d               ",
"                                    ( G ( G ].L#b n X#l+c c c             ",
"                                  *.Y#( Z#* * X#l+l+l+l+`#c c  $X+        ",
"                                  *.: *.*.* .$l+l+l+l+l+X++$c c X+        ",
"                                  b 5 @$*.l+l+l+l+A.    #$X+X+X+X+X+      ",
"                                *.*.G G $$l+l+      c c G X+X+X+X+X+%$    ",
"                                G 5 &$l+l+l+l+    c `#d v@X+X+X+X+X+X+    ",
"                                *.*$l+l+l+    X+G G `#d `#X+X+X+X+X+X+    ",
"                                d 4@l+    5 X+X+c S.d d d d d d c c d     ",
"                                d d d * c.c d d d d d d 4@l+l+l+l+l+l+    "};
