/* XPM */
static char * D4_xpm[] = {
"45 92 385 2",
"  	c None",
". 	c #745D5A",
"+ 	c #65514E",
"@ 	c #7B6561",
"# 	c #846A66",
"$ 	c #323335",
"% 	c #584947",
"& 	c #86716B",
"* 	c #77605D",
"= 	c #846B66",
"- 	c #635553",
"; 	c #252B2E",
"> 	c #715A57",
", 	c #71423C",
"' 	c #866E68",
") 	c #816863",
"! 	c #866F69",
"~ 	c #87716A",
"{ 	c #866F68",
"] 	c #816964",
"^ 	c #6A5552",
"/ 	c #4A3837",
"( 	c #5F3732",
"_ 	c #87706A",
": 	c #866D68",
"< 	c #705E5D",
"[ 	c #3C2C2B",
"} 	c #512D27",
"| 	c #68463E",
"1 	c #958882",
"2 	c #180C0B",
"3 	c #564341",
"4 	c #4C2722",
"5 	c #6D3C38",
"6 	c #382421",
"7 	c #8B766F",
"8 	c #3C2824",
"9 	c #302120",
"0 	c #584442",
"a 	c #231C1B",
"b 	c #79615E",
"c 	c #3C1D1B",
"d 	c #55413F",
"e 	c #0D0201",
"f 	c #4B2925",
"g 	c #331715",
"h 	c #53413F",
"i 	c #53403E",
"j 	c #453332",
"k 	c #181211",
"l 	c #391B19",
"m 	c #352625",
"n 	c #120B0B",
"o 	c #341D1B",
"p 	c #473C3B",
"q 	c #000000",
"r 	c #4F3C3B",
"s 	c #2B1210",
"t 	c #77615C",
"u 	c #363435",
"v 	c #594C4B",
"w 	c #7F6662",
"x 	c #65504E",
"y 	c #544847",
"z 	c #705D5A",
"A 	c #67514E",
"B 	c #020000",
"C 	c #6F5956",
"D 	c #655955",
"E 	c #39383A",
"F 	c #0C0000",
"G 	c #746262",
"H 	c #B09A9B",
"I 	c #635F5F",
"J 	c #574847",
"K 	c #94867E",
"L 	c #210C0A",
"M 	c #968B8B",
"N 	c #3B2D2B",
"O 	c #221615",
"P 	c #332322",
"Q 	c #59423E",
"R 	c #766F70",
"S 	c #120605",
"T 	c #9C8C8F",
"U 	c #E7B5B8",
"V 	c #160502",
"W 	c #444243",
"X 	c #4B4749",
"Y 	c #2E2D2D",
"Z 	c #7F615D",
"` 	c #3C3231",
" .	c #C7A7AA",
"..	c #100000",
"+.	c #2E0000",
"@.	c #1E0000",
"#.	c #3B3839",
"$.	c #232222",
"%.	c #0B0000",
"&.	c #856D67",
"*.	c #5B5454",
"=.	c #A99597",
"-.	c #322728",
";.	c #806B69",
">.	c #010000",
",.	c #050000",
"'.	c #290000",
").	c #837879",
"!.	c #4F4C4C",
"~.	c #331C18",
"{.	c #B77870",
"].	c #170B09",
"^.	c #070707",
"/.	c #2F2D2D",
"(.	c #181717",
"_.	c #1C1B1B",
":.	c #4E4847",
"<.	c #604C4C",
"[.	c #5B5859",
"}.	c #211A1A",
"|.	c #1E1513",
"1.	c #343232",
"2.	c #171616",
"3.	c #080808",
"4.	c #1F1E1E",
"5.	c #908485",
"6.	c #877D7E",
"7.	c #423E3F",
"8.	c #4A3734",
"9.	c #120F0D",
"0.	c #0F0E0E",
"a.	c #373333",
"b.	c #614D4A",
"c.	c #8E7C74",
"d.	c #754F4A",
"e.	c #676163",
"f.	c #736D6E",
"g.	c #6D6667",
"h.	c #140000",
"i.	c #454142",
"j.	c #4C4949",
"k.	c #6A6465",
"l.	c #2B2121",
"m.	c #171210",
"n.	c #1A1616",
"o.	c #333030",
"p.	c #0B0A0A",
"q.	c #4E3C3A",
"r.	c #786F70",
"s.	c #5A5555",
"t.	c #7A7172",
"u.	c #696364",
"v.	c #2B2929",
"w.	c #4E3E3D",
"x.	c #211C1C",
"y.	c #655553",
"z.	c #7A7171",
"A.	c #222020",
"B.	c #764944",
"C.	c #171212",
"D.	c #0C0A09",
"E.	c #1C1616",
"F.	c #282424",
"G.	c #100F0F",
"H.	c #553935",
"I.	c #484343",
"J.	c #343031",
"K.	c #382E2E",
"L.	c #110E0E",
"M.	c #090808",
"N.	c #2B2525",
"O.	c #0B0605",
"P.	c #877069",
"Q.	c #1F1B1B",
"R.	c #423533",
"S.	c #151111",
"T.	c #463433",
"U.	c #302726",
"V.	c #9A594F",
"W.	c #0F0C0C",
"X.	c #1E1715",
"Y.	c #372927",
"Z.	c #231B18",
"`.	c #251D1D",
" +	c #7E5F5A",
".+	c #EA8675",
"++	c #140E0C",
"@+	c #2B201F",
"#+	c #0C0908",
"$+	c #614F4D",
"%+	c #595557",
"&+	c #716D6D",
"*+	c #686464",
"=+	c #020202",
"-+	c #5A5657",
";+	c #B38B86",
">+	c #241B1A",
",+	c #433E3E",
"'+	c #7B6966",
")+	c #854D47",
"!+	c #332423",
"~+	c #837A7B",
"{+	c #592B29",
"]+	c #4C0000",
"^+	c #421B17",
"/+	c #23110D",
"(+	c #5C3F3C",
"_+	c #3A2D2B",
":+	c #1A0100",
"<+	c #0C0604",
"[+	c #090000",
"}+	c #89736D",
"|+	c #070000",
"1+	c #090101",
"2+	c #130E0D",
"3+	c #020101",
"4+	c #201411",
"5+	c #0B0403",
"6+	c #211A19",
"7+	c #151010",
"8+	c #120000",
"9+	c #200505",
"0+	c #1C0C0B",
"a+	c #45312F",
"b+	c #100404",
"c+	c #150B0A",
"d+	c #270100",
"e+	c #481D1C",
"f+	c #79625E",
"g+	c #58332E",
"h+	c #170705",
"i+	c #310807",
"j+	c #573F3D",
"k+	c #6B4D48",
"l+	c #361917",
"m+	c #433939",
"n+	c #4E4343",
"o+	c #83797B",
"p+	c #97888A",
"q+	c #C88076",
"r+	c #2E0605",
"s+	c #4E4A4C",
"t+	c #857A7B",
"u+	c #766E6F",
"v+	c #1B0000",
"w+	c #130000",
"x+	c #8C8081",
"y+	c #938687",
"z+	c #A08F92",
"A+	c #948788",
"B+	c #170605",
"C+	c #200C0B",
"D+	c #6A3D3C",
"E+	c #3D1C18",
"F+	c #908385",
"G+	c #8D8182",
"H+	c #9E8D8F",
"I+	c #AE999A",
"J+	c #AC9798",
"K+	c #6E6869",
"L+	c #513C3A",
"M+	c #1D0100",
"N+	c #040000",
"O+	c #493031",
"P+	c #715858",
"Q+	c #190807",
"R+	c #4A3A3A",
"S+	c #92696A",
"T+	c #7F7576",
"U+	c #A39193",
"V+	c #6B5D5B",
"W+	c #33130A",
"X+	c #A18E8F",
"Y+	c #3E0000",
"Z+	c #6D6768",
"`+	c #7F7677",
" @	c #7A7273",
".@	c #575455",
"+@	c #5C5555",
"@@	c #52221B",
"#@	c #5A5758",
"$@	c #524F4F",
"%@	c #4B4748",
"&@	c #433F40",
"*@	c #3F3B3C",
"=@	c #0A0000",
"-@	c #160807",
";@	c #64261D",
">@	c #361612",
",@	c #585556",
"'@	c #504D4D",
")@	c #282626",
"!@	c #363333",
"~@	c #1C1818",
"{@	c #2E0F0D",
"]@	c #010101",
"^@	c #0E0C0A",
"/@	c #383535",
"(@	c #2A2727",
"_@	c #391310",
":@	c #321A16",
"<@	c #231F1F",
"[@	c #050505",
"}@	c #171515",
"|@	c #312E2E",
"1@	c #1B0201",
"2@	c #0E0301",
"3@	c #464343",
"4@	c #413D3E",
"5@	c #090201",
"6@	c #060504",
"7@	c #120E0E",
"8@	c #171413",
"9@	c #161313",
"0@	c #181414",
"a@	c #040404",
"b@	c #110402",
"c@	c #2E2B2B",
"d@	c #494646",
"e@	c #353232",
"f@	c #3A3636",
"g@	c #221E1F",
"h@	c #343131",
"i@	c #1A1717",
"j@	c #312D2E",
"k@	c #646061",
"l@	c #726C6C",
"m@	c #454243",
"n@	c #676263",
"o@	c #696565",
"p@	c #302C2C",
"q@	c #625C5D",
"r@	c #665F60",
"s@	c #555153",
"t@	c #2D2B2C",
"u@	c #3D393A",
"v@	c #504B4C",
"w@	c #5C5758",
"x@	c #160E0E",
"y@	c #030000",
"z@	c #271A19",
"A@	c #41302F",
"B@	c #241615",
"C@	c #725E5C",
"D@	c #2E1F1E",
"E@	c #171516",
"F@	c #585354",
"G@	c #2C1D1C",
"H@	c #454242",
"I@	c #261F1E",
"J@	c #544344",
"K@	c #736667",
"L@	c #060100",
"M@	c #453433",
"N@	c #3B1717",
"O@	c #4F494A",
"P@	c #3F2825",
"Q@	c #191717",
"R@	c #0E0C0C",
"S@	c #180F0F",
"T@	c #080000",
"U@	c #53413E",
"V@	c #5D4846",
"W@	c #503D3C",
"X@	c #4A3836",
"Y@	c #3D2E2D",
"Z@	c #1A0B08",
"`@	c #2F1F1D",
" #	c #4C3D3C",
".#	c #040202",
"+#	c #372726",
"@#	c #271B1A",
"##	c #1B1413",
"$#	c #241716",
"%#	c #170D0C",
"&#	c #473534",
"*#	c #251918",
"=#	c #342928",
"-#	c #1A1110",
";#	c #0D0302",
">#	c #45302E",
",#	c #4D3B39",
"'#	c #3F2F2E",
")#	c #342524",
"!#	c #070403",
"                                              . + @                                       ",
"                                            # # $ % . .                                   ",
"                                        & * = = - ; . + > ,                               ",
"                                      ' . ) ' ! ~ { ] . ^ / (                             ",
"                                      # # = = ~ ~ _ : = < [ }                             ",
"                                      | = # = ' 1 ~ + . + / 2                             ",
"                                    3 # 4 5 6 + 7 # 8 9 0 9 a                             ",
"                                    # b 4 c + 0 / d # + 0 e e                             ",
"                                    0 f g . h + . 0 i j 9 k                               ",
"                                    / g l + = 7 = # / m n                                 ",
"                                    [ o 0 # ~ ~ 0 0 p q q                                 ",
"                                      0 r s ~ t 0 u v 9 9                                 ",
"                                      + # w . 0 x y ; z A B                               ",
"                                      . . . . + ^ C D E # F 2                             ",
"                            . # G H I J + ^ b # ' # K ; 9 [ [                             ",
"                        7 s L s [ H M q B N # # = # = # O [ P Q R R                       ",
"                    / 7 ! S s s 9 T U q q B . . ; . = ~ 0 + V B W X Y                     ",
"                    Z # s L + + `  . .....+.@.B 0 # = [ 9 9 a Y #.W $.                    ",
"                    # b %.[ &.= *.=.T @.@.+.R -.q F L ;.O >.q Y W u Y k                   ",
"                    + + ,./ = ! I T T '.@.+.).!.q >.~.{.].q q ^./.(._.e e O               ",
"                    0 0 [ 9 + # :.T T ....<.R [.}.q |.} q 1.2.3.(.4.k p 9 V F B           ",
"                    ' ' / %./ I 5.6.R %.@.+.7.7.R >.|.8.9.!.(.(.0.a.b.0 / [ e q           ",
"                    c.d.0 L J e.).f.g.@.h.>.i.j.k.l.q m.n.!.o.$.p.[ q.0 p [ 2 q           ",
"                    # = . ' ~ r.s.k.t...>.q !.u.k.n.q q q v.7.!.(.w.[ x.a O p.p.          ",
"                    K ' 0 7 y.!.z.T ).o.q q k.R q o.q q q q A.l.B.Q C.q 0.(.(.(.          ",
"                    c.# + ~ + k.5.k.!.D.q E.[.7.F.A.q q q q q n.Q Q p.q G.4.x.0           ",
"                    . H.' # / <.I.J.n.q q }.o.K.7.q q q L.n.q n.M.o.7.q q p.N.+ O.        ",
"                    / ' P.# g ~.q n.o.Q.q q R.o.8.D.q q o.q q q S.o.n.n.#.I T.0 U.        ",
"                    # ' 0 . d.V.q W.Q.o.q X.Y.~.Z.7.q q o.L.q S.n.o.n.`.[ s 0 0 O q       ",
"                    [ q #  +d..+++q q Y.8.@+#+q M.n.q q A.n.o.n.n.n.n.q / / 0 $+U.O.      ",
"                    %+&+*+*. .).n.q q |.q q =+S.n.n.q q q q 9.n.W.q   q + + 0 y.k B       ",
"                    %+-+&+&+;+!.o.q q q q q n.n.n.L.q q q q >+++q     q + C 0 y.O.B       ",
"                    &+#.,+'+|.)+++q q q q q q q q q q q q q q q q       O !+[ + e B       ",
"                  J ~+M {+]+~.>+q q q q q q q q |.m.q q q q q q q         O # V 9 0 F     ",
"                  9 &+M ^+/+(+q q q q q q q q q q 9.q q q q q q q         2 + F 9 + V     ",
"                  L &+0 q |.q /+q B _+q q q q q q q q q q q q q             ;.,.[ = 9     ",
"                  q c :+q /+<+q B [+[ # }+' |+q q q 1+O 2+3+q               . ,.# . V q   ",
"                  q c q q 4+/+>.>.F V . ' P.L 5+>.V V O 6+7+q               F 8++ 0 9 q   ",
"                q 9+0+q   Z.k ` 2 F # . < . a+L 2 b+F O c+a q                 V F . p q   ",
"                d+e+q q   |.a ` J s L C + f+g+# h+2 B B F U.q                 V B q O q   ",
"                s i+q q   ~.e 2 0 ~ = + + j+c 4 V 2 q q O p k                 F B q q q q ",
"                8+F q ,.` k+U.+ . + 0 # ' c l+[ c F q q O # A                   L q q q q ",
"                q q d+q q ~.F q #._.B k B I m+q B O.G ~+I # # B                 s s 0+q q ",
"                q q d+W.q |...q #.W O.%+x.M n+q m+o+p+). .q+q+<.k.              L d+r+q q ",
"              q 0+^+B #.q @.@.H &+s+s+&+&+%+x.q k.p+t+u+k.T =.@.k.              V d+d+q q ",
"              q 4 4 q (.q v+w+T x+).y+z+H A+T +.).).).k.k.5.T ~.B+              q [+C+q q ",
"            L q D+E+q $.l.....T F+G+H+I+H T J++.T T R K+t.z+J+L+~.              q >.%.q q ",
"          d+M+%.c N+C.L.q >.O+T T H H H H H H +.H H ).R 5.H  .T P+                q q >.  ",
"          c %.Q+8+q @.q R+S+T F+x+5.5.5.5.T S+@.5.5.R R T+U+H T V+                q q B   ",
"          g ,.L ,.W++.q T H H G+).).).).).).<.+.).).k.K+R T X+).k.                q q q   ",
"          d+,.8+Y+Y+~.7.R Z+[.`+G+). @k.k.k.>.l.[.[.7.j..@).).+@!.                [+q ,.q ",
"          d+,.8+@@@@>.7.[.#@$@7.7.7.%@!.[.[.D.q o.o.o.&@j.!.%@*@o.              ,.=@-@q q ",
"          s %.;@@@>@q o.,@'@%@7.7.7.7.7.7.A.=+S.)@p.7.7.7.7.7.!@~@              {@,.E+q q ",
"          q q q /+]@^@n.!.7.7./@o.n.L.q n.q n.L.q q /@7./@(@Q.                L C+%._@q q ",
"        q q q q q 9.:@q !.j.7.<@A.q [@n.L.q q q q }@o.<@n.n.|@              q q %.N+1@2@q ",
"        q q q >.>.q W+q 3@!.7.L.q q q q q q q q q o.o.o.o.!@4@            q q q F q V 5@q ",
"      q q q q q 9.6@n.q 7.[.v.q q n.=+q q q q q v.7.7.7.7.7.                    %.,.L q q ",
"      _.q q q 7@8@9.<@o.<@L.q 9@M.n.S.q q =+S.n.7.7.!.7.7.!@                    d+d+-@q   ",
"      q p.q q L.n.M.o.7.)@q [@n.n.~@o.q =+0@n.n.J.7.7.7.7.n.                    q ,.q B   ",
"    W q $.S.=+q o.n.<@)@a@=+0@    (@<@q 0@o.Q.n.n.n.n.n.q                       q ,.b@q   ",
"  !.l.o.o.n.0@q n.J.7.q =+0@      c@n.n.n.o.o.o.o.o.o./@7.                    U.L B s     ",
"  [.q d@e@*@f@g@<@(@D.=+0@        n.n.n.Q.o.h@*@7.7.7.7.7.                  9 q V 9 F     ",
"k.l.7.!.d@!@7.7.(@i@q 0@          !@J.n.o.o.7.7.7.7.*@j@n.                                ",
"I.R ).k@l@I %+m@q q               7.7.n.n.Q.c@o.o.o.o.n.                                  ",
"I.k.). @n@~+o@%+q q               7.p@<@n.n.n.n.n.Q.|@o.                                  ",
"9.q@r@).s@I W t@q q               7.n.o.o.o.o.u@7.J.n.                                    ",
"  v@w@Y p.,.|+q x@2               o.o.n.|@o.o.o.o.o.q                                     ",
"  9.$.#.q q q y@,.[ q             |@~@n.~@o.Q.n.n.n.                                      ",
"  q q Y q 2@9 U.%.9 9 ~.          n.n.n.n.n.n.n.(@7.>.                                    ",
"    q q q z@9 A@O.9 z@F           o.M.n.n.Q.j@7.[.!.9.q                                   ",
"      C.F B@9 9 C@0 D@F           7.E@n.(@o.*@F@R k.I.q                                   ",
"      q N+F G@[ 0 < 0 q q         !@7.<@o.H@[.R R T !.....                                ",
"        q e F O r 0 r q I@          q o.o.u@).5.J@K@H k.+.Y+                              ",
"          L@e 9 M@[ 9 q V           q D.Q.c@T S+N@J@ .5.J@..                              ",
"          q q 2 [ q.J p L q           q [@0@O@, +.J@&+Z+W e B                             ",
"              O.9 / [ + P@/ a           q =+S.o.S+n+%+W Q@9 2                             ",
"                O q.[ C + O U.            q q R@} n+s+p.F B@O                             ",
"                a [ S@A@9 9 U.                q q q q q T@F [+q                           ",
"                  U.U@9 V@+ W@                  q q q q q q q q q                         ",
"                  O.9 X@. + +                   q q q F q q q q q                         ",
"                    + / = # 0 J                     2 F V F V V L                         ",
"                    . ;.J Y@[ #                     q B q O Z@`@[ q                       ",
"                     #O J J [ + J                     O..#+#@#9 9 U.                      ",
"                    O !+U.U.##O.O.                      O.$#[ L [ [                       ",
"                  O %#O.O.O.O.O.O.                        B [ [ [ &#/ *#                  ",
"                  [ O.O.O.O.O.O.O.                          =#[ [ / / /                   ",
"                  -#O.O.O.O.O.q                               [ [ . b.0                   ",
"                q O.O.O.O.O.O.O.                            / / / 0 0 0 9                 ",
"                ;#O.O.O.O.O.O.3+                          s 0 >#/ 0 ,#/ [ 2               ",
"                O.O.O.O.O.O.O.                        / g ,.T.0 '#&#/ / [ O               ",
"                q q q q .#O.                    + s L L L O q O )#[ [ 9 V e               ",
"                    !#q q Y.                  . V V V V F e B B F L L O O.O.              "};
