/* XPM */
static char * D5_xpm[] = {
"38 93 580 2",
"  	c None",
". 	c #87716A",
"+ 	c #866F6D",
"@ 	c #846A66",
"# 	c #745D5A",
"$ 	c #866E68",
"% 	c #867069",
"& 	c #846B66",
"* 	c #856D67",
"= 	c #252B2E",
"- 	c #635553",
"; 	c #877069",
"> 	c #836963",
", 	c #7E5F5A",
"' 	c #5D4846",
") 	c #2B2E31",
"! 	c #313234",
"~ 	c #4D3B3A",
"{ 	c #221615",
"] 	c #81655F",
"^ 	c #624E4B",
"/ 	c #564341",
"( 	c #53403F",
"_ 	c #180C0B",
": 	c #5E4A48",
"< 	c #594543",
"[ 	c #53413F",
"} 	c #231C1B",
"| 	c #181211",
"1 	c #331715",
"2 	c #210C0A",
"3 	c #4A3837",
"4 	c #79615E",
"5 	c #6C5552",
"6 	c #5A4845",
"7 	c #554240",
"8 	c #493936",
"9 	c #020000",
"0 	c #584442",
"a 	c #442C29",
"b 	c #8B766F",
"c 	c #705A57",
"d 	c #513E3C",
"e 	c #5C4846",
"f 	c #574341",
"g 	c #040303",
"h 	c #050100",
"i 	c #65514E",
"j 	c #5A4744",
"k 	c #564441",
"l 	c #281D1C",
"m 	c #000000",
"n 	c #52403E",
"o 	c #4F3C3B",
"p 	c #0C0000",
"q 	c #705956",
"r 	c #312322",
"s 	c #7F6863",
"t 	c #64504D",
"u 	c #311E1C",
"v 	c #564442",
"w 	c #3C2C2B",
"x 	c #2B1210",
"y 	c #221311",
"z 	c #483A39",
"A 	c #363132",
"B 	c #1B0806",
"C 	c #160502",
"D 	c #846B65",
"E 	c #604D4B",
"F 	c #403534",
"G 	c #544544",
"H 	c #291413",
"I 	c #28100E",
"J 	c #23110D",
"K 	c #B09A9B",
"L 	c #484343",
"M 	c #6C5653",
"N 	c #998E85",
"O 	c #3D3334",
"P 	c #51413F",
"Q 	c #5D4946",
"R 	c #6A5451",
"S 	c #AF8D8C",
"T 	c #906461",
"U 	c #7F6969",
"V 	c #8A7172",
"W 	c #1E1513",
"X 	c #79625E",
"Y 	c #856F68",
"Z 	c #604C4B",
"` 	c #433535",
" .	c #644944",
"..	c #97898A",
"+.	c #AF9A9B",
"@.	c #A18F92",
"#.	c #A58585",
"$.	c #6E5A59",
"%.	c #6E4540",
"&.	c #6D5453",
"*.	c #573734",
"=.	c #271D1C",
"-.	c #67514E",
";.	c #826E68",
">.	c #614C4A",
",.	c #584543",
"'.	c #89534C",
").	c #AD989A",
"!.	c #A49294",
"~.	c #AB9798",
"{.	c #6E6768",
"].	c #4F4B4D",
"^.	c #595557",
"/.	c #3B3839",
"(.	c #634340",
"_.	c #6A5150",
":.	c #532F29",
"<.	c #100000",
"[.	c #070000",
"}.	c #423533",
"|.	c #79645E",
"1.	c #3E2E2D",
"2.	c #5E4A47",
"3.	c #433939",
"4.	c #A59294",
"5.	c #A79496",
"6.	c #AA9698",
"7.	c #554D4E",
"8.	c #5A4443",
"9.	c #6D5554",
"0.	c #360808",
"a.	c #3E0000",
"b.	c #4E4A4C",
"c.	c #5B4844",
"d.	c #160807",
"e.	c #181717",
"f.	c #A79396",
"g.	c #A99597",
"h.	c #8A7C7D",
"i.	c #261E1D",
"j.	c #362B2A",
"k.	c #302726",
"l.	c #232222",
"m.	c #634D4A",
"n.	c #77615F",
"o.	c #400707",
"p.	c #0E0301",
"q.	c #171616",
"r.	c #2E2D2D",
"s.	c #9F8D8F",
"t.	c #5F5959",
"u.	c #353233",
"v.	c #503E3C",
"w.	c #695250",
"x.	c #7F6766",
"y.	c #2F0A09",
"z.	c #444243",
"A.	c #201F1F",
"B.	c #0B0808",
"C.	c #544240",
"D.	c #4D4848",
"E.	c #635F5F",
"F.	c #5C5859",
"G.	c #837475",
"H.	c #4A4747",
"I.	c #403E3E",
"J.	c #806B69",
"K.	c #302120",
"L.	c #725C5B",
"M.	c #876E6D",
"N.	c #1B0B0B",
"O.	c #3A3838",
"P.	c #504D4E",
"Q.	c #020202",
"R.	c #67514F",
"S.	c #454344",
"T.	c #686464",
"U.	c #625E5E",
"V.	c #666161",
"W.	c #726969",
"X.	c #424040",
"Y.	c #443D3C",
"Z.	c #7F6662",
"`.	c #685451",
" +	c #0D0201",
".+	c #42231E",
"++	c #826A68",
"@+	c #947D7C",
"#+	c #2E0101",
"$+	c #2E0000",
"%+	c #3C3A3A",
"&+	c #5E5A5A",
"*+	c #0A0808",
"=+	c #2F2625",
"-+	c #403D3D",
";+	c #646060",
">+	c #252425",
",+	c #544442",
"'+	c #715A57",
")+	c #5B5859",
"!+	c #87706D",
"~+	c #7B6663",
"{+	c #52221B",
"]+	c #180909",
"^+	c #6A6666",
"/+	c #615D5D",
"(+	c #0D0C0C",
"_+	c #5A5757",
":+	c #676262",
"<+	c #605C5D",
"[+	c #2B2727",
"}+	c #373333",
"|+	c #4A4141",
"1+	c #594C4C",
"2+	c #4B4444",
"3+	c #766F70",
"4+	c #78615F",
"5+	c #856B67",
"6+	c #6A6465",
"7+	c #716B6C",
"8+	c #696465",
"9+	c #343131",
"0+	c #1A1616",
"a+	c #0D0D0D",
"b+	c #3E3C3C",
"c+	c #3E3230",
"d+	c #473C3B",
"e+	c #171212",
"f+	c #1D1C1C",
"g+	c #292828",
"h+	c #4C494A",
"i+	c #7C6A68",
"j+	c #8C6968",
"k+	c #423E3F",
"l+	c #5B4745",
"m+	c #7C6662",
"n+	c #776F70",
"o+	c #524E4E",
"p+	c #333030",
"q+	c #3D3A3A",
"r+	c #1F1B1B",
"s+	c #585454",
"t+	c #4B4849",
"u+	c #322A29",
"v+	c #3C3231",
"w+	c #2B2525",
"x+	c #555152",
"y+	c #7E6561",
"z+	c #88706C",
"A+	c #836965",
"B+	c #2D2929",
"C+	c #473E3D",
"D+	c #4A3734",
"E+	c #545151",
"F+	c #444041",
"G+	c #282425",
"H+	c #353333",
"I+	c #211D1D",
"J+	c #282424",
"K+	c #4F4C4C",
"L+	c #0B0A0A",
"M+	c #866C68",
"N+	c #765F5C",
"O+	c #0B0605",
"P+	c #816864",
"Q+	c #514C4C",
"R+	c #544344",
"S+	c #372927",
"T+	c #110E0E",
"U+	c #221E1F",
"V+	c #383535",
"W+	c #6A5450",
"X+	c #695451",
"Y+	c #785A56",
"Z+	c #463838",
"`+	c #543E3B",
" @	c #331C18",
".@	c #0C0A09",
"+@	c #282626",
"@@	c #826965",
"#@	c #765E5A",
"$@	c #80625E",
"%@	c #59423E",
"&@	c #040404",
"*@	c #232020",
"=@	c #7A625E",
"-@	c #715956",
";@	c #7C6562",
">@	c #1C1615",
",@	c #343031",
"'@	c #120F0D",
")@	c #1A1817",
"!@	c #060505",
"~@	c #241A19",
"{@	c #7A625F",
"]@	c #6C5452",
"^@	c #816763",
"/@	c #140807",
"(@	c #231B18",
"_@	c #787071",
":@	c #413E40",
"<@	c #4B4748",
"[@	c #2B2929",
"}@	c #221210",
"|@	c #241B1A",
"1@	c #5A4644",
"2@	c #7C6360",
"3@	c #5F4A47",
"4@	c #4A3836",
"5@	c #7A615E",
"6@	c #1B1414",
"7@	c #211C1C",
"8@	c #2D2221",
"9@	c #654F4D",
"0@	c #564340",
"a@	c #705552",
"b@	c #473634",
"c@	c #968B8B",
"d@	c #481D1C",
"e@	c #050000",
"f@	c #55413F",
"g@	c #3F2F2E",
"h@	c #3E2D2C",
"i@	c #6D5754",
"j@	c #624A47",
"k@	c #53403E",
"l@	c #391310",
"m@	c #100C0B",
"n@	c #160E0E",
"o@	c #604B49",
"p@	c #755D59",
"q@	c #6D5653",
"r@	c #090101",
"s@	c #010000",
"t@	c #070505",
"u@	c #5D4847",
"v@	c #69514D",
"w@	c #342625",
"x@	c #310807",
"y@	c #4F3331",
"z@	c #332120",
"A@	c #78605C",
"B@	c #7C625F",
"C@	c #292120",
"D@	c #120000",
"E@	c #1E0C0B",
"F@	c #2D1D1B",
"G@	c #533D3B",
"H@	c #100301",
"I@	c #180604",
"J@	c #1F0B08",
"K@	c #634E4C",
"L@	c #060303",
"M@	c #1D0A07",
"N@	c #080000",
"O@	c #3C1D1B",
"P@	c #230D0B",
"Q@	c #301F1E",
"R@	c #1C1B1B",
"S@	c #3F3433",
"T@	c #6E5A58",
"U@	c #010101",
"V@	c #270F0D",
"W@	c #573F3D",
"X@	c #4C2722",
"Y@	c #5E3531",
"Z@	c #0F0201",
"`@	c #302221",
" #	c #4A3937",
".#	c #1E1110",
"+#	c #040000",
"@#	c #4E3735",
"##	c #6F413C",
"$#	c #1D100F",
"%#	c #0B0000",
"&#	c #655553",
"*#	c #574847",
"=#	c #89726C",
"-#	c #421B17",
";#	c #716D6D",
">#	c #4E4343",
",#	c #444142",
"'#	c #6A6363",
")#	c #72696A",
"!#	c #6A6263",
"~#	c #493D3C",
"{#	c #270100",
"]#	c #341614",
"^#	c #3B3535",
"/#	c #6D6567",
"(#	c #887E7F",
"_#	c #837A7B",
":#	c #575355",
"<#	c #7C6E6F",
"[#	c #8B797A",
"}#	c #604A47",
"|#	c #A26D66",
"1#	c #908485",
"2#	c #220A07",
"3#	c #9C8C8F",
"4#	c #756263",
"5#	c #9C8C8D",
"6#	c #B59C9E",
"7#	c #B99FA1",
"8#	c #807677",
"9#	c #897C7D",
"0#	c #75696A",
"a#	c #AC9698",
"b#	c #BDA2A4",
"c#	c #92696A",
"d#	c #837879",
"e#	c #A18E8F",
"f#	c #9D8D90",
"g#	c #A79495",
"h#	c #887C7D",
"i#	c #857A7B",
"j#	c #817576",
"k#	c #AE9899",
"l#	c #4D0101",
"m#	c #5C2F29",
"n#	c #8A7D7E",
"o#	c #6F6869",
"p#	c #9E8D90",
"q#	c #AC9798",
"r#	c #B19B9C",
"s#	c #AE989A",
"t#	c #A49293",
"u#	c #786F70",
"v#	c #B39B9C",
"w#	c #6B2E2F",
"x#	c #856C6C",
"y#	c #A69394",
"z#	c #454142",
"A#	c #322728",
"B#	c #938587",
"C#	c #C1A4A7",
"D#	c #BBA0A2",
"E#	c #BA9FA1",
"F#	c #B59D9E",
"G#	c #B39C9D",
"H#	c #908081",
"I#	c #907F80",
"J#	c #B59D9F",
"K#	c #B49C9D",
"L#	c #BFA2A3",
"M#	c #A87D7E",
"N#	c #B89EA0",
"O#	c #615C5C",
"P#	c #797172",
"Q#	c #827778",
"R#	c #8C8081",
"S#	c #886C6E",
"T#	c #B49D9E",
"U#	c #B69D9F",
"V#	c #B69D9E",
"W#	c #BCA0A2",
"X#	c #998386",
"Y#	c #867778",
"Z#	c #BB9FA1",
"`#	c #C18C8D",
" $	c #B89FA1",
".$	c #998A8D",
"+$	c #938687",
"@$	c #1C0807",
"#$	c #7E7475",
"$$	c #604C4C",
"%$	c #4A1A1A",
"&$	c #A39193",
"*$	c #B29B9C",
"=$	c #C4A4A7",
"-$	c #9B8587",
";$	c #978485",
">$	c #796C6D",
",$	c #837576",
"'$	c #B9A0A2",
")$	c #B99FA0",
"!$	c #6D6768",
"~$	c #0D0000",
"{$	c #736D6E",
"]$	c #646061",
"^$	c #3C2F30",
"/$	c #564444",
"($	c #1E0000",
"_$	c #A19091",
":$	c #928182",
"<$	c #776D6E",
"[$	c #6D6667",
"}$	c #696364",
"|$	c #554F50",
"1$	c #A59192",
"2$	c #97797B",
"3$	c #A29091",
"4$	c #535050",
"5$	c #363333",
"6$	c #110D0E",
"7$	c #494546",
"8$	c #444141",
"9$	c #1B1718",
"0$	c #464243",
"a$	c #6C6465",
"b$	c #9E8E8F",
"c$	c #030000",
"d$	c #050505",
"e$	c #373434",
"f$	c #1C1818",
"g$	c #565152",
"h$	c #3D393A",
"i$	c #231F1F",
"j$	c #1B1717",
"k$	c #181414",
"l$	c #3F3B3C",
"m$	c #1C0D0A",
"n$	c #3A3636",
"o$	c #191717",
"p$	c #393636",
"q$	c #464343",
"r$	c #0F0403",
"s$	c #433F40",
"t$	c #6E6869",
"u$	c #413D3E",
"v$	c #222020",
"w$	c #656060",
"x$	c #4C4949",
"y$	c #524F50",
"z$	c #2A2727",
"A$	c #151111",
"B$	c #645E5F",
"C$	c #2E2B2B",
"D$	c #645F60",
"E$	c #726B6C",
"F$	c #555151",
"G$	c #1C1A1A",
"H$	c #5B0000",
"I$	c #181514",
"J$	c #5C5758",
"K$	c #171515",
"L$	c #575455",
"M$	c #260000",
"N$	c #251313",
"O$	c #191313",
"P$	c #382725",
"Q$	c #42201B",
"R$	c #342C2C",
"S$	c #846062",
"T$	c #080201",
"U$	c #4E3C3A",
"V$	c #C7A7AA",
"W$	c #430000",
"X$	c #4C0000",
"Y$	c #250000",
"Z$	c #200000",
"`$	c #342524",
" %	c #5E4E4F",
".%	c #1A0B08",
"+%	c #41302F",
"@%	c #453433",
"#%	c #211514",
"$%	c #1A0E0D",
"%%	c #6E5855",
"&%	c #483B3A",
"*%	c #544F50",
"=%	c #201413",
"-%	c #190D0C",
";%	c #6A5552",
">%	c #0A0404",
",%	c #614D4A",
"'%	c #5F4C49",
")%	c #2A1614",
"!%	c #503D3C",
"~%	c #705E5D",
"{%	c #020101",
"]%	c #0A0605",
"^%	c #140D0C",
"/%	c #342624",
"(%	c #271E1B",
"_%	c #4D3B39",
":%	c #231917",
"<%	c #271C1A",
"[%	c #2D1F1E",
"}%	c #251817",
"                                        . + .                               ",
"                                    @ # @ $ % &                             ",
"                                  @ * $ & = - @ #                           ",
"                                  . ; > , ' ) ! ~ {                         ",
"                                  . ] , , , ^ / ( _                         ",
"                                  # # . @ & : < [ } |                       ",
"                                1 @ 2 3 4 5 6 7 8 9 9                       ",
"                                0 a # b c d e f g h 9                       ",
"                                0 # i # j k : l 9 m 9                       ",
"                                  $ $ & n o _ 9 p 9                         ",
"                                  i q # 3 r 1 1 2 m                         ",
"                                3 s t u v w x 2 y m                         ",
"                              @ , > z A B 2 C C p m                         ",
"                              + D E F G H I 0 2 _ J                         ",
"                    K L 0 M & N b O P Q R x @ @ S T                         ",
"                U V W w @ & X Y Z ` 3 f  ...+.@.#.$.}                       ",
"              %.&.*.m =.-.@ @ ;.>.,.# '.).!.~.{.].^./.                      ",
"            (._.:.<.[.m }.& |.3 1.2.3.4.5.6.7.} } _ |                       ",
"            8.9.0.a.b.m m x c.2 d.m e.f.g.h.i.j.0 i i k.l.                  ",
"            m.n.o.a.b.m m p.,.m m q.r.s.t.u.k.v.0 x x 0 0                   ",
"            w.x.y.a.z.A.m B.C.m D.E.F.G.H.I.$ . & J.J.K.C w {               ",
"            L.M.N.a.O.P.m Q.R.S.T.U.V.W.X.Y.@ Z.# `.i 2 m  +.+              ",
"            ++@+#+$+%+&+*+m =+-+E.;+;+V.>+,+# # # '+i _ m )+J               ",
"            !+~+{+]+^+/+A.m m (+_+:+U.<+[+i }+r.|+1+2+)+3+)+3+m             ",
"          # 4+5+6+m 7+8+9+m m 0+a+F.;+b+c+d+e+f+g+r.h+i+j+6+L k+            ",
"          l+m+5+k+m n+o+p+m m 0+q+r+s+t+u+v+w+e.e.x+r.y+z+K./.p+            ",
"          * @ A+B+<.C+D+L m m k+E+F+G+H+I+J+k+K+K+L+l.5+M+N+{ O+            ",
"          & @ P+Q+$+D+R+S+T+m T+K+U+k+)+p+k+V+0+p+L+k.@ @ W+w v+            ",
"        w X+Y+@ K+Z+`+D+ @)+.@m +@r+0+p+0+0+}.p+p+m w @@P+#@w v+S+          ",
"        0 & $@@ m T+%@S+0+0+0+m &@*@0+p+p+p+S+k+0+L+1.@ =@-@w ;@>@          ",
"      b.w+b.^.l.m m m m 0+,@k+m m m m m '@0+m )@.@!@~@{@y+]@w ^@/@(@        ",
"      _@b.:@}+r.m m m m T+<@[@m m m m m }@|@m m m m g 1@2@3@4@5@6@m         ",
"    r.z.7@m w  +    m m m m m m m m m m m m m m m m m 8@9@d 0@a@b@m         ",
"    c@d@e@f@k.m     m m m m m '@S+m m m m m J m m m m m g@h@i@j@k@_         ",
"    c@l@p & m@m     m m m m m m m m m m m m m m m m m m n@o@p@q@f w         ",
"  b.K.m _ m m         d.m m m m m m m m m r@9 s@m m m m t@u@Z.v@w@m         ",
"  C x@9 e@2 m       K.x # y@p m m d.z@i i w K.3 m m m     >.A@B@C@m 2 m     ",
"  2 D@e@E@m         F@2 G@# x 9 H@I@J@3 0 3 0 0 m r@|     1.K@'+L@m M@C     ",
"  l@m p.N@m         2 @ 2 @ O@P@C C C Q@3 w # K.{ d+m     R@S@T@U@m p.V@    ",
"  D@m m m m         2 O@W@X@Y@O@2 p Z@C `@[ i  #0 p k.      e+.#k.e+m 2     ",
"  +#m m m m       0 i @#O@# ##i 2 _ e@9 K.M @ i 3 K.$#      L+m m } m +#    ",
"  m N@%#m       i 0 & # O@K.w i # &#*#k.0 @ =#. w K.K.        m m m m m     ",
"  e@-#m       m 9 9 ;#>#m m } 7@,#'#)#!#~#& $ 0 _ { { p       2 {#2 s@m     ",
"  ]#l@m       m z.e+;#_ e@^#/#(#_#:#<#[#}#|#%@<.1#1#3+ @p+      O@l@C m     ",
"  l@2#        3+3#3#4#s@Z+5#6#7#K 8#9#0#a#b#c#$+d#d#3#e#d#      x l@d.m     ",
"  [.m         6+3#3#3#$+f#g#K K K h#i#j#k#K l#m#n#3+3+d#o#        {#m m m   ",
"{#m m         3+3#p#q#$+K K 6#r#s#t#u#t#r#v#w#x#y#1#1#K+z#        2 m m m   ",
"{#m +#      A#d#B#4...a.C#D#E#F#G#H#I#K J#K#L#M#N#g.3#O#K+          p.m m   ",
"D@2 K.      3+P#Q#R#S#$+T#U#V#W#U#X#Y#K 7#K#Z#`# $.$+$6+)+          e@m m   ",
"D@@$K.      #$6+P#d#$$%$&$*$E#=$-$;$>$,$'$)$V#K q#1#1#!$)+          e@N@m   ",
"~$D@m m     6+{$]$)+^$/$($_$:$.$<$[$}$|$1$K K 2$3$1#1#4$5$          C C m   ",
"e@2 m     m p+p+H.)+6$A#Q.7$<@8$p+9$p+0$a$1#b$$$#$6+K+p+p+          2 c$m m ",
"m C m     m p+p+p+k+m p+d$5$e$9+f$d$.@k+g$6+_@R+6+<+h$p+p+          {#m m m ",
"  m m     m k+J+p+i$m 0+m j$f$k$Q.m m J+k+k+h$p+i$i$p+p+l$          {#N@m m ",
"  m m$    0+k+n$r+o$m m m 0+d$m m m m 0+k+p+p+p+p+p+p$q$k+          2 r$m m ",
"  s@s@    0+m p+i$m m m m m m m   m m p+<@k+k+k+k+q$K+s$k+          2 2 m m ",
"    m     0+m p+p+m m m T+0+m m     m k+t$3+]$K+K+<@z#u$9+          C C m m ",
"          0+k+k+.@m v$p+0+d$m       0+k+3+d#3+w$K+x$u$9+r+          2 N@m m ",
"          p+k+y$m m h$z$A$m m       0+n$B$d#3+3+K+k+p+p+m           m m m m ",
"          m h$p+m m A$0+m m m       0+U+k+k+k+k+p+V+k+v$m           e@m m   ",
"        0+0+C$K+m m m 0+k$m         0+z$K+)+)+6+3+D$K+m m           m m     ",
"        k+k+0+p+m 0+0+0+0+          0+k+6+E$d#d#6+F$q$m m           p 9     ",
"        0+0+C$p+m Q.A$0+d$          0+k+6+6+6+6+<+y$k+m             m m     ",
"        )+1#3#a.m m g '@            m p+K+)+4$k+k+k+G$m                     ",
"        3+d#J H$($m '@I$            m 5$k+<@)+k+l$5$m m                     ",
"      $$R+/.9 m m m m                 k+J$3+6+6+p+K$m                       ",
"      m e@m w 2 p s@m                 p+K+L$)+)+k+m m                       ",
"      %#M$N$3 K.K._ m                 p+k+K+k+p+0+m m                       ",
"      m O$3 P$C 3 v+m                 p+<@z#y$)+$$Q$J                       ",
"      K.3 R$C C _ s@m                 p+6+K 3#S$$+($$+                      ",
"      w { &#T$C m m                     1#K d#($$+($a.                      ",
"      w K.*#U$w k.O+                    d#V$$+W$X$Y$Z$a.                    ",
"      3 C _ w `$m m                     d#V$$$X$H$X$Q$m                     ",
"      w 2 3 2 K.m m                   d#3+V$r.D@e@D@D@m                     ",
"      C C 0 2 _ m                      %d#_#l.O+.%{ { m                     ",
"      D@@ +%3 {                         1#r.+%@%{ #%$%m                     ",
"      %%0 3 &% +                        *%m @%+%=%-%_ m                     ",
"      0 R i d+k.                        m m p.K._ _ _ m                     ",
"    3 # ;%i w v+                          m m e@>%_ >%                      ",
"    ,%0 # @ 3 v+                          9 m e@p C m                       ",
"  @ 0 %%;%K.*#d+                            C C 2 e@m                       ",
"  3 '%4 J.d+_ m                             C )%w w m                       ",
"k.g@!%i ~%~%s@m                             2 z@@%3  +                      ",
"m O+O+O+O+} m m                             F@2 0 0  +                      ",
"  O+O+O+O+O+{%m m                           { w i i _                       ",
"  O+O+O+O+O+]%{%9                             w i e {                       ",
"  O+O+O+O+O+O+O+9                             3 + k@3                       ",
"    O+O+O+O+O+^%S+J                           0 # 3 3                       ",
"      O+O+O+^%/%S+W                           0 ,%3 3  +                    ",
"      S+W S+S+S+S+(%                        w _%0 3 +%p                     ",
"            S+:%<%S+                      2 { 3 w K.[%{                     ",
"                  (@                      C p K.2 K.}%$%                    ",
"                                              m O+O+O+O+                    "};
