/* XPM */
static char * D7_xpm[] = {
"37 92 469 2",
"  	c None",
". 	c #65514E",
"+ 	c #79615E",
"@ 	c #846A66",
"# 	c #745D5A",
"$ 	c #473C3B",
"% 	c #67514E",
"& 	c #866E68",
"* 	c #806863",
"= 	c #181211",
"- 	c #584442",
"; 	c #846B66",
"> 	c #80635E",
", 	c #635453",
"' 	c #252B2E",
") 	c #4A3734",
"! 	c #574847",
"~ 	c #866D68",
"{ 	c #846C66",
"] 	c #87716A",
"^ 	c #363637",
"/ 	c #675754",
"( 	c #867069",
"_ 	c #866F6B",
": 	c #6B4D48",
"< 	c #856D67",
"[ 	c #836D67",
"} 	c #856B67",
"| 	c #4A3837",
"1 	c #221615",
"2 	c #754F4A",
"3 	c #7E5F5A",
"4 	c #78544F",
"5 	c #3E2522",
"6 	c #000000",
"7 	c #020000",
"8 	c #3C2C2B",
"9 	c #3D1C18",
"0 	c #6F413C",
"a 	c #836A67",
"b 	c #8C7972",
"c 	c #674641",
"d 	c #6C5653",
"e 	c #160502",
"f 	c #2C1917",
"g 	c #2B1210",
"h 	c #836963",
"i 	c #764F4A",
"j 	c #302726",
"k 	c #453635",
"l 	c #443332",
"m 	c #030202",
"n 	c #3C1D1B",
"o 	c #231C1B",
"p 	c #4E3F3E",
"q 	c #483837",
"r 	c #4C3A39",
"s 	c #574542",
"t 	c #67514D",
"u 	c #604D4A",
"v 	c #331715",
"w 	c #0C0706",
"x 	c #180C0B",
"y 	c #423131",
"z 	c #4D3C3B",
"A 	c #453432",
"B 	c #4C3A38",
"C 	c #503E3C",
"D 	c #4E3C3A",
"E 	c #483635",
"F 	c #210C0A",
"G 	c #352826",
"H 	c #5F4D4A",
"I 	c #433533",
"J 	c #3D302E",
"K 	c #2E2221",
"L 	c #302322",
"M 	c #2F2322",
"N 	c #281C1B",
"O 	c #2C1513",
"P 	c #4B3937",
"Q 	c #634E4B",
"R 	c #231918",
"S 	c #392D2C",
"T 	c #5C4846",
"U 	c #604C49",
"V 	c #272A2D",
"W 	c #453433",
"X 	c #4D3937",
"Y 	c #51403E",
"Z 	c #624E4B",
"` 	c #685350",
" .	c #63504D",
"..	c #54413F",
"+.	c #574341",
"@.	c #170603",
"#.	c #392C2B",
"$.	c #2D2322",
"%.	c #5E4B48",
"&.	c #272424",
"*.	c #473533",
"=.	c #584643",
"-.	c #5F4C4A",
";.	c #614D4A",
">.	c #604F4D",
",.	c #7C6868",
"'.	c #715C5A",
").	c #554240",
"!.	c #302120",
"~.	c #362827",
"{.	c #513F3D",
"].	c #735C59",
"^.	c #56423F",
"/.	c #503C3A",
"(.	c #483938",
"_.	c #795752",
":.	c #5F5656",
"<.	c #4D484A",
"[.	c #4E4A4C",
"}.	c #725C59",
"|.	c #0C0000",
"1.	c #181717",
"2.	c #232222",
"3.	c #3C3231",
"4.	c #55413F",
"5.	c #4D3B3A",
"6.	c #5C4442",
"7.	c #44322F",
"8.	c #8B7F80",
"9.	c #716A6B",
"0.	c #3B3839",
"a.	c #261312",
"b.	c #050000",
"c.	c #785450",
"d.	c #866E69",
"e.	c #624D4A",
"f.	c #221D1D",
"g.	c #4E3E3C",
"h.	c #513E3D",
"i.	c #644945",
"j.	c #1F1311",
"k.	c #837879",
"l.	c #5B5859",
"m.	c #80625D",
"n.	c #846B65",
"o.	c #81635F",
"p.	c #391310",
"q.	c #5F3732",
"r.	c #423E3F",
"s.	c #322728",
"t.	c #654A46",
"u.	c #5E4442",
"v.	c #3C2926",
"w.	c #020101",
"x.	c #4F4C4C",
"y.	c #1D1A1A",
"z.	c #342625",
"A.	c #362929",
"B.	c #160807",
"C.	c #826662",
"D.	c #836864",
"E.	c #310807",
"F.	c #1E0000",
"G.	c #1E1513",
"H.	c #221210",
"I.	c #333030",
"J.	c #222020",
"K.	c #070707",
"L.	c #221A19",
"M.	c #473937",
"N.	c #3F2D2C",
"O.	c #4C2722",
"P.	c #42231E",
"Q.	c #AC645A",
"R.	c #464343",
"S.	c #1B1211",
"T.	c #261D1C",
"U.	c #080000",
"V.	c #604B49",
"W.	c #7A625E",
"X.	c #3E2421",
"Y.	c #010000",
"Z.	c #9A594F",
"`.	c #1A1616",
" +	c #120F0D",
".+	c #060504",
"++	c #171516",
"@+	c #4B4748",
"#+	c #1C1616",
"$+	c #6A6465",
"%+	c #484241",
"&+	c #281C1A",
"*+	c #281D1D",
"=+	c #3F312F",
"-+	c #4F3D3B",
";+	c #5F4C49",
">+	c #6A5552",
",+	c #6D5957",
"'+	c #3C2E2D",
")+	c #42201B",
"!+	c #512D27",
"~+	c #64261D",
"{+	c #282424",
"]+	c #2B2121",
"^+	c #3C3839",
"/+	c #1A1313",
"(+	c #6D5856",
"_+	c #836C69",
":+	c #856C69",
"<+	c #23110D",
"[+	c #1B1A1A",
"}+	c #0E0D0D",
"|+	c #535050",
"1+	c #343333",
"2+	c #130D0D",
"3+	c #715A57",
"4+	c #846C68",
"5+	c #88716D",
"6+	c #89716C",
"7+	c #876F69",
"8+	c #1C1716",
"9+	c #0B0605",
"0+	c #141111",
"a+	c #1E1C1D",
"b+	c #343132",
"c+	c #322A2B",
"d+	c #131212",
"e+	c #191818",
"f+	c #765F5B",
"g+	c #856C68",
"h+	c #735D59",
"i+	c #5D4947",
"j+	c #191413",
"k+	c #372927",
"l+	c #766F70",
"m+	c #302D2E",
"n+	c #454242",
"o+	c #040404",
"p+	c #735C58",
"q+	c #866E6A",
"r+	c #856D68",
"s+	c #725F5E",
"t+	c #331C18",
"u+	c #2E0000",
"v+	c #2E2D2D",
"w+	c #6F5451",
"x+	c #7F6662",
"y+	c #272120",
"z+	c #7E6562",
"A+	c #6F5855",
"B+	c #806662",
"C+	c #544344",
"D+	c #22201F",
"E+	c #0B0A0A",
"F+	c #2F2423",
"G+	c #5B4644",
"H+	c #856E68",
"I+	c #1E0301",
"J+	c #B09A9B",
"K+	c #908485",
"L+	c #040101",
"M+	c #040303",
"N+	c #71423C",
"O+	c #C7A7AA",
"P+	c #0D0201",
"Q+	c #020202",
"R+	c #3F3230",
"S+	c #5E4E4C",
"T+	c #635F5F",
"U+	c #9C8C8F",
"V+	c #390000",
"W+	c #98898C",
"X+	c #100000",
"Y+	c #100807",
"Z+	c #161313",
"`+	c #090808",
" @	c #231B18",
".@	c #100F0F",
"+@	c #685D5D",
"@@	c #786C6D",
"#@	c #444243",
"$@	c #2B2929",
"%@	c #110E0E",
"&@	c #645D5D",
"*@	c #62595A",
"=@	c #543031",
"-@	c #171212",
";@	c #6B6260",
">@	c #150F0D",
",@	c #6B6261",
"'@	c #484343",
")@	c #0B0000",
"!@	c #120000",
"~@	c #7A635F",
"{@	c #6C5B59",
"]@	c #201A19",
"^@	c #110D0D",
"/@	c #2B201F",
"(@	c #433939",
"_@	c #826864",
":@	c #79625E",
"<@	c #332827",
"[@	c #230000",
"}@	c #070403",
"|@	c #856C67",
"1@	c #7D6460",
"2@	c #533D3A",
"3@	c #050100",
"4@	c #3B0000",
"5@	c #090201",
"6@	c #6A4E4B",
"7@	c #7B635F",
"8@	c #4E3E3B",
"9@	c #0E0301",
"0@	c #080201",
"a@	c #51302E",
"b@	c #7A615D",
"c@	c #624E4A",
"d@	c #100C0B",
"e@	c #301410",
"f@	c #371311",
"g@	c #7E6662",
"h@	c #6D5553",
"i@	c #0E0B0B",
"j@	c #816763",
"k@	c #624D49",
"l@	c #614C4A",
"m@	c #332A29",
"n@	c #190201",
"o@	c #2A0606",
"p@	c #0A0807",
"q@	c #6D5652",
"r@	c #4D3B39",
"s@	c #140908",
"t@	c #1C1514",
"u@	c #060000",
"v@	c #775F5C",
"w@	c #594F4D",
"x@	c #504B4C",
"y@	c #342624",
"z@	c #463838",
"A@	c #645F60",
"B@	c #59423E",
"C@	c #7C5954",
"D@	c #908384",
"E@	c #8C8081",
"F@	c #555151",
"G@	c #2E2525",
"H@	c #781E14",
"I@	c #7B0600",
"J@	c #33130A",
"K@	c #070404",
"L@	c #575455",
"M@	c #8D1303",
"N@	c #52221B",
"O@	c #604C4C",
"P@	c #7A7273",
"Q@	c #8A0C00",
"R@	c #7F7576",
"S@	c #736D6E",
"T@	c #676162",
"U@	c #762B1E",
"V@	c #3E0000",
"W@	c #4C0000",
"X@	c #C16F63",
"Y@	c #5F2929",
"Z@	c #6B6566",
"`@	c #5E5B5C",
" #	c #862C1D",
".#	c #050303",
"+#	c #430000",
"@#	c #726B6C",
"##	c #380000",
"$#	c #140000",
"%#	c #3D393A",
"&#	c #5B0000",
"*#	c #1A0000",
"=#	c #050505",
"-#	c #231F1F",
";#	c #363333",
">#	c #3B1512",
",#	c #343031",
"'#	c #4C4949",
")#	c #0C0A09",
"!#	c #2A2727",
"~#	c #140403",
"{#	c #151111",
"]#	c #080403",
"^#	c #2E2B2B",
"/#	c #1F1B1B",
"(#	c #140E0C",
"_#	c #151110",
":#	c #251D1D",
"<#	c #181414",
"[#	c #392D2D",
"}#	c #241D1C",
"|#	c #6E6869",
"1#	c #948788",
"2#	c #343232",
"3#	c #0F0B0B",
"4#	c #1C1818",
"5#	c #201D1D",
"6#	c #383535",
"7#	c #242020",
"8#	c #372C2D",
"9#	c #3C3A3B",
"0#	c #615B5B",
"a#	c #564F50",
"b#	c #5C5858",
"c#	c #312D2E",
"d#	c #3F3B3C",
"e#	c #97898A",
"f#	c #7A7172",
"g#	c #BFA3A5",
"h#	c #A99596",
"i#	c #6F6869",
"j#	c #7B7273",
"k#	c #2E2626",
"l#	c #797172",
"m#	c #383233",
"n#	c #312E2E",
"o#	c #3E1E19",
"p#	c #504D4D",
"q#	c #464242",
"r#	c #242223",
"s#	c #100E0E",
"t#	c #120B0B",
"u#	c #1C0404",
"v#	c #524F4F",
"w#	c #1E1919",
"x#	c #251817",
"y#	c #271A19",
"z#	c #100404",
"A#	c #544E4F",
"B#	c #272626",
"C#	c #2F201F",
"D#	c #1F1312",
"E#	c #201413",
"F#	c #0D0807",
"G#	c #3F3B3B",
"H#	c #2B1D1C",
"I#	c #4A4647",
"J#	c #332322",
"K#	c #382827",
"L#	c #0F0C0C",
"M#	c #342524",
"N#	c #312C2C",
"O#	c #392F2F",
"P#	c #3A2D2B",
"Q#	c #6E5855",
"R#	c #3E2E2D",
"S#	c #2F2727",
"T#	c #281613",
"U#	c #705E5D",
"V#	c #6A5452",
"W#	c #231210",
"X#	c #140E0D",
"Y#	c #0B0201",
"Z#	c #090101",
"`#	c #342726",
" $	c #584543",
".$	c #060100",
"+$	c #241A19",
"@$	c #140D0C",
"#$	c #4A3B3A",
"$$	c #030000",
"%$	c #050202",
"&$	c #0C0202",
"*$	c #0C0302",
"                            . + @ #                                       ",
"                        $ % @ @ & * #                                     ",
"                    = - # @ ; > , ' ; ; &                                 ",
"                  ) ! @ ~ { ] ' ^ / ( @ _ &                               ",
"                  : ! @ @ < ; @ # [ } < ; |                               ",
"                  = 1 ; @ @ @ @ 2 3 4 2 # 5 @                             ",
"                  6 7 - 8 8 9 0 ; a 3 b c @ d                             ",
"                  = 7 e 8 f @ g 2 ] h 3 @ i 2                             ",
"                    7 j k l m # @ ] 2 0 # n -                             ",
"                      o p q l r s t u v 9 .                               ",
"                      w x y z A B C D E F G H                             ",
"                  ; I J K L M N O P Q 8 F R S                             ",
"              8 T U V W X Y T Z `  ...+.@.#.$.                            ",
"              # %.C &.*.=.-.;.>.,.'.).| !.~.{.                            ",
"              ].^./.(._.:.<.[.[.+.}.& ; & |.1                             ",
"        1.2.3.4.5.6.7.8.9.0.!.a.b.F a 3 c.d.e.e                           ",
"        0.f.g.h.i.j.6 k.l.1.!.!.$ g m.n.o.d.@ p.q.                        ",
"      r.s.t.u.v.w.6 6 x.x.y.z.A.6 B.~ @ C.D.@ E.F.                        ",
"    x.x.G.H.6 I.J.6 6 l.l.K.L.M.6 6 } } o.@ N.O.P.Q.                      ",
"    x.R.G.6 6 r.r.6 6 x.x.S.T.S U.6 V.W.@ @ 6 X.Y.Z.Z.                    ",
"    x.`. +.+++r.@+6 #+$+%+&+*+=+b.-+;+ .>+,+'+6 )+!+~+                    ",
"    l.r. + +r.{+J.6 ]+l.l.^+/+!.F >+(+_+:+< l 6 Y.<+                      ",
"    [+1.6 6 r.}+6 6 ]+|+l.1+2+6 | 3+4+5+6+7+8+6 6 s.                      ",
"    9+0+6 6 a+b+6 6 c+I.`.d+e+- f+@ ; g+h+i+j+k+6 l+                      ",
"    w.9+6 6 6 r.m+6 J.n+x.1.o+| p+} q+r+. s+6 t+u+$+                      ",
"    6 9+6 6 6 r.r.6 6 R.x.v+o 8 w+x+r+> . y+6 Y.u+l+x.                    ",
"  9+6 6 6 6 6 <+I.6 6 `.6 6 9+j z+A+B+# g 6 6 F.u+C+r.                    ",
"  9+D+K.6 E+6 k+F+6 I.6  +6 !.!.G+H+. F g I+u+J+K+`.I.                    ",
"  L+9+9+6 E+M+k+k+6 I.6 6 6 ; | ^.& n F N+u+u+O+O+r.s.6                   ",
"  = P+7 6 Q+K.`.`.6 G.6 6 6 @ !.R+S+T+| U+V+u+W+K+$+X+X+                  ",
"  = x x Y+6 Z+`+`.`+6  @6 .@v+[.+@@@[.#@U+)+)+K+K+$@6 Y.                  ",
"  = o 1 7 6 G.6 %@`.`.6 6 .@#@#@&@*@0.v+U+=@u+U+l.6 6 6                   ",
"  9+7 P+= 6 G.6 6 6 6 6 6 6 -@1.;@P+>@,@U+U+O+'@)@6 6 6                   ",
"  6 o Y.7 6 G.  6 k+6 6 6 6 !@#@F o ~@{@`.k.#+6 6 Y.)@6 6                 ",
"= 6 ]@^@6 6 G.    /@6 6 6 6 g (@g !._@:@<@6 6 6 6 u+[@6 6                 ",
"j 6 ^@]@}@6       6 6 6 6 6 7 e 7 !.|@1@2@3@6 6   4@u+u+                  ",
"3.6 6 ]@Y.6         6 Y.j 1 7 e 5@6 6@7@8@9@|.                            ",
"j Y.6 6 6 6 6       6 x 3.x 6 0@e 0@a@b@c@!.!.                            ",
"o d@6 6 6 6         6 o Y.7 Y.6 e@e f@g@h@8 |                             ",
"6 6 6 6 6 6         6 x 7 7 7 j E.E.i@j@k@l@-                             ",
"  6 6 6 6 6         6 P+P+o m@j n@o@p@q@r@# |                             ",
"  6 6 6 6 6       6 Y.s@P+t@o o u@!@6 v@~ !.                              ",
"    7 6 6 6     w@C+<+<+x@$+G.G.Y.F.P.= y@|                               ",
"    6 6 6 6     z@z@l+ @A@x.6 6 X+6 B@C@D@j |.                            ",
"    6 6 6 6   6 $+E@k.x.F@$+G@6 H@I@J@)+!+O+J+v+                          ",
"    6 6 6 6   K@l+k.k.L@x.x.z@6 I@M@J@)+N@l+K+O@                          ",
"    6 6 6 6   -@P@k.k.l.x.x.'@6 ~+Q@N@q.Z.k.k.C+                          ",
"    6 6 6 6   -@k.k.R@S@T@l.l.6 <+U@V@W@X@Y@k.$+                          ",
"    6 6 6 6 6 6 #@l+S@Z@`@|+x.x.Y.W@N@u+ #J@ #l+I.6                       ",
"    6 6 6 6 6 .#v+l.$+$+`@|+x.L@Y.W@+#u+I@u+~+<+x.x.'@                    ",
"    6 6 6 6 6   E+x.x.@#T@l.r.r.X+##W@F.U@J@F.6 $#I.I.I.                  ",
"    6 6 6 6 7 6 6 I.%#%#I.I.I.I.Y.J@&#u+~+u+*#6 =#`.`.-#;#r.              ",
"    6 6 6 6 e 6   -#I.I.I.I.I.I.<+J@N@u+U@>#u+6 `.`.`.`.,#'#              ",
"    6 6 6 6 7 6 6   I.-#`.-#I.-#6 6 6 6 J@6 u+6 6 )#!#`.`.!#I.            ",
"    6 6 6 6 6 6 6 <+~#`. +6 6 %@G.J.6 6 6 %@<+`.{#Q+6 `+`.`.`.            ",
"    6 6 6 6 6 6   ]#<+^#/#6 6 6 (#I.6 6 =#`._#:#`.`.Q+6 %@!#x.x.          ",
"    6 6 6 6 6 6         I.J.6 6 `+`.6 =#<#G.`.J@{#6 `.6 6 6 `.r.          ",
"    6 6 6 6 |.6 6       I.%#`.`.{#6  +`.`.Y.`.I.6 6 `.r.z@[#l.x.          ",
"    6 6 6 6 6 6 6       I.r.`.`.`.{#6 %@`.6 `.,#6 6 I.x.}#z@l+l+U+        ",
"    6   6   6   =         6 `+/#I.I.6 6 I.`.I.`.6 %@r.l.6 6 |#l+1#U+      ",
"    6   6   6             `.I.^#`.`.`.`.-#^#I.%@6 I.n+l.2#3##+k.l.l.T@    ",
"        7                 r.I.r.I.^#4#`.`.5#I.6 =#-#I.6#r.7#3#8#r.@+l.    ",
"                            I.I.I.I.I.`.`.r.r.6 {#,#r.r.$+r.6 6 9#$+l+l+  ",
"                              `.`.`.`.`.`.r.r.6# +I.l+l+l.r.0#a#6 z@b#l+l+",
"                              `.`.`.`.`.`.c#d#r.6 J+J+e#@#f#k.P@6 s.l.l+  ",
"                                I.I.I.!#`.`.I.'@$+U+g#h#K+$+$+l+X+Y.$+k.  ",
"                                I.I.I.!#`.^#I.u+&#l+r.$+$+i#j#l+6 C+$+s.  ",
"                                `.`.`.`.`.I.k#W@F.I.x@$+k.k.l#m#6 <+6     ",
"                                n#/#`.`.`.W@u+o#N@t+$+K+$+2#6 6 6 6       ",
"                            l.p#r.I.I.`.:#<+N+N@N@X+q#$+r#6 6 6           ",
"                            l.l.x.I./#s#t#!.!.1 x u#I.l.]+6 6 6           ",
"                          I.l.v#R.1.w#x#!.y#8 1 z#x C+l+6 6               ",
"                        A#$+]+v+B#1.x#C#!.D#E#F#7 7 G.G.6                 ",
"                      G#T@%#6 .@v+1.!.!.!.H#x 7 3@6 G.G.                  ",
"                      $+I#}+6 6 ]@|.J#8 K#!.P+7 6 6 G.                    ",
"                    k+x.x.L#6 6 6 x K#M#3.3.o }@6                         ",
"                    k+x.N#.#6 -@)@g 8 H#1 j d@6 6                         ",
"                  G.Y.6 6 6 6 3.e !.! 1 1 6 6                             ",
"                  6 6 6 6 6 O#j F 6 3.7 d@6                               ",
"                6 6 <+6 6 6 - 8 !.6 3.6 6                                 ",
"              <+<+6 6 6 P#. e.Q#R#S#6 6 6                                 ",
"              T#6 Y.7 8 U#@ V#- # 8 6 6                                   ",
"              6 6 P+!.e W#8 U#U#!.U#6                                     ",
"            7 7 7 9+X#j 8 M#|.x ! x !                                     ",
"        P+Y#7 7 Z#9+9+9+9+X#$ $ `#!  $!.                                  ",
"        P+7 7 .$P+9+9+9+9+9++$$ !.!.| !.                                  ",
"      P+P+P+P+P+@$    w.9+9+9+9+!.#$1 8                                   ",
"    $$P+P+P+P+P+x 7 7       9+9+%$x x !.!.                                ",
"    P+P+P+P+P+P+s@6 Z#7     9+9+9+9+&$1 x                                 ",
"    P+P+P+P+P+P+Z#6 Z#x x P+    9+9+9+*$!.                                ",
"    6 7 7 6 6 6 6 6 6 Y.7 P+P+1     9+}@6                                 ",
"    9+9+9+9+9+9+}@6 6 6 6 6 6 7 3.$ 6 6 6                                 "};
