/* XPM */
static char * D8_xpm[] = {
"29 93 386 2",
"  	c None",
". 	c #65514E",
"+ 	c #745D5A",
"@ 	c #846A66",
"# 	c #816763",
"$ 	c #79615E",
"% 	c #584442",
"& 	c #655553",
"* 	c #846B66",
"= 	c #302726",
"- 	c #473C3B",
"; 	c #806B69",
"> 	c #856E66",
", 	c #866E68",
"' 	c #87716A",
") 	c #181211",
"! 	c #705E5D",
"~ 	c #473331",
"{ 	c #705855",
"] 	c #21272B",
"^ 	c #171D22",
"/ 	c #7A5854",
"( 	c #846A63",
"_ 	c #846A65",
": 	c #8B766F",
"< 	c #231C1B",
"[ 	c #4A3837",
"} 	c #836964",
"| 	c #282E32",
"1 	c #735A58",
"2 	c #7B5B58",
"3 	c #644D4A",
"4 	c #634C49",
"5 	c #836965",
"6 	c #7E605A",
"7 	c #3C3231",
"8 	c #372523",
"9 	c #331715",
"0 	c #684E4A",
"a 	c #483633",
"b 	c #42302D",
"c 	c #3B211E",
"d 	c #734946",
"e 	c #340F0D",
"f 	c #44312E",
"g 	c #54413E",
"h 	c #27100E",
"i 	c #4D3C39",
"j 	c #392725",
"k 	c #463331",
"l 	c #C16F63",
"m 	c #0B0605",
"n 	c #000000",
"o 	c #2E100D",
"p 	c #2B1210",
"q 	c #4D3937",
"r 	c #3D201D",
"s 	c #3E0000",
"t 	c #360000",
"u 	c #3C0000",
"v 	c #340000",
"w 	c #150402",
"x 	c #311310",
"y 	c #4A2F2C",
"z 	c #1E0000",
"A 	c #3E1E1A",
"B 	c #C2AE8F",
"C 	c #D2C6A8",
"D 	c #9D8C69",
"E 	c #392B2A",
"F 	c #3C1D1B",
"G 	c #382421",
"H 	c #CCC09F",
"I 	c #070000",
"J 	c #0E0908",
"K 	c #221615",
"L 	c #0C0000",
"M 	c #1F0F0C",
"N 	c #302120",
"O 	c #2F1615",
"P 	c #2E0000",
"Q 	c #040000",
"R 	c #866F6D",
"S 	c #3C2C2B",
"T 	c #473534",
"U 	c #352625",
"V 	c #020000",
"W 	c #AEA180",
"X 	c #CBBEA0",
"Y 	c #746650",
"Z 	c #4F3D3B",
"` 	c #1C0F0F",
" .	c #453332",
"..	c #050000",
"+.	c #695756",
"@.	c #4D3B39",
"#.	c #554140",
"$.	c #180000",
"%.	c #210C0A",
"&.	c #1C1B1B",
"*.	c #232222",
"=.	c #524644",
"-.	c #866D68",
";.	c #5B4745",
">.	c #624E4B",
",.	c #1F1312",
"'.	c #180C0B",
").	c #2E2424",
"!.	c #4F4C4C",
"~.	c #80635E",
"{.	c #240E0B",
"].	c #160502",
"^.	c #4A3734",
"/.	c #53413F",
"(.	c #231514",
"_.	c #656262",
":.	c #76605B",
"<.	c #93847C",
"[.	c #635F5F",
"}.	c #716D6D",
"|.	c #3F2F2E",
"1.	c #291B1A",
"2.	c #908485",
"3.	c #7B5B55",
"4.	c #0B0000",
"5.	c #2B2121",
"6.	c #372927",
"7.	c #080000",
"8.	c #4E4343",
"9.	c #595557",
"0.	c #333030",
"a.	c #0D0201",
"b.	c #3D1C18",
"c.	c #160E0E",
"d.	c #010000",
"e.	c #211C1C",
"f.	c #282626",
"g.	c #574847",
"h.	c #776260",
"i.	c #856C67",
"j.	c #4E2B27",
"k.	c #908586",
"l.	c #8A8080",
"m.	c #4E4A4C",
"n.	c #433939",
"o.	c #0B0A0A",
"p.	c #755E5A",
"q.	c #867069",
"r.	c #8A746D",
"s.	c #52221B",
"t.	c #030000",
"u.	c #9C8C8F",
"v.	c #181717",
"w.	c #3B3839",
"x.	c #100000",
"y.	c #120000",
"z.	c #C7A7AA",
"A.	c #86706B",
"B.	c #6A5452",
"C.	c #331C18",
"D.	c #090101",
"E.	c #413E3E",
"F.	c #B09A9B",
"G.	c #171212",
"H.	c #382827",
"I.	c #2D1E1C",
"J.	c #1C0D0A",
"K.	c #6B4D48",
"L.	c #6A6465",
"M.	c #423E3F",
"N.	c #766F70",
"O.	c #615D5E",
"P.	c #4E3937",
"Q.	c #341F1D",
"R.	c #503D3B",
"S.	c #261411",
"T.	c #080403",
"U.	c #463838",
"V.	c #5B5859",
"W.	c #512D27",
"X.	c #B89EA1",
"Y.	c #302D2D",
"Z.	c #3D393A",
"`.	c #453C3C",
" +	c #130403",
".+	c #373131",
"++	c #604C4C",
"@+	c #CDA7AA",
"#+	c #1D1A19",
"$+	c #120F0D",
"%+	c #413838",
"&+	c #5D5657",
"*+	c #675655",
"=+	c #58332E",
"-+	c #2B2525",
";+	c #837879",
">+	c #8C8081",
",+	c #544D4E",
"'+	c #382F2F",
")+	c #716A6B",
"!+	c #444243",
"~+	c #7E706F",
"{+	c #211A1A",
"]+	c #060000",
"^+	c #968B8B",
"/+	c #7B6966",
"(+	c #4E494A",
"_+	c #1A1616",
":+	c #64261D",
"<+	c #0C0A09",
"[+	c #372C2D",
"}+	c #71423C",
"|+	c #71423B",
"1+	c #170B09",
"2+	c #23110D",
"3+	c #070404",
"4+	c #1E1513",
"5+	c #854D47",
"6+	c #0E0000",
"7+	c #120C0B",
"8+	c #020202",
"9+	c #5B0000",
"0+	c #241716",
"a+	c #4C0000",
"b+	c #342524",
"c+	c #332423",
"d+	c #242424",
"e+	c #0E0301",
"f+	c #27201F",
"g+	c #453433",
"h+	c #755D5A",
"i+	c #100D0D",
"j+	c #261717",
"k+	c #42201B",
"l+	c #160F0F",
"m+	c #8C7F81",
"n+	c #221311",
"o+	c #948788",
"p+	c #544344",
"q+	c #42231E",
"r+	c #AC645A",
"s+	c #110402",
"t+	c #332120",
"u+	c #1D0B09",
"v+	c #240000",
"w+	c #150000",
"x+	c #8D6E6F",
"y+	c #090000",
"z+	c #322728",
"A+	c #A18E8F",
"B+	c #9B8C8D",
"C+	c #736B6C",
"D+	c #330000",
"E+	c #452D2E",
"F+	c #8D8182",
"G+	c #867B7C",
"H+	c #343232",
"I+	c #A39193",
"J+	c #8E8182",
"K+	c #97898A",
"L+	c #A99596",
"M+	c #7F7677",
"N+	c #762B1E",
"O+	c #351E1A",
"P+	c #827677",
"Q+	c #564F50",
"R+	c #6B0000",
"S+	c #846062",
"T+	c #290000",
"U+	c #59423E",
"V+	c #4B4748",
"W+	c #3E3C3C",
"X+	c #060606",
"Y+	c #534A4A",
"Z+	c #383535",
"`+	c #3D3A3A",
" @	c #494646",
".@	c #111010",
"+@	c #715858",
"@@	c #938587",
"#@	c #5F3732",
"$@	c #222020",
"%@	c #090808",
"&@	c #2A2727",
"*@	c #110E0E",
"=@	c #4C4949",
"-@	c #5E5050",
";@	c #5E5B5C",
">@	c #484343",
",@	c #676162",
"'@	c #110706",
")@	c #050505",
"!@	c #5C5758",
"~@	c #3E1E19",
"{@	c #4C1F19",
"]@	c #2D1510",
"^@	c #33130A",
"/@	c #151111",
"(@	c #535050",
"_@	c #343031",
":@	c #524F4F",
"<@	c #585556",
"[@	c #AB9598",
"}@	c #6E6869",
"|@	c #231F1F",
"1@	c #3C3A3B",
"2@	c #7F7576",
"3@	c #9A8384",
"4@	c #7A7273",
"5@	c #474344",
"6@	c #877C7D",
"7@	c #3A3636",
"8@	c #565354",
"9@	c #6D6768",
"0@	c #877D7E",
"a@	c #B69B9D",
"b@	c #6B6566",
"c@	c #726B6C",
"d@	c #A59293",
"e@	c #585455",
"f@	c #BFA3A5",
"g@	c #8C7F80",
"h@	c #261815",
"i@	c #302C2C",
"j@	c #4F4A4B",
"k@	c #645E5F",
"l@	c #646061",
"m@	c #756D6E",
"n@	c #381E1A",
"o@	c #544F50",
"p@	c #271612",
"q@	c #322523",
"r@	c #0A0706",
"s@	c #1C1616",
"t@	c #3F3B3C",
"u@	c #231917",
"v@	c #18110F",
"w@	c #060404",
"x@	c #524F50",
"y@	c #2B2929",
"z@	c #685F60",
"A@	c #1A1717",
"B@	c #100C0B",
"C@	c #332624",
"D@	c #231B18",
"E@	c #150B0A",
"F@	c #271E1B",
"G@	c #201715",
"H@	c #1C1514",
"I@	c #2B201F",
"J@	c #0C0908",
"K@	c #090504",
"L@	c #020101",
"M@	c #1D1513",
"N@	c #3E2E2D",
"O@	c #625250",
"P@	c #2B1E1D",
"Q@	c #1C1312",
"R@	c #30211E",
"S@	c #514241",
"T@	c #453533",
"U@	c #2C2221",
"V@	c #413332",
"W@	c #170F0E",
"X@	c #1D1211",
"Y@	c #2D2524",
"Z@	c #1B1616",
"`@	c #251A19",
" #	c #050404",
".#	c #161110",
"+#	c #3D2A27",
"@#	c #090302",
"##	c #281E1D",
"$#	c #201514",
"%#	c #0F0A09",
"&#	c #2A1916",
"*#	c #1B1413",
"=#	c #181212",
"-#	c #040101",
";#	c #0A0605",
">#	c #0B0201",
",#	c #0A0606",
"'#	c #0A0201",
")#	c #0C0100",
"!#	c #040202",
"~#	c #130E0E",
"                                . + @ # $                 ",
"                              % & + @ + # *               ",
"                          = - ; @ * @ > > , '             ",
"                          ) ! ~ { + ] ^ / ( _ * :         ",
"                        < = [ ~ } | 1 2 3 4 5 6 @         ",
"                        ) 7 - 8 1 9 0 a b c d e [         ",
"                        ) < - f g h 9 i j k . ~ l         ",
"                        m n @ o 3 p p q r s t u v         ",
"                          n [ w x % y . z A B C D         ",
"                          ) E F [ * . G n H I n n         ",
"                          J ) K L M N O P Q n n n         ",
"                      K R < n S T U L P P V W X Y n       ",
"                  N % S + Z n ` S  .N P P ......Q +       ",
"                N N . - +.+ N K @.#.% $.P %.. * * ;       ",
"                &.*.=.-.@ , . % ;.>.+ N P ,.'.n n         ",
"            ).!.V N , * ~.+ {.].^./.@ S P (.[ % -         ",
"            !._.n % :.' <.+ ].n ].[.}., % |.1.n N         ",
"            2.V n % % 3.' %.F 4.S , @ [.n n               ",
"          5.6.% n N p + N . . 7.n 7.. + 8.+ 9..           ",
"          0.6.% n a.[ . n L I n b.n c.+ @ @ [.[ +         ",
"          0.m '.m = N K [ V L n n n n d.p p }.e.n         ",
"        0.f.n n g.h.i.' ' L j.n n n n n n n k.l.n m.n.    ",
"        0.o.o.n % p.q.r.: ..s.n n n n n n t.l.k.4.[.u.    ",
"        0.v.w.) % % % . S ].s.n x.n n n n e.}.}.y.9.z.    ",
"          n o.< A.B.% N + [ C.d.x.d.D.n E.*.m.m.4.F.z.    ",
"          n G.a.* , % H.@ I.J.d.n d.K.x.L.M.2.N.s N.O.    ",
"            m a.[ P.Q.R.N S.T.d.x.x.U.P V.V.V.V.z N.N.    ",
"            n 7 [ %...n & W.z X.u.2.!.M.V.Y.0.Z.n `.N.    ",
"            n ; p  +%.S .+++z u.@+F.L.M.U.U.#+0.$+%+&+    ",
"            n *+m.[ =+n -+;+x.>+;+;+N.++z z n n n ,+'+    ",
"            m.m.)+v.*.n U.;+x.;+;+>+M.0.n d.4.n n 0.o.    ",
"          o.w.!+~+v.V.n {+;+z u.N.0.x.]+n n x...d.0.0.    ",
"          e.@ n ^+/+!.n n (+N.u.V.d.x.4.n n 4.x.x._+C.    ",
"        n n * S [.:+<+n n n M.n n n n n n n n n d.0.P     ",
"        n n + S /+:+n n n n n d.n n n n n n n n [+$+d.    ",
"        $+P }+|+n   n n n n 1+z C.2+d.2+4.3+4+n n n d.    ",
"        n n 5+n 6+  V a.d.n V ].].'.n V d.7+8+n   _+s     ",
"        d.n 9+n p   n L S 0+K K N N n a.e.n n     _+a+    ",
"        V n p %.    V ! b+S K c+[ . V m o.d+n     n z     ",
"        n e+7 7   '.. [ . S b++ + + '.n v.m         M.    ",
"        n e+f+= - ! S % % g+S h+% % V a.v.'.n       _+    ",
"        n n = i+[ % + * , @ % % j+N V '.@ % V             ",
"        n n < %.k+W.'.'.].. * S l+N L n + + n             ",
"        n n 7 %.2+n n u.m+}+l b+S K '.'.V [ ].            ",
"        n n n+%.]+x.z o+u.z.u.p+q+C.].n !+!+n L r+N.M.    ",
"        s+n %.t+x.u+;+;+L.;+u.;+v+x.z w+F.;+;+x+P p+u.    ",
"        y+n 4.S d.z+;+A+B+;+;+C+x.d.D+E+2.2.F+G+x.d.N.    ",
"        n n %.K a+n H+I+F.J+;+N.x.x.q+2.K+L+M+2.x.s 2.    ",
"        n n ].n N+O+n V.P+F.L.N.z n Q+F.F.F.N.u.R+S+2.    ",
"        n n ].n T+U+K.V.!.!.V+M.M.W+X+Y+F.A+;+F.9+u.;+    ",
"        n n ].n n 0.$+:+z+0.M.M.Z+`+ @.@+@;+@@#@9+N.;+    ",
"        n n n n {+$@n n n n %@_+&@Z+M.!.++++C.P s 2.2.    ",
"        n n V n 2+n n n n *@_+_+_+M.=@!.d.L.s P -@;@L.    ",
"          n n n k+n n _+n *@_+_+0.0.0.0.>@U.d.{+V.,@L.M.  ",
"            n n s.'@n _+_+)@%@_+_+_+_+_+!.2+n d.V.L.!@M.  ",
"            n n ~@{@'@_+)@n n *@_+&@M.M.V.p+<+n 0.M.M.M.  ",
"            n n   ]@s._+n _+)@n n n M.!.L.N.++z p+V.V+M.  ",
"              n ^@    /@n _+_+>@`+!.Z+M.;+F.2+z L.2.;+(@0.",
"                      n n _+_@>@:@<@N.N.[@z.2+P L.N.}@0.|@",
"                      n n 0.M.n 1@V.N.2@z.z.+@+@2.2@N.V.M.",
"                        _+&@M.n n L.N.L.L.N.3@+@N.;+4@V.0.",
"                          _+_+n n {+V+5@V.6@2.S+L.>+;+M.Z+",
"                          _+7@$@n n M.8@9@0@a@F.N.V.;+b@M.",
"                              0.M.V.>@V.}@N.L+K+u.2.2.2.  ",
"                            !.!.L.c@n !.0@N.2.2.I+F.d@2.  ",
"                          u.2.N.L.L.n L.N.N.L.;+F.z.z.2.  ",
"                        +@L.L.e@;+p+4+V.!.;+2+;+I+F.z.F.  ",
"                      P 5.;@,@L.L.d.U.V.5.[+n ;+u.z.f@F.  ",
"                    x.n 5.9@V.{+n n n n n n 1@V.u.F.F.g@  ",
"                  n 2+d.0.M.n n n n n n *@Z.Z+N.N.2.N.L.  ",
"                  h@q+n _+!.n n n n n n |@i@j@k@l@m@!.M.  ",
"                  q+n@n L.M._+n n n 0.n &@|@k@o@(@V.n     ",
"                p@q@4+4+4+r@n n n s@Z+t@V+V.0.M.k@<+n     ",
"                6.u@4+4+4+4+v@w@n L.M.0.M.5._+x@y@n   n   ",
"              V ^.4+4+4+4+4+4+4+P z@0.A@n n n n n   n     ",
"            V B@m 6.C@D@2+n 4+q+0.f.o.n n n n n n         ",
"            E@< m 6.F@G@4+4+  4+*@n n n n n n n n         ",
"          n < H@n n n n n     n n n n n n n n n n         ",
"          = = m m I@J@n       n n n n n n n               ",
"        7 '.< K@L@M@6.4+      n 4+n n n n n               ",
"    g.N@O@P@) n n 8+Q@      n n R@1+n n n                 ",
"  - O@S@T@& m n n n n       J.n 2+4+n v@                  ",
"V a.U@- '.V@V n n n 6.      2+n 6.2+4+2+                  ",
"m W@a./@7 X@Y@Z@n n n     2+2+n 2+2+                      ",
"m m a.U@`@= < = d. #.#    2++#6.^.6.                      ",
"  m @#a.##$#E@< %#) 3+    2+^.&#6.                        ",
"    m m *#7 V =#) B@3+  V V V a.V                         ",
"        m L@V V V V ) -#V a.t.V V V                       ",
"        m ;#d.V  #) ) ) V Q a.Q V >#                      ",
"            ;#n .#,#V V d.n t.'#K )#a.a.                  ",
"                m 7 n m !#n n n e+%.p p '.V               ",
"                  = n ~#m m K@n n L + + [ N               ",
"                      n !#m           n                   "};
