/* XPM */
static char * ZIA1_xpm[] = {
"44 87 585 2",
"  	c None",
". 	c #846A66",
"+ 	c #846B66",
"@ 	c #745D5A",
"# 	c #7F6662",
"$ 	c #7A5854",
"% 	c #754F4A",
"& 	c #252B2E",
"* 	c #655553",
"= 	c #7E5F5A",
"- 	c #464244",
"; 	c #655857",
"> 	c #806A65",
", 	c #4A3837",
"' 	c #302726",
") 	c #76504B",
"! 	c #7C5C57",
"~ 	c #836A67",
"{ 	c #726160",
"] 	c #8B766F",
"^ 	c #584442",
"/ 	c #231C1B",
"( 	c #65514E",
"_ 	c #998E87",
": 	c #866F6D",
"< 	c #87706D",
"[ 	c #8A746D",
"} 	c #574847",
"| 	c #181211",
"1 	c #4B2E2A",
"2 	c #866E68",
"3 	c #8A756F",
"4 	c #856D68",
"5 	c #3C3231",
"6 	c #302120",
"7 	c #2B1210",
"8 	c #210C0A",
"9 	c #1C1514",
"0 	c #B09A9B",
"a 	c #BEA2A4",
"b 	c #635F5F",
"c 	c #533F3E",
"d 	c #2B1412",
"e 	c #392A29",
"f 	c #483635",
"g 	c #856C67",
"h 	c #473C3B",
"i 	c #0B0A0A",
"j 	c #9A8A8B",
"k 	c #A49293",
"l 	c #5E4A47",
"m 	c #382624",
"n 	c #3B2B2A",
"o 	c #261312",
"p 	c #2E201F",
"q 	c #4E3C3A",
"r 	c #705B57",
"s 	c #856B67",
"t 	c #3C2C2B",
"u 	c #292626",
"v 	c #564441",
"w 	c #4C3B38",
"x 	c #514241",
"y 	c #181717",
"z 	c #A48A88",
"A 	c #AA9698",
"B 	c #735D5A",
"C 	c #372726",
"D 	c #362625",
"E 	c #241513",
"F 	c #413130",
"G 	c #070000",
"H 	c #5B4844",
"I 	c #68524F",
"J 	c #191212",
"K 	c #23110D",
"L 	c #423E3F",
"M 	c #0B0605",
"N 	c #000000",
"O 	c #322524",
"P 	c #302221",
"Q 	c #402928",
"R 	c #784942",
"S 	c #988383",
"T 	c #43312F",
"U 	c #322423",
"V 	c #251918",
"W 	c #220D0B",
"X 	c #493736",
"Y 	c #5B4A46",
"Z 	c #1D1615",
"` 	c #110A09",
" .	c #1E1513",
"..	c #464243",
"+.	c #4B4545",
"@.	c #52221B",
"#.	c #020000",
"$.	c #0D0201",
"%.	c #342625",
"&.	c #362B2A",
"*.	c #473633",
"=.	c #483734",
"-.	c #594543",
";.	c #453331",
">.	c #897879",
",.	c #3C211F",
"'.	c #332423",
").	c #392928",
"!.	c #100C0B",
"~.	c #555051",
"{.	c #565151",
"].	c #5F3732",
"^.	c #150F0E",
"/.	c #372A29",
"(.	c #533F3D",
"_.	c #725551",
":.	c #7F615C",
"<.	c #5D4846",
"[.	c #594845",
"}.	c #7B6C6D",
"|.	c #473635",
"1.	c #120706",
"2.	c #221615",
"3.	c #332524",
"4.	c #090101",
"5.	c #42231E",
"6.	c #605B5C",
"7.	c #676263",
"8.	c #42201B",
"9.	c #160F0E",
"0.	c #4E3B39",
"a.	c #735C59",
"b.	c #755450",
"c.	c #735B58",
"d.	c #654F4D",
"e.	c #A59092",
"f.	c #655353",
"g.	c #453431",
"h.	c #352524",
"i.	c #271D1C",
"j.	c #463B2D",
"k.	c #645B4D",
"l.	c #4E4436",
"m.	c #050000",
"n.	c #512D27",
"o.	c #666162",
"p.	c #696364",
"q.	c #070403",
"r.	c #030202",
"s.	c #54413E",
"t.	c #694F4C",
"u.	c #705956",
"v.	c #795B57",
"w.	c #4C2722",
"x.	c #8A0D02",
"y.	c #938182",
"z.	c #928283",
"A.	c #7F6A67",
"B.	c #4C3938",
"C.	c #52403E",
"D.	c #140908",
"E.	c #040000",
"F.	c #060000",
"G.	c #635E5F",
"H.	c #6A6465",
"I.	c #5A504E",
"J.	c #1C1615",
"K.	c #595557",
"L.	c #6A4341",
"M.	c #775F5C",
"N.	c #78605D",
"O.	c #816864",
"P.	c #3C1D1B",
"Q.	c #270100",
"R.	c #4C0000",
"S.	c #837879",
"T.	c #9E8E8E",
"U.	c #938485",
"V.	c #8E7979",
"W.	c #4D3C3A",
"X.	c #534642",
"Y.	c #4D3936",
"Z.	c #59423E",
"`.	c #010000",
" +	c #656061",
".+	c #575252",
"++	c #1D1211",
"@+	c #373131",
"#+	c #5F5151",
"$+	c #79615E",
"%+	c #49302D",
"&+	c #937E81",
"*+	c #998A8A",
"=+	c #918384",
"-+	c #958687",
";+	c #958080",
">+	c #7C6663",
",+	c #78645E",
"'+	c #180C0B",
")+	c #4E4A4A",
"!+	c #5C5657",
"~+	c #272120",
"{+	c #362A29",
"]+	c #494546",
"^+	c #4E4A4C",
"/+	c #171212",
"(+	c #331C18",
"_+	c #846062",
":+	c #9F8E8E",
"<+	c #A29191",
"[+	c #887B7B",
"}+	c #8B7C7D",
"|+	c #95807F",
"1+	c #7B6462",
"2+	c #382A29",
"3+	c #080707",
"4+	c #615D5E",
"5+	c #2E2221",
"6+	c #1A1312",
"7+	c #6C6868",
"8+	c #716D6D",
"9+	c #898181",
"0+	c #3B3839",
"a+	c #64261D",
"b+	c #3E1E19",
"c+	c #2E0000",
"d+	c #A38687",
"e+	c #A18989",
"f+	c #968586",
"g+	c #988584",
"h+	c #090707",
"i+	c #221210",
"j+	c #1E0000",
"k+	c #361612",
"l+	c #5C5758",
"m+	c #393636",
"n+	c #050202",
"o+	c #211A19",
"p+	c #4B4849",
"q+	c #615D5F",
"r+	c #272525",
"s+	c #4E0C09",
"t+	c #8F7C7D",
"u+	c #7F6B6D",
"v+	c #856D6E",
"w+	c #8F8384",
"x+	c #908485",
"y+	c #140E0C",
"z+	c #150000",
"A+	c #261515",
"B+	c #4A4041",
"C+	c #120F0D",
"D+	c #5D4947",
"E+	c #0B0000",
"F+	c #2B1211",
"G+	c #100000",
"H+	c #190000",
"I+	c #3E0000",
"J+	c #742121",
"K+	c #958789",
"L+	c #907F80",
"M+	c #817173",
"N+	c #95888A",
"O+	c #8D8283",
"P+	c #85797A",
"Q+	c #463A3B",
"R+	c #7E6566",
"S+	c #330808",
"T+	c #676162",
"U+	c #5E5A5A",
"V+	c #6F5956",
"W+	c #2C1513",
"X+	c #040303",
"Y+	c #1E1E1E",
"Z+	c #97898A",
"`+	c #948788",
" @	c #938284",
".@	c #96888B",
"+@	c #988A8B",
"@@	c #9A8B8C",
"#@	c #9B8B8E",
"$@	c #847A7C",
"%@	c #8A787A",
"&@	c #565253",
"*@	c #5E5A5B",
"=@	c #1A1616",
"-@	c #2A2727",
";@	c #0C0000",
">@	c #685451",
",@	c #5E4744",
"'@	c #160502",
")@	c #21110E",
"!@	c #352625",
"~@	c #372F2F",
"{@	c #1C1B1B",
"]@	c #3C3A3B",
"^@	c #8E8283",
"/@	c #918586",
"(@	c #9C8C8E",
"_@	c #947476",
":@	c #95878A",
"<@	c #948789",
"[@	c #97898C",
"}@	c #928688",
"|@	c #948689",
"1@	c #7A6E71",
"2@	c #110E0E",
"3@	c #070404",
"4@	c #6D5855",
"5@	c #553C39",
"6@	c #2C1F1E",
"7@	c #020202",
"8@	c #564F50",
"9@	c #393435",
"0@	c #817576",
"a@	c #908385",
"b@	c #877C7D",
"c@	c #5B5151",
"d@	c #8E8183",
"e@	c #84797B",
"f@	c #897E7F",
"g@	c #2C2829",
"h@	c #776D6F",
"i@	c #1C1616",
"j@	c #333030",
"k@	c #2B2121",
"l@	c #070707",
"m@	c #171616",
"n@	c #090808",
"o@	c #624B48",
"p@	c #3D2522",
"q@	c #2B1D1C",
"r@	c #9C8C8F",
"s@	c #231F1F",
"t@	c #837A7B",
"u@	c #7F7575",
"v@	c #948688",
"w@	c #857B7D",
"x@	c #564546",
"y@	c #998A8D",
"z@	c #4F494B",
"A@	c #2D2929",
"B@	c #938688",
"C@	c #5B5859",
"D@	c #241D1D",
"E@	c #3D2C2B",
"F@	c #664D4A",
"G@	c #28100E",
"H@	c #291413",
"I@	c #1C1212",
"J@	c #766F70",
"K@	c #484242",
"L@	c #928586",
"M@	c #766E6F",
"N@	c #887D7E",
"O@	c #544344",
"P@	c #464242",
"Q@	c #261210",
"R@	c #2C1614",
"S@	c #322728",
"T@	c #161313",
"U@	c #3E3939",
"V@	c #8C8081",
"W@	c #604C4C",
"X@	c #2F2C2C",
"Y@	c #331715",
"Z@	c #6B5653",
"`@	c #080505",
" #	c #423130",
".#	c #443230",
"+#	c #463838",
"@#	c #211E1F",
"##	c #615B5B",
"$#	c #1A0000",
"%#	c #222020",
"&#	c #1E0B09",
"*#	c #3C2D2C",
"=#	c #170B09",
"-#	c #2F2525",
";#	c #393535",
">#	c #3C0000",
",#	c #5B4745",
"'#	c #6B0000",
")#	c #7B0600",
"!#	c #862C1D",
"~#	c #5D241B",
"{#	c #360706",
"]#	c #030000",
"^#	c #310807",
"/#	c #5A4644",
"(#	c #644A48",
"_#	c #3E2E2D",
":#	c #92696A",
"<#	c #1D0A07",
"[#	c #3C120B",
"}#	c #7B2A1D",
"|#	c #6D5754",
"1#	c #634C49",
"2#	c #121212",
"3#	c #120000",
"4#	c #220F0E",
"5#	c #6E5855",
"6#	c #5B4643",
"7#	c #110402",
"8#	c #060100",
"9#	c #120402",
"0#	c #0E0301",
"a#	c #080201",
"b#	c #66504D",
"c#	c #4F3937",
"d#	c #1A0705",
"e#	c #271716",
"f#	c #080202",
"g#	c #231716",
"h#	c #160807",
"i#	c #413433",
"j#	c #2F0B0A",
"k#	c #201413",
"l#	c #312322",
"m#	c #2C1C1A",
"n#	c #473634",
"o#	c #433533",
"p#	c #433E3E",
"q#	c #391310",
"r#	c #2F2221",
"s#	c #342524",
"t#	c #513E3D",
"u#	c #3B2C2B",
"v#	c #554645",
"w#	c #3B2E2D",
"x#	c #2D2120",
"y#	c #584441",
"z#	c #2E1F1E",
"A#	c #3A2D2B",
"B#	c #242222",
"C#	c #442E2C",
"D#	c #3D2E2D",
"E#	c #493A39",
"F#	c #3B2D2C",
"G#	c #453A39",
"H#	c #100605",
"I#	c #100807",
"J#	c #0F0302",
"K#	c #372C2B",
"L#	c #715D57",
"M#	c #423230",
"N#	c #453433",
"O#	c #170605",
"P#	c #2D201F",
"Q#	c #463433",
"R#	c #232222",
"S#	c #5B5454",
"T#	c #3B302F",
"U#	c #7E7475",
"V#	c #433939",
"W#	c #444243",
"X#	c #2F2A2A",
"Y#	c #0E0302",
"Z#	c #010101",
"`#	c #070101",
" $	c #544F50",
".$	c #9D8D8E",
"+$	c #200000",
"@$	c #484343",
"#$	c #2E2D2D",
"$$	c #857C7D",
"%$	c #686464",
"&$	c #2B2525",
"*$	c #83797A",
"=$	c #8D8182",
"-$	c #454142",
";$	c #4C4949",
">$	c #575455",
",$	c #797172",
"'$	c #5B0000",
")$	c #98898C",
"!$	c #564B4B",
"~$	c #4F4C4C",
"{$	c #807677",
"]$	c #938587",
"^$	c #8C6F71",
"/$	c #790000",
"($	c #8F8284",
"_$	c #170807",
":$	c #4B4748",
"<$	c #A99597",
"[$	c #762B1E",
"}$	c #100301",
"|$	c #363333",
"1$	c #3F3B3C",
"2$	c #605C5D",
"3$	c #736B6C",
"4$	c #817677",
"5$	c #6F6869",
"6$	c #7F7677",
"7$	c #615C5C",
"8$	c #3D393A",
"9$	c #6C6667",
"0$	c #504B4C",
"a$	c #867B7C",
"b$	c #715858",
"c$	c #1C0C0B",
"d$	c #353131",
"e$	c #383535",
"f$	c #726B6C",
"g$	c #524F4F",
"h$	c #464343",
"i$	c #71696A",
"j$	c #937476",
"k$	c #6D6768",
"l$	c #585556",
"m$	c #070302",
"n$	c #A39193",
"o$	c #A47071",
"p$	c #1A0908",
"q$	c #575253",
"r$	c #56403E",
"s$	c #C7A7AA",
"t$	c #0D0604",
"u$	c #A18E8F",
"v$	c #413D3E",
"w$	c #4D4A4B",
"x$	c #673F40",
"y$	c #E7B5B8",
"z$	c #565354",
"A$	c #756D6E",
"B$	c #474344",
"C$	c #7A7273",
"D$	c #71423C",
"E$	c #EAB1C1",
"F$	c #7A7172",
"G$	c #83797B",
"H$	c #A39092",
"I$	c #B59D9E",
"J$	c #C2A4A7",
"K$	c #494646",
"L$	c #BFA3A5",
"M$	c #2B0000",
"N$	c #210000",
"O$	c #7A7171",
"P$	c #0C0A09",
"Q$	c #282424",
"R$	c #1D0F0C",
"S$	c #110F0F",
"T$	c #0E0C0A",
"U$	c #161515",
"V$	c #1F0000",
"W$	c #1F1312",
"X$	c #110504",
"Y$	c #201A19",
"Z$	c #2D1F1E",
"`$	c #0A0605",
" %	c #090504",
".%	c #1D0C0B",
"+%	c #130E0D",
"@%	c #0B0706",
"#%	c #0C0201",
"$%	c #050201",
"%%	c #110C0B",
"&%	c #705E5D",
"*%	c #2C1E1D",
"=%	c #0B0201",
"-%	c #160E0E",
";%	c #211717",
">%	c #624E4B",
",%	c #382725",
"'%	c #2F1E1D",
")%	c #614D4A",
"!%	c #241B1A",
"~%	c #301513",
"{%	c #5E4947",
"]%	c #493331",
"^%	c #29110F",
"/%	c #554140",
"(%	c #4D3A39",
"_%	c #342624",
":%	c #362320",
"<%	c #240E0B",
"[%	c #230D0B",
"}%	c #2D1D1B",
"|%	c #9A594F",
"1%	c #4F3C3B",
"2%	c #0A0201",
"3%	c #854D47",
"4%	c #806B69",
"                                            . + . @ @ #                                 ",
"                                          . $ % & # @ @ *                               ",
"                                          = = = - ; > @ , '                             ",
"                                          ) ! ~ { & ] . ^ /                             ",
"                                        ( % % _ : < [ + } |                             ",
"                                      ( 1 + 2 : : 3 4 . 5 /                             ",
"                                  ^ 6 7 8 . . + 2 2 @ * 9 /                             ",
"                          0 a b c d 8 e f + + g 2 g ( h / / ( ,                         ",
"                        i j k l m n o p q ( r 2 s @ , t | | u 5 5 v w x                 ",
"                        y z A B C D 6 E F G H I ( * / G J K L M N / O P }               ",
"                        Q R 0 S T U V W X Y G ^ 5 | 9 Z `  ...+.@.#.$.%.&.              ",
"                    *.=.-.;.>.0 ,.'.).6 t 6 G #.N ' N N !.K ~.{.].N N ^./.              ",
"                  (.-._.:.<.[.0 }.|.).1.2., 3.G #.#.4.N N 5.6.7.8.!.N N 9.              ",
"                6 0.a.b.% c.d.0 e.f.g.h.#.6 i.N j.k.l.m.#.n.o.p.5.q.N #.r.              ",
"                s.t.u.v.% w.w.x.y.z.A.B.C.D.N G E.N E.F.6 5.G.H.I.N N N J.              ",
"              K.L.M.N.O.P.P.Q.R.S.T.U.V.W.X.Y.N N N N $.Z.`. +H..+N #.| ++/             ",
"              @+#+$+. %+P.P.Q.R.&+*+=+-+;+>+,+G h h '+' N N )+H.!+N N ~+{+5             ",
"              ]+@+^+/+N 6 , N (+_+:+<+[+}+|+1+, 2+h | (+N N 3+o.4+N N N 5+6+|           ",
"              b 7+8+8+9+0+i a+b+@.c+d+e+f+g+h+i+N j+@.k+N N `.l+m+(+/ / n+| o+'         ",
"              p+b q+8+8+r+N c+@.s+c+t+u+v+w+x+N y+j+z+N N A+B+ +C+K N ' N 4./ '         ",
"              D+^ E+F+n N N G+H+I+J+K+L+M+N+O+N+P+Q+j+j+R+S+T+U+L  .M N N N N #.        ",
"            ( V+t 8 W+C X+Y+F.G+K Z+`+Z+ @.@.@+@@@#@$@%@j+G+&@*@=@-@N N N ;@N N         ",
"            >@,@'@)@6 !@~@{@`.N ]@^@/@(@_@:@<@[@}@|@1@:@N N =@..=@=@2@N N $.3@{@        ",
"            4@5@N 6 6@7@N N G+8@9@0@a@b@c@[@d@e@f@:@g@h@N N i@j@=@k@2@N N l@m@N n@      ",
"          t o@p@W q@3@N N N r@s@t@u@v@w@x@y@z@N A@B@C@D@N G+N N N N N N N N N 5 N       ",
"          E@F@G@H@I@N N N N J@K@L@M@N@J@O@P@N N N x+N N `.j+N N N N N N N N '+N N       ",
"          I @ Q@R@X+N   S@G+T@U@f@S.V@W@G+N N N X@P@N J@N j+N N N N   @.Y@E+N N N       ",
"        N Z@`@ #.#M     k@G++#@###C@C+R.G+j+N $#I+N %#+#I+j+E+N N     j+N N N N         ",
"        $.7 &#*#=#N     j@N 8.-#;#2@N j+G+I+I+I+c+`.=@+#I+>#j+N N     I+;@N N N         ",
"      q ,#7 7 N N           j+S.j@N N `.`.'#`.K `.N  .N y+`.a+)#!#~#{#m.]#N N           ",
"    ^#/#(#_#G N N           N :#L K K '@N N N N N N N K N <#'@N [#}#k+N N N             ",
"    '@|#1#8 N N             `._+2#N #.m.N N N N N N N N 3#'@'@7 4#N N N N               ",
"    N 5#6#8 N 7#            0+Y+N 8#9#'+6 m.$.#.`.N N N N 0#a#N N N N N N               ",
"    | b#c#d#N               N N N '@e#2.#.f#g#, , 8 h#N N N N N N N                     ",
"    / i#j#`.N               N N k#e F l#m#2+n#6 '@'@^ o#N N N N N                       ",
"    p#'@q#N N               ' 6 r#s#t#u#v#w#x#y#;@N z#A#N N B#'@2.$.'                   ",
"    '+E+6 N                 -.C#U D#E#F#G#'@H#7 P.( 2.N I#;@'+J#U K#}                   ",
"    N E+4.N                 ^ L#C.M#_#N#^ 8 7 O#, t ;@m.'@N '@u#P#Q#,                   ",
"    h / N                 R#t@t@S#^+T#U#V#8 2.h 5 5 u W#X#Y#E+m.Z#`#@+W#                ",
"    h `.N                 y 0+W#8+8+8+W#N ]#m.b b W#b  $.$_++$I+j+`.@$j@                ",
"    ~+N N                 y #$#$$$8+%$&$N N N K.8+S.x+*$=$S.I+I+G+G+C@L                 ",
"  N N N                   -$;$>$J@,$S.:#'$G+j+x+r@S.)$x+K+x+n.j+`.!$J@~$                ",
"  N ;@N                   ;$L ~$J@{$]$r@^$/$)#J@r@x+r@S.0 0 (+N j+J@($H.                ",
"_$m.;@m.                  ~$L :$J@S.V@<$r@R.[$S.0 x+]$S.x+S.k@N N ~$L ~$-$              ",
"m.}$<#h '@                |$1$L 2$3$S.S.S.'$'$J@r@V@4$5$J@6$x+O@S.W@S.7$~$              ",
"N '@'@E.6                 8$j@L H.H.S.V@x+5.j+J@S.U#9$0$x+=$a$b$S.W@J@C@~$              ",
"N '@a#N N c$              L j@8$H.H.J@x+x+S.c+H.C@H.d$L S.S.S.b$S.b$r@S.H.              ",
"N '@h#N   N a+            ;$1$e$j@~$>$H.H.~$L N j@j@C+H.2$~$H.W@J@O@J@J@J@L             ",
"m.m.8 N                     L ~$L ~$~$H.f$S.J@G+i@N N P@H.r@0 _+S.O@S.C@g$h$=@          ",
"m.`.E+N                     L :$~$>$C@H.C@>$~$N N N N =@~$i$0 j$r@W@r@k$l$~$N           ",
"  N 8 m$                    j@L J@J@4+~$~$~$~$`.@$  N 2@7$~$n$0 o$n.0 x+x+j@N           ",
"  N m$p$                    L N j@q$k$J@,$S.V@G+j@    N L S.K r$5.@.s$S.3$H.@$          ",
"  N N 8 N                   j@1$s@j@ $J@{$S.S.G+j@      =@S.t$K O@j+s$u$S.S.@$          ",
"    N   j+                  v$j@w$H.H.~$~$~$H.O@j@      L ~$j+c+x$j+s$y$s$J@~$          ",
"                            ;$v$j@1$z$A$S.S.S.@$j@        C@F.$#c+R.o$x+x+C@C@          ",
"                            ~$L 1$j@B$2$H.S.S.k@=@        ~$G+G+H+R.a+0 s$~$~$          ",
"                            j@j@C@H.H.H.U#C$~$+#            S@F.G+c+D$E$y$S.C@=@        ",
"                              |$L H.F$r@r@G$S.O@              k@G+n.s$s$x+b@H.L         ",
"                              L L C@J@r@x+r@r@W@              ~$+#O@H$s$x+x+J@j@        ",
"                                L C@A$0 0 0 0 W@                (+K S.r@S.r@C@C@        ",
"                                L g$l$I$J$s$r@O@                  O@H.c+c+@. .@$        ",
"                                j@K$~$s$y$L$0 +#                  C@H.M$N$I+N N         ",
"                                1$m+~$O$r@0 0 j@                  K `.j+z+E+N N ~$      ",
"                                L j@~$~$J@J@S.=@                  j+N j+`.N N N P$      ",
"                              J@L Q$~$~$H.~$H.=@                  `.N j+N N N N N L     ",
"                              s$e$L L =@N N j@                    N `.N N i+(+R$N L     ",
"                            '$S.j@~$j@P$N N S$                    T$N N N (+(+(+N ~$    ",
"                            R.W@k@@$2@N N N N                      .=#N N ;@#.#.N U$    ",
"                            `.V$%#N N N N N N                       #.#.$.2.$.#.N N     ",
"                            G+E.N N N =@N N N                       $.2.'+W$#.N N N     ",
"                            E.m.N N N N N N N                       #.' X$'+`.N N N     ",
"                            k@N N N N N N N N                         X$2./ N N N N     ",
"                              N N N N N N                             2.2.5 Y$N M M     ",
"                              N N N N N N                             Z$2.6 $.N `.`$    ",
"                              N N N N N N                               t N 8 N N N     ",
"                              N N N N N                                 5 m.t * | M     ",
"                              N N N N  %                                  ( ^ h N N     ",
"                               %N N N                                     N .%#.N N     ",
"                              #.+%@%`.                                    8 #.N N N     ",
"                            $.#%$%%%M                                     8 &%6 N N M   ",
"                            6 *%=%#.#.                                    N '@a#-%D.#.' ",
"                            8 , ^ ;%N $.                                ^ >%,%'@'.2./  .",
"                            '%7 7 ^ )%'+#.                              m.^ 2.Q#'+h N !%",
"                            7 ~%{%@ ]%^%8                             ^ /%, (%_%'+5 N N ",
"                            '+( @ :%<%[%}%                          |%@ 1%1% #t D.$.M N ",
"                                2.  '@#.|                           D$6 t t t t 2%]#N N ",
"                                                                  3%(+/ 4%@ '@* N N q.  "};
