/* XPM */
static char * ZIA2_xpm[] = {
"38 88 624 2",
"  	c None",
". 	c #745D5A",
"+ 	c #846A66",
"@ 	c #7C6460",
"# 	c #78625D",
"$ 	c #705B57",
"% 	c #816763",
"& 	c #754F4A",
"* 	c #252B2E",
"= 	c #846B66",
"- 	c #806863",
"; 	c #6F5A55",
"> 	c #715C58",
", 	c #6E5955",
"' 	c #352624",
") 	c #866F6D",
"! 	c #635553",
"~ 	c #836B66",
"{ 	c #7A635F",
"] 	c #695552",
"^ 	c #6F5956",
"/ 	c #65524F",
"( 	c #3E3332",
"_ 	c #92837D",
": 	c #655955",
"< 	c #62514F",
"[ 	c #65514E",
"} 	c #655250",
"| 	c #5A4948",
"1 	c #180C0B",
"2 	c #998E85",
"3 	c #87716A",
"4 	c #685C59",
"5 	c #464141",
"6 	c #66504E",
"7 	c #4A3837",
"8 	c #41302F",
"9 	c #0C0000",
"0 	c #2C2120",
"a 	c #3C2C2B",
"b 	c #584442",
"c 	c #8B766F",
"d 	c #7E5F5A",
"e 	c #302120",
"f 	c #574847",
"g 	c #4B3938",
"h 	c #8D7570",
"i 	c #856C68",
"j 	c #3F2F2E",
"k 	c #0D0101",
"l 	c #020000",
"m 	c #0A0404",
"n 	c #5C4846",
"o 	c #634F4C",
"p 	c #6E5855",
"q 	c #6B5754",
"r 	c #6A5451",
"s 	c #5D4947",
"t 	c #8E7471",
"u 	c #917976",
"v 	c #856F6C",
"w 	c #836D6B",
"x 	c #89716E",
"y 	c #89706C",
"z 	c #574442",
"A 	c #342524",
"B 	c #000000",
"C 	c #100807",
"D 	c #110504",
"E 	c #4D3B39",
"F 	c #644F4C",
"G 	c #78605D",
"H 	c #7E6562",
"I 	c #8A716E",
"J 	c #806964",
"K 	c #78615D",
"L 	c #7A615E",
"M 	c #251310",
"N 	c #6C5855",
"O 	c #7D6664",
"P 	c #635050",
"Q 	c #373031",
"R 	c #5A4B4B",
"S 	c #392B2B",
"T 	c #302222",
"U 	c #170E0E",
"V 	c #392928",
"W 	c #5D4B4B",
"X 	c #503E3D",
"Y 	c #645453",
"Z 	c #665452",
"` 	c #7F6662",
" .	c #7D6460",
"..	c #7E635F",
"+.	c #7F6460",
"@.	c #7E625D",
"#.	c #745A55",
"$.	c #7D6661",
"%.	c #705E5D",
"&.	c #655553",
"*.	c #473C3B",
"=.	c #040303",
"-.	c #251817",
";.	c #211C1B",
">.	c #322B2B",
",.	c #3A3333",
"'.	c #362F2F",
").	c #2E2324",
"!.	c #16100F",
"~.	c #312221",
"{.	c #4D3C3C",
"].	c #493A39",
"^.	c #333131",
"/.	c #544C4B",
"(.	c #402C29",
"_.	c #634945",
":.	c #775F5C",
"<.	c #866F69",
"[.	c #856D68",
"}.	c #7E6662",
"|.	c #705B56",
"1.	c #0F0402",
"2.	c #3C3231",
"3.	c #231C1B",
"4.	c #070403",
"5.	c #0D0201",
"6.	c #070606",
"7.	c #221A1A",
"8.	c #433434",
"9.	c #483737",
"0.	c #665857",
"a.	c #3B3738",
"b.	c #1A0807",
"c.	c #533936",
"d.	c #826965",
"e.	c #745D59",
"f.	c #0B0605",
"g.	c #3C2D2C",
"h.	c #4C3C3B",
"i.	c #524342",
"j.	c #534E50",
"k.	c #211C1C",
"l.	c #160502",
"m.	c #280201",
"n.	c #362221",
"o.	c #775F5B",
"p.	c #816460",
"q.	c #6F5955",
"r.	c #3E2E2D",
"s.	c #1B1919",
"t.	c #6A645D",
"u.	c #4B3B3A",
"v.	c #413231",
"w.	c #6A6363",
"x.	c #716D6D",
"y.	c #79625E",
"z.	c #351D1C",
"A.	c #290302",
"B.	c #271411",
"C.	c #67524F",
"D.	c #221615",
"E.	c #444243",
"F.	c #302726",
"G.	c #181312",
"H.	c #706859",
"I.	c #160E0E",
"J.	c #3D2D2C",
"K.	c #715E5F",
"L.	c #736C6C",
"M.	c #837A7B",
"N.	c #210C0A",
"O.	c #58413F",
"P.	c #0B0000",
"Q.	c #3B3839",
"R.	c #271C1B",
"S.	c #423231",
"T.	c #43302F",
"U.	c #786F70",
"V.	c #8D7F80",
"W.	c #A08F90",
"X.	c #89726C",
"Y.	c #010000",
"Z.	c #120B0B",
"`.	c #382523",
" +	c #422B29",
".+	c #453534",
"++	c #513F3D",
"@+	c #2F2727",
"#+	c #503D3B",
"$+	c #331715",
"%+	c #4E4343",
"&+	c #4E4A4C",
"*+	c #392F2F",
"=+	c #0D0505",
"-+	c #574341",
";+	c #483635",
">+	c #736F6F",
",+	c #98898A",
"'+	c #BDA0A1",
")+	c #3C1D1B",
"!+	c #54413F",
"~+	c #866E69",
"{+	c #846B67",
"]+	c #755D5A",
"^+	c #755F5B",
"/+	c #463534",
"(+	c #210E0C",
"_+	c #595557",
":+	c #605C5C",
"<+	c #190F0E",
"[+	c #231716",
"}+	c #180704",
"|+	c #573F40",
"1+	c #A79496",
"2+	c #B89DA0",
"3+	c #1C0C0B",
"4+	c #180B0B",
"5+	c #866D6B",
"6+	c #836B65",
"7+	c #332624",
"8+	c #231817",
"9+	c #0E0908",
"0+	c #2C2929",
"a+	c #181211",
"b+	c #261F1E",
"c+	c #0A0808",
"d+	c #745551",
"e+	c #A99697",
"f+	c #160807",
"g+	c #22100D",
"h+	c #7E6561",
"i+	c #816864",
"j+	c #79615D",
"k+	c #352C2C",
"l+	c #322C2C",
"m+	c #030202",
"n+	c #333132",
"o+	c #512D27",
"p+	c #1E0000",
"q+	c #3B1010",
"r+	c #A49192",
"s+	c #1C1B1B",
"t+	c #806663",
"u+	c #7B625E",
"v+	c #7A615D",
"w+	c #826864",
"x+	c #302727",
"y+	c #322828",
"z+	c #1A0E0D",
"A+	c #020101",
"B+	c #140000",
"C+	c #574E4C",
"D+	c #322F2F",
"E+	c #111010",
"F+	c #151212",
"G+	c #1F1D1D",
"H+	c #010101",
"I+	c #1B0000",
"J+	c #4C0000",
"K+	c #B09A9B",
"L+	c #6C6466",
"M+	c #4E3F3D",
"N+	c #65504D",
"O+	c #6C5450",
"P+	c #654E4C",
"Q+	c #866E68",
"R+	c #745C59",
"S+	c #1F1312",
"T+	c #1A0B09",
"U+	c #211413",
"V+	c #181616",
"W+	c #615E5E",
"X+	c #070607",
"Y+	c #6A6465",
"Z+	c #666162",
"`+	c #6C6566",
" @	c #6D6466",
".@	c #716869",
"+@	c #645052",
"@@	c #8E6D6F",
"#@	c #600000",
"$@	c #776D6E",
"%@	c #2E2D2D",
"&@	c #121111",
"*@	c #2B1210",
"=@	c #261918",
"-@	c #211210",
";@	c #2B1E1D",
">@	c #1F1615",
",@	c #545051",
"'@	c #504E4F",
")@	c #6D6465",
"!@	c #887A7B",
"~@	c #807273",
"{@	c #807374",
"]@	c #706668",
"^@	c #6F5A5C",
"/@	c #2E0000",
"(@	c #464445",
"_@	c #181717",
":@	c #272626",
"<@	c #1F1E1E",
"[@	c #242223",
"}@	c #321A16",
"|@	c #513E3D",
"1@	c #6C5653",
"2@	c #7E6762",
"3@	c #1C0D0B",
"4@	c #211211",
"5@	c #2B1D1C",
"6@	c #392D2C",
"7@	c #575254",
"8@	c #746A6A",
"9@	c #817374",
"0@	c #796B6D",
"a@	c #726769",
"b@	c #766B6C",
"c@	c #63595B",
"d@	c #7A6F71",
"e@	c #333030",
"f@	c #0B0A0A",
"g@	c #0F0E0E",
"h@	c #424041",
"i@	c #6E5B58",
"j@	c #5E4E4C",
"k@	c #695F5E",
"l@	c #6B5653",
"m@	c #1A0A08",
"n@	c #211110",
"o@	c #241817",
"p@	c #271C1C",
"q@	c #665D5E",
"r@	c #6F6566",
"s@	c #7D7173",
"t@	c #766C6D",
"u@	c #756B6C",
"v@	c #766B6D",
"w@	c #6A6062",
"x@	c #695E60",
"y@	c #0A0A0A",
"z@	c #211A1A",
"A@	c #2E2525",
"B@	c #171212",
"C@	c #685A5A",
"D@	c #7D6562",
"E@	c #765F5B",
"F@	c #564847",
"G@	c #736362",
"H@	c #504746",
"I@	c #1E1513",
"J@	c #190907",
"K@	c #281B1A",
"L@	c #382E2E",
"M@	c #74696B",
"N@	c #736869",
"O@	c #837677",
"P@	c #605759",
"Q@	c #484041",
"R@	c #756A6C",
"S@	c #6E6667",
"T@	c #655B5C",
"U@	c #060506",
"V@	c #100000",
"W@	c #1E100F",
"X@	c #856B67",
"Y@	c #352A28",
"Z@	c #4B4241",
"`@	c #2A2220",
" #	c #464041",
".#	c #42231E",
"+#	c #1F0D0A",
"@#	c #1D0F0D",
"##	c #312625",
"$#	c #74696A",
"%#	c #6E6465",
"&#	c #4C4747",
"*#	c #6C6163",
"=#	c #5C5355",
"-#	c #040404",
";#	c #270100",
">#	c #3D302F",
",#	c #735A57",
"'#	c #715957",
")#	c #312222",
"!#	c #1B1717",
"~#	c #261F1F",
"{#	c #423E3F",
"]#	c #251413",
"^#	c #766A6C",
"/#	c #5E5759",
"(#	c #756D6F",
"_#	c #4D4446",
":#	c #715858",
"<#	c #230000",
"[#	c #1F0000",
"}#	c #060000",
"|#	c #290000",
"1#	c #7B0600",
"2#	c #050000",
"3#	c #473937",
"4#	c #584744",
"5#	c #191313",
"6#	c #171616",
"7#	c #242424",
"8#	c #1A1616",
"9#	c #382826",
"0#	c #2A1D1C",
"a#	c #312423",
"b#	c #595152",
"c#	c #3A2F30",
"d#	c #4A2B27",
"e#	c #332929",
"f#	c #120F0D",
"g#	c #390000",
"h#	c #1A0000",
"i#	c #5B0000",
"j#	c #0E0301",
"k#	c #090807",
"l#	c #070605",
"m#	c #050100",
"n#	c #170A09",
"o#	c #2A1C1B",
"p#	c #292525",
"q#	c #762B1E",
"r#	c #3F0000",
"s#	c #5F3732",
"t#	c #533C3D",
"u#	c #3E0000",
"v#	c #340000",
"w#	c #52221B",
"x#	c #030000",
"y#	c #191010",
"z#	c #140808",
"A#	c #851E11",
"B#	c #81281A",
"C#	c #6D2622",
"D#	c #76302A",
"E#	c #23110D",
"F#	c #120000",
"G#	c #201615",
"H#	c #391310",
"I#	c #080201",
"J#	c #322524",
"K#	c #421B17",
"L#	c #271312",
"M#	c #0B0201",
"N#	c #170807",
"O#	c #1A0100",
"P#	c #100C0B",
"Q#	c #171312",
"R#	c #371B19",
"S#	c #382827",
"T#	c #685350",
"U#	c #594543",
"V#	c #502E2A",
"W#	c #765E5B",
"X#	c #131010",
"Y#	c #2D2322",
"Z#	c #685451",
"`#	c #53413E",
" $	c #270F0D",
".$	c #6D504C",
"+$	c #6B4743",
"@$	c #42231F",
"#$	c #674841",
"$$	c #373131",
"%$	c #1D1313",
"&$	c #5F4C4A",
"*$	c #6D5855",
"=$	c #160F0F",
"-$	c #120F0E",
";$	c #080000",
">$	c #5E4A47",
",$	c #6D5854",
"'$	c #745F5B",
")$	c #090101",
"!$	c #473534",
"~$	c #140202",
"{$	c #281A19",
"]$	c #232222",
"^$	c #373333",
"/$	c #594C4C",
"($	c #383535",
"_$	c #191616",
":$	c #1B1111",
"<$	c #635F5F",
"[$	c #322728",
"}$	c #766F70",
"|$	c #5B5859",
"1$	c #535050",
"2$	c #2B2929",
"3$	c #524E50",
"4$	c #4F4C4C",
"5$	c #484343",
"6$	c #4A4646",
"7$	c #524F4F",
"8$	c #271716",
"9$	c #484647",
"0$	c #585455",
"a$	c #222020",
"b$	c #585556",
"c$	c #0C0A09",
"d$	c #4B4748",
"e$	c #9C8C8F",
"f$	c #64261D",
"g$	c #646061",
"h$	c #797172",
"i$	c #837879",
"j$	c #615D5E",
"k$	c #706A6B",
"l$	c #090201",
"m$	c #827778",
"n$	c #908485",
"o$	c #2B2121",
"p$	c #040000",
"q$	c #6B0000",
"r$	c #685858",
"s$	c #1C1616",
"t$	c #4D4343",
"u$	c #524F50",
"v$	c #8C8081",
"w$	c #736B6C",
"x$	c #544344",
"y$	c #605C5D",
"z$	c #7A7172",
"A$	c #736768",
"B$	c #726B6C",
"C$	c #272425",
"D$	c #282626",
"E$	c #3D393A",
"F$	c #555151",
"G$	c #292626",
"H$	c #484546",
"I$	c #2A2727",
"J$	c #615C5C",
"K$	c #645556",
"L$	c #131313",
"M$	c #343232",
"N$	c #575455",
"O$	c #604C4C",
"P$	c #595657",
"Q$	c #393637",
"R$	c #464343",
"S$	c #3F1A1A",
"T$	c #867A7D",
"U$	c #474344",
"V$	c #0E0D0D",
"W$	c #363333",
"X$	c #877C7D",
"Y$	c #846062",
"Z$	c #282424",
"`$	c #83797A",
" %	c #A39092",
".%	c #C7A7AA",
"+%	c #9A888A",
"@%	c #938587",
"#%	c #9A594F",
"$%	c #7A7273",
"%%	c #7F7576",
"&%	c #E7B5B8",
"*%	c #3D3A3A",
"=%	c #6D6768",
"-%	c #4C4949",
";%	c #454142",
">%	c #A99596",
",%	c #97898A",
"'%	c #464242",
")%	c #766E6F",
"!%	c #776F70",
"~%	c #B3787A",
"{%	c #D6A9B4",
"]%	c #5C595A",
"^%	c #343031",
"/%	c #92696A",
"(%	c #463838",
"_%	c #544E4F",
":%	c #D4ACAE",
"<%	c #605253",
"[%	c #C2A4A7",
"}%	c #B89EA1",
"|%	c #370000",
"1%	c #8C7F80",
"2%	c #B59D9E",
"3%	c #A89394",
"4%	c #8C7F81",
"5%	c #7B7172",
"6%	c #625B5D",
"7%	c #5E5B5C",
"8%	c #2B2525",
"9%	c #3C3A3B",
"0%	c #2F2C2C",
"a%	c #272525",
"b%	c #18110F",
"c%	c #140908",
"d%	c #040100",
"e%	c #100A09",
"f%	c #181212",
"g%	c #2C2221",
"h%	c #1A0908",
"i%	c #272120",
"j%	c #806B69",
"k%	c #1C1615",
"l%	c #372927",
"m%	c #7B6664",
"n%	c #4E403F",
"o%	c #372D2C",
"p%	c #0A0707",
"q%	c #090504",
"r%	c #6F5A58",
"s%	c #4A3A39",
"t%	c #282120",
"u%	c #1C1514",
"v%	c #140E0D",
"w%	c #715A57",
"x%	c #776361",
"y%	c #4E3F3E",
"z%	c #080606",
"A%	c #6A5552",
"B%	c #574846",
"C%	c #302322",
"D%	c #1D100F",
"E%	c #281E1D",
"F%	c #1F1918",
"G%	c #040202",
"              . + @ # $ %                                                   ",
"            & * = - ; > , '                                                 ",
"            ) * ! ~ { ] ^ / (                                               ",
"          ) _ : * < = [ [ } | 1                                             ",
"          ) 2 3 4 5 + + 6 7 8 9 0 a b 7                                     ",
"        = c d 3 c + 3 e 7 b 7 7 9 f e 7 [ [ g                               ",
"          h i = . b + b j 7 j 9 k l m 1 n o p q r [ s                       ",
"          t u v w x y b z a A 9 B B C D E F G H I J K L { n M               ",
"            + [ N O P Q R S T U l B B l V W X Y Z `  ...+.@.#.$.B           ",
"            %.&.*.%.+ B =.-.;.>.,.'.).!.~.{.].^./.(._.:.<.[.}.|.1.B         ",
"            2.3.3.2.4.B 5.B B B B 6.7.8.9.j 0.a.+ B b.c.+ i d.e.~.B         ",
"                B B B l B B B B B f.B g.h.i.j.k.[ l.9 m.n.o.p.q.r.B         ",
"                  [ s.B B B B t.B B B u.v.w.x.y.= . 7 z.A.B.+ C.D.B         ",
"                  [ E.F.G.B H.B B B I.J.K.L.M.= d D.C B [ N.O.b 1 B         ",
"                3 P.Q.R.F.B B B B B S.T.U.V.W.X.= B B Y.Z.`. +.+++@+B       ",
"              #+$+%+&+D.l f f *+B =+-+;+>+,+'+[ )+B B I.e !+~+{+]+^+l       ",
"              /+(+_+:+1 5.2.*.<+F.[+}+B |+1+2+N.3+B B B 4+e 5+~+6+, 7+B     ",
"              8+9+0+_+1 a+D.*.b+c+B 9 B B d+e+l B B B B f+g+H h+i+j+} 3.    ",
"              k+l+m+B n+o+l B B B B p+B P.q+r+s+B B B B B + t+u+v+w+K 7 f.  ",
"              x+y+z+A+B B+C+D+B E+F+G+H+I+J+K+L+B B B B B M+N+O+P+Q+R+7 5.  ",
"              S+T+U+V+W+X+Y+Z+`+ @.@+@@@J+#@K+$@Q.%@&@B B B l.*@B B e *@N.  ",
"              =@-@;@>@,@'@)@!@~@{@]@^@/@p+/@U.(@_@:@%@_@<@%@Q.[@B }@|@1@2@a+",
"              3@4@5@6@7@8@9@0@a@b@c@d@P.B B e@%@_@f@Q.g@_@_@h@i@].j@k@l@n B ",
"              m@n@o@p@q@r@s@t@u@v@w@x@y@B B z@A@B B B@%@%@Q.C@D@E@` F@G@H@I@",
"              J@K@D.L@M@N@O@P@Q@R@S@T@U@B+P.B B B p+V@B B@W@X@+ E@Y@Z@`@ #.#",
"              +#@#D.##$#%#&#B B *#v@=#-#p+Y.B B B /@V@B ;#>#,#'#)#B !#~#{#.#",
"              9 ]#o@' ^#/#B B B (#_#S@:#<#[#}#V@Y.|#<#1#2#3#4#5#6#7#B 8#e@  ",
"            1 l.9#0#a#b#c#V@d#B =.e#e@f#/@g#h#p+p+<#|#i#j#k#l#B B f.        ",
"            9 m#n#o#a#p#e@V@J+q#r#s#{#t#/@u#v#V@P.p+u#w#B B B B             ",
"            x#B H+y#z#B {#Y./@Y.A#B#C#D#q#p+E#B B B B p+Y.B B               ",
"          F#B G#D.l.B B {#  B P.F#H#*@j#I#B l.l B B B V@Y.I@                ",
"          P.B J#2#B B   _@P.N.l.K#L#B I#j#F#l.B l B B f.B B                 ",
"        B *@l.M#N#B B l B B O#3+B B l B l B k.l P#Q#G.e a 1                 ",
"        B N.I#l.N.    N.F#B B B B B B B R#S#_@B a+4#T#U#a D.F.              ",
"        B l.B l.B     B B   B B B B B Y.V#W#X#Y.Y#Z#[ `#e D.7               ",
"         $l.I#2#          B l B B Y..$+$@$#$$$l %$&$*$e S#b Q+.             ",
"        l.9 l.9           a =$k#-$;$[ [ D.3.e 1 1 [ >$,$'$. )$B             ",
"        B 2#B B         . !$a 7 ~$B 7 l 1 e 1 {$l.a b [ D.l B B ]$          ",
"      B B B B         &+^$/$l.G#B B ($Q._$B B B B B 2#&+&+&+B B %@          ",
"      :$B l           <$<$B B B Q.Q.Q.]$Q.B B B B B [$}$|$1$2$B {#{#        ",
"    B 2.B B           _+3$B B B E.Y+Y+4$4$5$Y.Y.B B 6$7$|$|$e@B {#{#        ",
"    9 8$l.B           9$_+B B Y.|$0$Y+|$|$|$4$B B a$4$b$|$1$c$B d${#        ",
"    l.l.m#B           }$e$J+i#f$g$h$i$j$k$Y+e@V@Y.|$}$Y+e@e@B B d${#        ",
"    l.l$B             Y+i$o+u#f$h$m$n$}$}${#B o$[$|$e$|$4$f#Y.o${#{#        ",
"  p$N.B N.            |$}$n$q$i#i$i$i$}$r$V@i$n$n$i$}$|$s$B t$|$u${#        ",
"  B F#B B             Y+i$v$:#/@w$i$i$}$x$}$Y+Y+y${#{#{#B B |$1$e@e@        ",
"  B F#B B             Y+z$i$i$/@:#i$A$}$e$e$n$B$Y+d${#C$B D$E${#e@          ",
"  N.j#B B             F$Y+4$4$4$B f#}$G$i$i$n$}$Y+|$H$E+D$4$I$8#            ",
"B a B B               4$J$i$i$i$V@Y.x$K$i$w$|$1$1$|$L$M$N${#8#              ",
"  a B B               b$4$N$|${#B z@O$i$i$Y+|$|$P$Q$B 4$d${#                ",
"  e B B               {#R$4$4$5$p+O$S$K+e$e$T$|$U$V$c${#{#W$                ",
"  N.B B               Y+}$X$n$i$p+Y+Y$K+i$Y+4$Y+Y+I@5$Z${#8#                ",
"  N.B B               {#}$v$`$}$/@Y+ %.%+%}$i$@%}$B 4$B {#                  ",
"    l.#%              4$4$|$$%%%O$O$.%&%.%e$v$i$Y+*%4$B e@                  ",
"                      |$=%i$n$n$x$u#n$X$Y+}$}$}$o$-%;%B                     ",
"                      {#|$X$n$X$5$w#>%,%|$4$|$'%B {#($                      ",
"                      |$)%n$!%|$|$~%{%K+Y+]%{#B B ^%8#                      ",
"                      Y+n$X$i$n$Y$K+.%}$y$Y+|$B M$8#                        ",
"                      Y+n$K+K+K+/%e$.%}$g$4$(%_%Y+8#                        ",
"                        e$K+.%.%n$n$.%}$}$Y+B Y+Y+                          ",
"                        e$:%K+e$e$/@/%<%}$x$Y.`$Y+e@                        ",
"                        K+[%.%}%e$p+|%V@(%[$Y.e${#4$                        ",
"                        1%2%.%3%i$5$V@}#B B B e$4%i$                        ",
"                        {#}$n$i$5%|$B B B B B 6%e$4$4$                      ",
"                        {#4$Y+5%7%=%B B B B B 8%_+{#5$                      ",
"                        D$B B |$1$5$B 2#;$B B %@Q.c$B                       ",
"                        B B B c$Y+{#B 9 9 Y.B &+<$B B                       ",
"                            B B 9%0%B 9 9 l B n+a%B B                       ",
"                              B B B l 1 1 )$l B B B b%                      ",
"                              B B B B S+c%5.l l B B I@                      ",
"                              B B B B D.5.5.d%a+B B I@                      ",
"                                  B B 4.l e%5.l Y.B I@                      ",
"                                    B B l l D.f%l f.                        ",
"                                    B B 5.B 1 F.a+B                         ",
"                                      B 2#B l.3.a+f.                        ",
"                                        9 B 9 2.a+B                         ",
"                                        %.b *.c%5.f.                        ",
"                                        &.1 B 5.g%B                         ",
"                                      l.2#x#B e 1 P#B                       ",
"                                      h%B B B F.2.f.l                       ",
"                                      B i%3+B f 2.3.l                       ",
"                                    e j%j%b D.%.M+k%B l%                    ",
"                                  b m%&.7 %.n%o%3.p%q%E#                    ",
"                                7 r%&.s%a F.2.t%u%f.v%E#                    ",
"                            Z#w%x%&.y%5@1 1 a+z%B B B                       ",
"                          b w%A%B%C%e D%E%F.F%v%q%A+B                       ",
"                    b 7 j%[ f [ D.c%B B B B G%f.f.f.l%                      ",
"                                B f.f.f.f.f.f.                              "};
