/* XPM */
static char * ZIA3_xpm[] = {
"42 87 571 2",
"  	c None",
". 	c #806963",
"+ 	c #644D4A",
"@ 	c #624F4B",
"# 	c #604945",
"$ 	c #53403F",
"% 	c #2D1917",
"& 	c #745D5A",
"* 	c #725C59",
"= 	c #4A4141",
"- 	c #695351",
"; 	c #6D5854",
"> 	c #715C59",
", 	c #725D5A",
"' 	c #5A4644",
") 	c #5D4A47",
"! 	c #77605D",
"~ 	c #846B68",
"{ 	c #766260",
"] 	c #756260",
"^ 	c #826763",
"/ 	c #816B66",
"( 	c #6D5855",
"_ 	c #6A5552",
": 	c #594745",
"< 	c #4A3937",
"[ 	c #5D4845",
"} 	c #866E68",
"| 	c #846A66",
"1 	c #846B66",
"2 	c #866E6B",
"3 	c #866E6A",
"4 	c #7D6661",
"5 	c #7F6963",
"6 	c #735D59",
"7 	c #5C4946",
"8 	c #614D4B",
"9 	c #584544",
"0 	c #4E3B3A",
"a 	c #53413F",
"b 	c #52403E",
"c 	c #5A4645",
"d 	c #604C4A",
"e 	c #5E4B48",
"f 	c #5F4B48",
"g 	c #5C4947",
"h 	c #745E5A",
"i 	c #564240",
"j 	c #493736",
"k 	c #8A756F",
"l 	c #87716A",
"m 	c #867069",
"n 	c #7F6862",
"o 	c #604A48",
"p 	c #66524F",
"q 	c #4F3D3B",
"r 	c #63504D",
"s 	c #604D4A",
"t 	c #433636",
"u 	c #4A3837",
"v 	c #695451",
"w 	c #675350",
"x 	c #5B4845",
"y 	c #64514E",
"z 	c #584643",
"A 	c #6C5854",
"B 	c #79625E",
"C 	c #65514E",
"D 	c #513D3A",
"E 	c #1B0A07",
"F 	c #4B3937",
"G 	c #6E5855",
"H 	c #54413F",
"I 	c #483736",
"J 	c #443332",
"K 	c #55423F",
"L 	c #755F5C",
"M 	c #7D6461",
"N 	c #836A67",
"O 	c #6F5855",
"P 	c #554241",
"Q 	c #503E3C",
"R 	c #312726",
"S 	c #584442",
"T 	c #76605B",
"U 	c #806A64",
"V 	c #7B645F",
"W 	c #3D1C18",
"X 	c #3C2C2B",
"Y 	c #473534",
"Z 	c #2F2E2F",
"` 	c #443534",
" .	c #473635",
"..	c #5C4846",
"+.	c #7C6562",
"@.	c #856E6B",
"#.	c #87706D",
"$.	c #7F6863",
"%.	c #6B5754",
"&.	c #614E4B",
"*.	c #281312",
"=.	c #050000",
"-.	c #120402",
";.	c #4A3734",
">.	c #3C3231",
",.	c #735C58",
"'.	c #291312",
").	c #6D524E",
"!.	c #3C1D1B",
"~.	c #2A1715",
"{.	c #433231",
"].	c #433535",
"^.	c #3F3232",
"/.	c #403231",
"(.	c #735C59",
"_.	c #8D7E7D",
":.	c #86706B",
"<.	c #866F6D",
"[.	c #866F6C",
"}.	c #7A6461",
"|.	c #46312F",
"1.	c #020000",
"2.	c #5F3732",
"3.	c #705956",
"4.	c #5A4844",
"5.	c #210C0A",
"6.	c #754F4A",
"7.	c #715248",
"8.	c #4E3735",
"9.	c #0B0000",
"0.	c #150808",
"a.	c #4A3836",
"b.	c #3A2D2D",
"c.	c #3D3534",
"d.	c #534A48",
"e.	c #310807",
"f.	c #7B6663",
"g.	c #887370",
"h.	c #856D6B",
"i.	c #7A6462",
"j.	c #5F4C4A",
"k.	c #060504",
"l.	c #160502",
"m.	c #180C0B",
"n.	c #71514C",
"o.	c #302726",
"p.	c #181211",
"q.	c #000000",
"r.	c #251615",
"s.	c #100000",
"t.	c #120000",
"u.	c #2B1210",
"v.	c #0C0000",
"w.	c #221615",
"x.	c #41302F",
"y.	c #453433",
"z.	c #433C3C",
"A.	c #444243",
"B.	c #3C2C2A",
"C.	c #6A3D3C",
"D.	c #4F3D3C",
"E.	c #87706E",
"F.	c #846E6B",
"G.	c #695552",
"H.	c #100D0C",
"I.	c #0D0201",
"J.	c #333030",
"K.	c #372927",
"L.	c #23110D",
"M.	c #3A2C2B",
"N.	c #2F2219",
"O.	c #302120",
"P.	c #241817",
"Q.	c #463534",
"R.	c #3F3E3E",
"S.	c #333132",
"T.	c #1F1615",
"U.	c #270100",
"V.	c #130202",
"W.	c #806664",
"X.	c #856C6A",
"Y.	c #87716E",
"Z.	c #705B58",
"`.	c #130F0F",
" +	c #331C18",
".+	c #413D3D",
"++	c #665E4F",
"@+	c #2B2217",
"#+	c #110000",
"$+	c #2E2D2D",
"%+	c #4A3C3B",
"&+	c #3A2321",
"*+	c #1F1010",
"=+	c #2C0908",
"-+	c #79615E",
";+	c #846C6A",
">+	c #735E5D",
",+	c #0D0A0A",
"'+	c #080000",
")+	c #362624",
"!+	c #A5812C",
"~+	c #570000",
"{+	c #7C5853",
"]+	c #110604",
"^+	c #5E5655",
"/+	c #7F6865",
"(+	c #332422",
"_+	c #201918",
":+	c #332423",
"<+	c #846D6B",
"[+	c #6C5753",
"}+	c #3E2E2D",
"|+	c #1E1312",
"1+	c #433230",
"2+	c #484241",
"3+	c #8C605B",
"4+	c #231B18",
"5+	c #060505",
"6+	c #5D5959",
"7+	c #8B766F",
"8+	c #161211",
"9+	c #251D1C",
"0+	c #5B4847",
"a+	c #685451",
"b+	c #6F5956",
"c+	c #604C49",
"d+	c #493836",
"e+	c #010101",
"f+	c #030000",
"g+	c #42231E",
"h+	c #1E1513",
"i+	c #544344",
"j+	c #484343",
"k+	c #1A1515",
"l+	c #5A5656",
"m+	c #58332E",
"n+	c #231716",
"o+	c #291F1E",
"p+	c #594643",
"q+	c #836B68",
"r+	c #443431",
"s+	c #0D0B0A",
"t+	c #30211E",
"u+	c #1C1B1B",
"v+	c #080505",
"w+	c #646060",
"x+	c #361917",
"y+	c #100C0C",
"z+	c #4E3C3B",
"A+	c #826B69",
"B+	c #87716F",
"C+	c #715B59",
"D+	c #64504D",
"E+	c #634F4D",
"F+	c #1D100F",
"G+	c #423E3F",
"H+	c #292626",
"I+	c #020202",
"J+	c #5E5B5B",
"K+	c #240E0C",
"L+	c #1E0000",
"M+	c #010000",
"N+	c #4B3B39",
"O+	c #7B6562",
"P+	c #7D6664",
"Q+	c #66534F",
"R+	c #574543",
"S+	c #3E3130",
"T+	c #1C1818",
"U+	c #0B0A0A",
"V+	c #3C302D",
"W+	c #695553",
"X+	c #564341",
"Y+	c #4B3E3C",
"Z+	c #150C0A",
"`+	c #282523",
" @	c #1A1616",
".@	c #2B2525",
"+@	c #434040",
"@@	c #3E3C3D",
"#@	c #040403",
"$@	c #725D5B",
"%@	c #574442",
"&@	c #59423E",
"*@	c #1F1A1A",
"=@	c #221A1A",
"-@	c #0E0C0A",
";@	c #635F5F",
">@	c #0F0808",
",@	c #3C3939",
"'@	c #413E3E",
")@	c #504041",
"!@	c #1C1716",
"~@	c #040303",
"{@	c #1D1110",
"]@	c #6C5754",
"^@	c #544240",
"/@	c #4C3A39",
"(@	c #6B4D48",
"_@	c #120F0D",
":@	c #221B1A",
"<@	c #090707",
"[@	c #4E4A4C",
"}@	c #403E3F",
"|@	c #050505",
"1@	c #363434",
"2@	c #4D4646",
"3@	c #383535",
"4@	c #373434",
"5@	c #605959",
"6@	c #242020",
"7@	c #4E4847",
"8@	c #080606",
"9@	c #49302E",
"0@	c #584543",
"a@	c #614F4D",
"b@	c #512D27",
"c@	c #1A1311",
"d@	c #0C0A09",
"e@	c #322A2B",
"f@	c #454242",
"g@	c #3A3637",
"h@	c #4D494A",
"i@	c #232222",
"j@	c #524E50",
"k@	c #503D3C",
"l@	c #2C1D1C",
"m@	c #1A0D0C",
"n@	c #2F2727",
"o@	c #2B2929",
"p@	c #171212",
"q@	c #181717",
"r@	c #4D4849",
"s@	c #484546",
"t@	c #565354",
"u@	c #171312",
"v@	c #3D3231",
"w@	c #5E4A48",
"x@	c #3B3839",
"y@	c #585555",
"z@	c #121212",
"A@	c #4A2B27",
"B@	c #170B09",
"C@	c #6E5B5A",
"D@	c #826B6A",
"E@	c #614E4D",
"F@	c #100F0F",
"G@	c #2B1714",
"H@	c #6C5958",
"I@	c #786462",
"J@	c #786361",
"K@	c #725F5D",
"L@	c #3E3332",
"M@	c #070404",
"N@	c #171616",
"O@	c #222020",
"P@	c #282424",
"Q@	c #7C6765",
"R@	c #584947",
"S@	c #251B1A",
"T@	c #24120F",
"U@	c #140E0C",
"V@	c #472A28",
"W@	c #1A0100",
"X@	c #473C3B",
"Y@	c #160807",
"Z@	c #040000",
"`@	c #090000",
" #	c #391310",
".#	c #0E0301",
"+#	c #140908",
"@#	c #302827",
"##	c #634E4C",
"$#	c #1B0F0E",
"%#	c #130E0D",
"&#	c #2F2321",
"*#	c #231C1B",
"=#	c #0D0A09",
"-#	c #28201F",
";#	c #271716",
">#	c #2C2322",
",#	c #1C1514",
"'#	c #170E0E",
")#	c #705E5D",
"!#	c #110A08",
"~#	c #301A16",
"{#	c #281A19",
"]#	c #281D1C",
"^#	c #42201B",
"/#	c #26130F",
"(#	c #281C1A",
"_#	c #2E2624",
":#	c #5B5859",
"<#	c #140402",
"[#	c #373131",
"}#	c #716D6D",
"|#	c #766F70",
"1#	c #322728",
"2#	c #6A6465",
"3#	c #837A7B",
"4#	c #847B7C",
"5#	c #9A8B8E",
"6#	c #948788",
"7#	c #2E0000",
"8#	c #71423C",
"9#	c #B09A9B",
"0#	c #7A7172",
"a#	c #595557",
"b#	c #8C8081",
"c#	c #97898B",
"d#	c #9C8C8F",
"e#	c #150000",
"f#	c #715858",
"g#	c #908485",
"h#	c #6E6869",
"i#	c #141313",
"j#	c #6B6465",
"k#	c #9F8E90",
"l#	c #92696A",
"m#	c #7F7677",
"n#	c #7F7576",
"o#	c #706263",
"p#	c #928586",
"q#	c #A89395",
"r#	c #837879",
"s#	c #2B2121",
"t#	c #161313",
"u#	c #7E7474",
"v#	c #928687",
"w#	c #8E8284",
"x#	c #6F6B6C",
"y#	c #343232",
"z#	c #230000",
"A#	c #604C4C",
"B#	c #867B7C",
"C#	c #807677",
"D#	c #797172",
"E#	c #6F6869",
"F#	c #857C7D",
"G#	c #83797A",
"H#	c #70696A",
"I#	c #2F2C2C",
"J#	c #704546",
"K#	c #A99597",
"L#	c #98898C",
"M#	c #8D8182",
"N#	c #646061",
"O#	c #6C6566",
"P#	c #786F70",
"Q#	c #897F80",
"R#	c #8D8283",
"S#	c #857B7C",
"T#	c #766E6F",
"U#	c #1C1616",
"V#	c #938587",
"W#	c #8C7F81",
"X#	c #736B6C",
"Y#	c #5F595A",
"Z#	c #84797A",
"`#	c #897D7E",
" $	c #8E8283",
".$	c #706869",
"+$	c #3D393A",
"@$	c #867C7D",
"#$	c #81797A",
"$$	c #4F4C4C",
"%$	c #696364",
"&$	c #5B5657",
"*$	c #716A6B",
"=$	c #7C7475",
"-$	c #7D7576",
";$	c #746D6E",
">$	c #524747",
",$	c #585455",
"'$	c #231F1F",
")$	c #877C7D",
"!$	c #776E6F",
"~$	c #2D2A2A",
"{$	c #6D6667",
"]$	c #111010",
"^$	c #8C8182",
"/$	c #655F5F",
"($	c #393636",
"_$	c #322E2E",
":$	c #605C5D",
"<$	c #2E2B2B",
"[$	c #1F1B1B",
"}$	c #151111",
"|$	c #151312",
"1$	c #877E7F",
"2$	c #5D5657",
"3$	c #2C1A17",
"4$	c #4B4748",
"5$	c #656061",
"6$	c #2C2929",
"7$	c #A08F90",
"8$	c #8F8384",
"9$	c #998A8C",
"0$	c #856264",
"a$	c #363333",
"b$	c #3F3B3C",
"c$	c #090808",
"d$	c #A39192",
"e$	c #988A8B",
"f$	c #A89495",
"g$	c #575253",
"h$	c #2A2727",
"i$	c #9C8C8D",
"j$	c #9D8D8F",
"k$	c #3C3A3B",
"l$	c #312E2E",
"m$	c #897E7F",
"n$	c #656162",
"o$	c #443E3F",
"p$	c #535050",
"q$	c #524F50",
"r$	c #1A1717",
"s$	c #A49192",
"t$	c #797273",
"u$	c #171516",
"v$	c #827879",
"w$	c #343031",
"x$	c #2E2525",
"y$	c #4E494A",
"z$	c #322F2F",
"A$	c #302C2C",
"B$	c #413D3E",
"C$	c #312D2E",
"D$	c #918586",
"E$	c #998A8D",
"F$	c #2D2929",
"G$	c #7E7475",
"H$	c #7B7374",
"I$	c #7A7273",
"J$	c #736D6E",
"K$	c #463838",
"L$	c #8B7F81",
"M$	c #C7A7AA",
"N$	c #181414",
"O$	c #4C0000",
"P$	c #282626",
"Q$	c #5C5858",
"R$	c #372C2D",
"S$	c #110E0E",
"T$	c #150909",
"U$	c #110504",
"V$	c #281E1D",
"W$	c #2B1D1C",
"X$	c #241918",
"Y$	c #0B0605",
"Z$	c #403534",
"`$	c #382E2D",
" %	c #271C1B",
".%	c #2D1F1E",
"+%	c #251817",
"@%	c #201312",
"#%	c #201A19",
"$%	c #574745",
"%%	c #100C0B",
"&%	c #0A0201",
"*%	c #1C0F0F",
"=%	c #1B1413",
"-%	c #150F0E",
";%	c #060100",
">%	c #574847",
",%	c #655553",
"'%	c #040100",
")%	c #0C0404",
"!%	c #0C0302",
"~%	c #090504",
"{%	c #140E0D",
"          . + @ # $ % &                                                             ",
"        * = - ; > , ' )                                                             ",
"      ! ~ { ] ^ / ( _ : < [                                                         ",
"    } | 1 2 3 4 5 6 7 8 9 0 a b c d e f g ' h i j                                   ",
"    1 | | k l 1 m n o p q r s t u v v w w e x y z g                                 ",
"    1 l A B | & C & D E F G H I J K L M 1 | N O d P Q R                             ",
"    S T U C | } 1 V C | W X Y Z `  ...+.@.@.2 #.$.%.&.*.=.-.;.                      ",
"    >.,.=.=.=.'.C C C ).!.~.{.].^./.u & (._.:.<.[.}.%.|.1.=.2.                      ",
"      3.S 4.=.=.5.6.7.!.8.9.0.a.b.^.u C c.d.e.f.g.h.i.j.k.l.m.n.;.                  ",
"      ;.o.p.q.q.r.s.t.u.5.v.=.w.x.{.y.z.A.B.C.D.E.h.F.G.H.v.I.;.;.J.                ",
"        K.L.q.M.s.N.q.q.X v.O.v.P.Q.x.R.S.T.U.V.W.X.Y.Z.`.v.I. + +.+J.              ",
"              K.q.++q.@+#+u u v.1.X X $+%+&+*+=+-+;+3 >+,+'+w.)+ +K.J.              ",
"                      !+~+{+L.q.q.]+^+/+1 (+_+:+i <+[+}+|+q.l.1+K.K.2+              ",
"                          3+4+q.q.5+6+7+1 m.8+9+0+a+b+c+d+e+f+g+h+L.i+j+            ",
"                                p.k+l+6.m+I.n+o+p+q+<.<.C r+s+1. +L.t+j+K.          ",
"                              u+w.v+w+x+u.1.m.y+z+A+B+<.C+D+E+F+h+L.L.G+;.          ",
"                              H+u I+J+u.K+L+'+M+N+O+@.<.P+Q+R+S+t+L.L.G+K.          ",
"                              p.u q.T+U+q.L+q.q.V+W+<+E.<., X+Y+L.Z+q.j+`+ @        ",
"                                .@q.q.+@@@s.q.q.#@C 9 [.<.$@%@N+&@q.*@=@q.-@        ",
"                                ;@>@I+,@'@)@!@~@q.R E {@]@, ^@/@(@_@:@<@q.q.        ",
"                                [@}@|@1@2@3@4@5@6@q.7@q.8@9@0@a@b@c@d@q.q.          ",
"                                  e@|@J.f@g@h@ @i@$+A.j@& k@l@m@3+L.q.q._@          ",
"                                  n@5+o@u+U+p@q@r@s@A.A.A.q.q.q. + +h+q.q.          ",
"                                  t@I+q.q.u@v@A+<.w@x@y@A.z@q.A@(@B@q.q.            ",
"                                  i@q.q.C@D@A+E@5.m.F@q. @G+G+g+G@q.q.q.            ",
"                                  q@H@I@J@K@L@l.M@N@q.q.O@G+P@O@q.q.q.q.            ",
"                                <.Q@R@S@T@'+q.q.q.q.q.q.q.U@U@q._@q.q.              ",
"                      =.    I.o.v@V@U.U.W@q.q.q.=.q.q.q.q.q.q.q.q.q.K.q.            ",
"                    5.t.5.X@I.>.w.t.Y@q.q.q.q.Z@`@q.q.q.q.q.1.q.q.q.q.q.            ",
"                     #9.q.q.q.q.q.q.q.=.q.q.q.f+9.f+q.q.q.q.I.q.q.q.  q.            ",
"                    q..#U.t.l.q.q.  q.q.q.q.q.q.1.m.+#w.1.1.p.q.q.      q.          ",
"                    q.q.q.q.q.      =.T+q.q.p.@###u w.$#%#M@o.q.q.                  ",
"                    q.q.q.q.q.        U+U+1.&#l.S >.*#=#-#p.o.q.q.                  ",
"                    q.q.q.q.          i@  I.l.;#*#>#,#*#o.I.*#p@q.                  ",
"                        q.q.          U+[@1.m.O.*#*#1.I.w.>.X@>.&@                  ",
"                          q.            m+I.'#1.1.>.)#X !#~#L.L.L.                  ",
"                                      v.{#m.1.]#o.>.v.^# +/#(#_#L.K.:#              ",
"                                      <#'+q.*#[#}#;@M+L.s.s.j+|#h+1#2#              ",
"                                    [@q.q.v.3#4#5#6#L+L+7#8#9#0#2#|#:#              ",
"                                  u+x@q.q.x@a#b#c#d#e#L+s.f#g#2#h#|#:#_@            ",
"                                  u+x@i#5+j#g#g#k#d#s. +s.l#g#m#|#n#:#_@            ",
"                                  1.x@x@o#p#p#q#:#j+q.q.L+d#g#g#b#r#2#s#            ",
"                                  t# @u#v#w#x#y#q.z#7#A#g#B#r#r#C#D#2#              ",
"                                  E#F#b#G#H#I#q.M+7#J#K#L#M#r#|#|#N#G+              ",
"                              O#P#Q#R#S#T#U#q.q.r#r#V#d#W#|#X#C#Y#J.J.              ",
"                            r#Z#`# $.$r@G+q.O@G+X#r#n#|#:#+$J.J.J.J.                ",
"                          r#@$#$ $n#X#:#_@s#:#$$$$%$|#&$J.J.J.J.J.J.                ",
"                        2#*$=$ $-$;$>$q.>$2#2#,$G+$$+$J.J.J.'$                      ",
"                        Z#H#M#)$!$~$_@2#2#{$|#2#+$J.J.]$]$J.                        ",
"                        c#g#^$/$($_@_$:#:#%${$:$<$[$}$e+|$J.                        ",
"                        b#1$2$3$ +:#G+4$5$:#$$$$ @ @q._@6$G+                        ",
"                      7$8$9$0$|#q.$$a$b$|#:#G+G+c$ @}$q.'$J.                        ",
"                    d$e$f$9#A#U#q.$$J.J.g$4$G+G+q.h$ @q. @q.                        ",
"                    i$j$b#r#q.q.k$:#J. @l$+$P@ @[$J.'$ @ @                          ",
"                  m$n$:#r#o$q.y#p$q$G+|@r$J. @ @<$J.a$G+G+                          ",
"                s$t$G+G+2#q.u$G+G+G+3@q.q.J. @ @J.J.G+G+a$                          ",
"              9#v$|#2#y#M+M+G+4$2#b$<$r$u$G+w$ @h$J.h$ @                            ",
"              d#d#$$x$M+y$2#:$3@G+z$ @A$G+B$C$ @ @ @ @ @                            ",
"              D$E$2#M+F$r#G$E#+$a$[$c$G+G+C$T+ @ @ @ @                              ",
"              H$g#2#L+r#I$b#n#J$2#9#r#K$$$ @ @J.J.J.J.                              ",
"              M+s.K$g+9#,${$|#{$2#9#r#u$G+<$T+ @ @ @                                ",
"              q.q.q.A#9#2#J$L$g#g#9#r#G+G+J.J. @ @ @                                ",
"              q.q.q.^.g#d#)$g#9#n#|#|# @ @J.T+ @ @ @G+$$                            ",
"              q.q.q.q.r#M$g#$$g#|#N#G+$$|@N$ @ @T+<$G+:#:#a$                        ",
"                q.q.q.|#9#:#K$O$b@2#G+$$P$F@ @ @<$a$G+$$Q$:#                        ",
"                `@q.S.2#U@q.q.q.Z@U+:# @h$J. @ @J.b$G+$$$$:#2#                      ",
"                v.=.[@R$q.1.q.q.q.    w$S$q.S$S$q.P@G+:#L.M+h+G+                    ",
"                T$v.q.q.1.v.1.q.q.    q.q.q.q.q.q.}$w$2#s.M+q.2#                    ",
"                w.I.1.I.U$m.M+q.q.      q.q.q.q.q.I+}$J.1#L.s.G+:#                  ",
"                m.$#w.m.m.V$q.q.q.        q.q.q.q.q.q.q.S$_@h+i+J.                  ",
"                I.w.w.v.I.I.q.q.q.              q.q.q.q.q.q.q.q.q.q.                ",
"                q.w.W$X$>.m.Y$q.q.                q.q.q.q.q.q.q.q.q.q.              ",
"                  1.X@Z$`$o.q.q.                    q.q.q.q.q.q.q.q.q.              ",
"                  q.X@X@o.*#Y$q.                      U@q.q.q.q.q.q.q.              ",
"                  q.w.w. %o.q.q.                        q.q.q.q.q.q.q.q.q.          ",
"                  u .%+%w.o.q.q.                            q.Y$q.q.1.q.q.q.        ",
"                >.w.@%O.X@#%q.q.                              p.q.q.q.q.q.q.        ",
"                =.9.$%X q.q.%%                                  &%q.q.M+1.1.I.      ",
"                q.q.X *%=%Y$                                        p.p.1.1.I.I.    ",
"              q.q.q.X w.Y$-%                                        q.1.1.;%I.I.    ",
"              O.O.w.S >%>.*#                                      1.I.I.I.I.I.I.Z@  ",
"          X S ,%u >.X$m.o.o.                                  1.I.1.'%I.I.I.I.I.I.  ",
"        u u >%m.m.>.>.>.X@X@                                  1.1.M+q.)%I.m.I.I.I.q.",
"      X O.m.w.w.1.1.1.m.o.o.o.                          q.1.q.q.q.q.q.q.q.1.1.1.1.q.",
"  u O.w.m.X@X@>.>.>.o.*#!%Y$Y$                      o.*#q.q.q.q.q.q.~%Y$Y$Y$Y$Y$Y$  ",
"X u m.v.m.m.I.1.1.1.1.{%Y$Y$Y$                      q.q.  q.~%                      ",
"q.Y$Y$Y$Y$Y$Y$Y$Y$Y$Y$Y$Y$Y$                                                        "};
