/* XPM */
static char * ZIA4_xpm[] = {
"46 86 617 2",
"  	c None",
". 	c #544240",
"+ 	c #3C312E",
"@ 	c #3D3230",
"# 	c #382E2D",
"$ 	c #3D302E",
"% 	c #5F4D49",
"& 	c #29201F",
"* 	c #443535",
"= 	c #5D4845",
"- 	c #584743",
"; 	c #291E1C",
"> 	c #3F3230",
", 	c #312926",
"' 	c #4E3F3C",
") 	c #473735",
"! 	c #554341",
"~ 	c #7F6762",
"{ 	c #79635E",
"] 	c #846A66",
"^ 	c #735D59",
"/ 	c #413331",
"( 	c #382B2A",
"_ 	c #312625",
": 	c #252A2B",
"< 	c #5F4C49",
"[ 	c #816964",
"} 	c #846B66",
"| 	c #371E1C",
"1 	c #59403E",
"2 	c #7C6460",
"3 	c #79625E",
"4 	c #382F2C",
"5 	c #352C29",
"6 	c #3E3433",
"7 	c #252B2E",
"8 	c #6D5956",
"9 	c #65514E",
"0 	c #5D4A47",
"a 	c #6D5753",
"b 	c #705A57",
"c 	c #5B4744",
"d 	c #4A3837",
"e 	c #7F6662",
"f 	c #2B1210",
"g 	c #66524E",
"h 	c #6A5551",
"i 	c #866E68",
"j 	c #5A4745",
"k 	c #453534",
"l 	c #6F5956",
"m 	c #5C4D4C",
"n 	c #363537",
"o 	c #5C4846",
"p 	c #705B57",
"q 	c #7D6561",
"r 	c #826965",
"s 	c #745D5A",
"t 	c #806B69",
"u 	c #6B5553",
"v 	c #040101",
"w 	c #685451",
"x 	c #341B19",
"y 	c #4F3C3B",
"z 	c #5B4745",
"A 	c #7B635F",
"B 	c #7B625E",
"C 	c #78605D",
"D 	c #513F3D",
"E 	c #513F3E",
"F 	c #705E5E",
"G 	c #4E4A4C",
"H 	c #0B0A0A",
"I 	c #3C3231",
"J 	c #574847",
"K 	c #AC645A",
"L 	c #8A746D",
"M 	c #7F6963",
"N 	c #311916",
"O 	c #3D1C18",
"P 	c #584442",
"Q 	c #210C0A",
"R 	c #3C2C2B",
"S 	c #0B0000",
"T 	c #070000",
"U 	c #351F1D",
"V 	c #443331",
"W 	c #352726",
"X 	c #2A1F1E",
"Y 	c #444243",
"Z 	c #544E4F",
"` 	c #141011",
" .	c #000000",
"..	c #120F0D",
"+.	c #23110D",
"@.	c #463838",
"#.	c #333030",
"$.	c #473C3B",
"%.	c #28201F",
"&.	c #5C4947",
"*.	c #806A64",
"=.	c #58332E",
"-.	c #331715",
";.	c #200C0B",
">.	c #211313",
",.	c #453432",
"'.	c #3C2B2A",
").	c #2B1F1F",
"!.	c #1F1514",
"~.	c #5E5253",
"{.	c #7E7476",
"].	c #373333",
"^.	c #2B2929",
"/.	c #1A1616",
"(.	c #0C0A0A",
"_.	c #050505",
":.	c #5B5859",
"<.	c #4C3D3B",
"[.	c #604C4A",
"}.	c #160502",
"|.	c #322221",
"1.	c #2C1D1C",
"2.	c #433231",
"3.	c #3E2E2D",
"4.	c #473533",
"5.	c #2C201F",
"6.	c #1F1716",
"7.	c #453635",
"8.	c #8B7E80",
"9.	c #383536",
"0.	c #222020",
"a.	c #262122",
"b.	c #4D4748",
"c.	c #423E3F",
"d.	c #4F4C4C",
"e.	c #0B0605",
"f.	c #100C0C",
"g.	c #140807",
"h.	c #221615",
"i.	c #453332",
"j.	c #463534",
"k.	c #513E3C",
"l.	c #4F3D3B",
"m.	c #382827",
"n.	c #1B1313",
"o.	c #241B1A",
"p.	c #8E7979",
"q.	c #887D7F",
"r.	c #756D6E",
"s.	c #131010",
"t.	c #4E4848",
"u.	c #443433",
"v.	c #41302F",
"w.	c #1A0B08",
"x.	c #7B6460",
"y.	c #503E3C",
"z.	c #42302F",
"A.	c #53403F",
"B.	c #473534",
"C.	c #3D2D2C",
"D.	c #251A19",
"E.	c #201918",
"F.	c #4F4A4A",
"G.	c #72696A",
"H.	c #827678",
"I.	c #1D1717",
"J.	c #595253",
"K.	c #343132",
"L.	c #181211",
"M.	c #0D0201",
"N.	c #302726",
"O.	c #79615C",
"P.	c #322322",
"Q.	c #816C69",
"R.	c #76605C",
"S.	c #5A4744",
"T.	c #4C3A38",
"U.	c #54413F",
"V.	c #4B3937",
"W.	c #2E2221",
"X.	c #1E1716",
"Y.	c #2A2120",
"Z.	c #665E60",
"`.	c #7B7073",
" +	c #444041",
".+	c #211A1A",
"++	c #625C5D",
"@+	c #070707",
"#+	c #745E5A",
"$+	c #705A56",
"%+	c #573F3C",
"&+	c #64504D",
"*+	c #6E5A56",
"=+	c #5D4947",
"-+	c #4A3937",
";+	c #312221",
">+	c #2D201F",
",+	c #312A29",
"'+	c #645D5E",
")+	c #514B4B",
"!+	c #2A2929",
"~+	c #433F40",
"{+	c #1E1513",
"]+	c #2A2727",
"^+	c #78615D",
"/+	c #5B4642",
"(+	c #4A3936",
"_+	c #695550",
":+	c #020000",
"<+	c #251918",
"[+	c #1E1615",
"}+	c #2E2423",
"|+	c #6A6366",
"1+	c #443E3E",
"2+	c #2C2A2A",
"3+	c #272626",
"4+	c #2B2121",
"5+	c #090808",
"6+	c #110E0E",
"7+	c #856E68",
"8+	c #68514D",
"9+	c #4D3B39",
"0+	c #6D5954",
"a+	c #5C4946",
"b+	c #362726",
"c+	c #0C0201",
"d+	c #251C1B",
"e+	c #1F1717",
"f+	c #191211",
"g+	c #2F2322",
"h+	c #534D50",
"i+	c #423A39",
"j+	c #372927",
"k+	c #867069",
"l+	c #87716A",
"m+	c #6B5752",
"n+	c #594644",
"o+	c #302120",
"p+	c #231D1D",
"q+	c #251D1C",
"r+	c #201615",
"s+	c #2F2423",
"t+	c #221E1E",
"u+	c #232222",
"v+	c #3F3534",
"w+	c #231C1B",
"x+	c #6F5A56",
"y+	c #836B66",
"z+	c #866F69",
"A+	c #695551",
"B+	c #1E1918",
"C+	c #241C1B",
"D+	c #2C2120",
"E+	c #342524",
"F+	c #1E1D1D",
"G+	c #201A19",
"H+	c #7C6662",
"I+	c #826C66",
"J+	c #856E69",
"K+	c #705C58",
"L+	c #5E4C48",
"M+	c #2F2221",
"N+	c #3F2F2D",
"O+	c #0F0807",
"P+	c #241D1C",
"Q+	c #6F5D5C",
"R+	c #6E5855",
"S+	c #65534E",
"T+	c #4A3938",
"U+	c #302322",
"V+	c #382928",
"W+	c #3A1F1C",
"X+	c #8B7771",
"Y+	c #4E3E3B",
"Z+	c #473634",
"`+	c #42312E",
" @	c #210C0B",
".@	c #121111",
"+@	c #42201B",
"@@	c #614D49",
"#@	c #503D3B",
"$@	c #5B4845",
"%@	c #171413",
"&@	c #1C0D0A",
"*@	c #5E4A47",
"=@	c #463433",
"-@	c #010000",
";@	c #512D27",
">@	c #1E0000",
",@	c #040303",
"'@	c #211C1C",
")@	c #050303",
"!@	c #2F1512",
"~@	c #322728",
"{@	c #2C1210",
"]@	c #2E0000",
"^@	c #4E4847",
"/@	c #3B3839",
"(@	c #3E2D2C",
"_@	c #484343",
":@	c #361512",
"<@	c #100000",
"[@	c #7B0600",
"}@	c #6A6465",
"|@	c #181717",
"1@	c #2E2D2D",
"2@	c #100605",
"3@	c #120D0D",
"4@	c #3C3A3B",
"5@	c #464242",
"6@	c #170B09",
"7@	c #361D19",
"8@	c #151111",
"9@	c #020202",
"0@	c #030101",
"a@	c #52221B",
"b@	c #320706",
"c@	c #220C07",
"d@	c #8A0C00",
"e@	c #762B1E",
"f@	c #33130A",
"g@	c #3E0000",
"h@	c #421913",
"i@	c #341C18",
"j@	c #080403",
"k@	c #1F0000",
"l@	c #030000",
"m@	c #040000",
"n@	c #140E0C",
"o@	c #100C0B",
"p@	c #100807",
"q@	c #100B0A",
"r@	c #180C0B",
"s@	c #0B0201",
"t@	c #4A3734",
"u@	c #0D0A09",
"v@	c #866F6D",
"w@	c #655553",
"x@	c #282120",
"y@	c #59423E",
"z@	c #0C0000",
"A@	c #1F1312",
"B@	c #6B4D48",
"C@	c #252222",
"D@	c #635F5F",
"E@	c #383233",
"F@	c #766F70",
"G@	c #121212",
"H@	c #716D6D",
"I@	c #434041",
"J@	c #252121",
"K@	c #736F6F",
"L@	c #211B1B",
"M@	c #595557",
"N@	c #080000",
"O@	c #646061",
"P@	c #6B5D5B",
"Q@	c #4A4848",
"R@	c #706C6C",
"S@	c #565254",
"T@	c #534F51",
"U@	c #857A7B",
"V@	c #7C6F72",
"W@	c #615B5D",
"X@	c #131212",
"Y@	c #0F0C0C",
"Z@	c #524E50",
"`@	c #726E6E",
" #	c #6D6869",
".#	c #494647",
"+#	c #6B6667",
"@#	c #817779",
"##	c #867B7C",
"$#	c #736C6D",
"%#	c #6D6667",
"&#	c #7D7475",
"*#	c #464343",
"=#	c #171212",
"-#	c #837879",
";#	c #3F393B",
">#	c #8F8184",
",#	c #9C8C8F",
"'#	c #83797A",
")#	c #70696B",
"!#	c #797172",
"~#	c #70686A",
"{#	c #6D6768",
"]#	c #7C7273",
"^#	c #535050",
"/#	c #292626",
"(#	c #332D2E",
"_#	c #7E6C6E",
":#	c #958789",
"<#	c #827879",
"[#	c #6E6768",
"}#	c #797071",
"|#	c #6D6566",
"1#	c #6F6869",
"2#	c #787071",
"3#	c #7B7172",
"4#	c #230000",
"5#	c #3C1313",
"6#	c #8F7B7D",
"7#	c #928487",
"8#	c #8D8182",
"9#	c #84797A",
"0#	c #766F71",
"a#	c #726A6B",
"b#	c #6C6566",
"c#	c #71696A",
"d#	c #6E5858",
"e#	c #656061",
"f#	c #726B6C",
"g#	c #472021",
"h#	c #947F82",
"i#	c #A79697",
"j#	c #8F8284",
"k#	c #807577",
"l#	c #6E6869",
"m#	c #6F696B",
"n#	c #6F6768",
"o#	c #6C6667",
"p#	c #544344",
"q#	c #585556",
"r#	c #524F4F",
"s#	c #242223",
"t#	c #928687",
"u#	c #928587",
"v#	c #847A7B",
"w#	c #6B6466",
"x#	c #736B6D",
"y#	c #6E6769",
"z#	c #686264",
"A#	c #353233",
"B#	c #555151",
"C#	c #443F40",
"D#	c #746C6D",
"E#	c #746B6C",
"F#	c #656062",
"G#	c #5F5B5C",
"H#	c #4F4A4B",
"I#	c #504D4D",
"J#	c #0E0D0D",
"K#	c #282524",
"L#	c #5E5A5B",
"M#	c #5D5758",
"N#	c #7B7374",
"O#	c #807677",
"P#	c #7A7172",
"Q#	c #726B6D",
"R#	c #645E60",
"S#	c #615A5C",
"T#	c #504A4B",
"U#	c #484445",
"V#	c #282424",
"W#	c #010101",
"X#	c #0E0C0A",
"Y#	c #544F50",
"Z#	c #161515",
"`#	c #554A4A",
" $	c #6A6365",
".$	c #514E4E",
"+$	c #756C6E",
"@$	c #696365",
"#$	c #5D5556",
"$$	c #433F3F",
"%$	c #171414",
"&$	c #3E3C3C",
"*$	c #766E6F",
"=$	c #7E7576",
"-$	c #807779",
";$	c #5B5656",
">$	c #211D1D",
",$	c #1A1717",
"'$	c #2F2C2C",
")$	c #6D6668",
"!$	c #797174",
"~$	c #897C7E",
"{$	c #6B6364",
"]$	c #5C5758",
"^$	c #171516",
"/$	c #565353",
"($	c #857B7D",
"_$	c #7E7375",
":$	c #5E5B5C",
"<$	c #686364",
"[$	c #0C0A09",
"}$	c #3F3B3C",
"|$	c #3D393A",
"1$	c #555252",
"2$	c #545152",
"3$	c #272425",
"4$	c #343131",
"5$	c #383535",
"6$	c #604C4C",
"7$	c #615D5E",
"8$	c #343030",
"9$	c #716B6C",
"0$	c #635E5F",
"a$	c #1F1B1B",
"b$	c #2E2B2B",
"c$	c #4E494A",
"d$	c #171515",
"e$	c #625D5E",
"f$	c #343031",
"g$	c #4F4B4C",
"h$	c #231F1F",
"i$	c #181516",
"j$	c #373030",
"k$	c #5D595A",
"l$	c #302D2D",
"m$	c #4E4B4C",
"n$	c #2C2929",
"o$	c #474344",
"p$	c #676163",
"q$	c #353031",
"r$	c #454042",
"s$	c #312E2E",
"t$	c #1B1717",
"u$	c #191614",
"v$	c #262222",
"w$	c #4B4748",
"x$	c #363333",
"y$	c #544D4E",
"z$	c #2D2323",
"A$	c #645E5F",
"B$	c #201D1C",
"C$	c #3C3939",
"D$	c #655A5B",
"E$	c #5E5859",
"F$	c #4C4849",
"G$	c #262424",
"H$	c #181414",
"I$	c #362E2E",
"J$	c #403C3D",
"K$	c #7A7273",
"L$	c #83787A",
"M$	c #776F70",
"N$	c #514D4D",
"O$	c #4D4848",
"P$	c #221E1F",
"Q$	c #827778",
"R$	c #817778",
"S$	c #4D4A4A",
"T$	c #322F2F",
"U$	c #1C1818",
"V$	c #908485",
"W$	c #817577",
"X$	c #817678",
"Y$	c #676263",
"Z$	c #908283",
"`$	c #938485",
" %	c #897C7F",
".%	c #85797A",
"+%	c #4E4B4B",
"@%	c #98898C",
"#%	c #8B7F81",
"$%	c #99898C",
"%%	c #454243",
"&%	c #353232",
"*%	c #393435",
"=%	c #92696A",
"-%	c #7E7475",
";%	c #575455",
">%	c #3C0000",
",%	c #4C0000",
"'%	c #615C5C",
")%	c #050000",
"!%	c #090000",
"~%	c #3A3636",
"{%	c #4E4949",
"]%	c #120000",
"^%	c #331C18",
"/%	c #686263",
"(%	c #736B6C",
"_%	c #1A0E0E",
":%	c #7D7576",
"<%	c #6F5858",
"[%	c #7B7273",
"}%	c #2B201F",
"|%	c #542F2A",
"1%	c #361111",
"2%	c #948788",
"3%	c #6D4642",
"4%	c #A37071",
"5%	c #110504",
"6%	c #846062",
"7%	c #282523",
"8%	c #18110F",
"9%	c #423635",
"0%	c #2B1D1C",
"a%	c #130909",
"b%	c #2C1F1E",
"c%	c #050302",
"d%	c #3F3332",
"e%	c #130B0A",
"f%	c #0F0201",
"g%	c #271D1C",
"h%	c #1B0B08",
"i%	c #2B1B1A",
"j%	c #2D1F1E",
"k%	c #271A19",
"l%	c #210F0E",
"m%	c #2B1E1D",
"n%	c #3B2B2A",
"o%	c #453433",
"p%	c #4C403F",
"q%	c #53403E",
"r%	c #493736",
"s%	c #705E5D",
"t%	c #1F0B08",
"u%	c #180604",
"v%	c #4E3C3A",
"w%	c #3F2F2E",
"x%	c #090504",
"y%	c #2E2220",
"z%	c #362320",
"                        . + @ # $ %                                                         ",
"                      & * = - ; > , '                                                       ",
"                    ) ! ~ { ] ^ / ( _ :                                                     ",
"                    < [ } | 1 2 3 4 5 6 7 7 8 9 0 a b c 9 ]                                 ",
"                  d e ] 7 f g h i j k g l m n 9 o p h q r s t                               ",
"                  u < ] 3 v l w i x y z A B C 9 D E F G H I J d K                           ",
"                  J 9 ] L M N O d P Q R 9 S T U V W X Y Z `  . ...+.@.#.                    ",
"                  $.P %.&.M *.=.-.R Q R ;.S >.d ,.'.).!.~.{.]. .^./.(._.:.                  ",
"                    R <. .[.s } Q }.|.] S 1.2.R 3.4.5.6.7.8.{.9. .0.a.b.c.#.d.              ",
"                      e. .f.d d g.h.} ] d s i.j.k.l.m.n.o.p.q.r. . .s.t.#.#.d.              ",
"                      e. .u.v.}.h.w.x.q 3.P y.z.A.B.C.D.E.F.G.H.I. . .J.^. .K.              ",
"                          L. .M.N.R 3 O.P.Q.R.S.T.U.V.W.X.Y.Z.`. +.+ .++ ./.@+K.            ",
"                                    #+$+%+&+*+=+-+;+}.>+n.,+'+)+!+!+L.~+{+]+/._.#.          ",
"                                    p ^+/+(+_+[.(+:+:+<+[+}+|+1+2+3+R H {+4+5+6+/.          ",
"                                    2 7+8+9+0+a+b+c+d+e+f+g+h+H P P R  .#.i+j+#./.          ",
"                                    x.} k+l+m+n+o+ .p+q+r+s+t+u+v+P o+w++.j+j+/./.          ",
"                                    x+y+z+M A+3.P. .B+C+D+E+F+H u+N.G+ . .j+j+ .#. .        ",
"                                    H+I+J+K+L+M+N+ . .O+:+G H @+ . . .@+..P+o. .#.H         ",
"                                    Q+R+*.S+T+U+V+ . . .L.#. . . . . ./. . . . .#.#.        ",
"                                      W+X+Y+Z+`+ @.@ . .+@..{+ . . . .{+ ._./. .6+..        ",
"                                      ].@@#@$@#@Q @. . ./. . . . . .....%@/.6+ . . .        ",
"                                    o+&@*@=@}.}.o+:. .-@/.+@;@>@ . . .,@.. . . . .          ",
"                                    '@)@o+o+!@}.+@:.~@ . .{@>@]@ . . . . . . . . .          ",
"                                ^@/@/@ .s s (@M.{+_@ . . .>@:@+@<@ . . . . . . . .          ",
"                              [@}@|@u+1@R h.2@3@ .4@5@ . .S <@6@ . . . . .6@+. . .          ",
"                            +@7@:...:.:.d.#.8@9@ . .c. . . . . . . . . . .+.0@ . . .        ",
"                          a@b@+@a@c@ . .+... . . . . .{+ . . . . . . . . . . . . . .        ",
"                      ]@d@e@6@ . . .  <@<@-@ . . . . . . . . . .L. . . . . . . .L. . .      ",
"                    f@g@h@ . . .      ]@>@ . . . . . . . . .:+ . . . . . . . . .N. .e.      ",
"                  i@f@ . .-@-@         . . . . . . .-@:+:+j@ .:+ . . . . . . . .w+ . .      ",
"                  d@[@]@-@k@l@<@       .     .-@:+w+M.M.m@:+N.I  . . . .o.n@ . .-@e. .      ",
"                    a@ . .S <@m@M.h.   .    L.:+o@w+N.m@M. .N.I  . . . .     . . . . .      ",
"                       . . . .>@ .     .    L.:+I I J -@:+ .:+w+p@ . .{+     . . . . .      ",
"                           . . . . . . .  q@w+r@h.N.N.N.:+:+p@s@:+ . . .t@   . . . . .      ",
"                             . . . .   .  w+u@P ] v@w@J x@:+M.m@:+ . .n@y@     . . . .      ",
"                                   .z@  R s d R R o+A@r@r@z@z@p@-@ . .{+B@     . . . .      ",
"                                      h.}.}.}.:+C@1@r@P+M.D@D@ . . .E@F@B@j+G@ . . . .      ",
"                                    Y H@ . . . .1@I@J@K@L@K@M@ .N@F@F@O@P@j+ . . . .        ",
"                                    D@D@ . . .Q@R@S@T@F@U@V@W@X@:.:.d.c.F@F@Y@ . . .        ",
"                                    Z@D@ . . .`@ #.#+#@#{.##$#%#&#_@d.*#:.}@=# . . .        ",
"                                    -#D@ . .;#>#,#'#&#)#!#~#{#$#]#}@d.^#:.F@/# . . .        ",
"                                    }@:. .(#_#,#,#:#<#[#}#|#1#2#3#{#:.:.:.}@Y  . . .        ",
"                                -#:. .4#5#6#,#7#8#9#0#%#a#b#c#d#e#:.:.:.:.}@/@ . . .        ",
"                              f#}@{+-@g#h#i#,#j#k#l#l#m#%#n#o#p#:.q#r#^#:.}@1@ . . .        ",
"                          :.}@}@s# .t#,#,#u#v#q.f#w#x#y#z#b.A# .c.d.*#c.:.d.H  . . .        ",
"                        }@B#d.#.c.C#8.8.U@D#E#%#F#[#G#H#I#c.J#..K#/.c.c.#.c.@+ . . .        ",
"                        }@}@_@ .L#M#N#O#P#Q#c#R#S#T#U#~+c.V#6+W#X#..c.c.#. . . . . .        ",
"                      :.Y#Z#`#$# $.$O@F@+$@$#$$$#.#./.%$ .6+6+ . ././././. . . . . .        ",
"                      &$ .4@*$=$-$}@c.Y#N#;$>$#.,$ ._./. . . . .0.#.#.#.{+z@}. . . .        ",
"                       .'$)$!$~${$:.c.#.]$c.6+ . . . . . . . .^$c.c.c.c. . . . . . .        ",
"                    c.{+d./$($_$:$<$ +c.c.^. . . ./. . . .[$#.}$c.c.c.c.{+   .   . .        ",
"                    -#:.#.|$-#$#1$:.2$~+3$ . . .5+/. .6+/./.#.4$}$c.c.5$   . . . .:+        ",
"                  ,#6$7$8$#.F@9$1$:.0$d. . .6+/././. .#.a$5+ ./.b$]+/. .   . . . .          ",
"                  c$d$e$^#/.f$:.:.g$~+^. . ././.c./. ./.b$#.#.]+h$/.V#c.   .   .            ",
"              :.r#i$j$k$:.b$/.l$m$~+^$ .6+    #.n$a$/.b$#.4$}$c.c.c.c.                      ",
"              o$p$q$r$c.c.|$s$t$c.^. . .      u$v$#./.#.#.c.d.w$c.c.x$                      ",
"            F@y$z$C#c.A$}@}$#.#. .9@8@        B$C$c./.]+#.x$c.#.c.|$#.                      ",
"            @.4+D$E$F$.$c.x$#.G$9@H$          I$J$5$/././././././.#.                        ",
"            -@}@K$L$M$N$~+6+ . .H$            O$ +]+/././././.P$x$#.                        ",
"            6$-#Q$R$&#f#<$ . .                S$d./.a$b$#.|$c.}$T$U$                        ",
"            V$}@G#O#W$X$Y$ .K.                .$j$#.#.#.#.#.#.b$U$/.                        ",
"            ,#F@k#Z$`$ %.%....                +%}$#.s$/.#.a$/./.5+                          ",
"           .V$V$F@@%#%#%$%g@ .                %%&%b$U$/././././.c.:.                        ",
"           .,#F@*%=%-%r.4+-@<@                 +~+/./.]+b$a$f$;%d.:. .                      ",
"           .D@ . .>%,%:... . .                /.#.5+/.#.#.#.c.d.'%}@ .                      ",
"          M@ .)%!%l@ . .+. . .                  c.~%a$]+|$d.:.:.:.-#{%-@                    ",
"           .N@z@z@z@]%:+^%..                      /.#.h$/./%O#-#+.(%-#c.<@                  ",
"           .z@_%r@r@ . .+.{+                       . ._.8@f#:%<%>@@.,#[%-@ .                ",
"           .r@h.r@r@ . .}%                           . . .Y#9$|%1%p#2%,#+.+.{+              ",
"          :+r@o+r@r@:+ . .                             . .[$#.~+3%4%V$:.;@y@j+              ",
"            r@M.5%r@ . . .                             . . . .6++@6%}@7%;@y@^%              ",
"            R h.h.:+w+ .8%                                   . . . . . . . .:+ .            ",
"            9%0%A@a% .e.                                         . . . . . . . . .          ",
"            o+b%r@c% . .                                         . . .z@z@!%l@ . .          ",
"          o+d%r@e% .r@ .                                           .r@l@z@z@f%}.h.          ",
"          r@J g% . . .                                               .:+z@_%h%i%o+M.        ",
"          $.}. .l@:+ .                                                e. .r+j%h.o+k%        ",
"        o+z@R r@w+ .                                                     . .h.l%o+;+R       ",
"        R m%I N.e.                                                        e.h.R o+n%R       ",
"        R 7.J o+r@                                                          L.R R o%B.C.    ",
"      9 J J p%R d                                                             R R P P B.R   ",
"    h.$.w@w@w@R h.                                                          -.q%d d d d R h.",
"    I I w@w@w@R J                                                         -.Q d R r%d d R h.",
"  h.N.p@:+:+M.o+s%                                                  d P P t%u%d v%w%d d R h.",
"M.:+:+v x%e.e.e.e.                                              s f Q Q }.}.f%r@h.o+o+o+}.M.",
" .e.e.e.e.e.e.e.y%                                          P s z%}.}.z@:+:+ .:+:+}.h.r@:+e."};
