/* XPM */
static char * ZIA5_xpm[] = {
"44 87 472 2",
"  	c None",
". 	c #65514E",
"+ 	c #846B66",
"@ 	c #6F413C",
"# 	c #866E68",
"$ 	c #877069",
"% 	c #745D5A",
"& 	c #4A3837",
"* 	c #846A66",
"= 	c #68463E",
"- 	c #856B67",
"; 	c #3C2C2B",
"> 	c #221615",
", 	c #503D3C",
"' 	c #252B2E",
") 	c #87716B",
"! 	c #574847",
"~ 	c #4C2722",
"{ 	c #584442",
"] 	c #302120",
"^ 	c #2B1210",
"/ 	c #777172",
"( 	c #787272",
"_ 	c #000000",
": 	c #0B0000",
"< 	c #52221B",
"[ 	c #331C18",
"} 	c #484343",
"| 	c #6A6465",
"1 	c #5B5859",
"2 	c #5C4846",
"3 	c #716A6A",
"4 	c #696565",
"5 	c #2E0000",
"6 	c #4E4A4C",
"7 	c #1C1B1B",
"8 	c #555051",
"9 	c #676162",
"0 	c #7B7273",
"a 	c #705A56",
"b 	c #6A6666",
"c 	c #6A6565",
"d 	c #390000",
"e 	c #6E6061",
"f 	c #6E6868",
"g 	c #5D595A",
"h 	c #221210",
"i 	c #413E3F",
"j 	c #676263",
"k 	c #545151",
"l 	c #686364",
"m 	c #1C0C0B",
"n 	c #79615E",
"o 	c #856D67",
"p 	c #635F5F",
"q 	c #686464",
"r 	c #020202",
"s 	c #1E0000",
"t 	c #4D1D18",
"u 	c #646060",
"v 	c #696363",
"w 	c #686363",
"x 	c #575454",
"y 	c #645F60",
"z 	c #5E5A5A",
"A 	c #160502",
"B 	c #614D4A",
"C 	c #8B766F",
"D 	c #7E706F",
"E 	c #656161",
"F 	c #332E2E",
"G 	c #330000",
"H 	c #2D1515",
"I 	c #5A5656",
"J 	c #676262",
"K 	c #666262",
"L 	c #5C5858",
"M 	c #222020",
"N 	c #514E4E",
"O 	c #595555",
"P 	c #625E5E",
"Q 	c #524F4F",
"R 	c #1E1513",
"S 	c #42231E",
"T 	c #4F3C3B",
"U 	c #624E4B",
"V 	c #3B3839",
"W 	c #635553",
"X 	c #5D5858",
"Y 	c #615D5D",
"Z 	c #5B5454",
"` 	c #410808",
" .	c #141212",
"..	c #676363",
"+.	c #5B5758",
"@.	c #343132",
"#.	c #353131",
"$.	c #4A4647",
"%.	c #322728",
"&.	c #23110D",
"*.	c #523834",
"=.	c #6A5452",
"-.	c #594C4B",
";.	c #87716A",
">.	c #86706A",
",.	c #535050",
"'.	c #5F5B5C",
").	c #49403E",
"!.	c #101010",
"~.	c #6B6565",
"{.	c #55504F",
"].	c #5F5C5C",
"^.	c #050505",
"/.	c #2C2929",
"(.	c #252121",
"_.	c #333030",
":.	c #47312D",
"<.	c #210C0A",
"[.	c #3E2E2C",
"}.	c #272C2F",
"|.	c #7B6869",
"1.	c #605C5C",
"2.	c #7A7273",
"3.	c #6C5D5C",
"4.	c #656060",
"5.	c #462B26",
"6.	c #504646",
"7.	c #484445",
"8.	c #191717",
"9.	c #151111",
"0.	c #110E0E",
"a.	c #120F0D",
"b.	c #826B65",
"c.	c #6C5753",
"d.	c #5A4644",
"e.	c #5B4745",
"f.	c #726A69",
"g.	c #6D6868",
"h.	c #7F7373",
"i.	c #7D6662",
"j.	c #645E5E",
"k.	c #443B3B",
"l.	c #343131",
"m.	c #4E4341",
"n.	c #59423E",
"o.	c #1A1616",
"p.	c #423E3F",
"q.	c #6D5754",
"r.	c #5C4845",
"s.	c #5A5657",
"t.	c #716968",
"u.	c #665E5E",
"v.	c #3E2F2C",
"w.	c #4A3734",
"x.	c #4F3B37",
"y.	c #2A2727",
"z.	c #282424",
"A.	c #363333",
"B.	c #6B5552",
"C.	c #54413F",
"D.	c #564241",
"E.	c #5C5859",
"F.	c #565253",
"G.	c #555152",
"H.	c #473C3B",
"I.	c #534E4E",
"J.	c #625C5C",
"K.	c #4C3B39",
"L.	c #2D211E",
"M.	c #6B4D48",
"N.	c #343130",
"O.	c #512D27",
"P.	c #6A5552",
"Q.	c #4E3C3A",
"R.	c #4F4B4D",
"S.	c #2D2B2C",
"T.	c #232222",
"U.	c #2E2D2D",
"V.	c #4D494A",
"W.	c #251B19",
"X.	c #4F3A37",
"Y.	c #111010",
"Z.	c #090808",
"`.	c #3C3231",
" +	c #0B0A0A",
".+	c #71534F",
"++	c #564240",
"@+	c #513E3D",
"#+	c #191313",
"$+	c #020000",
"%+	c #211C1C",
"&+	c #201A19",
"*+	c #0F0C0C",
"=+	c #2D2A2A",
"-+	c #3E3C3B",
";+	c #010101",
">+	c #2D2321",
",+	c #141313",
"'+	c #433938",
")+	c #0B0605",
"!+	c #836B65",
"~+	c #6C5652",
"{+	c #483C3B",
"]+	c #1C1716",
"^+	c #0C0A09",
"/+	c #302726",
"(+	c #181211",
"_+	c #866F69",
":+	c #715B57",
"<+	c #5F4B48",
"[+	c #604C4A",
"}+	c #231C1B",
"|+	c #4E4343",
"1+	c #171212",
"2+	c #4F4C4C",
"3+	c #2B2929",
"4+	c #735C59",
"5+	c #685451",
"6+	c #685351",
"7+	c #443331",
"8+	c #100807",
"9+	c #444243",
"0+	c #070707",
"a+	c #010000",
"b+	c #331715",
"c+	c #403737",
"d+	c #373131",
"e+	c #0C0000",
"f+	c #0D0201",
"g+	c #090101",
"h+	c #624D4A",
"i+	c #130E0D",
"j+	c #0C0A0A",
"k+	c #272120",
"l+	c #908485",
"m+	c #464345",
"n+	c #373436",
"o+	c #070404",
"p+	c #140D0C",
"q+	c #0B0201",
"r+	c #040000",
"s+	c #180604",
"t+	c #290000",
"u+	c #64261D",
"v+	c #332120",
"w+	c #1F0B08",
"x+	c #0F0504",
"y+	c #0A0605",
"z+	c #070403",
"A+	c #0D0A09",
"B+	c #71423C",
"C+	c #1B0F0E",
"D+	c #41302F",
"E+	c #5F4B49",
"F+	c #382725",
"G+	c #0B0706",
"H+	c #020101",
"I+	c #030202",
"J+	c #1C1615",
"K+	c #050404",
"L+	c #090000",
"M+	c #080000",
"N+	c #463433",
"O+	c #412625",
"P+	c #341F1D",
"Q+	c #604B49",
"R+	c #030000",
"S+	c #140E0D",
"T+	c #0F0A09",
"U+	c #100F0F",
"V+	c #0C0807",
"W+	c #311F1D",
"X+	c #2D1816",
"Y+	c #4B3938",
"Z+	c #816964",
"`+	c #503C3B",
" @	c #65504D",
".@	c #5C4540",
"+@	c #67514F",
"@@	c #64504E",
"#@	c #161110",
"$@	c #1F1918",
"%@	c #181717",
"&@	c #806A64",
"*@	c #351917",
"=@	c #523936",
"-@	c #341816",
";@	c #2C2423",
">@	c #7A5854",
",@	c #3C1D1B",
"'@	c #241D1C",
")@	c #3D3332",
"!@	c #433939",
"~@	c #040404",
"{@	c #030303",
"]@	c #403534",
"^@	c #050000",
"/@	c #3C3838",
"(@	c #6C6868",
"_@	c #595557",
":@	c #706C6C",
"<@	c #4A4849",
"[@	c #3D3939",
"}@	c #7F7677",
"|@	c #716D6D",
"1@	c #5B5759",
"2@	c #978182",
"3@	c #7C5853",
"4@	c #5C4342",
"5@	c #1C1818",
"6@	c #343030",
"7@	c #715858",
"8@	c #A28D8F",
"9@	c #907B7D",
"0@	c #766A6C",
"a@	c #89797B",
"b@	c #7E7475",
"c@	c #7C7273",
"d@	c #A88C8D",
"e@	c #B09A9B",
"f@	c #714F4E",
"g@	c #776F70",
"h@	c #9C8C8F",
"i@	c #454243",
"j@	c #524E50",
"k@	c #766F70",
"l@	c #837879",
"m@	c #96878A",
"n@	c #797172",
"o@	c #746D6D",
"p@	c #716A6B",
"q@	c #7B7173",
"r@	c #8F8184",
"s@	c #3E0000",
"t@	c #100000",
"u@	c #887C7E",
"v@	c #A39091",
"w@	c #847878",
"x@	c #6C6666",
"y@	c #7A7071",
"z@	c #807678",
"A@	c #8E8083",
"B@	c #C5A5A8",
"C@	c #C7A7AA",
"D@	c #A47E80",
"E@	c #97888A",
"F@	c #A08F92",
"G@	c #AC9798",
"H@	c #BFA3A5",
"I@	c #AC9496",
"J@	c #756E6E",
"K@	c #807879",
"L@	c #857A7B",
"M@	c #7C7274",
"N@	c #B09798",
"O@	c #736D6E",
"P@	c #6B6566",
"Q@	c #948788",
"R@	c #A47071",
"S@	c #C2A4A7",
"T@	c #AD9798",
"U@	c #A79093",
"V@	c #88797B",
"W@	c #8A7C7D",
"X@	c #938485",
"Y@	c #83797B",
"Z@	c #837778",
"`@	c #908082",
" #	c #5C595A",
".#	c #7F7576",
"+#	c #918386",
"@#	c #948485",
"##	c #7D7475",
"$#	c #908384",
"%#	c #8D8083",
"&#	c #857A7C",
"*#	c #7A7171",
"=#	c #6E6869",
"-#	c #604C4C",
";#	c #8B7E80",
">#	c #877C7E",
",#	c #726C6C",
"'#	c #9D8B8C",
")#	c #A39193",
"!#	c #544344",
"~#	c #605C5D",
"{#	c #2B2121",
"]#	c #454242",
"^#	c #575353",
"/#	c #776E6F",
"(#	c #746D6E",
"_#	c #160807",
":#	c #575455",
"<#	c #3D393A",
"[#	c #484444",
"}#	c #2E2B2B",
"|#	c #3F3B3C",
"1#	c #18110F",
"2#	c #585556",
"3#	c #1A1717",
"4#	c #464343",
"5#	c #524F50",
"6#	c #383535",
"7#	c #1F1B1B",
"8#	c #231F1F",
"9#	c #312D2E",
"0#	c #372927",
"a#	c #180C0B",
"b#	c #3D3A3A",
"c#	c #565354",
"d#	c #1F1C1D",
"e#	c #312E2E",
"f#	c #343031",
"g#	c #4B4748",
"h#	c #615C5C",
"i#	c #444041",
"j#	c #454142",
"k#	c #4C4949",
"l#	c #413D3E",
"m#	c #6D6667",
"n#	c #585455",
"o#	c #2F2C2C",
"p#	c #221A1A",
"q#	c #A99597",
"r#	c #4C0000",
"s#	c #58494A",
"t#	c #160000",
"u#	c #211A1A",
"v#	c #837375",
"w#	c #230000",
"x#	c #1A0000",
"y#	c #160E0E",
"z#	c #3B1717",
"A#	c #120000",
"B#	c #5A5555",
"C#	c #1F1312",
"D#	c #6C5B5B",
"E#	c #100404",
"F#	c #282020",
"G#	c #100C0B",
"H#	c #271B1A",
"I#	c #372726",
"J#	c #201615",
"K#	c #807576",
"L#	c #854D47",
"M#	c #342524",
"N#	c #110504",
"O#	c #0E0D0D",
"P#	c #140908",
"Q#	c #050302",
"R#	c #130909",
"S#	c #050100",
"T#	c #0F0201",
"U#	c #2A1715",
"V#	c #1E0D0B",
"W#	c #201817",
"X#	c #4D3B39",
"Y#	c #574341",
"Z#	c #110706",
"`#	c #705E5D",
" $	c #332322",
".$	c #080404",
"+$	c #231514",
"@$	c #302524",
"#$	c #806B69",
"$$	c #655553",
"%$	c #231917",
"&$	c #322523",
"*$	c #3D2D2C",
"=$	c #473534",
"-$	c #231210",
";$	c #0C0302",
"                              . + @ + # $                                               ",
"                            % & * * = - # ;                                             ",
"                            . . % % % % . . >                                           ",
"                            , . & . * ' ' * ) !                                         ",
"                          ~ { { % { { . % { % & ;                                       ",
"                  ] ; ^ ; ] / ( _ _ : _ & & . & ] < [ } | 1                             ",
"              ^ { % * * 2 . 3 4 5 5 > 6 7 _ _ _ _ _ _ 8 9 0 1                           ",
"            _ . . + * * a . b c d 5 e f 1 g h _ _ _ i j k l 1                           ",
"          _ m . n + o o * * p q r s t g u v w _ _ _ | x y z |                           ",
"          A ; B { a + C + D E p F G H I J K L r _ _ M N O P Q R S                       ",
"          A T 2 U V W # # X p Y Z `  .E ..u +.r _ _ _ @.#.I $.%.&.*.                    ",
"          A { =.% -.' ;.>.b ,.'.q ).!.~.| {.].r _ _ _ ^./.(.,._.:.&.S                   ",
"          <.{ * ;.[.}.% |.1.K 2.3.4.5.1.j 6.7._ _ _ 8.9.r _ _ 0.} _ a.R                 ",
"          : & b.c.d.e.U f.1.g.h.i.j.k.l.Q m.n._ _ _ o.o.o._ _ _ p._.p.p.                ",
"          <.; q.{ r.d.{ 4 s.t.;.+ u.u.v.w.n.x._ _ _ o._ _ _.y.o.z.p.p.A.                ",
"        % % * B.C.D.{ { E.F.G.% H.I.J.K.L.M.N._ _ _ y.o.o._ o.%.o.w.O.o.                ",
"        * P.% B.{ Q.& & R.6 S.T.U.V.k W.o.X.%._ _ _ _.Y.Z.9.o._._ `.`. +                ",
"      . # # .+++@+#+_ $+%+&+_ *+U.=+-+;+9.o.o._ _ _ _._.y.o.>+,+ +`.'+_ )+              ",
"      % o !+~+{ {+*+_ $+_ _ _ _ _ ]+[ _ ^.o.y._ _ _ 0.o.9.^.^+ + +/+/+$+(+              ",
"    . e._+:+<+[+}+|+_ _ _ _ _ _ _ 1+^+_ _ 2+3+_ _ _ _ _ _ _ _  +r }+}+$+(+              ",
"    4+5+. 6+7+8+_ 9+_ _ _ _ _ _ _ _ _ _.7 0+_ _ _ _ _ _ a+_ _ _ _ }+}+$+`.)+            ",
"    ; % b+_ ; _   c+d+_ e+_ _ _ _ _ _ _ _ _ _ _ _ _ _ _ _ _ _ _ _ /+_ f+g+$+            ",
"    % h+{ _ i+    d+j+_ _ _ _ _ _ _ _ _ _ _ _ _ _ _ _ _ _ _ _ _ _ /+_ $+$+$+            ",
"    ; A k+_ _     l+m+0+_ e+_ _ $+_ _ _ _ _ _ _ _ _ _ _ _ R _ _ _ }+_ f+g+$+            ",
"     +_ _ _ _ _   _ n+m+_ _ _ _ _ _ _ _ _ _ $+_ _ _ _ _ _ _ _ _   )+_ }+(+$+_           ",
"    o+_ _ _ _ _   _ _ T._ _ _ _ _ _ _ _ _ _ _ _ _ _ _ _ _ _ _ _   )+_ /+p+f+(+          ",
"      _ _ _ _ _     _ _ _ _ e+_ _ _ _ _ _ _ _ _ _ _ _ _ _ _ a._     _ /+q+r+_ _         ",
"        _ _ _ _     _ _ $+$+<.s+q+_ _ _ _ _ _ _ a+)+_ _ _ _         _ }+$+$+_ _ _       ",
"          _ _ _ t+u+_ $+A $+v+w+A x+_ _ _ _ _ a+y+z+_ _ _ _           }+A+g+_ _ $+      ",
"          _ _ _ _ B+C+> D+& , E+F+A _ _ _ _ _ G+(+_ H+)+_ _           I+J+(+K+_ _ L+    ",
"            _ _ _ M+> N+& O+P+Q+{ <.R+_ _ _ _ S+T+)+z+H+U+            _ _ V+(+_ _ _     ",
"              _ _ _ /+% <.. W+{ C.X+A _ _ _ _ $+K+S+)+_ T.              _ _ _ _ _ _     ",
"                  _ Y+Z+<.^ `+ @.@+@@@f+a+_ _ H+#@$@$+_ T.%@              _ _ _ _ _     ",
"                  ;.&@&@_+* *@B 2 =@-@L+$+_ _ i+;@`./+}+7                 _ _ $+_ _     ",
"                  * * * * >@& & e.. ,@$+_ _ _ '@)@H./+(+)+                _ A e+_ _     ",
"                A ] ; ; !@|+_ _ { <.<.e+_ ~@{@`.H.]@$+o+_ _               _ _ ^@_ _     ",
"              _ _ 1+9+/@(@_@_ e+:@<@[@}@|@1@2@3@M.[ 4@l+l+1                 $+_ _ _     ",
"              _ 5@_@_@|@1@6@_ 7@8@9@0@a@b@c@d@e@e@f@[ g@l+h@                _ _ _ $+    ",
"              _ 9+i@_@_@j@6 k@l@l+m@n@o@p@q@r@e@e@s@t@| k@k@                  _ $+_     ",
"              a+l@u@h@h@h@e@h@e@e@v@w@x@y@z@A@B@C@D@5 h@l@k@                    _ _     ",
"              _ l@E@h@h@h@F@G@H@C@I@w@J@K@L@M@N@C@C@s@e@O@P@                    _ $+    ",
"              t@l@l+l+Q@h@Q@R@S@T@U@V@W@X@Y@Z@`@C@C@s@e@9  #                    _ _ _   ",
"              h@k@k@k@k@.#l@O.e@+#@###$#%#&###*#e@e@7@l@1 1 p.                  _ _ _   ",
"            a+h@l@| | =#k@-#s l+;#>#u@| 1 O@,#0 '#)#!#k@1 ,.p.2+              _ A _ _   ",
"            1 2+p.| | ~#2+%.{#R 2+1 ]#_.o.p.^#/#(#| %.2+p._._.              _ _ _#_#_ _ ",
"          p.:#2+_._.<#p.p._ _ _ o.y._.Y._ p.$.[#p.p._.}#o.o.              _ _ _ _ : _ _ ",
"          2+2+2+_._._.}#9.^._ ^.o.o.0._ _ A.|#p.p.<#_.o.o.}#            _ 1#    _ e+_ _ ",
"          2#2+| _._._.3#_ o._ o.9.^._ _ _ _._._._._._._.p.p.                    _ r+_ _ ",
"          1 ,.2+2+0._ _ _ _ _ _ _   _ _ _ p.p.p.p.4#2+5#p.p.                    _ e+_   ",
"          1 1 4#2+_ _ _ _ _ o.o.o.    _ ^+2+2+2+2+2+2+p.p.p.                    _ _ _   ",
"          2+2+_.o.a._ _ _ _ _ _       o.}#]#2+2+2+2+2+p.6#o.                    _ _ _   ",
"          | p.1 p._ _ 8.o.0._ _       _ o.}#p.p.<#_.o.7#_._                   }+$+f+    ",
"          | 2+1 2+_ ^.o.o.0._         9._ o.8#_._._.o.9#|#_                   0#_ a#    ",
"          o.b#p.o._ 9.o._ _           7#_._._.<#2+1 c#p.d#_                             ",
"          e#5@f#_._ o.o.o.o.          _.<#g#2+h#| c#i#6#_                               ",
"          _.e#7#a._ o.o.o.r           _.|#p.j#k#g#p.|#_._                               ",
"        p.2+<#_.^+_ 0.o.              5@9#p.p.p.p.p.A.3#_                               ",
"        l@2+p._ _ _ _ _               o.o.8#_.p.p.p._._                                 ",
"        O@| p._ _ _ _ _               _._.l.l#2+p.p.^+_                                 ",
"      k@m#n#p._ p.a.o.                _._.p.p.p.p.p._ _                                 ",
"      h@e@)#k@o#_ _ p#                o.7#e#_.}#o.o.Z._                                 ",
"      h@F@q#7@s _ _ _                 o.o.o._.7#_ o.o.o.                                ",
"    } l@k@} t@r#t@_ _                 o.o.}#]#l@k@s#s a+                                ",
"    t#5 u#_ _ _ _ _ _                 ^.o.l+h@v#!#s w#5                                 ",
"    5 x#_ y#8+_ _ _ _                 _ _.l@C@!#z#t@5 5                                 ",
"    _ A#: > a#f+a+_ _                   B#l@C@!#r#r#s t@t@                              ",
"    f+R+_ C#a#}+(+_                     l@D#C@k@O.: : e+_                               ",
"    f+_ $+a#E#}+(+                    _ l@!#C@k@F#> _ _ _ _                             ",
"    f+G#_ g+$+_ _                       w.k@e@{#H#I#a#8+_ _                             ",
"    a#a#J#_ $+_ _                       _ K#p.L#; M#a#N#_                               ",
"    > f+] f+f+_ _                         <#O#] ; ] P#N#_                               ",
"    ] a#Q#&+G#_                           _ _ R+A e+N#P#_                               ",
"    f+E#R#_ _ _                             _ _ _ _ ^@L+_                               ",
"    e+^@a#_ _                               _ A S#_ e+R+_                               ",
"    : A e+)+a+                                T#A U#; V#                                ",
"    H.a+_ H+)+                                ] A ; ; ;                                 ",
"  H.W#_ _ _ _                                 ] <.] & &                                 ",
"  ; /+(+(+V+_                                   ; ; X#Y#                                ",
"! ! { ; Z#(+(+                                  ; ; { {                                 ",
"; & % * `#)+)+                                   $; { { _                               ",
"`#& ; ; a#.$_ _                                 +$& % { ]                               ",
"a#& `#& @$a#)+_ R                               & & { T ; f+                            ",
"e+& #$$$$$}+_ _ %$&$                            & & { & ] a#                            ",
")+)+)+)+(+)+)+0#&$R 0#                        <.*$=$& D+] A                             ",
"    )+)+                                    A a#-$; ] > > a#                            ",
"                                            $+$+$+<.A ;$)+)+                            ",
"                                                    )+)+)+H+                            "};
