/* XPM */
static char * ZIA6_xpm[] = {
"46 86 617 2",
"  	c None",
". 	c #5F4D49",
"+ 	c #3D302E",
"@ 	c #382E2D",
"# 	c #3D3230",
"$ 	c #3C312E",
"% 	c #544240",
"& 	c #4E3F3C",
"* 	c #312926",
"= 	c #3F3230",
"- 	c #291E1C",
"; 	c #584743",
"> 	c #5D4845",
", 	c #443535",
"' 	c #29201F",
") 	c #252A2B",
"! 	c #312625",
"~ 	c #382B2A",
"{ 	c #413331",
"] 	c #735D59",
"^ 	c #846A66",
"/ 	c #79635E",
"( 	c #7F6762",
"_ 	c #554341",
": 	c #473735",
"< 	c #65514E",
"[ 	c #5B4744",
"} 	c #705A57",
"| 	c #6D5753",
"1 	c #5D4A47",
"2 	c #6D5956",
"3 	c #252B2E",
"4 	c #3E3433",
"5 	c #352C29",
"6 	c #382F2C",
"7 	c #79625E",
"8 	c #7C6460",
"9 	c #59403E",
"0 	c #371E1C",
"a 	c #846B66",
"b 	c #816964",
"c 	c #5F4C49",
"d 	c #806B69",
"e 	c #745D5A",
"f 	c #826965",
"g 	c #7D6561",
"h 	c #6A5551",
"i 	c #705B57",
"j 	c #5C4846",
"k 	c #363537",
"l 	c #5C4D4C",
"m 	c #6F5956",
"n 	c #66524E",
"o 	c #453534",
"p 	c #5A4745",
"q 	c #866E68",
"r 	c #2B1210",
"s 	c #7F6662",
"t 	c #4A3837",
"u 	c #AC645A",
"v 	c #574847",
"w 	c #3C3231",
"x 	c #0B0A0A",
"y 	c #4E4A4C",
"z 	c #705E5E",
"A 	c #513F3E",
"B 	c #513F3D",
"C 	c #78605D",
"D 	c #7B625E",
"E 	c #7B635F",
"F 	c #5B4745",
"G 	c #4F3C3B",
"H 	c #341B19",
"I 	c #685451",
"J 	c #040101",
"K 	c #6B5553",
"L 	c #333030",
"M 	c #463838",
"N 	c #23110D",
"O 	c #120F0D",
"P 	c #000000",
"Q 	c #141011",
"R 	c #544E4F",
"S 	c #444243",
"T 	c #2A1F1E",
"U 	c #352726",
"V 	c #443331",
"W 	c #351F1D",
"X 	c #070000",
"Y 	c #0B0000",
"Z 	c #3C2C2B",
"` 	c #210C0A",
" .	c #584442",
"..	c #3D1C18",
"+.	c #311916",
"@.	c #7F6963",
"#.	c #8A746D",
"$.	c #5B5859",
"%.	c #050505",
"&.	c #0C0A0A",
"*.	c #1A1616",
"=.	c #2B2929",
"-.	c #373333",
";.	c #7E7476",
">.	c #5E5253",
",.	c #1F1514",
"'.	c #2B1F1F",
").	c #3C2B2A",
"!.	c #453432",
"~.	c #211313",
"{.	c #200C0B",
"].	c #331715",
"^.	c #58332E",
"/.	c #806A64",
"(.	c #5C4947",
"_.	c #28201F",
":.	c #473C3B",
"<.	c #4F4C4C",
"[.	c #423E3F",
"}.	c #4D4748",
"|.	c #262122",
"1.	c #222020",
"2.	c #383536",
"3.	c #8B7E80",
"4.	c #453635",
"5.	c #1F1716",
"6.	c #2C201F",
"7.	c #473533",
"8.	c #3E2E2D",
"9.	c #433231",
"0.	c #2C1D1C",
"a.	c #322221",
"b.	c #160502",
"c.	c #604C4A",
"d.	c #4C3D3B",
"e.	c #4E4848",
"f.	c #131010",
"g.	c #756D6E",
"h.	c #887D7F",
"i.	c #8E7979",
"j.	c #241B1A",
"k.	c #1B1313",
"l.	c #382827",
"m.	c #4F3D3B",
"n.	c #513E3C",
"o.	c #463534",
"p.	c #453332",
"q.	c #221615",
"r.	c #140807",
"s.	c #100C0C",
"t.	c #0B0605",
"u.	c #343132",
"v.	c #595253",
"w.	c #1D1717",
"x.	c #827678",
"y.	c #72696A",
"z.	c #4F4A4A",
"A.	c #201918",
"B.	c #251A19",
"C.	c #3D2D2C",
"D.	c #473534",
"E.	c #53403F",
"F.	c #42302F",
"G.	c #503E3C",
"H.	c #7B6460",
"I.	c #1A0B08",
"J.	c #41302F",
"K.	c #443433",
"L.	c #070707",
"M.	c #625C5D",
"N.	c #211A1A",
"O.	c #444041",
"P.	c #7B7073",
"Q.	c #665E60",
"R.	c #2A2120",
"S.	c #1E1716",
"T.	c #2E2221",
"U.	c #4B3937",
"V.	c #54413F",
"W.	c #4C3A38",
"X.	c #5A4744",
"Y.	c #76605C",
"Z.	c #816C69",
"`.	c #322322",
" +	c #79615C",
".+	c #302726",
"++	c #0D0201",
"@+	c #181211",
"#+	c #2A2727",
"$+	c #1E1513",
"%+	c #433F40",
"&+	c #2A2929",
"*+	c #514B4B",
"=+	c #645D5E",
"-+	c #312A29",
";+	c #2D201F",
">+	c #312221",
",+	c #4A3937",
"'+	c #5D4947",
")+	c #6E5A56",
"!+	c #64504D",
"~+	c #573F3C",
"{+	c #705A56",
"]+	c #745E5A",
"^+	c #110E0E",
"/+	c #090808",
"(+	c #2B2121",
"_+	c #272626",
":+	c #2C2A2A",
"<+	c #443E3E",
"[+	c #6A6366",
"}+	c #2E2423",
"|+	c #1E1615",
"1+	c #251918",
"2+	c #020000",
"3+	c #4A3936",
"4+	c #695550",
"5+	c #5B4642",
"6+	c #78615D",
"7+	c #372927",
"8+	c #423A39",
"9+	c #534D50",
"0+	c #2F2322",
"a+	c #191211",
"b+	c #1F1717",
"c+	c #251C1B",
"d+	c #0C0201",
"e+	c #362726",
"f+	c #5C4946",
"g+	c #6D5954",
"h+	c #4D3B39",
"i+	c #68514D",
"j+	c #856E68",
"k+	c #231C1B",
"l+	c #302120",
"m+	c #3F3534",
"n+	c #232222",
"o+	c #221E1E",
"p+	c #2F2423",
"q+	c #201615",
"r+	c #251D1C",
"s+	c #231D1D",
"t+	c #594644",
"u+	c #6B5752",
"v+	c #87716A",
"w+	c #867069",
"x+	c #201A19",
"y+	c #1E1D1D",
"z+	c #342524",
"A+	c #2C2120",
"B+	c #241C1B",
"C+	c #1E1918",
"D+	c #695551",
"E+	c #866F69",
"F+	c #836B66",
"G+	c #6F5A56",
"H+	c #241D1C",
"I+	c #0F0807",
"J+	c #3F2F2D",
"K+	c #2F2221",
"L+	c #5E4C48",
"M+	c #705C58",
"N+	c #856E69",
"O+	c #826C66",
"P+	c #7C6662",
"Q+	c #382928",
"R+	c #302322",
"S+	c #4A3938",
"T+	c #65534E",
"U+	c #6E5855",
"V+	c #6F5D5C",
"W+	c #42201B",
"X+	c #121111",
"Y+	c #210C0B",
"Z+	c #42312E",
"`+	c #473634",
" @	c #4E3E3B",
".@	c #8B7771",
"+@	c #3A1F1C",
"@@	c #171413",
"#@	c #503D3B",
"$@	c #5B4845",
"%@	c #614D49",
"&@	c #040303",
"*@	c #1E0000",
"=@	c #512D27",
"-@	c #010000",
";@	c #463433",
">@	c #5E4A47",
",@	c #1C0D0A",
"'@	c #2E0000",
")@	c #2C1210",
"!@	c #322728",
"~@	c #2F1512",
"{@	c #050303",
"]@	c #211C1C",
"^@	c #100000",
"/@	c #361512",
"(@	c #484343",
"_@	c #3E2D2C",
":@	c #3B3839",
"<@	c #4E4847",
"[@	c #170B09",
"}@	c #464242",
"|@	c #3C3A3B",
"1@	c #120D0D",
"2@	c #100605",
"3@	c #2E2D2D",
"4@	c #181717",
"5@	c #6A6465",
"6@	c #7B0600",
"7@	c #030101",
"8@	c #020202",
"9@	c #151111",
"0@	c #361D19",
"a@	c #220C07",
"b@	c #52221B",
"c@	c #320706",
"d@	c #762B1E",
"e@	c #8A0C00",
"f@	c #421913",
"g@	c #3E0000",
"h@	c #33130A",
"i@	c #080403",
"j@	c #341C18",
"k@	c #140E0C",
"l@	c #040000",
"m@	c #030000",
"n@	c #1F0000",
"o@	c #100C0B",
"p@	c #100807",
"q@	c #4A3734",
"r@	c #0B0201",
"s@	c #180C0B",
"t@	c #100B0A",
"u@	c #59423E",
"v@	c #282120",
"w@	c #655553",
"x@	c #866F6D",
"y@	c #0D0A09",
"z@	c #6B4D48",
"A@	c #0C0000",
"B@	c #1F1312",
"C@	c #121212",
"D@	c #766F70",
"E@	c #383233",
"F@	c #635F5F",
"G@	c #252222",
"H@	c #6B5D5B",
"I@	c #646061",
"J@	c #080000",
"K@	c #595557",
"L@	c #736F6F",
"M@	c #211B1B",
"N@	c #252121",
"O@	c #434041",
"P@	c #716D6D",
"Q@	c #0F0C0C",
"R@	c #131212",
"S@	c #615B5D",
"T@	c #7C6F72",
"U@	c #857A7B",
"V@	c #534F51",
"W@	c #565254",
"X@	c #706C6C",
"Y@	c #4A4848",
"Z@	c #171212",
"`@	c #464343",
" #	c #7D7475",
".#	c #6D6667",
"+#	c #736C6D",
"@#	c #867B7C",
"##	c #817779",
"$#	c #6B6667",
"%#	c #494647",
"&#	c #6D6869",
"*#	c #726E6E",
"=#	c #524E50",
"-#	c #292626",
";#	c #535050",
">#	c #7C7273",
",#	c #6D6768",
"'#	c #70686A",
")#	c #797172",
"!#	c #70696B",
"~#	c #83797A",
"{#	c #9C8C8F",
"]#	c #8F8184",
"^#	c #3F393B",
"/#	c #837879",
"(#	c #7B7172",
"_#	c #787071",
":#	c #6F6869",
"<#	c #6D6566",
"[#	c #797071",
"}#	c #6E6768",
"|#	c #827879",
"1#	c #958789",
"2#	c #7E6C6E",
"3#	c #332D2E",
"4#	c #656061",
"5#	c #6E5858",
"6#	c #71696A",
"7#	c #6C6566",
"8#	c #726A6B",
"9#	c #766F71",
"0#	c #84797A",
"a#	c #8D8182",
"b#	c #928487",
"c#	c #8F7B7D",
"d#	c #3C1313",
"e#	c #230000",
"f#	c #524F4F",
"g#	c #585556",
"h#	c #544344",
"i#	c #6C6667",
"j#	c #6F6768",
"k#	c #6F696B",
"l#	c #6E6869",
"m#	c #807577",
"n#	c #8F8284",
"o#	c #A79697",
"p#	c #947F82",
"q#	c #472021",
"r#	c #726B6C",
"s#	c #353233",
"t#	c #686264",
"u#	c #6E6769",
"v#	c #736B6D",
"w#	c #6B6466",
"x#	c #847A7B",
"y#	c #928587",
"z#	c #928687",
"A#	c #242223",
"B#	c #282524",
"C#	c #0E0D0D",
"D#	c #504D4D",
"E#	c #4F4A4B",
"F#	c #5F5B5C",
"G#	c #656062",
"H#	c #746B6C",
"I#	c #746C6D",
"J#	c #443F40",
"K#	c #555151",
"L#	c #0E0C0A",
"M#	c #010101",
"N#	c #282424",
"O#	c #484445",
"P#	c #504A4B",
"Q#	c #615A5C",
"R#	c #645E60",
"S#	c #726B6D",
"T#	c #7A7172",
"U#	c #807677",
"V#	c #7B7374",
"W#	c #5D5758",
"X#	c #5E5A5B",
"Y#	c #171414",
"Z#	c #433F3F",
"`#	c #5D5556",
" $	c #696365",
".$	c #756C6E",
"+$	c #514E4E",
"@$	c #6A6365",
"#$	c #554A4A",
"$$	c #161515",
"%$	c #544F50",
"&$	c #1A1717",
"*$	c #211D1D",
"=$	c #5B5656",
"-$	c #807779",
";$	c #7E7576",
">$	c #766E6F",
",$	c #3E3C3C",
"'$	c #171516",
")$	c #5C5758",
"!$	c #6B6364",
"~$	c #897C7E",
"{$	c #797174",
"]$	c #6D6668",
"^$	c #2F2C2C",
"/$	c #3F3B3C",
"($	c #0C0A09",
"_$	c #686364",
":$	c #5E5B5C",
"<$	c #7E7375",
"[$	c #857B7D",
"}$	c #565353",
"|$	c #383535",
"1$	c #343131",
"2$	c #272425",
"3$	c #545152",
"4$	c #555252",
"5$	c #3D393A",
"6$	c #2E2B2B",
"7$	c #1F1B1B",
"8$	c #635E5F",
"9$	c #716B6C",
"0$	c #343030",
"a$	c #615D5E",
"b$	c #604C4C",
"c$	c #231F1F",
"d$	c #4F4B4C",
"e$	c #343031",
"f$	c #625D5E",
"g$	c #171515",
"h$	c #4E494A",
"i$	c #2C2929",
"j$	c #4E4B4C",
"k$	c #302D2D",
"l$	c #5D595A",
"m$	c #373030",
"n$	c #181516",
"o$	c #363333",
"p$	c #4B4748",
"q$	c #262222",
"r$	c #191614",
"s$	c #1B1717",
"t$	c #312E2E",
"u$	c #454042",
"v$	c #353031",
"w$	c #676163",
"x$	c #474344",
"y$	c #3C3939",
"z$	c #201D1C",
"A$	c #645E5F",
"B$	c #2D2323",
"C$	c #544D4E",
"D$	c #403C3D",
"E$	c #362E2E",
"F$	c #181414",
"G$	c #262424",
"H$	c #4C4849",
"I$	c #5E5859",
"J$	c #655A5B",
"K$	c #221E1F",
"L$	c #4D4848",
"M$	c #514D4D",
"N$	c #776F70",
"O$	c #83787A",
"P$	c #7A7273",
"Q$	c #1C1818",
"R$	c #322F2F",
"S$	c #4D4A4A",
"T$	c #817778",
"U$	c #827778",
"V$	c #676263",
"W$	c #817678",
"X$	c #817577",
"Y$	c #908485",
"Z$	c #4E4B4B",
"`$	c #85797A",
" %	c #897C7F",
".%	c #938485",
"+%	c #908283",
"@%	c #353232",
"#%	c #454243",
"$%	c #99898C",
"%%	c #8B7F81",
"&%	c #98898C",
"*%	c #575455",
"=%	c #7E7475",
"-%	c #92696A",
";%	c #393435",
">%	c #615C5C",
",%	c #4C0000",
"'%	c #3C0000",
")%	c #4E4949",
"!%	c #3A3636",
"~%	c #090000",
"{%	c #050000",
"]%	c #736B6C",
"^%	c #686263",
"/%	c #331C18",
"(%	c #120000",
"_%	c #7B7273",
":%	c #6F5858",
"<%	c #7D7576",
"[%	c #1A0E0E",
"}%	c #948788",
"|%	c #361111",
"1%	c #542F2A",
"2%	c #2B201F",
"3%	c #A37071",
"4%	c #6D4642",
"5%	c #282523",
"6%	c #846062",
"7%	c #110504",
"8%	c #18110F",
"9%	c #130909",
"0%	c #2B1D1C",
"a%	c #423635",
"b%	c #050302",
"c%	c #2C1F1E",
"d%	c #0F0201",
"e%	c #130B0A",
"f%	c #3F3332",
"g%	c #2B1B1A",
"h%	c #1B0B08",
"i%	c #271D1C",
"j%	c #271A19",
"k%	c #2D1F1E",
"l%	c #210F0E",
"m%	c #3B2B2A",
"n%	c #2B1E1D",
"o%	c #453433",
"p%	c #4C403F",
"q%	c #53403E",
"r%	c #493736",
"s%	c #3F2F2E",
"t%	c #4E3C3A",
"u%	c #180604",
"v%	c #1F0B08",
"w%	c #705E5D",
"x%	c #090504",
"y%	c #362320",
"z%	c #2E2220",
"                                                        . + @ # $ %                         ",
"                                                      & * = - ; > , '                       ",
"                                                    ) ! ~ { ] ^ / ( _ :                     ",
"                                ^ < [ } | 1 < 2 3 3 4 5 6 7 8 9 0 a b c                     ",
"                              d e f g h i j < k l m n o p q h n r 3 ^ s t                   ",
"                          u t v w x y z A B < C D E F G H q I m J 7 ^ c K                   ",
"                    L M N O P P Q R S T U V W X Y < Z `  .t ..+.@.#.^ < v                   ",
"                  $.%.&.*.=.P -.;.>.,.'.).!.t ~.Y {.Z ` Z ].^./.@.(._. .:.                  ",
"              <.L [.}.|.1.P 2.;.3.4.5.6.7.8.Z 9.0.Y ^ a.b.` a e c.P d.Z                     ",
"              <.L L e.f.P P g.h.i.j.k.l.m.n.o.p.e t ^ a q.r.t t s.P t.                      ",
"              u.P =.v.P P w.x.y.z.A.B.C.D.E.F.G. .8.g H.I.q.b.J.K.P t.                      ",
"            u.L.*.P M.P N.O.P.Q.R.S.T.U.V.W.X.Y.Z.`. +7 Z .+++P @+                          ",
"          L %.*.#+$+%+@+&+&+*+=+-+k.;+b.>+,+'+)+!+~+{+]+                                    ",
"          *.^+/+(+$+x Z _+:+<+[+}+|+1+2+2+3+c.4+3+5+6+i                                     ",
"          *.L 7+8+L P Z  . .x 9+0+a+b+c+d+e+f+g+h+i+j+8                                     ",
"          *.*.7+7+N k+l+ .m+n+o+p+q+r+s+P l+t+u+v+w+a H.                                    ",
"        P L P 7+7+P P x+.+n+x y+z+A+B+C+P `.8.D+@.E+F+G+                                    ",
"        x L P j.H+O L.P P P L.x y 2+I+P P J+K+L+M+N+O+P+                                    ",
"        L L P P P P *.P P P P P L @+P P P Q+R+S+T+/.U+V+                                    ",
"        O ^+P *.%.P $+P P P P $+O W+P P X+Y+Z+`+ @.@+@                                      ",
"        P P P ^+*.@@O O P P P P P *.P P M ` #@$@#@%@-.                                      ",
"          P P P P O &@P P P *@=@W+*.-@P $.l+b.b.;@>@,@l+                                    ",
"          P P P P P P P P P '@*@)@P P !@$.W+b.~@l+l+{@]@                                    ",
"          P P P P P P P P ^@W+/@*@P P P (@$+++_@e e P :@:@<@                                ",
"          P P N [@P P P P P [@^@Y P P }@|@P 1@2@q.Z 3@n+4@5@6@                              ",
"        P P P 7@N P P P P P P P P P P [.P P 8@9@L <.$.$.O $.0@W+                            ",
"        P P P P P P P P P P P P P P $+P P P P P O N P P a@b@W+c@b@                          ",
"      P P @+P P P P P P P @+P P P P P P P P P P -@^@^@  P P P [@d@e@'@                      ",
"      t.P .+P P P P P P P P P 2+P P P P P P P P P *@'@      P P P f@g@h@                    ",
"      P P k+P P P P P P P P 2+P i@2+2+-@P P P P P P P         -@-@P P h@j@                  ",
"      P t.-@P P k@j.P P P P w .+2+l@++++k+2+-@P     P       ^@m@n@-@'@6@e@                  ",
"      P P P P P     P P P P w .+P ++l@.+k+o@2+@+    P   q.++l@^@Y P P b@                    ",
"      P P P P P     $+P P p@k+2+P 2+-@v w w 2+@+    P     P *@P P P P                       ",
"      P P P P P   q@P P P 2+r@p@2+2+.+.+.+q.s@k+t@  P P P P P P P                           ",
"      P P P P     u@k@P P 2+l@++2+v@v w@x@^  .y@k+  P   P P P P                             ",
"      P P P P     z@$+P P -@p@A@A@s@s@B@l+Z Z t e Z   A@P                                   ",
"      P P P P C@7+z@D@E@P P P F@F@++H+s@3@G@2+b.b.b.q.                                      ",
"        P P P P 7+H@I@D@D@J@P K@L@M@L@N@O@3@P P P P P@S                                     ",
"        P P P Q@D@D@[.<.$.$.R@S@T@U@D@V@W@X@Y@P P P F@F@                                    ",
"        P P P Z@5@$.`@<.(@ #.#+#@#;.##$#%#&#*#P P P F@=#                                    ",
"        P P P -#D@$.;#<.5@>#+#,#'#)#!# #~#{#]#^#P P F@/#                                    ",
"        P P P S 5@$.$.$.,#(#_#:#<#[#}#|#1#{#{#2#3#P $.5@                                    ",
"        P P P :@5@$.$.$.$.4#5#6#7#8#.#9#0#a#b#{#c#d#e#P $./#                                ",
"        P P P 3@5@$.;#f#g#$.h#i#j#.#k#l#l#m#n#{#o#p#q#-@$+5@r#                              ",
"        P P P x <.$.[.`@<.[.P s#}.t#u#v#w#r#h.x#y#{#{#z#P A#5@5@$.                          ",
"        P P P L.[.L [.[.*.B#O C#[.D#E#F#}#G#.#H#I#U@3.3.J#[.L <.K#5@                        ",
"        P P P P P L [.[.O L#M#^+N#[.%+O#P#Q#R#6#S#T#U#V#W#X#P (@5@5@                        ",
"        P P P P P *.*.*.*.P P ^+^+P Y#*.L L Z#`# $.$D@I@+$@$+##$$$%$$.                      ",
"        P P P b.A@$+L L L 1.P P P P *.%.P &$L *$=$V#%$[.5@-$;$>$|@P ,$                      ",
"        P P P P P P [.[.[.[.'$P P P P P P P P ^+[.)$L [.$.!$~${$]$^$P                       ",
"        P P   P   $+[.[.[.[./$L ($P P P *.P P P =.[.[.O._$:$<$[$}$<.$+[.                    ",
"        2+P P P P   |$[.[./$1$L *.*.^+P *./+P P P 2$%+3$$.4$+#/#5$L $./#                    ",
"          P P P P   P *.#+6$*.P /+7$L P *.*.*.^+P P <.8$$.4$9$D@L 0$a$b${#                  ",
"            P   P   [.N#*.c$#+L L 6$*.P *.[.*.*.P P =.%+d$$.$.e$*.;#f$g$h$                  ",
"                      [.[.[.[./$1$L 6$*.7$i$L     ^+P '$%+j$k$*.6$$.l$m$n$f#$.              ",
"                      o$[.[.p$<.[.L L *.L q$r$      P P =.[.s$t$5$[.[.u$v$w$x$              ",
"                      L 5$[.L [.o$L #+*.[.y$z$        9@8@P L L /$5@A$[.J#B$C$D@            ",
"                        L *.*.*.*.*.*.*.|$D$E$          F$8@G$L o$[.+$H$I$J$(+M             ",
"                        L o$K$*.*.*.*.*.#+O.L$            F$P P ^+%+M$N$O$P$5@-@            ",
"                        Q$R$/$[.5$L 6$7$*.<.S$                P P _$r# #T$U$/#b$            ",
"                        *.Q$6$L L L L L L m$+$                u.P V$W$X$U#F#5@Y$            ",
"                          /+*.*.7$L *.t$L /$Z$                O O `$ %.%+%m#D@{#            ",
"                        $.[.*.*.*.*.*.Q$6$@%#%                P g@$%%%%%&%D@Y$Y$P           ",
"                      P $.<.*%e$7$6$#+*.*.%+O.                ^@-@(+g.=%-%;%D@{#P           ",
"                      P 5@>%<.[.L L L *./+L *.                P P O $.,%'%P P F@P           ",
"                    -@)%/#$.$.$.<.5$#+7$!%[.                  P P N P P m@~%{%P K@          ",
"                  ^@[./#]%N /#U#^%*.c$L *.                      O /%2+(%A@A@A@J@P           ",
"                P -@_%{#M *@:%<%r#9@%.P P                       $+N P P s@s@[%A@P           ",
"              $+N N {#}%h#|%1%9$%$P P P                           2%P P s@s@q.s@P           ",
"              7+u@=@$.Y$3%4%%+L ($P P                             P P 2+s@s@l+s@2+          ",
"              /%u@=@5%5@6%W+^+P P P P                             P P P s@7%++s@            ",
"            P 2+P P P P P P P P                                   8%P k+2+q.q.Z             ",
"          P P P P P P P P P                                         t.P 9%B@0%a%            ",
"          P P m@~%A@A@P P P                                         P P b%s@c%l+            ",
"          q.b.d%A@A@m@s@P                                           P s@P e%s@f%l+          ",
"        ++l+g%h%[%A@2+P                                               P P P i%v s@          ",
"        j%l+q.k%q+P t.                                                P 2+m@P b.:.          ",
"      Z >+l+l%q.P P                                                     P k+s@Z A@l+        ",
"      Z m%l+Z q.t.                                                        t..+w n%Z         ",
"    C.D.o%Z Z @+                                                          s@l+v 4.Z         ",
"  Z D. . .Z Z                                                             t Z p%v v <       ",
"q.Z t t t t q%].                                                          q.Z w@w@w@:.q.    ",
"q.Z t t r%Z t ` ].                                                        v Z w@w@w@w w     ",
"q.Z t t s%t%t u%v% . .t                                                   w%l+++2+2+p@.+q.  ",
"++b.l+l+l+q.s@d%b.b.` ` r e                                               t.t.t.t.x%J 2+2+++",
"t.2+s@q.b.2+2+P 2+2+A@b.b.y%e  .                                          z%t.t.t.t.t.t.t.P "};
