/* XPM */
static char * ZIA7_xpm[] = {
"42 87 571 2",
"  	c None",
". 	c #745D5A",
"+ 	c #2D1917",
"@ 	c #53403F",
"# 	c #604945",
"$ 	c #624F4B",
"% 	c #644D4A",
"& 	c #806963",
"* 	c #5D4A47",
"= 	c #5A4644",
"- 	c #725D5A",
"; 	c #715C59",
"> 	c #6D5854",
", 	c #695351",
"' 	c #4A4141",
") 	c #725C59",
"! 	c #5D4845",
"~ 	c #4A3937",
"{ 	c #594745",
"] 	c #6A5552",
"^ 	c #6D5855",
"/ 	c #816B66",
"( 	c #826763",
"_ 	c #756260",
": 	c #766260",
"< 	c #846B68",
"[ 	c #77605D",
"} 	c #493736",
"| 	c #564240",
"1 	c #745E5A",
"2 	c #5C4947",
"3 	c #5F4B48",
"4 	c #5E4B48",
"5 	c #604C4A",
"6 	c #5A4645",
"7 	c #52403E",
"8 	c #53413F",
"9 	c #4E3B3A",
"0 	c #584544",
"a 	c #614D4B",
"b 	c #5C4946",
"c 	c #735D59",
"d 	c #7F6963",
"e 	c #7D6661",
"f 	c #866E6A",
"g 	c #866E6B",
"h 	c #846B66",
"i 	c #846A66",
"j 	c #866E68",
"k 	c #584643",
"l 	c #64514E",
"m 	c #5B4845",
"n 	c #675350",
"o 	c #695451",
"p 	c #4A3837",
"q 	c #433636",
"r 	c #604D4A",
"s 	c #63504D",
"t 	c #4F3D3B",
"u 	c #66524F",
"v 	c #604A48",
"w 	c #7F6862",
"x 	c #867069",
"y 	c #87716A",
"z 	c #8A756F",
"A 	c #312726",
"B 	c #503E3C",
"C 	c #554241",
"D 	c #6F5855",
"E 	c #836A67",
"F 	c #7D6461",
"G 	c #755F5C",
"H 	c #55423F",
"I 	c #443332",
"J 	c #483736",
"K 	c #54413F",
"L 	c #6E5855",
"M 	c #4B3937",
"N 	c #1B0A07",
"O 	c #513D3A",
"P 	c #65514E",
"Q 	c #79625E",
"R 	c #6C5854",
"S 	c #4A3734",
"T 	c #120402",
"U 	c #050000",
"V 	c #281312",
"W 	c #614E4B",
"X 	c #6B5754",
"Y 	c #7F6863",
"Z 	c #87706D",
"` 	c #856E6B",
" .	c #7C6562",
"..	c #5C4846",
"+.	c #473635",
"@.	c #443534",
"#.	c #2F2E2F",
"$.	c #473534",
"%.	c #3C2C2B",
"&.	c #3D1C18",
"*.	c #7B645F",
"=.	c #806A64",
"-.	c #76605B",
";.	c #584442",
">.	c #5F3732",
",.	c #020000",
"'.	c #46312F",
").	c #7A6461",
"!.	c #866F6C",
"~.	c #866F6D",
"{.	c #86706B",
"].	c #8D7E7D",
"^.	c #735C59",
"/.	c #403231",
"(.	c #3F3232",
"_.	c #433535",
":.	c #433231",
"<.	c #2A1715",
"[.	c #3C1D1B",
"}.	c #6D524E",
"|.	c #291312",
"1.	c #735C58",
"2.	c #3C3231",
"3.	c #71514C",
"4.	c #180C0B",
"5.	c #160502",
"6.	c #060504",
"7.	c #5F4C4A",
"8.	c #7A6462",
"9.	c #856D6B",
"0.	c #887370",
"a.	c #7B6663",
"b.	c #310807",
"c.	c #534A48",
"d.	c #3D3534",
"e.	c #3A2D2D",
"f.	c #4A3836",
"g.	c #150808",
"h.	c #0B0000",
"i.	c #4E3735",
"j.	c #715248",
"k.	c #754F4A",
"l.	c #210C0A",
"m.	c #5A4844",
"n.	c #705956",
"o.	c #333030",
"p.	c #0D0201",
"q.	c #0C0000",
"r.	c #100D0C",
"s.	c #695552",
"t.	c #846E6B",
"u.	c #87706E",
"v.	c #4F3D3C",
"w.	c #6A3D3C",
"x.	c #3C2C2A",
"y.	c #444243",
"z.	c #433C3C",
"A.	c #453433",
"B.	c #41302F",
"C.	c #221615",
"D.	c #2B1210",
"E.	c #120000",
"F.	c #100000",
"G.	c #251615",
"H.	c #000000",
"I.	c #181211",
"J.	c #302726",
"K.	c #413D3D",
"L.	c #331C18",
"M.	c #130F0F",
"N.	c #705B58",
"O.	c #87716E",
"P.	c #856C6A",
"Q.	c #806664",
"R.	c #130202",
"S.	c #270100",
"T.	c #1F1615",
"U.	c #333132",
"V.	c #3F3E3E",
"W.	c #463534",
"X.	c #241817",
"Y.	c #302120",
"Z.	c #2F2219",
"`.	c #3A2C2B",
" +	c #23110D",
".+	c #372927",
"++	c #362624",
"@+	c #080000",
"#+	c #0D0A0A",
"$+	c #735E5D",
"%+	c #846C6A",
"&+	c #79615E",
"*+	c #2C0908",
"=+	c #1F1010",
"-+	c #3A2321",
";+	c #4A3C3B",
">+	c #2E2D2D",
",+	c #110000",
"'+	c #2B2217",
")+	c #665E4F",
"!+	c #484241",
"~+	c #433230",
"{+	c #1E1312",
"]+	c #3E2E2D",
"^+	c #6C5753",
"/+	c #846D6B",
"(+	c #332423",
"_+	c #201918",
":+	c #332422",
"<+	c #7F6865",
"[+	c #5E5655",
"}+	c #110604",
"|+	c #7C5853",
"1+	c #570000",
"2+	c #A5812C",
"3+	c #484343",
"4+	c #544344",
"5+	c #1E1513",
"6+	c #42231E",
"7+	c #030000",
"8+	c #010101",
"9+	c #493836",
"0+	c #604C49",
"a+	c #6F5956",
"b+	c #685451",
"c+	c #5B4847",
"d+	c #251D1C",
"e+	c #161211",
"f+	c #8B766F",
"g+	c #5D5959",
"h+	c #060505",
"i+	c #231B18",
"j+	c #8C605B",
"k+	c #30211E",
"l+	c #0D0B0A",
"m+	c #443431",
"n+	c #836B68",
"o+	c #594643",
"p+	c #291F1E",
"q+	c #231716",
"r+	c #58332E",
"s+	c #5A5656",
"t+	c #1A1515",
"u+	c #423E3F",
"v+	c #1D100F",
"w+	c #634F4D",
"x+	c #64504D",
"y+	c #715B59",
"z+	c #87716F",
"A+	c #826B69",
"B+	c #4E3C3B",
"C+	c #100C0C",
"D+	c #361917",
"E+	c #646060",
"F+	c #080505",
"G+	c #1C1B1B",
"H+	c #3E3130",
"I+	c #574543",
"J+	c #66534F",
"K+	c #7D6664",
"L+	c #7B6562",
"M+	c #4B3B39",
"N+	c #010000",
"O+	c #1E0000",
"P+	c #240E0C",
"Q+	c #5E5B5B",
"R+	c #020202",
"S+	c #292626",
"T+	c #1A1616",
"U+	c #282523",
"V+	c #150C0A",
"W+	c #4B3E3C",
"X+	c #564341",
"Y+	c #695553",
"Z+	c #3C302D",
"`+	c #0B0A0A",
" @	c #1C1818",
".@	c #0E0C0A",
"+@	c #221A1A",
"@@	c #1F1A1A",
"#@	c #59423E",
"$@	c #574442",
"%@	c #725D5B",
"&@	c #040403",
"*@	c #3E3C3D",
"=@	c #434040",
"-@	c #2B2525",
";@	c #090707",
">@	c #221B1A",
",@	c #120F0D",
"'@	c #6B4D48",
")@	c #4C3A39",
"!@	c #544240",
"~@	c #6C5754",
"{@	c #1D1110",
"]@	c #040303",
"^@	c #1C1716",
"/@	c #504041",
"(@	c #413E3E",
"_@	c #3C3939",
":@	c #0F0808",
"<@	c #635F5F",
"[@	c #0C0A09",
"}@	c #1A1311",
"|@	c #512D27",
"1@	c #614F4D",
"2@	c #584543",
"3@	c #49302E",
"4@	c #080606",
"5@	c #4E4847",
"6@	c #242020",
"7@	c #605959",
"8@	c #373434",
"9@	c #383535",
"0@	c #4D4646",
"a@	c #363434",
"b@	c #050505",
"c@	c #403E3F",
"d@	c #4E4A4C",
"e@	c #1A0D0C",
"f@	c #2C1D1C",
"g@	c #503D3C",
"h@	c #524E50",
"i@	c #232222",
"j@	c #4D494A",
"k@	c #3A3637",
"l@	c #454242",
"m@	c #322A2B",
"n@	c #484546",
"o@	c #4D4849",
"p@	c #181717",
"q@	c #171212",
"r@	c #2B2929",
"s@	c #2F2727",
"t@	c #170B09",
"u@	c #4A2B27",
"v@	c #121212",
"w@	c #585555",
"x@	c #3B3839",
"y@	c #5E4A48",
"z@	c #3D3231",
"A@	c #171312",
"B@	c #565354",
"C@	c #2B1714",
"D@	c #100F0F",
"E@	c #614E4D",
"F@	c #826B6A",
"G@	c #6E5B5A",
"H@	c #222020",
"I@	c #282424",
"J@	c #171616",
"K@	c #070404",
"L@	c #3E3332",
"M@	c #725F5D",
"N@	c #786361",
"O@	c #786462",
"P@	c #6C5958",
"Q@	c #140E0C",
"R@	c #24120F",
"S@	c #251B1A",
"T@	c #584947",
"U@	c #7C6765",
"V@	c #1A0100",
"W@	c #472A28",
"X@	c #090000",
"Y@	c #040000",
"Z@	c #160807",
"`@	c #473C3B",
" #	c #391310",
".#	c #140908",
"+#	c #0E0301",
"@#	c #130E0D",
"##	c #1B0F0E",
"$#	c #634E4C",
"%#	c #302827",
"&#	c #28201F",
"*#	c #0D0A09",
"=#	c #231C1B",
"-#	c #2F2321",
";#	c #1C1514",
">#	c #2C2322",
",#	c #271716",
"'#	c #301A16",
")#	c #110A08",
"!#	c #705E5D",
"~#	c #170E0E",
"{#	c #5B5859",
"]#	c #2E2624",
"^#	c #281C1A",
"/#	c #26130F",
"(#	c #42201B",
"_#	c #281D1C",
":#	c #281A19",
"<#	c #6A6465",
"[#	c #322728",
"}#	c #766F70",
"|#	c #716D6D",
"1#	c #373131",
"2#	c #140402",
"3#	c #7A7172",
"4#	c #B09A9B",
"5#	c #71423C",
"6#	c #2E0000",
"7#	c #948788",
"8#	c #9A8B8E",
"9#	c #847B7C",
"0#	c #837A7B",
"a#	c #6E6869",
"b#	c #908485",
"c#	c #715858",
"d#	c #150000",
"e#	c #9C8C8F",
"f#	c #97898B",
"g#	c #8C8081",
"h#	c #595557",
"i#	c #7F7576",
"j#	c #7F7677",
"k#	c #92696A",
"l#	c #9F8E90",
"m#	c #6B6465",
"n#	c #141313",
"o#	c #2B2121",
"p#	c #837879",
"q#	c #A89395",
"r#	c #928586",
"s#	c #706263",
"t#	c #797172",
"u#	c #807677",
"v#	c #867B7C",
"w#	c #604C4C",
"x#	c #230000",
"y#	c #343232",
"z#	c #6F6B6C",
"A#	c #8E8284",
"B#	c #928687",
"C#	c #7E7474",
"D#	c #161313",
"E#	c #646061",
"F#	c #8D8182",
"G#	c #98898C",
"H#	c #A99597",
"I#	c #704546",
"J#	c #2F2C2C",
"K#	c #70696A",
"L#	c #83797A",
"M#	c #857C7D",
"N#	c #6F6869",
"O#	c #5F595A",
"P#	c #736B6C",
"Q#	c #8C7F81",
"R#	c #938587",
"S#	c #1C1616",
"T#	c #766E6F",
"U#	c #857B7C",
"V#	c #8D8283",
"W#	c #897F80",
"X#	c #786F70",
"Y#	c #6C6566",
"Z#	c #3D393A",
"`#	c #706869",
" $	c #8E8283",
".$	c #897D7E",
"+$	c #84797A",
"@$	c #5B5657",
"#$	c #696364",
"$$	c #4F4C4C",
"%$	c #81797A",
"&$	c #867C7D",
"*$	c #231F1F",
"=$	c #585455",
"-$	c #524747",
";$	c #746D6E",
">$	c #7D7576",
",$	c #7C7475",
"'$	c #716A6B",
")$	c #111010",
"!$	c #6D6667",
"~$	c #2D2A2A",
"{$	c #776E6F",
"]$	c #877C7D",
"^$	c #151312",
"/$	c #151111",
"($	c #1F1B1B",
"_$	c #2E2B2B",
":$	c #605C5D",
"<$	c #322E2E",
"[$	c #393636",
"}$	c #655F5F",
"|$	c #8C8182",
"1$	c #2C2929",
"2$	c #656061",
"3$	c #4B4748",
"4$	c #2C1A17",
"5$	c #5D5657",
"6$	c #877E7F",
"7$	c #090808",
"8$	c #3F3B3C",
"9$	c #363333",
"0$	c #856264",
"a$	c #998A8C",
"b$	c #8F8384",
"c$	c #A08F90",
"d$	c #2A2727",
"e$	c #575253",
"f$	c #A89495",
"g$	c #988A8B",
"h$	c #A39192",
"i$	c #312E2E",
"j$	c #3C3A3B",
"k$	c #9D8D8F",
"l$	c #9C8C8D",
"m$	c #1A1717",
"n$	c #524F50",
"o$	c #535050",
"p$	c #443E3F",
"q$	c #656162",
"r$	c #897E7F",
"s$	c #171516",
"t$	c #797273",
"u$	c #A49192",
"v$	c #343031",
"w$	c #827879",
"x$	c #312D2E",
"y$	c #413D3E",
"z$	c #302C2C",
"A$	c #322F2F",
"B$	c #4E494A",
"C$	c #2E2525",
"D$	c #7E7475",
"E$	c #2D2929",
"F$	c #998A8D",
"G$	c #918586",
"H$	c #463838",
"I$	c #736D6E",
"J$	c #7A7273",
"K$	c #7B7374",
"L$	c #8B7F81",
"M$	c #181414",
"N$	c #C7A7AA",
"O$	c #5C5858",
"P$	c #282626",
"Q$	c #4C0000",
"R$	c #110E0E",
"S$	c #372C2D",
"T$	c #150909",
"U$	c #110504",
"V$	c #281E1D",
"W$	c #0B0605",
"X$	c #241918",
"Y$	c #2B1D1C",
"Z$	c #382E2D",
"`$	c #403534",
" %	c #271C1B",
".%	c #251817",
"+%	c #2D1F1E",
"@%	c #201A19",
"#%	c #201312",
"$%	c #0A0201",
"%%	c #100C0B",
"&%	c #574745",
"*%	c #1B1413",
"=%	c #1C0F0F",
"-%	c #060100",
";%	c #150F0E",
">%	c #574847",
",%	c #040100",
"'%	c #655553",
")%	c #0C0404",
"!%	c #090504",
"~%	c #0C0302",
"{%	c #140E0D",
"                                                            . + @ # $ % &           ",
"                                                            * = - ; > , ' )         ",
"                                                        ! ~ { ] ^ / ( _ : < [       ",
"                                  } | 1 = 2 3 4 5 6 7 8 9 0 a b c d e f g h i j     ",
"                                2 k l m 4 n n o o p q r s t u v w x h y z i i h     ",
"                            A B C 5 D E i h F G H I J K L M N O . P . i Q R y h     ",
"                      S T U V W X Y Z g ` `  ...+.@.#.$.%.&.i P *.h j i P =.-.;.    ",
"                      >.U ,.'.X ).!.~.{.].^.. p /.(._.:.<.[.}.P P P |.U U U 1.2.    ",
"                  S 3.4.5.6.7.8.9.0.a.b.c.d.P p (.e.f.g.h.i.[.j.k.l.U U m.;.n.      ",
"                o.S S p.q.r.s.t.9.u.v.w.x.y.z.A.:.B.C.U q.l.D.E.F.G.H.H.I.J.S       ",
"              o.K.L.L.p.q.M.N.O.P.Q.R.S.T.U.V.B.W.X.q.Y.q.%.H.H.Z.F.`.H. +.+        ",
"              o..+L.++C.@+#+$+f %+&+*+=+-+;+>+%.%.,.q.p p ,+'+H.)+H..+              ",
"              !+.+.+~+5.H.{+]+^+/+| (+_+:+h <+[+}+H.H. +|+1+2+                      ",
"            3+4+ +5+6+7+8+9+0+a+b+c+d+e+4.h f+g+h+H.H.i+j+                          ",
"          .+3+k+ +L.,.l+m+P ~.~.n+o+p+q+p.r+k.s+t+I.                                ",
"          S u+ + +5+v+w+x+y+~.z+A+B+C+4.,.D.D+E+F+C.G+                              ",
"          .+u+ + +k+H+I+J+K+~.` L+M+N+@+O+P+D.Q+R+p S+                              ",
"        T+U+3+H.V+ +W+X+- ~.u./+Y+Z+H.H.O+H.`+ @H.p I.                              ",
"        .@H.+@@@H.#@M+$@%@~.!.0 P &@H.H.F.*@=@H.H.-@                                ",
"        H.H.;@>@,@'@)@!@- ~@{@N A H.]@^@/@(@_@R+:@<@                                ",
"          H.H.[@}@|@1@2@3@4@H.5@H.6@7@8@9@0@a@b@c@d@                                ",
"          ,@H.H. +j+e@f@g@. h@y.>+i@T+j@k@l@o.b@m@                                  ",
"          H.H.5+L.L.H.H.H.y.y.y.n@o@p@q@`+G+r@h+s@                                  ",
"            H.H.t@'@u@H.v@y.w@x@y@~.A+z@A@H.H.R+B@                                  ",
"            H.H.H.C@6+u+u+T+H.D@4.l.E@A+F@G@H.H.i@                                  ",
"            H.H.H.H.H@I@u+H@H.H.J@K@5.L@M@N@O@P@p@                                  ",
"              H.H.,@H.Q@Q@H.H.H.H.H.H.H.@+R@S@T@U@~.                                ",
"            H..+H.H.H.H.H.H.H.H.H.U H.H.H.V@S.S.W@z@J.p.    U                       ",
"            H.H.H.H.H.,.H.H.H.H.H.X@Y@H.H.H.H.Z@E.C.2.p.`@l.E.l.                    ",
"            H.  H.H.H.p.H.H.H.H.7+h.7+H.H.H.U H.H.H.H.H.H.H.h. #                    ",
"          H.      H.H.I.,.,.C..#4.,.H.H.H.H.H.H.  H.H.5.E.S.+#H.                    ",
"                  H.H.J.K@@###C.p $#%#I.H.H. @U       H.H.H.H.H.                    ",
"                  H.H.J.I.&#*#=#2.;.5.-#,.`+`+        H.H.H.H.H.                    ",
"                  H.q@=#p.J.=#;#>#=#,#5.p.  i@          H.H.H.H.                    ",
"                  #@2.`@2.C.p.,.=#=#Y.4.,.d@`+          H.H.                        ",
"                   + + +'#)#%.!#2.,.,.~#p.r+            H.                          ",
"              {#.+ +]#^#/#L.(#q.2.J._#,.4.:#q.                                      ",
"              <#[#5+}#3+F.F. +N+<@|#1#=#H.@+2#                                      ",
"              {#}#<#3#4#5#6#O+O+7#8#9#0#q.H.H.d@                                    ",
"            ,@{#}#a#<#b#c#F.O+d#e#f#g#h#x@H.H.x@G+                                  ",
"            ,@{#i#}#j#b#k#F.L.F.e#l#b#b#m#h+n#x@G+                                  ",
"            o#<#p#g#b#b#e#O+H.H.3+{#q#r#r#s#x@x@,.                                  ",
"              <#t#u#p#p#v#b#w#6#x#H.y#z#A#B#C#T+D#                                  ",
"              u+E#}#}#p#F#G#H#I#6#N+H.J#K#L#g#M#N#                                  ",
"              o.o.O#u#P#}#Q#e#R#p#p#H.H.S#T#U#V#W#X#Y#                              ",
"                o.o.o.o.Z#{#}#i#p#P#u+H@H.u+o@`# $.$+$p#                            ",
"                o.o.o.o.o.o.@$}##$$$$${#o#,@{#P#i# $%$&$p#                          ",
"                      *$o.o.o.Z#$$u+=$<#<#-$H.-$;$>$ $,$'$<#                        ",
"                        o.)$)$o.o.Z#<#}#!$<#<#,@~${$]$F#K#+$                        ",
"                        o.^$8+/$($_$:$!$#${#{#<$,@[$}$|$b#f#                        ",
"                        u+1$,@H.T+T+$$$${#2$3$u+{#L.4$5$6$g#                        ",
"                        o.*$H./$T+7$u+u+{#}#8$9$$$H.}#0$a$b$c$                      ",
"                        H.T+H.T+d$H.u+u+3$e$o.o.$$H.S#w#4#f$g$h$                    ",
"                          T+T+*$o.($T+I@Z#i$T+o.{#j$H.H.p#g#k$l$                    ",
"                          u+u+9$o._$T+T+o.m$b@u+n$o$y#H.p$p#{#q$r$                  ",
"                          9$u+u+o.o.T+T+o.H.H.9@u+u+u+s$H.<#u+u+t$u$                ",
"                            T+d$o.d$T+v$u+s$m$_$8$<#3$u+N+N+y#<#}#w$4#              ",
"                            T+T+T+T+T+x$y$u+z$T+A$u+9@:$<#B$N+C$$$e#e#              ",
"                              T+T+T+T+ @x$u+u+7$($9$Z#N#D$p#E$N+<#F$G$              ",
"                              o.o.o.o.T+T+$$H$p#4#<#I$i#g#J$p#O+<#b#K$              ",
"                                T+T+T+ @_$u+s$p#4#<#!$}#!$=$4#6+H$F.N+              ",
"                                T+T+T+o.o.u+u+p#4#b#b#L$I$<#4#w#H.H.H.              ",
"                            $$u+T+T+T+ @o.T+T+}#}#i#4#b#]$e#b#(.H.H.H.              ",
"                        9${#{#u+_$ @T+T+M$b@$$u+E#}#b#$$b#N$p#H.H.H.H.              ",
"                        {#O$$$u+9$_$T+T+D@P$$$u+<#|@Q$H${#4#}#H.H.H.                ",
"                      <#{#$$$$u+8$o.T+T+o.d$T+{#`+Y@H.H.H.Q@<#U.H.X@                ",
"                    u+5+N+ +{#u+I@H.R$R$H.R$v$    H.H.H.,.H.S$d@U q.                ",
"                    <#H.N+F.<#v$/$H.H.H.H.H.H.    H.H.,.q.,.H.H.q.T$                ",
"                  {#u+F. +[#o./$R+H.H.H.H.H.      H.H.N+4.U$p.,.p.C.                ",
"                  o.4+5+,@R$H.H.H.H.H.H.H.        H.H.H.V$4.4.C.##4.                ",
"                H.H.H.H.H.H.H.H.H.H.              H.H.H.p.p.q.C.C.p.                ",
"              H.H.H.H.H.H.H.H.H.H.                H.H.W$4.2.X$Y$C.H.                ",
"              H.H.H.H.H.H.H.H.H.                    H.H.J.Z$`$`@,.                  ",
"              H.H.H.H.H.H.H.Q@                      H.W$=#J.`@`@H.                  ",
"          H.H.H.H.H.H.H.H.H.                        H.H.J. %C.C.H.                  ",
"        H.H.H.,.H.H.W$H.                            H.H.J.C..%+%p                   ",
"        H.H.H.H.H.H.I.                              H.H.@%`@Y.#%C.2.                ",
"      p.,.,.N+H.H.$%                                  %%H.H.%.&%h.U                 ",
"    p.p.,.,.I.I.                                        W$*%=%%.H.H.                ",
"    p.p.-%,.,.H.                                        ;%W$C.%.H.H.H.              ",
"  Y@p.p.p.p.p.p.,.                                      =#2.>%;.C.Y.Y.              ",
"  p.p.p.p.p.p.,%,.p.,.                                  J.J.4.X$2.p '%;.%.          ",
"H.p.p.p.4.p.)%H.N+,.,.                                  `@`@2.2.2.4.4.>%p p         ",
"H.,.,.,.,.H.H.H.H.H.H.H.,.H.                          J.J.J.4.,.,.,.C.C.4.Y.%.      ",
"  W$W$W$W$W$W$!%H.H.H.H.H.H.=#J.                      W$W$~%=#J.2.2.2.`@`@4.C.Y.p   ",
"                      !%H.  H.H.                      W$W$W${%,.,.,.,.p.4.4.q.4.p %.",
"                                                        W$W$W$W$W$W$W$W$W$W$W$W$W$H."};
