/* XPM */
static char * ZIA8_xpm[] = {
"38 88 624 2",
"  	c None",
". 	c #816763",
"+ 	c #705B57",
"@ 	c #78625D",
"# 	c #7C6460",
"$ 	c #846A66",
"% 	c #745D5A",
"& 	c #352624",
"* 	c #6E5955",
"= 	c #715C58",
"- 	c #6F5A55",
"; 	c #806863",
"> 	c #846B66",
", 	c #252B2E",
"' 	c #754F4A",
") 	c #3E3332",
"! 	c #65524F",
"~ 	c #6F5956",
"{ 	c #695552",
"] 	c #7A635F",
"^ 	c #836B66",
"/ 	c #635553",
"( 	c #866F6D",
"_ 	c #180C0B",
": 	c #5A4948",
"< 	c #655250",
"[ 	c #65514E",
"} 	c #62514F",
"| 	c #655955",
"1 	c #92837D",
"2 	c #4A3837",
"3 	c #584442",
"4 	c #3C2C2B",
"5 	c #2C2120",
"6 	c #0C0000",
"7 	c #41302F",
"8 	c #66504E",
"9 	c #464141",
"0 	c #685C59",
"a 	c #87716A",
"b 	c #998E85",
"c 	c #4B3938",
"d 	c #302120",
"e 	c #574847",
"f 	c #8B766F",
"g 	c #7E5F5A",
"h 	c #5D4947",
"i 	c #6A5451",
"j 	c #6B5754",
"k 	c #6E5855",
"l 	c #634F4C",
"m 	c #5C4846",
"n 	c #0A0404",
"o 	c #020000",
"p 	c #0D0101",
"q 	c #3F2F2E",
"r 	c #856C68",
"s 	c #8D7570",
"t 	c #251310",
"u 	c #7A615E",
"v 	c #78615D",
"w 	c #806964",
"x 	c #8A716E",
"y 	c #7E6562",
"z 	c #78605D",
"A 	c #644F4C",
"B 	c #4D3B39",
"C 	c #110504",
"D 	c #100807",
"E 	c #000000",
"F 	c #342524",
"G 	c #574442",
"H 	c #89706C",
"I 	c #89716E",
"J 	c #836D6B",
"K 	c #856F6C",
"L 	c #917976",
"M 	c #8E7471",
"N 	c #7D6661",
"O 	c #745A55",
"P 	c #7E625D",
"Q 	c #7F6460",
"R 	c #7E635F",
"S 	c #7D6460",
"T 	c #7F6662",
"U 	c #665452",
"V 	c #645453",
"W 	c #503E3D",
"X 	c #5D4B4B",
"Y 	c #392928",
"Z 	c #170E0E",
"` 	c #302222",
" .	c #392B2B",
"..	c #5A4B4B",
"+.	c #373031",
"@.	c #635050",
"#.	c #7D6664",
"$.	c #6C5855",
"%.	c #0F0402",
"&.	c #705B56",
"*.	c #7E6662",
"=.	c #856D68",
"-.	c #866F69",
";.	c #775F5C",
">.	c #634945",
",.	c #402C29",
"'.	c #544C4B",
").	c #333131",
"!.	c #493A39",
"~.	c #4D3C3C",
"{.	c #312221",
"].	c #16100F",
"^.	c #2E2324",
"/.	c #362F2F",
"(.	c #3A3333",
"_.	c #322B2B",
":.	c #211C1B",
"<.	c #251817",
"[.	c #040303",
"}.	c #705E5D",
"|.	c #473C3B",
"1.	c #655553",
"2.	c #745D59",
"3.	c #826965",
"4.	c #533936",
"5.	c #1A0807",
"6.	c #3B3738",
"7.	c #665857",
"8.	c #483737",
"9.	c #433434",
"0.	c #221A1A",
"a.	c #070606",
"b.	c #0D0201",
"c.	c #070403",
"d.	c #3C3231",
"e.	c #231C1B",
"f.	c #3E2E2D",
"g.	c #6F5955",
"h.	c #816460",
"i.	c #775F5B",
"j.	c #362221",
"k.	c #280201",
"l.	c #160502",
"m.	c #211C1C",
"n.	c #534E50",
"o.	c #524342",
"p.	c #4C3C3B",
"q.	c #3C2D2C",
"r.	c #0B0605",
"s.	c #221615",
"t.	c #67524F",
"u.	c #271411",
"v.	c #290302",
"w.	c #351D1C",
"x.	c #79625E",
"y.	c #716D6D",
"z.	c #6A6363",
"A.	c #413231",
"B.	c #4B3B3A",
"C.	c #6A645D",
"D.	c #1B1919",
"E.	c #58413F",
"F.	c #210C0A",
"G.	c #837A7B",
"H.	c #736C6C",
"I.	c #715E5F",
"J.	c #3D2D2C",
"K.	c #160E0E",
"L.	c #706859",
"M.	c #181312",
"N.	c #302726",
"O.	c #444243",
"P.	c #2F2727",
"Q.	c #513F3D",
"R.	c #453534",
"S.	c #422B29",
"T.	c #382523",
"U.	c #120B0B",
"V.	c #010000",
"W.	c #89726C",
"X.	c #A08F90",
"Y.	c #8D7F80",
"Z.	c #786F70",
"`.	c #43302F",
" +	c #423231",
".+	c #271C1B",
"++	c #3B3839",
"@+	c #0B0000",
"#+	c #755F5B",
"$+	c #755D5A",
"%+	c #846B67",
"&+	c #866E69",
"*+	c #54413F",
"=+	c #3C1D1B",
"-+	c #BDA0A1",
";+	c #98898A",
">+	c #736F6F",
",+	c #483635",
"'+	c #574341",
")+	c #0D0505",
"!+	c #392F2F",
"~+	c #4E4A4C",
"{+	c #4E4343",
"]+	c #331715",
"^+	c #503D3B",
"/+	c #332624",
"(+	c #836B65",
"_+	c #866D6B",
":+	c #180B0B",
"<+	c #1C0C0B",
"[+	c #B89DA0",
"}+	c #A79496",
"|+	c #573F40",
"1+	c #180704",
"2+	c #231716",
"3+	c #190F0E",
"4+	c #605C5C",
"5+	c #595557",
"6+	c #210E0C",
"7+	c #463534",
"8+	c #79615D",
"9+	c #816864",
"0+	c #7E6561",
"a+	c #22100D",
"b+	c #160807",
"c+	c #A99697",
"d+	c #745551",
"e+	c #0A0808",
"f+	c #261F1E",
"g+	c #181211",
"h+	c #2C2929",
"i+	c #0E0908",
"j+	c #231817",
"k+	c #826864",
"l+	c #7A615D",
"m+	c #7B625E",
"n+	c #806663",
"o+	c #1C1B1B",
"p+	c #A49192",
"q+	c #3B1010",
"r+	c #1E0000",
"s+	c #512D27",
"t+	c #333132",
"u+	c #030202",
"v+	c #322C2C",
"w+	c #352C2C",
"x+	c #745C59",
"y+	c #866E68",
"z+	c #654E4C",
"A+	c #6C5450",
"B+	c #65504D",
"C+	c #4E3F3D",
"D+	c #6C6466",
"E+	c #B09A9B",
"F+	c #4C0000",
"G+	c #1B0000",
"H+	c #010101",
"I+	c #1F1D1D",
"J+	c #151212",
"K+	c #111010",
"L+	c #322F2F",
"M+	c #574E4C",
"N+	c #140000",
"O+	c #020101",
"P+	c #1A0E0D",
"Q+	c #322828",
"R+	c #302727",
"S+	c #2B1210",
"T+	c #121111",
"U+	c #2E2D2D",
"V+	c #776D6E",
"W+	c #600000",
"X+	c #8E6D6F",
"Y+	c #645052",
"Z+	c #716869",
"`+	c #6D6466",
" @	c #6C6566",
".@	c #666162",
"+@	c #6A6465",
"@@	c #070607",
"#@	c #615E5E",
"$@	c #181616",
"%@	c #211413",
"&@	c #1A0B09",
"*@	c #1F1312",
"=@	c #7E6762",
"-@	c #6C5653",
";@	c #513E3D",
">@	c #321A16",
",@	c #242223",
"'@	c #1F1E1E",
")@	c #181717",
"!@	c #272626",
"~@	c #464445",
"{@	c #2E0000",
"]@	c #6F5A5C",
"^@	c #706668",
"/@	c #807374",
"(@	c #807273",
"_@	c #887A7B",
":@	c #6D6465",
"<@	c #504E4F",
"[@	c #545051",
"}@	c #1F1615",
"|@	c #2B1E1D",
"1@	c #211210",
"2@	c #261918",
"3@	c #6B5653",
"4@	c #695F5E",
"5@	c #5E4E4C",
"6@	c #6E5B58",
"7@	c #424041",
"8@	c #0F0E0E",
"9@	c #0B0A0A",
"0@	c #333030",
"a@	c #7A6F71",
"b@	c #63595B",
"c@	c #766B6C",
"d@	c #726769",
"e@	c #796B6D",
"f@	c #817374",
"g@	c #746A6A",
"h@	c #575254",
"i@	c #392D2C",
"j@	c #2B1D1C",
"k@	c #211211",
"l@	c #1C0D0B",
"m@	c #1E1513",
"n@	c #504746",
"o@	c #736362",
"p@	c #564847",
"q@	c #765F5B",
"r@	c #7D6562",
"s@	c #685A5A",
"t@	c #171212",
"u@	c #2E2525",
"v@	c #211A1A",
"w@	c #0A0A0A",
"x@	c #695E60",
"y@	c #6A6062",
"z@	c #766B6D",
"A@	c #756B6C",
"B@	c #766C6D",
"C@	c #7D7173",
"D@	c #6F6566",
"E@	c #665D5E",
"F@	c #271C1C",
"G@	c #241817",
"H@	c #211110",
"I@	c #1A0A08",
"J@	c #42231E",
"K@	c #464041",
"L@	c #2A2220",
"M@	c #4B4241",
"N@	c #352A28",
"O@	c #856B67",
"P@	c #1E100F",
"Q@	c #100000",
"R@	c #060506",
"S@	c #655B5C",
"T@	c #6E6667",
"U@	c #756A6C",
"V@	c #484041",
"W@	c #605759",
"X@	c #837677",
"Y@	c #736869",
"Z@	c #74696B",
"`@	c #382E2E",
" #	c #281B1A",
".#	c #190907",
"+#	c #423E3F",
"@#	c #261F1F",
"##	c #1B1717",
"$#	c #312222",
"%#	c #715957",
"&#	c #735A57",
"*#	c #3D302F",
"=#	c #270100",
"-#	c #040404",
";#	c #5C5355",
">#	c #6C6163",
",#	c #4C4747",
"'#	c #6E6465",
")#	c #74696A",
"!#	c #312625",
"~#	c #1D0F0D",
"{#	c #1F0D0A",
"]#	c #1A1616",
"^#	c #242424",
"/#	c #171616",
"(#	c #191313",
"_#	c #584744",
":#	c #473937",
"<#	c #050000",
"[#	c #7B0600",
"}#	c #230000",
"|#	c #290000",
"1#	c #060000",
"2#	c #1F0000",
"3#	c #715858",
"4#	c #4D4446",
"5#	c #756D6F",
"6#	c #5E5759",
"7#	c #766A6C",
"8#	c #251413",
"9#	c #070605",
"0#	c #090807",
"a#	c #0E0301",
"b#	c #5B0000",
"c#	c #1A0000",
"d#	c #390000",
"e#	c #120F0D",
"f#	c #332929",
"g#	c #4A2B27",
"h#	c #3A2F30",
"i#	c #595152",
"j#	c #312423",
"k#	c #2A1D1C",
"l#	c #382826",
"m#	c #52221B",
"n#	c #3E0000",
"o#	c #340000",
"p#	c #533C3D",
"q#	c #5F3732",
"r#	c #3F0000",
"s#	c #762B1E",
"t#	c #292525",
"u#	c #2A1C1B",
"v#	c #170A09",
"w#	c #050100",
"x#	c #23110D",
"y#	c #76302A",
"z#	c #6D2622",
"A#	c #81281A",
"B#	c #851E11",
"C#	c #140808",
"D#	c #191010",
"E#	c #030000",
"F#	c #080201",
"G#	c #391310",
"H#	c #120000",
"I#	c #201615",
"J#	c #271312",
"K#	c #421B17",
"L#	c #322524",
"M#	c #171312",
"N#	c #100C0B",
"O#	c #1A0100",
"P#	c #170807",
"Q#	c #0B0201",
"R#	c #594543",
"S#	c #685350",
"T#	c #382827",
"U#	c #371B19",
"V#	c #53413E",
"W#	c #685451",
"X#	c #2D2322",
"Y#	c #131010",
"Z#	c #765E5B",
"`#	c #502E2A",
" $	c #6D5855",
".$	c #5F4C4A",
"+$	c #1D1313",
"@$	c #373131",
"#$	c #674841",
"$$	c #42231F",
"%$	c #6B4743",
"&$	c #6D504C",
"*$	c #270F0D",
"=$	c #090101",
"-$	c #745F5B",
";$	c #6D5854",
">$	c #5E4A47",
",$	c #080000",
"'$	c #120F0E",
")$	c #160F0F",
"!$	c #232222",
"~$	c #281A19",
"{$	c #140202",
"]$	c #473534",
"^$	c #191616",
"/$	c #383535",
"($	c #594C4C",
"_$	c #373333",
":$	c #2B2929",
"<$	c #535050",
"[$	c #5B5859",
"}$	c #766F70",
"|$	c #322728",
"1$	c #635F5F",
"2$	c #1B1111",
"3$	c #524F4F",
"4$	c #4A4646",
"5$	c #484343",
"6$	c #4F4C4C",
"7$	c #524E50",
"8$	c #4B4748",
"9$	c #0C0A09",
"0$	c #585556",
"a$	c #222020",
"b$	c #585455",
"c$	c #484647",
"d$	c #271716",
"e$	c #706A6B",
"f$	c #615D5E",
"g$	c #837879",
"h$	c #797172",
"i$	c #646061",
"j$	c #64261D",
"k$	c #9C8C8F",
"l$	c #2B2121",
"m$	c #908485",
"n$	c #827778",
"o$	c #090201",
"p$	c #524F50",
"q$	c #4D4343",
"r$	c #1C1616",
"s$	c #685858",
"t$	c #6B0000",
"u$	c #040000",
"v$	c #605C5D",
"w$	c #544344",
"x$	c #736B6C",
"y$	c #8C8081",
"z$	c #3D393A",
"A$	c #282626",
"B$	c #272425",
"C$	c #726B6C",
"D$	c #736768",
"E$	c #7A7172",
"F$	c #2A2727",
"G$	c #484546",
"H$	c #292626",
"I$	c #555151",
"J$	c #575455",
"K$	c #343232",
"L$	c #131313",
"M$	c #645556",
"N$	c #615C5C",
"O$	c #393637",
"P$	c #595657",
"Q$	c #604C4C",
"R$	c #363333",
"S$	c #0E0D0D",
"T$	c #474344",
"U$	c #867A7D",
"V$	c #3F1A1A",
"W$	c #464343",
"X$	c #282424",
"Y$	c #846062",
"Z$	c #877C7D",
"`$	c #938587",
" %	c #9A888A",
".%	c #C7A7AA",
"+%	c #A39092",
"@%	c #83797A",
"#%	c #3D3A3A",
"$%	c #E7B5B8",
"%%	c #7F7576",
"&%	c #7A7273",
"*%	c #9A594F",
"=%	c #454142",
"-%	c #4C4949",
";%	c #6D6768",
">%	c #464242",
",%	c #97898A",
"'%	c #A99596",
")%	c #343031",
"!%	c #5C595A",
"~%	c #D6A9B4",
"{%	c #B3787A",
"]%	c #776F70",
"^%	c #766E6F",
"/%	c #544E4F",
"(%	c #463838",
"_%	c #92696A",
":%	c #605253",
"<%	c #D4ACAE",
"[%	c #370000",
"}%	c #B89EA1",
"|%	c #C2A4A7",
"1%	c #8C7F81",
"2%	c #A89394",
"3%	c #B59D9E",
"4%	c #8C7F80",
"5%	c #625B5D",
"6%	c #7B7172",
"7%	c #2B2525",
"8%	c #5E5B5C",
"9%	c #272525",
"0%	c #2F2C2C",
"a%	c #3C3A3B",
"b%	c #18110F",
"c%	c #140908",
"d%	c #040100",
"e%	c #100A09",
"f%	c #181212",
"g%	c #2C2221",
"h%	c #1A0908",
"i%	c #272120",
"j%	c #372927",
"k%	c #1C1615",
"l%	c #806B69",
"m%	c #090504",
"n%	c #0A0707",
"o%	c #372D2C",
"p%	c #4E403F",
"q%	c #7B6664",
"r%	c #140E0D",
"s%	c #1C1514",
"t%	c #282120",
"u%	c #4A3A39",
"v%	c #6F5A58",
"w%	c #080606",
"x%	c #4E3F3E",
"y%	c #776361",
"z%	c #715A57",
"A%	c #1F1918",
"B%	c #281E1D",
"C%	c #1D100F",
"D%	c #302322",
"E%	c #574846",
"F%	c #6A5552",
"G%	c #040202",
"                                                  . + @ # $ %               ",
"                                                & * = - ; > , '             ",
"                                              ) ! ~ { ] ^ / , (             ",
"                                            _ : < [ [ > } , | 1 (           ",
"                                    2 3 4 5 6 7 2 8 $ $ 9 0 a b (           ",
"                              c [ [ 2 d e 6 2 2 3 2 d a $ f a g f >         ",
"                      h [ i j k l m _ n o p 6 q 2 q 3 $ 3 % > r s           ",
"              t m ] u v w x y z A B C D E E 6 F 4 G 3 H I J K L M           ",
"          E N O P Q R S T U V W X Y o E E o Z `  ...+.@.#.$.[ $             ",
"        E %.&.*.=.-.;.>.,.'.).!.~.{.].^./.(._.:.<.[.E $ }.|.1.}.            ",
"        E {.2.3.r $ 4.5.E $ 6.7.q 8.9.0.a.E E E E b.E c.d.e.e.d.            ",
"        E f.g.h.i.j.k.6 l.[ m.n.o.p.q.E r.E E E E E o E E E                 ",
"        E s.t.$ u.v.w.2 % > x.y.z.A.B.E E E C.E E E E D.[                   ",
"        E _ 3 E.F.[ E D s.g > G.H.I.J.K.E E E L.E M.N.O.[                   ",
"      E P.Q.R.S.T.U.V.E E > W.X.Y.Z.`. +E E E E E N..+++@+a                 ",
"      o #+$+%+&+*+d K.E E =+[ -+;+>+,+'+)+E !+e e o s.~+{+]+^+              ",
"    E /+* (+&+_+d :+E E E <+F.[+}+|+E 1+2+N.3+|.d.b._ 4+5+6+7+              ",
"    e.< 8+9+0+y a+b+E E E E o c+d+E E 6 E e+f+|.s.g+_ 5+h+i+j+              ",
"  r.2 v k+l+m+n+$ E E E E E o+p+q+@+E r+E E E E o s+t+E u+v+w+              ",
"  b.2 x+y+z+A+B+C+E E E E E D+E+F+G+H+I+J+K+E L+M+N+E O+P+Q+R+              ",
"  F.S+d E E S+l.E E E T+U+++V+E+W+F+X+Y+Z+`+ @.@+@@@#@$@%@&@*@              ",
"g+=@-@;@>@E ,@++U+'@)@U+!@)@~@Z.{@r+{@]@^@/@(@_@:@<@[@}@|@1@2@              ",
"E m 3@4@5@!.6@7@)@)@8@++9@)@U+0@E E @+a@b@c@d@e@f@g@h@i@j@k@l@              ",
"m@n@o@p@T q@r@s@++U+U+t@E E u@v@E E w@x@y@z@A@B@C@D@E@F@G@H@I@              ",
"J@K@L@M@N@q@$ O@P@t@E Q@r+E E E @+N+R@S@T@U@V@W@X@Y@Z@`@s. #.#              ",
"J@+#@###E $#%#&#*#=#E Q@{@E E E V.r+-#;#z@>#E E ,#'#)#!#s.~#{#              ",
"  0@]#E ^#/#(#_#:#<#[#}#|#V.Q@1#2#}#3#T@4#5#E E E 6#7#& G@8#6               ",
"        r.E E 9#0#a#b#|#}#r+r+c#d#{@e#0@f#[.E g#Q@h#i#j#k#l#l._             ",
"            E E E E m#n#r+@+Q@o#n#{@p#+#q#r#s#F+Q@0@t#j#u#v#w#6             ",
"              E E V.r+E E E E x#r+s#y#z#A#B#V.{@V.+#E C#D#H+E E#            ",
"                m@V.Q@E E E o l.E F#a#S+G#H#@+E   +#E E l.s.I#E H#          ",
"                E E r.E E o E l.H#a#F#E J#K#l.F.@+)@  E E <#L#E @+          ",
"                _ 4 d M.M#N#o m.E o E o E E <+O#E E o E E P#Q#l.S+E         ",
"              N.s.4 R#S#_#g+E )@T#U#E E E E E E E H#F.    F.l.F#F.E         ",
"              2 s.d V#[ W#X#V.Y#Z#`#V.E E E E E   E E     E l.E l.E         ",
"            % y+3 T#d  $.$+$o @$#$$$%$&$V.E E o E           <#F#l.*$        ",
"            E =$% -$;$>$[ _ _ d e.s.[ [ ,$'$0#)$4           6 l.6 l.        ",
"          !$E E o s.[ 3 4 l.~$_ d _ o 2 E {$2 4 ]$%         E E <#E         ",
"          U+E E ~+~+~+<#E E E E E ^$++/$E E I#l.($_$~+        E E E E       ",
"        +#+#E :$<$[$}$|$E E E E E ++!$++++++E E E 1$1$          o E 2$      ",
"        +#+#E 0@[$[$3$4$E E V.V.5$6$6$+@+@O.E E E 7$5+          E E d.E     ",
"        +#8$E 9$<$[$0$6$a$E E 6$[$[$[$+@b$[$V.E E 5+c$          E l.d$6     ",
"        +#8$E E 0@0@+@}$[$V.Q@0@+@e$f$g$h$i$j$b#F+k$}$          E w#l.l.    ",
"        +#+#l$V.e#6$[$k$[$|$l$E +#}$}$m$n$h$j$n#s+g$+@            E o$l.    ",
"        +#p$[$q$E r$[$}$g$m$m$g$Q@s$}$g$g$g$b#t$m$}$[$            F.E F.u$  ",
"        0@0@<$[$E E +#+#+#v$+@+@}$w$}$g$g$x${@3#y$g$+@            E E H#E   ",
"          0@+#z$A$E B$+#8$+@C$m$k$k$}$D$g$3#{@g$g$E$+@            E E H#E   ",
"            ]#F$6$A$K+G$[$+@}$m$g$g$H$}$e#E 6$6$6$+@I$            E E a#F.  ",
"              ]#+#J$K$L$[$<$<$[$x$g$M$w$V.Q@g$g$g$N$6$              E E 4 E ",
"                +#8$6$E O$P$[$[$+@g$g$Q$v@E +#[$J$6$0$              E E 4   ",
"                R$+#+#9$S$T$[$U$k$k$E+V$Q$r+5$6$6$W$+#              E E d   ",
"                ]#+#X$5$m@+@+@6$+@g$E+Y$+@r+g$m$Z$}$+@              E E F.  ",
"                  +#E 6$E }$`$g$}$ %.%+%+@{@}$@%y$}$+#              E E F.  ",
"                  0@E 6$#%+@g$y$k$.%$%.%Q$Q$%%&%[$6$6$              *%l.    ",
"                    E =%-%l$}$}$}$+@Z$m$n#w$m$m$g$;%[$                      ",
"                      /$+#E >%[$6$[$,%'%m#5$Z$m$Z$[$+#                      ",
"                      ]#)%E E +#!%+@E+~%{%[$[$]%m$^%[$                      ",
"                        ]#K$E [$+@v$}$.%E+Y$m$g$Z$m$+@                      ",
"                        ]#+@/%(%6$i$}$.%k$_%E+E+E+m$+@                      ",
"                          +@+@E +@}$}$.%m$m$.%.%E+k$                        ",
"                        0@+@@%V.w$}$:%_%{@k$k$E+<%k$                        ",
"                        6$+#k$V.|$(%Q@[%r+k$}%.%|%E+                        ",
"                        g$1%k$E E E 1#Q@5$g$2%.%3%4%                        ",
"                      6$6$k$5%E E E E E [$6%g$m$}$+#                        ",
"                      5$+#5+7%E E E E E ;%8%6%+@6$+#                        ",
"                      E 9$++U+E E ,$<#E 5$<$[$E E A$                        ",
"                      E E 1$~+E V.6 6 E +#+@9$E E E                         ",
"                      E E 9%t+E o 6 6 E 0%a%E E                             ",
"                      b%E E E o =$_ _ o E E E                               ",
"                      m@E E o o b.c%*@E E E E                               ",
"                      m@E E g+d%b.b.s.E E E E                               ",
"                      m@E V.o b.e%o c.E E                                   ",
"                        r.o f%s.o o E E                                     ",
"                        E g+N._ E b.E E                                     ",
"                        r.g+e.l.E <#E                                       ",
"                        E g+d.6 E 6                                         ",
"                        r.b.c%|.3 }.                                        ",
"                        E g%b.E _ 1.                                        ",
"                      E N#_ d E E#<#l.                                      ",
"                      o r.d.N.E E E h%                                      ",
"                      o e.d.e E <+i%E                                       ",
"                    j%E k%C+}.s.3 l%l%d                                     ",
"                    x#m%n%e.o%p%}.2 1.q%3                                   ",
"                    x#r%r.s%t%d.N.4 u%1.v%2                                 ",
"                      E E E w%g+_ _ j@x%1.y%z%W#                            ",
"                      E O+m%r%A%N.B%C%d D%E%F%z%3                           ",
"                      j%r.r.r.G%E E E E c%s.[ e [ l%2 3                     ",
"                              r.r.r.r.r.r.E                                 "};
