/* XPM */
static char * ZPAIB1_xpm[] = {
"38 91 622 2",
"  	c None",
". 	c #745D5A",
"+ 	c #846B66",
"@ 	c #735C59",
"# 	c #574342",
"$ 	c #403433",
"% 	c #302726",
"& 	c #705A56",
"* 	c #866E68",
"= 	c #655955",
"- 	c #292D2F",
"; 	c #695451",
"> 	c #564544",
", 	c #473C3B",
"' 	c #8B766F",
") 	c #474343",
"! 	c #71615C",
"~ 	c #685350",
"{ 	c #604B49",
"] 	c #3E3332",
"^ 	c #644E4C",
"/ 	c #846A65",
"( 	c #55423F",
"_ 	c #846A66",
": 	c #7E5F5A",
"< 	c #171111",
"[ 	c #4E3C3B",
"} 	c #4A3837",
"| 	c #181211",
"1 	c #3B2B28",
"2 	c #372221",
"3 	c #7C635B",
"4 	c #3F302F",
"5 	c #342827",
"6 	c #5A4845",
"7 	c #271715",
"8 	c #2B1D1C",
"9 	c #1B0F0D",
"0 	c #1E1111",
"a 	c #2C201E",
"b 	c #221615",
"c 	c #34201F",
"d 	c #58423F",
"e 	c #0B0605",
"f 	c #382928",
"g 	c #221515",
"h 	c #261A18",
"i 	c #70554E",
"j 	c #6B5148",
"k 	c #7A5E5A",
"l 	c #201312",
"m 	c #3D2E2D",
"n 	c #5A4744",
"o 	c #210C0A",
"p 	c #201615",
"q 	c #000000",
"r 	c #65514E",
"s 	c #392B2A",
"t 	c #4F3D3B",
"u 	c #160502",
"v 	c #302120",
"w 	c #020000",
"x 	c #A1996B",
"y 	c #5E5952",
"z 	c #1E0000",
"A 	c #342726",
"B 	c #554140",
"C 	c #3C2C2B",
"D 	c #291A19",
"E 	c #080606",
"F 	c #604C4A",
"G 	c #0C0000",
"H 	c #39362C",
"I 	c #4D493F",
"J 	c #4D2C29",
"K 	c #715B56",
"L 	c #302221",
"M 	c #231C1B",
"N 	c #4C2B25",
"O 	c #584543",
"P 	c #4F3C3B",
"Q 	c #322322",
"R 	c #231616",
"S 	c #6B5F5F",
"T 	c #854D47",
"U 	c #2D211E",
"V 	c #070000",
"W 	c #70534D",
"X 	c #71574E",
"Y 	c #604542",
"Z 	c #6C5553",
"` 	c #7B6360",
" .	c #6F5855",
"..	c #725D59",
"+.	c #766362",
"@.	c #928282",
"#.	c #635150",
"$.	c #5C4846",
"%.	c #5F4C49",
"&.	c #7F6562",
"*.	c #61514F",
"=.	c #584442",
"-.	c #150C0B",
";.	c #87716A",
">.	c #8E7A79",
",.	c #857571",
"'.	c #806A67",
").	c #7B6361",
"!.	c #65504C",
"~.	c #2C2321",
"{.	c #46332F",
"].	c #735F5A",
"^.	c #85706A",
"/.	c #856B67",
"(.	c #160E0E",
"_.	c #7C6763",
":.	c #8F7C7A",
"<.	c #806E6B",
"[.	c #866D68",
"}.	c #816863",
"|.	c #634E4C",
"1.	c #1F1212",
"2.	c #1B0E0D",
"3.	c #68524D",
"4.	c #7F6A64",
"5.	c #8A746D",
"6.	c #473A39",
"7.	c #090101",
"8.	c #070403",
"9.	c #0D0201",
"0.	c #180C0B",
"a.	c #7D6968",
"b.	c #856E69",
"c.	c #856C67",
"d.	c #79615D",
"e.	c #5B4544",
"f.	c #604C49",
"g.	c #1B1514",
"h.	c #654A45",
"i.	c #65514C",
"j.	c #6F5A56",
"k.	c #342927",
"l.	c #453735",
"m.	c #372827",
"n.	c #190D0C",
"o.	c #080404",
"p.	c #1E1312",
"q.	c #200C0A",
"r.	c #716A6B",
"s.	c #806B67",
"t.	c #785F5A",
"u.	c #5D4846",
"v.	c #5F4947",
"w.	c #443432",
"x.	c #745E59",
"y.	c #6E5955",
"z.	c #575050",
"A.	c #312525",
"B.	c #3A2E2B",
"C.	c #403231",
"D.	c #201413",
"E.	c #170C0B",
"F.	c #3F312F",
"G.	c #695552",
"H.	c #433939",
"I.	c #726B6B",
"J.	c #7F6863",
"K.	c #715856",
"L.	c #6A5351",
"M.	c #543E3C",
"N.	c #402423",
"O.	c #5E4B48",
"P.	c #624F4B",
"Q.	c #615E5E",
"R.	c #4B3F3B",
"S.	c #443634",
"T.	c #392C2C",
"U.	c #3E2F2E",
"V.	c #463735",
"W.	c #463635",
"X.	c #655757",
"Y.	c #5D3E3A",
"Z.	c #624A47",
"`.	c #624542",
" +	c #482C29",
".+	c #261716",
"++	c #080000",
"@+	c #675451",
"#+	c #0E0909",
"$+	c #5B5857",
"%+	c #433836",
"&+	c #594643",
"*+	c #564341",
"=+	c #171110",
"-+	c #1E0E0B",
";+	c #361612",
">+	c #6B0000",
",+	c #444243",
"'+	c #2B1210",
")+	c #230E0C",
"!+	c #0D0A0A",
"~+	c #060404",
"{+	c #1D1716",
"]+	c #4D3B3A",
"^+	c #423230",
"/+	c #846F68",
"(+	c #4F3E3C",
"_+	c #514746",
":+	c #463B3A",
"<+	c #52221B",
"[+	c #010000",
"}+	c #1C0C09",
"|+	c #3E0000",
"1+	c #450B0B",
"2+	c #7F7677",
"3+	c #544344",
"4+	c #100000",
"5+	c #1E1817",
"6+	c #4E3C3A",
"7+	c #88726B",
"8+	c #3C3231",
"9+	c #563E3A",
"0+	c #614849",
"a+	c #84797A",
"b+	c #837879",
"c+	c #484343",
"d+	c #23110D",
"e+	c #1B0B0B",
"f+	c #8A3121",
"g+	c #522020",
"h+	c #947374",
"i+	c #A48F90",
"j+	c #766060",
"k+	c #5B3029",
"l+	c #7D463C",
"m+	c #8A544C",
"n+	c #0F0D0C",
"o+	c #53413E",
"p+	c #2E211F",
"q+	c #89716B",
"r+	c #7B6762",
"s+	c #3D3332",
"t+	c #543B3A",
"u+	c #A38D8E",
"v+	c #926E6F",
"w+	c #9B8C8D",
"x+	c #A79495",
"y+	c #686465",
"z+	c #A29192",
"A+	c #400A0A",
"B+	c #B38791",
"C+	c #641818",
"D+	c #A28788",
"E+	c #9B8B8C",
"F+	c #97888A",
"G+	c #827374",
"H+	c #030303",
"I+	c #0B0000",
"J+	c #574442",
"K+	c #7B6662",
"L+	c #725F5E",
"M+	c #97888B",
"N+	c #926D6E",
"O+	c #9D8C8D",
"P+	c #988A8B",
"Q+	c #938688",
"R+	c #A28D91",
"S+	c #6F5150",
"T+	c #9A7E80",
"U+	c #6D0606",
"V+	c #9E8485",
"W+	c #908485",
"X+	c #938587",
"Y+	c #060000",
"Z+	c #040000",
"`+	c #4B3938",
" @	c #493936",
".@	c #6D5854",
"+@	c #75605B",
"@@	c #78615D",
"#@	c #433432",
"$@	c #545050",
"%@	c #957779",
"&@	c #A48F91",
"*@	c #99898A",
"=@	c #9F8D8E",
"-@	c #7C6A6A",
";@	c #653939",
">@	c #4C0000",
",@	c #754C47",
"'@	c #8E8283",
")@	c #897E7F",
"!@	c #887E7F",
"~@	c #867C7D",
"{@	c #958788",
"]@	c #261A1A",
"^@	c #0D0000",
"/@	c #352828",
"(@	c #5D4947",
"_@	c #321A19",
":@	c #553F3A",
"<@	c #4F3937",
"[@	c #463535",
"}@	c #0A0201",
"|@	c #8F8384",
"1@	c #98898B",
"2@	c #696161",
"3@	c #706667",
"4@	c #897D7E",
"5@	c #918586",
"6@	c #7B6B6B",
"7@	c #3A1717",
"8@	c #2E0000",
"9@	c #390000",
"0@	c #494546",
"a@	c #72696A",
"b@	c #343131",
"c@	c #423E3F",
"d@	c #6A6465",
"e@	c #362A2B",
"f@	c #654E4E",
"g@	c #331715",
"h@	c #2D1714",
"i@	c #3E2724",
"j@	c #443333",
"k@	c #493B39",
"l@	c #342626",
"m@	c #817778",
"n@	c #584E4E",
"o@	c #675C5C",
"p@	c #98898A",
"q@	c #8D7778",
"r@	c #3C1B1A",
"s@	c #766F70",
"t@	c #4C4849",
"u@	c #756D6E",
"v@	c #1B1717",
"w@	c #4F4C4C",
"x@	c #76696A",
"y@	c #AA9495",
"z@	c #211C1C",
"A@	c #3E2926",
"B@	c #413332",
"C@	c #52413F",
"D@	c #473937",
"E@	c #6B6363",
"F@	c #776F70",
"G@	c #433F40",
"H@	c #5A5454",
"I@	c #8B7F80",
"J@	c #534D4C",
"K@	c #684D4E",
"L@	c #0C0A09",
"M@	c #333030",
"N@	c #161313",
"O@	c #604C4C",
"P@	c #5B5859",
"Q@	c #9C8C8F",
"R@	c #070707",
"S@	c #504543",
"T@	c #595557",
"U@	c #3E302F",
"V@	c #413232",
"W@	c #241918",
"X@	c #443F3F",
"Y@	c #766E6F",
"Z@	c #807677",
"`@	c #7C7475",
" #	c #706061",
".#	c #3F3433",
"+#	c #1E1513",
"@#	c #290000",
"##	c #1E1E1E",
"$#	c #4E4847",
"%#	c #424041",
"&#	c #3B3839",
"*#	c #311C1C",
"=#	c #1C0A09",
"-#	c #82797A",
";#	c #4A4646",
">#	c #322D2C",
",#	c #998A8C",
"'#	c #4E4646",
")#	c #2E2525",
"!#	c #4C4949",
"~#	c #454142",
"{#	c #2E2D2D",
"]#	c #1C1B1B",
"^#	c #635F5F",
"/#	c #4A4648",
"(#	c #2B1E1D",
"_#	c #331C18",
":#	c #282523",
"<#	c #797172",
"[#	c #464242",
"}#	c #0B0A0A",
"|#	c #6B6566",
"1#	c #120E0D",
"2#	c #140000",
"3#	c #1B1A1A",
"4#	c #454242",
"5#	c #716D6D",
"6#	c #0A0000",
"7#	c #120000",
"8#	c #322728",
"9#	c #1B1414",
"0#	c #554D4D",
"a#	c #010101",
"b#	c #4E494A",
"c#	c #222020",
"d#	c #1F1B1B",
"e#	c #837A7B",
"f#	c #715D59",
"g#	c #270100",
"h#	c #050000",
"i#	c #512D27",
"j#	c #64261D",
"k#	c #241A1A",
"l#	c #1A1616",
"m#	c #3E3A3A",
"n#	c #260303",
"o#	c #756965",
"p#	c #62504C",
"q#	c #391310",
"r#	c #1C0C0B",
"s#	c #1D1515",
"t#	c #3C1817",
"u#	c #483A3A",
"v#	c #27201F",
"w#	c #5F4747",
"x#	c #240000",
"y#	c #4D403D",
"z#	c #6B5753",
"A#	c #463B38",
"B#	c #0E0301",
"C#	c #020101",
"D#	c #221919",
"E#	c #1C1615",
"F#	c #160F0F",
"G#	c #42201B",
"H#	c #361210",
"I#	c #534642",
"J#	c #635350",
"K#	c #332423",
"L#	c #1A0100",
"M#	c #030000",
"N#	c #28100E",
"O#	c #160807",
"P#	c #140E0C",
"Q#	c #473C38",
"R#	c #61524E",
"S#	c #362C2B",
"T#	c #100C0B",
"U#	c #171212",
"V#	c #331E1B",
"W#	c #65534F",
"X#	c #100807",
"Y#	c #2C1E1D",
"Z#	c #151010",
"`#	c #0F0A09",
" $	c #060100",
".$	c #2F211F",
"+$	c #120605",
"@$	c #493937",
"#$	c #341917",
"$$	c #3A302E",
"%$	c #0D0101",
"&$	c #1A0C0C",
"*$	c #523331",
"=$	c #64433F",
"-$	c #433231",
";$	c #311614",
">$	c #614D4B",
",$	c #070404",
"'$	c #574341",
")$	c #211514",
"!$	c #392928",
"~$	c #816864",
"{$	c #8C605B",
"]$	c #1E1110",
"^$	c #1A0D0C",
"/$	c #3A2D2B",
"($	c #070202",
"_$	c #211515",
":$	c #705E5D",
"<$	c #463938",
"[$	c #372E2E",
"}$	c #090404",
"|$	c #130908",
"1$	c #423636",
"2$	c #524441",
"3$	c #453D39",
"4$	c #1D1312",
"5$	c #C16F63",
"6$	c #42231E",
"7$	c #524543",
"8$	c #574847",
"9$	c #5F4C4A",
"0$	c #483B3A",
"a$	c #413733",
"b$	c #5D4C4A",
"c$	c #2B2121",
"d$	c #48403F",
"e$	c #393637",
"f$	c #B09A9B",
"g$	c #5B0000",
"h$	c #C7A7AA",
"i$	c #120F0D",
"j$	c #948788",
"k$	c #624743",
"l$	c #8D8182",
"m$	c #877C7D",
"n$	c #938687",
"o$	c #431C1C",
"p$	c #190000",
"q$	c #4C2722",
"r$	c #330000",
"s$	c #98898C",
"t$	c #9B8B8E",
"u$	c #7E6A6B",
"v$	c #83797A",
"w$	c #928485",
"x$	c #7E5757",
"y$	c #790000",
"z$	c #A18E8F",
"A$	c #A99597",
"B$	c #877D7E",
"C$	c #938586",
"D$	c #A39193",
"E$	c #8C7F81",
"F$	c #71423C",
"G$	c #846062",
"H$	c #221210",
"I$	c #050505",
"J$	c #585455",
"K$	c #6F6869",
"L$	c #5B4E4E",
"M$	c #3D393A",
"N$	c #2E2B2B",
"O$	c #151111",
"P$	c #171516",
"Q$	c #7F7576",
"R$	c #605253",
"S$	c #9A594F",
"T$	c #6D6465",
"U$	c #343031",
"V$	c #110E0E",
"W$	c #33130A",
"X$	c #413E3E",
"Y$	c #646061",
"Z$	c #090808",
"`$	c #413D3D",
" %	c #231F1F",
".%	c #5C5758",
"+%	c #4A4647",
"@%	c #0E0C0A",
"#%	c #504B4C",
"$%	c #3D3A3A",
"%%	c #575455",
"&%	c #726B6C",
"*%	c #6D6667",
"=%	c #564B4B",
"-%	c #D2ACAF",
";%	c #E7B5B8",
">%	c #383535",
",%	c #2A2727",
"'%	c #2F1613",
")%	c #DCB0B3",
"!%	c #C5A4A7",
"~%	c #A59295",
"{%	c #7A7273",
"]%	c #7E7475",
"^%	c #40393A",
"/%	c #372D2E",
"(%	c #918486",
"_%	c #7A7172",
":%	c #AB9598",
"<%	c #AE999A",
"[%	c #A08F92",
"}%	c #7B7273",
"|%	c #756C6E",
"1%	c #3F3233",
"2%	c #2A1516",
"3%	c #B89EA0",
"4%	c #C2A4A7",
"5%	c #3A3636",
"6%	c #1D1919",
"7%	c #706A6B",
"8%	c #5E5B5C",
"9%	c #736B6C",
"0%	c #817677",
"a%	c #111010",
"b%	c #242223",
"c%	c #2B2929",
"d%	c #0E0C0C",
"e%	c #0A0706",
"f%	c #1C1311",
"g%	c #22120E",
"h%	c #372927",
"i%	c #322523",
"j%	c #1C1312",
"k%	c #271E1B",
"l%	c #2E2220",
"m%	c #020202",
"n%	c #18110F",
"o%	c #1F1412",
"p%	c #59423E",
"q%	c #4A3734",
"r%	c #6B4D48",
"s%	c #3D2E2B",
"t%	c #3C1505",
"u%	c #463431",
"v%	c #3B2C2A",
"w%	c #1A0908",
"x%	c #0B0201",
"y%	c #2D1B18",
"z%	c #301513",
"A%	c #3E2D2C",
"B%	c #220C0A",
"C%	c #0C0504",
"D%	c #0C0404",
"E%	c #090504",
"                  . . + @ # $                                               ",
"              % & + * = - ; > ,                                             ",
"              , + ' ' ) ! ~ { ]                                             ",
"              ^ / ( _ + : < [ } |                                           ",
"            1 2 2 2 3 2 2 4 5 6 |                                           ",
"            7 8 9 0 5 a b c d } e                                           ",
"            f g h i j k l m n } o                                           ",
"            f p q o o o r s t u v                                           ",
"            w q x y x z q A B C                                             ",
"            q z q q q z D E F G |                                           ",
"            q z x H I z J K } L M w |                                       ",
"            N z q q q z z ^ O P Q R S                                       ",
"            T U V W X z Y Z `  ...+.@.#.$.%.&.*.                            ",
"            =.q q -.&.z ;.} =.K >.,.'.).!.~.{.].^./.                        ",
"              (.q q q z q v b _.:.<.[.}.|.1.2.3.4.5._                       ",
"              6.7.q 8.z } 9.0.a.:.b.c.d.e.f.C g.h.i.j.=.                    ",
"              k.l.m.n.o.w p.q.r.s._ t.u.v.n.0.o w.x.y.=.                    ",
"            z.A.B.C.D.E.F.G.H.I.J.K.L.M.N.q q q q O.P.C                     ",
"          Q.R.S.T.U.V.W.G q q X.Y.Z.`. +.+q q ++G 0 @+#+                    ",
"          $+%+&+t *+=+-+;+z >+,+'+)+o !+~+q {+]+b ^+/+_ |                   ",
"        (+_+:+=.q <+[+;+}+|+1+2+3+4+[+q q q 5+6+b C ' 7+8+                  ",
"        9+0+|+a+b+c+d+e+f+g+h+i+j+k+l+m+q q n+o+p+u q+r+s+|                 ",
"        t+u+v+w+x+y+z+A+B+C+D+E+F+G+H+4+I+q q J+O.* w.K+L+,                 ",
"        H.M+N+O+P+Q+R+S+T+U+V+Q+W+X+W+Y+4+Z+q `+ @.@v +@@@,                 ",
"      #@$@Q+%@&@*@=@X+-@;@>@,@'@)@!@~@{@]@^@[+/@(@v _@:@<@b                 ",
"      [@}@|@1@2@3@4@5@6@7@8@9@b+b+0@a@b+b@c@d@e@f@} g@h@i@C                 ",
"    j@k@l@m@W+n@o@p@|@q@r@z 8@s@d@c@t@u@v@c@w@x@y@z@'+g@A@}                 ",
"    B@C@D@E@F@G@H@)@I@J@K@4+q L@d@M@N@O@c+P@d@Q@d@R@q =.S@T@q               ",
"    U@V@W@X@Y@w@Z@`@`@ #.#[+q q +#q q @#z 3+d@c@c@q ##,+$#T@%#&#            ",
"    w.*#=#w@-#d+s@;#>#,#'#)#q q q q q z z 4+M@!#~#q {#]#$#^#&#/#            ",
"    (#G _#:#<#d+[#q }#|#1#~+z 2#q [+[+I+q q q 3#4#M@  }#$#5#0.r q           ",
"    6#7#|+8#d@O@q q 9#0#a#b#4+4+q 4+[+[+q q q q c#d#  q o e#} f#q           ",
"  b g#g#h#q ]#i#4+j#k#K@l#m#n#4+Y+[+[+q q q q q q q     o o#f.p#q           ",
"h#q o q#r#q w o V q s#t#u#v#w#4+4+x#8@6#q q q q q q     u y#z#A#u           ",
"q q I+h#q B#u C q q a#C#q D#E#q F#4+G#x#q q q q q q     h#H#I#J#K#          ",
"  q L#M#q h#u o N#h#h#o O#q q q q [+8@8@q q P#d+d++#    o g@Q#R#S#          ",
"    q q w u u o o h#h#q w 0.B#q T#| E U#T#q w w | q       o V#W#S#          ",
"      q q q q q q u q q ++X#w Y#w w Z#`#[+[+8+8+9. $      q .$J#+$          ",
"      q q q q q w q q q q w [+@$#$g@%.e [+[+, } 9.9.e       $$= %$          ",
"            q q q q q q ++&$*$=$-$;$>$,$q C I+'$)$!$~${$    ]$^$q           ",
"                /$q q q G ($u _$r :$<$[$}$w |$1$2$3$4$G#    g@v q           ",
"              5$T d+6$b h#q q b , 8+7$8$% 8$9$0$a$b$e +#    g#C q           ",
"            P@c+c+d@c$d+[+q X#G ,+d$8+C u q q q e$T@f$P@c+  g@C q           ",
"            c@Q@Q@3+z 8@g$X+b+Q@b+f$h$4+z z 4+G#X+b+d@c@i$  g#I+V q         ",
"            M@Q@j$4+4+4+k$a+l$W+m$Q@n$o$8@p$4+3+b+s@P@w@:#  q$h#o q         ",
"            M@s@s@g$r$[+b+W+s$s$W+Q@t$u$8@4+4+2+v$w$f$W+c$  q#u B#q         ",
"              d@W+x$g$y$z$b+Q@A$W+h$h$Q@6$|+|+B$C$f$D$P@z _#V q q q         ",
"            M@d@s@f$i#>@f$W+W+f$b+f$Q@E$F$z z d@f$f$Q@d@2#q q q G q         ",
"            M@P@s@b+X+g$G$W+W+f$W+W+Q@f$8#i$q P@w@w@c@H$I$c@O#q q q         ",
"            l#J$K$b+b+L$z b+m$W+b+W+s@s@W+s@q M$N$l#O$q c@P$} q q           ",
"            M@d@b+b+b+b+z 3+d@d@P@P@w@Q$s@R$q M@d#l#q q M@q S$q q           ",
"            M@d@d@s@P@d@4+4+w@l#q q c@T$s@3+[+P@w@U$l#l#V$q W$q q           ",
"          M@X$w@P@s@Y$w@c@q M@M@q q   c@w@8#q M@M@M@l#Z$q H$W$[+q           ",
"          M@w@w@P@s@s@d@d@4+`$M@q q   b+b+8#q M$M@M@ %q q j#G#d+            ",
"          M@.%+%c@~#w@w@M@q l#l#q     b+X+6$4+w@w@X$M@M@q @%4+q             ",
"          q #%d@+%!#w@w@[+4+$%V$q     c@W+i#z s@%%w@V$Z$:#q                 ",
"          M@l#&%d@d@*%s@z z w@q       c@d@<+8@d@P@w@Z$V$M@l#                ",
"          M@P@M@#%d@s@s@=%_#l#l#        w@4+4+h$Q@s@d@d@c$l#                ",
"          c@c@d@P@d@*%s@s@8#c@q         O@_#z -%;%h$b+s@w@i$                ",
"          c@>%d@s@b+b+b+P@+#,%l#          '%z )%!%~%b+s@w@i$                ",
"          l#%%w@w@b+b+{%w@8#l#I$          z r$Q@Q@Q@P@c@c+q                 ",
"          l#w@]%s$d@P@d@3+d+M@            [+8@;%;%;%b+d@P@+#                ",
"          l#w@s$j$s@b+b+3+c$l#            [+8@;%h$;%&%d@^%/%                ",
"            w@f$f$f$f$f$z c+                4+Q@Q@(%d@_%/%c+                ",
"            w@W+:%h$<%[%6$c+                [+}%Q@|%&%s@1%8#c@              ",
"            c@h$h$f$Q@j$2%c@                  c$b+d@b+P@c+[+c@              ",
"            c@3%h$4%f$W+5%6%                  c+z 4+|+q d+q 7%P@            ",
"            w@s@Z@Q@b+b+l#l#                  c+q 4+[+4+q q P@b+8%          ",
"            w@s@<#b+9%d@Z$l#                    q 4+q q q q [+K$0%          ",
"            c@q L@w@d@[#a%l#                    q q q q q q q b%d@          ",
"          c+c%q q l#P@M@M@l#                    q [+q q q +#q w@s@q         ",
"          3+q q q d%w@M$c#q                     q q q q ~++#e%q s@q         ",
"          4+q q q q q q q q                         q ~+f%d++#+#+#+#        ",
"          [+q q l#q q q q q c$                      +#+#g%d++#+#+#+#        ",
"          4+q q q q q q q q                         +#+#_#g%+#+#+#+#        ",
"            q q q q q q q q                           h%d++#+#+#+#+#        ",
"              q q q q q q q                             +#+#+#h%+#i%h%      ",
"              q q q q q q                               d+h%~+j%d+h%k%      ",
"              q q q q q d+                              +#l%q m%n%+#d+      ",
"                d+d++#n%q                                 +#q q q h%d+      ",
"                o%d++#g%                                    d+p%q%h%+#      ",
"                  d+d+d+                                    _#r%r%[+P#+#    ",
"                  s%q%h%                                    t%W$d+[+[+p%h%  ",
"                d+u%v%h%                                    q w q q q _#h%  ",
"                0.w Z+9.                                    w%q } q q 0.d+  ",
"                9.w x%9.q                                   + r b v C , M   ",
"                v q q w                                     . =.y%v b % q 8.",
"              '+C C u b 9.                                =.r =.=.C b [+q q ",
"              '+z%} g@g@r q                             . . _ =.A%0.0.q e C#",
"              B%'+G g@C%.                               } v } C C 0.D%q q E%",
"                                                    . 8+C 8+} =.v e q 8.e   "};
