/* XPM */
static char * ZPAIB2_xpm[] = {
"25 92 497 2",
"  	c None",
". 	c #745D5A",
"+ 	c #7B6460",
"@ 	c #564745",
"# 	c #5E4F4C",
"$ 	c #524443",
"% 	c #544543",
"& 	c #846B66",
"* 	c #846A66",
"= 	c #5F514F",
"- 	c #76615D",
"; 	c #776561",
"> 	c #765F5C",
", 	c #514342",
"' 	c #4C3E3D",
") 	c #423231",
"! 	c #856E66",
"~ 	c #806B69",
"{ 	c #473C3B",
"] 	c #574442",
"^ 	c #5B4C49",
"/ 	c #493E3D",
"( 	c #4A3E3D",
"_ 	c #423635",
": 	c #65514E",
"< 	c #171D22",
"[ 	c #21272B",
"} 	c #705855",
"| 	c #473331",
"1 	c #705E5D",
"2 	c #1D1615",
"3 	c #564744",
"4 	c #483D3C",
"5 	c #524240",
"6 	c #876F6A",
"7 	c #644D4A",
"8 	c #7B5B58",
"9 	c #735A58",
"0 	c #282E32",
"a 	c #836964",
"b 	c #4A3837",
"c 	c #332A29",
"d 	c #2E2726",
"e 	c #4F4240",
"f 	c #504241",
"g 	c #59423E",
"h 	c #634744",
"i 	c #372221",
"j 	c #321D1C",
"k 	c #331715",
"l 	c #372523",
"m 	c #3E3433",
"n 	c #261F1E",
"o 	c #4B3D3C",
"p 	c #4D4140",
"q 	c #534544",
"r 	c #0B0605",
"s 	c #362221",
"t 	c #180807",
"u 	c #120504",
"v 	c #2E1210",
"w 	c #210C0A",
"x 	c #54413E",
"y 	c #44312E",
"z 	c #282120",
"A 	c #2D2524",
"B 	c #352A29",
"C 	c #362B2A",
"D 	c #000000",
"E 	c #1A0A08",
"F 	c #331E1D",
"G 	c #29110F",
"H 	c #2B1210",
"I 	c #2E100D",
"J 	c #231C1B",
"K 	c #191312",
"L 	c #837E78",
"M 	c #070000",
"N 	c #4A2F2C",
"O 	c #584442",
"P 	c #311310",
"Q 	c #150402",
"R 	c #262120",
"S 	c #0C0A0A",
"T 	c #908E86",
"U 	c #382421",
"V 	c #3C1D1B",
"W 	c #392B2A",
"X 	c #251D1C",
"Y 	c #625251",
"Z 	c #181211",
"` 	c #4D3E3D",
" .	c #675552",
"..	c #4C403F",
"+.	c #63514E",
"@.	c #040000",
"#.	c #3E0000",
"$.	c #302120",
"%.	c #1F0F0C",
"&.	c #0C0000",
"*.	c #221615",
"=.	c #291D1C",
"-.	c #190D0C",
";.	c #62514F",
">.	c #574947",
",.	c #483A39",
"'.	c #74706A",
").	c #020000",
"!.	c #352625",
"~.	c #473534",
"{.	c #3C2C2B",
"].	c #53403E",
"^.	c #4E3C3B",
"/.	c #3B302E",
"(.	c #544643",
"_.	c #604F4E",
":.	c #594948",
"<.	c #4B403F",
"[.	c #50403F",
"}.	c #050000",
"|.	c #382827",
"1.	c #453332",
"2.	c #1C0F0F",
"3.	c #191313",
"4.	c #554140",
"5.	c #534442",
"6.	c #544644",
"7.	c #62514E",
"8.	c #7B645F",
"9.	c #5B4B49",
"0.	c #453A39",
"a.	c #40393A",
"b.	c #181717",
"c.	c #4D3B39",
"d.	c #160502",
"e.	c #7A6560",
"f.	c #856D68",
"g.	c #6B5754",
"h.	c #473B3A",
"i.	c #1D1818",
"j.	c #595557",
"k.	c #484343",
"l.	c #614D4A",
"m.	c #382423",
"n.	c #504341",
"o.	c #846C67",
"p.	c #816965",
"q.	c #1C1514",
"r.	c #180C0B",
"s.	c #373131",
"t.	c #9C8C8F",
"u.	c #392928",
"v.	c #231514",
"w.	c #0B0000",
"x.	c #3C2523",
"y.	c #7C6460",
"z.	c #4C403E",
"A.	c #170E0E",
"B.	c #302726",
"C.	c #333030",
"D.	c #3F2F2E",
"E.	c #866E68",
"F.	c #635F5F",
"G.	c #311F1C",
"H.	c #512C2B",
"I.	c #2B1917",
"J.	c #4D413F",
"K.	c #79635F",
"L.	c #6E514C",
"M.	c #423E3F",
"N.	c #1A1616",
"O.	c #4E4A4C",
"P.	c #8B766F",
"Q.	c #58332E",
"R.	c #221413",
"S.	c #413332",
"T.	c #705D5A",
"U.	c #856C67",
"V.	c #775E59",
"W.	c #241716",
"X.	c #3D1C18",
"Y.	c #403231",
"Z.	c #534341",
"`.	c #79625E",
" +	c #705956",
".+	c #5A4746",
"++	c #433635",
"@+	c #4F4C4C",
"#+	c #9A594F",
"$+	c #4C2722",
"%+	c #544240",
"&+	c #483B3A",
"*+	c #675551",
"=+	c #87746E",
"-+	c #86706A",
";+	c #685652",
">+	c #554745",
",+	c #343130",
"'+	c #513835",
")+	c #95878A",
"!+	c #040303",
"~+	c #2E2525",
"{+	c #6F5C58",
"]+	c #8D827C",
"^+	c #866F6A",
"/+	c #705B58",
"(+	c #554644",
"_+	c #070403",
":+	c #454242",
"<+	c #393636",
"[+	c #837879",
"}+	c #421F1F",
"|+	c #84797A",
"1+	c #402C29",
"2+	c #030000",
"3+	c #271816",
"4+	c #413433",
"5+	c #5E4C4A",
"6+	c #5C4B4A",
"7+	c #201A19",
"8+	c #522727",
"9+	c #83797A",
"0+	c #827879",
"a+	c #574644",
"b+	c #100C0B",
"c+	c #564746",
"d+	c #6C5956",
"e+	c #604E4B",
"f+	c #866E69",
"g+	c #6D5855",
"h+	c #3D3231",
"i+	c #413D3D",
"j+	c #5A2223",
"k+	c #7F7677",
"l+	c #7D7576",
"m+	c #7E7576",
"n+	c #1B1819",
"o+	c #1E0000",
"p+	c #8C605B",
"q+	c #23110D",
"r+	c #826B65",
"s+	c #624F4C",
"t+	c #856E68",
"u+	c #7B635F",
"v+	c #64504E",
"w+	c #3A3131",
"x+	c #503733",
"y+	c #7D7475",
"z+	c #7A7273",
"A+	c #787071",
"B+	c #2D2424",
"C+	c #42201B",
"D+	c #2E0000",
"E+	c #3B2623",
"F+	c #634845",
"G+	c #3C3231",
"H+	c #0E0C0A",
"I+	c #4C3F3F",
"J+	c #71696A",
"K+	c #776F70",
"L+	c #736C6D",
"M+	c #70696A",
"N+	c #6A6465",
"O+	c #8A7370",
"P+	c #5B5454",
"Q+	c #503632",
"R+	c #79615C",
"S+	c #5B5859",
"T+	c #625E5F",
"U+	c #5F5A5B",
"V+	c #4E494A",
"W+	c #756D6E",
"X+	c #6A6566",
"Y+	c #948586",
"Z+	c #8C8282",
"`+	c #55322D",
" @	c #77605C",
".@	c #7F625D",
"+@	c #090101",
"@@	c #191717",
"#@	c #544F50",
"$@	c #0E0D0D",
"%@	c #544344",
"&@	c #797273",
"*@	c #7C7475",
"=@	c #817778",
"-@	c #666162",
";@	c #2F1917",
">@	c #806964",
",@	c #76605C",
"'@	c #854D47",
")@	c #512D27",
"!@	c #120F0D",
"~@	c #150000",
"{@	c #190000",
"]@	c #706A6B",
"^@	c #797172",
"/@	c #7B7374",
"(@	c #463838",
"_@	c #806B66",
":@	c #7F6C6A",
"<@	c #836F6B",
"[@	c #856F6B",
"}@	c #1E1513",
"|@	c #0F0000",
"1@	c #4A4546",
"2@	c #857B7C",
"3@	c #84797B",
"4@	c #836C67",
"5@	c #86706C",
"6@	c #83716F",
"7@	c #7F6964",
"8@	c #140000",
"9@	c #595353",
"0@	c #877B7C",
"a@	c #8C736F",
"b@	c #7F635C",
"c@	c #9A6259",
"d@	c #87706B",
"e@	c #100000",
"f@	c #060000",
"g@	c #010101",
"h@	c #373434",
"i@	c #715858",
"j@	c #655958",
"k@	c #594944",
"l@	c #68514E",
"m@	c #644843",
"n@	c #64261D",
"o@	c #322728",
"p@	c #331C18",
"q@	c #504141",
"r@	c #664B44",
"s@	c #5A4542",
"t@	c #010000",
"u@	c #5C413E",
"v@	c #130303",
"w@	c #30211E",
"x@	c #8A564F",
"y@	c #3C1104",
"z@	c #762B1E",
"A@	c #71423C",
"B@	c #080000",
"C@	c #25130F",
"D@	c #79615D",
"E@	c #510000",
"F@	c #090000",
"G@	c #705A56",
"H@	c #67504C",
"I@	c #160807",
"J@	c #110402",
"K@	c #211C1C",
"L@	c #352523",
"M@	c #826A66",
"N@	c #544140",
"O@	c #0E0301",
"P@	c #0D0201",
"Q@	c #78605D",
"R@	c #836B66",
"S@	c #836A65",
"T@	c #270100",
"U@	c #0B0A0A",
"V@	c #806864",
"W@	c #7F6763",
"X@	c #1C0C0B",
"Y@	c #070404",
"Z@	c #7E6661",
"`@	c #7F6762",
" #	c #4B3937",
".#	c #655553",
"+#	c #3E2D2B",
"@#	c #443331",
"##	c #41302F",
"$#	c #170A08",
"%#	c #1A0B08",
"&#	c #373333",
"*#	c #2B2525",
"=#	c #0F0201",
"-#	c #604C4C",
";#	c #7F7576",
">#	c #B09A9B",
",#	c #908485",
"'#	c #94301E",
")#	c #5B0000",
"!#	c #4B4748",
"~#	c #766F70",
"{#	c #8A0C00",
"]#	c #6B0400",
"^#	c #4C0000",
"/#	c #8F8284",
"(#	c #A26D66",
"_#	c #7B0600",
":#	c #420000",
"<#	c #1B0000",
"[#	c #676162",
"}#	c #5E5B5C",
"|#	c #A99597",
"1#	c #52221B",
"2#	c #58231C",
"3#	c #5E251C",
"4#	c #230000",
"5#	c #3A1E1E",
"6#	c #A18E8F",
"7#	c #817171",
"8#	c #3D393A",
"9#	c #412929",
"0#	c #47241F",
"a#	c #524E4F",
"b#	c #736D6E",
"c#	c #6E6869",
"d#	c #2E2B2B",
"e#	c #4E0F0D",
"f#	c #1F1B1B",
"g#	c #6D6667",
"h#	c #726B6C",
"i#	c #170B09",
"j#	c #110E0E",
"k#	c #464343",
"l#	c #0A0808",
"m#	c #222020",
"n#	c #2A2727",
"o#	c #535050",
"p#	c #322A2B",
"q#	c #3F1E19",
"r#	c #151110",
"s#	c #231F1F",
"t#	c #2A140E",
"u#	c #231512",
"v#	c #050505",
"w#	c #151111",
"x#	c #2B2121",
"y#	c #504B4C",
"z#	c #282424",
"A#	c #171515",
"B#	c #8B7E81",
"C#	c #605C5D",
"D#	c #C7A7AA",
"E#	c #383535",
"F#	c #8C8081",
"G#	c #807677",
"H#	c #352D2D",
"I#	c #6F6869",
"J#	c #4A4647",
"K#	c #464142",
"L#	c #E7B5B8",
"M#	c #7E7475",
"N#	c #625C5D",
"O#	c #454142",
"P#	c #4C4949",
"Q#	c #4D4A4B",
"R#	c #242223",
"S#	c #3D3A3A",
"T#	c #877D7E",
"U#	c #7A7172",
"V#	c #736B6C",
"W#	c #948788",
"X#	c #372C2D",
"Y#	c #806A6B",
"Z#	c #83797B",
"`#	c #887D7E",
" $	c #98898C",
".$	c #281511",
"+$	c #341C18",
"@$	c #0F0C0C",
"#$	c #1A0B09",
"$$	c #372927",
"%$	c #4A4646",
"&$	c #3F3232",
"*$	c #090606",
"=$	c #0A0404",
"-$	c #171212",
";$	c #1F1716",
">$	c #281E1D",
",$	c #0D0A09",
"'$	c #302524",
")$	c #342B2A",
"!$	c #1B0F0E",
"~$	c #3A2F2E",
"{$	c #574847",
"]$	c #433736",
"^$	c #150B0A",
"/$	c #130909",
"($	c #87716B",
"_$	c #4E403F",
":$	c #655250",
"<$	c #090504",
"[$	c #65524F",
"}$	c #574846",
"|$	c #302322",
"1$	c #100404",
"2$	c #020101",
"3$	c #0A0605",
"4$	c #2B1D1C",
"5$	c #140E0D",
"6$	c #514241",
"7$	c #6E5855",
"8$	c #040202",
"          . + @ # $ %                             ",
"      & * . = - ; > , ' )                         ",
"    * ! * & * ~ { ] ^ / ( _                       ",
"    : < [ . } | 1 2 3 / 4 5                       ",
"  6 7 8 9 0 a | b c d e / f g                     ",
"  h i j a k 9 l { m n o p q r                     ",
"  s t u v w x y { z A B C n                       ",
"* D E F G H 7 I * D c J K r                       ",
"L M D : N O P Q b D R S D D                       ",
"D T D U : & b V W X Y Z `  ...+.                  ",
"D @.#.$.$.%.&.*.Z =.-.K ;.>.>.4 ,.O               ",
"'.).#.$.&.!.~.{.D ].^./.(._.:.<.{ [.              ",
"}.}.#.|.$.1.{.2.3.b 4.5.6.7.8.9.0.a.b.D           ",
": w #.&.O 4.c.*.b 4.d.[.f e.f.g.h.i.J j.k.        ",
"  *.#.$.. l.O O { O D m.n.o.o.p./ q.r.s.t.        ",
"u.v.).{.* b J . . V w.x.,.f.& y.z.d.).A.B.C.      ",
"v.D.O E.  F.: E.: G.H.I.J.K.& L.b d.D ).b M.N.    ",
"        O.r.P.Q.: : w R.S.T.U.V.{.W.D D { k.C.    ",
"        F.. X.{.8.: {.{ Y.Z.`. +.+++D Z J @+C.    ",
"      #+s.w X.$+O &.r.%+&+*+=+-+;+>+D D r ,+C.    ",
"      '+)+D D D ).D D !+~+{+]+^+/+(+D D _+:+<+    ",
"    [+}+|+1+2+D D D D D 3+4+5+& /+6+b 7+D <+@+    ",
"    [+8+9+0+a+D D ).D b+c+d+e+f+g++.*.J h+i+C.    ",
"    t.j+k+l+m+n+o+p+q+q+B.r+s+t+u+v+*.J k.w+N.    ",
"    t.x+y+z+A+y+B+C+D+D+D $.E+o.F+H G+_+D D H+    ",
"      I+J+K+K+L+N.M+N+O+s.P+Q+R+. : G+D D D D     ",
"      S+T+U+V+W+N.L+X+Y+Z+F.`+ @.@f+&.+@D D D     ",
"      @+@@#@$@%@M.&@*@=@m+-@;@>@E.,@D '@)@!@      ",
"      N+D D D ~@{@]@A+^@/@0+(@_@:@<@[@@+}@D       ",
"        D D D |@~@k.1@2@3@9+k.4@5@6@7@@+M.D       ",
"        H+D D D D D 8@o+9@0@k.a@b@c@d@N.C.        ",
"        M.e@f@D D D D D g@h@i@j@k@l@m@k.q+        ",
"    n@  o@}.e@D D D D D D D p@q@r@s@p@(@}@        ",
"    }@    q+8@D D D D w.t@o+u@v@w@x@C.q+}@        ",
"y@#.e@  z@A@D }@e@}@q+B@@.C@D@D r.t@D ).).        ",
"#.E@z@'@D+p@D D q+D D D F@G@H@H r.D D ).D         ",
"o+D D I@w {.J@D K@).D F@L@M@N@H B.D O@&.P@        ",
"D D D D D       b.).).d.Q@R@S@J $.T@{ 1 P@        ",
"D D D D w $.d.D U@P@P@*.V@R@W@D X@H $.{.G+        ",
"    D D D D Y@  ).b r.b Z@`@ #+@D D & ~ .#$.      ",
"              D . D *.*.+#@###Z D D r.P@).).p@    ",
"              *.*.$#%#*.{.O d.t@D D ).D }@k.q+    ",
"          b.r &#*#d.=#D r j.$.D O@n@o+o+-#N+S+S+  ",
"        k.D+z+;#>#e@o+D+,#>##+e@'#)#e@t@%@@+!#S+M.",
"        o@q+[+^@,#D+o+q+~#n@{##.]#^#w.f@-#S+!#@+@+",
"        C+t@~#/#t.C+e@'#z@(#_#D+:#<#f@w.[+[#}#S+M.",
"        i@)#[+|#t.-#o+_#1#2#3#4#D+D 5#i@~#~#N+@+@+",
"        [+#.,#6#[+1#D ^#D+3#2#t@p@t@i@7#[+N+N+8#C.",
"        ~#1#-#[+9#S+@+)@0#z@o+o+e@}@[+[+z+N+a#C.  ",
"        b#c#e@o@i+d#N.e#)@n@o+o+t@C.@+@+@+C.C.f#  ",
"        g#h#o+C.C.N.N.#.e@D+e@i#D j#k#@+k#C.C.    ",
"        S+S+%@@+M.d#N.l#!@t@D D D D m#n#N.C.      ",
"        S+o#p#C.C.C.q#N.q+w.t@!@r#j#D N.          ",
"        N+~#C.C.s#p@t#u#o+D t@N.N.j#D N.          ",
"        M.k.S+M.M.C.u#t#D N.D N.v#v#w#            ",
"        M.%@~#@+M.D D x#D N.D D D D               ",
"        N+-#N+y#z#N.m#D A#C.D D D D               ",
"        @+~#B#N+~#N+C#D C.8#D D D D               ",
"        N+D#D#[+^@c#N+D E#M.D D j#                ",
"        t.>#t.F#G#~#k.H#M.M.j#D C.                ",
"        t.[+I#J#!#(@@@K#M.E#f#v#                  ",
"        L#F#M#N#M.t@t@O#P#Q#C.N.                  ",
"        >#~#~#N+S+R#N+@+S#M.N.                    ",
"        >#~#T#@+t@I#M#[+~#M.C.                    ",
"        >#~#;#N+t@[+~#U#V#S+N.                    ",
"        t.~#~#N+t@t.W#V#U#~#                      ",
"        t@#.D X#t@Y#/#Z#[+,#t.                    ",
"          !@t@D D w.Z#/#t.N+[+~#                  ",
"          S+D D D D X#,#>#,#o@^#                  ",
"              D D D D h#`# $D D S+S+              ",
"              x#i#D !@U#N+x#p@.$e@%@              ",
"              D q+D D ,#t.o@p@p@r D               ",
"              D D +$o+@$D D P@#$p@D @+            ",
"                  P@r.D D D ).J D $$%$@+          ",
"                  P@r.D D ).).r.D D &$M.          ",
"                  D t@).*$J =$r.b+D D D           ",
"                    D -$J ;$r.>$J ,$D D           ",
"                      D 7+r.'$)$J J D D D         ",
"                      D D D G+G+*.!$D D }@        ",
"                        D D ).$.~$*.D D D         ",
"                        D D { G+G+G+D D D         ",
"                          G+P@&..#*.r.-$D D       ",
"                          ).M D b ).{$J ,$D D     ",
"                          D D D ]${.*.^$J D ).    ",
"                          /$D I@{.{.G+)$J ).).    ",
"                          $.($. *..#_$G+Z ).).).  ",
"                      O $.:${.1 {${ Z D D ).).<$  ",
"                    O [$.#1 b $.G+B.Z r r b+t@D   ",
"                  : : }$|${$1$r.).).D D D D 2$3$  ",
"              {.O O ~ *.4$$.r.>$J 5$r <$D <$r     ",
"        O {.{.6$O 7${$).P@D D D 8$r r r r r       ",
"                      r r r r r r                 "};
