/* XPM */
static char * ZPAIB4_xpm[] = {
"49 92 534 2",
"  	c None",
". 	c #846B66",
"+ 	c #39383A",
"@ 	c #635251",
"# 	c #64504D",
"$ 	c #7B635E",
"% 	c #7A6362",
"& 	c #705E5A",
"* 	c #363637",
"= 	c #6F5956",
"- 	c #745C5A",
"; 	c #534140",
"> 	c #5A4845",
", 	c #846C66",
"' 	c #866D68",
") 	c #81645F",
"! 	c #87716A",
"~ 	c #846A66",
"{ 	c #4C3C3A",
"] 	c #5C4B48",
"^ 	c #211515",
"/ 	c #866E68",
"( 	c #745D5A",
"_ 	c #5B4947",
": 	c #4E3E3D",
"< 	c #201514",
"[ 	c #0D0201",
"} 	c #8B766F",
"| 	c #7E5F5A",
"1 	c #65514E",
"2 	c #534340",
"3 	c #473837",
"4 	c #2F2625",
"5 	c #302726",
"6 	c #5F3E39",
"7 	c #76605B",
"8 	c #584442",
"9 	c #6D5754",
"0 	c #4D3F3C",
"a 	c #523E3C",
"b 	c #261E1D",
"c 	c #664743",
"d 	c #4A3837",
"e 	c #341F1D",
"f 	c #5C4A47",
"g 	c #443534",
"h 	c #3C2C2B",
"i 	c #020000",
"j 	c #523F3E",
"k 	c #513E3D",
"l 	c #372827",
"m 	c #170B0A",
"n 	c #171212",
"o 	c #000000",
"p 	c #3C1D1B",
"q 	c #53403E",
"r 	c #624E4B",
"s 	c #5A4644",
"t 	c #513F3D",
"u 	c #6C5653",
"v 	c #5E4B48",
"w 	c #443333",
"x 	c #1B1211",
"y 	c #79615E",
"z 	c #7D6561",
"A 	c #363334",
"B 	c #564B4A",
"C 	c #443332",
"D 	c #322826",
"E 	c #2B2120",
"F 	c #595557",
"G 	c #7F7576",
"H 	c #5D504D",
"I 	c #22272A",
"J 	c #503F3D",
"K 	c #261C1C",
"L 	c #2F2525",
"M 	c #2F201F",
"N 	c #554140",
"O 	c #373131",
"P 	c #716C6D",
"Q 	c #968182",
"R 	c #040202",
"S 	c #7F6662",
"T 	c #574442",
"U 	c #2D2120",
"V 	c #352B2A",
"W 	c #512D27",
"X 	c #6A6465",
"Y 	c #5B5859",
"Z 	c #0D0403",
"` 	c #321A18",
" .	c #361F1D",
"..	c #2B2525",
"+.	c #7E7677",
"@.	c #766869",
"#.	c #110101",
"$.	c #090000",
"%.	c #806863",
"&.	c #836C66",
"*.	c #2B1D1B",
"=.	c #140502",
"-.	c #373333",
";.	c #766F70",
">.	c #3B3839",
",.	c #2E2D2D",
"'.	c #371F1D",
").	c #43302F",
"!.	c #644F4C",
"~.	c #6B5653",
"{.	c #7D7576",
"].	c #6F5F60",
"^.	c #1A0101",
"/.	c #150505",
"(.	c #322728",
"_.	c #100000",
":.	c #160502",
"<.	c #1D0A07",
"[.	c #010000",
"}.	c #181717",
"|.	c #444243",
"1.	c #4B4749",
"2.	c #231110",
"3.	c #79625E",
"4.	c #635F5F",
"5.	c #716D6D",
"6.	c #73696A",
"7.	c #2E0000",
"8.	c #756062",
"9.	c #8F8384",
"0.	c #423E3F",
"a.	c #0B0000",
"b.	c #23110D",
"c.	c #854D47",
"d.	c #0B0A0A",
"e.	c #1B1A1A",
"f.	c #7E6460",
"g.	c #785F5B",
"h.	c #4F4B4D",
"i.	c #706B6B",
"j.	c #78696A",
"k.	c #1E0000",
"l.	c #8C8182",
"m.	c #343232",
"n.	c #1E1513",
"o.	c #191818",
"p.	c #201F1F",
"q.	c #453433",
"r.	c #302120",
"s.	c #221615",
"t.	c #2B1210",
"u.	c #0F0403",
"v.	c #210C0A",
"w.	c #77605D",
"x.	c #765F5B",
"y.	c #79615D",
"z.	c #362E2D",
"A.	c #847879",
"B.	c #786E6F",
"C.	c #84797A",
"D.	c #867B7C",
"E.	c #210E0C",
"F.	c #624E4C",
"G.	c #2E201F",
"H.	c #130403",
"I.	c #7B645F",
"J.	c #6C5754",
"K.	c #67534F",
"L.	c #877C7D",
"M.	c #766E6F",
"N.	c #6C5E5F",
"O.	c #060505",
"P.	c #908485",
"Q.	c #837879",
"R.	c #222121",
"S.	c #180C0B",
"T.	c #200C0A",
"U.	c #302322",
"V.	c #483937",
"W.	c #41302F",
"X.	c #7B625E",
"Y.	c #070000",
"Z.	c #866F6D",
"`.	c #64504C",
" +	c #8E8184",
".+	c #796F70",
"++	c #83797A",
"@+	c #4F4C4C",
"#+	c #0C0A09",
"$+	c #010101",
"%+	c #090808",
"&+	c #0A0000",
"*+	c #4D3B39",
"=+	c #3C3231",
"-+	c #7A635D",
";+	c #291A19",
">+	c #190807",
",+	c #66504E",
"'+	c #A27672",
")+	c #7A7374",
"!+	c #5F5B5C",
"~+	c #A28D8E",
"{+	c #8C7F81",
"]+	c #1A1616",
"^+	c #333030",
"/+	c #121111",
"(+	c #634F4C",
"_+	c #352727",
":+	c #362827",
"<+	c #574341",
"[+	c #463433",
"}+	c #292626",
"|+	c #271A19",
"1+	c #755D59",
"2+	c #473534",
"3+	c #3E2E2D",
"4+	c #8F8385",
"5+	c #4A4647",
"6+	c #231B18",
"7+	c #120F0D",
"8+	c #0E0C0C",
"9+	c #1C1818",
"0+	c #574847",
"a+	c #1C1B1B",
"b+	c #6F5B56",
"c+	c #6F5A56",
"d+	c #655452",
"e+	c #604C4C",
"f+	c #8B8081",
"g+	c #5D595A",
"h+	c #343131",
"i+	c #4D4A4B",
"j+	c #382825",
"k+	c #110E0E",
"l+	c #222020",
"m+	c #1E1D1D",
"n+	c #574543",
"o+	c #826964",
"p+	c #78615E",
"q+	c #544344",
"r+	c #484343",
"s+	c #3A3636",
"t+	c #454242",
"u+	c #413C3B",
"v+	c #3B302F",
"w+	c #171616",
"x+	c #232222",
"y+	c #151212",
"z+	c #3A3738",
"A+	c #473C3B",
"B+	c #4D3D3C",
"C+	c #7A635F",
"D+	c #29201E",
"E+	c #423F3F",
"F+	c #543E3B",
"G+	c #4A3734",
"H+	c #59423E",
"I+	c #111010",
"J+	c #282626",
"K+	c #161515",
"L+	c #625F5F",
"M+	c #271B1A",
"N+	c #826B65",
"O+	c #341816",
"P+	c #0C0000",
"Q+	c #372927",
"R+	c #3A2B29",
"S+	c #100C0B",
"T+	c #050505",
"U+	c #2E2B2B",
"V+	c #1F1B1B",
"W+	c #2A2727",
"X+	c #100807",
"Y+	c #2C201F",
"Z+	c #261818",
"`+	c #281312",
" @	c #6A5551",
".@	c #33130A",
"+@	c #2B2121",
"@@	c #140E0C",
"#@	c #020202",
"$@	c #292422",
"%@	c #251D1D",
"&@	c #2F2120",
"*@	c #3B302E",
"=@	c #362A29",
"-@	c #0B0605",
";@	c #7E6761",
">@	c #7D6560",
",@	c #241B1A",
"'@	c #151111",
")@	c #161313",
"!@	c #302B2B",
"~@	c #302525",
"{@	c #292120",
"]@	c #564240",
"^@	c #231C1B",
"/@	c #3B3737",
"(@	c #463838",
"_@	c #463A38",
":@	c #2C2222",
"<@	c #413231",
"[@	c #656162",
"}@	c #4E4A4C",
"|@	c #1F1514",
"1@	c #2E2524",
"2@	c #372929",
"3@	c #2D2B2C",
"4@	c #56312C",
"5@	c #211A1A",
"6@	c #0E0C0A",
"7@	c #342726",
"8@	c #322524",
"9@	c #837A7B",
"0@	c #481D1C",
"a@	c #201615",
"b@	c #342524",
"c@	c #6A3D3C",
"d@	c #B77870",
"e@	c #52221B",
"f@	c #140000",
"g@	c #4A3A38",
"h@	c #250C0B",
"i@	c #331715",
"j@	c #271312",
"k@	c #483A38",
"l@	c #2F2727",
"m@	c #310807",
"n@	c #675350",
"o@	c #322725",
"p@	c #17100F",
"q@	c #030000",
"r@	c #513B39",
"s@	c #604D49",
"t@	c #4A3B38",
"u@	c #392C2A",
"v@	c #170B09",
"w@	c #3A2D2B",
"x@	c #574643",
"y@	c #421B17",
"z@	c #5F4745",
"A@	c #361D1A",
"B@	c #754F4A",
"C@	c #7D635F",
"D@	c #413532",
"E@	c #423332",
"F@	c #4B3A38",
"G@	c #201A19",
"H@	c #2F0706",
"I@	c #270100",
"J@	c #6E5955",
"K@	c #8C7870",
"L@	c #685451",
"M@	c #493837",
"N@	c #6F5955",
"O@	c #52433E",
"P@	c #382B28",
"Q@	c #423533",
"R@	c #090101",
"S@	c #250100",
"T@	c #0F0000",
"U@	c #614C49",
"V@	c #705A56",
"W@	c #705B57",
"X@	c #775F5C",
"Y@	c #51423E",
"Z@	c #62534D",
"`@	c #6E5855",
" #	c #503937",
".#	c #0E0301",
"+#	c #877069",
"@#	c #74605B",
"##	c #735C57",
"$#	c #725853",
"%#	c #391C1A",
"&#	c #3B1C1A",
"*#	c #564341",
"=#	c #614D4A",
"-#	c #241615",
";#	c #433939",
">#	c #080708",
",#	c #252020",
"'#	c #312221",
")#	c #181211",
"!#	c #3D1C18",
"~#	c #42201B",
"{#	c #050000",
"]#	c #0C0101",
"^#	c #2A1916",
"/#	c #A69394",
"(#	c #D6AAAD",
"_#	c #A79394",
":#	c #8E6F6C",
"<#	c #7C5853",
"[#	c #9C8B8C",
"}#	c #220907",
"|#	c #1F0100",
"1#	c #846062",
"2#	c #C7A7AA",
"3#	c #B09A9B",
"4#	c #9C8C8F",
"5#	c #A99597",
"6#	c #331C18",
"7#	c #7F6162",
"8#	c #AC9395",
"9#	c #B19496",
"0#	c #95878A",
"a#	c #756E6F",
"b#	c #8D8283",
"c#	c #AA9697",
"d#	c #CB8485",
"e#	c #6E6869",
"f#	c #83797B",
"g#	c #97888A",
"h#	c #97888B",
"i#	c #938687",
"j#	c #948788",
"k#	c #7F7677",
"l#	c #715858",
"m#	c #938587",
"n#	c #998A8D",
"o#	c #C2A4A7",
"p#	c #120000",
"q#	c #8D8182",
"r#	c #98898C",
"s#	c #A39193",
"t#	c #AC9798",
"u#	c #B59D9E",
"v#	c #8C8081",
"w#	c #92696A",
"x#	c #9E8D90",
"y#	c #AD9799",
"z#	c #1D0000",
"A#	c #615C5C",
"B#	c #6D6768",
"C#	c #524F50",
"D#	c #4B4748",
"E#	c #736D6E",
"F#	c #6D6667",
"G#	c #605C5D",
"H#	c #545151",
"I#	c #575455",
"J#	c #413D3E",
"K#	c #3C1505",
"L#	c #454142",
"M#	c #343031",
"N#	c #585556",
"O#	c #524F4F",
"P#	c #1E1C1B",
"Q#	c #3F3B3C",
"R#	c #4E4B4B",
"S#	c #363333",
"T#	c #191717",
"U#	c #1C1A1A",
"V#	c #5C5758",
"W#	c #5E5B5C",
"X#	c #535050",
"Y#	c #383535",
"Z#	c #656061",
"`#	c #221E1F",
" $	c #282424",
".$	c #1C1918",
"+$	c #343132",
"@$	c #4C4747",
"#$	c #181414",
"$$	c #3D393A",
"%$	c #555151",
"&$	c #4C4949",
"*$	c #645F60",
"=$	c #504B4C",
"-$	c #585455",
";$	c #464343",
">$	c #544F50",
",$	c #575253",
"'$	c #040404",
")$	c #312D2E",
"!$	c #3C3A3B",
"~$	c #231F1F",
"{$	c #887D7E",
"]$	c #726B6C",
"^$	c #69595A",
"/$	c #5B0000",
"($	c #480000",
"_$	c #382525",
":$	c #2A0B09",
"<$	c #0D0000",
"[$	c #290000",
"}$	c #370000",
"|$	c #250000",
"1$	c #552F2A",
"2$	c #190906",
"3$	c #3E0000",
"4$	c #71423C",
"5$	c #42231E",
"6$	c #BFA3A5",
"7$	c #430000",
"8$	c #470000",
"9$	c #231716",
"0$	c #2D1F1E",
"a$	c #490000",
"b$	c #805B58",
"c$	c #563A3B",
"d$	c #4C0000",
"e$	c #140908",
"f$	c #251817",
"g$	c #2B2929",
"h$	c #382827",
"i$	c #A47071",
"j$	c #372C2D",
"k$	c #080000",
"l$	c #0D0101",
"m$	c #453332",
"n$	c #2E1F1E",
"o$	c #1B0B08",
"p$	c #080201",
"q$	c #271716",
"r$	c #1D100F",
"s$	c #423130",
"t$	c #523F3D",
"u$	c #2F1F1D",
"v$	c #1F0F0C",
"w$	c #614F4D",
"x$	c #705E5D",
"y$	c #655553",
"z$	c #261D1C",
"A$	c #3F2F2E",
"B$	c #2A1D1C",
"C$	c #3D2D2C",
"D$	c #362322",
"E$	c #150F0E",
"F$	c #5E4542",
"G$	c #2E2220",
"H$	c #180E0D",
"I$	c #140D0C",
"                                                    . + @ # $ %                                   ",
"                                                  . . & * = - ; >                                 ",
"                                                . . , ' ) ! ~ { ] ^                               ",
"                                              ~ ~ ~ / ! / . ( _ : < [                             ",
"                                              ( ~ ~ } | 1 ~ ( 2 3 4 5                             ",
"                                              ~ 6 1 7 8 . ~ 9 0 a b 5                             ",
"                                              ( c d 8 e d 1 f g h i                               ",
"                                              1 d d . ( j k l m n o                               ",
"                                              p q d 1 r s t < i o                                 ",
"                                              1 / ~ u 8 v 1 w x i                                 ",
"                                              h d y z 1 A B C D E i                               ",
"                                          F G ( 8 1 ~ / H I J K L M                               ",
"                                    N d O P Q R d . } S ( I T U V < W X Y                         ",
"                                Z ` d  ...+.@.#.$.o d ( %.&.h *.=.-.;.>.>.,.                      ",
"                              1 '.).!.~.O {.].^./.(._.o 1 ( :.:.<.[.}.|.1.,.                      ",
"                            h 2.1 ~ ~ 3.4.5.6.7.8.9.0.o a.b.c.[.o o d.F |.e.                      ",
"                            a.:.1 ~ f.g.h.i.j.k.j.l.Y m.o o n.o o.,.p.|.|.o M q.r.s.              ",
"                          t.u.v.1 w.x.y.z.A.B.k.C.D.Y X [.o o o ,.,.,.>.>.a.E.F.r.v.:.            ",
"                          G.v.H.I.J.K.F L.M.N.k.O.0.P.Q.o o o d.R.}.,.S.T.U.V.N d W.S.i           ",
"                          X.Y.a.Z.`.u  +X .+++o o @+;.;.#+o o $+%+d.t.:.&+q.q *+=+W.r.[           ",
"                          -+;+>+,+C '+)+!+~+{+o #+P.P.]+^+o o o o /+(+_+:+<+[+}+S.r.|+o           ",
"                        1 1+~ ! 2+3+Q.M.4+X 5+o Q.X 6+7+8+o o o o o 9+<+0+r.a+d.d.d.}.d.          ",
"                        b+c+~ . h d+e+f+g+h+^+_.i+^+j+0.o o k+l+o o o o o [ ,.o d.Y d.m+=+        ",
"                        n+J.o+p+d q+e+q+r+s+t+_.^+u+0.v+#+o ]+^+o d.o o o w+x+d.y+]+w+z+1 A+      ",
"                        B+C+y ~.:.[.[.[.D+r+E+7+F+G+H+H+#+o k+^+I+o o o d.o o ^+J+o K+L+h A+      ",
"                        M+N+~ O+P+7+o o [.7+7+Q+R+S+o ]+T+o o ^+U+V+k+o ]+W+0.^+d.X+Y+Z+d A+      ",
"                        `+ @~ 8 .@+@o o o o Q+@@#@]+o T+]+o 7+^+]+^+]+$@%@]+V+^+i &@*@=@8 h -@    ",
"                      P+;@>@. / o [.#+o [.7+,@o '@W+0.0.k+o o o o o )@+@!@]+U+  o S.~@{@]@0+-@    ",
"                      5.^@/@|.q+^+(@_.o o o o o [.o o o o o o o o o [.o o o         _@:@<@A+o i   ",
"                    ,.[@}@|.,.0.0.q+_.[.[.o _.o o o o o o o o o o o o o o o         |@1@2@A+o i   ",
"                  4.|.}@3@o 4@b.@+X k.5@[.[.[.o o o o 7+7+7+o o o o o o o 6@          7@8@h o o   ",
"                  9@F 0@o a@b.  J+o e+o o o [.[.o o o o o o o o o o o o o           o o b@8 o S.o ",
"                  9@8 c@[ d@G+  o o 7+[.e@f@o [.o o o o o o o o o o o o o         o i P+g@[+i r.o ",
"                i s.h@o i o     o o P+v.:.i@j@o o o o o o o o [.[.o o o o       o o o o k@P+P+l@o ",
"                i m@o o b.o       o S.v.( 8 1 n@o@o o o o [.S.r.^@o o o o o o o o o o o o P+p@o o ",
"                :.q@o o o         o :.t.r@v.t.s@t@u@o o o i s.r.^@o o o o o [.v@o o o o w@x@o o   ",
"                y@o :.o             k z@A@B@C@D@E@F@o o o [.S.G@i S+o o o [.[._.[.o   o -@o       ",
"              H@I@o o o           A+J@K@L@M@N@O@P@# Q@o o o R@i R@^@o o o                         ",
"              S@T@o o o           U@V@W@X@g Y@Z@`@ #8 .#o o q@P+h =+i                             ",
"              &+[.t.o o         . ! +#@#n@##$#%#&#*#=#t.o o $.-#d ~ 8                             ",
"              o q@v.o         h v.v.r.h h ;#;#o o o :.P+T+>#,#'#1 . h )#n.                        ",
"              o !#i           ~#i F F 5 ^@5.9@a.{#]#R.^#l./#(#_#:#<#_.[#;.                        ",
"            o }#|#o         1#7.1#2#3#4#5#3#Q._.6#7#8#9#0#a#b#c#3#d#7.;.;.                        ",
"            I@|#q@          ;._.P.;.e#4#4#P.Q.k.P.f#g#h#i#X Q.P.4#j#~#e+Y                         ",
"          a.m@o o           X _.P.G ;.4#4#P.4#7.4#4#4#4#;.k#P.P.4#4#l#l#Y                         ",
"          {#I@o o           P.o m#D.P.4#4#3#3#7.3#2#3#3#Q.i#n#3#o#2#2#4#;.^+                      ",
"          p#I@{#a.        Y _.k.Q.q#P.r#4#3#s#7.s#3#3#3#4#4#4#t#u#2#2#P.X 0.                      ",
"          a.<.:.e@      @+(.1#P.Q.v#P.P.P.P.4#7.w#3#3#3#{+4#4#x#t#2#y#P.X @+                      ",
"          z#:.a..@      o +@Q.P.q#L.;.;.;.;.;._.b.Q.Q.;.@+@+A#{+4#4#P.B#C#0.                      ",
"          v.:.:._.    Q.]+@+X X D#Y ;.E#F#G#H#r+o 0.@+0.]+h+@+@+X I#@+D#J#h+                      ",
"          o o K#[.  o L#]+M#Y Y N#O#@+X X X r+P#o ^+^+l+%+]+0.0.0.@+L#Q#h+^+                      ",
"          o o a.[.k+o ]+o '@N#O#R#L#0.^+k+o o #@'@]+k+o o 7+0.0.0.0.^+^+S#J#                      ",
"          o o o e@o T#V+'@%+@+@+L#0.0.o o o #@]+'@T+o o o 7+0.0.0.0.0.0.0.0.                      ",
"          [.[.o .@T+V+^+]+%+@+A#0.0.U#o o #@]+%+o o o o o #+0.0.0.0.0.D#@+0.                      ",
"            o o o '@0.]+]+]+0.V#l+o o o o '@]+      o o o o 0.@+@+X W#X#L#0.                      ",
"                o ]+0.]+W+S#0.0.o o o o o ]+        o o o o Y#0.Y Z#X Y 0.`#                      ",
"                o k+0. $^+Q#0.0.o #@]+#@o           o T+'@]+^+0.X#Y X#>.^+^+                      ",
"              .$+$o 0.0.^+@+@$6@#@#$^+]+            ]+]+]+]+o ]+]+^+^+$$@+0.                      ",
"              0.C#]+ $0.Y X#6@$+'@]+T+                ]+]+W+^+S#L#%$X ;.X ^+                      ",
"              0.Y W+]+^+Z#Y o d.U+]+]+                ]+]+^+h+J#&$*$X X =$^+                      ",
"            r+A#-$@+0.^+0.J+o J+^+                    ]+]+U+0.0.D#Y Y Y @+^+                      ",
"          Y ;$>$A#X X ,$J+'$k+^+                      ]+]+9+)$0.0.0.0.^+0.o                       ",
"          r+D#;$Y 0.0.!$o o ]+                          W+]+]+~$^+Y#0.0.0.o                       ",
"          X P.;.X X l+o o o                             ^+]+W+^+$$Y I#D#0.o                       ",
"          X Q.Q.{$]$o (@o                               0.~$^+^+0.D#@+D#0.o                       ",
"          Y 4#2#2#P._.Y                                 ^+^+^+^+Q#0.0.0. $                        ",
"          ;.P.Q.P.^$/$($o                                 ^+^+^+S#0.0.Y#^+^+                      ",
"          ^+W e+;.o n.o o                                   ]+]+S#0.0.X Q.e+k.                    ",
"          o k.k._$~#:$o <$                                  ]+U+Q#D#Y 4#P.6#[$k.                  ",
"        }.:.P+}$|$1$~#6#[.                                  d.^+0.X P.3#3#k._.k.                  ",
"          2$s.7.3$4$W 5$7+                                  ^+]+@+;.P.3#6$6#7$8$o                 ",
"          9$0$o [ r.S.5$o                                   ^+^+0.{+4#3#2#q+a$3$v@o               ",
"          r.r.)#i r.i )#                                      o k+4#b$e+4#P.c$d$[.k.              ",
"          s.s.e$o o i o                                         o Q.d$q+;.2#;.7+6#5$              ",
"          S.0$f$d o o o                                         o g$e@e+;.3#d.[ [ [               ",
"          h h$r.o G@-@o                                           o k+i$4#o P+-#s.S.o             ",
"          h h i o 5 o                                               o j$k+o k$P+l$[ o             ",
"          m$r.v.S.[.o                                                 o o o o q@$.[.o             ",
"          n$o$P+o o o                                                   o o o o o o o o           ",
"          :.I@t.h -@                                                      i S.:.P+:..#o           ",
"          :.:.d s.o                                                       o o p$:.:.q$r$          ",
"        S.q.h h 5                                                           o o :.:.r.r.          ",
"        r.s$t$A+^@                                                            o u$v$r.r.-@        ",
"      s.d 8 w$A+^@                                                              r.r.r.r.5         ",
"      x$y$0+0+d r.                                                              z$r.h$A$d B$      ",
"    S.s.r.A+A+h y$                                                                s.C$d 8 d       ",
"    5 A+0+x$y$r.r.                                                                  d 8 q d r.    ",
"  S.o i s.A+=+0+0+                                                              t.1 d d d d r.S.  ",
"[ 5 5 5 s.[ i 0+0+                                                          i@t.D$8 h h d d r.S.  ",
"i i i -@-@-@-@-@E$                                                        i@F$d d 8 h 2+d W.r.S.5$",
"    Q+G$-@-@-@-@-@                                                  ( t.v.:.:.:.P+S.s.r.r.r.H$I$Q+",
"                                                                                        -@-@-@G$  "};
