/* XPM */
static char * ZPAIB6_xpm[] = {
"49 92 534 2",
"  	c None",
". 	c #7A6362",
"+ 	c #7B635E",
"@ 	c #64504D",
"# 	c #635251",
"$ 	c #39383A",
"% 	c #846B66",
"& 	c #5A4845",
"* 	c #534140",
"= 	c #745C5A",
"- 	c #6F5956",
"; 	c #363637",
"> 	c #705E5A",
", 	c #211515",
"' 	c #5C4B48",
") 	c #4C3C3A",
"! 	c #846A66",
"~ 	c #87716A",
"{ 	c #81645F",
"] 	c #866D68",
"^ 	c #846C66",
"/ 	c #0D0201",
"( 	c #201514",
"_ 	c #4E3E3D",
": 	c #5B4947",
"< 	c #745D5A",
"[ 	c #866E68",
"} 	c #302726",
"| 	c #2F2625",
"1 	c #473837",
"2 	c #534340",
"3 	c #65514E",
"4 	c #7E5F5A",
"5 	c #8B766F",
"6 	c #261E1D",
"7 	c #523E3C",
"8 	c #4D3F3C",
"9 	c #6D5754",
"0 	c #584442",
"a 	c #76605B",
"b 	c #5F3E39",
"c 	c #020000",
"d 	c #3C2C2B",
"e 	c #443534",
"f 	c #5C4A47",
"g 	c #4A3837",
"h 	c #341F1D",
"i 	c #664743",
"j 	c #000000",
"k 	c #171212",
"l 	c #170B0A",
"m 	c #372827",
"n 	c #513E3D",
"o 	c #523F3E",
"p 	c #513F3D",
"q 	c #5A4644",
"r 	c #624E4B",
"s 	c #53403E",
"t 	c #3C1D1B",
"u 	c #1B1211",
"v 	c #443333",
"w 	c #5E4B48",
"x 	c #6C5653",
"y 	c #2B2120",
"z 	c #322826",
"A 	c #443332",
"B 	c #564B4A",
"C 	c #363334",
"D 	c #7D6561",
"E 	c #79615E",
"F 	c #2F201F",
"G 	c #2F2525",
"H 	c #261C1C",
"I 	c #503F3D",
"J 	c #22272A",
"K 	c #5D504D",
"L 	c #7F7576",
"M 	c #595557",
"N 	c #5B5859",
"O 	c #6A6465",
"P 	c #512D27",
"Q 	c #352B2A",
"R 	c #2D2120",
"S 	c #574442",
"T 	c #7F6662",
"U 	c #040202",
"V 	c #968182",
"W 	c #716C6D",
"X 	c #373131",
"Y 	c #554140",
"Z 	c #2E2D2D",
"` 	c #3B3839",
" .	c #766F70",
"..	c #373333",
"+.	c #140502",
"@.	c #2B1D1B",
"#.	c #836C66",
"$.	c #806863",
"%.	c #090000",
"&.	c #110101",
"*.	c #766869",
"=.	c #7E7677",
"-.	c #2B2525",
";.	c #361F1D",
">.	c #321A18",
",.	c #0D0403",
"'.	c #4B4749",
").	c #444243",
"!.	c #181717",
"~.	c #010000",
"{.	c #1D0A07",
"].	c #160502",
"^.	c #100000",
"/.	c #322728",
"(.	c #150505",
"_.	c #1A0101",
":.	c #6F5F60",
"<.	c #7D7576",
"[.	c #6B5653",
"}.	c #644F4C",
"|.	c #43302F",
"1.	c #371F1D",
"2.	c #1B1A1A",
"3.	c #0B0A0A",
"4.	c #854D47",
"5.	c #23110D",
"6.	c #0B0000",
"7.	c #423E3F",
"8.	c #8F8384",
"9.	c #756062",
"0.	c #2E0000",
"a.	c #73696A",
"b.	c #716D6D",
"c.	c #635F5F",
"d.	c #79625E",
"e.	c #231110",
"f.	c #221615",
"g.	c #302120",
"h.	c #453433",
"i.	c #201F1F",
"j.	c #191818",
"k.	c #1E1513",
"l.	c #343232",
"m.	c #8C8182",
"n.	c #78696A",
"o.	c #1E0000",
"p.	c #706B6B",
"q.	c #4F4B4D",
"r.	c #785F5B",
"s.	c #7E6460",
"t.	c #210C0A",
"u.	c #624E4C",
"v.	c #210E0C",
"w.	c #867B7C",
"x.	c #84797A",
"y.	c #786E6F",
"z.	c #847879",
"A.	c #362E2D",
"B.	c #79615D",
"C.	c #765F5B",
"D.	c #77605D",
"E.	c #0F0403",
"F.	c #2B1210",
"G.	c #180C0B",
"H.	c #41302F",
"I.	c #483937",
"J.	c #302322",
"K.	c #200C0A",
"L.	c #222121",
"M.	c #837879",
"N.	c #908485",
"O.	c #060505",
"P.	c #6C5E5F",
"Q.	c #766E6F",
"R.	c #877C7D",
"S.	c #67534F",
"T.	c #6C5754",
"U.	c #7B645F",
"V.	c #130403",
"W.	c #2E201F",
"X.	c #3C3231",
"Y.	c #4D3B39",
"Z.	c #0A0000",
"`.	c #090808",
" +	c #010101",
".+	c #0C0A09",
"++	c #4F4C4C",
"@+	c #83797A",
"#+	c #796F70",
"$+	c #8E8184",
"%+	c #64504C",
"&+	c #866F6D",
"*+	c #070000",
"=+	c #7B625E",
"-+	c #271A19",
";+	c #292626",
">+	c #463433",
",+	c #574341",
"'+	c #362827",
")+	c #352727",
"!+	c #634F4C",
"~+	c #121111",
"{+	c #333030",
"]+	c #1A1616",
"^+	c #8C7F81",
"/+	c #A28D8E",
"(+	c #5F5B5C",
"_+	c #7A7374",
":+	c #A27672",
"<+	c #66504E",
"[+	c #190807",
"}+	c #291A19",
"|+	c #7A635D",
"1+	c #1C1B1B",
"2+	c #574847",
"3+	c #1C1818",
"4+	c #0E0C0C",
"5+	c #120F0D",
"6+	c #231B18",
"7+	c #4A4647",
"8+	c #8F8385",
"9+	c #3E2E2D",
"0+	c #473534",
"a+	c #755D59",
"b+	c #1E1D1D",
"c+	c #222020",
"d+	c #110E0E",
"e+	c #382825",
"f+	c #4D4A4B",
"g+	c #343131",
"h+	c #5D595A",
"i+	c #8B8081",
"j+	c #604C4C",
"k+	c #655452",
"l+	c #6F5A56",
"m+	c #6F5B56",
"n+	c #473C3B",
"o+	c #3A3738",
"p+	c #171616",
"q+	c #151212",
"r+	c #232222",
"s+	c #3B302F",
"t+	c #413C3B",
"u+	c #454242",
"v+	c #3A3636",
"w+	c #484343",
"x+	c #544344",
"y+	c #78615E",
"z+	c #826964",
"A+	c #574543",
"B+	c #625F5F",
"C+	c #161515",
"D+	c #282626",
"E+	c #111010",
"F+	c #59423E",
"G+	c #4A3734",
"H+	c #543E3B",
"I+	c #423F3F",
"J+	c #29201E",
"K+	c #7A635F",
"L+	c #4D3D3C",
"M+	c #261818",
"N+	c #2C201F",
"O+	c #100807",
"P+	c #2A2727",
"Q+	c #1F1B1B",
"R+	c #2E2B2B",
"S+	c #050505",
"T+	c #100C0B",
"U+	c #3A2B29",
"V+	c #372927",
"W+	c #0C0000",
"X+	c #341816",
"Y+	c #826B65",
"Z+	c #271B1A",
"`+	c #0B0605",
" @	c #362A29",
".@	c #3B302E",
"+@	c #2F2120",
"@@	c #251D1D",
"#@	c #292422",
"$@	c #020202",
"%@	c #140E0C",
"&@	c #2B2121",
"*@	c #33130A",
"=@	c #6A5551",
"-@	c #281312",
";@	c #564240",
">@	c #292120",
",@	c #302525",
"'@	c #302B2B",
")@	c #161313",
"!@	c #151111",
"~@	c #241B1A",
"{@	c #7D6560",
"]@	c #7E6761",
"^@	c #413231",
"/@	c #2C2222",
"(@	c #463A38",
"_@	c #463838",
":@	c #3B3737",
"<@	c #231C1B",
"[@	c #372929",
"}@	c #2E2524",
"|@	c #1F1514",
"1@	c #4E4A4C",
"2@	c #656162",
"3@	c #322524",
"4@	c #342726",
"5@	c #0E0C0A",
"6@	c #211A1A",
"7@	c #56312C",
"8@	c #2D2B2C",
"9@	c #342524",
"0@	c #201615",
"a@	c #481D1C",
"b@	c #837A7B",
"c@	c #4A3A38",
"d@	c #140000",
"e@	c #52221B",
"f@	c #B77870",
"g@	c #6A3D3C",
"h@	c #2F2727",
"i@	c #483A38",
"j@	c #271312",
"k@	c #331715",
"l@	c #250C0B",
"m@	c #17100F",
"n@	c #322725",
"o@	c #675350",
"p@	c #310807",
"q@	c #574643",
"r@	c #3A2D2B",
"s@	c #170B09",
"t@	c #392C2A",
"u@	c #4A3B38",
"v@	c #604D49",
"w@	c #513B39",
"x@	c #030000",
"y@	c #201A19",
"z@	c #4B3A38",
"A@	c #423332",
"B@	c #413532",
"C@	c #7D635F",
"D@	c #754F4A",
"E@	c #361D1A",
"F@	c #5F4745",
"G@	c #421B17",
"H@	c #090101",
"I@	c #423533",
"J@	c #382B28",
"K@	c #52433E",
"L@	c #6F5955",
"M@	c #493837",
"N@	c #685451",
"O@	c #8C7870",
"P@	c #6E5955",
"Q@	c #270100",
"R@	c #2F0706",
"S@	c #0E0301",
"T@	c #503937",
"U@	c #6E5855",
"V@	c #62534D",
"W@	c #51423E",
"X@	c #775F5C",
"Y@	c #705B57",
"Z@	c #705A56",
"`@	c #614C49",
" #	c #0F0000",
".#	c #250100",
"+#	c #241615",
"@#	c #614D4A",
"##	c #564341",
"$#	c #3B1C1A",
"%#	c #391C1A",
"&#	c #725853",
"*#	c #735C57",
"=#	c #74605B",
"-#	c #877069",
";#	c #181211",
">#	c #312221",
",#	c #252020",
"'#	c #080708",
")#	c #433939",
"!#	c #9C8B8C",
"~#	c #7C5853",
"{#	c #8E6F6C",
"]#	c #A79394",
"^#	c #D6AAAD",
"/#	c #A69394",
"(#	c #2A1916",
"_#	c #0C0101",
":#	c #050000",
"<#	c #42201B",
"[#	c #3D1C18",
"}#	c #CB8485",
"|#	c #B09A9B",
"1#	c #AA9697",
"2#	c #8D8283",
"3#	c #756E6F",
"4#	c #95878A",
"5#	c #B19496",
"6#	c #AC9395",
"7#	c #7F6162",
"8#	c #331C18",
"9#	c #A99597",
"0#	c #9C8C8F",
"a#	c #C7A7AA",
"b#	c #846062",
"c#	c #1F0100",
"d#	c #220907",
"e#	c #948788",
"f#	c #938687",
"g#	c #97888B",
"h#	c #97888A",
"i#	c #83797B",
"j#	c #6E6869",
"k#	c #715858",
"l#	c #7F7677",
"m#	c #C2A4A7",
"n#	c #998A8D",
"o#	c #938587",
"p#	c #B59D9E",
"q#	c #AC9798",
"r#	c #A39193",
"s#	c #98898C",
"t#	c #8D8182",
"u#	c #120000",
"v#	c #AD9799",
"w#	c #9E8D90",
"x#	c #92696A",
"y#	c #8C8081",
"z#	c #524F50",
"A#	c #6D6768",
"B#	c #615C5C",
"C#	c #1D0000",
"D#	c #413D3E",
"E#	c #4B4748",
"F#	c #575455",
"G#	c #545151",
"H#	c #605C5D",
"I#	c #6D6667",
"J#	c #736D6E",
"K#	c #3F3B3C",
"L#	c #454142",
"M#	c #1E1C1B",
"N#	c #524F4F",
"O#	c #585556",
"P#	c #343031",
"Q#	c #3C1505",
"R#	c #363333",
"S#	c #4E4B4B",
"T#	c #191717",
"U#	c #1C1A1A",
"V#	c #535050",
"W#	c #5E5B5C",
"X#	c #5C5758",
"Y#	c #221E1F",
"Z#	c #656061",
"`#	c #383535",
" $	c #282424",
".$	c #3D393A",
"+$	c #181414",
"@$	c #4C4747",
"#$	c #343132",
"$$	c #1C1918",
"%$	c #555151",
"&$	c #504B4C",
"*$	c #645F60",
"=$	c #4C4949",
"-$	c #585455",
";$	c #312D2E",
">$	c #040404",
",$	c #575253",
"'$	c #544F50",
")$	c #464343",
"!$	c #231F1F",
"~$	c #3C3A3B",
"{$	c #726B6C",
"]$	c #887D7E",
"^$	c #480000",
"/$	c #5B0000",
"($	c #69595A",
"_$	c #290000",
":$	c #0D0000",
"<$	c #2A0B09",
"[$	c #382525",
"}$	c #552F2A",
"|$	c #250000",
"1$	c #370000",
"2$	c #470000",
"3$	c #430000",
"4$	c #BFA3A5",
"5$	c #42231E",
"6$	c #71423C",
"7$	c #3E0000",
"8$	c #190906",
"9$	c #490000",
"0$	c #2D1F1E",
"a$	c #231716",
"b$	c #4C0000",
"c$	c #563A3B",
"d$	c #805B58",
"e$	c #140908",
"f$	c #2B2929",
"g$	c #251817",
"h$	c #A47071",
"i$	c #382827",
"j$	c #0D0101",
"k$	c #080000",
"l$	c #372C2D",
"m$	c #453332",
"n$	c #1B0B08",
"o$	c #2E1F1E",
"p$	c #1D100F",
"q$	c #271716",
"r$	c #080201",
"s$	c #1F0F0C",
"t$	c #2F1F1D",
"u$	c #523F3D",
"v$	c #423130",
"w$	c #614F4D",
"x$	c #2A1D1C",
"y$	c #3F2F2E",
"z$	c #261D1C",
"A$	c #655553",
"B$	c #705E5D",
"C$	c #3D2D2C",
"D$	c #362322",
"E$	c #5E4542",
"F$	c #150F0E",
"G$	c #140D0C",
"H$	c #180E0D",
"I$	c #2E2220",
"                                  . + @ # $ %                                                     ",
"                                & * = - ; > % %                                                   ",
"                              , ' ) ! ~ { ] ^ % %                                                 ",
"                            / ( _ : < % [ ~ [ ! ! !                                               ",
"                            } | 1 2 < ! 3 4 5 ! ! <                                               ",
"                            } 6 7 8 9 ! % 0 a 3 b !                                               ",
"                              c d e f 3 g h 0 g i <                                               ",
"                              j k l m n o < % g g 3                                               ",
"                                j c ( p q r 3 g s t                                               ",
"                                c u v 3 w 0 x ! [ 3                                               ",
"                              c y z A B C 3 D E g d                                               ",
"                              F G H I J K [ ! 3 0 < L M                                           ",
"                        N O P ( Q R S J < T 5 % g U V W X g Y                                     ",
"                      Z ` `  ...+.@.d #.$.< g j %.&.*.=.-.;.g >.,.                                ",
"                      Z '.).!.~.{.].].< 3 j ^./.(._.:.<.X [.}.|.1.3                               ",
"                      2.).M 3.j j ~.4.5.6.j 7.8.9.0.a.b.c.d.! ! 3 e.d                             ",
"              f.g.h.F j ).).i.Z j.j k.j j l.N m.n.o.n.p.q.r.s.! 3 ].6.                            ",
"            ].t.g.u.v.6.` ` Z Z Z j j j ~.O N w.x.o.y.z.A.B.C.D.3 t.E.F.                          ",
"          c G.H.g Y I.J.K.G.Z !.L.3.j j j M.N.7.O.o.P.Q.R.M S.T.U.V.t.W.                          ",
"          / g.H.X.Y.s h.Z.].F.3.`. +j j .+ . .++j j @+#+O $+x %+&+6.*+=+                          ",
"          j -+g.G.;+>+,+'+)+!+~+j j j j {+]+N.N..+j ^+/+(+_+:+A <+[+}+|+                          ",
"          3.!.3.3.3.1+g.2+,+3+j j j j j 4+5+6+O M.j 7+O 8+Q.M.9+0+~ ! a+3                         ",
"        X.b+3.N 3.j Z / j j j j j c+d+j j 7.e+{+f+^.{+g+h+i+j+k+d % ! l+m+                        ",
"      n+3 o+p+]+q+3.r+p+j j j 3.j {+]+j .+s+7.t+{+^.u+v+w+x+j+x+g y+z+T.A+                        ",
"      n+d B+C+j D+{+j j 3.j j j E+{+d+j .+F+F+G+H+5+I+w+J+~.~.~.].[.E K+L+                        ",
"      n+g M+N+O+3.{+7.P+]+j d+Q+R+{+j j S+]+j T+U+V+5+5+~.j j 5+W+X+! Y+Z+                        ",
"    `+d 0  @.@+@c {+Q+]+@@#@]+{+]+{+5+j ]+S+j ]+$@%@V+j j j j &@*@0 ! =@-@                        ",
"    `+2+;@>@,@G.j   R+]+'@&@)@j j j j j d+7.7.P+!@j ~@5+~.j .+~.j [ % {@]@W+                      ",
"  c j n+^@/@(@        j j j ~.j j j j j j j j j ~.j j j j j ^._@{+x+).:@<@b.                      ",
"  c j n+[@}@|@        j j j j j j j j j j j j j j j ^.j ~.~.^.x+7.7.Z ).1@2@Z                     ",
"  j j d 3@4@          5@j j j j j j j 5+5+5+j j j j ~.~.~.6@o.O ++5.7@j 8@1@).c.                  ",
"j G.j 0 9@j j           j j j j j j j j j j j j j ~.~.j j j j+j D+  5.0@j a@M b@                  ",
"j g.c >+c@W+c j         j j j j j j j j j j j j j ~.j d@e@~.5+j j   G+f@/ g@0 b@                  ",
"j h@W+W+i@j j j j       j j j j ~.~.j j j j j j j j j@k@].t.W+j j     j c j l@f.c                 ",
"j j m@W+j j j j j j j j j j j j <@g.G.~.j j j j n@o@3 0 < t.G.j       j 5.j j p@c                 ",
"  j j q@r@j j j j s@~.j j j j j <@g.f.c j j j t@u@v@F.t.w@F.].j         j j j x@].                ",
"      j `+j   j ~.^.~.~.j j j T+c y@G.~.j j j z@A@B@C@D@E@F@n             j ].j G@                ",
"                        j j j <@H@c H@j j j I@@ J@K@L@M@N@O@P@n+          j j j Q@R@              ",
"                            c X.d W+x@j j S@0 T@U@V@W@e X@Y@Z@`@          j j j  #.#              ",
"                            0 ! g +#%.j j F.@###$#%#&#*#o@=#-#~ %         j j F.~.Z.              ",
"                        k.;#d % 3 >#,#'#S+W+].j j j )#)#d d g.t.t.d         j t.x@j               ",
"                         .!#^.~#{#]#^#/#m.(#L._#:#6.b@b.<@} M M c <#          c [#j               ",
"                         . .0.}#|#1#2#3#4#5#6#7#8#^.M.|#9#0#|#a#b#0.b#        j c#d#j             ",
"                        N j+<#e#0#N.M.O f#g#h#i#N.o.M.N.0#0#j# .N.^. .          x@c#Q@            ",
"                        N k#k#0#0#N.N.l# .0#0#0#0#0.0#N.0#0# .L N.^.O           j j p@6.          ",
"                      {+ .0#a#a#m#|#n#f#M.|#|#a#|#0.|#|#0#0#N.w.o#j N.          j j Q@:#          ",
"                      7.O N.a#a#p#q#0#0#0#|#|#|#r#0.r#|#0#s#N.t#M.o.^.N         6.:#Q@u#          ",
"                      ++O N.v#a#q#w#0#0#^+|#|#|#x#0.0#N.N.N.N.y#M.N.b#/.++      e@].{.6.          ",
"                      7.z#A#N.0#0#^+B#++++ .M.M.5.^. . . . . .R.t#N.M.&@j       *@6.].C#          ",
"                      g+D#E#++F#O ++++g+]+7.++7.j w+G#H#I#J# .N E#O O ++]+M.    ^.].].t.          ",
"                      {+g+K#L#++7.7.7.]+`.c+{+{+j M#w+O O O ++N#O#N N P#]+L#j   ~.Q#j j           ",
"                      D#R#{+{+7.7.7.7.5+j j d+]+!@$@j j d+{+7.L#S#N#O#!@j ]+j d+~.6.j j           ",
"                      7.7.7.7.7.7.7.7.5+j j j S+!@]+$@j j j 7.7.L#++++`.!@Q+T#j e@j j j           ",
"                      7.++E#7.7.7.7.7..+j j j j j `.]+$@j j U#7.7.B#++`.]+{+Q+S+*@j ~.~.          ",
"                      7.L#V#W#O ++++7.j j j j       ]+!@j j j j c+X#7.]+]+]+7.!@j j j             ",
"                      Y#7.N O Z#N 7.`#j j j j         ]+j j j j j 7.7.R#P+]+7.]+j                 ",
"                      {+{+` V#N V#7.{+]+!@S+j           j $@]+$@j 7.7.K#{+ $7.d+j                 ",
"                      7.++.${+{+]+]+j ]+]+]+]+            ]+{++$$@5@@$++{+7.7.j #$$$              ",
"                      {+O  .O %$L#R#{+P+]+]+                S+]+!@ +5@V#N 7. $]+z#7.              ",
"                      {+&$O O *$=$D#g+{+]+]+                ]+]+R+3.j N Z#{+]+P+N 7.              ",
"                      {+++N N N E#7.7.R+]+]+                    {+D+j D+7.{+7.++-$B#w+            ",
"                      j 7.{+7.7.7.7.;$3+]+]+                      {+d+>$D+,$O O B#'$)$N           ",
"                      j 7.7.7.`#{+!$]+]+P+                          ]+j j ~$7.7.N )$E#w+          ",
"                      j 7.E#F#N .${+P+]+{+                            j j j c+O O  .N.O           ",
"                      j 7.E#++E#7.{+{+!$7.                              j _@j {$]$M.M.O           ",
"                         $7.7.7.K#{+{+{+{+                                N ^.N.a#a#0#N           ",
"                      {+{+`#7.7.R#{+{+{+                                j ^$/$($N.M.N. .          ",
"                    o.j+M.O 7.7.R#]+]+                                  j j k.j  .j+P {+          ",
"                  o._$8#N.0#N E#K#R+]+                                  :$j <$<#[$o.o.j           ",
"                  o.^.o.|#|#N.O 7.{+3.                                  ~.8#<#}$|$1$W+].!.        ",
"                j 2$3$8#4$|#N. .++]+{+                                  5+5$P 6$7$0.f.8$          ",
"              j s@7$9$x+a#|#0#^+7.{+{+                                  j 5$G.g./ j 0$a$          ",
"              o.~.b$c$N.0#j+d$0#d+j                                       ;#c g.c ;#g.g.          ",
"              5$8#5+ .a# .x+b$M.j                                         j c j j e$f.f.          ",
"              / / / 3.|# .j+e@f$j                                         j j j g g$0$G.          ",
"            j G.f.+#W+j 0#h$d+j                                           j `+y@j g.i$d           ",
"            j / j$W+k$j d+l$j                                               j } j c d d           ",
"            j ~.%.x@j j j j                                                 j ~.G.t.g.m$          ",
"          j j j j j j j j                                                   j j j W+n$o$          ",
"          j S@].W+].G.c                                                       `+d F.Q@].          ",
"          p$q$].].r$j j                                                       j f.g ].].          ",
"          g.g.].].j j                                                           } d d h.G.        ",
"        `+g.g.s$t$j                                                             <@n+u$v$g.        ",
"        } g.g.g.g.                                                              <@n+w$0 g f.      ",
"      x$g y$i$g.z$                                                              g.g 2+2+A$B$      ",
"      g 0 g C$f.                                                                A$d n+n+g.f.G.    ",
"    g.g s 0 g                                                                   g.g.A$B$2+n+}     ",
"  G.g.g g g g 3 F.                                                              2+2+X.n+f.c j G.  ",
"  G.g.g g d d 0 D$F.k@                                                          2+2+c / f.} } } / ",
"5$G.g.H.g 0+d 0 g g E$k@                                                        F$`+`+`+`+`+c c c ",
"V+G$H$g.g.g.f.G.W+].].].t.F.<                                                   `+`+`+`+`+I$V+    ",
"  I$`+`+`+                                                                                        "};
