/* XPM */
static char * ZPAIB7_xpm[] = {
"45 91 598 2",
"  	c None",
". 	c #594947",
"+ 	c #665350",
"@ 	c #6E5854",
"# 	c #816763",
"$ 	c #856B67",
"% 	c #87716A",
"& 	c #745D5A",
"* 	c #3C3231",
"= 	c #614D4A",
"- 	c #634E4A",
"; 	c #775E5B",
"> 	c #846A66",
", 	c #867069",
"' 	c #715C58",
") 	c #7E5F5A",
"! 	c #836863",
"~ 	c #846B66",
"{ 	c #6B4D48",
"] 	c #4A3D3B",
"^ 	c #5F4B48",
"/ 	c #624E4A",
"( 	c #373739",
"_ 	c #7B5E5A",
": 	c #7F625D",
"< 	c #251E1D",
"[ 	c #5C4A48",
"} 	c #69544F",
"| 	c #6B5551",
"1 	c #4D4646",
"2 	c #866E68",
"3 	c #7F6763",
"4 	c #6F413C",
"5 	c #332928",
"6 	c #4F3C3A",
"7 	c #695350",
"8 	c #66514D",
"9 	c #7D6761",
"0 	c #7D5F5A",
"a 	c #4C2722",
"b 	c #53403E",
"c 	c #312827",
"d 	c #463533",
"e 	c #634E4C",
"f 	c #705955",
"g 	c #7E6862",
"h 	c #373738",
"i 	c #634039",
"j 	c #58332E",
"k 	c #0D0201",
"l 	c #070404",
"m 	c #291715",
"n 	c #5B4643",
"o 	c #614E4A",
"p 	c #54413E",
"q 	c #482F2C",
"r 	c #593530",
"s 	c #41201D",
"t 	c #2B1210",
"u 	c #000000",
"v 	c #010000",
"w 	c #493D3B",
"x 	c #65504C",
"y 	c #7A635E",
"z 	c #6F5855",
"A 	c #65504D",
"B 	c #66504E",
"C 	c #71534F",
"D 	c #584442",
"E 	c #231C1B",
"F 	c #302120",
"G 	c #4A3837",
"H 	c #3C2C2B",
"I 	c #342524",
"J 	c #65514E",
"K 	c #331715",
"L 	c #5E4A47",
"M 	c #6D5753",
"N 	c #433635",
"O 	c #2F3031",
"P 	c #7F6662",
"Q 	c #8B766F",
"R 	c #210C0A",
"S 	c #45312F",
"T 	c #7F6963",
"U 	c #654F4B",
"V 	c #5F4A47",
"W 	c #594643",
"X 	c #4B403F",
"Y 	c #473B3A",
"Z 	c #6A5552",
"` 	c #361F1D",
" .	c #776260",
"..	c #65524F",
"+.	c #604C49",
"@.	c #66504D",
"#.	c #5D4946",
"$.	c #55423F",
"%.	c #3B3535",
"&.	c #444243",
"*.	c #4E4A4C",
"=.	c #635F5F",
"-.	c #635351",
";.	c #4B3938",
">.	c #3C2928",
",.	c #170F0E",
"'.	c #715B57",
").	c #5A4845",
"!.	c #574C4B",
"~.	c #524948",
"{.	c #3B3839",
"].	c #302726",
"^.	c #614C4A",
"/.	c #735B57",
"(.	c #614C49",
"_.	c #3F2E2D",
":.	c #181717",
"<.	c #020000",
"[.	c #574745",
"}.	c #3D3332",
"|.	c #010101",
"1.	c #2E2D2D",
"2.	c #382A28",
"3.	c #413230",
"4.	c #755B56",
"5.	c #67504B",
"6.	c #604D49",
"7.	c #452A27",
"8.	c #111010",
"9.	c #3A2D2B",
"0.	c #463433",
"a.	c #120F0D",
"b.	c #2B2121",
"c.	c #232222",
"d.	c #433939",
"e.	c #1D1211",
"f.	c #3B2E2B",
"g.	c #826A65",
"h.	c #866E6B",
"i.	c #82726A",
"j.	c #74615B",
"k.	c #4F4C4C",
"l.	c #504A4C",
"m.	c #23110D",
"n.	c #050505",
"o.	c #1A1616",
"p.	c #5A5354",
"q.	c #2F2C2C",
"r.	c #0B0A0A",
"s.	c #504A4A",
"t.	c #363232",
"u.	c #432D2A",
"v.	c #78615C",
"w.	c #7F645F",
"x.	c #725956",
"y.	c #4A2F2D",
"z.	c #585354",
"A.	c #716868",
"B.	c #221A1A",
"C.	c #090707",
"D.	c #1B1818",
"E.	c #6C6364",
"F.	c #6D6466",
"G.	c #4E4244",
"H.	c #585051",
"I.	c #2D2423",
"J.	c #0B0808",
"K.	c #6F5A56",
"L.	c #735D59",
"M.	c #7D635E",
"N.	c #7D625D",
"O.	c #533F3B",
"P.	c #3D2D2C",
"Q.	c #372927",
"R.	c #676163",
"S.	c #7E7375",
"T.	c #4C4445",
"U.	c #5E5152",
"V.	c #5A5153",
"W.	c #695D5F",
"X.	c #6D6566",
"Y.	c #2F2424",
"Z.	c #807375",
"`.	c #87787B",
" +	c #554A49",
".+	c #473C3B",
"++	c #6A5452",
"@+	c #150908",
"#+	c #7A625E",
"$+	c #725752",
"%+	c #816964",
"&+	c #543F3C",
"*+	c #513E3C",
"=+	c #5F4C49",
"-+	c #4A3734",
";+	c #6A6263",
">+	c #474142",
",+	c #675D5E",
"'+	c #7F7376",
")+	c #050404",
"!+	c #0E0C0D",
"~+	c #7A6F71",
"{+	c #857879",
"]+	c #786F70",
"^+	c #160502",
"/+	c #372421",
"(+	c #6B5552",
"_+	c #7E6661",
":+	c #725C58",
"<+	c #67514E",
"[+	c #4D3C39",
"}+	c #5D5557",
"|+	c #0F0D0D",
"1+	c #1D1919",
"2+	c #6C6264",
"3+	c #312D2D",
"4+	c #121111",
"5+	c #7D7273",
"6+	c #7C6D70",
"7+	c #837679",
"8+	c #433E3F",
"9+	c #3D2D2B",
"0+	c #221615",
"a+	c #170C0B",
"b+	c #765F5A",
"c+	c #89736D",
"d+	c #846D6B",
"e+	c #624E4B",
"f+	c #4A3A37",
"g+	c #0C0908",
"h+	c #2A1916",
"i+	c #3F3A3B",
"j+	c #121011",
"k+	c #191717",
"l+	c #5B5354",
"m+	c #645C5E",
"n+	c #726A6D",
"o+	c #6C6265",
"p+	c #8A7E80",
"q+	c #7D7375",
"r+	c #180C0B",
"s+	c #241918",
"t+	c #56423F",
"u+	c #745E59",
"v+	c #897570",
"w+	c #66524F",
"x+	c #503D3A",
"y+	c #0A0807",
"z+	c #201A1A",
"A+	c #363333",
"B+	c #5A5455",
"C+	c #322F2F",
"D+	c #2A2828",
"E+	c #635B5C",
"F+	c #756A6C",
"G+	c #776B6D",
"H+	c #0C0807",
"I+	c #5A4744",
"J+	c #87706A",
"K+	c #77615D",
"L+	c #66524E",
"M+	c #4D3C3A",
"N+	c #302D2D",
"O+	c #333030",
"P+	c #23201F",
"Q+	c #342B2B",
"R+	c #4B4546",
"S+	c #332929",
"T+	c #595252",
"U+	c #7E7173",
"V+	c #292626",
"W+	c #584542",
"X+	c #584441",
"Y+	c #7B635E",
"Z+	c #866F6C",
"`+	c #998E85",
" @	c #65514D",
".@	c #1E1513",
"+@	c #110E0E",
"@@	c #322728",
"#@	c #272525",
"$@	c #574441",
"%@	c #795E5A",
"&@	c #5E4B48",
"*@	c #524544",
"=@	c #090808",
"-@	c #2A2727",
";@	c #201917",
">@	c #0F0C0C",
",@	c #52413F",
"'@	c #594542",
")@	c #3C1D1B",
"!@	c #5B4A46",
"~@	c #463D3C",
"{@	c #484343",
"]@	c #423E3F",
"^@	c #171414",
"/@	c #231F1F",
"(@	c #1A1412",
"_@	c #241B19",
":@	c #1B1614",
"<@	c #564340",
"[@	c #75605B",
"}@	c #655553",
"|@	c #765F5B",
"1@	c #2A2121",
"2@	c #140E0C",
"3@	c #222020",
"4@	c #040303",
"5@	c #060504",
"6@	c #1E1816",
"7@	c #5F4B47",
"8@	c #503A36",
"9@	c #41302F",
"0@	c #6A514D",
"a@	c #63514F",
"b@	c #645F5F",
"c@	c #040000",
"d@	c #15110F",
"e@	c #644A46",
"f@	c #5C4845",
"g@	c #352625",
"h@	c #2E2221",
"i@	c #5B5454",
"j@	c #716D6D",
"k@	c #140908",
"l@	c #090101",
"m@	c #070605",
"n@	c #5D4947",
"o@	c #5A4644",
"p@	c #595557",
"q@	c #0C0A09",
"r@	c #0E0C0A",
"s@	c #473F40",
"t@	c #655D5C",
"u@	c #877A7B",
"v@	c #908485",
"w@	c #9C8C8F",
"x@	c #706667",
"y@	c #635554",
"z@	c #403130",
"A@	c #2C2726",
"B@	c #5B5859",
"C@	c #6A6465",
"D@	c #6E5656",
"E@	c #493835",
"F@	c #775A55",
"G@	c #2B2120",
"H@	c #2E2220",
"I@	c #7B0600",
"J@	c #5B0000",
"K@	c #443735",
"L@	c #5B4440",
"M@	c #5A413D",
"N@	c #110D0D",
"O@	c #0D0A09",
"P@	c #181211",
"Q@	c #170B09",
"R@	c #42201B",
"S@	c #231B18",
"T@	c #59423E",
"U@	c #971A05",
"V@	c #645655",
"W@	c #4B3836",
"X@	c #362320",
"Y@	c #160807",
"Z@	c #33130A",
"`@	c #2F2423",
" #	c #211412",
".#	c #201A19",
"+#	c #1C0D0A",
"@#	c #423533",
"##	c #281412",
"$#	c #20100F",
"%#	c #0D0807",
"&#	c #030101",
"*#	c #352524",
"=#	c #0C0000",
"-#	c #160E0E",
";#	c #270100",
">#	c #220D0B",
",#	c #090504",
"'#	c #130E0D",
")#	c #170E0E",
"!#	c #100C0B",
"~#	c #1F0100",
"{#	c #39120F",
"]#	c #2A1715",
"^#	c #201615",
"/#	c #574847",
"(#	c #27201F",
"_#	c #080000",
":#	c #310807",
"<#	c #3E2D2C",
"[#	c #4C3B39",
"}#	c #604D4A",
"|#	c #4D3D3C",
"1#	c #483A38",
"2#	c #382D2B",
"3#	c #2A1D1C",
"4#	c #120B0B",
"5#	c #090000",
"6#	c #2B1312",
"7#	c #5D4A47",
"8#	c #685350",
"9#	c #735D58",
"0#	c #7C6563",
"a#	c #645351",
"b#	c #3E3332",
"c#	c #0C0707",
"d#	c #0B0000",
"e#	c #171212",
"f#	c #373131",
"g#	c #181212",
"h#	c #837879",
"i#	c #2E0000",
"j#	c #340808",
"k#	c #A79596",
"l#	c #665A5C",
"m#	c #463D3E",
"n#	c #211514",
"o#	c #211C1C",
"p#	c #232020",
"q#	c #575455",
"r#	c #696364",
"s#	c #8E8182",
"t#	c #AF989B",
"u#	c #A59294",
"v#	c #A38E90",
"w#	c #776F70",
"x#	c #242424",
"y#	c #301613",
"z#	c #817778",
"A#	c #867A7B",
"B#	c #83797B",
"C#	c #766F70",
"D#	c #938688",
"E#	c #766364",
"F#	c #100000",
"G#	c #6E3D3B",
"H#	c #887C7D",
"I#	c #8E8183",
"J#	c #877C7D",
"K#	c #7F7677",
"L#	c #918586",
"M#	c #A59395",
"N#	c #7C6362",
"O#	c #180808",
"P#	c #1D0B09",
"Q#	c #341310",
"R#	c #524F4F",
"S#	c #585556",
"T#	c #998A8D",
"U#	c #AD9799",
"V#	c #987E81",
"W#	c #231314",
"X#	c #030000",
"Y#	c #464242",
"Z#	c #1C0C0B",
"`#	c #160605",
" $	c #391310",
".$	c #96888A",
"+$	c #98898C",
"@$	c #948788",
"#$	c #564445",
"$$	c #0D0000",
"%$	c #3D1C18",
"&$	c #050000",
"*$	c #7A7273",
"=$	c #877B7D",
"-$	c #8C8082",
";$	c #85797A",
">$	c #8C8081",
",$	c #928687",
"'$	c #886C6E",
")$	c #140000",
"!$	c #776E70",
"~$	c #7E7476",
"{$	c #827879",
"]$	c #463838",
"^$	c #1D0000",
"/$	c #3D393A",
"($	c #282524",
"_$	c #524E4E",
":$	c #726A6C",
"<$	c #786F71",
"[$	c #756D6E",
"}$	c #454142",
"|$	c #4B4748",
"1$	c #2B2929",
"2$	c #070000",
"3$	c #120000",
"4$	c #5A5254",
"5$	c #585454",
"6$	c #534F4F",
"7$	c #272425",
"8$	c #0E0301",
"9$	c #1E1919",
"0$	c #4E4849",
"a$	c #4A4446",
"b$	c #151111",
"c$	c #0E0D0D",
"d$	c #413C3D",
"e$	c #4F4849",
"f$	c #454141",
"g$	c #464343",
"h$	c #181414",
"i$	c #1F1B1B",
"j$	c #331C18",
"k$	c #3F3B3C",
"l$	c #343131",
"m$	c #2E2B2B",
"n$	c #383535",
"o$	c #312D2E",
"p$	c #413D3E",
"q$	c #656061",
"r$	c #343031",
"s$	c #343132",
"t$	c #1D1A19",
"u$	c #1A1717",
"v$	c #242223",
"w$	c #877D7E",
"x$	c #544F50",
"y$	c #8B8081",
"z$	c #544344",
"A$	c #9C8B8C",
"B$	c #646061",
"C$	c #1C1818",
"D$	c #645F60",
"E$	c #B09A9B",
"F$	c #B49B9D",
"G$	c #8F8284",
"H$	c #494646",
"I$	c #4C4949",
"J$	c #131212",
"K$	c #433F40",
"L$	c #14100F",
"M$	c #968686",
"N$	c #575253",
"O$	c #535050",
"P$	c #3A3637",
"Q$	c #494546",
"R$	c #6D6768",
"S$	c #050303",
"T$	c #302C2C",
"U$	c #170B0B",
"V$	c #020101",
"W$	c #150C0B",
"X$	c #251D1D",
"Y$	c #020202",
"Z$	c #130909",
"`$	c #201413",
" %	c #332423",
".%	c #0F0403",
"+%	c #160A09",
"@%	c #282523",
"#%	c #271B1A",
"$%	c #372726",
"%%	c #4E3E3D",
"&%	c #453433",
"*%	c #0D0604",
"=%	c #2B1E1D",
"-%	c #0C0604",
";%	c #22120E",
">%	c #1F1412",
",%	c #42231E",
"'%	c #371D18",
")%	c #1F0F0C",
"!%	c #705E5D",
"~%	c #42211C",
"{%	c #100404",
"]%	c #2F2322",
"^%	c #201514",
"/%	c #2B2322",
"(%	c #352726",
"_%	c #1D1615",
":%	c #392A29",
"<%	c #655250",
"[%	c #312221",
"}%	c #221716",
"|%	c #4A3B3A",
"1%	c #806B69",
"2%	c #332322",
"3%	c #382827",
"4%	c #1D0A07",
"5%	c #3B3130",
"6%	c #3F2F2E",
"7%	c #251817",
"8%	c #1F1312",
"9%	c #170A08",
"0%	c #362524",
"a%	c #392928",
"b%	c #1A0E0D",
"c%	c #190906",
"d%	c #180604",
"e%	c #18110F",
"f%	c #281614",
"g%	c #0B0605",
"                                        . + @ # $ % &                                     ",
"                                      * = - ; > , ' ) ! ~                                 ",
"                                    { ] ^ / ( ~ % & _ : ~                                 ",
"                                    < [ } | 1 2 2 3 & 4 >                                 ",
"                                    5 6 7 8 9 0 2 2 & 4 a b &                             ",
"                                    c d e f g h > > & i j & &                             ",
"                                    k l m n o 8 p q r j j s a t                           ",
"                                    u v w x y z A B > a 4 a C D                           ",
"                                      u E F G H I G J a j a K &                           ",
"                                    L M N O D & P Q 2 D G R S >                           ",
"                                T U V W X Y D Z & H H ` G R R J                           ",
"                               ...+.@.#.#.$.%.&.*.=.-.;.G R >.J                           ",
"                            ,.L A '.8 ).!.~.{.].F ^./.(.W _.H &                           ",
"                      :.:.<.[.D }.u |.v 1.:.F t H 2.3.4.5.6.7.                            ",
"                      :.8.u 9.0.a.u u b.c.d.G G G e.f.g.h.i.j.K                           ",
"                    k.l.u m.n.o.p.q.r.s.t.H & & & R u.7 v.w.x.y.                          ",
"                    z.A.B.C.D.E.F.b.G.H.I.G J > F F J.K.L.M.N.O.P.                        ",
"                  Q.R.S.T.U.V.W.X.Y.Z.`. +.+D ++H H @+@.#+$+%+&+*+=+                      ",
"                -+v k.;+>+,+'+n.)+!+~+{+]+.+G D D ^+/+(+_+:+#+<+[+;.                      ",
"                -+m.u }+|+1+2+3+u 4+5+6+7+8+D 9+0+a+-+b+c+d+g.e+f+g+                      ",
"                Q.h+v i+j+k+l+m+u v n+o+p+q+D 0+r+s+t+u+~ v+%+w+x+y+                      ",
"                z+Q.-+u u A+k+B+C+u D+E+F+G+* H+0+I+^ v.J+~ K+L+M+N+                      ",
"                o.O+P+o.o.o.Q+R+S+u u o.T+U+1.V+<.W+X+Y+Z+`+g. @[+                        ",
"              O+u O+o.u o..@O+O+b.u n.+@b.@@o.#@)+$@$@v.~ Q %@&@*@                        ",
"            O+O+u O+o.=@-@o.;@.@Q.g+o.n.u u u u >@,@'@L.2 )@M !@~@                        ",
"            m.{@]@a.^@/@O+=@o.o.(@_@u u u u u u :@<@V [@}@|@x 1@:.                        ",
"            <.<.<.u 2@O+3@u o.u 4@a.5@u u u u u 6@X+7@8@9@0@a@b@r.                        ",
"            <.k c@<.u o.u u +@o.o.|.a..@u u u u d@e@f@g@h@H i@j@r.                        ",
"            r+k@l@u u u u u u u u u u u u u u o.m@n@o@*.=.=.p@&.m.                        ",
"            E 0+u u u u u u u u u u u u u u q@r@u s@t@u@v@w@x@y@z@v                       ",
"            <.k <.u u     u u u u u u u u u a.|.u .@A@B@C@D@E@F@G@u                       ",
"            E u u u u u u u u u u u u u u u u u u H@.@I@J@K@L@M@N@u                       ",
"            E O@P@<.u P@Q@u u u u u u u u R@v u u S@T@I@U@V@W@X@u u                       ",
"            u E u u u u v v 2@u u u u v Y@u u u u m.u a.Z@d.`@ #<.u                       ",
"            .#u u u u u +#m.m.u u u @#t F r+<.u <.u u m.u K ##$#                          ",
"            %#E <.u u u &#+#Q@u u u & *#=#-#u l@E u u k u Y@;#>#u                         ",
"                u ,#'#u u u u u u v .+=#)#u .#* P@!#u r+-#u ~#{#u                         ",
"                              u u F H ]#u ^#/#* (#].u * .+u _#;#:#                        ",
"                              u u c@H <#[#}#|#1#2#3#4#^#.+u u 5#6#^+                      ",
"                            -+u u F > 7 7#8#9#0#a#b#F c#-#u u v d#u                       ",
"                          T@Q.u u e#f#F F F H G /#g#<.u u   u u u <.u                     ",
"                          v@h#i#j#k#l#m#n#o#=.p#<.<.u u u     R u u 5#                    ",
"                        q#k.r#v v s#t#u#w@w@v#w#d#u u u x#h#  u y#J 0+u                   ",
"                      .@k.]@k.m.z#A#w@w@B#C#D#w@E#F#F#k.k.h#&.  :#G#r+=#                  ",
"                      b.q#k.k.F#H#I#w@w@J#K#L#M#N#O#P#k.q#C@1.  ;#Q#t R                   ",
"                      {@C@R#S#F#L#w@w@w@w@v@T#U#V#W#X#Y#B@C@B@  u Z#`#d# $R               ",
"                      {@C@B@B@F#h#.$L#w@w@w@+$v@@$#$$$u u o.C#  u u ;#^+%$&$d#            ",
"                      {@C@B@B@v *$=$-$;$>$v@v@v@v@,$'$)$u +@O+v@u u ;#d#)@^+u             ",
"                        ]@k.]@b.b.]@!$~${$C#h#w@+$v@v@]$u u u o.u u ;#^$;#t   u           ",
"                          ]@/$O+a.($_$:$<$[$}$C@C@C@C@|$1$u u +@d#u 2$3$;#t u             ",
"                          O+O+O+5@a.k.}$4$5$6$B@B@B@B@]@7$u u u d#Z@u 8$R X#u             ",
"                          o.O+O+/@a.u +@9$0$a$]@k.k.k.o.u b$o.+@u u u u u u u             ",
"                          O+O+O+O+a.u u u c$d$e$f$k.g$o.o.o.o.o.m.2@u u u u u             ",
"                          ]@]@/$O+a.u u u u n.h$o#B@O+u u O+O+i$m..@m.u u u u             ",
"                          ]@]@]@O+a.u u u u o.n.u k.]@u +@o./@-@q@u u u u j$]@            ",
"                          ]@]@/$O+o.=@u u u u u u 3@o.O+O+=@o.O+u u o.n.u =@o.            ",
"                          o.-@O+-@o.o.+@u u o.u o.u +@k$l$8.o.O+u u o.o.O+o.o.            ",
"                          o.o.o.o.o.i$m$u u /$n$o.u u |$k$O+]@]@u u ]@]@a.k.k.            ",
"                          ]@]@n$O+O+O+O+o.o.o$]@]@]@o.o.o.k.]@n$n.b$B@B@u q.C@v@          ",
"                          l$p$]@k$l$O+O+o.o.o.C+p$k.  =@o.k./$m$o.-@q$B@u u Y#h#h#        ",
"                          i$A+]@]@]@O+-@o.o.O+o.l$]@    a.O+m$o.r$]@]@k.s$c$u B@]@C@      ",
"                            O+o.o.O+i$o.o.r$/$O+t$        u u$-@k.C@C#C#]@]@b.C#k.C#      ",
"                            m$o.o.o.o.o.o.]@]@O+a.          u 3@]@]@k.B@k.k.k.v$Y#C@h#    ",
"                            o.A+O+O+O+-@o.n$]@O+@@            u u O+C#w$v@w@v@Y#v$k.h#    ",
"                              O+O+O+O+-@o.O+k..@B@                x$C#C#C#y$J#h#z$C#C#    ",
"                              o.o.O+i$i$O+O+b.@@B@              b.C#A$w@y$C#B$w@z$C@C@    ",
"                            O+o.O+o.o.o.C$m$]@k.D$              R@w@E$F$v@y$C#G$j$d#u     ",
"                          k.H$m$o.O+C$o.o.o.]@I$k.              b.C#E$v@w#h#A$C#v u       ",
"                        O+B@C@O+o.O+O+o.h$J$]@K$k.              r.o#^$k L$=.M$j$u u       ",
"                      O+N$q#O$k$A+O+i$o.J$P$o.]@                u u c@=#k Q$=.v u         ",
"                    v B$R$k.S#]@]@r$o.o.]@o.]@                  3$d#=#=#=#X#S$C@o.        ",
"                    u R$B$B@B@]@T$o.-@-@o.O+o.                  X#u 0+U$=#5#u C@u         ",
"                  O+C@]@u F#]$r$h$n.u u u u                   u V$W$0+0+=#=#k m.          ",
"                m.b.B@]@v m.X$h$Y$u u u                       u Z$`$0+ %=#.%+%j$          ",
"                Q.S@B@{@z$@%b$Y$u u u u                       u r+0+0+F =#r+r+j$          ",
"              .@.@.@o.]$Q@u u u u u                           u <.0+#%H =#0+k             ",
"            u u u u u u u u u u                               u F 0+$%%%F 0+].            ",
"            u u u u u u u u u                                 u r+0+H &%.+-#u             ",
"            v *%m.m.m.m.+#u                                   k <.=%H H F u               ",
"          j$m.m.m.-%-%;%>%                                    u &$H G H =#                ",
"          j$m.m.m.v .@.@.@                                    R R =#G H /#                ",
"        ,%,%,%'%Q@u Q.                                      <.* F )%0+!%r+                ",
"      ,%~%{%r+k u v                                         E ]%.+F =#F u                 ",
"      r+r+r+^%/%P@                                          ]..+(%F 0+D u                 ",
"  ].F H =%0+]._%                                            E * H H G H &$                ",
"  F F :%H H D H                                             E ]..+/#J <%F !%H             ",
"  F F [%H F J F R                                         }%E ].r+r+0+F |%1%H             ",
"<.F F F 2%3%H ^+4%F t                                     E 5%/#.+.+.+.+/#.+H G 6%        ",
"u 7%F 7%8%r+=#9%^+G ^+0%R                                 u u u <.<.<.k 0+0+F a%G G       ",
"u b%0+c%r+.%u u =#r+^+R d%J G                             e%u !#E ].].* .+* .+r+0+f%G     ",
"                  g%g%g%u u u u u                         Q.g%g%g%g%g%g%g%g%g%u u <.r+}@F "};
