/* XPM */
static char * ZPAIB8_xpm[] = {
"25 92 497 2",
"  	c None",
". 	c #544543",
"+ 	c #524443",
"@ 	c #5E4F4C",
"# 	c #564745",
"$ 	c #7B6460",
"% 	c #745D5A",
"& 	c #423231",
"* 	c #4C3E3D",
"= 	c #514342",
"- 	c #765F5C",
"; 	c #776561",
"> 	c #76615D",
", 	c #5F514F",
"' 	c #846A66",
") 	c #846B66",
"! 	c #423635",
"~ 	c #4A3E3D",
"{ 	c #493E3D",
"] 	c #5B4C49",
"^ 	c #574442",
"/ 	c #473C3B",
"( 	c #806B69",
"_ 	c #856E66",
": 	c #524240",
"< 	c #483D3C",
"[ 	c #564744",
"} 	c #1D1615",
"| 	c #705E5D",
"1 	c #473331",
"2 	c #705855",
"3 	c #21272B",
"4 	c #171D22",
"5 	c #65514E",
"6 	c #59423E",
"7 	c #504241",
"8 	c #4F4240",
"9 	c #2E2726",
"0 	c #332A29",
"a 	c #4A3837",
"b 	c #836964",
"c 	c #282E32",
"d 	c #735A58",
"e 	c #7B5B58",
"f 	c #644D4A",
"g 	c #876F6A",
"h 	c #0B0605",
"i 	c #534544",
"j 	c #4D4140",
"k 	c #4B3D3C",
"l 	c #261F1E",
"m 	c #3E3433",
"n 	c #372523",
"o 	c #331715",
"p 	c #321D1C",
"q 	c #372221",
"r 	c #634744",
"s 	c #362B2A",
"t 	c #352A29",
"u 	c #2D2524",
"v 	c #282120",
"w 	c #44312E",
"x 	c #54413E",
"y 	c #210C0A",
"z 	c #2E1210",
"A 	c #120504",
"B 	c #180807",
"C 	c #362221",
"D 	c #191312",
"E 	c #231C1B",
"F 	c #000000",
"G 	c #2E100D",
"H 	c #2B1210",
"I 	c #29110F",
"J 	c #331E1D",
"K 	c #1A0A08",
"L 	c #0C0A0A",
"M 	c #262120",
"N 	c #150402",
"O 	c #311310",
"P 	c #584442",
"Q 	c #4A2F2C",
"R 	c #070000",
"S 	c #837E78",
"T 	c #63514E",
"U 	c #4C403F",
"V 	c #675552",
"W 	c #4D3E3D",
"X 	c #181211",
"Y 	c #625251",
"Z 	c #251D1C",
"` 	c #392B2A",
" .	c #3C1D1B",
"..	c #382421",
"+.	c #908E86",
"@.	c #483A39",
"#.	c #574947",
"$.	c #62514F",
"%.	c #190D0C",
"&.	c #291D1C",
"*.	c #221615",
"=.	c #0C0000",
"-.	c #1F0F0C",
";.	c #302120",
">.	c #3E0000",
",.	c #040000",
"'.	c #50403F",
").	c #4B403F",
"!.	c #594948",
"~.	c #604F4E",
"{.	c #544643",
"].	c #3B302E",
"^.	c #4E3C3B",
"/.	c #53403E",
"(.	c #3C2C2B",
"_.	c #473534",
":.	c #352625",
"<.	c #020000",
"[.	c #74706A",
"}.	c #181717",
"|.	c #40393A",
"1.	c #453A39",
"2.	c #5B4B49",
"3.	c #7B645F",
"4.	c #62514E",
"5.	c #544644",
"6.	c #534442",
"7.	c #554140",
"8.	c #191313",
"9.	c #1C0F0F",
"0.	c #453332",
"a.	c #382827",
"b.	c #050000",
"c.	c #484343",
"d.	c #595557",
"e.	c #1D1818",
"f.	c #473B3A",
"g.	c #6B5754",
"h.	c #856D68",
"i.	c #7A6560",
"j.	c #160502",
"k.	c #4D3B39",
"l.	c #9C8C8F",
"m.	c #373131",
"n.	c #180C0B",
"o.	c #1C1514",
"p.	c #816965",
"q.	c #846C67",
"r.	c #504341",
"s.	c #382423",
"t.	c #614D4A",
"u.	c #333030",
"v.	c #302726",
"w.	c #170E0E",
"x.	c #4C403E",
"y.	c #7C6460",
"z.	c #3C2523",
"A.	c #0B0000",
"B.	c #231514",
"C.	c #392928",
"D.	c #1A1616",
"E.	c #423E3F",
"F.	c #6E514C",
"G.	c #79635F",
"H.	c #4D413F",
"I.	c #2B1917",
"J.	c #512C2B",
"K.	c #311F1C",
"L.	c #866E68",
"M.	c #635F5F",
"N.	c #3F2F2E",
"O.	c #241716",
"P.	c #775E59",
"Q.	c #856C67",
"R.	c #705D5A",
"S.	c #413332",
"T.	c #221413",
"U.	c #58332E",
"V.	c #8B766F",
"W.	c #4E4A4C",
"X.	c #4F4C4C",
"Y.	c #433635",
"Z.	c #5A4746",
"`.	c #705956",
" +	c #79625E",
".+	c #534341",
"++	c #403231",
"@+	c #3D1C18",
"#+	c #343130",
"$+	c #554745",
"%+	c #685652",
"&+	c #86706A",
"*+	c #87746E",
"=+	c #675551",
"-+	c #483B3A",
";+	c #544240",
">+	c #4C2722",
",+	c #9A594F",
"'+	c #393636",
")+	c #454242",
"!+	c #070403",
"~+	c #554644",
"{+	c #705B58",
"]+	c #866F6A",
"^+	c #8D827C",
"/+	c #6F5C58",
"(+	c #2E2525",
"_+	c #040303",
":+	c #95878A",
"<+	c #513835",
"[+	c #201A19",
"}+	c #5C4B4A",
"|+	c #5E4C4A",
"1+	c #413433",
"2+	c #271816",
"3+	c #030000",
"4+	c #402C29",
"5+	c #84797A",
"6+	c #421F1F",
"7+	c #837879",
"8+	c #413D3D",
"9+	c #3D3231",
"0+	c #6D5855",
"a+	c #866E69",
"b+	c #604E4B",
"c+	c #6C5956",
"d+	c #564746",
"e+	c #100C0B",
"f+	c #574644",
"g+	c #827879",
"h+	c #83797A",
"i+	c #522727",
"j+	c #3A3131",
"k+	c #64504E",
"l+	c #7B635F",
"m+	c #856E68",
"n+	c #624F4C",
"o+	c #826B65",
"p+	c #23110D",
"q+	c #8C605B",
"r+	c #1E0000",
"s+	c #1B1819",
"t+	c #7E7576",
"u+	c #7D7576",
"v+	c #7F7677",
"w+	c #5A2223",
"x+	c #0E0C0A",
"y+	c #3C3231",
"z+	c #634845",
"A+	c #3B2623",
"B+	c #2E0000",
"C+	c #42201B",
"D+	c #2D2424",
"E+	c #7D7475",
"F+	c #787071",
"G+	c #7A7273",
"H+	c #503733",
"I+	c #79615C",
"J+	c #503632",
"K+	c #5B5454",
"L+	c #8A7370",
"M+	c #6A6465",
"N+	c #70696A",
"O+	c #736C6D",
"P+	c #776F70",
"Q+	c #71696A",
"R+	c #4C3F3F",
"S+	c #090101",
"T+	c #7F625D",
"U+	c #77605C",
"V+	c #55322D",
"W+	c #8C8282",
"X+	c #948586",
"Y+	c #6A6566",
"Z+	c #756D6E",
"`+	c #4E494A",
" @	c #5F5A5B",
".@	c #625E5F",
"+@	c #5B5859",
"@@	c #120F0D",
"#@	c #512D27",
"$@	c #854D47",
"%@	c #76605C",
"&@	c #806964",
"*@	c #2F1917",
"=@	c #666162",
"-@	c #817778",
";@	c #7C7475",
">@	c #797273",
",@	c #544344",
"'@	c #0E0D0D",
")@	c #544F50",
"!@	c #191717",
"~@	c #1E1513",
"{@	c #856F6B",
"]@	c #836F6B",
"^@	c #7F6C6A",
"/@	c #806B66",
"(@	c #463838",
"_@	c #7B7374",
":@	c #797172",
"<@	c #706A6B",
"[@	c #190000",
"}@	c #150000",
"|@	c #7F6964",
"1@	c #83716F",
"2@	c #86706C",
"3@	c #836C67",
"4@	c #84797B",
"5@	c #857B7C",
"6@	c #4A4546",
"7@	c #0F0000",
"8@	c #87706B",
"9@	c #9A6259",
"0@	c #7F635C",
"a@	c #8C736F",
"b@	c #877B7C",
"c@	c #595353",
"d@	c #140000",
"e@	c #644843",
"f@	c #68514E",
"g@	c #594944",
"h@	c #655958",
"i@	c #715858",
"j@	c #373434",
"k@	c #010101",
"l@	c #060000",
"m@	c #100000",
"n@	c #331C18",
"o@	c #5A4542",
"p@	c #664B44",
"q@	c #504141",
"r@	c #322728",
"s@	c #64261D",
"t@	c #8A564F",
"u@	c #30211E",
"v@	c #130303",
"w@	c #5C413E",
"x@	c #010000",
"y@	c #79615D",
"z@	c #25130F",
"A@	c #080000",
"B@	c #71423C",
"C@	c #762B1E",
"D@	c #3C1104",
"E@	c #67504C",
"F@	c #705A56",
"G@	c #090000",
"H@	c #510000",
"I@	c #0D0201",
"J@	c #0E0301",
"K@	c #544140",
"L@	c #826A66",
"M@	c #352523",
"N@	c #211C1C",
"O@	c #110402",
"P@	c #160807",
"Q@	c #270100",
"R@	c #836A65",
"S@	c #836B66",
"T@	c #78605D",
"U@	c #1C0C0B",
"V@	c #7F6763",
"W@	c #806864",
"X@	c #0B0A0A",
"Y@	c #655553",
"Z@	c #4B3937",
"`@	c #7F6762",
" #	c #7E6661",
".#	c #070404",
"+#	c #41302F",
"@#	c #443331",
"##	c #3E2D2B",
"$#	c #1A0B08",
"%#	c #170A08",
"&#	c #604C4C",
"*#	c #0F0201",
"=#	c #2B2525",
"-#	c #373333",
";#	c #4B4748",
">#	c #5B0000",
",#	c #94301E",
"'#	c #B09A9B",
")#	c #908485",
"!#	c #7F7576",
"~#	c #4C0000",
"{#	c #6B0400",
"]#	c #8A0C00",
"^#	c #766F70",
"/#	c #5E5B5C",
"(#	c #676162",
"_#	c #1B0000",
":#	c #420000",
"<#	c #7B0600",
"[#	c #A26D66",
"}#	c #8F8284",
"|#	c #3A1E1E",
"1#	c #230000",
"2#	c #5E251C",
"3#	c #58231C",
"4#	c #52221B",
"5#	c #A99597",
"6#	c #3D393A",
"7#	c #817171",
"8#	c #A18E8F",
"9#	c #524E4F",
"0#	c #47241F",
"a#	c #412929",
"b#	c #1F1B1B",
"c#	c #4E0F0D",
"d#	c #2E2B2B",
"e#	c #6E6869",
"f#	c #736D6E",
"g#	c #464343",
"h#	c #110E0E",
"i#	c #170B09",
"j#	c #726B6C",
"k#	c #6D6667",
"l#	c #2A2727",
"m#	c #222020",
"n#	c #0A0808",
"o#	c #151110",
"p#	c #3F1E19",
"q#	c #322A2B",
"r#	c #535050",
"s#	c #231512",
"t#	c #2A140E",
"u#	c #231F1F",
"v#	c #151111",
"w#	c #050505",
"x#	c #2B2121",
"y#	c #171515",
"z#	c #282424",
"A#	c #504B4C",
"B#	c #605C5D",
"C#	c #8B7E81",
"D#	c #383535",
"E#	c #C7A7AA",
"F#	c #352D2D",
"G#	c #807677",
"H#	c #8C8081",
"I#	c #464142",
"J#	c #4A4647",
"K#	c #6F6869",
"L#	c #4D4A4B",
"M#	c #4C4949",
"N#	c #454142",
"O#	c #625C5D",
"P#	c #7E7475",
"Q#	c #E7B5B8",
"R#	c #3D3A3A",
"S#	c #242223",
"T#	c #877D7E",
"U#	c #736B6C",
"V#	c #7A7172",
"W#	c #948788",
"X#	c #83797B",
"Y#	c #806A6B",
"Z#	c #372C2D",
"`#	c #98898C",
" $	c #887D7E",
".$	c #281511",
"+$	c #1A0B09",
"@$	c #0F0C0C",
"#$	c #341C18",
"$$	c #4A4646",
"%$	c #372927",
"&$	c #3F3232",
"*$	c #0A0404",
"=$	c #090606",
"-$	c #0D0A09",
";$	c #281E1D",
">$	c #1F1716",
",$	c #171212",
"'$	c #342B2A",
")$	c #302524",
"!$	c #1B0F0E",
"~$	c #3A2F2E",
"{$	c #574847",
"]$	c #150B0A",
"^$	c #433736",
"/$	c #130909",
"($	c #4E403F",
"_$	c #87716B",
":$	c #090504",
"<$	c #655250",
"[$	c #65524F",
"}$	c #0A0605",
"|$	c #020101",
"1$	c #100404",
"2$	c #302322",
"3$	c #574846",
"4$	c #140E0D",
"5$	c #2B1D1C",
"6$	c #040202",
"7$	c #6E5855",
"8$	c #514241",
"                            . + @ # $ %           ",
"                        & * = - ; > , % ' )       ",
"                      ! ~ { ] ^ / ( ' ) ' _ '     ",
"                      : < { [ } | 1 2 % 3 4 5     ",
"                    6 7 { 8 9 0 a 1 b c d e f g   ",
"                    h i j k l m / n d o b p q r   ",
"                      l s t u v / w x y z A B C   ",
"                      h D E 0 F ' G f H I J K F ' ",
"                      F F L M F a N O P Q 5 F R S ",
"                  T U V W X Y Z `  .a ) 5 ..F +.F ",
"              P @.< #.#.$.D %.&.X *.=.-.;.;.>.,.F ",
"              './ ).!.~.{.].^./.F (._.:.=.;.>.<.[.",
"          F }.|.1.2.3.4.5.6.7.a 8.9.(.0.;.a.>.b.b.",
"        c.d.E e.f.g.h.i.7 '.j.7.a *.k.7.P =.>.y 5 ",
"        l.m.n.o.{ p.q.q.r.s.F P / P P t.% ;.>.*.  ",
"      u.v.w.<.j.x.y.) h.@.z.A. .% % E a ' (.<.B.C.",
"    D.E.a <.F j.a F.) G.H.I.J.K.5 L.5 M.  L.P N.B.",
"    u.c./ F F O.(.P.Q.R.S.T.y 5 5 U.V.n.W.        ",
"    u.X.E X F Y.Z.`. +.+++/ (.5 3.(.@+% M.        ",
"    u.#+h F F $+%+&+*+=+-+;+n.=.P >+@+y m.,+      ",
"    '+)+!+F F ~+{+]+^+/+(+_+F F <.F F F :+<+      ",
"    X.'+F [+a }+{+) |+1+2+F F F F F 3+4+5+6+7+    ",
"    u.8+9+E *.T 0+a+b+c+d+e+F <.F F f+g+h+i+7+    ",
"    D.j+c.E *.k+l+m+n+o+v.p+p+q+r+s+t+u+v+w+l.    ",
"    x+F F !+y+H z+q.A+;.F B+B+C+D+E+F+G+E+H+l.    ",
"    F F F F y+5 % I+J+K+m.L+M+N+D.O+P+P+Q+R+      ",
"    F F F S+=.a+T+U+V+M.W+X+Y+O+D.Z+`+ @.@+@      ",
"      @@#@$@F %@L.&@*@=@t+-@;@>@E.,@'@)@!@X.      ",
"      F ~@X.{@]@^@/@(@g+_@:@F+<@[@}@F F F M+      ",
"      F E.X.|@1@2@3@c.h+4@5@6@c.}@7@F F F         ",
"        u.D.8@9@0@a@c.b@c@r+d@F F F F F x+        ",
"        p+c.e@f@g@h@i@j@k@F F F F F l@m@E.        ",
"        ~@(@n@o@p@q@n@F F F F F F F m@b.r@  s@    ",
"        ~@p+u.t@u@v@w@r+x@A.F F F F d@p+    ~@    ",
"        <.<.F x@n.F y@z@,.A@p+~@m@~@F B@C@  m@>.D@",
"        F <.F F n.H E@F@G@F F F p+F F n@B+$@C@H@>.",
"        I@=.J@F v.H K@L@M@G@F <.N@F O@(.y P@F F r+",
"        I@| / Q@;.E R@S@T@j.<.<.}.      F F F F F ",
"        y+(.;.H U@F V@S@W@*.I@I@X@F j.;.y F F F F ",
"      ;.Y@( ) F F S+Z@`@ #a n.a <.  .#F F F F     ",
"    n@<.<.I@n.F F X +#@###*.*.F % F               ",
"    p+c.~@F <.F F x@j.P (.*.$#%#*.*.              ",
"  +@+@M+&#r+r+s@J@F ;.d.h F *#j.=#-#h }.          ",
"E.+@;#X.,@x@m@>#,#m@,+'#)#B+r+m@'#!#G+B+c.        ",
"X.X.;#+@&#l@A.~#{#>.]#s@^#p+r+B+)#:@7+p+r@        ",
"E.+@/#(#7+A.l@_#:#B+<#[#C@,#m@C+l.}#^#x@C+        ",
"X.X.M+^#^#i@|#F B+1#2#3#4#<#r+&#l.5#7+>#i@        ",
"u.6#M+M+7+7#i@x@n@x@3#2#B+~#F 4#7+8#)#>.7+        ",
"  u.9#M+G+7+7+~@m@r+r+C@0##@X.+@a#7+&#4#^#        ",
"  b#u.u.X.X.X.u.x@r+r+s@#@c#D.d#8+r@m@e#f#        ",
"    u.u.g#X.g#h#F i#m@B+m@>.D.D.u.u.r+j#k#        ",
"      u.D.l#m#F F F F x@@@n#D.d#E.X.,@+@+@        ",
"          D.F h#o#@@x@A.p+D.p#u.u.u.q#r#+@        ",
"          D.F h#D.D.x@F r+s#t#n@u#u.u.^#M+        ",
"            v#w#w#D.F D.F t#s#u.E.E.+@c.E.        ",
"              F F F F D.F x#F F E.X.^#,@E.        ",
"              F F F F u.y#F m#D.z#A#M+&#M+        ",
"              F F F F 6#u.F B#M+^#M+C#^#X.        ",
"                h#F F E.D#F M+e#:@7+E#E#M+        ",
"                u.F h#E.E.F#c.^#G#H#l.'#l.        ",
"                  w#b#D#E.I#!@(@;#J#K#7+l.        ",
"                  D.u.L#M#N#x@x@E.O#P#H#Q#        ",
"                    D.E.R#X.M+S#+@M+^#^#'#        ",
"                    u.E.^#7+P#K#x@X.T#^#'#        ",
"                    D.+@U#V#^#7+x@M+!#^#'#        ",
"                      ^#V#U#W#l.x@M+^#^#l.        ",
"                    l.)#7+X#}#Y#x@Z#F >.x@        ",
"                  ^#7+M+l.}#X#A.F F x@@@          ",
"                  ~#r@)#'#)#Z#F F F F +@          ",
"              +@+@F F `# $j#F F F F               ",
"              ,@m@.$n@x#M+V#@@F i#x#              ",
"              F h n@n@r@l.)#F F p+F               ",
"            X.F n@+$I@F F @$r+#$F F               ",
"          X.$$%$F E <.F F F n.I@                  ",
"          E.&$F F n.<.<.F F n.I@                  ",
"          F F F e+n.*$E =$<.x@F                   ",
"          F F -$E ;$n.>$E ,$F                     ",
"        F F F E E '$)$n.[+F                       ",
"        ~@F F !$*.y+y+F F F                       ",
"        F F F *.~$;.<.F F                         ",
"        F F F y+y+y+/ F F                         ",
"      F F ,$n.*.Y@=.I@y+                          ",
"    F F -$E {$<.a F R <.                          ",
"    <.F E ]$*.(.^$F F F                           ",
"    <.<.E '$y+(.(.P@F /$                          ",
"  <.<.<.X y+($Y@*.% _$;.                          ",
"  :$<.<.F F X / {$| (.<$;.P                       ",
"  F x@e+h h X v.y+;.a | Y@[$P                     ",
"  }$|$F F F F <.<.n.1${$2$3$5 5                   ",
"    h :$F :$h 4$E ;$n.;.5$*.( P P (.              ",
"      h h h h h 6$F F F I@<.{$7$P 8$(.(.P         ",
"                h h h h h h                       "};
