/* XPM */
static char * ZPAIC1_xpm[] = {
"53 91 475 2",
"  	c None",
". 	c #745D5A",
"+ 	c #856E6C",
"@ 	c #836C6A",
"# 	c #705E5D",
"$ 	c #584442",
"% 	c #252B2E",
"& 	c #705E5A",
"* 	c #816964",
"= 	c #816A65",
"- 	c #7C6664",
"; 	c #5F4A48",
"> 	c #473C3B",
", 	c #635251",
"' 	c #685855",
") 	c #846C66",
"! 	c #5E4D4B",
"~ 	c #3C3231",
"{ 	c #66524F",
"] 	c #715A57",
"^ 	c #635453",
"/ 	c #464141",
"( 	c #846B66",
"_ 	c #65514E",
": 	c #665654",
"< 	c #846A66",
"[ 	c #836A65",
"} 	c #856D67",
"| 	c #221615",
"1 	c #231C1B",
"2 	c #6C5754",
"3 	c #725B58",
"4 	c #806865",
"5 	c #473A38",
"6 	c #866E69",
"7 	c #53403F",
"8 	c #655553",
"9 	c #0B0605",
"0 	c #5B4746",
"a 	c #66514F",
"b 	c #635553",
"c 	c #4A3A37",
"d 	c #372827",
"e 	c #362726",
"f 	c #80655E",
"g 	c #998C86",
"h 	c #3F2B29",
"i 	c #000000",
"j 	c #5C4846",
"k 	c #77615E",
"l 	c #5E5554",
"m 	c #524444",
"n 	c #3B2D2C",
"o 	c #271A18",
"p 	c #2E201E",
"q 	c #2D201E",
"r 	c #54413F",
"s 	c #685351",
"t 	c #130605",
"u 	c #0B0000",
"v 	c #070000",
"w 	c #180000",
"x 	c #614D4A",
"y 	c #7A625E",
"z 	c #1E0000",
"A 	c #999690",
"B 	c #706859",
"C 	c #423130",
"D 	c #826A65",
"E 	c #0C0000",
"F 	c #180C0B",
"G 	c #523D3B",
"H 	c #070302",
"I 	c #020000",
"J 	c #4A3837",
"K 	c #140000",
"L 	c #1C0F0C",
"M 	c #201413",
"N 	c #160502",
"O 	c #201311",
"P 	c #070403",
"Q 	c #5B4645",
"R 	c #4F3C3B",
"S 	c #080000",
"T 	c #181211",
"U 	c #433939",
"V 	c #554442",
"W 	c #322322",
"X 	c #080403",
"Y 	c #0D0201",
"Z 	c #423E3F",
"` 	c #484343",
" .	c #4A3734",
"..	c #3B3839",
"+.	c #444243",
"@.	c #4E4A4C",
"#.	c #210C0A",
"$.	c #564340",
"%.	c #6F5855",
"&.	c #6B5553",
"*.	c #5A4846",
"=.	c #312726",
"-.	c #060505",
";.	c #2B1B1A",
">.	c #766F70",
",.	c #120F0D",
"'.	c #3D2E2B",
").	c #675654",
"!.	c #635F5F",
"~.	c #3E3B3B",
"{.	c #755D5A",
"].	c #695350",
"^.	c #6E5755",
"/.	c #765E5B",
"(.	c #6A5453",
"_.	c #533936",
":.	c #332523",
"<.	c #160B0B",
"[.	c #554240",
"}.	c #6A5451",
"|.	c #171312",
"1.	c #050303",
"2.	c #322C2C",
"3.	c #84797A",
"4.	c #23110D",
"5.	c #59423E",
"6.	c #68524F",
"7.	c #53403E",
"8.	c #1C1B1B",
"9.	c #595557",
"0.	c #524E50",
"a.	c #352624",
"b.	c #5D4946",
"c.	c #6D5754",
"d.	c #6F5956",
"e.	c #6B5552",
"f.	c #624E4C",
"g.	c #584744",
"h.	c #2B201F",
"i.	c #191717",
"j.	c #83797A",
"k.	c #81797A",
"l.	c #010000",
"m.	c #281613",
"n.	c #6D5855",
"o.	c #775F5C",
"p.	c #171212",
"q.	c #605C5C",
"r.	c #302120",
"s.	c #241716",
"t.	c #3F2F2E",
"u.	c #4B3938",
"v.	c #6B5653",
"w.	c #483836",
"x.	c #3A2F2D",
"y.	c #483A39",
"z.	c #594948",
"A.	c #312524",
"B.	c #161515",
"C.	c #7D7071",
"D.	c #8E8283",
"E.	c #1E1513",
"F.	c #6E5754",
"G.	c #79615D",
"H.	c #2B1210",
"I.	c #100000",
"J.	c #260909",
"K.	c #A08F90",
"L.	c #715858",
"M.	c #52221B",
"N.	c #6B4D48",
"O.	c #373131",
"P.	c #2C1816",
"Q.	c #7B5C5D",
"R.	c #928687",
"S.	c #694F4C",
"T.	c #68514E",
"U.	c #67524F",
"V.	c #28100E",
"W.	c #1A0705",
"X.	c #27110F",
"Y.	c #331C18",
"Z.	c #3E0000",
"`.	c #381F1F",
" +	c #867675",
".+	c #98898C",
"++	c #938687",
"@+	c #816463",
"#+	c #797373",
"$+	c #181717",
"%+	c #867D7E",
"&+	c #6F4F50",
"*+	c #957F80",
"=+	c #222020",
"-+	c #544B4A",
";+	c #624D4B",
">+	c #130403",
",+	c #110A08",
"'+	c #3A1010",
")+	c #97888A",
"!+	c #958789",
"~+	c #8E7D7F",
"{+	c #A79394",
"]+	c #645E5F",
"^+	c #4D4A4B",
"/+	c #544E4F",
"(+	c #948889",
"_+	c #716465",
":+	c #050000",
"<+	c #754546",
"[+	c #410404",
"}+	c #786363",
"|+	c #605B5B",
"1+	c #18110F",
"2+	c #5D4D4C",
"3+	c #6D5856",
"4+	c #1B0E0D",
"5+	c #33130A",
"6+	c #42231E",
"7+	c #42201B",
"8+	c #150000",
"9+	c #938586",
"0+	c #968889",
"a+	c #9B8C8D",
"b+	c #8F8182",
"c+	c #97898B",
"d+	c #9C8D8E",
"e+	c #9D8C8D",
"f+	c #908485",
"g+	c #978889",
"h+	c #A08E8F",
"i+	c #370000",
"j+	c #250000",
"k+	c #340808",
"l+	c #807677",
"m+	c #333030",
"n+	c #2C2927",
"o+	c #372927",
"p+	c #755E5C",
"q+	c #513F3D",
"r+	c #383535",
"s+	c #504242",
"t+	c #877576",
"u+	c #9B8B8C",
"v+	c #938587",
"w+	c #84706F",
"x+	c #6F696A",
"y+	c #897D7E",
"z+	c #8A7F80",
"A+	c #696364",
"B+	c #3D393A",
"C+	c #594A48",
"D+	c #725F5C",
"E+	c #4A4344",
"F+	c #343031",
"G+	c #1A1616",
"H+	c #7F7576",
"I+	c #948789",
"J+	c #530E0E",
"K+	c #292626",
"L+	c #82797A",
"M+	c #958889",
"N+	c #5B5859",
"O+	c #060000",
"P+	c #464142",
"Q+	c #544543",
"R+	c #57342F",
"S+	c #171414",
"T+	c #6B6566",
"U+	c #565252",
"V+	c #837A7B",
"W+	c #987C7D",
"X+	c #676263",
"Y+	c #403B3B",
"Z+	c #756D6D",
"`+	c #645C5D",
" @	c #867C7D",
".@	c #6A6465",
"+@	c #0E0D0D",
"@@	c #343132",
"#@	c #110E0E",
"$@	c #1D100F",
"%@	c #4F4C4C",
"&@	c #706A6B",
"*@	c #6F6768",
"=@	c #5A5354",
"-@	c #4C4849",
";@	c #686465",
">@	c #7E7677",
",@	c #605C5D",
"'@	c #6C6667",
")@	c #372A28",
"!@	c #060404",
"~@	c #1B1412",
"{@	c #322728",
"]@	c #463838",
"^@	c #3C3A3B",
"/@	c #6E6566",
"(@	c #5E5758",
"_@	c #6E6869",
":@	c #575151",
"<@	c #1A1717",
"[@	c #0E0301",
"}@	c #0A0706",
"|@	c #2B2121",
"1@	c #837879",
"2@	c #2B2929",
"3@	c #827778",
"4@	c #5C5657",
"5@	c #171516",
"6@	c #050505",
"7@	c #151111",
"8@	c #342524",
"9@	c #090606",
"0@	c #352D2D",
"a@	c #2E0000",
"b@	c #7B7374",
"c@	c #4A4646",
"d@	c #777071",
"e@	c #55403F",
"f@	c #0A0707",
"g@	c #604C4C",
"h@	c #0B0A0A",
"i@	c #7E7576",
"j@	c #756D6E",
"k@	c #726B6C",
"l@	c #513D3C",
"m@	c #5C4542",
"n@	c #504646",
"o@	c #0F0B0B",
"p@	c #1B191A",
"q@	c #7D7475",
"r@	c #846062",
"s@	c #4A3836",
"t@	c #483634",
"u@	c #3A2C2B",
"v@	c #030202",
"w@	c #1B1514",
"x@	c #8B7F80",
"y@	c #190000",
"z@	c #0A0000",
"A@	c #442F2D",
"B@	c #4A3532",
"C@	c #4E4141",
"D@	c #0D0000",
"E@	c #030000",
"F@	c #302625",
"G@	c #2B1815",
"H@	c #3E3C3C",
"I@	c #423535",
"J@	c #484546",
"K@	c #2B2525",
"L@	c #2E2D2D",
"M@	c #160807",
"N@	c #1E1E1E",
"O@	c #070707",
"P@	c #0A0605",
"Q@	c #040000",
"R@	c #070504",
"S@	c #120000",
"T@	c #272120",
"U@	c #372726",
"V@	c #100807",
"W@	c #3C2C2B",
"X@	c #201A19",
"Y@	c #160E0E",
"Z@	c #9C8C8F",
"`@	c #A18E8F",
" #	c #716D6D",
".#	c #272525",
"+#	c #4C2823",
"@#	c #5F3732",
"##	c #1C1312",
"$#	c #7E7475",
"%#	c #342525",
"&#	c #7C5853",
"*#	c #3F1311",
"=#	c #675755",
"-#	c #413838",
";#	c #817677",
">#	c #7A7273",
",#	c #5C4E4F",
"'#	c #6D6667",
")#	c #7B6163",
"!#	c #71423C",
"~#	c #7C6767",
"{#	c #6F6869",
"]#	c #736B6C",
"^#	c #776363",
"/#	c #998A8D",
"(#	c #3A3636",
"_#	c #656061",
":#	c #948788",
"<#	c #4C0000",
"[#	c #1C1818",
"}#	c #2E2B2B",
"|#	c #4B4748",
"1#	c #877C7D",
"2#	c #230000",
"3#	c #7B7172",
"4#	c #696465",
"5#	c #605253",
"6#	c #464343",
"7#	c #472C2D",
"8#	c #474344",
"9#	c #363333",
"0#	c #575455",
"a#	c #676162",
"b#	c #7A7172",
"c#	c #454242",
"d#	c #595657",
"e#	c #444041",
"f#	c #64261D",
"g#	c #5A5758",
"h#	c #535050",
"i#	c #1D1616",
"j#	c #312E2F",
"k#	c #736D6E",
"l#	c #3F3B3C",
"m#	c #343232",
"n#	c #504B4C",
"o#	c #5C5758",
"p#	c #565354",
"q#	c #282424",
"r#	c #92696A",
"s#	c #493232",
"t#	c #8C8081",
"u#	c #290000",
"v#	c #231F1F",
"w#	c #524F50",
"x#	c #6D6768",
"y#	c #544344",
"z#	c #B09A9B",
"A#	c #1B0000",
"B#	c #130000",
"C#	c #A99597",
"D#	c #252121",
"E#	c #B89EA1",
"F#	c #83797B",
"G#	c #433F40",
"H#	c #B3787A",
"I#	c #DCB0B3",
"J#	c #C7A7AA",
"K#	c #221E1F",
"L#	c #605B5C",
"M#	c #BEA1A4",
"N#	c #A59295",
"O#	c #1F1B1B",
"P#	c #211A1A",
"Q#	c #343131",
"R#	c #867B7C",
"S#	c #928485",
"T#	c #0C0A09",
"U#	c #181414",
"V#	c #100C0B",
"W#	c #140E0C",
"X#	c #2E2220",
"Y#	c #171210",
"Z#	c #302726",
"`#	c #090504",
" $	c #030101",
".$	c #2D1B18",
"+$	c #524443",
"@$	c #2F2727",
"#$	c #201615",
"$$	c #3E2D2C",
"%$	c #403534",
"&$	c #58413F",
"*$	c #3B2221",
"=$	c #1B1111",
"-$	c #41302F",
";$	c #281E1D",
">$	c #110504",
",$	c #271A19",
"'$	c #484241",
"                                              . + @ # $                                                   ",
"                                            % & * = - ; >                                                 ",
"                                          . , % ' ) . . ! ~                                               ",
"                                          { ] ^ / ( _ # : ~                                               ",
"                                          $ { < [ } $ $ | 1                                               ",
"                                          2 3 4 5 6 7 $ 8 1 9                                             ",
"                                          0 a b c d e f g h i i                                           ",
"                                          j k l m n o p q i i                                             ",
"                                          r s t u i v i i i w                                             ",
"                                          x y i z $ z A A B z                                             ",
"                                          C D i z i z i i i z                                             ",
"                                        E F ~ i z G z i i i z                                             ",
"                                      F H I J i K L z A B A z                                             ",
"                                      M F N | i i O i i i i i P                                           ",
"                                    $ Q R E | J F $ S . T i i i i                                         ",
"                                  U $ $ a V W I X Y P i i i 9 i i Z `  . .                                ",
"                                ..+.@.#.$.%.&.*.=.-.i > i i E I F ;.>.,.'. .                              ",
"                            9 T ( )...!.~.{.].^./.(._.:.F <.[.}.|.1.2.3.i 4.5.                            ",
"                          . < . 6.7 7.8.@.9.0.a.b.c.%.d.] e.f.g.h.i i.j.k.l.i m.                          ",
"                        _ n.. o.[.J J i p.q.9.r.s.t.u.v.w.x.y.z.A.i B.C.D.E.E.i                           ",
"                        . F.G.= H.#.#.i z I.J.K.L.M.N.O.i i i i i E P.Q.R.i i i                           ",
"                        S.T.U.#.V.W.X.Y.l.Z.`. +.+++@+#+@.9.$+9.E u %+&+*+=+i i                           ",
"                      -+d.;+r.>+#.M.Y.,+i Z.'+R.)+!+~+{+]+^+/+(+_+:+<+[+}+|+i 1+5.                        ",
"                      2+3+4+E.4.5+6+z 7+z 8+I.9+0+a+b+c+d+e+f+g+h+Z.i+j+k+l+m+n+o+E.                      ",
"                      p+q+r+Z 4.i i i i s+z i t+R.u+v+w+x+f+y+z+R.>.z 8+I.A+B+m+,.E.                      ",
"                    C+D+E+Z F+G+i i i u I.u i H+f+f+I+J+i K+L+f+M+N+6+I.O+P+Z m+,.E.                      ",
"                  J Q+R+S+m+G+G+i G+i l.i i i T+U+V+f+W+X+Y+Z+`+ @i .@i i +@@@#@i i                       ",
"                  J $@Y.l.E.,.,.,.m+%@,.i i i m+i &@*@=@-@;@>@,@'@i G+i i i i i i ,.m+)@                  ",
"                  ;.N i !@1+,.~@E.N+N+{@i i ]@i i ^@/@(@Z >._@G+:@i G+i i i i i i i <@m+                  ",
"                  N [@i E.}@      i i ]@I.|@1@2@i i 3@4@5@>.i 6@7@.@i i l.i i i I.i i =+E.                ",
"              | 8@9@i i ,.,.        ` 0@a@i .@4.b@c@d@.@I.#@i i i i i L.i i l.l.z K i i i 9               ",
"              e@}.f@i i ,.,.          ` I.i g@h@i@>.j@k@l.i i i i i i G+l.l.l.l.a@Z.i i i 9 i             ",
"            8@l@m@n@i i               E.|@o@L.p@q@>..@r@l.l.i i z {@` m+u v z 8+a@Z.i i i i i             ",
"          H.s@t@u@v@i i                 w@|@I.Y+x@m+i i l.K y@I.l.i i G+i z@l.z l.  i i i i i i           ",
"          E A@B@v@i i                     i i C@f+m+i i i z D@E@i i i i i i i D@    i i i i i i           ",
"          | F@G@i S                       H@i I@z+m+i i i i i i i i i i i i i i         i i i i i         ",
"        I N S i i                           i i J@$+i i i i i i i i i i i K@i i         i i i i i         ",
"        i i u i i                             p.@.$+i i i i i i i i i i i L@i i         i i i i i         ",
"        I H.M@i                               i N@O@i i i i :+i i i i i i $+i i             i i i         ",
"      i i N i i                               i i i i i i i i K+i i i i i i i i i P@          i i i       ",
"      Q@i I i                               | R@I i i i i I i i i i i i i i 9 i i i           i i i i     ",
"      S@T@i i                             E U@| V@I i i i 1 > r.Y I I i i i i i i T             i N I     ",
"    #.#.l.i                               N r._ r.I i i i I Y $ W@i l.I i i I I I i               I N i   ",
"    N X@i                               +.K@W@. J F i i 1 | ~ > Y@i i I i I l.Y i i               i i i   ",
"    p.i i                               %@Z@`@1@Z@ #i i i 9 1 I i .#+.%@g@I.+#@#!@##              i i i i ",
"  i i i i                               %@.@$#1@.@%#I.i K k@.@1@1@%@_@>..@&#@#*#E.=#              i i N i ",
"  i i i i                               Z -#'@;#>#I.E@i ,#.@.@1@>.N+k@'#)#!#7+z ~#f+              i i N i ",
"i i [@I                                 G+%@.@{#1@M.z I..@.@]#1@l+>.H+^#r@!#&#5.f+/#%@            i i N i ",
"i i :+i i                             (#G+N+_#k@Z@:#Z.<#1@%@1@f+1@>#f+1@.@i ,.i N+N+N+Z             i N i ",
"i i i v                               [#}#|#N+>.1#Z@a@2#1@N+1@f+1@1@3#4#>.5#]@I.1@1@.@%@              #.i ",
"N [@i I                               m+m+6#%@_@>.>.7#a@1@.@>.]+Z N+N+&@1@>.4.l.N+N+8#9#              Y z ",
":+r.i                                   G+%@0#a#b#1@1@g@z %@Z Z r+m+c#%@.@>.4.I.f+j@d#e#            f#!#  ",
"i r.i                                   m+9#8#g#a#.@h#0#l.i#G+#@i j#9#m+Z 1@4.l.>.k#_#N+                  ",
"i r.                                    m+l#Z Z N+N+0#h#m#l.2@i   +@Z Z@Z@.@|@l.>.'#n#Z G+                ",
"  M.i                                   m+|#8#N+N+N+_#o#Z i i     i m+.@f+L.g@a@f+f+1@.@i                 ",
"  M.i                                   G+N+p#Z Z Z Z Z q#i G+      G+%@>.r#s#z .+t#1@.@,.                ",
"  E.                                    m+m+h#N+8#Z Z |#]@u i       m+N+N+.@z u#Z@1@A+Z `                 ",
"                                        m+v#q#B+w#.@>.>.N+l.i         N+x#y#I.O+Z@z#a+1@`                 ",
"                                        m+Z F+q#m+Z ,@.@,@4.          Z >.g@A#B#Z@C#z#1@%@                ",
"                                          D#%@N+%@%@.@.@.@|@          %@%@I.A#z E#Z@F#N+N+G+              ",
"                                          %@m+Z |#0#'#k#N+,.            %@O+B#z z#C#Z@1@m+,.              ",
"                                          G#%@Z Z Z >.A+%@|@              i I.a@H#I#J#f+Z |@              ",
"                                          K#Z L#>.1@.@%@0#|@              i l.K !#M#N#:#%@m+              ",
"                                          O#m+>.j.1@f+f+1@I.                P#l.{@Z@1@Z@.@m+m+            ",
"                                          Q#l#>.R#f+.+Z@1@4.                I.i {@f+.@Z@o#B+m+            ",
"                                          Z Z >.1@S#z#z#1@4.                  i N+I.|@>.Z Z G+            ",
"                                            m+N+Z@z#z#z#.@|@                    ` I.i l.i i i             ",
"                                            G+N+Z@z#z#z#N+G+                    |@l.i i i i i             ",
"                                          .@Z .@%@>.1@f+m+i                     i i i i i i i @@          ",
"                                          Z@m+N+Z N+%@N+m+                      i l.i i i i i i           ",
"                                          Z@m+%@G+|@G+Z G+                      i l.i i i i i i G+        ",
"                                          N+Z Z T#i i ,.6@U#                    i i i i i i i i Z         ",
"                                          ` m+i i i i i i i                     1+i i !@E.!@!@1+          ",
"                                          l.#@i i i i i i i                       i V#E.4.E.E.E.!@        ",
"                                        a@i i i i G+i i i i                       i E.E.4.E.E.E.E.        ",
"                                          i i i i i i i i                           E.E.E.i E.E.E.        ",
"                                          i i i i i i i                             E.E.E.i W#E.E.        ",
"                                            i i i i i i                              .4.X#E.!@Y#o+        ",
"                                            1+i i i i 4.                              Y.i i i i E.        ",
"                                            Y.i i i i i                               5.i l.i i 1+        ",
"                                              i i i i                                   i I T 9 i         ",
"                                              i i i i                                   Y Z#X@i i         ",
"                                              9 i 9                                     i N i i i         ",
"                                            | i i i                                     Q@E I i i `#      ",
"                                            | i i i i                                   i N Q@I I  $9     ",
"                                            F i i i i                                   J .$$ +$@$I 1     ",
"                                            #.J 7.#$i i                             N J r.$ $$> %$i i     ",
"                                          #.&$*$J J =$v@                            . J J -$r.F ;$i i     ",
"                                          E $ $ | N >$|                           J . J 7.r.r.F V@i i     ",
"                                                                                $ | $ r.N r.,$i i W#E.    ",
"                                                                                N.'$Y.6+Y.o+4.o+o+o+o+    "};
