/* XPM */
static char * ZPAIC3_xpm[] = {
"43 92 553 2",
"  	c None",
". 	c #9A594F",
"+ 	c #A26D66",
"@ 	c #435866",
"# 	c #89524A",
"$ 	c #634743",
"% 	c #594744",
"& 	c #604F4C",
"* 	c #574847",
"= 	c #65514E",
"- 	c #5B4745",
"; 	c #5D4947",
"> 	c #644E4C",
", 	c #503D3C",
"' 	c #5D4847",
") 	c #3D2D2C",
"! 	c #221615",
"~ 	c #705E5D",
"{ 	c #79625E",
"] 	c #7F6762",
"^ 	c #715956",
"/ 	c #6D5654",
"( 	c #634E4B",
"_ 	c #52403D",
": 	c #544241",
"< 	c #4F3F3E",
"[ 	c #0C0000",
"} 	c #3C3231",
"| 	c #5E4947",
"1 	c #745D5A",
"2 	c #624D4A",
"3 	c #846A66",
"4 	c #846B66",
"5 	c #695756",
"6 	c #584543",
"7 	c #3E2E2D",
"8 	c #322221",
"9 	c #806967",
"0 	c #302120",
"a 	c #2C1D1C",
"b 	c #3B2C2B",
"c 	c #5C4C4A",
"d 	c #7F6662",
"e 	c #816763",
"f 	c #77605D",
"g 	c #4A3837",
"h 	c #210C0A",
"i 	c #342524",
"j 	c #392A29",
"k 	c #4D3A39",
"l 	c #180C0B",
"m 	c #584442",
"n 	c #361F1D",
"o 	c #6C5653",
"p 	c #7D6561",
"q 	c #311A18",
"r 	c #4D3B3A",
"s 	c #3C2B2A",
"t 	c #473C3B",
"u 	c #3B2B2A",
"v 	c #54423F",
"w 	c #463331",
"x 	c #160502",
"y 	c #4C3A39",
"z 	c #463534",
"A 	c #473534",
"B 	c #443332",
"C 	c #453938",
"D 	c #392928",
"E 	c #331715",
"F 	c #312221",
"G 	c #362F2E",
"H 	c #42322F",
"I 	c #483736",
"J 	c #41302F",
"K 	c #3C2C2B",
"L 	c #2B1210",
"M 	c #050000",
"N 	c #252B2E",
"O 	c #272021",
"P 	c #433332",
"Q 	c #483635",
"R 	c #352625",
"S 	c #1C1717",
"T 	c #262B2E",
"U 	c #544443",
"V 	c #4D3B39",
"W 	c #170B0A",
"X 	c #000000",
"Y 	c #1E0000",
"Z 	c #060000",
"` 	c #201615",
" .	c #2C2425",
"..	c #483A3A",
"+.	c #513E3D",
"@.	c #181211",
"#.	c #54443B",
"$.	c #160E0E",
"%.	c #53403E",
"&.	c #3D3434",
"*.	c #514140",
"=.	c #534645",
"-.	c #4E4849",
";.	c #201312",
">.	c #3D3333",
",.	c #2E2D2D",
"'.	c #181717",
").	c #423A3A",
"!.	c #4F3E3D",
"~.	c #7C6765",
"{.	c #3E3332",
"].	c #231B19",
"^.	c #4A443B",
"/.	c #3E3535",
"(.	c #3B393A",
"_.	c #1D0C09",
":.	c #5C4846",
"<.	c #755F5B",
"[.	c #7D6461",
"}.	c #806662",
"|.	c #333132",
"1.	c #444243",
"2.	c #212020",
"3.	c #080808",
"4.	c #705956",
"5.	c #5C4746",
"6.	c #735D59",
"7.	c #7F6663",
"8.	c #6F5754",
"9.	c #595557",
"0.	c #231C1B",
"a.	c #381E1D",
"b.	c #433231",
"c.	c #412625",
"d.	c #010101",
"e.	c #2F1F1D",
"f.	c #715A57",
"g.	c #846C66",
"h.	c #826864",
"i.	c #7A625E",
"j.	c #483533",
"k.	c #854D47",
"l.	c #3C3839",
"m.	c #52403E",
"n.	c #554341",
"o.	c #564441",
"p.	c #321E1C",
"q.	c #836B66",
"r.	c #755D5A",
"s.	c #66524F",
"t.	c #564542",
"u.	c #151210",
"v.	c #0A0201",
"w.	c #D47A6E",
"x.	c #100000",
"y.	c #796D6D",
"z.	c #353030",
"A.	c #574443",
"B.	c #6E5755",
"C.	c #79615D",
"D.	c #735C59",
"E.	c #4F3D3B",
"F.	c #54413F",
"G.	c #55413F",
"H.	c #755B57",
"I.	c #775F5B",
"J.	c #5D4846",
"K.	c #614D4A",
"L.	c #0B0808",
"M.	c #2E0000",
"N.	c #B09A9B",
"O.	c #7C7375",
"P.	c #030303",
"Q.	c #2F2624",
"R.	c #6B5551",
"S.	c #69524F",
"T.	c #755C59",
"U.	c #7B615D",
"V.	c #594642",
"W.	c #715858",
"X.	c #736B6C",
"Y.	c #7E7475",
"Z.	c #71423C",
"`.	c #A08F91",
" +	c #948788",
".+	c #6B4D48",
"++	c #2E1B17",
"@+	c #4F3B39",
"#+	c #785F5C",
"$+	c #836965",
"%+	c #755E5A",
"&+	c #604B49",
"*+	c #4E3B3A",
"=+	c #908485",
"-+	c #52221B",
";+	c #96898A",
">+	c #877C7E",
",+	c #7A6B6B",
"'+	c #7B6966",
")+	c #281613",
"!+	c #040202",
"~+	c #010000",
"{+	c #0A0706",
"]+	c #331C18",
"^+	c #755F5D",
"/+	c #836A66",
"(+	c #826A65",
"_+	c #765D5B",
":+	c #7A615D",
"<+	c #6E5854",
"[+	c #463533",
"}+	c #9C8C8F",
"|+	c #918486",
"1+	c #887C7E",
"2+	c #7F7476",
"3+	c #857A7B",
"4+	c #8F7A78",
"5+	c #583C38",
"6+	c #23110D",
"7+	c #4C3937",
"8+	c #866E69",
"9+	c #866F6A",
"0+	c #867069",
"a+	c #5B4744",
"b+	c #554442",
"c+	c #958689",
"d+	c #857A7C",
"e+	c #604C4C",
"f+	c #786F71",
"g+	c #6A6162",
"h+	c #847779",
"i+	c #70696A",
"j+	c #6C6162",
"k+	c #514A4A",
"l+	c #42231E",
"m+	c #2C1F1E",
"n+	c #3D2C2B",
"o+	c #332423",
"p+	c #5F4542",
"q+	c #533F3E",
"r+	c #7E7172",
"s+	c #86787A",
"t+	c #897E80",
"u+	c #544344",
"v+	c #3E3A3B",
"w+	c #423D3D",
"x+	c #645D5F",
"y+	c #4C4647",
"z+	c #776B6D",
"A+	c #545050",
"B+	c #1C0F0F",
"C+	c #6A5D5E",
"D+	c #95878A",
"E+	c #766D6F",
"F+	c #0C0A0B",
"G+	c #333030",
"H+	c #0B0A0A",
"I+	c #484243",
"J+	c #706567",
"K+	c #84787B",
"L+	c #908284",
"M+	c #938688",
"N+	c #837879",
"O+	c #766F70",
"P+	c #3E2D2B",
"Q+	c #725C58",
"R+	c #261F1D",
"S+	c #6F6566",
"T+	c #706669",
"U+	c #181616",
"V+	c #7E7476",
"W+	c #8D8183",
"X+	c #8A7F80",
"Y+	c #817779",
"Z+	c #665B5B",
"`+	c #5F4F4D",
" @	c #130909",
".@	c #6E6668",
"+@	c #86797C",
"@@	c #736B6D",
"#@	c #1B1819",
"$@	c #140000",
"%@	c #5F5A5A",
"&@	c #7C7273",
"*@	c #8B7F82",
"=@	c #897D7F",
"-@	c #6A6465",
";@	c #726B6C",
">@	c #171413",
",@	c #685856",
"'@	c #625555",
")@	c #0D0403",
"!@	c #524E4F",
"~@	c #62595B",
"{@	c #6B6465",
"]@	c #181516",
"^@	c #0D0000",
"/@	c #030000",
"(@	c #221210",
"_@	c #100E0E",
":@	c #867C7D",
"<@	c #7F6D6F",
"[@	c #736D6E",
"}@	c #6E6869",
"|@	c #211A1A",
"1@	c #3B3839",
"2@	c #635655",
"3@	c #604C48",
"4@	c #161111",
"5@	c #070707",
"6@	c #2B2121",
"7@	c #262323",
"8@	c #454040",
"9@	c #0B0000",
"0@	c #7B7374",
"a@	c #958789",
"b@	c #6D6768",
"c@	c #5B5859",
"d@	c #352B2B",
"e@	c #2F2524",
"f@	c #423E3F",
"g@	c #383636",
"h@	c #0B0605",
"i@	c #685350",
"j@	c #2D1A17",
"k@	c #0E0C0A",
"l@	c #1E1513",
"m@	c #150000",
"n@	c #271F1E",
"o@	c #4A3B39",
"p@	c #040303",
"q@	c #322728",
"r@	c #271616",
"s@	c #040000",
"t@	c #170B09",
"u@	c #160A08",
"v@	c #402926",
"w@	c #0C0A09",
"x@	c #020000",
"y@	c #271210",
"z@	c #42201B",
"A@	c #140807",
"B@	c #161313",
"C@	c #0D0201",
"D@	c #220E0D",
"E@	c #210F0D",
"F@	c #4B3938",
"G@	c #281C1B",
"H@	c #080000",
"I@	c #28100E",
"J@	c #3F2E2D",
"K@	c #5D4B4A",
"L@	c #564746",
"M@	c #160807",
"N@	c #120604",
"O@	c #0A0606",
"P@	c #554240",
"Q@	c #574442",
"R@	c #584745",
"S@	c #584644",
"T@	c #523F3D",
"U@	c #312120",
"V@	c #272120",
"W@	c #463433",
"X@	c #624D4B",
"Y@	c #5F4B49",
"Z@	c #281A19",
"`@	c #231615",
" #	c #130B0A",
".#	c #120706",
"+#	c #493B3A",
"@#	c #2B2525",
"##	c #1C0C0B",
"$#	c #1B0F0E",
"%#	c #120000",
"&#	c #270100",
"*#	c #0E0301",
"=#	c #1A0E0E",
"-#	c #1B1313",
";#	c #716D6D",
">#	c #220F0E",
",#	c #090000",
"'#	c #4E4A4C",
")#	c #74291D",
"!#	c #842D1E",
"~#	c #1C1B1B",
"{#	c #211C1C",
"]#	c #635F5F",
"^#	c #463838",
"/#	c #5F3732",
"(#	c #070000",
"_#	c #1E1E1E",
":#	c #8C605B",
"<#	c #762B1E",
"[#	c #4C0000",
"}#	c #3E3B3C",
"|#	c #655E60",
"1#	c #666161",
"2#	c #3E0000",
"3#	c #64261D",
"4#	c #070404",
"5#	c #363435",
"6#	c #545151",
"7#	c #6B6466",
"8#	c #71696B",
"9#	c #484343",
"0#	c #33130A",
"a#	c #4F4C4C",
"b#	c #827778",
"c#	c #817677",
"d#	c #7C7374",
"e#	c #2F2C2C",
"f#	c #362322",
"g#	c #393535",
"h#	c #1A1616",
"i#	c #635E5F",
"j#	c #6F6668",
"k#	c #756C6E",
"l#	c #6F6667",
"m#	c #5F5757",
"n#	c #382523",
"o#	c #1D1514",
"p#	c #2A2727",
"q#	c #776D6F",
"r#	c #746B6D",
"s#	c #696364",
"t#	c #322F2F",
"u#	c #512D27",
"v#	c #332B2B",
"w#	c #090807",
"x#	c #817678",
"y#	c #7B7173",
"z#	c #70686A",
"A#	c #413E3F",
"B#	c #1F1E1E",
"C#	c #524F4F",
"D#	c #524F50",
"E#	c #171516",
"F#	c #221F1E",
"G#	c #090808",
"H#	c #0E0C0B",
"I#	c #120F0D",
"J#	c #151111",
"K#	c #6C6567",
"L#	c #746B6C",
"M#	c #746C6D",
"N#	c #645F5F",
"O#	c #020101",
"P#	c #3C3A3B",
"Q#	c #5E5B5C",
"R#	c #282424",
"S#	c #050505",
"T#	c #181414",
"U#	c #8B8081",
"V#	c #807577",
"W#	c #6B6264",
"X#	c #231F1F",
"Y#	c #535050",
"Z#	c #83787A",
"`#	c #665E5F",
" $	c #544F4F",
".$	c #645F60",
"+$	c #110E0E",
"@$	c #756C6D",
"#$	c #685A5B",
"$$	c #6C6566",
"%$	c #3D393A",
"&$	c #4B4748",
"*$	c #8F8182",
"=$	c #8E8083",
"-$	c #918386",
";$	c #695858",
">$	c #343031",
",$	c #9F8D8E",
"'$	c #8D8182",
")$	c #241D1D",
"!$	c #3F3B3C",
"~$	c #565354",
"{$	c #6E6768",
"]$	c #787071",
"^$	c #524C4D",
"/$	c #1D1A1A",
"($	c #020202",
"_$	c #524545",
":$	c #1C1616",
"<$	c #454242",
"[$	c #797172",
"}$	c #6D6667",
"|$	c #585455",
"1$	c #807677",
"2$	c #756E6F",
"3$	c #6B6566",
"4$	c #161515",
"5$	c #383535",
"6$	c #97888A",
"7$	c #2E2525",
"8$	c #83797B",
"9$	c #575253",
"0$	c #413D3E",
"a$	c #343131",
"b$	c #111010",
"c$	c #312E2E",
"d$	c #2D2A2A",
"e$	c #040404",
"f$	c #756D6E",
"g$	c #361D19",
"h$	c #170605",
"i$	c #1F1B1B",
"j$	c #363333",
"k$	c #271D1C",
"l$	c #867A7D",
"m$	c #3F1F1A",
"n$	c #2C1613",
"o$	c #100F0F",
"p$	c #1C1918",
"q$	c #383434",
"r$	c #311B18",
"s$	c #221614",
"t$	c #140E0C",
"u$	c #060504",
"v$	c #110504",
"w$	c #090101",
"x$	c #302726",
"y$	c #0F0403",
"z$	c #060404",
"A$	c #1C1312",
"B$	c #0D0807",
"C$	c #271C1B",
"D$	c #302524",
"E$	c #372C2B",
"F$	c #3F3332",
"G$	c #18110F",
"H$	c #100807",
"I$	c #655553",
"J$	c #2F2727",
"K$	c #070403",
"L$	c #160F0E",
"M$	c #0B0201",
"N$	c #342726",
"O$	c #2C2322",
"P$	c #100B0A",
"Q$	c #1F1312",
"R$	c #655352",
"S$	c #4E403F",
"T$	c #382E2D",
"U$	c #0A0000",
"V$	c #2C2120",
"W$	c #423130",
"X$	c #332524",
"Y$	c #342B2A",
"Z$	c #392E2D",
"`$	c #1A1211",
" %	c #372927",
"                        . +                                                           ",
"                  @ @ # $ % & *                                                       ",
"                  = = - ; > , ' ) !                                                   ",
"              ~ = { ] ^ / ( _ : < [ }                                                 ",
"              | 1 2 = 3 4 4 5 6 7 8 }                                                 ",
"              1 4 1 = 1 9 3 0 a b c !                                                 ",
"              | 1 d 3 e f g h % i j k l                                               ",
"              m = , n o p g l q ) g r s t                                             ",
"              } u v g w = g x g g y z A B C                                           ",
"                0 0 D g = m E h 0 F G H I J 0                                         ",
"                m K m 3 L m L M N ! N O P g Q R                                       ",
"                  0 h h x h l l S N N N T U r V K W                                   ",
"                    X Y Z ` l g l g g K  .N ..+.r ) @.                                ",
"                      #.Y X $.= } x l %.g &.N *.=.-.@.@.                              ",
"                        X X X X ;.0 0 g >.,.'.).!.~.{.].                              ",
"                          ^.X X 0 /.(.'.'.! m _.:.<.[.}.) [                           ",
"                          Y X X |.1.2.3.[ 4.h g 5.6.e 7.8.x X                         ",
"                            X 9.X 0.3 a.b.c.d.X e.f.g.h.i.j.X X                       ",
"                        . k.1.l.g m.n.o.( 1 ` X p.J g.q.r.s.t.u.v.                    ",
"                        w.x.y.z.A.B.C.d D.E.0 ! F.G.* h.H.I.J.K.L.                    ",
"                      k.M.M.N.O.X x g K $.X X X P.Q.R.S.T.U.4.B.V.X                   ",
"                  W.X.Y.W.Z.`. +.+t * X X X X X X ++@+#+h.$+h.%+&+*+m                 ",
"                  =+Y.X.-+Z.;+>+,+'+'+)+!+X X ~+{+X ]+^+/+(+_+:+$+<+[+7 t             ",
"                  }+}+|+M.W.1+2+1+3+4+5+)+X X X ~+6+6+d.F.7+8+9+0+i.a+b+l             ",
"                  c+}+d+x.e+f+g+h+i+j+k+6+Y ~+X X X ]+l+~ m+n+= m o+p+q+t             ",
"                  r+s+t+~+u+v+w+x+y+z+i+A+u+]+x.e+u+~+6+~ K B+X X g f.s.!             ",
"                  C+D+E+F+X G+H+u+I+J+K+L+M+N+6+O+u+X X X ~+[ x X P+Q+R+X X           ",
"                  S+M+T+U+X X X x.x.]+V+W+X+Y+e+O+u+X X X X X X X Z+`+X X  @          ",
"                  .@+@@@#@X X $@x.Z ~+%@&@*@=@-@;@u+X X X X     >@,@'@1.H+)@          ",
"                  !@~@{@]@X ~+^@/@X X (@_@:@<@[@}@|@X X X X   1@2@3@4@X 5@H+          ",
"                  6@7@8@~+~+Y X X x.9@~+X 0@a@b@c@X X X X X X d@D.e@X X X X           ",
"                  G+X f@~+~+~+X X X ~+X X G+-@c@g@X X X X X h@i@3 j@X X X k@          ",
"                    x.l@Y m@X X X X X X X ~+~+X X X X X X X n@$+o@p@'.X X             ",
"                    q@~+r@Y X X X X ~+~+6+^@s@t@X X X X X X u@v@w@X x@                ",
"                    G+X X x.X X X X (@~+]+y@x.z@X X X X X X 9@A@X X X                 ",
"                      ~+B@6+X X X X C@X ! -+! [ ! $.X X X X l x D@X                   ",
"                      M.    X X X X C@E@F@K K K K G@H@X X X I@h M                     ",
"                      M.    X X X X @.F F@%.J@B K@B L@X X X M@N@X                     ",
"                      M       X X X O@P@Q@R@S@6 T@F@U@V@X C@X X X                     ",
"                                X X x@F@b.W@6 X@Y@g Z@l X X X X                       ",
"                                X X x@7 7 r.m ! `@l l  #X X X X                       ",
"                                X $..#+#[ x@C@x@x@@#L X M@##X                         ",
"                                X l $#! 1.X X x h h %#X &#*#X                         ",
"                                [ [ =#-#;#X X >#! = M.X h X X                         ",
"                              1@9@/@,#@#'#~+X X )#!#x.X X X ~#H+                      ",
"                              1@{#X X ]#1@^#x./#!#)#M.(#X _#1.H+                      ",
"                              1@@.X |.N.=+6+X :#<#-+[#9@X }#1.X                       ",
"                              |#1#1.f@q@X ~+2#2#3#Y M.x.4#1.5#X                       ",
"                        f@6#7#8#c@|@/@x.Y z@9#0#X X X X a#a#G+G+                      ",
"                        b#c#d#-@e#X ^@f#e+q@=+x.w@X X X a#g#h#h#                      ",
"                    i#j#k#l#N+m#X X G+e+n#N+W.c@c@X h#o#p#h#h#                        ",
"                  N+q#q#r#s#e#X t#a#a#f@-@u#v#f@~+k@w#h#h#h#                          ",
"                  x#y#E+z#A#B#X C#c@C#f@D#E#f@F#G#H#I#J#X                             ",
"                K#L#M#N#O#B#P#-@Q#c@c@f@f@f@R#h#h#S#X X T#                            ",
"              U#V#k#W#X#6@f@a#a#-@c@Y#p#h#p#X X X X X J#                              ",
"              Z#V#`# $X a#G+a#.$Q#c@a#h#h#+$X X X X X h#                              ",
"              @$j##$$$X f@G+%$b@c@&$&$h#G#X X X X X X J#                              ",
"            *$=$-$;$I#I#f@G+G+c@a#f@>$h#X X X X X X X X                               ",
"          2+,$'$b#)$X 9#f@G+X#!$~$p#h#+$X X X X X X X X                               ",
"          {$O+]$^$X |@a#a#G+S#/$f@J#S#X X X X X X ($J#h#                              ",
"        N+f@f@_$X :$f@f@h#h#X X G+X X X X X X X ($T#G+G+                              ",
"      N.N+D#f@~+X G+<$a#h#G+X X B@X X ($h#($X X h#h#h#h#                              ",
"      O+-@c@u+^#a#%$G+c@f@h#h#h#G++$X J#h#h#X X X X X h#                              ",
"    }+;@}@~+~+O+N+[$}$|$J#S#    c@f@X h#h#S#X X X S#T#                                ",
"    =+}$O+X q@-@N+1$2$3$4$X     c@f@X h#h#X X +$h#h#G+                                ",
"    O+|$-@~+e+-@{$N+O+[@-@      c@f@5$G+G+X X +$h#h#h#                                ",
"      X X ~+e+Y.-@N+6$N.}+e+    c@f@f@h#h#h#X X X X                                   ",
"      X X X 7$6$1+N+1+}+8$u+    ~$f@!$p#J#($X X X X X                                 ",
"        X X X 8$}+9$G+c@e+c@    f@0$a$X X X X X X X X G+G+                            ",
"          X X -@=+G+b$X M.x.      c$h#d$e$X X X X ($J#G+f@f@                          ",
"          X X c@f$~+z@g$h$Y       h#h#i$G+H+X X X J#h#G+j$f@                          ",
"          l@k$l$c@x.z@m$n$x.        S#h#o$G+h#X X J#h#G+G+p$q$G+                      ",
"          r$s$t$X x@l l l X           ($h#X X X X ($T#>$X u$I#G+f@                    ",
"            ]+X X x@l l v$C@            X X X X X X ($h#S#X I#h#f@                    ",
"            l+X w$x@l x$x@C@              X X X X X X ($h#X :$G+G+l@                  ",
"            6+X l x@v$l y$C@X                 X X X X X X X X I#X z$A$                ",
"              C@l B$C$D$W y$X                     X X X X X X X X X X                 ",
"              x@l ! E$} l l X                       X X X X X X X X X X               ",
"                X F$0 0 x$C@x@                          X X X X X X l@X G$            ",
"                X 0 ! 0 l v$X                           X X X h@X X X X X             ",
"                X * ! t E$H$X                               X X X X X X X X           ",
"                  l l I$X X J$x@                                K$X X X x@X x@X       ",
"                  x@t I$X H@x$h@                                  X X X X x@x@x@      ",
"                  X g ! g l @.@.                                      h@L$M$s@x@x@    ",
"                  l g 0 N$} O$0.                                        C@l C@C@C@L$  ",
"                ! 0 K K } } 0.P$                                      l ! ! Q$l l C@  ",
"            K R$I$~ m S$} x$@.h@                                X [ /@X 0 C@l [ C@C@  ",
"        T@K m K * x$T$} } } } 0.                          X x@U$X V$[ x@l ! Q$l l l   ",
"      g W$T@D X$} x$x$Y$} t } @.                        l l x@x@x@x@x@~+X C@C@v$l  @X ",
"1 1 m 0 l l 0 Z$} 0.C@x@X X X X                     l@X     h@h@h@h@h@h@h@h@X x@x@X   ",
"      h@h@h@h@h@h@X h@h@h@h@`$ %                                                      ",
"           % % % % % % % % % % %                                                      "};
