/* XPM */
static char * ZPAIC4_xpm[] = {
"50 91 424 2",
"  	c None",
". 	c #745D5A",
"+ 	c #65514E",
"@ 	c #574847",
"# 	c #4A3837",
"$ 	c #584442",
"% 	c #5E504F",
"& 	c #252B2E",
"* 	c #463433",
"= 	c #3C3231",
"- 	c #333234",
"; 	c #433837",
"> 	c #200F0C",
", 	c #67524F",
"' 	c #594543",
") 	c #3C2C2B",
"! 	c #332322",
"~ 	c #715A57",
"{ 	c #6E5855",
"] 	c #5C4846",
"^ 	c #5A4644",
"/ 	c #644F4D",
"( 	c #54413F",
"_ 	c #473635",
": 	c #806B69",
"< 	c #4D3B39",
"[ 	c #41302E",
"} 	c #564241",
"| 	c #503D3B",
"1 	c #020000",
"2 	c #705E5D",
"3 	c #402624",
"4 	c #574341",
"5 	c #261918",
"6 	c #614C49",
"7 	c #614D4A",
"8 	c #554240",
"9 	c #4E3C3A",
"0 	c #221615",
"a 	c #453433",
"b 	c #2B1210",
"c 	c #160502",
"d 	c #302120",
"e 	c #644E4C",
"f 	c #53413F",
"g 	c #4D3B3A",
"h 	c #352524",
"i 	c #140707",
"j 	c #4F3C3B",
"k 	c #41302F",
"l 	c #343334",
"m 	c #584543",
"n 	c #523F3D",
"o 	c #3F2825",
"p 	c #3D2C2B",
"q 	c #534242",
"r 	c #513F3D",
"s 	c #493D3C",
"t 	c #3E3332",
"u 	c #2F1B18",
"v 	c #0C0000",
"w 	c #241615",
"x 	c #332423",
"y 	c #383536",
"z 	c #594645",
"A 	c #5B4745",
"B 	c #342524",
"C 	c #372827",
"D 	c #2F2828",
"E 	c #140807",
"F 	c #251817",
"G 	c #2D1F1E",
"H 	c #363435",
"I 	c #624E4B",
"J 	c #241716",
"K 	c #584846",
"L 	c #483C3B",
"M 	c #302726",
"N 	c #1D100F",
"O 	c #100404",
"P 	c #392928",
"Q 	c #403636",
"R 	c #4C403F",
"S 	c #392A29",
"T 	c #362625",
"U 	c #453837",
"V 	c #231C1B",
"W 	c #2B1D1C",
"X 	c #180C0B",
"Y 	c #4A3836",
"Z 	c #564847",
"` 	c #4E4A4C",
" .	c #3B3839",
"..	c #2F2929",
"+.	c #4D3F3E",
"@.	c #413735",
"#.	c #0D0201",
"$.	c #232222",
"%.	c #352E2D",
"&.	c #5A4746",
"*.	c #211C1C",
"=.	c #181717",
"-.	c #1B1A1A",
";.	c #322928",
">.	c #312827",
",.	c #5D4947",
"'.	c #000000",
").	c #060100",
"!.	c #2E2D2D",
"~.	c #0B0A0A",
"{.	c #151414",
"].	c #100C0B",
"^.	c #140E0D",
"/.	c #0B0605",
"(.	c #473634",
"_.	c #634E4C",
":.	c #463533",
"<.	c #0E0301",
"[.	c #181211",
"}.	c #141313",
"|.	c #0C0B0B",
"1.	c #010000",
"2.	c #594644",
"3.	c #372B29",
"4.	c #090808",
"5.	c #1A1616",
"6.	c #210C0A",
"7.	c #6B5552",
"8.	c #050000",
"9.	c #523C3B",
"0.	c #150808",
"a.	c #372927",
"b.	c #271C1A",
"c.	c #2E2626",
"d.	c #222020",
"e.	c #4F4C4C",
"f.	c #42231E",
"g.	c #493735",
"h.	c #55403E",
"i.	c #423130",
"j.	c #493937",
"k.	c #333030",
"l.	c #6A6465",
"m.	c #1E0000",
"n.	c #271F1E",
"o.	c #6C5754",
"p.	c #695452",
"q.	c #29211F",
"r.	c #231A19",
"s.	c #604C4C",
"t.	c #0B0000",
"u.	c #5A4745",
"v.	c #5F4B49",
"w.	c #705B57",
"x.	c #2B2121",
"y.	c #423E3F",
"z.	c #0C0A09",
"A.	c #100F0F",
"B.	c #5B4847",
"C.	c #6B5652",
"D.	c #644F4C",
"E.	c #110E0E",
"F.	c #070707",
"G.	c #605C5D",
"H.	c #100000",
"I.	c #645351",
"J.	c #554442",
"K.	c #5D4846",
"L.	c #5A4341",
"M.	c #332928",
"N.	c #030000",
"O.	c #4E3B3A",
"P.	c #4C3A39",
"Q.	c #55413F",
"R.	c #5E4A48",
"S.	c #23110D",
"T.	c #2B2929",
"U.	c #111010",
"V.	c #020202",
"W.	c #040202",
"X.	c #363333",
"Y.	c #706A6B",
"Z.	c #6B5C5D",
"`.	c #433939",
" +	c #242020",
".+	c #624E4C",
"++	c #6E5854",
"@+	c #604C4A",
"#+	c #4C3C3A",
"$+	c #120F0D",
"%+	c #020101",
"&+	c #090504",
"*+	c #96888A",
"=+	c #998A8B",
"-+	c #846062",
";+	c #432B2B",
">+	c #655F61",
",+	c #2B2525",
"'+	c #180B0B",
")+	c #140E0C",
"!+	c #060504",
"~+	c #010101",
"{+	c #070403",
"]+	c #766F70",
"^+	c #837A7B",
"/+	c #8D8182",
"(+	c #715858",
"_+	c #5B4647",
":+	c #7B7274",
"<+	c #524E50",
"[+	c #121212",
"}+	c #444243",
"|+	c #54403E",
"1+	c #644A46",
"2+	c #1E1513",
"3+	c #231B18",
"4+	c #0E0C0A",
"5+	c #0D0000",
"6+	c #7D7475",
"7+	c #7E6A6B",
"8+	c #5D4949",
"9+	c #8D8283",
"0+	c #71696B",
"a+	c #0F0D0D",
"b+	c #595557",
"c+	c #1C1B1B",
"d+	c #3E2B28",
"e+	c #674B49",
"f+	c #734D49",
"g+	c #362D2E",
"h+	c #7C7374",
"i+	c #715D5C",
"j+	c #7E6F70",
"k+	c #908485",
"l+	c #484343",
"m+	c #5B5859",
"n+	c #5B5252",
"o+	c #3E3334",
"p+	c #A08F90",
"q+	c #8F8283",
"r+	c #948688",
"s+	c #514E4E",
"t+	c #322728",
"u+	c #282523",
"v+	c #201A19",
"w+	c #7A7273",
"x+	c #8E7E7D",
"y+	c #8B7A7A",
"z+	c #6E615F",
"A+	c #4C0000",
"B+	c #4A2D29",
"C+	c #7B7273",
"D+	c #511F1F",
"E+	c #662B22",
"F+	c #331C18",
"G+	c #52221B",
"H+	c #64261D",
"I+	c #1C0D0A",
"J+	c #432F2D",
"K+	c #150907",
"L+	c #28100E",
"M+	c #1D0F0E",
"N+	c #0E0B0B",
"O+	c #482B28",
"P+	c #251D1C",
"Q+	c #5A4542",
"R+	c #352523",
"S+	c #352827",
"T+	c #070505",
"U+	c #806662",
"V+	c #0F0201",
"W+	c #534442",
"X+	c #332A28",
"Y+	c #433735",
"Z+	c #79635E",
"`+	c #4B3938",
" @	c #211513",
".@	c #342A28",
"+@	c #423431",
"@@	c #78615D",
"#@	c #6F5A58",
"$@	c #614E4A",
"%@	c #2F2523",
"&@	c #060303",
"*@	c #090101",
"=@	c #79625E",
"-@	c #725C58",
";@	c #6B5753",
">@	c #311E1C",
",@	c #3F2F2E",
"'@	c #30221F",
")@	c #0A0201",
"!@	c #2C2221",
"~@	c #3B2B29",
"{@	c #180704",
"]@	c #080000",
"^@	c #C88076",
"/@	c #3C1D1B",
"(@	c #1A0100",
"_@	c #100807",
":@	c #473C3B",
"<@	c #5C585A",
"[@	c #635F5F",
"}@	c #463838",
"|@	c #837879",
"1@	c #270100",
"2@	c #310807",
"3@	c #393737",
"4@	c #393738",
"5@	c #4F4C4D",
"6@	c #6D6768",
"7@	c #9C8C8F",
"8@	c #331715",
"9@	c #230807",
"0@	c #1F0100",
"a@	c #413E3E",
"b@	c #4B4748",
"c@	c #7F7576",
"d@	c #736D6E",
"e@	c #2F2C2C",
"f@	c #4E4A4B",
"g@	c #615152",
"h@	c #392D2E",
"i@	c #120000",
"j@	c #474546",
"k@	c #6D6667",
"l@	c #575455",
"m@	c #4C4949",
"n@	c #867B7C",
"o@	c #837677",
"p@	c #544344",
"q@	c #1D0000",
"r@	c #555153",
"s@	c #0E0000",
"t@	c #1C1818",
"u@	c #454142",
"v@	c #5C5758",
"w@	c #3E3B3C",
"x@	c #0F0C0C",
"y@	c #6C6667",
"z@	c #3D393A",
"A@	c #2E2B2B",
"B@	c #1F1B1B",
"C@	c #383535",
"D@	c #3F3B3C",
"E@	c #050303",
"F@	c #312E2E",
"G@	c #181414",
"H@	c #050505",
"I@	c #151111",
"J@	c #171616",
"K@	c #605C5C",
"L@	c #2A2727",
"M@	c #131313",
"N@	c #1C1616",
"O@	c #494646",
"P@	c #211E1D",
"Q@	c #504B4C",
"R@	c #615C5C",
"S@	c #343030",
"T@	c #3A3636",
"U@	c #585556",
"V@	c #524F4F",
"W@	c #464343",
"X@	c #1A1717",
"Y@	c #685F60",
"Z@	c #393636",
"`@	c #535050",
" #	c #343131",
".#	c #231F1F",
"+#	c #454242",
"@#	c #433D3D",
"##	c #5F5657",
"$#	c #7E7475",
"%#	c #948788",
"&#	c #8C8081",
"*#	c #3E0000",
"=#	c #736B6C",
"-#	c #070404",
";#	c #272525",
">#	c #050302",
",#	c #201413",
"'#	c #190D0C",
")#	c #130909",
"!#	c #453C3D",
"~#	c #656061",
"{#	c #756D6E",
"]#	c #4C4747",
"^#	c #4A3734",
"/#	c #22120E",
"(#	c #1B0F0E",
"_#	c #281814",
":#	c #59423E",
"<#	c #2E1814",
"[#	c #1E1211",
"}#	c #140908",
"|#	c #2E2525",
"1#	c #382C2B",
"2#	c #382827",
"3#	c #3D211C",
"4#	c #33130A",
"5#	c #2C0C07",
"6#	c #42201B",
"7#	c #271A19",
"8#	c #655553",
"9#	c #261312",
"0#	c #53413E",
"a#	c #0D0807",
"b#	c #3C2E2D",
"c#	c #070504",
"d#	c #3E3433",
"e#	c #271C1B",
"f#	c #433938",
"g#	c #2B1E1D",
"h#	c #60514F",
"i#	c #302625",
"j#	c #362524",
"k#	c #42312F",
"l#	c #3D3231",
"m#	c #57423F",
"n#	c #8C605B",
"o#	c #0B0403",
"p#	c #0C0908",
"q#	c #332624",
"                                          . + @ # #                                                 ",
"                                      $ . % & $ * # # =                                             ",
"                                    + + . - ; > , ' ) !                                             ",
"                                    ~ + { ' ] ^ / ( _ )                                             ",
"                                  : $ $ < [ * ^ } ' | ) 1                                           ",
"                                  2 + 3 4 < 5 6 7 8 9 ) 0                                           ",
"                                  ) a b c $ d e f ] $ g h i                                         ",
"                                  = ) $ $ j + # k l m n < !                                         ",
"                                      + o c d c 0 p q $ j r s t                                     ",
"                                      u + v w x 0 y z A j n B C D                                   ",
"                                      0 c E v F G H A I 9 ) J 5 K L M                               ",
"                                        d N O d P Q R + ) d S # T U 0 V                             ",
"                                          W X ) # Y Z `  ...d 0 0 +.@.M                             ",
"                                          1 #.$.%.&.$ ) = *.$.=.-.;.>.M V                           ",
"                                          =.-.+ ,.x '.'.#.).!.~.{.'.].^./.                          ",
"                                      =.~.v (._.] :.'.<.#.#.[.}.|.'.'./.1.                          ",
"                                    ~.) a c . 2.' A 3.v 0 X [.1 '.'.'.'.'.'.4.                      ",
"                                  5.6.7.) 8.8 9.j 2.' 0.d # a.b.c.d.'.~.'.'.'.=.                    ",
"                                e.f.. $ 0 b g.h.i.8 ^ j.<.) a.a.k.k.'.~.'.'.'.=.                    ",
"                                l.m.6.d X '.n.A o.p.^ ^ q.v r.a.k.k.'.'.'.'.'.~.                    ",
"                                s.t.'.'./.'.'.u.v.w.A A ] $ X x.y.z.'.'.'.'.A.=.                    ",
"                                l.'.'.'./.'.'.B.A C.D.n ^ ,.= a.y.'.'.E.F.'.=.=.                    ",
"                              l.G.'.H.1.'.'.'.I.J.K.L.k ' ( M.a.k.'.~.d.d.'.~.'.[.                  ",
"                              y.y.z.N.H.'.'.'.1.O.P.Q.7.R.< /.S.T.'.k.U.V.5.'.'./.W.                ",
"                              X.y.Y.Z.f.m.`. +'.'.'..+++@+#+'.$+'.z.k.'.5.V.'.'.%+&+/.              ",
"                            '.x.e.*+=+-+;+>+,+'.'.1.X '+:.' )+'.!+$+5.'.'.~+$+'.'.{+/./.            ",
"                            1.1.]+^+/+(+_+:+<+'.[+}+'.d |+1+S.5.$+2+3+'.'.4+2+'.'.'.'.'.            ",
"                            5+1.e.6+/+7+8+9+0+a+b+}+c+d+e+f+2+'.z.$+3+5.'.$+$+'.'.'.'.'.'.          ",
"                            '.'.H.g+h+i+j+k+k+k+l+y.m+l.n+y.z.'.'.'.'.'.'.    '.'.'.'.'.'.'.'.      ",
"                          1.'.'.t.H.o+p+k+k+q+r+s+x.t+u+z.'.'.'.'.'.'.'.          '.'.'.'.v+1       ",
"                          '.'.'.'.1.'.w+k+x+y+k+z+A+m.'.'.'.'.'.'.'.'.              '.'.'.M V '.    ",
"                        '.'.'.'.'.'.'.H.'.B+C+D+E+F+/.[.'.'.'.'.'.                  '.'.'.v+V 1 '.  ",
"                          '.'.'.'.'.1.m.1.G+H+1.'.'.X '.'.'.'.'.'.                    '.'.'.V '.'.  ",
"                            '.'.'.I+S.m.F+J+K+'.'.'.L+M+N+'.'.'.                        '.'.]./.'.  ",
"                            '.'.    F+b O+P+'.1.# 6.6.Q+R+'.'.                          '.'.'.'.'.  ",
"                              '.    X b S+V.T+U+c c V+W+X+'.'.                          '.'.'.'.'.  ",
"                              '.    t.<.'.'.Y+Z+`+ @c < .@'.'.'.                        '.'.'.'.'.  ",
"                              '.'.'.v '.'.+@@@o.#@$@* < %@'.'.'.                          '.'.'.'.  ",
"                              &@'.'.'.'.*@=@-@@+.+;@>@,@'@'.'.)@!@                        '.'.'.'.  ",
"                              v 1 6.6.'.) 2 @ ~@{@c d ]@'.'.'.).#.^@                      '.'.'.'.  ",
"                            '.c /@(@'._@M :@:@M <@[@'.'.*@,+}@k+k+|@2+l.                    '.'.'.  ",
"                        1@1@6.2@N.'.'.3@[@4@` [@[@5@'.'.m+6@e.m+m+7@7@1.y.                  '.'.'.  ",
"                        8@c 9@0@'.'.'.[@[@` b+7@]+l.'.'.a@m+b@y.e.|@k+1.x.                  '.'.'.  ",
"                        N.'.1@N.'.'.'.`  . .` c@d@l.e@'.f@m+y.k.e.|@/+g@h@                  '.'.'.  ",
"                      6.'.i@'.'.'.'.'.b+j@` ` ]+k@l.e.'.m+l@m@y.e.w+n@o@p@                  '.'.'.  ",
"                      1@t.q@'.1 '.'.'.b+` r@b+]+l.G.e.'.e.e.e.e.e.]+c@k+p@                '.'.'.'.  ",
"                    '.s@c 8.1 '.'.'.t@}+` }+}+m+e.y.y.'.e.e.e.m@u@v@]+]+l+              '.'.'.'.'.  ",
"                    '.'.'.'.'.'. .b+[@}+}+w@e.y.k.k.k.'.y.y.y.y.y.y.e.y.k.            '.'.'.'.'.'.'.",
"                  c   '.'.'.'.x@b+y@|@|@]+m+e.z@k.A@B@$+C@y.y.C@X.D@y.y.k.          '.'.'.'.'.'.'.'.",
"                  '.'.'.'.'.E@` c@]+l.k.5.k.k.F@B@G@H@'.5.I@'.B@F@k.k.5.5.                '.'.'.'.'.",
"                    '.'.'.J@c+]+]+K@e.k.5.L@A@t@I@V.'.4.5.V.'.I@t@A@L@5.5.                '.'.'.'.  ",
"                  m+M@N@x.e.l+l.l.e.O@A@5.5.I@H@'.V.5.5.V.'.'.'.5.5.5.5.                  '.'.'.'.  ",
"                e.P@m+l.m+m+y.Q@R@e.S@t@I@H@'.'.'.5.H@'.'.'.V.G@5.5.5.T@                2+'.  '.'.  ",
"              e.-.y.e.l.U@V@k.k.e.W@I@H@'.'.'.'.'.'.'.'.'.'.X@A@k.k.k.k.                2+  '.'.'.  ",
"              k.'.y.e.]+e.e.k.k.e.y.'.'.'.'.5.'.'.'.'.'.'.'.k.k.k.k.k.                      '.2+'.  ",
"              t+l+5.m+]+y.y.D@X.5.E.'.'.'.'.  '.'.'.'.'.'.'.X@k.k.k.k.                    '.        ",
"              $+e.k.z@]+b@y.e.y.'.'.'.5.'.    '.'.'.'.'.'.'.'.'.'.'.'.                              ",
"            Y@Z@e.k.k.`@m+y.y.T.'.'.'.5.      V.5.'.'.'.'.'.'.'.'.'.'.                              ",
"          l.k.O@l@y.5. #`@e.E.'.'.'.'.        5.V.'.'.'.'.'.E.5..#k.k.                              ",
"          N@'.y.k.k.L@5.k.y.'.V.I@            '.'.'.'.'.E.L@k.k.k.k.5.                              ",
"        ]+'.d.l.m++#k.B@'.5.'.G@              '.'.'.'.'.5.5.5.B@A@k.k.                              ",
"      e.t+e.y.y.y.e.k.A@5.'.G@                '.I@E.'.'.E.5.5.5.5.5.5.                              ",
"      @#t+|@|@|@6@m+5.'.H@G@                    5.5.'.'.'.'.'.t@k.5.5.                              ",
"      t+##$#]+m+m+`@$+'.                        5.5.'.V.I@5.5.k.t@5.                                ",
"      2+$#l.|@7@7@%#x.l+                        A@5.'.5.5.5.5.5.5.5.                                ",
"      '.|@|@&#7@7@7@*#*#                        k.5.'.'.'.'.'.'.'.                                  ",
"      $+|@=#l.|@]+]+m.A+                        k.I@'.'.'.'.'.'.'.5.                                ",
"      '.}+'.-#8.*.;#'.'.                          '.'.'.'.'.V.X@k.k.~.                              ",
"      c+ .v v '.'.'.*@1.                          I@'.'.'.H@G@A@y.D@T.'.                            ",
"      !.'.v v 8.N.'.#.S.                          5.H@'.E.5.B@k.k.b@y.'.'.                          ",
"       .'.X X >#t.'.X 1                           A@5.'.E.5.A@z@y.l.l.'.'.                          ",
"        1 ,#'#)#'.1 X '.                            '.'.'.'.m+t+H.!#~#m+d.'.                        ",
"        1 d 0 '#>#'.#.'.                            '.'.'.'.m+S.H.x.m+{#e.'.2+                      ",
"        1 0 X 0 )#'.'.'.                                '.'.E.x.F+l+m+]#$+^#/#2+                    ",
"          x 0 0 #.(#1.'.                                '.'.'.'.z.s.]+$+_#:#<#S.                    ",
"          ) d J [#}#V '.                                    '.'.'.|#d.'.F+F+F+S.                    ",
"          :@1#d '.'.1                                           '.'.'.'.H.H.H.H.2+                  ",
"          ! 2#1.'.0 '.                                            '.)+F+F+F+m.m.S.                  ",
"          S B '.'.v '.                                            '.2+F+3#4#m.5#6#F+                ",
"          ) # v '.6.[.                                                1.'.v v v d 7#                ",
"          c 8.@ 8#0                                                   '.'.0 W c 9#d )               ",
"          '.0#d = M.                                                    1 a#0 x 9#d )               ",
"          d d b#:@=                                                       '.c#0 d d ) )             ",
"        ) :@# :@d#e#                                                            d d ) ) X           ",
"      + 2 8#@ f#= d                                                             d d ) ) g#          ",
"      #.0 d d = 1#d                                                           $ $ # # ) ) M         ",
"    0 V = 8#h#@ d i#                                                  $ b j#6.$ k#) ) ) B 0         ",
"    = '.1 :@@ l#m#n#                                                6.) . 6.o## ) ) ) ) d 0 1       ",
"'.'.1 [.:#f.F+F+n#n#                                          ) X v v c c X v v d B ) ) d _@'.      ",
"      a.a.a.a.a.a.a.                                                          /./.#.0 c 1 p#q#      ",
"          a.a.a.a.                                                                  /././.a.a.      "};
