/* XPM */
static char * ZPAIC6_xpm[] = {
"50 91 424 2",
"  	c None",
". 	c #4A3837",
"+ 	c #574847",
"@ 	c #65514E",
"# 	c #745D5A",
"$ 	c #3C3231",
"% 	c #463433",
"& 	c #584442",
"* 	c #252B2E",
"= 	c #5E504F",
"- 	c #332322",
"; 	c #3C2C2B",
"> 	c #594543",
", 	c #67524F",
"' 	c #200F0C",
") 	c #433837",
"! 	c #333234",
"~ 	c #473635",
"{ 	c #54413F",
"] 	c #644F4D",
"^ 	c #5A4644",
"/ 	c #5C4846",
"( 	c #6E5855",
"_ 	c #715A57",
": 	c #020000",
"< 	c #503D3B",
"[ 	c #564241",
"} 	c #41302E",
"| 	c #4D3B39",
"1 	c #806B69",
"2 	c #221615",
"3 	c #4E3C3A",
"4 	c #554240",
"5 	c #614D4A",
"6 	c #614C49",
"7 	c #261918",
"8 	c #574341",
"9 	c #402624",
"0 	c #705E5D",
"a 	c #140707",
"b 	c #352524",
"c 	c #4D3B3A",
"d 	c #53413F",
"e 	c #644E4C",
"f 	c #302120",
"g 	c #160502",
"h 	c #2B1210",
"i 	c #453433",
"j 	c #523F3D",
"k 	c #584543",
"l 	c #343334",
"m 	c #41302F",
"n 	c #4F3C3B",
"o 	c #3E3332",
"p 	c #493D3C",
"q 	c #513F3D",
"r 	c #534242",
"s 	c #3D2C2B",
"t 	c #3F2825",
"u 	c #2F2828",
"v 	c #372827",
"w 	c #342524",
"x 	c #5B4745",
"y 	c #594645",
"z 	c #383536",
"A 	c #332423",
"B 	c #241615",
"C 	c #0C0000",
"D 	c #2F1B18",
"E 	c #302726",
"F 	c #483C3B",
"G 	c #584846",
"H 	c #241716",
"I 	c #624E4B",
"J 	c #363435",
"K 	c #2D1F1E",
"L 	c #251817",
"M 	c #140807",
"N 	c #231C1B",
"O 	c #453837",
"P 	c #362625",
"Q 	c #392A29",
"R 	c #4C403F",
"S 	c #403636",
"T 	c #392928",
"U 	c #100404",
"V 	c #1D100F",
"W 	c #413735",
"X 	c #4D3F3E",
"Y 	c #2F2929",
"Z 	c #3B3839",
"` 	c #4E4A4C",
" .	c #564847",
"..	c #4A3836",
"+.	c #180C0B",
"@.	c #2B1D1C",
"#.	c #312827",
"$.	c #322928",
"%.	c #1B1A1A",
"&.	c #181717",
"*.	c #232222",
"=.	c #211C1C",
"-.	c #5A4746",
";.	c #352E2D",
">.	c #0D0201",
",.	c #0B0605",
"'.	c #140E0D",
").	c #100C0B",
"!.	c #000000",
"~.	c #151414",
"{.	c #0B0A0A",
"].	c #2E2D2D",
"^.	c #060100",
"/.	c #5D4947",
"(.	c #010000",
"_.	c #0C0B0B",
":.	c #141313",
"<.	c #181211",
"[.	c #0E0301",
"}.	c #463533",
"|.	c #634E4C",
"1.	c #473634",
"2.	c #090808",
"3.	c #372B29",
"4.	c #594644",
"5.	c #222020",
"6.	c #2E2626",
"7.	c #271C1A",
"8.	c #372927",
"9.	c #150808",
"0.	c #523C3B",
"a.	c #050000",
"b.	c #6B5552",
"c.	c #210C0A",
"d.	c #1A1616",
"e.	c #333030",
"f.	c #493937",
"g.	c #423130",
"h.	c #55403E",
"i.	c #493735",
"j.	c #42231E",
"k.	c #4F4C4C",
"l.	c #231A19",
"m.	c #29211F",
"n.	c #695452",
"o.	c #6C5754",
"p.	c #271F1E",
"q.	c #1E0000",
"r.	c #6A6465",
"s.	c #100F0F",
"t.	c #0C0A09",
"u.	c #423E3F",
"v.	c #2B2121",
"w.	c #705B57",
"x.	c #5F4B49",
"y.	c #5A4745",
"z.	c #0B0000",
"A.	c #604C4C",
"B.	c #070707",
"C.	c #110E0E",
"D.	c #644F4C",
"E.	c #6B5652",
"F.	c #5B4847",
"G.	c #332928",
"H.	c #5A4341",
"I.	c #5D4846",
"J.	c #554442",
"K.	c #645351",
"L.	c #100000",
"M.	c #605C5D",
"N.	c #040202",
"O.	c #020202",
"P.	c #111010",
"Q.	c #2B2929",
"R.	c #23110D",
"S.	c #5E4A48",
"T.	c #55413F",
"U.	c #4C3A39",
"V.	c #4E3B3A",
"W.	c #030000",
"X.	c #090504",
"Y.	c #020101",
"Z.	c #120F0D",
"`.	c #4C3C3A",
" +	c #604C4A",
".+	c #6E5854",
"++	c #624E4C",
"@+	c #242020",
"#+	c #433939",
"$+	c #6B5C5D",
"%+	c #706A6B",
"&+	c #363333",
"*+	c #070403",
"=+	c #010101",
"-+	c #060504",
";+	c #140E0C",
">+	c #180B0B",
",+	c #2B2525",
"'+	c #655F61",
")+	c #432B2B",
"!+	c #846062",
"~+	c #998A8B",
"{+	c #96888A",
"]+	c #1E1513",
"^+	c #0E0C0A",
"/+	c #231B18",
"(+	c #644A46",
"_+	c #54403E",
":+	c #444243",
"<+	c #121212",
"[+	c #524E50",
"}+	c #7B7274",
"|+	c #5B4647",
"1+	c #715858",
"2+	c #8D8182",
"3+	c #837A7B",
"4+	c #766F70",
"5+	c #734D49",
"6+	c #674B49",
"7+	c #3E2B28",
"8+	c #1C1B1B",
"9+	c #595557",
"0+	c #0F0D0D",
"a+	c #71696B",
"b+	c #8D8283",
"c+	c #5D4949",
"d+	c #7E6A6B",
"e+	c #7D7475",
"f+	c #0D0000",
"g+	c #5B5252",
"h+	c #5B5859",
"i+	c #484343",
"j+	c #908485",
"k+	c #7E6F70",
"l+	c #715D5C",
"m+	c #7C7374",
"n+	c #362D2E",
"o+	c #201A19",
"p+	c #282523",
"q+	c #322728",
"r+	c #514E4E",
"s+	c #948688",
"t+	c #8F8283",
"u+	c #A08F90",
"v+	c #3E3334",
"w+	c #4C0000",
"x+	c #6E615F",
"y+	c #8B7A7A",
"z+	c #8E7E7D",
"A+	c #7A7273",
"B+	c #331C18",
"C+	c #662B22",
"D+	c #511F1F",
"E+	c #7B7273",
"F+	c #4A2D29",
"G+	c #64261D",
"H+	c #52221B",
"I+	c #0E0B0B",
"J+	c #1D0F0E",
"K+	c #28100E",
"L+	c #150907",
"M+	c #432F2D",
"N+	c #1C0D0A",
"O+	c #352523",
"P+	c #5A4542",
"Q+	c #251D1C",
"R+	c #482B28",
"S+	c #332A28",
"T+	c #534442",
"U+	c #0F0201",
"V+	c #806662",
"W+	c #070505",
"X+	c #352827",
"Y+	c #342A28",
"Z+	c #211513",
"`+	c #4B3938",
" @	c #79635E",
".@	c #433735",
"+@	c #2F2523",
"@@	c #614E4A",
"#@	c #6F5A58",
"$@	c #78615D",
"%@	c #423431",
"&@	c #2C2221",
"*@	c #0A0201",
"=@	c #30221F",
"-@	c #3F2F2E",
";@	c #311E1C",
">@	c #6B5753",
",@	c #725C58",
"'@	c #79625E",
")@	c #090101",
"!@	c #060303",
"~@	c #C88076",
"{@	c #080000",
"]@	c #180704",
"^@	c #3B2B29",
"/@	c #837879",
"(@	c #463838",
"_@	c #635F5F",
":@	c #5C585A",
"<@	c #473C3B",
"[@	c #100807",
"}@	c #1A0100",
"|@	c #3C1D1B",
"1@	c #9C8C8F",
"2@	c #6D6768",
"3@	c #4F4C4D",
"4@	c #393738",
"5@	c #393737",
"6@	c #310807",
"7@	c #270100",
"8@	c #4B4748",
"9@	c #413E3E",
"0@	c #1F0100",
"a@	c #230807",
"b@	c #331715",
"c@	c #392D2E",
"d@	c #615152",
"e@	c #4E4A4B",
"f@	c #2F2C2C",
"g@	c #736D6E",
"h@	c #7F7576",
"i@	c #544344",
"j@	c #837677",
"k@	c #867B7C",
"l@	c #4C4949",
"m@	c #575455",
"n@	c #6D6667",
"o@	c #474546",
"p@	c #120000",
"q@	c #555153",
"r@	c #1D0000",
"s@	c #5C5758",
"t@	c #454142",
"u@	c #1C1818",
"v@	c #0E0000",
"w@	c #3E3B3C",
"x@	c #3F3B3C",
"y@	c #383535",
"z@	c #1F1B1B",
"A@	c #2E2B2B",
"B@	c #3D393A",
"C@	c #6C6667",
"D@	c #0F0C0C",
"E@	c #312E2E",
"F@	c #151111",
"G@	c #050505",
"H@	c #181414",
"I@	c #050303",
"J@	c #2A2727",
"K@	c #605C5C",
"L@	c #171616",
"M@	c #494646",
"N@	c #1C1616",
"O@	c #131313",
"P@	c #3A3636",
"Q@	c #343030",
"R@	c #615C5C",
"S@	c #504B4C",
"T@	c #211E1D",
"U@	c #1A1717",
"V@	c #464343",
"W@	c #524F4F",
"X@	c #585556",
"Y@	c #535050",
"Z@	c #393636",
"`@	c #685F60",
" #	c #231F1F",
".#	c #343131",
"+#	c #454242",
"@#	c #433D3D",
"##	c #7E7475",
"$#	c #5F5657",
"%#	c #948788",
"&#	c #3E0000",
"*#	c #8C8081",
"=#	c #736B6C",
"-#	c #272525",
";#	c #070404",
">#	c #050302",
",#	c #656061",
"'#	c #453C3D",
")#	c #130909",
"!#	c #190D0C",
"~#	c #201413",
"{#	c #756D6E",
"]#	c #22120E",
"^#	c #4A3734",
"/#	c #4C4747",
"(#	c #2E1814",
"_#	c #59423E",
":#	c #281814",
"<#	c #1B0F0E",
"[#	c #2E2525",
"}#	c #140908",
"|#	c #1E1211",
"1#	c #382C2B",
"2#	c #382827",
"3#	c #42201B",
"4#	c #2C0C07",
"5#	c #33130A",
"6#	c #3D211C",
"7#	c #271A19",
"8#	c #261312",
"9#	c #655553",
"0#	c #0D0807",
"a#	c #53413E",
"b#	c #070504",
"c#	c #3C2E2D",
"d#	c #271C1B",
"e#	c #3E3433",
"f#	c #2B1E1D",
"g#	c #433938",
"h#	c #42312F",
"i#	c #362524",
"j#	c #302625",
"k#	c #60514F",
"l#	c #0B0403",
"m#	c #8C605B",
"n#	c #57423F",
"o#	c #3D3231",
"p#	c #332624",
"q#	c #0C0908",
"                                                . . + @ #                                           ",
"                                            $ . . % & * = # &                                       ",
"                                            - ; > , ' ) ! # @ @                                     ",
"                                            ; ~ { ] ^ / > ( @ _                                     ",
"                                          : ; < > [ ^ % } | & & 1                                   ",
"                                          2 ; 3 4 5 6 7 | 8 9 @ 0                                   ",
"                                        a b c & / d e f & g h i ;                                   ",
"                                        - | j k l m . @ n & & ; $                                   ",
"                                    o p q n & r s 2 g f g t @                                       ",
"                                  u v w j n x y z 2 A B C @ D                                       ",
"                              E F G 7 H ; 3 I x J K L C M g 2                                       ",
"                            N 2 O P . Q f ; @ R S T f U V f                                         ",
"                            E W X 2 2 f Y Z `  .... ; +.@.                                          ",
"                          N E #.$.%.&.*.=.$ ; & -.;.*.>.:                                           ",
"                          ,.'.).!.~.{.].^.>.!.!.A /.@ %.&.                                          ",
"                          (.,.!.!._.:.<.>.>.[.!.}./ |.1.C {.&.                                      ",
"                      2.!.!.!.!.!.!.: <.+.2 C 3.x > 4.# g i ; {.                                    ",
"                    &.!.!.!.{.!.5.6.7.8.. f 9.> 4.n 0.4 a.; b.c.d.                                  ",
"                    &.!.!.!.{.!.e.e.8.8.; [.f.^ 4 g.h.i.h 2 & # j.k.                                ",
"                    {.!.!.!.!.!.e.e.8.l.C m.^ ^ n.o.x p.!.+.f c.q.r.                                ",
"                    &.s.!.!.!.!.t.u.v.+.& / x x w.x.y.!.!.,.!.!.z.A.                                ",
"                    &.&.!.B.C.!.!.u.8.$ /.^ j D.E.x F.!.!.,.!.!.!.r.                                ",
"                  <.!.{.!.5.5.{.!.e.8.G.{ > m H.I.J.K.!.!.!.(.L.!.M.r.                              ",
"                N.,.!.!.d.O.P.e.!.Q.R.,.| S.b.T.U.V.(.!.!.!.L.W.t.u.u.                              ",
"              ,.X.Y.!.!.O.d.!.e.t.!.Z.!.`. +.+++!.!.!.@+#+q.j.$+%+u.&+                              ",
"            ,.,.*+!.!.Z.=+!.!.d.Z.-+!.;+> }.>++.(.!.!.,+'+)+!+~+{+k.v.!.                            ",
"            !.!.!.!.!.]+^+!.!./+]+Z.d.R.(+_+f !.:+<+!.[+}+|+1+2+3+4+(.(.                            ",
"          !.!.!.!.!.!.Z.Z.!.d./+Z.t.!.]+5+6+7+8+:+9+0+a+b+c+d+2+e+k.(.f+                            ",
"      !.!.!.!.!.!.!.!.    !.!.!.!.!.!.t.u.g+r.h+u.i+j+j+j+k+l+m+n+L.!.!.                            ",
"      : o+!.!.!.!.          !.!.!.!.!.!.!.t.p+q+v.r+s+t+j+j+u+v+L.z.!.!.(.                          ",
"    !.N E !.!.!.              !.!.!.!.!.!.!.!.q.w+x+j+y+z+j+A+!.(.!.!.!.!.                          ",
"  !.: N o+!.!.!.                  !.!.!.!.!.<.,.B+C+D+E+F+!.L.!.!.!.!.!.!.!.                        ",
"  !.!.N !.!.!.                    !.!.!.!.!.!.+.!.!.(.G+H+(.q.(.!.!.!.!.!.                          ",
"  !.,.).!.!.                        !.!.!.I+J+K+!.!.!.L+M+B+q.R.N+!.!.!.                            ",
"  !.!.!.!.!.                          !.!.O+P+c.c.. (.!.Q+R+h B+    !.!.                            ",
"  !.!.!.!.!.                          !.!.S+T+U+g g V+W+O.X+h +.    !.                              ",
"  !.!.!.!.!.                        !.!.!.Y+| g Z+`+ @.@!.!.[.z.    !.                              ",
"  !.!.!.!.                          !.!.!.+@| % @@#@o.$@%@!.!.C !.!.!.                              ",
"  !.!.!.!.                        &@*@!.!.=@-@;@>@++ +,@'@)@!.!.!.!.!@                              ",
"  !.!.!.!.                      ~@>.^.!.!.!.{@f g ]@^@+ 0 ; !.c.c.: C                               ",
"  !.!.!.                    r.]+/@j+j+(@,+)@!.!._@:@E <@<@E [@!.}@|@g !.                            ",
"  !.!.!.                  u.(.1@1@h+h+k.2@h+!.!.3@_@_@` 4@_@5@!.!.W.6@c.7@7@                        ",
"  !.!.!.                  v.(.j+/@k.u.8@h+9@!.!.r.4+1@9+` _@_@!.!.!.0@a@g b@                        ",
"  !.!.!.                  c@d@2+/@k.e.u.h+e@!.f@r.g@h@` Z Z ` !.!.!.W.7@!.W.                        ",
"  !.!.!.                  i@j@k@A+k.u.l@m@h+!.k.r.n@4+` ` o@9+!.!.!.!.!.p@!.c.                      ",
"  !.!.!.!.                i@j+h@4+k.k.k.k.k.!.k.M.r.4+9+q@` 9+!.!.!.: !.r@z.7@                      ",
"  !.!.!.!.!.              i+4+4+s@t@l@k.k.k.!.u.u.k.h+:+:+` :+u@!.!.!.: a.g v@!.                    ",
"!.!.!.!.!.!.!.            e.u.k.u.u.u.u.u.u.!.e.e.e.u.k.w@:+:+_@9+Z !.!.!.!.!.!.                    ",
"!.!.!.!.!.!.!.!.          e.u.u.x@&+y@u.u.y@Z.z@A@e.B@k.h+4+/@/@C@9+D@!.!.!.!.  g                   ",
"!.!.!.!.!.                d.d.e.e.E@z@!.F@d.!.G@H@z@E@e.e.d.e.r.4+h@` I@!.!.!.!.!.                  ",
"  !.!.!.!.                d.d.J@A@u@F@!.O.d.2.!.O.F@u@A@J@d.e.k.K@4+4+8+L@!.!.!.                    ",
"  !.!.!.!.                  d.d.d.d.!.!.!.O.d.d.O.!.G@F@d.d.A@M@k.r.r.i+k.v.N@O@h+                  ",
"  !.!.  !.]+                P@d.d.d.H@O.!.!.!.G@d.!.!.!.G@F@u@Q@k.R@S@u.h+h+r.h+T@k.                ",
"  !.!.!.  ]+                e.e.e.e.A@U@!.!.!.!.!.!.!.!.!.!.G@F@V@k.e.e.W@X@r.k.u.%.k.              ",
"  !.]+!.                      e.e.e.e.e.!.!.!.!.!.!.!.d.!.!.!.!.u.k.e.e.k.k.4+k.u.!.e.              ",
"        !.                    e.e.e.e.U@!.!.!.!.!.!.!.  !.!.!.!.C.d.&+x@u.u.4+h+d.i+q+              ",
"                              !.!.!.!.!.!.!.!.!.!.!.!.    !.d.!.!.!.u.k.u.8@4+B@e.k.Z.              ",
"                              !.!.!.!.!.!.!.!.!.!.d.O.      d.!.!.!.Q.u.u.h+Y@e.e.k.Z@`@            ",
"                              e.e. #d.C.!.!.!.!.!.O.d.        !.!.!.!.C.k.Y@.#d.u.m@M@e.r.          ",
"                              d.e.e.e.e.J@C.!.!.!.!.!.            F@O.!.u.e.d.J@e.e.u.!.N@          ",
"                              e.e.A@z@d.d.d.!.!.!.!.!.              H@!.d.!.z@e.+#h+r.5.!.4+        ",
"                              d.d.d.d.d.d.C.!.!.C.F@!.                H@!.d.A@e.k.u.u.u.k.q+k.      ",
"                              d.d.e.u@!.!.!.!.!.d.d.                    H@G@!.d.h+2@/@/@/@q+@#      ",
"                                d.u@e.d.d.F@O.!.d.d.                        !.Z.Y@h+h+4+##$#q+      ",
"                                d.d.d.d.d.d.d.!.d.A@                        i+v.%#1@1@/@r.##]+      ",
"                                  !.!.!.!.!.!.!.d.e.                        &#&#1@1@1@*#/@/@!.      ",
"                                d.!.!.!.!.!.!.!.F@e.                        w+q.4+4+/@r.=#/@Z.      ",
"                              {.e.e.U@O.!.!.!.!.!.                          !.!.-#=.a.;#!.:+!.      ",
"                            !.Q.x@u.A@H@G@!.!.!.F@                          (.)@!.!.!.C C Z 8+      ",
"                          !.!.u.8@e.e.z@d.C.!.G@d.                          R.>.!.W.a.C C !.].      ",
"                          !.!.r.r.u.B@A@d.C.!.d.A@                          : +.!.z.>#+.+.!.Z       ",
"                        !.5.h+,#'#L.q+h+!.!.!.!.                            !.+.: !.)#!#~#:         ",
"                      ]+!.k.{#h+v.L.R.h+!.!.!.!.                            !.>.!.>#!#2 f :         ",
"                    ]+]#^#Z./#h+i+B+v.C.!.!.                                !.!.!.)#2 +.2 :         ",
"                    R.(#_#:#Z.4+A.t.!.!.!.!.                                !.(.<#>.2 2 A           ",
"                    R.B+B+B+!.5.[#!.!.!.                                    !.N }#|#H f ;           ",
"                  ]+L.L.L.L.!.!.!.!.                                          : !.!.f 1#<@          ",
"                  R.q.q.B+B+B+;+!.                                            !.2 !.(.2#-           ",
"                B+3#4#q.5#6#B+]+!.                                            !.C !.!.w Q           ",
"                7#f C C C !.(.                                                <.c.!.C . ;           ",
"              ; f 8#g @.2 !.!.                                                  2 9#+ a.g           ",
"              ; f 8#A 2 0#:                                                     G.$ f a#!.          ",
"            ; ; f f 2 b#!.                                                      $ <@c#f f           ",
"          +.; ; f f                                                             d#e#<@. <@;         ",
"          f#; ; f f                                                             f $ g#+ 9#0 @       ",
"        E ; ; . . & &                                                           f 1#$ f f 2 >.      ",
"        2 w ; ; ; h#& c.i#h &                                                   j#f + k#9#$ N 2     ",
"      : 2 f ; ; ; ; . l#c.# ; c.                                                m#n#o#+ <@: !.$     ",
"      !.[@f ; ; w f C C +.g g C C +.;                                           m#m#B+B+j._#<.: !.!.",
"      p#q#: g 2 >.,.,.                                                          8.8.8.8.8.8.8.      ",
"      8.8.,.,.,.                                                                  8.8.8.8.          "};
