/* XPM */
static char * ZPAIC8_xpm[] = {
"42 92 506 2",
"  	c None",
". 	c #705E5D",
"+ 	c #574442",
"@ 	c #564442",
"# 	c #584442",
"$ 	c #60514F",
"% 	c #564645",
"& 	c #564342",
"* 	c #87716B",
"= 	c #473C3B",
"- 	c #564746",
"; 	c #544342",
"> 	c #5C4A47",
", 	c #735C59",
"' 	c #7F6662",
") 	c #846A66",
"! 	c #866E68",
"~ 	c #302726",
"{ 	c #4D3D3C",
"] 	c #5A4947",
"^ 	c #373536",
"/ 	c #272C2F",
"( 	c #403C3D",
"_ 	c #745D5A",
": 	c #483D3C",
"< 	c #4F3E3D",
"[ 	c #392A29",
"} 	c #3C2C2B",
"| 	c #4A3937",
"1 	c #6A5552",
"2 	c #816763",
"3 	c #020000",
"4 	c #382928",
"5 	c #2B2E31",
"6 	c #614C4A",
"7 	c #65514E",
"8 	c #8B766F",
"9 	c #000000",
"0 	c #170A0A",
"a 	c #534442",
"b 	c #5D4B49",
"c 	c #554140",
"d 	c #4A3837",
"e 	c #5C4846",
"f 	c #191211",
"g 	c #372827",
"h 	c #463735",
"i 	c #4D3B39",
"j 	c #41302F",
"k 	c #0B0000",
"l 	c #6A5855",
"m 	c #0A0605",
"n 	c #271D1C",
"o 	c #433432",
"p 	c #483938",
"q 	c #201919",
"r 	c #53403E",
"s 	c #2E201E",
"t 	c #302120",
"u 	c #030101",
"v 	c #312423",
"w 	c #3A2F2E",
"x 	c #473938",
"y 	c #211313",
"z 	c #2D1E1D",
"A 	c #261716",
"B 	c #322322",
"C 	c #382827",
"D 	c #231C1B",
"E 	c #282D2F",
"F 	c #322727",
"G 	c #352A29",
"H 	c #3C3130",
"I 	c #210C0A",
"J 	c #0C0000",
"K 	c #0D0201",
"L 	c #110605",
"M 	c #382B2A",
"N 	c #1D1818",
"O 	c #181413",
"P 	c #160502",
"Q 	c #180C0B",
"R 	c #1E0000",
"S 	c #252B2E",
"T 	c #281D1C",
"U 	c #0B0706",
"V 	c #241817",
"W 	c #442D2B",
"X 	c #999690",
"Y 	c #706859",
"Z 	c #5C4947",
"` 	c #453B3B",
" .	c #443B3A",
"..	c #302728",
"+.	c #080505",
"@.	c #1B1111",
"#.	c #594F4D",
"$.	c #423E3F",
"%.	c #3B3839",
"&.	c #322A2A",
"*.	c #312322",
"=.	c #42312F",
"-.	c #4F3D3B",
";.	c #53413F",
">.	c #14100F",
",.	c #655553",
"'.	c #402827",
").	c #79615E",
"!.	c #675451",
"~.	c #5E4D4A",
"{.	c #645350",
"].	c #270100",
"^.	c #4E4A4C",
"/.	c #4D3B3A",
"(.	c #5A4745",
"_.	c #453634",
":.	c #070606",
"<.	c #100C0B",
"[.	c #1C0F0C",
"}.	c #5B4A48",
"|.	c #5A4A48",
"1.	c #6C5857",
"2.	c #6F5A57",
"3.	c #443534",
"4.	c #2B1210",
"5.	c #0F0605",
"6.	c #2D2B2C",
"7.	c #635F5F",
"8.	c #574847",
"9.	c #3C1D1B",
"0.	c #462C2A",
"a.	c #513E3C",
"b.	c #453533",
"c.	c #070605",
"d.	c #201311",
"e.	c #715C59",
"f.	c #6D5957",
"g.	c #635150",
"h.	c #5F4D4C",
"i.	c #4E3D3C",
"j.	c #2E1C1B",
"k.	c #362927",
"l.	c #030202",
"m.	c #5B5759",
"n.	c #3C3535",
"o.	c #54413F",
"p.	c #52403E",
"q.	c #40312F",
"r.	c #342320",
"s.	c #413130",
"t.	c #444243",
"u.	c #221615",
"v.	c #5E4C4B",
"w.	c #5D4B4A",
"x.	c #594847",
"y.	c #604E4D",
"z.	c #4C3D3C",
"A.	c #5E4B47",
"B.	c #392826",
"C.	c #010000",
"D.	c #5D5759",
"E.	c #4C4040",
"F.	c #050000",
"G.	c #0C0909",
"H.	c #523F3D",
"I.	c #503E3D",
"J.	c #1C1B1B",
"K.	c #908485",
"L.	c #4D3E3D",
"M.	c #645150",
"N.	c #463431",
"O.	c #41302E",
"P.	c #0B0605",
"Q.	c #7E7576",
"R.	c #604E4C",
"S.	c #252122",
"T.	c #0F0C0C",
"U.	c #241C1B",
"V.	c #524140",
"W.	c #0F0B0B",
"X.	c #2B2525",
"Y.	c #D47A6E",
"Z.	c #6D3B34",
"`.	c #201A19",
" +	c #40302F",
".+	c #544443",
"++	c #221C1B",
"@+	c #080706",
"#+	c #110C0B",
"$+	c #1F1211",
"%+	c #050302",
"&+	c #565051",
"*+	c #897F7F",
"=+	c #A17E80",
"-+	c #5C3E3E",
";+	c #2E0000",
">+	c #4C0000",
",+	c #331715",
"'+	c #080000",
")+	c #23110D",
"!+	c #4B3A39",
"~+	c #635251",
"{+	c #5C4C4B",
"]+	c #2C1E1D",
"^+	c #150A0A",
"/+	c #372B2A",
"(+	c #554544",
"_+	c #4F403F",
":+	c #241E1D",
"<+	c #040303",
"[+	c #010101",
"}+	c #060404",
"|+	c #7C7374",
"1+	c #612A2A",
"2+	c #92696A",
"3+	c #817879",
"4+	c #5C5657",
"5+	c #646060",
"6+	c #4A4748",
"7+	c #866668",
"8+	c #211212",
"9+	c #100000",
"0+	c #64261D",
"a+	c #4B3E3D",
"b+	c #524342",
"c+	c #675552",
"d+	c #6D5958",
"e+	c #362C2C",
"f+	c #302423",
"g+	c #1B1616",
"h+	c #241C1C",
"i+	c #4C4647",
"j+	c #7F7576",
"k+	c #948788",
"l+	c #7D5351",
"m+	c #280C0C",
"n+	c #938788",
"o+	c #867B7C",
"p+	c #998A8D",
"q+	c #450B0B",
"r+	c #887C7D",
"s+	c #4D3330",
"t+	c #42201B",
"u+	c #615250",
"v+	c #3F302F",
"w+	c #5E4D4C",
"x+	c #5B4A49",
"y+	c #372D2C",
"z+	c #0D0101",
"A+	c #595455",
"B+	c #6C6465",
"C+	c #8A7F80",
"D+	c #837A7B",
"E+	c #4E0303",
"F+	c #430000",
"G+	c #3E0000",
"H+	c #836868",
"I+	c #928687",
"J+	c #9C8C8D",
"K+	c #AA9496",
"L+	c #A69394",
"M+	c #816461",
"N+	c #96878A",
"O+	c #866769",
"P+	c #1E1513",
"Q+	c #3C3231",
"R+	c #2B1D1C",
"S+	c #261817",
"T+	c #5C4B4A",
"U+	c #604F4E",
"V+	c #251918",
"W+	c #2B2929",
"X+	c #3B3737",
"Y+	c #6A6263",
"Z+	c #696162",
"`+	c #847A7B",
" @	c #726C6D",
".@	c #A19091",
"+@	c #8F8384",
"@@	c #9B8C8D",
"#@	c #7A7374",
"$@	c #AA9697",
"%@	c #927D7E",
"&@	c #948789",
"*@	c #716A6B",
"=@	c #333030",
"-@	c #070504",
";@	c #645351",
">@	c #231716",
",@	c #1C1616",
"'@	c #4F4C4C",
")@	c #1A1616",
"!@	c #494243",
"~@	c #575152",
"{@	c #140000",
"]@	c #422C2D",
"^@	c #98898B",
"/@	c #918586",
"(@	c #8A8081",
"_@	c #453E3F",
":@	c #060505",
"<@	c #96888A",
"[@	c #61595A",
"}@	c #150C0B",
"|@	c #837879",
"1@	c #343232",
"2@	c #110E0E",
"3@	c #100E0E",
"4@	c #8A7E7F",
"5@	c #807778",
"6@	c #7F7677",
"7@	c #5A5454",
"8@	c #897D7E",
"9@	c #8B7F80",
"0@	c #554E4E",
"a@	c #3C3434",
"b@	c #2E2D2D",
"c@	c #5B5859",
"d@	c #463838",
"e@	c #170B09",
"f@	c #6A6465",
"g@	c #867C7D",
"h@	c #7B7273",
"i@	c #766D6E",
"j@	c #252121",
"k@	c #716869",
"l@	c #6F696A",
"m@	c #484446",
"n@	c #181717",
"o@	c #1F1B1B",
"p@	c #3C3A3B",
"q@	c #5F595A",
"r@	c #8C8182",
"s@	c #4C4747",
"t@	c #595252",
"u@	c #887D7E",
"v@	c #615C5D",
"w@	c #1B1313",
"x@	c #595557",
"y@	c #232222",
"z@	c #111010",
"A@	c #464242",
"B@	c #4E4848",
"C@	c #847B7C",
"D@	c #1C0D0D",
"E@	c #706A6B",
"F@	c #83797A",
"G@	c #696364",
"H@	c #605C5D",
"I@	c #060000",
"J@	c #846062",
"K@	c #322728",
"L@	c #776F70",
"M@	c #353132",
"N@	c #544D4E",
"O@	c #201615",
"P@	c #6C6667",
"Q@	c #544849",
"R@	c #151213",
"S@	c #190000",
"T@	c #493938",
"U@	c #290000",
"V@	c #040000",
"W@	c #6E6768",
"X@	c #574A4A",
"Y@	c #240000",
"Z@	c #211A1A",
"`@	c #5D5A5B",
" #	c #221212",
".#	c #120000",
"+#	c #4C4849",
"@#	c #6B6566",
"##	c #090000",
"$#	c #120F0D",
"%#	c #715858",
"&#	c #52221B",
"*#	c #211C1C",
"=#	c #070403",
"-#	c #181211",
";#	c #0B0A0A",
">#	c #171212",
",#	c #170E0E",
"'#	c #806B69",
")#	c #0E0301",
"!#	c #28100E",
"~#	c #282626",
"{#	c #190D0C",
"]#	c #3B1714",
"^#	c #9C8C8F",
"/#	c #9A594F",
"(#	c #42231E",
"_#	c #2C1714",
":#	c #271A19",
"<#	c #33130A",
"[#	c #47241D",
"}#	c #0B0403",
"|#	c #766F70",
"1#	c #71423C",
"2#	c #604C4C",
"3#	c #615B5B",
"4#	c #807677",
"5#	c #332626",
"6#	c #331C18",
"7#	c #6D6768",
"8#	c #471D15",
"9#	c #110402",
"0#	c #854D47",
"a#	c #2C1210",
"b#	c #777071",
"c#	c #524F4F",
"d#	c #0D0100",
"e#	c #97888A",
"f#	c #634544",
"g#	c #47211B",
"h#	c #1A0908",
"i#	c #363333",
"j#	c #3F3B3C",
"k#	c #372F30",
"l#	c #2B2121",
"m#	c #585253",
"n#	c #887C7E",
"o#	c #7C5853",
"p#	c #98898C",
"q#	c #762B1E",
"r#	c #512D27",
"s#	c #221E1F",
"t#	c #535050",
"u#	c #484343",
"v#	c #877D7E",
"w#	c #5E5B5C",
"x#	c #676162",
"y#	c #544344",
"z#	c #6F6667",
"A#	c #3D3A3A",
"B#	c #464343",
"C#	c #3E3132",
"D#	c #5B4C4D",
"E#	c #726B6C",
"F#	c #330000",
"G#	c #971A05",
"H#	c #383535",
"I#	c #0E0D0D",
"J#	c #222020",
"K#	c #565354",
"L#	c #343132",
"M#	c #6E6869",
"N#	c #474344",
"O#	c #5F3732",
"P#	c #3D393A",
"Q#	c #6B4D48",
"R#	c #231F1F",
"S#	c #4B4748",
"T#	c #938687",
"U#	c #B09A9B",
"V#	c #645E5F",
"W#	c #2E2525",
"X#	c #877C7D",
"Y#	c #B89EA1",
"Z#	c #C7A7AA",
"`#	c #4E4A4B",
" $	c #615C5C",
".$	c #454142",
"+$	c #1A1717",
"@$	c #524E4F",
"#$	c #645F60",
"$$	c #635F60",
"%$	c #AC9798",
"&$	c #A08F92",
"*$	c #736B6C",
"=$	c #575354",
"-$	c #8C7F81",
";$	c #564B4B",
">$	c #585455",
",$	c #8C7F80",
"'$	c #605253",
")$	c #625C5D",
"!$	c #4A4647",
"~$	c #7A7171",
"{$	c #1C0D0A",
"]$	c #0C0604",
"^$	c #1C1918",
"/$	c #18110F",
"($	c #140E0C",
"_$	c #322523",
":$	c #372927",
"<$	c #090504",
"[$	c #080606",
"}$	c #0A0606",
"|$	c #28201F",
"1$	c #030000",
"2$	c #261918",
"3$	c #4A3734",
"4$	c #453A39",
"5$	c #514241",
"6$	c #140808",
"7$	c #332727",
"8$	c #332423",
"9$	c #715A57",
"0$	c #846B66",
"a$	c #201715",
"b$	c #211916",
"c$	c #27201F",
"d$	c #281F1E",
"e$	c #1B0F0E",
"f$	c #281E1B",
"g$	c #59423E",
"                                                      . + @ #                       ",
"                                                    $ % & @ + * *                   ",
"                                                  = - ; ; > , ' ) !                 ",
"                                                ~ = { ] ^ / ( _ _ ' )               ",
"                                                ~ : < @ [ } | 1 _ _ 2               ",
"                                                3 4 { 5 } 6 7 8 ) 7 _               ",
"                                              9 0 a b c d d e 7 _ _ _               ",
"                                              f g h & i j k ) ) _ l .               ",
"                                          m 9 n o p q d r k s t t = t               ",
"                                          9 u v w x t y d z A B C t                 ",
"                                        D 3 E F G H I J d # # } 6 t                 ",
"                                      } t K L M N O P Q R 9 9 9 9                   ",
"                                    } d S Q S T U V t W R X X Y ~                   ",
"                                  = Z d `  ...+.@.} d R R 9 9 9                     ",
"                              ~ #.$.%.&.*.=.-.;.>.9 ,.'.R 9 9 9                     ",
"                    ).!.~.{.d J ].9 9 ^.^.t /.(._.:.<.[.R X Y X                     ",
"                  Q }.|.1.2.3.9 4.5.9 6.7.8.9.0.a.b.c.d.9 9 9 t                     ",
"                3 t e.f.g.h.i.Q j.4.k.l.m.n.9 9 j o.p.q.[ r.s.8.t.                  ",
"              9 u.} v.w.x.y.z.} } A.B.C.D.E.F.9 } G.H.(.+ & I.t J.K.                ",
"              9 P } L.x.h.M.{ K t N.O.P.Q.R.S.9 3 J u T.U.V.& W.X.K.Y.Z.            ",
"            9 `.Q K  +.+v.% ++@+#+$+%+&+*+=+-+;+>+9 ) d ,+u.Q '+t.R )+              ",
"          Q !+~+{+]+^+/+(+_+:+<+[+}+9 |+*+=+1+>+2+R 3+4+5+6+t.9 7+8+9+0+            ",
"        ~ a+b+~.c+d+e+f+g+h+9 9 9 9 i+j+k+l+>+>+>+m+n+o+K.K.p+q+r+s+9+t+            ",
"      Q } u+ +v+w+x+y+z+9 9 9 9 C.A+B+C+D+E+F+G+G+H+I+K.J+K+L+M+N+O+C.P+)+          ",
"      Q Q+u.R+S+T+U+V+9 9 9 9 W+X+Y+Z+`+ @;+9+R R .@+@o+@@#@$@%@&@*@9 =@            ",
"    K 9 9 -@@.V x.;@>@9 9 ,@'@)@!@~@$.'@$.R C.{@]@^@/@(@_@:@K.<@n+[@9               ",
"    8.P C.9 9 }@u.Q+    =@|@$.=@=@9 9 1@2@9 9 C.W+3@4@5@6@7@'@8@9@0@                ",
"  9 a@%.b@9 9 9         )@c@d@e@C.e@9 9 9 9 f@9 9 G+g@9@h@i@j@k@C+l@9               ",
"J.%.%.m@n@n@9           o@=@P+C.k G+9 9 9 9 9 9 9 9 p@q@`+r@s@t@u@v@9               ",
"J.d w@x@y@9             =@z@9 9 9 R C.9 9 R 9 9 )@A@9 9 B@C@D@E@F@G@H@              ",
"9 e d x@J               $.9 9 9 9 ;+I@k 9 R 9 J@9 =@9 9 9 C.K@L@h@M@N@              ",
"9 O@# t.P                 9 9 9 9 G+9+9+9 9+C.)@9 9 9 9 9 C.K@P@r@Q@R@              ",
"F.9 7 3 9                 9 9 9 9 R 9+9+9+S@;+=@T@P+U@9 V@9+t+W@D+X@                ",
"9 9 ].].F.                9 9 9 9 9 F.9+Y@R Z@9 P+}+C.{@k I@9 `@L@ #                ",
"9 9 .#,+                  9 9 9 9 9 9 9+;+9+9 9 9 9 9 C.k 9 9 +#@#G+                ",
"9 9 ##I                 9 9 9 9 9 9 9 {@;+C.9 $#9 9 9 9 9 9 9 =@%#G+                ",
"J 9 9                   9 9 9 9 9 9 9 9 X.9 9 9 9 9 9 C.9 9 9 '@)+&#9+              ",
"9 9 9                   9 9 9 9 9 9 9 9 b@9 9 9 9 9 9 9 9     b@*#P ;+              ",
"9 9 9                 P.9 9 =#=#9 9 9 9 n@9 9 -#9 9 9 9       ;#T.9 I               ",
"9 9 J               = # C.9 8.Q >#9 9 t 9 9 3 9 9 9 9 )@      ;#9 9 C.R             ",
"9 9 9               3 } 7 t # u.'+9 9 } ;#t ,#3 9 9 9 3       n@9 9 9 R             ",
"9 9 ##            9 9 9 u.'#Q } 9 9 9 } _ 9._ 7 J 9 3 @.          9 9 C.;+          ",
"9 )#I !#].      $.~#9 9 t.K d t t 3 9 t {#P d I 9 9 9 K           9 9 t+]#;+        ",
"9 )#I I I       $.=@9 9 ^#f@&#/#(#_#3 :#t 3 } P J u.Q u.~ ;#      9 9+<#[#R         ",
"9 9 I }#9 9 R d@)@)@9 9 |#K.9+t+1#9+;+2#3#4#|#|#5#)+6#6#7#c@        9 8#<#<#        ",
"9 9 9#u.P     =@=@=@9 9 |#K.0#R a#&#&#|#|@b#f@j+|#j+9+9+c@c#          9+G+R ;+      ",
"9 9 3 9#d#    $.=@=@9 9 |#|@e#f#R g#&#|#|#|#|#|@|#|#C.9 f@'@          R ;+>+&#;+    ",
"9 9 9 9 h#    =@i#j#k#C.l#m#n#^#|@o#0#J@|@|@p#K.f@|#9+R c@            q#;+0+r#t+    ",
"9 9 9 9 9     s#$.|#$.9 9 9 t#c@c@c@'@'@$#u#K.v#|#|#>+;+c@            &#R <#9+9+    ",
"  9 9 9       $.'@$.$.c@C.9 w#x#f@|@|@|@|@y#y#z#|#j+R %#c@            ;+R 9 9 9     ",
"  9 9 9 9 )+    )@)@A#c@=@9 f@f@A@B#'@c@c@d@C#D#|#J@6#f@w#            <#R 9+k 9 R   ",
"    9+  9           )@$.$.$.$#'@c@t#'@|#|@K.|@)+2#;+|@E#f@            )+R F#G#C.&#  ",
"      0+            )@H#$.$.I#J#c@c@c@|#|@|#|#C.9+9+c@$.K#            9 I@R &#C.1#  ",
"                      9 $.$.L#9 9 '@$.'@'@M#|#c@y#u#c@K#N#              <#    6#O#0#",
"                        )@'@$.=@$#=@P#|#|@K.K.^#f@l#c@c@'@            0#&#    O#Q#0+",
"                        )@$.$.=@l#R#=@f@|@p#K.^#f@$#$.$.i#                    &#  &#",
"                        )@=@)@)@$.f@d@'@$.|#|@|@6#6#S#$.$.                          ",
"                          )@9 )@'@=@y#K.K.T#^#U#)+c@7#V#$.                          ",
"                          )@9 )@'@9 W#X#K.p+Y#Z#2#`#c@'@j@                          ",
"                            9 J#W+9 9 f@|#f@f@|#U#J@f@ $'@                          ",
"                              9 9 $#9 c@$..$'@|#U#@@|#c@=@                          ",
"                              9 +$=@9 W#$.@$#$|@Z#U#|@$$$.                          ",
"                                =@=@W+9 p@f@f@|#%$&$*$|@                            ",
"                                  =$|#Z@9 $.|@|#^#-$K.o+                            ",
"                                  |#|#;$9 c@|@f@F@|@p#K.                            ",
"                                c@f@c@|#C.f@|#>$f@2#U#,$                            ",
"                                K.M#|#'$C.k 9 C.9 @@U#U#                            ",
"                              |@|#|#K.e@9 9 9 k l#U#U#&$                            ",
"                              u#c@j+|#9 9 9 9 9 |@K.|#c@                            ",
"                            9 9 f@f@)+9 9 9 9 9 f@f@'@$.                            ",
"                            9 9 W+'@a@9 9 9 9 9 )$!$                                ",
"                            9 9 9 ~$'@=#{$]$9 $#$.^$                                ",
"                          9 /$($9 ,@u#)+6#e@9 9 9                                   ",
"                            P+P+9 9 9 3 3 9 9 9                                     ",
"                            P+P+9 9 9 C.C.9 9 9                                     ",
"                            P+P+9 9 9 9 9 9 9 9                                     ",
"                            _$($9 9 P.9 9 9 9                                       ",
"                            :$9 =#3 <.9 9                                           ",
"                          9 <$-#-#9 9 9                                             ",
"                          9 [$-#}$3 9                                               ",
"                        9 P.-#|$D 9 9                                               ",
"                      9 9 9 Q 3 3 K ~                                               ",
"                      9 9 9 Q+3 9 >#=                                               ",
"                    9 9 >#3 t 9 9 9 9                                               ",
"                    9 9 D Q t 9 1$3 P                                               ",
"                    9 9 D ~ t u.2$8.t                                               ",
"                    )+P+-#Q+8.= 8.} } ,.d                                           ",
"                    )+3$:$:$D Q+4$5$} # 8._ 7 7                                     ",
"                    )+3$:$:$-#~ ~ 6$7$u.8$. 7 9$0$                                  ",
"                    P+9 a$b$3$D c$d$J e$u.# # # d } d                               ",
"                      :$f$a$P+P+P+P+9 9 9 P.Q+,.7 K r#g$                            ",
"                      :$:$:$:$:$:$:$:$:$:$                                          "};
