/* XPM */
static char * A1_xpm[] = {
"40 91 645 2",
"  	c None",
". 	c #846B66",
"+ 	c #7F6562",
"@ 	c #554240",
"# 	c #524342",
"$ 	c #78615D",
"% 	c #87716A",
"& 	c #2A2B2E",
"* 	c #483837",
"= 	c #503C3B",
"- 	c #433736",
"; 	c #302726",
"> 	c #7E5F5A",
", 	c #8A746D",
"' 	c #866F6D",
") 	c #6C5654",
"! 	c #403939",
"~ 	c #483736",
"{ 	c #403130",
"] 	c #322827",
"^ 	c #685351",
"/ 	c #3B1E1C",
"( 	c #9D8984",
"_ 	c #695452",
": 	c #6C5754",
"< 	c #6D5B58",
"[ 	c #4F403F",
"} 	c #443433",
"| 	c #362827",
"1 	c #181211",
"2 	c #372827",
"3 	c #342625",
"4 	c #473837",
"5 	c #2B1C1B",
"6 	c #382726",
"7 	c #78615E",
"8 	c #695755",
"9 	c #3C2C2B",
"0 	c #3B2B2A",
"a 	c #4A3734",
"b 	c #655755",
"c 	c #392B29",
"d 	c #261716",
"e 	c #957F7A",
"f 	c #2D100D",
"g 	c #342422",
"h 	c #79625E",
"i 	c #7C635F",
"j 	c #3F2F2E",
"k 	c #3F2E2D",
"l 	c #372927",
"m 	c #200000",
"n 	c #210000",
"o 	c #1F0000",
"p 	c #715C57",
"q 	c #7A5B57",
"r 	c #795752",
"s 	c #79615E",
"t 	c #7B615D",
"u 	c #3D2D2C",
"v 	c #372726",
"w 	c #3B2120",
"x 	c #9C7874",
"y 	c #7D6546",
"z 	c #1E0000",
"A 	c #4A3837",
"B 	c #846A66",
"C 	c #6E5753",
"D 	c #725B58",
"E 	c #2A1D1C",
"F 	c #160502",
"G 	c #000000",
"H 	c #080000",
"I 	c #49322F",
"J 	c #6B5551",
"K 	c #68534F",
"L 	c #312322",
"M 	c #342524",
"N 	c #170302",
"O 	c #7B625E",
"P 	c #6B5451",
"Q 	c #614C49",
"R 	c #4D3C3B",
"S 	c #221919",
"T 	c #050404",
"U 	c #A1996B",
"V 	c #595954",
"W 	c #290B0B",
"X 	c #745D5B",
"Y 	c #68524F",
"Z 	c #554441",
"` 	c #241D1D",
" .	c #0D0706",
"..	c #8B766F",
"+.	c #0A0000",
"@.	c #230606",
"#.	c #755E5B",
"$.	c #6F5855",
"%.	c #3C2F2C",
"&.	c #170D0C",
"*.	c #4D3837",
"=.	c #604C4A",
"-.	c #453534",
";.	c #3A2E2B",
">.	c #332524",
",.	c #231C1B",
"'.	c #180C0B",
").	c #65514E",
"!.	c #1D1212",
"~.	c #2E2D2D",
"{.	c #484040",
"].	c #3F3737",
"^.	c #514242",
"/.	c #210C0A",
"(.	c #382B29",
"_.	c #423837",
":.	c #261B1A",
"<.	c #211615",
"[.	c #2B2829",
"}.	c #0B0A0A",
"|.	c #755E5A",
"1.	c #78605D",
"2.	c #584442",
"3.	c #331715",
"4.	c #0B0000",
"5.	c #544341",
"6.	c #725551",
"7.	c #65524E",
"8.	c #63544F",
"9.	c #0C0201",
"0.	c #373131",
"a.	c #040303",
"b.	c #3C1918",
"c.	c #806560",
"d.	c #8A7470",
"e.	c #9F716A",
"f.	c #26110F",
"g.	c #250503",
"h.	c #473635",
"i.	c #553936",
"j.	c #836B66",
"k.	c #6E5A56",
"l.	c #41302C",
"m.	c #070302",
"n.	c #715858",
"o.	c #B09A9B",
"p.	c #4E4A4C",
"q.	c #3D1C18",
"r.	c #4C2722",
"s.	c #56302B",
"t.	c #572A25",
"u.	c #4B1916",
"v.	c #7E625D",
"w.	c #966F6A",
"x.	c #755D59",
"y.	c #25100E",
"z.	c #543935",
"A.	c #714B46",
"B.	c #7D6460",
"C.	c #604C49",
"D.	c #1E1614",
"E.	c #1A1110",
"F.	c #3E0000",
"G.	c #BFA3A5",
"H.	c #100000",
"I.	c #300D0B",
"J.	c #340908",
"K.	c #3D0B0B",
"L.	c #470E0C",
"M.	c #6D4844",
"N.	c #79605C",
"O.	c #67524F",
"P.	c #240F0D",
"Q.	c #3F302F",
"R.	c #77605D",
"S.	c #775F5C",
"T.	c #604845",
"U.	c #564240",
"V.	c #1D1615",
"W.	c #7E4943",
"X.	c #846062",
"Y.	c #854D47",
"Z.	c #9E8D8F",
"`.	c #320606",
" +	c #4C0000",
".+	c #390000",
"++	c #460D0A",
"@+	c #58211D",
"#+	c #6D3532",
"$+	c #61433E",
"%+	c #6D5754",
"&+	c #765F5C",
"*+	c #50423E",
"=+	c #836D68",
"-+	c #5F4A48",
";+	c #614D4A",
">+	c #2E2322",
",+	c #4E2D2A",
"'+	c #64261D",
")+	c #908485",
"!+	c #766F70",
"~+	c #6F6869",
"{+	c #756D6E",
"]+	c #431715",
"^+	c #4B1614",
"/+	c #3B0706",
"(+	c #2E0000",
"_+	c #020000",
":+	c #010000",
"<+	c #020101",
"[+	c #3F2E2C",
"}+	c #4C3A38",
"|+	c #2F201F",
"1+	c #513F3D",
"2+	c #423634",
"3+	c #584E4B",
"4+	c #383535",
"5+	c #5D4643",
"6+	c #5A4744",
"7+	c #191010",
"8+	c #9C8C8F",
"9+	c #6D6465",
"0+	c #454142",
"a+	c #6A6363",
"b+	c #837879",
"c+	c #331C18",
"d+	c #441714",
"e+	c #41110F",
"f+	c #450C0A",
"g+	c #360000",
"h+	c #130000",
"i+	c #1E1513",
"j+	c #352521",
"k+	c #2F2625",
"l+	c #271F1F",
"m+	c #1F1B1A",
"n+	c #15191A",
"o+	c #524443",
"p+	c #7B6360",
"q+	c #7A615D",
"r+	c #6D5653",
"s+	c #23110D",
"t+	c #544344",
"u+	c #5B5859",
"v+	c #423E3F",
"w+	c #4F4C4C",
"x+	c #746B6C",
"y+	c #120A08",
"z+	c #340000",
"A+	c #250000",
"B+	c #221210",
"C+	c #4B3734",
"D+	c #3F2F2C",
"E+	c #2B2322",
"F+	c #251E1E",
"G+	c #171312",
"H+	c #191E20",
"I+	c #5D4B49",
"J+	c #7B6260",
"K+	c #755D5A",
"L+	c #7E6561",
"M+	c #4E3B37",
"N+	c #3C3A3B",
"O+	c #1A1616",
"P+	c #171516",
"Q+	c #575051",
"R+	c #766C6D",
"S+	c #5F5B5C",
"T+	c #5E4F50",
"U+	c #360C0C",
"V+	c #330000",
"W+	c #401613",
"X+	c #2A1613",
"Y+	c #2A211F",
"Z+	c #1B1615",
"`+	c #1B1E1F",
" @	c #584C47",
".@	c #6D5552",
"+@	c #745C59",
"@@	c #231B1A",
"#@	c #290000",
"$@	c #463838",
"%@	c #716A6B",
"&@	c #807677",
"*@	c #988788",
"=@	c #968586",
"-@	c #A79194",
";@	c #92696A",
">@	c #220505",
",@	c #32211E",
"'@	c #2B1815",
")@	c #130A09",
"!@	c #332725",
"~@	c #131010",
"{@	c #3A3434",
"]@	c #473936",
"^@	c #7C6460",
"/@	c #6F5A57",
"(@	c #5F4D49",
"_@	c #0B0908",
":@	c #6A6465",
"<@	c #140000",
"[@	c #604C4C",
"}@	c #877A7B",
"|@	c #897D7E",
"1@	c #8B8081",
"2@	c #5A3A35",
"3@	c #A48D8E",
"4@	c #836E70",
"5@	c #160B09",
"6@	c #372926",
"7@	c #090505",
"8@	c #3B302D",
"9@	c #342320",
"0@	c #3D3131",
"a@	c #715A57",
"b@	c #5D4A48",
"c@	c #100D0C",
"d@	c #484343",
"e@	c #060000",
"f@	c #120F0D",
"g@	c #84797A",
"h@	c #6B595A",
"i@	c #8F8283",
"j@	c #908285",
"k@	c #070707",
"l@	c #1E1919",
"m@	c #22100F",
"n@	c #282121",
"o@	c #7B625F",
"p@	c #725B59",
"q@	c #654C49",
"r@	c #080706",
"s@	c #333030",
"t@	c #3B0000",
"u@	c #542421",
"v@	c #917371",
"w@	c #817778",
"x@	c #948588",
"y@	c #806A6B",
"z@	c #221C1A",
"A@	c #6D5855",
"B@	c #856B67",
"C@	c #594543",
"D@	c #2B2121",
"E@	c #190000",
"F@	c #310000",
"G@	c #7C5853",
"H@	c #867A7C",
"I@	c #886C6E",
"J@	c #311512",
"K@	c #1E1816",
"L@	c #352A2A",
"M@	c #7A625F",
"N@	c #705A57",
"O@	c #7E6662",
"P@	c #745D5A",
"Q@	c #777071",
"R@	c #938587",
"S@	c #53403D",
"T@	c #100303",
"U@	c #0E0908",
"V@	c #110E0E",
"W@	c #453D3F",
"X@	c #7D6562",
"Y@	c #544C4C",
"Z@	c #3B393A",
"`@	c #3B3839",
" #	c #170B09",
".#	c #0D0000",
"+#	c #392321",
"@#	c #7F6764",
"##	c #76615E",
"$#	c #4B4849",
"%#	c #050000",
"&#	c #271210",
"*#	c #4A3A3A",
"=#	c #837778",
"-#	c #3E2926",
";#	c #7E6461",
">#	c #695A57",
",#	c #080605",
"'#	c #322728",
")#	c #320000",
"!#	c #120000",
"~#	c #370000",
"{#	c #240000",
"]#	c #300000",
"^#	c #25100C",
"/#	c #0E0C0C",
"(#	c #4D312E",
"_#	c #654946",
":#	c #785E5B",
"<#	c #634E4E",
"[#	c #6B0000",
"}#	c #1B1311",
"|#	c #41302D",
"1#	c #451310",
"2#	c #4F110D",
"3#	c #430906",
"4#	c #460E0A",
"5#	c #4B1D19",
"6#	c #020202",
"7#	c #18110F",
"8#	c #8B4942",
"9#	c #7E5855",
"0#	c #5F5555",
"a#	c #5C0202",
"b#	c #33130A",
"c#	c #2B2525",
"d#	c #070000",
"e#	c #250A08",
"f#	c #180502",
"g#	c #0C0000",
"h#	c #5D4B48",
"i#	c #322323",
"j#	c #373435",
"k#	c #160807",
"l#	c #595557",
"m#	c #0D0201",
"n#	c #090303",
"o#	c #564340",
"p#	c #4B3938",
"q#	c #3F2F2D",
"r#	c #2C1F1E",
"s#	c #221616",
"t#	c #28110F",
"u#	c #302120",
"v#	c #2B1210",
"w#	c #180704",
"x#	c #604B48",
"y#	c #6F5956",
"z#	c #433130",
"A#	c #644F4D",
"B#	c #63514F",
"C#	c #0D0A0A",
"D#	c #3C1D1B",
"E#	c #1F0F0C",
"F#	c #5F4A49",
"G#	c #675452",
"H#	c #1D100F",
"I#	c #421B17",
"J#	c #270100",
"K#	c #2D2121",
"L#	c #58332E",
"M#	c #180B0B",
"N#	c #463534",
"O#	c #7C6461",
"P#	c #5D4846",
"Q#	c #6A5552",
"R#	c #473534",
"S#	c #4A3E3D",
"T#	c #310807",
"U#	c #211414",
"V#	c #827878",
"W#	c #68463E",
"X#	c #231210",
"Y#	c #5C4745",
"Z#	c #42302F",
"`#	c #030000",
" $	c #271311",
".$	c #2B2728",
"+$	c #71423C",
"@$	c #5F3732",
"#$	c #584747",
"$$	c #3D2D2D",
"%$	c #52221B",
"&$	c #9A594F",
"*$	c #C16F63",
"=$	c #AC645A",
"-$	c #444243",
";$	c #3C3231",
">$	c #422D2A",
",$	c #635050",
"'$	c #5B0000",
")$	c #957577",
"!$	c #A99597",
"~$	c #C7A7AA",
"{$	c #473C3B",
"]$	c #5C4C4D",
"^$	c #837779",
"/$	c #9A8A8D",
"($	c #280000",
"_$	c #160000",
":$	c #877C7D",
"<$	c #221615",
"[$	c #846365",
"}$	c #8C7F81",
"|$	c #7A7273",
"1$	c #83797A",
"2$	c #7F7677",
"3$	c #B89EA1",
"4$	c #98898C",
"5$	c #312422",
"6$	c #510000",
"7$	c #9E8D90",
"8$	c #AC9798",
"9$	c #6D6667",
"0$	c #8F8284",
"a$	c #A18E8F",
"b$	c #480000",
"c$	c #928384",
"d$	c #AF9A9B",
"e$	c #9B8A8C",
"f$	c #692929",
"g$	c #736D6E",
"h$	c #6E6868",
"i$	c #575354",
"j$	c #8F8384",
"k$	c #867B7C",
"l$	c #84686A",
"m$	c #887C7E",
"n$	c #221F1E",
"o$	c #391310",
"p$	c #2A0C0B",
"q$	c #938687",
"r$	c #464343",
"s$	c #676162",
"t$	c #696364",
"u$	c #77696A",
"v$	c #5C5758",
"w$	c #3D393A",
"x$	c #2E2B2B",
"y$	c #090808",
"z$	c #2A2727",
"A$	c #1A0100",
"B$	c #1D0000",
"C$	c #605C5D",
"D$	c #1F1E1E",
"E$	c #6E6364",
"F$	c #1F1B1B",
"G$	c #7A7172",
"H$	c #2A2828",
"I$	c #4B4748",
"J$	c #343031",
"K$	c #504B4C",
"L$	c #140E0C",
"M$	c #0D0C0C",
"N$	c #1E1B1B",
"O$	c #282424",
"P$	c #151111",
"Q$	c #7F7576",
"R$	c #5C4E4F",
"S$	c #2B2828",
"T$	c #181414",
"U$	c #656061",
"V$	c #6E6869",
"W$	c #5C595A",
"X$	c #83787A",
"Y$	c #575455",
"Z$	c #050505",
"`$	c #8C8081",
" %	c #474344",
".%	c #4C4646",
"+%	c #797172",
"@%	c #6D6768",
"#%	c #252121",
"$%	c #060505",
"%%	c #928386",
"&%	c #4C4748",
"*%	c #3A3636",
"=%	c #726B6C",
"-%	c #625C5D",
";%	c #4A4647",
">%	c #988889",
",%	c #696465",
"'%	c #5A5657",
")%	c #8F8183",
"!%	c #70696A",
"~%	c #564A4B",
"{%	c #B0979A",
"]%	c #A78D90",
"^%	c #877B7D",
"/%	c #948587",
"(%	c #8F8081",
"_%	c #B2989B",
":%	c #928485",
"<%	c #786F70",
"[%	c #1D1A19",
"}%	c #978788",
"|%	c #8E8081",
"1%	c #9C898B",
"2%	c #9E8C8D",
"3%	c #272425",
"4%	c #948586",
"5%	c #9C8B8D",
"6%	c #413E3E",
"7%	c #AB9496",
"8%	c #A68F91",
"9%	c #978485",
"0%	c #9E8D8E",
"a%	c #42201B",
"b%	c #B38B86",
"c%	c #AB9394",
"d%	c #A39192",
"e%	c #C39FA2",
"f%	c #AE9395",
"g%	c #998485",
"h%	c #8E8082",
"i%	c #492E2B",
"j%	c #403839",
"k%	c #6C6566",
"l%	c #A89495",
"m%	c #AC9598",
"n%	c #968687",
"o%	c #9C8B8C",
"p%	c #564546",
"q%	c #484041",
"r%	c #837375",
"s%	c #776F70",
"t%	c #7B7374",
"u%	c #5C5858",
"v%	c #7E7273",
"w%	c #1C1A1A",
"x%	c #282523",
"y%	c #615C5C",
"z%	c #120E0E",
"A%	c #4F4343",
"B%	c #2C2828",
"C%	c #0C0A09",
"D%	c #252223",
"E%	c #2F2C2C",
"F%	c #1C1312",
"G%	c #060404",
"H%	c #030101",
"I%	c #0B0605",
"J%	c #0A0706",
"K%	c #0A0605",
"L%	c #22120E",
"M%	c #090504",
"N%	c #0F0A09",
"O%	c #070403",
"P%	c #040101",
"Q%	c #070303",
"R%	c #130909",
"S%	c #0D0807",
"T%	c #655553",
"U%	c #190906",
"V%	c #2D1B18",
"W%	c #372C2B",
"X%	c #41302F",
"Y%	c #0C0404",
"Z%	c #4A3B3A",
"`%	c #53403E",
" &	c #211C1C",
"                                                . + @ #                         ",
"                                            $ % % & * = - ;                     ",
"                                          > % , ' ) ! ~ { ]                     ",
"                                          ^ / ( _ : < [ } | 1                   ",
"                                          2 3 4 5 6 7 8 9 0 a                   ",
"                                        b c d e f g h i j k l                   ",
"                                        m n o p q r s t u v l                   ",
"                                        w x y z A B C D u E F                   ",
"                                        G H G G I i J K L M                     ",
"                                        G G G N O P Q R S T                     ",
"                                        U V U W X Y Z j `  .                    ",
"                                      ..G G +.@.#.$.} %.&.G                     ",
"                                      B B z z *.9 =.-.;.>.,.;                   ",
"                                      '.).z !.~.{.].].^./.(._.:.<.              ",
"                                      [.}.z |.B 1.2.3.4.A 5.6.7.8.9.            ",
"                                    0.}.a.b.c.d.. e.f.g.h.i.> j.k.l.m.          ",
"                                n.o.p.q.r.s.t.u.v.w.x.y./.z.A.s B.C.D.E.        ",
"                              F.G.o.H.G H.I.J.K.L.M.N.O.P.Q.R.S.B T.U.V.W.      ",
"                            X.Y.o.Z.`. +F..+F.++@+#+$+%+&+9 B *+=+-+;+>+,+      ",
"                          o.'+)+!+~+{+l ]+^+/+(+_+:+<+[+}+|+1+2+3+4+5+6+7+      ",
"                        )+8+!+9+0+a+b+c+d+e+f+g+h+G i+j+k+G l+m+n+o+p+q+r+s+    ",
"                        b+t+u+v+w+{+x+y+c+c+c+z+A+:+B+C+D+E+F+G+H+I+J+K+L+M+    ",
"                        N+G O+P+v+Q+R+S+T+U+(+V+W+:+:+s+X++.Y+Z+`+ @h .@+@@@    ",
"                      v+G G z #@$@%@&@*@=@-@;@>@,@:+H.H.'@)@!@~@{@]@^@/@(@_@    ",
"                      :@G +.<@z z [@b+}@|@1@X.2@3@4@:+G 5@6@7@8@9@0@B.a@b@c@    ",
"                      d@:+z e@G f@v+R+b+g@h@z i@j@(+G G G G k@l@m@n@o@p@q@r@    ",
"                    s@s+G G G z t@u@v@w@|@z #@x@y@H.O+f@G G G G '.z@O A@B@C@    ",
"                    D@z G G G E@F@F.G@b+H@H.I@)+J@H.G G G G G G K@L@M@N@O@P@    ",
"                  F.d@X.G G G G :+H.H.Q@R@)+)+S@T@U@G G G G V@    W@X@P@Y@Z@`@  ",
"                  G B+ #G z G s+.#H.H.e@:@u+b+:+f@a.G G f@G       +#@###u+$#O+  ",
"                  G G G G G :+%#E@<@h+H.&#O+*#G f@G G G G       =#-#;#>#$@,#i+  ",
"                  f@G G G '#)#!#z+~#{#]#H.^#G G G G G /#        (#_#:#<#[#}#|#  ",
"                  G G G :+G F.(+1#2#g+3#4#5#B+G G 6#7#l         8#9#0#a#b#      ",
"                G G   :+G G c#_+'.d#%#e#f#g#'.G G 7#|#          h#i#j#k#G       ",
"              l#G       /.  }.G m#n#o#p#U.q#r#s#:+              t#_+4.G         ",
"                      u#v#  F G A w#S.x#y#z#A#B#C#              G D#3.G         ",
"                      u#  D#,.4.u#E#P@P@2.F#P@G#H#              _+I#J#          ",
"              G G g#9 K#  L#0.D#M#M N#O#u#P#Q#R#S#1             J#T#G           ",
"                  F G U#V#W#W#2.F 9 X#Y#u#B u#Z#P@P@          G 3.`#G           ",
"                9  $G .$b+B D#_+g#u#g#A 9 2.E#u#u#+$@$        G /.G G           ",
"              ; 9 9 F #$b+$$/./.%$&$+$&$*$=$Y.t+s+i+c+s+    G H :+G G           ",
"              -$;$g#(+>$b+,$!+'$(+(+'$)$8+!$~$o.b+H.H.E@u+  {$1 G 3.G           ",
"            !+o.~$:+G ]$^$/$o.z ($_$E@8+~$8+)+)+:$c+`#.#w+  <$,.A v#            ",
"              b+t+:+H.[$b+8+}$X.H.:+H.|$b+!+1$)+)+2$G G v+4.{$B L#G             ",
"              b+;@:+H.b+b+8+8+8+{#H.{#b+)+&@|$3$4$)+5$G F r.9 q.q.G             ",
"              b+)+'$6$^$b+7$8$o.(+z (+8+1$9$!+8+0$!+u+:+J#).%#J#J#G             ",
"              b+a$b$'$c$b+d$e$8+b+f$(+t+:@g$!+o.h$i$D@ +T#3./.J#m G             ",
"            u+j$k$[#'$l$b+8+R@m$o.b+:+G n$0+w+w+w+w+G G o$v#p$J#F G             ",
"          w+!+)+)+z  ++$b+q$8+b+b+d@G G v+w+w+w+r$v+G s@o$/.J#J#%#G             ",
"          w+:@:@:@X.F.F.b+s$u+u+t$u$[@H.v$w$x$O+y$z$O+6#A$v#B$4.`#G             ",
"          w+:@:@C$v+G G b+u+D$G !+[@E$s@s@s@F$O+O+O+G O+G 4.G G G G             ",
"        :@u+:@G$!+:@:+G b+H$G G b+[@b+d@I$v+J$O+O+s@G O+G G G G G G             ",
"        :@K$w+w+w+L$G G b+M$G G v+t+:@v+v+v+J$O+O+O+G O+G z   G   :+            ",
"      O+:@:@u+u+u+G :+u+b+N$G G :@!+:@v+v+O$O+O+O+P$G G   G   G G               ",
"      s@v+b+b+Q$!+z R$:@b+S$G G :@)+:@I$v+O+O+O+T$6#G G   G     G               ",
"    v+U$u+w+u+!+V$z s$W$b+X$G     )+X.!+:@Y$w+O+Z$G G G                         ",
"    s@u+{+b+b+k$`$t+u+ %.%b+      u+n.+%@%w+#%O+v+D@s@F$                        ",
"    w+v+~+b+k$)+:$d@C$:@$%          [@%%b+w+v+u+u+&%*%s@                        ",
"    :@!+H@`$:$=%u+U$-%;%O+          t+`$>%8+)+!+,%'%d@v+                        ",
"    b+4$)%&@!%=%~%u+v+v+O+          [@{%]%8+)+Q$g$:@f@O+                        ",
"    ^%/%(%|@`$!+c+I$v+v+            H._%:%<%:@:@!+:@[%s@                        ",
"    x@}%|%1%2%X.z v+3%G               4$4%5%:@v+I$u+6%s@                        ",
"    7%8%9%1%0%a%[@V@Z$                b%c%d%G$U$u+u+u+v+                        ",
"    e%f%g%h%x@i%t+Z$T$                ;@{%/$!+u+u+j%=%:@                        ",
"  k%l%m%n%o%j$p%q%                    t+r%!$!+Q$:@D@:@:@                        ",
"  w+b+b+%%)+s%z$O+                      t+b+0$!+V$$@!+!+!+)+                    ",
"  v+u+:@1@t%:@O+O+                      d@u+8+u%!+d@t+v%t%b+                    ",
"v+w%G x%!+u%y%G O+                        G :+G G G z%A%)+b+                    ",
"G G G f@u+B%w+O+O+                        G G G G G G G :@G$G G                 ",
"G G G C%v+O+v+O+O+v+                        G G G G G G D%:@7#6#                ",
"  G G G G G G G G '#                        G G G G G G E%!+i+F%6#              ",
"  G G G G G G G G s+                          G G G L$7#G%:@G i+i+              ",
"  G G G G G G G G 7#                          G G G%i+i+i+d@i+i+s+              ",
"  G G G G G G G G G                             G F%i+i+i+i+i+i+i+              ",
"    G G G G G G G                                   G G G G G G G               ",
"    G G G G G G G                                   G G G G G G G               ",
"      H%s+G G i+i+                                    G G G G I%I%I%            ",
"      s+i+J%s+G                                         I%G G :+K%I%            ",
"        L%i+ #G                                         G G G G G M%I%          ",
"        G I%G G                                         G G G <+I%<+,.          ",
"        T 1 G G                                             I%I%:+G ,.'.        ",
"        1 N%<+G                                             K%:+G G O%_+a       ",
"      _+m#P%Q%G                                             G G G G G ; 1       ",
"      R%_+G _+G                                             G G F G G '.G       ",
"      <$S%m#_+G                                             G H ; 9 T%m#; G     ",
"    F U%<$'.'.G                                             P@2.V%u#<$;$G 1     ",
"  A 2.D#v#v#v#G                                           2.).2.2.9 <$:+G G     ",
"  A ).F ).P@2.                                          ).B P@2.2.W%'.G G G     ",
"          G                                             X%u#A X%9 '.Y%G <+K%    ",
"                                                    ).;$u#Z%`%A u#I%G O%I%      ",
"                                                     &G I%m#<$G _+I%G           "};
