/* XPM */
static char * A2_xpm[] = {
"43 92 461 2",
"  	c None",
". 	c #745D5A",
"+ 	c #655250",
"@ 	c #846B66",
"# 	c #866E68",
"$ 	c #87716A",
"% 	c #826A65",
"& 	c #64504D",
"* 	c #594643",
"= 	c #53413F",
"- 	c #332928",
"; 	c #866F6D",
"> 	c #8B766F",
", 	c #846A66",
"' 	c #79625E",
") 	c #3B3839",
"! 	c #65514E",
"~ 	c #453838",
"{ 	c #4C3B3A",
"] 	c #3C3231",
"^ 	c #866F69",
"/ 	c #584442",
"( 	c #4A3837",
"_ 	c #5E4A47",
": 	c #4C3A38",
"< 	c #483A39",
"[ 	c #231C1B",
"} 	c #7A6661",
"| 	c #3C2C2B",
"1 	c #685351",
"2 	c #8A746D",
"3 	c #3C1D1B",
"4 	c #343032",
"5 	c #5D4947",
"6 	c #503E3C",
"7 	c #393435",
"8 	c #4E3D3C",
"9 	c #181211",
"0 	c #443433",
"a 	c #85706E",
"b 	c #55312C",
"c 	c #775F5B",
"d 	c #5F4C4A",
"e 	c #5B4846",
"f 	c #554240",
"g 	c #252B2E",
"h 	c #343030",
"i 	c #000000",
"j 	c #5D3E3B",
"k 	c #1E0000",
"l 	c #695450",
"m 	c #765F5B",
"n 	c #624E4B",
"o 	c #4B2E2A",
"p 	c #2B1210",
"q 	c #3B3637",
"r 	c #A4A091",
"s 	c #4F3331",
"t 	c #755D5A",
"u 	c #68534F",
"v 	c #68524F",
"w 	c #473C3B",
"x 	c #423533",
"y 	c #0B0605",
"z 	c #0A0000",
"A 	c #442D2C",
"B 	c #100C0B",
"C 	c #6F5955",
"D 	c #382421",
"E 	c #2F1715",
"F 	c #291513",
"G 	c #311A18",
"H 	c #3E2220",
"I 	c #050202",
"J 	c #0B0706",
"K 	c #442826",
"L 	c #6C5552",
"M 	c #53403E",
"N 	c #554140",
"O 	c #3D3231",
"P 	c #5D413F",
"Q 	c #6B5552",
"R 	c #4D3B39",
"S 	c #302120",
"T 	c #201312",
"U 	c #010000",
"V 	c #210C0A",
"W 	c #1A0D0D",
"X 	c #644E4C",
"Y 	c #4F3C3B",
"Z 	c #54413F",
"` 	c #41302F",
" .	c #332322",
"..	c #211817",
"+.	c #564645",
"@.	c #232222",
"#.	c #1C1B1B",
"$.	c #2E2D2D",
"%.	c #685654",
"&.	c #77605C",
"*.	c #7A635F",
"=.	c #605350",
"-.	c #302726",
";.	c #4D3A39",
">.	c #2B2221",
",.	c #0B0A0A",
"'.	c #1E1615",
").	c #705956",
"!.	c #7D6460",
"~.	c #836965",
"{.	c #856B67",
"].	c #866E69",
"^.	c #020000",
"/.	c #0D0201",
"(.	c #1B0F0E",
"_.	c #493736",
":.	c #4E3C3A",
"<.	c #070707",
"[.	c #312726",
"}.	c #816864",
"|.	c #856D68",
"1.	c #7C5B57",
"2.	c #140B0B",
"3.	c #0C0504",
"4.	c #423E3F",
"5.	c #574643",
"6.	c #7E605B",
"7.	c #5A4543",
"8.	c #695451",
"9.	c #76504B",
"0.	c #120000",
"a.	c #4A3836",
"b.	c #262525",
"c.	c #201F1F",
"d.	c #4F4C4C",
"e.	c #0B0000",
"f.	c #3D1C18",
"g.	c #4C2722",
"h.	c #0F0403",
"i.	c #79615E",
"j.	c #090101",
"k.	c #554E4F",
"l.	c #040303",
"m.	c #23110D",
"n.	c #2E0000",
"o.	c #1C0C0B",
"p.	c #130403",
"q.	c #5C4846",
"r.	c #1E1513",
"s.	c #222020",
"t.	c #6B6263",
"u.	c #090808",
"v.	c #3D302F",
"w.	c #9C8C8F",
"x.	c #230000",
"y.	c #240000",
"z.	c #160605",
"A.	c #221615",
"B.	c #625A5B",
"C.	c #796F70",
"D.	c #595152",
"E.	c #4A3734",
"F.	c #484241",
"G.	c #837879",
"H.	c #150000",
"I.	c #060000",
"J.	c #3F2B2A",
"K.	c #3F2725",
"L.	c #180C0B",
"M.	c #7E7375",
"N.	c #0A0909",
"O.	c #59423E",
"P.	c #484343",
"Q.	c #383535",
"R.	c #1A0000",
"S.	c #100000",
"T.	c #7C6560",
"U.	c #6C5754",
"V.	c #5B4745",
"W.	c #423230",
"X.	c #736A6B",
"Y.	c #413C3C",
"Z.	c #2B2929",
"`.	c #333030",
" +	c #2E2220",
".+	c #2B2121",
"++	c #524F4F",
"@+	c #1E1918",
"#+	c #2B0000",
"$+	c #080000",
"%+	c #856D67",
"&+	c #7F6562",
"*+	c #634F4C",
"=+	c #5A4745",
"-+	c #574544",
";+	c #343232",
">+	c #0A0706",
",+	c #5B5859",
"'+	c #322728",
")+	c #6A6263",
"!+	c #928486",
"~+	c #1F0000",
"{+	c #856C68",
"]+	c #806763",
"^+	c #191717",
"/+	c #1A1616",
"(+	c #110E0E",
"_+	c #120F0D",
":+	c #181717",
"<+	c #968789",
"[+	c #B4999C",
"}+	c #B99C9F",
"|+	c #341B1A",
"1+	c #816763",
"2+	c #2A2727",
"3+	c #766F70",
"4+	c #9B8B8E",
"5+	c #AA9698",
"6+	c #938788",
"7+	c #6B0000",
"8+	c #846B67",
"9+	c #020101",
"0+	c #171516",
"a+	c #22201F",
"b+	c #9D8D90",
"c+	c #926B6C",
"d+	c #9C7E7F",
"e+	c #A39193",
"f+	c #070000",
"g+	c #826965",
"h+	c #634E4B",
"i+	c #1F1C1D",
"j+	c #0D0B0A",
"k+	c #2D2524",
"l+	c #261E1D",
"m+	c #3E0000",
"n+	c #887B7D",
"o+	c #663B3C",
"p+	c #AC9798",
"q+	c #A08F91",
"r+	c #140000",
"s+	c #0C0A09",
"t+	c #806662",
"u+	c #6B5653",
"v+	c #614D4A",
"w+	c #282424",
"x+	c #050505",
"y+	c #372927",
"z+	c #2B201F",
"A+	c #181414",
"B+	c #0D0000",
"C+	c #846F71",
"D+	c #948385",
"E+	c #897272",
"F+	c #A99596",
"G+	c #9E8E90",
"H+	c #8B6D70",
"I+	c #211A1A",
"J+	c #89726F",
"K+	c #77605D",
"L+	c #463E3E",
"M+	c #0C0908",
"N+	c #1B1A1A",
"O+	c #210000",
"P+	c #2A1A1A",
"Q+	c #A79495",
"R+	c #9E8D90",
"S+	c #9C8689",
"T+	c #6F6869",
"U+	c #7C6664",
"V+	c #7C6968",
"W+	c #5F5C5D",
"X+	c #151111",
"Y+	c #282626",
"Z+	c #070404",
"`+	c #130E0D",
" @	c #867B7C",
".@	c #70696A",
"+@	c #400203",
"@@	c #8B7E81",
"#@	c #97878A",
"$@	c #8F7E80",
"%@	c #816D6C",
"&@	c #887B7B",
"*@	c #512D27",
"=@	c #331C18",
"-@	c #282523",
";@	c #171210",
">@	c #A28F92",
",@	c #8F5553",
"'@	c #7C0802",
")@	c #513A36",
"!@	c #241B1A",
"~@	c #312523",
"{@	c #080403",
"]@	c #180000",
"^@	c #0C0000",
"/@	c #050000",
"(@	c #160502",
"_@	c #B89C9F",
":@	c #A4230A",
"<@	c #7C5853",
"[@	c #16110F",
"}@	c #171212",
"|@	c #150F0F",
"1@	c #2F1F1D",
"2@	c #1D0A07",
"3@	c #160807",
"4@	c #181616",
"5@	c #AC9699",
"6@	c #856264",
"7@	c #312422",
"8@	c #1C0F0E",
"9@	c #3D2D2C",
"0@	c #473A39",
"a@	c #332120",
"b@	c #281210",
"c@	c #140E0C",
"d@	c #5B4744",
"e@	c #442D2A",
"f@	c #2C0908",
"g@	c #5E4A48",
"h@	c #423231",
"i@	c #6A5552",
"j@	c #433231",
"k@	c #2B1E1D",
"l@	c #3D2523",
"m@	c #574441",
"n@	c #725C58",
"o@	c #705C57",
"p@	c #685451",
"q@	c #030000",
"r@	c #735C59",
"s@	c #755F5B",
"t@	c #75615B",
"u@	c #6A5653",
"v@	c #130909",
"w@	c #544241",
"x@	c #725B58",
"y@	c #331715",
"z@	c #211515",
"A@	c #3A302F",
"B@	c #595557",
"C@	c #635F5F",
"D@	c #716D6D",
"E@	c #040000",
"F@	c #373536",
"G@	c #604C4C",
"H@	c #433939",
"I@	c #615B5B",
"J@	c #837A7B",
"K@	c #290000",
"L@	c #625D5E",
"M@	c #6A6465",
"N@	c #938587",
"O@	c #8C7F81",
"P@	c #908485",
"Q@	c #7C6767",
"R@	c #64261D",
"S@	c #6C1707",
"T@	c #050303",
"U@	c #463838",
"V@	c #7A7273",
"W@	c #8C8081",
"X@	c #A99597",
"Y@	c #CB9993",
"Z@	c #9B1D07",
"`@	c #6E6869",
" #	c #797172",
".#	c #736B6C",
"+#	c #807677",
"@#	c #B09A9B",
"##	c #E7B5B8",
"$#	c #B3787A",
"%#	c #902916",
"&#	c #715858",
"*#	c #7B0600",
"=#	c #850A00",
"-#	c #52221B",
";#	c #42201B",
">#	c #6C1B13",
",#	c #575455",
"'#	c #4C0000",
")#	c #2F2C2C",
"!#	c #6A281D",
"~#	c #762B1E",
"{#	c #7F7576",
"]#	c #656060",
"^#	c #454142",
"/#	c #79130A",
"(#	c #3D393A",
"_#	c #494646",
":#	c #393636",
"<#	c #2E2B2B",
"[#	c #401612",
"}#	c #1F1B1B",
"|#	c #201310",
"1#	c #625C5D",
"2#	c #1C1818",
"3#	c #18110F",
"4#	c #1A1717",
"5#	c #1C1616",
"6#	c #201D1D",
"7#	c #343031",
"8#	c #887C7E",
"9#	c #170B09",
"0#	c #444141",
"a#	c #B89EA1",
"b#	c #020202",
"c#	c #646061",
"d#	c #594F4D",
"e#	c #8B8081",
"f#	c #363333",
"g#	c #454242",
"h#	c #464242",
"i#	c #3F3B3C",
"j#	c #7A7172",
"k#	c #544344",
"l#	c #2E2525",
"m#	c #8F8284",
"n#	c #726B6C",
"o#	c #83797A",
"p#	c #736D6E",
"q#	c #42231E",
"r#	c #5D5858",
"s#	c #382C2D",
"t#	c #090000",
"u#	c #0D0101",
"v#	c #150909",
"w#	c #100807",
"x#	c #160A09",
"y#	c #201411",
"z#	c #0E0302",
"A#	c #0A0404",
"B#	c #302524",
"C#	c #423635",
"D#	c #352726",
"E#	c #1B1111",
"F#	c #272120",
"G#	c #574847",
"H#	c #2F2322",
"I#	c #271C1B",
"J#	c #453433",
"K#	c #0E0301",
"L#	c #332423",
"M#	c #3C302F",
"N#	c #7B6661",
"O#	c #433938",
"P#	c #2B2322",
"Q#	c #6C5A58",
"R#	c #150F0E",
"S#	c #6F5956",
"T#	c #655553",
"U#	c #1F1717",
"V#	c #806B69",
"W#	c #423331",
"X#	c #705E5D",
"Y#	c #140908",
"Z#	c #070403",
"`#	c #090504",
" $	c #040100",
"                                                . . +                                 ",
"                                          @ # $ % . & * = -                           ",
"                                        # ; > , @ ' ) ! ~ { ]                         ",
"                                        , . # # ^ @ / ( _ : < [                       ",
"                                      } | | 1 2 3 # 4 5 6 7 8 9                       ",
"                                      | | 0 a b 3 c d e f g h [ i                     ",
"                                    # $ j k @ , l m n o p q g i                       ",
"                                    r k k k 3 s t u v w x i y i                       ",
"                                      z k A ! . / ! 3 | i B 9                         ",
"                                      i k C D E F G H I i J 9                         ",
"                                    r r K L M N f ( ( O [ i                           ",
"                                  ; ! ! P Q R | S S T U i                             ",
"                                  # V W X Y ( Z ( `  .i ..+.                          ",
"                                @.#.$.%.&.*.=.M ( ( ( -.6 ;.>.                        ",
"                          @.,.'.).!.~.{.]., S S 9 ^./.(._.:.(                         ",
"                        #.<.[., }.}.|.1.S 2.i ^.i ,.3./.( _.(                         ",
"                      4.i 5.6.7.8.9./ 0.a.S i i i b.c.9 -.: /                         ",
"                    d.k e.f.g.S p ( h.V ! i.j.i i c.k.l.i ( /                         ",
"                    m.n.z o.p S ! V V p.q.! ( y r.s.t.u.y v.|                         ",
"                  w.k x.y.i i i U , p z.| | ( A.B.C.D.i i E.E.F.4.                    ",
"                G.i H.x.n.I.e.i i . J.K.S V S L.M.M.N.i i m.O.P.Q.4.                  ",
"                4.i n.n.n.R.S.i i , @ T.U.V.W./.X.Y.i Z.`.r. +.+d.4.                  ",
"              ++@+S.k k k #+U i $+%+, &+*+=+-+9 ;+i i 4.i >+r.i d.,+                  ",
"            '+)+w.!+k ~+n.x.k i | 3 {+]+*+=+w y i i ^+/+(+i _+/+@.:+                  ",
"            ,+<+[+}+k #+|+U U i A.. %+1+& =+/.B i i /+/+2+r.P.:+@.i                   ",
"        i i 3+4+w.5+k 6+w.7+i L.$./ 8+1+& =+9+i i 0+4.4.`.d.d.a+y i y [               ",
"      i i i `.b+w.c+d+e+w.k i i i f+g+1+h+V.l.i Z.4.4.i+i 4.4.y j+i /.k+l+            ",
"      i i i m+n+w.o+p+q+w.r+i i i s+{.t+u+v+i i 4.w+x+i i y+z+i i i ,.A+-.y           ",
"  i i B+e.i k C+D+E+F+G+H+i i i I+J+8+K+L+@.i s.r.2+A+x+i y+M+i i i ,.N+9 9 /.        ",
"      O+n.i i P+w.Q+R+S+k (+i s+T+e+U+V+W+`.r.y+s+x+X+/+/+`.Y+i i i ^.i Z+`+i U /.    ",
"      n.n.i i U  @.@w.+@k (+i @@#@$@%@&@*@=@-@;@i /+i /+/+        i i i ^.^.i i i i   ",
"        n.S.  S.n.k m.U U i i >@4+,@'@S.)@r.i i !@~@/+                i U {@B i i i i ",
"        ]@i   ^@/@i (@S (@i i w._@:@m.<@r.[@m.m.                        i i 9 i i }@i ",
"        i i   ^@(@|@1@(@2@3@4@5@6@m+E.7@i y+r.                          i ^.}@i i [ i ",
"        #.  i 8@9@| 0@q.S ( a@V b@i i i c@                              i i i i i 9   ",
"      ,.i     6 d@( ! ! ! e@V f@i i i i                                 i i i i       ",
"      ,.      g@).h@! i@& ! j@3 i i i                                   i i i i       ",
"      @.:+    k@l@m@n@o@i@p@! q@i i i                                 i i i i         ",
"              L.r@' s@t@u@u+3 i i i v@                                i i i i i i     ",
"              A.5 w@*+! x@' y@i i i /                                   i i i i i     ",
"            L.L./ (@| ( | V /@^.p S S (@                                i i i i i     ",
"          /.z@A@B@C@D@i i ^.i y@E@D@}@F@B@G@                              i i i i     ",
"          ^.H@I@J@J@w.n.K@i i y@i D@B@B@L@M@                            i i i i i     ",
"        3+S.3+N@G.O@w.P@Q@R@S@i T@) ) ) M@M@                              ^.i i i     ",
"        3+U@V@G.W@w.X@Y@P@Z@:@i `@ #G.G.G.,+                                          ",
"        M@.#G.+#3+G.@###$#:@%#i 3++#G.w.P@M@                                          ",
"        &#G.G. #`@w.M@3+*#=#m+-#U@W@G.G.G.3+                                          ",
"      3+;#3+i P.@#w.,+U >#*#k R@U 3+3+3+,#d.                                          ",
"      3+'#_+`.d.,+d.)#i !#~#k '#U {#3+]#d.^#                                          ",
"      P@U@M@,+d.4.`.i i ~#/#-#m+i `.(#_#:#                                            ",
"    ,+`.<#/+/+i /+^#i (+R@'#[#k _+`.`.`.`.                                            ",
"    M@`.}#/+/+/+/+/+_+/+|#n.k k _+`.`.}#                                              ",
"  4.1#d.(#`./+/+u.i `.<#}#i I.]@r.                                                    ",
"  4.4.`.<#2#/+X+i /+<#`.`.U i i 3#                                                    ",
"  ,+d./+/+/+X+i /+i 4#`.`.s+i i i                                                     ",
"  3+M@4.4.Z.i i /+i i `.`.i (+/+                                                      ",
"  ,+M@4.0+i 5#.+`.i i `.(#i /+                                                        ",
"  3+M@/+/+4.P.i d.6#i X+7#i /+                                                        ",
"  8#w.3+3+M@9#i d.0#X+i X+`./+                                                        ",
"  w.a#{#3+`@i i ,+,+/+x+i Y+                                                          ",
"  @#P@G.3+3+i i 4.d./+A+b#i                                                           ",
"  3+c#4.,+d#U .+M@d.4.<#/+                                                            ",
"  e#3+d.M@'+P.4.f#g#/+`.                                                              ",
"w.G.3+,+h#i ,+4.i#`.i i                                                               ",
"P@j#M@k#i l#3+m#G..#                                                                  ",
"n#`@o#U@U &#3+3+G.G.w.                                                                ",
"`@p#3+U@U q#G.d.G.@#X@w.                                                              ",
"  =@r.U@U S.w.w.V@G.G.w.M@                                                            ",
"  M@'+i i i G@G.X@w./+=@'#                                                            ",
"  d.r#i i i U s#w.w.r.i i e.                                                          ",
"    i i i i i U 3+3+=@^@$+i t#                                                        ",
"      i i i i ;+w.G./@u#v#w#i                                                         ",
"      i i i i i P@k#^@L.L.L.^.                                                        ",
"            m.m.m.m.E@z A.x#/.                                                        ",
"            r.=@y#m.w#^.x#z#/.y                                                       ",
"              m.r.m.L.A#/.(.L.^.                                                      ",
"                y+^.L.L.L.] S A.i                                                     ",
"                i i L.B#w C#S /.i                                                     ",
"                  i j.A.w D#S T ^.                                                    ",
"                    i i i S S S E#i                                                   ",
"                      i F#A.A.G#i H#w                                                 ",
"                      [ /.L.L.S i S S                                                 ",
"                        i i U A.i A.] I#                                              ",
"                          i i S J#| S ]                                               ",
"                        A.i K#A.L#M#] -.y                                             ",
"                    y@p ( ! N#A.A.G#O#P#y                                             ",
"                p p ( | / Q#! ^@/.^.9 y R#E.                                          ",
"            ( / & S#( + T#| / -.] [ 9 y 9 E.                                          ",
"            /.U#V.! V#T#W#A.^@L.U i i i i i                                           ",
"            ( ( T#X#A.A.Y#/./.Z#i i i 9+`#y+                                          ",
"        / | ; G#G#. L.^./. $i i i Z#y y y y+                                          ",
"                    y y y y y Z#i                                                     "};
