/* XPM */
static char * C2_xpm[] = {
"43 92 441 2",
"  	c None",
". 	c #846B66",
"+ 	c #776260",
"@ 	c #846A66",
"# 	c #65514E",
"$ 	c #473C3B",
"% 	c #745D5A",
"& 	c #584442",
"* 	c #231C1B",
"= 	c #8B766F",
"- 	c #87716A",
"; 	c #866E68",
"> 	c #4A3837",
", 	c #574847",
"' 	c #302726",
") 	c #181211",
"! 	c #7E5F5A",
"~ 	c #866F6D",
"{ 	c #705A56",
"] 	c #3C2C2B",
"^ 	c #221615",
"/ 	c #50403E",
"( 	c #000000",
"_ 	c #2B1210",
": 	c #302120",
"< 	c #1F1918",
"[ 	c #3A2D2B",
"} 	c #584744",
"| 	c #180C0B",
"1 	c #64524E",
"2 	c #1C1615",
"3 	c #160502",
"4 	c #110706",
"5 	c #0B0605",
"6 	c #574643",
"7 	c #050000",
"8 	c #191212",
"9 	c #0D0606",
"0 	c #170000",
"a 	c #0C0000",
"b 	c #5A5958",
"c 	c #A4A091",
"d 	c #6E695F",
"e 	c #1D0000",
"f 	c #0D0201",
"g 	c #3B2524",
"h 	c #020000",
"i 	c #210C0A",
"j 	c #0F0A09",
"k 	c #3D1C18",
"l 	c #4C2722",
"m 	c #6E3D3B",
"n 	c #6D3C38",
"o 	c #6A3D3C",
"p 	c #592B29",
"q 	c #391310",
"r 	c #110402",
"s 	c #1C1B1B",
"t 	c #837A7B",
"u 	c #635F5F",
"v 	c #0E0301",
"w 	c #2C211F",
"x 	c #23110D",
"y 	c #270100",
"z 	c #331715",
"A 	c #310807",
"B 	c #351310",
"C 	c #0B0000",
"D 	c #190807",
"E 	c #3E0000",
"F 	c #1E1513",
"G 	c #080000",
"H 	c #281816",
"I 	c #331C18",
"J 	c #010000",
"K 	c #512D27",
"L 	c #7C5853",
"M 	c #33130A",
"N 	c #2E0000",
"O 	c #762B1E",
"P 	c #971A05",
"Q 	c #8A0C00",
"R 	c #4C0000",
"S 	c #190000",
"T 	c #070000",
"U 	c #170403",
"V 	c #7B0600",
"W 	c #100000",
"X 	c #2E1814",
"Y 	c #422E2A",
"Z 	c #0C0604",
"` 	c #160807",
" .	c #0D0000",
"..	c #30211E",
"+.	c #21120F",
"@.	c #22120E",
"#.	c #170B09",
"$.	c #100F0F",
"%.	c #0B0A0A",
"&.	c #3C1D1B",
"*.	c #862C1D",
"=.	c #9C8C8F",
"-.	c #271D1C",
";.	c #372927",
">.	c #201411",
",.	c #846062",
"'.	c #716D6D",
").	c #3C3231",
"!.	c #100807",
"~.	c #74514E",
"{.	c #4F3B3A",
"].	c #3F3B3C",
"^.	c #383535",
"/.	c #2E2D2D",
"(.	c #201615",
"_.	c #AC645A",
":.	c #4E4A4C",
"<.	c #59423E",
"[.	c #4A3735",
"}.	c #4C3938",
"|.	c #4C3937",
"1.	c #74524F",
"2.	c #363333",
"3.	c #3D393A",
"4.	c #2B2121",
"5.	c #050505",
"6.	c #715C5A",
"7.	c #5B5859",
"8.	c #462F2B",
"9.	c #4B3837",
"0.	c #634846",
"a.	c #1A1616",
"b.	c #343031",
"c.	c #333030",
"d.	c #42231E",
"e.	c #322728",
"f.	c #080808",
"g.	c #181717",
"h.	c #64261D",
"i.	c #645857",
"j.	c #2B2525",
"k.	c #484343",
"l.	c #59423F",
"m.	c #513B39",
"n.	c #040101",
"o.	c #423E3F",
"p.	c #2F2B2B",
"q.	c #290000",
"r.	c #1E0000",
"s.	c #330000",
"t.	c #615D5E",
"u.	c #A08D8E",
"v.	c #5C5858",
"w.	c #3E3B3C",
"x.	c #71423C",
"y.	c #766F70",
"z.	c #5F3732",
"A.	c #72423C",
"B.	c #654945",
"C.	c #1F1716",
"D.	c #6B5D5B",
"E.	c #2C1210",
"F.	c #514A4B",
"G.	c #8C7F82",
"H.	c #686162",
"I.	c #9F8B8D",
"J.	c #2C2A2A",
"K.	c #604C4C",
"L.	c #7A5652",
"M.	c #4B3634",
"N.	c #28201F",
"O.	c #222020",
"P.	c #4F4C4C",
"Q.	c #B09A9B",
"R.	c #6C5F61",
"S.	c #391617",
"T.	c #584748",
"U.	c #766D6E",
"V.	c #645F60",
"W.	c #726A6B",
"X.	c #441212",
"Y.	c #585253",
"Z.	c #897D7F",
"`.	c #220908",
" +	c #6A6465",
".+	c #513A37",
"++	c #7A5752",
"@+	c #4B3938",
"#+	c #2B2120",
"$+	c #211A1A",
"%+	c #908485",
"&+	c #342A2B",
"*+	c #5F5859",
"=+	c #696264",
"-+	c #615B5D",
";+	c #766971",
">+	c #470000",
",+	c #5A5556",
"'+	c #746C6D",
")+	c #676263",
"!+	c #434040",
"~+	c #120F0D",
"{+	c #030101",
"]+	c #6E534E",
"^+	c #644846",
"/+	c #4D3A38",
"(+	c #332928",
"_+	c #2E2C2D",
":+	c #6B6267",
"<+	c #646061",
"[+	c #715858",
"}+	c #5F5A5B",
"|+	c #686263",
"1+	c #5F5050",
"2+	c #7C7274",
"3+	c #675C5E",
"4+	c #1F1717",
"5+	c #2D2120",
"6+	c #583F3C",
"7+	c #56403E",
"8+	c #221312",
"9+	c #0E0C0A",
"0+	c #333131",
"a+	c #656061",
"b+	c #696364",
"c+	c #726869",
"d+	c #6B0000",
"e+	c #5D4E4F",
"f+	c #635E5F",
"g+	c #5A5657",
"h+	c #6E6162",
"i+	c #120D0E",
"j+	c #3C2724",
"k+	c #473635",
"l+	c #483736",
"m+	c #372625",
"n+	c #2F2C2C",
"o+	c #141313",
"p+	c #444142",
"q+	c #454142",
"r+	c #514E4F",
"s+	c #545051",
"t+	c #5C595A",
"u+	c #685B5C",
"v+	c #240000",
"w+	c #110D0E",
"x+	c #3B2B2A",
"y+	c #583E3C",
"z+	c #573F3D",
"A+	c #0C0A09",
"B+	c #4E4B4C",
"C+	c #504E4E",
"D+	c #464242",
"E+	c #1E1D1D",
"F+	c #5F5C5D",
"G+	c #4E4A4B",
"H+	c #555253",
"I+	c #5A5758",
"J+	c #514D4D",
"K+	c #060000",
"L+	c #463534",
"M+	c #564645",
"N+	c #75544F",
"O+	c #4E4140",
"P+	c #272525",
"Q+	c #6E6869",
"R+	c #535051",
"S+	c #323031",
"T+	c #706869",
"U+	c #111010",
"V+	c #3B393A",
"W+	c #565354",
"X+	c #4D4A4B",
"Y+	c #666263",
"Z+	c #4A3734",
"`+	c #393131",
" @	c #504343",
".@	c #755651",
"+@	c #493735",
"@@	c #3B3839",
"#@	c #131313",
"$@	c #5D5A5B",
"%@	c #2A2829",
"&@	c #504D4D",
"*@	c #4A4748",
"=@	c #595657",
"-@	c #403D3D",
";@	c #221D1D",
">@	c #191312",
",@	c #4D3A39",
"'@	c #231B1A",
")@	c #372C2D",
"!@	c #191919",
"~@	c #585556",
"{@	c #605C5D",
"]@	c #2D2A2B",
"^@	c #090808",
"/@	c #2D2221",
"(@	c #070303",
"_@	c #0F0E0F",
":@	c #242323",
"<@	c #4A4647",
"[@	c #585555",
"}@	c #2C2222",
"|@	c #110E0E",
"1@	c #0B0707",
"2@	c #363434",
"3@	c #363334",
"4@	c #050405",
"5@	c #281211",
"6@	c #030000",
"7@	c #1C1C1C",
"8@	c #625D5E",
"9@	c #2C2A2B",
"0@	c #2B2929",
"a@	c #232222",
"b@	c #090101",
"c@	c #0F0000",
"d@	c #271A19",
"e@	c #100404",
"f@	c #171212",
"g@	c #120B0B",
"h@	c #201312",
"i@	c #050404",
"j@	c #040000",
"k@	c #070403",
"l@	c #130E0D",
"m@	c #120000",
"n@	c #382E2D",
"o@	c #282120",
"p@	c #070404",
"q@	c #393738",
"r@	c #201A19",
"s@	c #373333",
"t@	c #030202",
"u@	c #2D2B2C",
"v@	c #42211C",
"w@	c #726B6C",
"x@	c #6D6667",
"y@	c #554645",
"z@	c #42201B",
"A@	c #321713",
"B@	c #433F40",
"C@	c #261A19",
"D@	c #5E5B5C",
"E@	c #7A7172",
"F@	c #736D6E",
"G@	c #5C4E4F",
"H@	c #613631",
"I@	c #8A7370",
"J@	c #433C3B",
"K@	c #4C4949",
"L@	c #130909",
"M@	c #837879",
"N@	c #7B6966",
"O@	c #423A39",
"P@	c #7F7576",
"Q@	c #7E7475",
"R@	c #7A7273",
"S@	c #867B7C",
"T@	c #2B0000",
"U@	c #210000",
"V@	c #595354",
"W@	c #161515",
"X@	c #343232",
"Y@	c #140E0C",
"Z@	c #625C5D",
"`@	c #585455",
" #	c #1A0000",
".#	c #3B3434",
"+#	c #3C3939",
"@#	c #544344",
"##	c #2A2727",
"$#	c #151111",
"%#	c #231F1F",
"&#	c #4B4748",
"*#	c #1A1717",
"=#	c #020202",
"-#	c #181414",
";#	c #474344",
">#	c #2E2525",
",#	c #463838",
"'#	c #2E2B2B",
")#	c #1C1818",
"!#	c #454242",
"~#	c #594F4D",
"{#	c #4A4646",
"]#	c #464343",
"^#	c #171516",
"/#	c #413D3D",
"(#	c #191717",
"_#	c #7C6767",
":#	c #282424",
"<#	c #A59293",
"[#	c #535050",
"}#	c #C7A7AA",
"|#	c #4B4546",
"1#	c #302B2B",
"2#	c #938687",
"3#	c #7B7374",
"4#	c #998A8D",
"5#	c #8B8081",
"6#	c #1F1B1B",
"7#	c #AC9798",
"8#	c #3C3A3B",
"9#	c #A99597",
"0#	c #8B7E81",
"a#	c #3A3636",
"b#	c #4F3F40",
"c#	c #555151",
"d#	c #6D6768",
"e#	c #221E1F",
"f#	c #2F1E1C",
"g#	c #7B7172",
"h#	c #413E3E",
"i#	c #221F1E",
"j#	c #343132",
"k#	c #282626",
"l#	c #040404",
"m#	c #0D0604",
"n#	c #120B09",
"o#	c #585050",
"p#	c #1C1312",
"q#	c #060404",
"r#	c #090504",
"s#	c #020101",
"t#	c #100C0B",
"u#	c #0B0201",
"v#	c #100D0D",
"w#	c #27201F",
"x#	c #0C0201",
"y#	c #271E1D",
"z#	c #2D1F1E",
"A#	c #150F0E",
"B#	c #050100",
"C#	c #2B1D1C",
"D#	c #1B1111",
"E#	c #655553",
"F#	c #4E3C3A",
"G#	c #241716",
"H#	c #86706B",
"                                                    . + @ # $                         ",
"                                                . @ % @ & % $ *                       ",
"                                              = - - ; ; @ > , ' )                     ",
"                                            ! ; ~ ~ = @ { ] ^ $ ) )                   ",
"                                          / ( @ _ & ; @ : % * < ) )                   ",
"                                          ( [ @ : * } @ | > ) ) ) )                   ",
"                                          * * 1 # * 2 ( 3 ] 4 ) 5 )                   ",
"                                          6 * * 7 8 9 0 a ] ^ & ( (                   ",
"                                          b c b d 7 e e : : ( 3 f                     ",
"                                          7 ( ( ( 7 e g ] f ] h 5                     ",
"                                      i i ^ ( ( ( 7 e ( ( ( j ) )                     ",
"  3 k k l l m n o p p q r ( s t u & @ % > > _ _ i 7 i 3 v ( ) w x                     ",
"& ( ( i _ a ( ( ( ( ( x ( ( a y q _ : _ i z A B y C D _ _ y E F                       ",
": ( G H I J K L ( ( ( ( ( ( J M N O P Q R 3 y y S T C U i V W                         ",
"x x X I Y x x Z ( ( ( ( ( ( ( ( F ( ( ( ( ( ( ( ( ( ( ` ` (  .                        ",
"  ..x +.F F F @.#.( $.%.i z &.&.*.=.t & & -.( ( ( ( ( ( ( ( (                         ",
"  ;.F F F F x >.F ( _ s % ; # y V ,.'.).% ] f !.( ( ( ( ( ( ( ~.{.                    ",
"          ].^.F +.5 %./.h (.. : _.K :.u i ] ^ | ( ( ( ( ' ( %.<.[.}.|.1.              ",
"          2.3.4.I ) $.5.( h | ( x 6.h u h a & @ : a h ^ a J ( 7.I 8.9.0.;.            ",
"          a.b.c.d.e.f.g.( ( a h.I i.( '.j.] # # : i # | | h f 7.k.W l.m.n.            ",
"            a.c.x c.o.N p.( q.r.s.t.u.v.w.i : ] ' G ( ( i ( ( x.y.z.A.B.C.(           ",
"              c.( ( o.J D.E.r.F.r.t.G.H.I.7 J.u ( ( ( a a ( ( K.y.( F L.M.N.          ",
"              c.( ( O.P.Q.r.r.R.S.T.U.V.W.X.Y.Z.`.( 3 3 G ( ( K. +( F .+++@+#+        ",
"                ( ( ( $+%+( ( C &+*+=+-+;+>+,+'+)+!+( ( ( ( W o.~+x {+5 ]+^+/+(+      ",
"                ( ( ( ( %+( ( ( _+7.t.:+<+[+}+|+1+t.2+N N 3+( o.( Z x 4+5+6+}.7+8+    ",
"                9+( ( ( ( J J ( 0+a+b+)+c+d+e+f+g+7.h+r.N [+i+e.~+F F j+k+l+7+}.m+    ",
"                7.n+( ( ( ( o+p+t.q+a+|+W.d.r+s+t.t+u+N v+W e.w+    x x }.> x+y+z+f   ",
"                ~+e.( J ( A+f+B+C+t.D+3.E+F+G+H+I+t+J+W W K+c.          <.L+l+M+N+O+P+",
"                ( e.( ( ( c.Q+R+S+T+U+c.V+3.W+2.X+Y+e.J ( 4.c.          ;.Z+`+ @.@+@@@",
"                  J ( n+W n+#@$@%@7.&@*@W+=@-@P.( ( ( ( ( a.(               ;@>@,@'@( ",
"                  ( ( e.)@( !@~@{@$@W+p+7.]@( a.^@( ( ( ( ( (               ( ( /@(@( ",
"                  ( ( ~+_@:@<@7.[@|+c.}@|@( ( b.a.c.( ( ( ( (               ( ( 1@( ( ",
"                  ( ( 2@V+F+3@4@4.( ( ( ( ( ( c.( ( ( ( ( ( (               ( 5@6@( ( ",
"                    ( 7@8@9@( ( ( ( ( ( ( ( ( 5.o.( ( ( ( ( (                 r ( ( ( ",
"                  x ( ( 0@a.( ( ( ( J J ( J ( o.5.( ( ( ( ( (                 ( ( ( ( ",
"                  x ( a@( ( ( ( ( ( ( F ( ( ( ( ( ( ( ( W (                 J ( ( ( ( ",
"                  J ( %.( ( ( ( ( ( ( ( ( ( ( ( ( ( ( ( (                 7 ( ( ( (   ",
"                ^ ( h ( ( ( ( f b@J ( 5 ( ( ( ( ( (     (               y 7 v ( (     ",
"                h b@( ( ( ( ( ( h h ( ( g.( ( h (                 M c@( C ( i ( (     ",
"                ] ^ ( h ( ( (.: d@| e@f@( h ( ( (               (   ( ( ( v J (       ",
"                & ^ ( ( ( h g@: : h@| 5 ( ( i@) i@                    ( j@3 ( (       ",
"              h $ ^ ( ( ( ( h ^ d@: ' k@( * l@h ) f                   m@( 3 ( (       ",
"          a@  ( n@' ( ( f@a f * ).( f ( h ( h o@( p@( g.            ` ( ( h ( (       ",
"          :.q@( r@' I I J J x <.Z+I x x f ( f | | s@( /.          3 t@* ( ( ( (       ",
"          :.:.u@( J d. +c.P. +7. + + +N I d.v@J d.d.( o.2.          * t@( ( (         ",
"          7.w@ +( ( y. +y.y.x@P. + +y@z@z@A@d.x.Z+Z+4.P.B@        C@(   ( (           ",
"          D@ +E@( ( y. +y.y.F@ +G@z@K K H@z@I@L z. +;.J@K@        (     ( L@          ",
"           +w@y.R E y.7.M@M@%+z.N@M@M@M@M@M@M@y.~+( O@;.k.              (             ",
"           +w@P@r.r.y.7.M@M@%+Q@ +y.R@S@%+M@b+o.J J  +<@o.                            ",
"           + +M@T@U@ +k.M@y.M@V@W@~+k.%+%+M@X@( J Y@ +Z@o.                            ",
"        P.y. +`@ #N M@y.a+7..#U++#o.o.o.o.o.( ( o.3.c.c.c.                            ",
"         + + + +J J o.o.7.@#7.P.q+^.##$#( a.( ( c.c.%#                                ",
"      o.D@ + + +J ( &#o.7. +( c.a.a.a.( ( ( ( ( *#c.                                  ",
"      o.7.c.c.c.( ( a.( K.e.&#o.b.a.a.a.a.a.=#( ( (                                   ",
"      P.7. +7.P.( A+c.c.7.~+o.o.3.c.a.a.-#( a.=#( (                                   ",
"      2.;#W+7.>#( %#c.c.,#c.c.c.'#)#( a.=#( $#$#( (                                   ",
"      o.o.o.c.( A+c.U+( e.!#c.%#a.a.a.=#( ( 5.a.(                                     ",
"       + + +~#W {#P.( ( W y.7.&#b.$#=#( ( ( ( a.                                      ",
"      ;#D@ +7.J P.]#( ( I y.7.o.o.^#( ( ( ( ( $#                                      ",
"      7.7.7.7./#c.a.(#( _#%+7.c.:#o.O.( 0@|@( (                                       ",
"      ;#7. +P.c.c.n+a.a.%+<#=.y.y.7.[#~+o.c.( $#                                      ",
"      x@y.7.P.c.c.'#%#a.=.}#}#P@y.7.|#4.3.c.(                                         ",
"      y.t.7.P./#c.a.c.~+Q.%+y.M@y. +4.1#c.a.                                          ",
"      =.2#3#y.,#c.'#%#4.Q.%+ +o.o.e.( c.o.c.                                          ",
"      =.4#5#y.x 3.c.( c.Q.=.y.&#o.J ( c.c.6#                                          ",
"    %+7#=.P@y.x 3.'#a.o.}#Q+y. +7.( 8#c.c.                                            ",
"    %+9#=.y.Q+e.'#)#a.P.=.y.y.o.k.e. +M@o.o.                                          ",
"     +0#=.M@&#a#a.a.a.o.%+%+a+{@b#,#7.y.7.7.                                          ",
"    c# +d#7.o.e#$#( %#c.d#%+{@a+,#f#M@o.7.g#                                          ",
"      ~+7.h#o.^.( ( c.3.i#( I e.>#( )@y. + +7.[+                                      ",
"      ( j#^.:#0@( ( k#3.o.( J ( ( ( ( y.M@M@c.I                                       ",
"        5.j#|@( c.a.l#k#e.( ~+( ( ( ( $+7.y.$+( W                                     ",
"        $#( ( ( ( ( ( ( x m#c.( ( ( ( ( 4.o.( ( F (                                   ",
"          ( ( ( ( ( ( ( n#x k.( ( ( ( ( k.y.( ( x k@                                  ",
"            ( ( ( ( ( ( ( ( ~+( ( ( ( ( ~+o#F F x x                                   ",
"              ( ( ( ( ( ( (       ( ( Y@F p#q#( 5 (                                   ",
"                ( ( ( ( ( ( (     p#( F F q#( ( ( (                                   ",
"                ( ( ( ( ( ( (       F F F ( ( J r#5                                   ",
"                    ( ( ( ( (         F F ( ( r#5 5 s#                                ",
"                    5 k@( ( (           F ( ( r#5 5 5                                 ",
"                      ) ( ) (             ( ( s#5 ( ) h                               ",
"                      h k@( ( h             ( ( 5 5 * f (                             ",
"                      h b@t#h h             ( s#5 s#' h (                             ",
"                    u#6@h h * h               5 J ( f@h ( *                           ",
"                    j@f h J J (               ( ( ( ( J ).* *                         ",
"                    ( ( | ( h 5                 ( ( ( v#' w#*                         ",
"                  u#h f b@h h                 ( ( t#$ n@| * 5                         ",
"                x#6@( J h J (               * y#z#d@$ $ h 5 A#                        ",
"                h h h h B#(                 $ : ^ C#: ).' ( (                         ",
"                ( h h D#(               E#> & F#] 3 ^ h ) 5 5 ~+                      ",
"                      (             ] & : > ] ] G#!.( ( ( ( 5                         ",
"                                  > ^ | H#^ 3 & ^ ( ( ( ( r#5                         "};
