/* XPM */
static char * C4_xpm[] = {
"57 92 496 2",
"  	c None",
". 	c #846A66",
"+ 	c #8B766F",
"@ 	c #584947",
"# 	c #252B2E",
"$ 	c #745D5A",
"% 	c #846B66",
"& 	c #866E68",
"* 	c #877069",
"= 	c #65514E",
"- 	c #79615E",
"; 	c #72605C",
"> 	c #2D3033",
", 	c #655955",
"' 	c #221615",
") 	c #7F6662",
"! 	c #856C67",
"~ 	c #7E5F5A",
"{ 	c #87716A",
"] 	c #6F5956",
"^ 	c #7C6661",
"/ 	c #2B1210",
"( 	c #592B29",
"_ 	c #331715",
": 	c #584442",
"< 	c #866E69",
"[ 	c #3C2C2B",
"} 	c #5C4846",
"| 	c #181211",
"1 	c #70504B",
"2 	c #624E4B",
"3 	c #4A3837",
"4 	c #020000",
"5 	c #210C0A",
"6 	c #6A5452",
"7 	c #67514E",
"8 	c #1B1312",
"9 	c #614D4A",
"0 	c #866F69",
"a 	c #000000",
"b 	c #0B0605",
"c 	c #180C0B",
"d 	c #3C3231",
"e 	c #070606",
"f 	c #1C1615",
"g 	c #292626",
"h 	c #231C1B",
"i 	c #0D0201",
"j 	c #6A5552",
"k 	c #2E2322",
"l 	c #2C2322",
"m 	c #302726",
"n 	c #391310",
"o 	c #160502",
"p 	c #1D0000",
"q 	c #270100",
"r 	c #594C4C",
"s 	c #302120",
"t 	c #120B0B",
"u 	c #080403",
"v 	c #473C3B",
"w 	c #050000",
"x 	c #0B0000",
"y 	c #120000",
"z 	c #574847",
"A 	c #433939",
"B 	c #837A7B",
"C 	c #877373",
"D 	c #655553",
"E 	c #41302F",
"F 	c #010000",
"G 	c #68463E",
"H 	c #340D0C",
"I 	c #0C0000",
"J 	c #45312F",
"K 	c #716D6D",
"L 	c #866F70",
"M 	c #241716",
"N 	c #4E4A4C",
"O 	c #444243",
"P 	c #3B3839",
"Q 	c #333030",
"R 	c #220F0E",
"S 	c #0B0403",
"T 	c #635F5F",
"U 	c #4E3C3A",
"V 	c #645656",
"W 	c #726A6B",
"X 	c #353333",
"Y 	c #232222",
"Z 	c #201615",
"` 	c #271D1C",
" .	c #3D3433",
"..	c #4E4343",
"+.	c #160E0E",
"@.	c #5F4E4E",
"#.	c #847373",
"$.	c #726969",
"%.	c #6E6768",
"&.	c #5B5859",
"*.	c #4C2722",
"=.	c #271A19",
"-.	c #110402",
";.	c #1C1B1B",
">.	c #535151",
",.	c #090101",
"'.	c #86706C",
").	c #847473",
"!.	c #716666",
"~.	c #545051",
"{.	c #4A3734",
"].	c #826762",
"^.	c #664945",
"/.	c #241514",
"(.	c #261312",
"_.	c #58332E",
":.	c #71696B",
"<.	c #716B6B",
"[.	c #261F1E",
"}.	c #23110D",
"|.	c #3C1D1B",
"1.	c #755D5A",
"2.	c #795E5A",
"3.	c #755A56",
"4.	c #0E0707",
"5.	c #3F2F2E",
"6.	c #614642",
"7.	c #595557",
"8.	c #8E7C74",
"9.	c #786462",
"0.	c #7D7374",
"a.	c #787171",
"b.	c #2C1F1D",
"c.	c #2B1513",
"d.	c #7B5D58",
"e.	c #795B57",
"f.	c #6F5451",
"g.	c #57403D",
"h.	c #3D2D2C",
"i.	c #5E585A",
"j.	c #554443",
"k.	c #6F6869",
"l.	c #8C8181",
"m.	c #4D302D",
"n.	c #332120",
"o.	c #331D1A",
"p.	c #7D5E59",
"q.	c #795C57",
"r.	c #7A5E5A",
"s.	c #2C1614",
"t.	c #473534",
"u.	c #2B2020",
"v.	c #574F50",
"w.	c #5C4D4C",
"x.	c #6D6667",
"y.	c #797172",
"z.	c #5D3A35",
"A.	c #7E605B",
"B.	c #836962",
"C.	c #80625D",
"D.	c #4C312E",
"E.	c #1D1717",
"F.	c #776E6F",
"G.	c #837879",
"H.	c #8B8081",
"I.	c #745955",
"J.	c #755955",
"K.	c #554848",
"L.	c #776D6E",
"M.	c #343132",
"N.	c #4C0000",
"O.	c #250000",
"P.	c #8A7D7F",
"Q.	c #83797A",
"R.	c #7D635D",
"S.	c #765B56",
"T.	c #261A19",
"U.	c #6A4A4B",
"V.	c #5A5051",
"W.	c #827677",
"X.	c #42231E",
"Y.	c #380000",
"Z.	c #8E8081",
"`.	c #8F8183",
" +	c #826761",
".+	c #7B5A55",
"++	c #775A55",
"@+	c #80645F",
"#+	c #564746",
"$+	c #6C4F50",
"%+	c #453B3C",
"&+	c #796D6E",
"*+	c #867A7B",
"=+	c #655353",
"-+	c #3E0000",
";+	c #5B0000",
">+	c #988688",
",+	c #988788",
"'+	c #754F4A",
")+	c #836763",
"!+	c #88716B",
"~+	c #655F60",
"{+	c #4F3636",
"]+	c #4E4949",
"^+	c #8D7F82",
"/+	c #8D8082",
"(+	c #877C7D",
"_+	c #050303",
":+	c #100C0B",
"<+	c #544A48",
"[+	c #312B2B",
"}+	c #787070",
"|+	c #8D7F80",
"1+	c #2E0000",
"2+	c #390000",
"3+	c #6A6465",
"4+	c #333132",
"5+	c #272120",
"6+	c #3E3A3B",
"7+	c #413D3D",
"8+	c #585152",
"9+	c #807375",
"0+	c #240202",
"a+	c #736B6C",
"b+	c #544F50",
"c+	c #423E3F",
"d+	c #4F4C4C",
"e+	c #4E4646",
"f+	c #615D5D",
"g+	c #625E5F",
"h+	c #322F2F",
"i+	c #575253",
"j+	c #514A4B",
"k+	c #3E393A",
"l+	c #100000",
"m+	c #5D5A5B",
"n+	c #3E3B3B",
"o+	c #534E4F",
"p+	c #766666",
"q+	c #2C1311",
"r+	c #333232",
"s+	c #363435",
"t+	c #272525",
"u+	c #463838",
"v+	c #272323",
"w+	c #565152",
"x+	c #2A2020",
"y+	c #454242",
"z+	c #1A1616",
"A+	c #393333",
"B+	c #605859",
"C+	c #1A0100",
"D+	c #484343",
"E+	c #201E1E",
"F+	c #2E2525",
"G+	c #1D1A19",
"H+	c #1E1513",
"I+	c #373131",
"J+	c #1C0C0B",
"K+	c #120F0D",
"L+	c #080000",
"M+	c #171616",
"N+	c #281210",
"O+	c #603E3A",
"P+	c #0B0A0A",
"Q+	c #2E2D2D",
"R+	c #030000",
"S+	c #4F2623",
"T+	c #3D1C18",
"U+	c #181717",
"V+	c #131212",
"W+	c #160807",
"X+	c #201A19",
"Y+	c #170B09",
"Z+	c #421B17",
"`+	c #140E0C",
" @	c #1B0605",
".@	c #200505",
"+@	c #312422",
"@@	c #331C18",
"#@	c #201411",
"$@	c #261C1B",
"%@	c #59423E",
"&@	c #7C5853",
"*@	c #310807",
"=@	c #070000",
"-@	c #090808",
";@	c #35221E",
">@	c #71423C",
",@	c #806A67",
"'@	c #71534F",
")@	c #1D0302",
"!@	c #512D27",
"~@	c #52221B",
"{@	c #AC645A",
"]@	c #7B6966",
"^@	c #766F70",
"/@	c #544344",
"(@	c #796969",
"_@	c #827575",
":@	c #3D2624",
"<@	c #040000",
"[@	c #0E0000",
"}@	c #1E0000",
"|@	c #B09A9B",
"1@	c #635556",
"2@	c #9C8C8F",
"3@	c #BFA3A5",
"4@	c #715858",
"5@	c #6E6363",
"6@	c #847778",
"7@	c #6F5F5E",
"8@	c #0E0301",
"9@	c #716464",
"0@	c #3D1515",
"a@	c #A99597",
"b@	c #A99596",
"c@	c #97898A",
"d@	c #3C2D2E",
"e@	c #604C4C",
"f@	c #8B7E81",
"g@	c #827778",
"h@	c #807474",
"i@	c #5A4B49",
"j@	c #776969",
"k@	c #806E6E",
"l@	c #240808",
"m@	c #7A6768",
"n@	c #98898B",
"o@	c #83797B",
"p@	c #948788",
"q@	c #908485",
"r@	c #585455",
"s@	c #827474",
"t@	c #7F7374",
"u@	c #655554",
"v@	c #847475",
"w@	c #745E5C",
"x@	c #4F3A3A",
"y@	c #8A7E7F",
"z@	c #908385",
"A@	c #8E8283",
"B@	c #9E8D90",
"C@	c #A08F92",
"D@	c #535050",
"E@	c #706A6B",
"F@	c #7E7272",
"G@	c #584544",
"H@	c #362624",
"I@	c #867170",
"J@	c #8D7271",
"K@	c #6B5452",
"L@	c #9D7B78",
"M@	c #8A7E80",
"N@	c #8D8081",
"O@	c #AF999A",
"P@	c #AC9798",
"Q@	c #716A6B",
"R@	c #5C4C4A",
"S@	c #24120E",
"T@	c #A59293",
"U@	c #796E70",
"V@	c #494344",
"W@	c #564A4A",
"X@	c #867B7C",
"Y@	c #877878",
"Z@	c #8C7676",
"`@	c #907877",
" #	c #736D6E",
".#	c #666162",
"+#	c #605C5D",
"@#	c #6C5E5C",
"##	c #594F4D",
"$#	c #372927",
"%#	c #353131",
"&#	c #1D1B1B",
"*#	c #706667",
"=#	c #8C7F81",
"-#	c #908285",
";#	c #84797A",
">#	c #807677",
",#	c #6D6768",
"'#	c #140000",
")#	c #8A7F80",
"!#	c #918384",
"~#	c #6E6869",
"{#	c #575455",
"]#	c #4C4949",
"^#	c #7A7273",
"/#	c #746B6C",
"(#	c #5D5657",
"_#	c #343131",
":#	c #524F50",
"<#	c #322E2E",
"[#	c #110E0E",
"}#	c #4B4748",
"|#	c #646061",
"1#	c #6B6465",
"2#	c #4E4A4B",
"3#	c #0F0D0C",
"4#	c #3F3B3C",
"5#	c #413D3E",
"6#	c #625D5E",
"7#	c #595555",
"8#	c #363333",
"9#	c #171414",
"0#	c #050505",
"a#	c #151110",
"b#	c #151111",
"c#	c #383535",
"d#	c #454142",
"e#	c #171516",
"f#	c #433F40",
"g#	c #282626",
"h#	c #0C0A09",
"i#	c #1C1818",
"j#	c #282424",
"k#	c #3D3A3A",
"l#	c #1C1616",
"m#	c #181414",
"n#	c #2A2727",
"o#	c #231F1F",
"p#	c #3A3636",
"q#	c #0E0C0A",
"r#	c #343031",
"s#	c #0F0C0C",
"t#	c #2E2B2B",
"u#	c #1A1717",
"v#	c #312E2E",
"w#	c #111010",
"x#	c #3D393A",
"y#	c #020202",
"z#	c #221F1E",
"A#	c #221E1F",
"B#	c #2B2929",
"C#	c #2B2121",
"D#	c #1F1B1B",
"E#	c #4B4546",
"F#	c #A39193",
"G#	c #330000",
"H#	c #070707",
"I#	c #231B18",
"J#	c #100F0F",
"K#	c #8E8182",
"L#	c #4E2D2C",
"M#	c #726B6C",
"N#	c #928385",
"O#	c #0A0404",
"P#	c #473535",
"Q#	c #140908",
"R#	c #060303",
"S#	c #1F1312",
"T#	c #221F1F",
"U#	c #4D4A4B",
"V#	c #161110",
"W#	c #1A0E0D",
"X#	c #231615",
"Y#	c #2B1D1C",
"Z#	c #372C2D",
"`#	c #201312",
" $	c #1B1111",
".$	c #070403",
"+$	c #100404",
"@$	c #130909",
"#$	c #020101",
"$$	c #382827",
"%$	c #342524",
"&$	c #090504",
"*$	c #100807",
"=$	c #160A09",
"-$	c #806B69",
";$	c #0C0504",
">$	c #0F0403",
",$	c #392A29",
"'$	c #7A6663",
")$	c #6B5654",
"!$	c #332322",
"~$	c #2F201F",
"{$	c #463433",
"]$	c #4F3C3B",
"^$	c #453433",
"/$	c #312221",
"($	c #251817",
"_$	c #42312F",
":$	c #685554",
"<$	c #524443",
"[$	c #24100F",
"}$	c #1B0F0D",
"|$	c #392F2E",
"1$	c #201413",
"2$	c #0C0302",
"3$	c #433938",
"4$	c #0C0202",
"5$	c #332827",
"6$	c #140E0D",
"7$	c #040202",
"                                    . +                                                                           ",
"                                @ # . $ $ %                                                                       ",
"                              . # % % & * . $ =                                                                   ",
"                            . - ; > , & & % $ = '                                                                 ",
"                          . ) $ ! ; # ~ + { ] = '                                                                 ",
"                          = $ ) . & + ^ $ % = = '                                                                 ",
"                          / $ ( _ : < + + [ = } |                                                                 ",
"                          & % 1 2 : 3 = % % [ ' 4                                                                 ",
"                        5 _ % 2 : 6 . 7 : : ' 8                                                                   ",
"                        ' : $ } 9 & 0 . = 3 a a b                                                                 ",
"                          5 / c % ) $ : : d e f g 4 h                                                             ",
"                            ' ' i $ j : k 4 h l i 4 m i h                                                         ",
"    n o 5 / p q q _       r : s t h 4 u | s : : [ s [ v v                                                         ",
"  w x o q y a / s z A B B C D E s i F 4 4 h = = 3 s = : D h                                                       ",
"  a a G H w 5 I 5 J K K L . $ [ : o ' i # M [ [ % & B N O O P P Q                                                 ",
"h a a w R a a o S 5 B T T = $ c I c [ c # [ U V W X Y : % 3 [ 5 m                                                 ",
"b a a s a ' Z a ` : B K K  ...a a +.i ' : @.#.$.%.&.s *.{ w o s =.i                                               ",
"      | -.a 4 a 4 a ;.P >.K N ' ,.a a 5 '.).!.~.{.4 % % ].^./.(.s s s                                             ",
"                        N B i $ + a F _.:.<.[.}._.|.y 1.2.3.3.4.o 3 5.6.                                          ",
"                        A 7.5 & 8.5 s 9.0.a.}.b.*.$ o c.d.e.f.g.I 3 3 h.                                          ",
"                        B i.j.{ $ o w k.l.P c m.~ $ 3 n.o.p.q.r.s.5 E t.                                          ",
"                        u.v.w.a ,.c a x.y.a % ~ z.= a a a A.B.C.D.x w '                                           ",
"                        E.F.l.a a I a G.H.a % . $ [ I a a ~ ~ I.J.o w o                                           ",
"                        K.L.0.M.a N.O.P.Q.4 _ _ o F a a a A.~ R.S.) $ T.a                                         ",
"                        U.V.W.W.X.Y.N.Z.`.a a a a a a a a  +.+++@+$ #+a                                           ",
"                        $+%+&+*+=+-+;+>+,+a a a a a a a a '+2.)+!+3 m |                                           ",
"                        ~+{+]+G.^+N.N./+(+N _+a a a a a :+[ = ' 8.c i a                                           ",
"                          <+[+}+|+1+2+G.G.3+P 4+a a 5+r T T a & & . ' a                                           ",
"                          6+7+8+9+0+1+a+G.b+c+d+_+a e+f+Y g+O % $ : +.a                                           ",
"                          h+i+j+k+l+F c+m+n+d+o+p+q+K r+;.O s+P t+a a                                             ",
"                            u+v+w+x+a a y+Q z+A+B+B A q C+a a a a                                                 ",
"                            D+a E+F+a Q Q G+H+h i I+n J+a a a H+K+                                                ",
"                              a a a a a a a $ j '+*.L+a a _+M+a a                                                 ",
"                              a u+a I+a a N+O+$ a a a a P+Q+M+a                                                   ",
"                              a a Y a R+n S+T+R+a a a a a U+a a                                                   ",
"                              V+a F o y W+a a a a a a a a a H+a                                                   ",
"                            q o X+a a a a a a a a H+a a a Y+}.                                                    ",
"                        q Z+/ s : 5 o a a a a a a H+}.`+a }.a                                                     ",
"                       @/ 5 q T+.@a a a a a a a +@@@}.@@{.#@}.                                                    ",
"                    n / / n |.a a   a a a a $@%@%@@@X.&@%@a a                                                     ",
"                    *@o *@*@=@a a   -@a ,.}.%@%@;@}.>@>@@@a a ,@'@                                                ",
"                a *@)@H =@a a a       !@>@>@{.!@~@{@]@^@/@a a (@_@:@                                              ",
"              -.F <@[@o a a a       @@}@}@D+|@1@2@G.3@|@}@N.4@5@6@7@@@                                            ",
"              a w a <@8@a a a       9@0@;+2@|@2@2@a@b@c@d@e@f@%.g@h@i@@@                                          ",
"                a   a a a         j@k@l@m@n@3+o@2@2@p@G.q@G.3+r@s@t@u@@@                                          ",
"              a   4   a           v@w@x@y@z@G.A@B@|@2@C@|@2@q@D@E@F@G@H@                                          ",
"                a a a F         I@J@m@K@L@M@G.N@O@a@2@|@a@2@P@3+Q@7@R@S@                                          ",
"                    a         T@U@V@W@G.X@Y@Z@`@2@2@2@2@2@(+ #.#+#@###$#                                          ",
"                              %#&#*#=#-#X@;#G.>#^@^@^@G.^@^@x.r@&.,#3+D+                                          ",
"                            &.a '#(+)#!#P.*+G.y.3+^@~#3+u+&.&.d+&.{#]#c+                                          ",
"                          c+K+D+&.E@^#/#(#_#c+:#3+&.&.d+K+<#Q c+c+d+c+Q                                           ",
"                        a a a [#}#|#k.1#2#c+c+c+c+c+Q [#3#K+Q c+c+4#Q 5#                                          ",
"                        a a a a Q &.6#7#d+c+4#8#z+z+9#0#z+a#Q c+Q Q 5#c+                                          ",
"                      b#a b#b#a [#c+d+c+]#Q Q G+a a b#K+0#z+c#c+c+d#]#d+                                          ",
"                      0#b#z+z+b#-@e#f#d+d#g#P+h#z+z+0#a a K+c+}#d+d+d+d+Q                                         ",
"                    b#a z+i#Q z+-@a c#c+j#a a 0#z+0#a a a h#Q d+d+d+d+k#z+                                        ",
"                    a a [#Q z+z+z+z+Q &.l#a 0#m#z+a a a a 0#[#c+c+c+n#o#p#c+                                      ",
"                    q#a a Q Q -@z+r#c+h#a s#z+z+t#a a a a z+a -@z+z+z+t#&.Q                                       ",
"                    Q [#a u#v#w#z+c+&.a 0#z+z+    z+[#a 0#z+z+i#t#Q Q x#c+8#                                      ",
"                    K+c+a y#u#Q z+Q c+0#m#z+        z+a m#z+i#h+4#}#}#c+c+c+                                      ",
"                    a d+b#0#a Q c+c+z#z+z+          z+z+z+z+t#c+c+c+c+4#Q Q                                       ",
"                    K+}#p#A#z+z+r#B#a z+v#          z+z+z+z+n#8#c+c#Q Q c+Q                                       ",
"                  d+Q c+Q c+p#A#z+a a                 z+Q z+z+z+z+z+j#c+c+Q                                       ",
"                &.u+c#4#:#d+c+c+c+0#z+                  Q z+-@Q Q c+c+c+x#Q                                       ",
"                (#C#x#Q c+c+c#z+Q b#y#                  Q D#-@Q Q c+8#Q t#i#                                      ",
"                C#E#^@^@}#c+Q -@z+                        t#z+z+D#Q z+z+z+z+/@                                    ",
"                C#+#3+&.G.G.G.F }.                        Q z+z+z+D#Q z+n#d+^@F }@                                ",
"                C#3+r@^@G.^#^@l+1+                        c+z+z+z+z+Q z+c+3+G.4@}@l+                              ",
"                K+;.Q+Q+P Q+B#a a a                         z+a m#z+Q z+d+^@|@F#1+-+G#                            ",
"                  a P H#a a a I#Y+a                           g#J#z+n#c+d+3+K#|@3+L#-+a a                         ",
"                  a P a a a a a @@`+a                         i#Q z+z+c+&.M#3+|@N#3+e@a 4                         ",
"                    U+a F F a x c O#@@                            a a a &.,#1+P#|@|@q@' Q#                        ",
"                    R#a c c Z a S#c a                             a a a T#U#1+}@3+G.3+' ' 4 V#                    ",
"                    a 4 W#X#Y#b 4 c 4                               a a y#b#e@4@^@^@Q ' ' i 4                     ",
"                      a ' s =.[ 4 ,.a                                   a a a a Z#[#a 4 a 4 a a                   ",
"                        i c `#s c a  $                                          a a a F a a a 4 a                 ",
"                        4 ' s s ' a s                                           a H+.$}.@@a a +$@$#$              ",
"                        a c v [ 3 I I                                               }.F a F O#c ' c               ",
"                          h d $$%$c o a                                               }.a ,.c I c c s             ",
"                            ' %$$$i 5 s                                                 &$a *$I c c ' d           ",
"                            4 3 5 z $ [ v                                                   a i =$c ' s s         ",
"                              s w -$-$: 3 d                                                   ;$>$c =.s ,$[ c     ",
"                              c 3 '$)$[ [ [                                                     4 c s s [ [ !$s   ",
"                              ' 3 = 9 : : 3                                                     s [ %$%$[ [ [ ~$' ",
"                              s {$: : ]$v d                                                   s ' ^$[ [ [ ,$/$($Q#",
"                              c _$:$= <$v m                                                   [$s s s s ' s }$b b ",
"                            [ |$1$' s v v d                                                 s 3 s =.c 2$b b b     ",
"                        3 : s 3$d d z D D z v                                             s =.c 2$b b b           ",
"                        [ ' s c 4 4 i c ' c d                                           o o 4$b b b               ",
"                    s ' ' 5$d m m m m c 6$b h                                         s 4 b b                     ",
"                    a b b b b b b b b b b b                                         a                             ",
"                        7$b b b b b b b b b                                                                       "};
