/* XPM */
static char * C5_xpm[] = {
"51 91 539 2",
"  	c None",
". 	c #866F6D",
"+ 	c #8B766F",
"@ 	c #745D5A",
"# 	c #866E68",
"$ 	c #312F31",
"% 	c #615551",
"& 	c #846A66",
"* 	c #877069",
"= 	c #846B66",
"- 	c #754E49",
"; 	c #6A534F",
"> 	c #3E3536",
", 	c #745E59",
"' 	c #846964",
") 	c #826661",
"! 	c #604C4A",
"~ 	c #594443",
"{ 	c #4A3837",
"] 	c #7E5F5A",
"^ 	c #866D68",
"/ 	c #836762",
"( 	c #856C67",
"_ 	c #6B5653",
": 	c #533E3C",
"< 	c #423130",
"[ 	c #80635F",
"} 	c #846A65",
"| 	c #6D5854",
"1 	c #53403F",
"2 	c #3C2B2A",
"3 	c #020000",
"4 	c #210C0A",
"5 	c #65514E",
"6 	c #584442",
"7 	c #816763",
"8 	c #765F5C",
"9 	c #816964",
"0 	c #6E5855",
"a 	c #513F3D",
"b 	c #463433",
"c 	c #0D0201",
"d 	c #3C2C2B",
"e 	c #302120",
"f 	c #806A65",
"g 	c #79625E",
"h 	c #695451",
"i 	c #745C59",
"j 	c #77605C",
"k 	c #65514D",
"l 	c #3C2623",
"m 	c #160502",
"n 	c #5E4947",
"o 	c #634E4B",
"p 	c #6B5552",
"q 	c #513E3D",
"r 	c #1D0F0E",
"s 	c #0C0909",
"t 	c #0D0909",
"u 	c #7F6662",
"v 	c #685451",
"w 	c #1C100F",
"x 	c #000000",
"y 	c #090707",
"z 	c #211A19",
"A 	c #493938",
"B 	c #725A57",
"C 	c #5F4E4C",
"D 	c #463534",
"E 	c #604B4A",
"F 	c #6F5855",
"G 	c #6A5452",
"H 	c #211716",
"I 	c #483635",
"J 	c #68514F",
"K 	c #705A56",
"L 	c #765F5B",
"M 	c #403D3D",
"N 	c #524140",
"O 	c #503E3D",
"P 	c #554240",
"Q 	c #3F2F2E",
"R 	c #604C49",
"S 	c #5F4948",
"T 	c #4F3C3A",
"U 	c #4D3B3A",
"V 	c #5F4A48",
"W 	c #493432",
"X 	c #321A18",
"Y 	c #4B3938",
"Z 	c #6C5853",
"` 	c #604D4B",
" .	c #4F4040",
"..	c #513F3E",
"+.	c #4D3A39",
"@.	c #585355",
"#.	c #050000",
"$.	c #0D0100",
"%.	c #2F2221",
"&.	c #54413F",
"*.	c #52403E",
"=.	c #725B59",
"-.	c #2B1210",
";.	c #453231",
">.	c #614C4A",
",.	c #634E4C",
"'.	c #604A49",
").	c #5F4B49",
"!.	c #5B4744",
"~.	c #624D4B",
"{.	c #4F3D3C",
"].	c #4C3A39",
"^.	c #5D4E4D",
"/.	c #5C5556",
"(.	c #2E2D2D",
"_.	c #120000",
":.	c #1D0000",
"<.	c #080201",
"[.	c #0B0201",
"}.	c #050404",
"|.	c #040202",
"1.	c #372826",
"2.	c #7A635F",
"3.	c #806763",
"4.	c #534140",
"5.	c #4C4344",
"6.	c #474343",
"7.	c #464243",
"8.	c #444041",
"9.	c #4E4142",
"0.	c #634F4C",
"a.	c #584544",
"b.	c #5A4846",
"c.	c #655553",
"d.	c #0B0A0A",
"e.	c #232222",
"f.	c #331715",
"g.	c #1D0A07",
"h.	c #0E0301",
"i.	c #0C0000",
"j.	c #332423",
"k.	c #3C393A",
"l.	c #494546",
"m.	c #4C4444",
"n.	c #4A4140",
"o.	c #453D3D",
"p.	c #312F2F",
"q.	c #413D3E",
"r.	c #454041",
"s.	c #010101",
"t.	c #171212",
"u.	c #201A19",
"v.	c #270100",
"w.	c #42231E",
"x.	c #51312C",
"y.	c #665B5B",
"z.	c #383131",
"A.	c #220D0C",
"B.	c #2F1917",
"C.	c #361F1D",
"D.	c #3C2D2C",
"E.	c #392E2E",
"F.	c #3F3C3D",
"G.	c #0B0000",
"H.	c #0B0403",
"I.	c #1B0908",
"J.	c #030000",
"K.	c #23110D",
"L.	c #331C18",
"M.	c #0D0202",
"N.	c #443B3B",
"O.	c #221A1A",
"P.	c #1A1616",
"Q.	c #050505",
"R.	c #333030",
"S.	c #6A6465",
"T.	c #3C3231",
"U.	c #523F3D",
"V.	c #614D4A",
"W.	c #594745",
"X.	c #4B3F3E",
"Y.	c #433D3E",
"Z.	c #2E2424",
"`.	c #2C2627",
" +	c #2B2121",
".+	c #0B0605",
"++	c #190F0D",
"@+	c #705956",
"#+	c #66524F",
"$+	c #5B4745",
"%+	c #564341",
"&+	c #503E3C",
"*+	c #66504E",
"=+	c #483939",
"-+	c #433F40",
";+	c #474243",
">+	c #5E4946",
",+	c #765E5B",
"'+	c #695552",
")+	c #634D4B",
"!+	c #574341",
"~+	c #4E3B3A",
"{+	c #685350",
"]+	c #5C4846",
"^+	c #473C3B",
"/+	c #413C3D",
"(+	c #423E3F",
"_+	c #181717",
":+	c #6A5451",
"<+	c #755D5A",
"[+	c #5E4A47",
"}+	c #4F3B3A",
"|+	c #382827",
"1+	c #4A3C3B",
"2+	c #443231",
"3+	c #453433",
"4+	c #302726",
"5+	c #464343",
"6+	c #030303",
"7+	c #222020",
"8+	c #3A3739",
"9+	c #7D6562",
"0+	c #7B6360",
"a+	c #4F3C3B",
"b+	c #54403F",
"c+	c #120D0D",
"d+	c #2D1F1E",
"e+	c #3C3130",
"f+	c #231C1B",
"g+	c #2B2929",
"h+	c #2E2C2C",
"i+	c #735C59",
"j+	c #6F5956",
"k+	c #4B3837",
"l+	c #251411",
"m+	c #463736",
"n+	c #3A2F2E",
"o+	c #140E0C",
"p+	c #444243",
"q+	c #1C1B1B",
"r+	c #7E6663",
"s+	c #79625F",
"t+	c #7E6662",
"u+	c #554140",
"v+	c #221615",
"w+	c #181211",
"x+	c #3E302F",
"y+	c #413332",
"z+	c #282424",
"A+	c #090808",
"B+	c #282523",
"C+	c #211C1C",
"D+	c #675350",
"E+	c #7D6560",
"F+	c #65504E",
"G+	c #523F3E",
"H+	c #161110",
"I+	c #070404",
"J+	c #332928",
"K+	c #332726",
"L+	c #484343",
"M+	c #372927",
"N+	c #7D6561",
"O+	c #79615E",
"P+	c #463332",
"Q+	c #40302F",
"R+	c #010000",
"S+	c #100C0B",
"T+	c #090101",
"U+	c #2E2321",
"V+	c #463533",
"W+	c #2C2222",
"X+	c #1E1513",
"Y+	c #161313",
"Z+	c #231B18",
"`+	c #292626",
" @	c #4E3C39",
".@	c #7C6461",
"+@	c #523F3C",
"@@	c #0E0909",
"#@	c #312422",
"$@	c #352725",
"%@	c #030202",
"&@	c #3B3839",
"*@	c #635F5F",
"=@	c #806764",
"-@	c #604B48",
";@	c #5A4644",
">@	c #512C28",
",@	c #716D6D",
"'@	c #6A5A56",
")@	c #6F5955",
"!@	c #604B49",
"~@	c #6A4F4C",
"{@	c #0D0B0A",
"]@	c #120F0D",
"^@	c #151111",
"/@	c #494242",
"(@	c #7B6561",
"_@	c #372D2C",
":@	c #181313",
"<@	c #4F4C4C",
"[@	c #1A1919",
"}@	c #2B2525",
"|@	c #4C2722",
"1@	c #3A1715",
"2@	c #3B302E",
"3@	c #4E3E3B",
"4@	c #40312E",
"5@	c #100000",
"6@	c #575455",
"7@	c #2E2525",
"8@	c #5B5859",
"9@	c #383636",
"0@	c #0E0C0A",
"a@	c #0C0A09",
"b@	c #232121",
"c@	c #310807",
"d@	c #0B0807",
"e@	c #271C1A",
"f@	c #322728",
"g@	c #040303",
"h@	c #262525",
"i@	c #0C0B0B",
"j@	c #1A0100",
"k@	c #110E0E",
"l@	c #3A3333",
"m@	c #3C3A3B",
"n@	c #1B1A1A",
"o@	c #242323",
"p@	c #391310",
"q@	c #170B09",
"r@	c #322927",
"s@	c #0B0B0B",
"t@	c #180000",
"u@	c #2F211E",
"v@	c #110F0F",
"w@	c #27201E",
"x@	c #040404",
"y@	c #090504",
"z@	c #3C1D1B",
"A@	c #100F0F",
"B@	c #250C0B",
"C@	c #050100",
"D@	c #100807",
"E@	c #474241",
"F@	c #332B2B",
"G@	c #070302",
"H@	c #180C0B",
"I@	c #161515",
"J@	c #443938",
"K@	c #534F4F",
"L@	c #544E4D",
"M@	c #281E1D",
"N@	c #160E0E",
"O@	c #060606",
"P@	c #554E4D",
"Q@	c #514E4D",
"R@	c #4D4545",
"S@	c #241918",
"T@	c #4E4A4C",
"U@	c #050303",
"V@	c #1E1D1D",
"W@	c #383535",
"X@	c #524E4E",
"Y@	c #545150",
"Z@	c #423636",
"`@	c #312221",
" #	c #656061",
".#	c #2F2C2C",
"+#	c #373535",
"@#	c #595557",
"##	c #5D5A5A",
"$#	c #5E5A5A",
"%#	c #565253",
"&#	c #534A49",
"*#	c #534E4E",
"=#	c #5C504D",
"-#	c #4A3938",
";#	c #41302F",
">#	c #373333",
",#	c #766F70",
"'#	c #535050",
")#	c #4D4949",
"!#	c #756E6F",
"~#	c #464445",
"{#	c #544948",
"]#	c #645A59",
"^#	c #373131",
"/#	c #604C4C",
"(#	c #837879",
"_#	c #736B6C",
":#	c #484646",
"<#	c #746462",
"[#	c #574847",
"}#	c #2D2323",
"|#	c #1C0D0A",
"1#	c #594F4D",
"2#	c #524D4C",
"3#	c #5E5B5C",
"4#	c #908485",
"5#	c #9C8C8F",
"6#	c #97888A",
"7#	c #887C7E",
"8#	c #8D8182",
"9#	c #5F5B5B",
"0#	c #5F5A59",
"a#	c #3D2D2C",
"b#	c #251817",
"c#	c #4E4848",
"d#	c #454040",
"e#	c #594541",
"f#	c #605C5D",
"g#	c #726B6C",
"h#	c #998A8D",
"i#	c #B09A9B",
"j#	c #8F8181",
"k#	c #655F5F",
"l#	c #4A4443",
"m#	c #352827",
"n#	c #575355",
"o#	c #604D49",
"p#	c #4B4748",
"q#	c #5C5859",
"r#	c #676162",
"s#	c #918586",
"t#	c #9E8D8F",
"u#	c #A28F90",
"v#	c #776B6C",
"w#	c #61595A",
"x#	c #796866",
"y#	c #6C6566",
"z#	c #504443",
"A#	c #454142",
"B#	c #585556",
"C#	c #715858",
"D#	c #877C7D",
"E#	c #7A7172",
"F#	c #776F70",
"G#	c #948588",
"H#	c #6C6565",
"I#	c #554E4E",
"J#	c #797071",
"K#	c #595656",
"L#	c #4A4647",
"M#	c #454242",
"N#	c #504B4C",
"O#	c #7D7374",
"P#	c #3D393A",
"Q#	c #534647",
"R#	c #5F5A5B",
"S#	c #646061",
"T#	c #7E7577",
"U#	c #827678",
"V#	c #1C1818",
"W#	c #312E2E",
"X#	c #231F1F",
"Y#	c #948688",
"Z#	c #948788",
"`#	c #020202",
" $	c #7F7576",
".$	c #6D6768",
"+$	c #171515",
"@$	c #7A7273",
"#$	c #524F4F",
"$$	c #2A2727",
"%$	c #867B7C",
"&$	c #221E1F",
"*$	c #3A3636",
"=$	c #71696A",
"-$	c #5C5758",
";$	c #2C2828",
">$	c #6D6566",
",$	c #7F7677",
"'$	c #1A1717",
")$	c #4F4B4C",
"!$	c #3F3B3C",
"~$	c #363333",
"{$	c #2E2B2B",
"]$	c #6D6667",
"^$	c #1F1B1B",
"/$	c #282626",
"($	c #353232",
"_$	c #494646",
":$	c #615D5E",
"<$	c #111010",
"[$	c #474344",
"}$	c #6E6869",
"|$	c #211A1A",
"1$	c #655E5F",
"2$	c #3E0000",
"3$	c #4C0000",
"4$	c #867C7D",
"5$	c #7C6767",
"6$	c #2E0000",
"7$	c #1E0000",
"8$	c #2D2B2C",
"9$	c #5B5757",
"0$	c #776E6F",
"a$	c #090000",
"b$	c #201615",
"c$	c #080000",
"d$	c #310000",
"e$	c #6E6768",
"f$	c #6A6262",
"g$	c #130A0A",
"h$	c #696061",
"i$	c #474244",
"j$	c #040000",
"k$	c #260000",
"l$	c #76696B",
"m$	c #6B6868",
"n$	c #786F70",
"o$	c #787171",
"p$	c #705E5D",
"q$	c #2B1D1C",
"r$	c #4E4847",
"s$	c #292727",
"t$	c #53403E",
"u$	c #1E1E1E",
"v$	c #0F0201",
"w$	c #2D1715",
"x$	c #6A5552",
"y$	c #473534",
"z$	c #4D3B39",
"A$	c #725E5C",
"B$	c #806B69",
"C$	c #59423E",
"D$	c #71423C",
"E$	c #534342",
"F$	c #5C4B49",
"G$	c #5F4C49",
"H$	c #4A3734",
"I$	c #3C2928",
"J$	c #1A1110",
"K$	c #29110F",
"L$	c #130807",
"M$	c #130705",
"N$	c #120503",
"                        . +                                                                           ",
"                    @ @ # $ % &                                                                       ",
"                  * # = - ; > ,                                                                       ",
"                & # # = ' ) ! ~ {                                                                     ",
"                & ] ^ = / ( _ : <                                                                     ",
"                & # = & [ } | 1 2 3                                                                   ",
"              4 5 6 7 8 ( 9 0 a b c                                                                   ",
"              d e f g h i j k l { m                                                                   ",
"              { n @ @ o p 6 q r s t                                                                   ",
"                @ u & v w x y z A B C D E F 6                                                         ",
"                5 5 G 6 3 H < I J j K L M N O P                                                       ",
"                Q 5 6 R S T U V W X Y Z `  ...+.a v @.                                                ",
"    4 #.m $.#.x     x %.&.*.B =.-.;.>.,.'.).!.~.{.].^./.(.                                            ",
"    _.:.<.m [.x     3 }.|.1.2.3.6 4.5.6.7.8.8.9.0.a.b.c.d.e.                                          ",
"  #.-.#.f.g.h.x x x x x i.Q n j.k.l.m.n.o.p.q.r.l.s.x t.u.x                                           ",
"  v.-.#.3 x x x x x x x w.x.y.z.A.B.-.{ C.-.D.E.8.F.x x x x                                           ",
"G.m H.I.#.J.x x x x x x K.L.M.#.G.-.C.{ { { d 6 N.8.O.y P.Q.R.                                        ",
"  m 4                   S.T._.-.{ { { U.V.@ @ 5 W.X.Y.Z.`.P. +                                        ",
"                        .+c ++@+#+q $+%+&+*+@ @ 5 =+-+;+ +P.R.x                                       ",
"                        x e >+,+'+)+!+~+q 1 {+5 ]+^+/+l.s.x (+P.                                      ",
"                      _+4 :+<+@+[+{.}+|+1+2+{ 3+d 4+8.5+6+x 7+P.                                      ",
"                    8+x @ 9+0+J &+a+b+}.x c+d+D.e+f+(+(+g+x x P.                                      ",
"                    h+x i+9+9+j+Y k+Q x x x l+m+n+4+l.R.(+x o+P.                                      ",
"                    p+q+r+s+t+u+~+{ v+w+f+w+f+x+y+4+P.(+z+A+R.B+                                      ",
"                    C+D+0+E+F+U G+w .+w+H+I+3 J+y+K+R.L+P.P.M+P.                                      ",
"                      0+N+O+&.P+Q+R+x S+I+3 T+v+U+V+W+X+Y+R.Z+R.                                      ",
"                  `+ @0+.@$++@@@S+x x x x x x x #@$@%@x x x P.x                                       ",
"                &@*@L =@-@;@>@L.x x x x x x x x x x x x x x P.                                        ",
"              ,@(.*@'@)@!@~@{@M+x x x x x x x x x x x x ]@x ^@                                        ",
"              *@3 /@(@)@_@:@x (+L+<@g+x x x x x Y+x x x x [@s.                                        ",
"          x }@|@1@2@3@4@]@x 7+5@6@<@<@x 7@8@9@x 0@a@x x x b@                                          ",
"          m -.c@d@w+M+e@  x R+f@<@<@<@X+ +8@8@x g@]@x [@x h@i@                                        ",
"          c@j@x x x x       x x k@R.(+l@X+8@m@x x ]@x n@x o@d.                                        ",
"        p@x x x K.          x x x x x 7+<@k@x x x x q@r@x o@s@                                        ",
"        j@x x x x         t@x x x x x x x x x x x R+K.u@x h@s@                                        ",
"    x x x x x x           x x x x x x x x x x 3 x 3 c v@x w@x@x                                       ",
"    4 m 3 x                     x x x x x x S+R+x f+x x x y@  x                                       ",
"  :.z@h.x                       x x x 3 x 3 4+x x f+x x x A@.+                                        ",
"_.B@x x x                       x x S+w+3 3 4+C@m D@x x R+E@F@                                        ",
":.x x x                           x T.G@H@3 i.m C@x x I@J@K@L@e 3                                     ",
"#.R+x x                           .+H@H@M@e N@x x x O@q+P@Q@R@S@m                                     ",
"x m x x                     x T@4+w+c &@U@x x x U@U@V@W@X@Y@Z@`@e ,@T@                                ",
"x 3                         }@S.8@ #S.L+x .#+#@###$#%#&#*#=#-#{ ;#>#T@S.                              ",
"x x                         ,#(+8@8@'#L+x )#L+,#!#~#T@{#]#-#{ { { ^#p+,#                              ",
"x x                         8@(+8@8@8@S.K.,#/#(#(#(#_#:#<#[#d e d+}#T@(+                              ",
"R+|#                        1#2#S.3#8@,#R+4#5#5#5#6#7#8#9#0#a#e b#c#d#<@                              ",
"x R+                        e#1#f# #S.g#5@4#h#5#5#i#5#4#j#k#l#m#v+n#o#8@                              ",
"                          K.(+p#<@<@q#r#5@4#s#h#5#5#5#4#t#u#v#w#x#y#z#8@                              ",
"                          L+(+(+(+A#<@B#x C#D#4#(#E#S.F#s#h#G#H#I#J#K#L#<@                            ",
"                          R.M#p#(+(+A#<@x  +S.,#,#S.N#<@D#4#4#O#I#_#8@<@<@                            ",
"                          R.R.R.P#<@(+ +]@]@R.(+R.k@x R.S.S.,#,#Q#R#S#T#U#<@                          ",
"                          V#W#R.R.X#k@Q.x P.P.^@x x x a@(+<@8@8@f#S.,#Y#Z#(#S.                        ",
"                          P.P.R.R.7+Q.P.x k@^@`#x x x x (+<@S.S.S. $4#(#_#.$8@                        ",
"                        x x R.R.+$x x x x x x x       x 8@,#@$(#4#8#(#(#(#8@#$                        ",
"                        ^@x (+(+x x P.P.$$$$P.          L+S.(#%$4#4#4#8@<@S.,#5@                      ",
"                        P.x &$*$x x Q.P.P.P.P.          ]@<@=$8#4#D#-$(+k#4#(#R+                      ",
"                        ^@x P.P.x x a@P.P.A+x             ;$<@<@<@(+(+>$4#,$8@ +                      ",
"                        x x (+(+x x R.(+R.x x               (+(+8@_#(#4#F#S.f# +                      ",
"                        x P.(+(+x '$R.R.$$P.P.              (+)$8@(# $,#S.,#S.X+x                     ",
"                          x !$~$x R..#P.P.P.                (+8@,#,#,#g#S.S.S.R+x                     ",
"                          P.{$<@x R.P.R.P.Q.                  #$B#S.S.S.]$,#S.R+x                     ",
"                          P.^$R.x /$R.R.P.                    ($_$<@'#:$,#,#8@x x                     ",
"                          (+(+(+x d.R.<$x                       R.[$8@,#}$S.S.|$x                     ",
"                          P.R.k@x P.k@x x                         8@S.8@S.3#(+P.x P.                  ",
"                        <@(+R.x x x x x x                         #$8@8@B#<@(+R.R.R.                  ",
"                        8@4#S.|$x x x k@                          R.P#5+<@A#1$4#2$2$                  ",
"                        ,#,#5@3$R+x x P.                            R.<@<@4$4#5$6$6$7$                ",
"                        &@8$x x x R+x                                 <@9$0$,$x x #.x a$              ",
"                        x x b$c$x x d$                                (+e$f$C+g$G.#.R+x               ",
"                        G.v+{ m H@i.5@                                  !#h$i$C+_.#.j$x x             ",
"                        k$d 6 e e v+X+                                  ,#l$m$&@4 x e N@x x           ",
"                      c 3 c.6 m [#D@x                                   S.n$o$*@p$d q$v+3             ",
"                      v+e r$v+H@R+x x                                     ,#*@s$t${ v+v+f+x x         ",
"                      v+3 c.i.H@x x x                                     (#u$x { { v+v+f+x x         ",
"                      c { T.{ e 4+x                                       L.x x J.m m v$c$x           ",
"                        m ^+6 v+x x                                             x x [.m x x           ",
"                        i.[#d v+x                                               x x G.e J.x x         ",
"                      e e { m H@x                                                 x 4 { 6 b$x         ",
"                      e w$<+6 v+                                                    m -.j+x$H@        ",
"                      4 5 6 6 H@                                                    v+4 x$j+d         ",
"                      d @ . { 4+                                                      e { @ 5 H@      ",
"                    a#y$@ . [#f+                                                        { 6 & 6 z$    ",
"                    Y u+A$B$^+w+                                                        { 6 @ 6 6     ",
"                    6 6 t${ e C$                                                        { u+6 & 6 d   ",
"                  d d d { { p$[#                                                        { Y u+*+{ e D$",
"                  T.{ 6 E${ F$4+                                                        G${ { { ;#4+H$",
"                  4+[#p$^+{ { T.                                                      I$4 e J$.+.+.+M+",
"                  4+H@i.H@5 c.^+                                                    K$4 L$.+.+.+.+|.  ",
"                  c f+f+c T.[#4+                                                    4 M$.+.+.+.+.+    ",
"                  .+.+.+.+.+.+.+                                                  N$.+.+.+.+.+.+      ",
"                                                                                x .+.+|.              "};
