/* XPM */
static char * C6_xpm[] = {
"57 92 496 2",
"  	c None",
". 	c #8B766F",
"+ 	c #846A66",
"@ 	c #846B66",
"# 	c #745D5A",
"$ 	c #252B2E",
"% 	c #584947",
"& 	c #65514E",
"* 	c #877069",
"= 	c #866E68",
"- 	c #221615",
"; 	c #655955",
"> 	c #2D3033",
", 	c #72605C",
"' 	c #79615E",
") 	c #6F5956",
"! 	c #87716A",
"~ 	c #7E5F5A",
"{ 	c #856C67",
"] 	c #7F6662",
"^ 	c #7C6661",
"/ 	c #181211",
"( 	c #5C4846",
"_ 	c #3C2C2B",
": 	c #866E69",
"< 	c #584442",
"[ 	c #331715",
"} 	c #592B29",
"| 	c #2B1210",
"1 	c #020000",
"2 	c #4A3837",
"3 	c #624E4B",
"4 	c #70504B",
"5 	c #1B1312",
"6 	c #67514E",
"7 	c #6A5452",
"8 	c #210C0A",
"9 	c #0B0605",
"0 	c #000000",
"a 	c #866F69",
"b 	c #614D4A",
"c 	c #231C1B",
"d 	c #292626",
"e 	c #1C1615",
"f 	c #070606",
"g 	c #3C3231",
"h 	c #180C0B",
"i 	c #0D0201",
"j 	c #302726",
"k 	c #2C2322",
"l 	c #2E2322",
"m 	c #6A5552",
"n 	c #473C3B",
"o 	c #302120",
"p 	c #080403",
"q 	c #120B0B",
"r 	c #594C4C",
"s 	c #270100",
"t 	c #1D0000",
"u 	c #160502",
"v 	c #391310",
"w 	c #655553",
"x 	c #010000",
"y 	c #41302F",
"z 	c #877373",
"A 	c #837A7B",
"B 	c #433939",
"C 	c #574847",
"D 	c #120000",
"E 	c #0B0000",
"F 	c #050000",
"G 	c #333030",
"H 	c #3B3839",
"I 	c #444243",
"J 	c #4E4A4C",
"K 	c #241716",
"L 	c #866F70",
"M 	c #716D6D",
"N 	c #45312F",
"O 	c #0C0000",
"P 	c #340D0C",
"Q 	c #68463E",
"R 	c #232222",
"S 	c #353333",
"T 	c #726A6B",
"U 	c #645656",
"V 	c #4E3C3A",
"W 	c #635F5F",
"X 	c #0B0403",
"Y 	c #220F0E",
"Z 	c #271A19",
"` 	c #4C2722",
" .	c #5B5859",
"..	c #6E6768",
"+.	c #726969",
"@.	c #847373",
"#.	c #5F4E4E",
"$.	c #160E0E",
"%.	c #4E4343",
"&.	c #3D3433",
"*.	c #271D1C",
"=.	c #201615",
"-.	c #261312",
";.	c #241514",
">.	c #664945",
",.	c #826762",
"'.	c #4A3734",
").	c #545051",
"!.	c #716666",
"~.	c #847473",
"{.	c #86706C",
"].	c #090101",
"^.	c #535151",
"/.	c #1C1B1B",
"(.	c #110402",
"_.	c #614642",
":.	c #3F2F2E",
"<.	c #0E0707",
"[.	c #755A56",
"}.	c #795E5A",
"|.	c #755D5A",
"1.	c #3C1D1B",
"2.	c #58332E",
"3.	c #23110D",
"4.	c #261F1E",
"5.	c #716B6B",
"6.	c #71696B",
"7.	c #3D2D2C",
"8.	c #57403D",
"9.	c #6F5451",
"0.	c #795B57",
"a.	c #7B5D58",
"b.	c #2B1513",
"c.	c #2C1F1D",
"d.	c #787171",
"e.	c #7D7374",
"f.	c #786462",
"g.	c #8E7C74",
"h.	c #595557",
"i.	c #473534",
"j.	c #2C1614",
"k.	c #7A5E5A",
"l.	c #795C57",
"m.	c #7D5E59",
"n.	c #331D1A",
"o.	c #332120",
"p.	c #4D302D",
"q.	c #8C8181",
"r.	c #6F6869",
"s.	c #554443",
"t.	c #5E585A",
"u.	c #4C312E",
"v.	c #80625D",
"w.	c #836962",
"x.	c #7E605B",
"y.	c #5D3A35",
"z.	c #797172",
"A.	c #6D6667",
"B.	c #5C4D4C",
"C.	c #574F50",
"D.	c #2B2020",
"E.	c #755955",
"F.	c #745955",
"G.	c #8B8081",
"H.	c #837879",
"I.	c #776E6F",
"J.	c #1D1717",
"K.	c #261A19",
"L.	c #765B56",
"M.	c #7D635D",
"N.	c #83797A",
"O.	c #8A7D7F",
"P.	c #250000",
"Q.	c #4C0000",
"R.	c #343132",
"S.	c #776D6E",
"T.	c #554848",
"U.	c #564746",
"V.	c #80645F",
"W.	c #775A55",
"X.	c #7B5A55",
"Y.	c #826761",
"Z.	c #8F8183",
"`.	c #8E8081",
" +	c #380000",
".+	c #42231E",
"++	c #827677",
"@+	c #5A5051",
"#+	c #6A4A4B",
"$+	c #88716B",
"%+	c #836763",
"&+	c #754F4A",
"*+	c #988788",
"=+	c #988688",
"-+	c #5B0000",
";+	c #3E0000",
">+	c #655353",
",+	c #867A7B",
"'+	c #796D6E",
")+	c #453B3C",
"!+	c #6C4F50",
"~+	c #100C0B",
"{+	c #050303",
"]+	c #877C7D",
"^+	c #8D8082",
"/+	c #8D7F82",
"(+	c #4E4949",
"_+	c #4F3636",
":+	c #655F60",
"<+	c #272120",
"[+	c #333132",
"}+	c #6A6465",
"|+	c #390000",
"1+	c #2E0000",
"2+	c #8D7F80",
"3+	c #787070",
"4+	c #312B2B",
"5+	c #544A48",
"6+	c #625E5F",
"7+	c #615D5D",
"8+	c #4E4646",
"9+	c #4F4C4C",
"0+	c #423E3F",
"a+	c #544F50",
"b+	c #736B6C",
"c+	c #240202",
"d+	c #807375",
"e+	c #585152",
"f+	c #413D3D",
"g+	c #3E3A3B",
"h+	c #272525",
"i+	c #363435",
"j+	c #333232",
"k+	c #2C1311",
"l+	c #766666",
"m+	c #534E4F",
"n+	c #3E3B3B",
"o+	c #5D5A5B",
"p+	c #100000",
"q+	c #3E393A",
"r+	c #514A4B",
"s+	c #575253",
"t+	c #322F2F",
"u+	c #1A0100",
"v+	c #605859",
"w+	c #393333",
"x+	c #1A1616",
"y+	c #454242",
"z+	c #2A2020",
"A+	c #565152",
"B+	c #272323",
"C+	c #463838",
"D+	c #120F0D",
"E+	c #1E1513",
"F+	c #1C0C0B",
"G+	c #373131",
"H+	c #1D1A19",
"I+	c #2E2525",
"J+	c #201E1E",
"K+	c #484343",
"L+	c #171616",
"M+	c #080000",
"N+	c #2E2D2D",
"O+	c #0B0A0A",
"P+	c #603E3A",
"Q+	c #281210",
"R+	c #181717",
"S+	c #030000",
"T+	c #3D1C18",
"U+	c #4F2623",
"V+	c #160807",
"W+	c #131212",
"X+	c #170B09",
"Y+	c #201A19",
"Z+	c #140E0C",
"`+	c #421B17",
" @	c #201411",
".@	c #331C18",
"+@	c #312422",
"@@	c #200505",
"#@	c #1B0605",
"$@	c #59423E",
"%@	c #7C5853",
"&@	c #261C1B",
"*@	c #71534F",
"=@	c #806A67",
"-@	c #71423C",
";@	c #35221E",
">@	c #090808",
",@	c #070000",
"'@	c #310807",
")@	c #3D2624",
"!@	c #827575",
"~@	c #796969",
"{@	c #544344",
"]@	c #766F70",
"^@	c #7B6966",
"/@	c #AC645A",
"(@	c #52221B",
"_@	c #512D27",
":@	c #1D0302",
"<@	c #6F5F5E",
"[@	c #847778",
"}@	c #6E6363",
"|@	c #715858",
"1@	c #1E0000",
"2@	c #B09A9B",
"3@	c #BFA3A5",
"4@	c #9C8C8F",
"5@	c #635556",
"6@	c #0E0000",
"7@	c #040000",
"8@	c #5A4B49",
"9@	c #807474",
"0@	c #827778",
"a@	c #8B7E81",
"b@	c #604C4C",
"c@	c #3C2D2E",
"d@	c #97898A",
"e@	c #A99596",
"f@	c #A99597",
"g@	c #3D1515",
"h@	c #716464",
"i@	c #0E0301",
"j@	c #655554",
"k@	c #7F7374",
"l@	c #827474",
"m@	c #585455",
"n@	c #908485",
"o@	c #948788",
"p@	c #83797B",
"q@	c #98898B",
"r@	c #7A6768",
"s@	c #240808",
"t@	c #806E6E",
"u@	c #776969",
"v@	c #362624",
"w@	c #584544",
"x@	c #7E7272",
"y@	c #706A6B",
"z@	c #535050",
"A@	c #A08F92",
"B@	c #9E8D90",
"C@	c #8E8283",
"D@	c #908385",
"E@	c #8A7E7F",
"F@	c #4F3A3A",
"G@	c #745E5C",
"H@	c #847475",
"I@	c #24120E",
"J@	c #5C4C4A",
"K@	c #716A6B",
"L@	c #AC9798",
"M@	c #AF999A",
"N@	c #8D8081",
"O@	c #8A7E80",
"P@	c #9D7B78",
"Q@	c #6B5452",
"R@	c #8D7271",
"S@	c #867170",
"T@	c #372927",
"U@	c #594F4D",
"V@	c #6C5E5C",
"W@	c #605C5D",
"X@	c #666162",
"Y@	c #736D6E",
"Z@	c #907877",
"`@	c #8C7676",
" #	c #877878",
".#	c #867B7C",
"+#	c #564A4A",
"@#	c #494344",
"##	c #796E70",
"$#	c #A59293",
"%#	c #6D6768",
"&#	c #807677",
"*#	c #84797A",
"=#	c #908285",
"-#	c #8C7F81",
";#	c #706667",
">#	c #1D1B1B",
",#	c #353131",
"'#	c #4C4949",
")#	c #575455",
"!#	c #6E6869",
"~#	c #918384",
"{#	c #8A7F80",
"]#	c #140000",
"^#	c #322E2E",
"/#	c #524F50",
"(#	c #343131",
"_#	c #5D5657",
":#	c #746B6C",
"<#	c #7A7273",
"[#	c #413D3E",
"}#	c #3F3B3C",
"|#	c #0F0D0C",
"1#	c #110E0E",
"2#	c #4E4A4B",
"3#	c #6B6465",
"4#	c #646061",
"5#	c #4B4748",
"6#	c #151110",
"7#	c #050505",
"8#	c #171414",
"9#	c #363333",
"0#	c #595555",
"a#	c #625D5E",
"b#	c #454142",
"c#	c #383535",
"d#	c #151111",
"e#	c #0C0A09",
"f#	c #282626",
"g#	c #433F40",
"h#	c #171516",
"i#	c #3D3A3A",
"j#	c #282424",
"k#	c #1C1818",
"l#	c #3A3636",
"m#	c #231F1F",
"n#	c #2A2727",
"o#	c #181414",
"p#	c #1C1616",
"q#	c #2E2B2B",
"r#	c #0F0C0C",
"s#	c #343031",
"t#	c #0E0C0A",
"u#	c #3D393A",
"v#	c #111010",
"w#	c #312E2E",
"x#	c #1A1717",
"y#	c #020202",
"z#	c #221F1E",
"A#	c #2B2929",
"B#	c #221E1F",
"C#	c #1F1B1B",
"D#	c #2B2121",
"E#	c #4B4546",
"F#	c #330000",
"G#	c #A39193",
"H#	c #4E2D2C",
"I#	c #8E8182",
"J#	c #100F0F",
"K#	c #231B18",
"L#	c #070707",
"M#	c #928385",
"N#	c #726B6C",
"O#	c #140908",
"P#	c #473535",
"Q#	c #0A0404",
"R#	c #161110",
"S#	c #4D4A4B",
"T#	c #221F1F",
"U#	c #1F1312",
"V#	c #060303",
"W#	c #2B1D1C",
"X#	c #231615",
"Y#	c #1A0E0D",
"Z#	c #372C2D",
"`#	c #1B1111",
" $	c #201312",
".$	c #020101",
"+$	c #130909",
"@$	c #100404",
"#$	c #070403",
"$$	c #342524",
"%$	c #382827",
"&$	c #100807",
"*$	c #090504",
"=$	c #160A09",
"-$	c #392A29",
";$	c #0F0403",
">$	c #0C0504",
",$	c #806B69",
"'$	c #332322",
")$	c #6B5654",
"!$	c #7A6663",
"~$	c #2F201F",
"{$	c #251817",
"]$	c #312221",
"^$	c #453433",
"/$	c #4F3C3B",
"($	c #463433",
"_$	c #1B0F0D",
":$	c #24100F",
"<$	c #524443",
"[$	c #685554",
"}$	c #42312F",
"|$	c #0C0302",
"1$	c #201413",
"2$	c #392F2E",
"3$	c #433938",
"4$	c #0C0202",
"5$	c #140E0D",
"6$	c #332827",
"7$	c #040202",
"                                                                          . +                                     ",
"                                                                      @ # # + $ %                                 ",
"                                                                  & # + * = @ @ $ +                               ",
"                                                                - & # @ = = ; > , ' +                             ",
"                                                                - & ) ! . ~ $ , { # ] +                           ",
"                                                                - & & @ # ^ . = + ] # &                           ",
"                                                                / ( & _ . . : < [ } # |                           ",
"                                                                1 - _ @ @ & 2 < 3 4 @ =                           ",
"                                                                  5 - < < 6 + 7 < 3 @ [ 8                         ",
"                                                                9 0 0 2 & + a = b ( # < -                         ",
"                                                            c 1 d e f g < < # ] @ h | 8                           ",
"                                                        c i j 1 i k c 1 l < m # i - -                             ",
"                                                        n n _ o _ < < o / p 1 c q o < r       [ s s t | 8 u v     ",
"                                                      c w < & o 2 & & c 1 1 x i o y w z A A B C o | 0 D s u E F   ",
"                                                G H H I I J A = @ _ _ K $ i - u < _ # + L M M N 8 O 8 F P Q 0 0   ",
"                                                j 8 _ 2 @ < R S T U V _ $ h _ h O h # & W W A 8 X u 0 0 Y F 0 0 c ",
"                                              i Z o u F ! ` o  ...+.@.#.< - i $.0 0 %.&.M M A < *.0 =.- 0 o 0 0 9 ",
"                                            o o o -.;.>.,.@ @ 1 '.).!.~.{.8 0 0 ].- J M ^.H /.0 1 0 1 0 (./       ",
"                                          _.:.2 u <.[.[.}.|.D 1.2.3.4.5.6.2.x 0 . # i A J                         ",
"                                          7.2 2 O 8.9.0.a.b.u # ` c.3.d.e.f.o 8 g.= 8 h.B                         ",
"                                          i.y 8 j.k.l.m.n.o.2 # ~ p.h H q.r.F u # ! s.t.A                         ",
"                                          - F E u.v.w.x.0 0 0 & y.~ @ 0 z.A.0 h ].0 B.C.D.                        ",
"                                          u F u E.F.~ ~ 0 0 O _ # + @ 0 G.H.0 O 0 0 q.I.J.                        ",
"                                        0 K.# ] L.M.~ x.0 0 0 x u [ [ 1 N.O.P.Q.0 R.e.S.T.                        ",
"                                          0 U.# V.W.X.Y.0 0 0 0 0 0 0 0 Z.`.Q. +.+++++@+#+                        ",
"                                          / j 2 $+%+}.&+0 0 0 0 0 0 0 0 *+=+-+;+>+,+'+)+!+                        ",
"                                          0 i h g.- & _ ~+0 0 0 0 0 {+J ]+^+Q.Q./+H.(+_+:+                        ",
"                                          0 - + = = 0 W W r <+0 0 [+H }+H.H.|+1+2+3+4+5+                          ",
"                                          0 $.< # @ I 6+R 7+8+0 {+9+0+a+H.b+1+c+d+e+f+g+                          ",
"                                            0 0 h+H i+I /.j+M k+l+m+9+n+o+0+x p+q+r+s+t+                          ",
"                                                0 0 0 0 u+s B A v+w+x+G y+0 0 z+A+B+C+                            ",
"                                                D+E+0 0 0 F+v G+i c E+H+G G 0 I+J+0 K+                            ",
"                                                0 0 L+{+0 0 M+` &+m # 0 0 0 0 0 0 0                               ",
"                                                  0 L+N+O+0 0 0 0 # P+Q+0 0 G+0 C+0                               ",
"                                                  0 0 R+0 0 0 0 0 S+T+U+v S+0 R 0 0                               ",
"                                                  0 E+0 0 0 0 0 0 0 0 0 V+D u x 0 W+                              ",
"                                                    3.X+0 0 0 E+0 0 0 0 0 0 0 0 Y+u s                             ",
"                                                    0 3.0 Z+3.E+0 0 0 0 0 0 u 8 < o | `+s                         ",
"                                                    3. @'..@3..@+@0 0 0 0 0 0 0 @@T+s 8 | #@                      ",
"                                                    0 0 $@%@.+.@$@$@&@0 0 0 0   0 0 1.v | | v                     ",
"                                                *@=@0 0 .@-@-@3.;@$@$@3.].0 >@  0 0 ,@'@'@u '@                    ",
"                                              )@!@~@0 0 {@]@^@/@(@_@'.-@-@_@      0 0 0 ,@P :@'@0                 ",
"                                            .@<@[@}@|@Q.1@2@3@H.4@5@2@K+1@1@.@      0 0 0 u 6@7@x (.              ",
"                                          .@8@9@0@..a@b@c@d@e@f@4@4@2@4@-+g@h@      0 0 0 i@7@0 F 0               ",
"                                          .@j@k@l@m@}+H.n@H.o@4@4@p@}+q@r@s@t@u@        0 0 0   0                 ",
"                                          v@w@x@y@z@n@4@2@A@4@2@B@C@H.D@E@F@G@H@          0   1   0               ",
"                                          I@J@<@K@}+L@4@f@2@4@f@M@N@H.O@P@Q@r@R@S@        x 0 0 0                 ",
"                                          T@U@V@W@X@Y@]+4@4@4@4@4@Z@`@ #.#H.+#@###$#        0                     ",
"                                          K+}+%# .m@A.]@]@H.]@]@]@&#H.*#.#=#-#;#>#,#                              ",
"                                          0+'#)# .9+ . .C+}+!#]@}+z.H.,+O.~#{#]+]#0  .                            ",
"                                          G 0+9+0+0+G ^#D+9+ . .}+/#0+(#_#:#<#y@ .K+D+0+                          ",
"                                          [#G }#0+0+G D+|#1#G 0+0+0+0+0+2#3#r.4#5#1#0 0 0                         ",
"                                          0+[#G G 0+G 6#x+7#8#x+x+9#}#0+9+0#a# .G 0 0 0 0                         ",
"                                          9+'#b#0+0+c#x+7#D+d#0 0 H+G G '#0+9+0+1#0 d#d#0 d#                      ",
"                                        G 9+9+9+9+5#0+D+0 0 7#x+x+e#O+f#b#9+g#h#>@d#x+x+d#7#                      ",
"                                        x+i#9+9+9+9+G e#0 0 0 7#x+7#0 0 j#0+c#0 >@x+G k#x+0 d#                    ",
"                                      0+l#m#n#0+0+0+1#7#0 0 0 0 x+o#7#0 p# .G x+x+x+x+G 1#0 0                     ",
"                                      G  .q#x+x+x+>@0 x+0 0 0 0 q#x+x+r#0 e#0+s#x+>@G G 0 0 t#                    ",
"                                      9#0+u#G G q#k#x+x+7#0 1#x+    x+x+7#0  .0+x+v#w#x#0 1#G                     ",
"                                      0+0+0+5#5#}#t+k#x+o#0 x+        x+o#7#0+G x+G x#y#0 0+D+                    ",
"                                      G G }#0+0+0+0+q#x+x+x+x+          x+x+z#0+0+G 0 7#d#9+0                     ",
"                                      G 0+G G c#0+9#n#x+x+x+x+          w#x+0 A#s#x+x+B#l#5#D+                    ",
"                                      G 0+0+j#x+x+x+x+x+G x+                0 0 x+B#l#0+G 0+G 9+                  ",
"                                      G u#0+0+0+G G >@x+G                   x+7#0+0+0+9+/#}#c#C+ .                ",
"                                      k#q#G 9#0+G G >@C#G                   y#d#G x+c#0+0+G u#D#_#                ",
"                                    {@x+x+x+x+G C#x+x+q#                        x+>@G 0+5#]@]@E#D#                ",
"                                1@x ]@9+n#x+G C#x+x+x+G                         3.x H.H.H. .}+W@D#                ",
"                              p+1@|@H.}+0+x+G x+x+x+x+0+                        1+p+]@<#H.]@m@}+D#                ",
"                            F#;+1+G#2@]@9+x+G x+o#0 x+                        0 0 0 A#N+H N+N+/.D+                ",
"                        0 0 ;+H#}+2@I#}+9+0+n#x+J#f#                          0 X+K#0 0 0 L#H 0                   ",
"                        1 0 b@}+M#2@}+N# .0+x+x+G k#                        0 Z+.@0 0 0 0 0 H 0                   ",
"                        O#- n@2@2@P#1+%# .0 0 0                             .@Q#h E 0 x x 0 R+                    ",
"                    R#1 - - }+H.}+1@1+S#T#0 0 0                             0 h U#0 =.h h 0 V#                    ",
"                    1 i - - G ]@]@|@b@d#y#0 0                               1 h 1 9 W#X#Y#1 0                     ",
"                  0 0 1 0 1 0 1#Z#0 0 0 0                                   0 ].1 _ Z o - 0                       ",
"                0 1 0 0 0 x 0 0 0                                           `#0 h o  $h i                         ",
"              .$+$@$0 0 .@3.#$E+0                                           o 0 - o o - 1                         ",
"              h - h Q#x 0 x 3.                                              O O 2 _ n h 0                         ",
"            o h h O h ].0 3.                                              0 u h $$%$g c                           ",
"          g - h h O &$0 *$                                                o 8 i %$$$-                             ",
"        o o - h =$i 0                                                   n _ # C 8 2 1                             ",
"    h _ -$o Z h ;$>$                                                  g 2 < ,$,$F o                               ",
"  o '$_ _ o o h 1                                                     _ _ _ )$!$2 h                               ",
"- ~$_ _ _ $$$$_ o                                                     2 < < b & 2 -                               ",
"O#{$]$-$_ _ _ ^$- o                                                   g n /$< < ($o                               ",
"9 9 _$o - o o o o :$                                                  j n <$& [$}$h                               ",
"    9 9 9 |$h Z o 2 o                                                 g n n o - 1$2$_                             ",
"          9 9 9 |$h Z o                                             n C w w C g g 3$o < 2                         ",
"              9 9 9 4$u u                                           g h - h i 1 1 h o - _                         ",
"                    9 9 1 o                                         c 9 5$h j j j j g 6$- - o                     ",
"                            0                                         9 9 9 9 9 9 9 9 9 9 9 0                     ",
"                                                                      9 9 9 9 9 9 9 9 9 7$                        "};
