/* XPM */
static char * C8_xpm[] = {
"43 92 441 2",
"  	c None",
". 	c #473C3B",
"+ 	c #65514E",
"@ 	c #846A66",
"# 	c #776260",
"$ 	c #846B66",
"% 	c #231C1B",
"& 	c #745D5A",
"* 	c #584442",
"= 	c #181211",
"- 	c #302726",
"; 	c #574847",
"> 	c #4A3837",
", 	c #866E68",
"' 	c #87716A",
") 	c #8B766F",
"! 	c #221615",
"~ 	c #3C2C2B",
"{ 	c #705A56",
"] 	c #866F6D",
"^ 	c #7E5F5A",
"/ 	c #1F1918",
"( 	c #302120",
"_ 	c #2B1210",
": 	c #000000",
"< 	c #50403E",
"[ 	c #180C0B",
"} 	c #584744",
"| 	c #3A2D2B",
"1 	c #0B0605",
"2 	c #110706",
"3 	c #160502",
"4 	c #1C1615",
"5 	c #64524E",
"6 	c #0C0000",
"7 	c #170000",
"8 	c #0D0606",
"9 	c #191212",
"0 	c #050000",
"a 	c #574643",
"b 	c #0D0201",
"c 	c #1D0000",
"d 	c #6E695F",
"e 	c #5A5958",
"f 	c #A4A091",
"g 	c #020000",
"h 	c #3B2524",
"i 	c #0F0A09",
"j 	c #210C0A",
"k 	c #23110D",
"l 	c #2C211F",
"m 	c #0E0301",
"n 	c #635F5F",
"o 	c #837A7B",
"p 	c #1C1B1B",
"q 	c #110402",
"r 	c #391310",
"s 	c #592B29",
"t 	c #6A3D3C",
"u 	c #6D3C38",
"v 	c #6E3D3B",
"w 	c #4C2722",
"x 	c #3D1C18",
"y 	c #1E1513",
"z 	c #3E0000",
"A 	c #270100",
"B 	c #190807",
"C 	c #0B0000",
"D 	c #351310",
"E 	c #310807",
"F 	c #331715",
"G 	c #100000",
"H 	c #7B0600",
"I 	c #170403",
"J 	c #070000",
"K 	c #190000",
"L 	c #4C0000",
"M 	c #8A0C00",
"N 	c #971A05",
"O 	c #762B1E",
"P 	c #2E0000",
"Q 	c #33130A",
"R 	c #010000",
"S 	c #7C5853",
"T 	c #512D27",
"U 	c #331C18",
"V 	c #281816",
"W 	c #080000",
"X 	c #0D0000",
"Y 	c #160807",
"Z 	c #0C0604",
"` 	c #422E2A",
" .	c #2E1814",
"..	c #271D1C",
"+.	c #9C8C8F",
"@.	c #862C1D",
"#.	c #3C1D1B",
"$.	c #0B0A0A",
"%.	c #100F0F",
"&.	c #170B09",
"*.	c #22120E",
"=.	c #21120F",
"-.	c #30211E",
";.	c #4F3B3A",
">.	c #74514E",
",.	c #100807",
"'.	c #3C3231",
").	c #716D6D",
"!.	c #846062",
"~.	c #201411",
"{.	c #372927",
"].	c #74524F",
"^.	c #4C3937",
"/.	c #4C3938",
"(.	c #4A3735",
"_.	c #59423E",
":.	c #4E4A4C",
"<.	c #AC645A",
"[.	c #201615",
"}.	c #2E2D2D",
"|.	c #383535",
"1.	c #3F3B3C",
"2.	c #634846",
"3.	c #4B3837",
"4.	c #462F2B",
"5.	c #5B5859",
"6.	c #715C5A",
"7.	c #050505",
"8.	c #2B2121",
"9.	c #3D393A",
"0.	c #363333",
"a.	c #040101",
"b.	c #513B39",
"c.	c #59423F",
"d.	c #484343",
"e.	c #2B2525",
"f.	c #645857",
"g.	c #64261D",
"h.	c #181717",
"i.	c #080808",
"j.	c #322728",
"k.	c #42231E",
"l.	c #333030",
"m.	c #343031",
"n.	c #1A1616",
"o.	c #1F1716",
"p.	c #654945",
"q.	c #72423C",
"r.	c #5F3732",
"s.	c #766F70",
"t.	c #71423C",
"u.	c #3E3B3C",
"v.	c #5C5858",
"w.	c #A08D8E",
"x.	c #615D5E",
"y.	c #330000",
"z.	c #1E0000",
"A.	c #290000",
"B.	c #2F2B2B",
"C.	c #423E3F",
"D.	c #28201F",
"E.	c #4B3634",
"F.	c #7A5652",
"G.	c #604C4C",
"H.	c #2C2A2A",
"I.	c #9F8B8D",
"J.	c #686162",
"K.	c #8C7F82",
"L.	c #514A4B",
"M.	c #2C1210",
"N.	c #6B5D5B",
"O.	c #2B2120",
"P.	c #4B3938",
"Q.	c #7A5752",
"R.	c #513A37",
"S.	c #6A6465",
"T.	c #220908",
"U.	c #897D7F",
"V.	c #585253",
"W.	c #441212",
"X.	c #726A6B",
"Y.	c #645F60",
"Z.	c #766D6E",
"`.	c #584748",
" +	c #391617",
".+	c #6C5F61",
"++	c #B09A9B",
"@+	c #4F4C4C",
"#+	c #222020",
"$+	c #332928",
"%+	c #4D3A38",
"&+	c #644846",
"*+	c #6E534E",
"=+	c #030101",
"-+	c #120F0D",
";+	c #434040",
">+	c #676263",
",+	c #746C6D",
"'+	c #5A5556",
")+	c #470000",
"!+	c #766971",
"~+	c #615B5D",
"{+	c #696264",
"]+	c #5F5859",
"^+	c #342A2B",
"/+	c #908485",
"(+	c #211A1A",
"_+	c #221312",
":+	c #56403E",
"<+	c #583F3C",
"[+	c #2D2120",
"}+	c #1F1717",
"|+	c #675C5E",
"1+	c #7C7274",
"2+	c #5F5050",
"3+	c #686263",
"4+	c #5F5A5B",
"5+	c #715858",
"6+	c #646061",
"7+	c #6B6267",
"8+	c #2E2C2D",
"9+	c #372625",
"0+	c #483736",
"a+	c #473635",
"b+	c #3C2724",
"c+	c #120D0E",
"d+	c #6E6162",
"e+	c #5A5657",
"f+	c #635E5F",
"g+	c #5D4E4F",
"h+	c #6B0000",
"i+	c #726869",
"j+	c #696364",
"k+	c #656061",
"l+	c #333131",
"m+	c #0E0C0A",
"n+	c #573F3D",
"o+	c #583E3C",
"p+	c #3B2B2A",
"q+	c #110D0E",
"r+	c #240000",
"s+	c #685B5C",
"t+	c #5C595A",
"u+	c #545051",
"v+	c #514E4F",
"w+	c #454142",
"x+	c #444142",
"y+	c #141313",
"z+	c #2F2C2C",
"A+	c #272525",
"B+	c #4E4140",
"C+	c #75544F",
"D+	c #564645",
"E+	c #463534",
"F+	c #060000",
"G+	c #514D4D",
"H+	c #5A5758",
"I+	c #555253",
"J+	c #4E4A4B",
"K+	c #5F5C5D",
"L+	c #1E1D1D",
"M+	c #464242",
"N+	c #504E4E",
"O+	c #4E4B4C",
"P+	c #0C0A09",
"Q+	c #3B3839",
"R+	c #493735",
"S+	c #755651",
"T+	c #504343",
"U+	c #393131",
"V+	c #4A3734",
"W+	c #666263",
"X+	c #4D4A4B",
"Y+	c #565354",
"Z+	c #3B393A",
"`+	c #111010",
" @	c #706869",
".@	c #323031",
"+@	c #535051",
"@@	c #6E6869",
"#@	c #231B1A",
"$@	c #4D3A39",
"%@	c #191312",
"&@	c #221D1D",
"*@	c #403D3D",
"=@	c #595657",
"-@	c #4A4748",
";@	c #504D4D",
">@	c #2A2829",
",@	c #5D5A5B",
"'@	c #131313",
")@	c #070303",
"!@	c #2D2221",
"~@	c #090808",
"{@	c #2D2A2B",
"]@	c #605C5D",
"^@	c #585556",
"/@	c #191919",
"(@	c #372C2D",
"_@	c #0B0707",
":@	c #110E0E",
"<@	c #2C2222",
"[@	c #585555",
"}@	c #4A4647",
"|@	c #242323",
"1@	c #0F0E0F",
"2@	c #030000",
"3@	c #281211",
"4@	c #050405",
"5@	c #363334",
"6@	c #363434",
"7@	c #2C2A2B",
"8@	c #625D5E",
"9@	c #1C1C1C",
"0@	c #2B2929",
"a@	c #232222",
"b@	c #090101",
"c@	c #0F0000",
"d@	c #171212",
"e@	c #100404",
"f@	c #271A19",
"g@	c #040000",
"h@	c #050404",
"i@	c #201312",
"j@	c #120B0B",
"k@	c #120000",
"l@	c #130E0D",
"m@	c #070403",
"n@	c #070404",
"o@	c #282120",
"p@	c #382E2D",
"q@	c #030202",
"r@	c #373333",
"s@	c #201A19",
"t@	c #393738",
"u@	c #42211C",
"v@	c #2D2B2C",
"w@	c #261A19",
"x@	c #433F40",
"y@	c #321713",
"z@	c #42201B",
"A@	c #554645",
"B@	c #6D6667",
"C@	c #726B6C",
"D@	c #130909",
"E@	c #4C4949",
"F@	c #433C3B",
"G@	c #8A7370",
"H@	c #613631",
"I@	c #5C4E4F",
"J@	c #736D6E",
"K@	c #7A7172",
"L@	c #5E5B5C",
"M@	c #423A39",
"N@	c #837879",
"O@	c #7B6966",
"P@	c #867B7C",
"Q@	c #7A7273",
"R@	c #7E7475",
"S@	c #7F7576",
"T@	c #625C5D",
"U@	c #140E0C",
"V@	c #343232",
"W@	c #161515",
"X@	c #595354",
"Y@	c #210000",
"Z@	c #2B0000",
"`@	c #3C3939",
" #	c #3B3434",
".#	c #1A0000",
"+#	c #585455",
"@#	c #231F1F",
"##	c #151111",
"$#	c #2A2727",
"%#	c #544344",
"&#	c #1A1717",
"*#	c #4B4748",
"=#	c #020202",
"-#	c #181414",
";#	c #1C1818",
">#	c #2E2B2B",
",#	c #463838",
"'#	c #2E2525",
")#	c #474344",
"!#	c #454242",
"~#	c #4A4646",
"{#	c #594F4D",
"]#	c #171516",
"^#	c #464343",
"/#	c #282424",
"(#	c #7C6767",
"_#	c #191717",
":#	c #413D3D",
"<#	c #535050",
"[#	c #A59293",
"}#	c #4B4546",
"|#	c #C7A7AA",
"1#	c #302B2B",
"2#	c #7B7374",
"3#	c #938687",
"4#	c #1F1B1B",
"5#	c #8B8081",
"6#	c #998A8D",
"7#	c #3C3A3B",
"8#	c #AC9798",
"9#	c #A99597",
"0#	c #4F3F40",
"a#	c #3A3636",
"b#	c #8B7E81",
"c#	c #7B7172",
"d#	c #2F1E1C",
"e#	c #6D6768",
"f#	c #221E1F",
"g#	c #555151",
"h#	c #221F1E",
"i#	c #413E3E",
"j#	c #282626",
"k#	c #343132",
"l#	c #040404",
"m#	c #0D0604",
"n#	c #120B09",
"o#	c #585050",
"p#	c #060404",
"q#	c #1C1312",
"r#	c #090504",
"s#	c #020101",
"t#	c #100C0B",
"u#	c #0B0201",
"v#	c #27201F",
"w#	c #100D0D",
"x#	c #150F0E",
"y#	c #2D1F1E",
"z#	c #271E1D",
"A#	c #0C0201",
"B#	c #2B1D1C",
"C#	c #050100",
"D#	c #4E3C3A",
"E#	c #655553",
"F#	c #1B1111",
"G#	c #241716",
"H#	c #86706B",
"                        . + @ # $                                                     ",
"                      % . & * @ & @ $                                                 ",
"                    = - ; > @ , , ' ' )                                               ",
"                  = = . ! ~ { @ ) ] ] , ^                                             ",
"                  = = / % & ( @ , * _ @ : <                                           ",
"                  = = = = > [ @ } % ( @ | :                                           ",
"                  = 1 = 2 ~ 3 : 4 % + 5 % %                                           ",
"                  : : * ! ~ 6 7 8 9 0 % % a                                           ",
"                    b 3 : ( ( c c 0 d e f e                                           ",
"                    1 g ~ b ~ h c 0 : : : 0                                           ",
"                    = = i : : : c 0 : : : ! j j                                       ",
"                    k l = : m 3 j 0 j _ _ > > & @ * n o p : q r s s t u v w w x x 3   ",
"                      y z A _ _ B C A D E F j _ ( _ r A 6 : : k : : : : : 6 _ j : : * ",
"                        G H j I C J K A A 3 L M N O P Q R : : : : : : S T R U V W : ( ",
"                        X : Y Y : : : : : : : : : : y : : : : : : : : Z k k ` U  .k k ",
"                        : : : : : : : : : ..* * o +.@.#.#.F j $.%.: &.*.y y y =.k -.  ",
"                    ;.>.: : : : : : : ,.b ~ & '.).!.H A + , & p _ : y ~.k y y y y {.  ",
"              ].^./.(._.$.: - : : : : [ ! ~ j n :.T <.( $ [.g }.$.1 =.y |.1.          ",
"            {.2.3.4.U 5.: R 6 ! g 6 ( @ * 6 g n g 6.k : [ g : 7.%.= U 8.9.0.          ",
"            a.b.c.G d.5.b g [ [ + j ( + + ~ e.).: f.U g.6 : : h.i.j.k.l.m.n.          ",
"          : o.p.q.r.s.t.: : j : : W - ~ ( j u.v.w.x.y.z.A.: B.P C.l.k l.n.            ",
"          D.E.F.y : s.G.: : 6 6 : : : n H.0 I.J.K.x.z.L.z.M.N.R C.: : l.              ",
"        O.P.Q.R.y : S.G.: : W 3 3 : T.U.V.W.X.Y.Z.`. +.+z.z.++@+#+: : l.              ",
"      $+%+&+*+1 =+k -+C.G : : : : ;+>+,+'+)+!+~+{+]+^+C : : /+(+: : :                 ",
"    _+:+/.<+[+}+k Z : C.: |+P P 1+x.2+3+4+5+6+7+x.5.8+: : : /+: : : :                 ",
"    9+/.:+0+a+b+y y -+j.c+5+P z.d+5.e+f+g+h+i+>+j+k+l+: R R : : : : m+                ",
"  b n+o+p+> /.k k     q+j.G r+P s+t+x.u+v+k.X.3+k+w+x.x+y+: : : : z+5.                ",
"A+B+C+D+0+E+_.          l.F+G G G+t+H+I+J+K+L+9.M+x.N+O+f+P+: R : j.-+                ",
"Q+R+S+T+U+V+{.          l.8.: R j.W+X+0.Y+9.Z+l.`+ @.@+@@@l.: : : j.:                 ",
": #@$@%@&@              : n.: : : : : @+*@=@Y+-@;@5.>@,@'@z+G z+: R                   ",
": )@!@: :               : : : : : : ~@n.: {@5.x+Y+,@]@^@/@: (@j.: :                   ",
": : _@: :               : : : : : l.n.m.: : :@<@l.3+[@5.}@|@1@-+: :                   ",
": : 2@3@:               : : : : : : : l.: : : : : : 8.4@5@K+Z+6@: :                   ",
": : : q                 : : : : : : C.7.: : : : : : : : : 7@8@9@:                     ",
": : : :                 : : : : : : 7.C.: R : R R : : : : n.0@: : k                   ",
": : : : R                 : G : : : : : : : : y : : : : : : : a@: k                   ",
"  : : : : 0                 : : : : : : : : : : : : : : : : : $.: R                   ",
"    : : m 0 A               :     : : : : : : 1 : R b@b : : : : g : !                 ",
"    : : j : C : c@Q                 : g : : h.: : g g : : : : : : b@g                 ",
"      : R m : : :   :               : : : g : d@e@[ f@( [.: : g : ! ~                 ",
"      : : 3 g@:                     h@= h@: : 1 [ i@( ( j@g : : : ! *                 ",
"      : : 3 : k@                  b = g l@% : m@- ( f@! g : : : : ! . g               ",
"      : : g : : Y             h.: n@: o@g : g : b : '.% b 6 d@: : - p@:   a@          ",
"      : : : : % q@3           }.: r@[ [ b : b k k U V+_.k R R U U - s@: t@:.          ",
"        : : : q@%           0.C.: k.k.R u@k.U P S.S.S.5.S.@+l.S.k.R : v@:.:.          ",
"          : :   : w@        x@@+8.V+V+t.k.y@z@z@A@S.S.@+B@s.s.S.s.: : S.C@5.          ",
"          D@:     :         E@F@{.S.r.S G@z@H@T T z@I@S.J@s.s.S.s.: : K@S.L@          ",
"            :               d.{.M@: -+s.N@N@N@N@N@N@O@r./+N@N@5.s.z L s.C@S.          ",
"                            C.}@S.R R C.j+N@/+P@Q@s.S.R@/+N@N@5.s.z.z.S@C@S.          ",
"                            C.T@S.U@R : V@N@/+/+d.-+W@X@N@s.N@d.S.Y@Z@N@S.S.          ",
"                            l.l.l.9.C.: : C.C.C.C.C.`@`+ #5.k+s.N@P .#+#S.s.@+        ",
"                                @#l.l.: : n.: ##$#|.w+@+5.%#5.C.C.R R S.S.S.S.        ",
"                                  l.&#: : : : : n.n.n.l.: S.5.C.*#: R S.S.S.L@C.      ",
"                                  : : : =#n.n.n.n.n.m.C.*#j.G.: n.: : l.l.l.5.C.      ",
"                                  : : =#n.: -#n.n.l.9.C.C.-+5.l.l.P+: @+5.S.5.@+      ",
"                                  : : ####: =#n.: ;#>#l.l.l.,#l.l.@#: '#5.Y+)#0.      ",
"                                    : n.7.: : =#n.n.n.@#l.!#j.: `+l.P+: l.C.C.C.      ",
"                                      n.: : : : =###m.*#5.s.G : : @+~#G {#S.S.S.      ",
"                                      ##: : : : : ]#C.C.5.s.U : : ^#@+R 5.S.L@)#      ",
"                                      : : :@0@: #+C./#l.5./+(#: _#n.l.:#5.5.5.5.      ",
"                                      ##: l.C.-+<#5.s.s.+.[#/+n.n.z+l.l.@+S.5.)#      ",
"                                        : l.9.8.}#5.s.S@|#|#+.n.@#>#l.l.@+5.s.B@      ",
"                                          n.l.1#8.S.s.N@s./+++-+l.n.l.:#@+5.x.s.      ",
"                                          l.C.l.: j.C.C.S./+++8.@#>#l.,#s.2#3#+.      ",
"                                          4#l.l.: R C.*#s.+.++l.: l.9.k s.5#6#+.      ",
"                                            l.l.7#: 5.S.s.@@|#C.n.>#9.k s.S@+.8#/+    ",
"                                          C.C.N@S.j.d.C.s.s.+.@+n.;#>#j.@@s.+.9#/+    ",
"                                          5.5.s.5.,#0#]@k+/+/+C.n.n.n.a#*#N@+.b#S.    ",
"                                          c#5.C.N@d#,#k+]@/+e#l.@#: ##f#C.5.e#S.g#    ",
"                                      5+5.S.S.s.(@: '#j.U : h#9.l.: : |.C.i#5.-+      ",
"                                      U l.N@N@s.: : : : R : C.9.j#: : 0@/#|.k#:       ",
"                                    G : (+s.5.(+: : : : -+: j.j#l#n.l.: :@k#7.        ",
"                                  : y : : C.8.: : : : : l.m#k : : : : : : : ##        ",
"                                  m@k : : s.d.: : : : : d.k n#: : : : : : :           ",
"                                  k k y y o#-+: : : : : -+: : : : : : : :             ",
"                                  : 1 : p#q#y U@: :       : : : : : : :               ",
"                                  : : : : p#y y : q#    : : : : : : :                 ",
"                                  1 r#R : : y y y       : : : : : : :                 ",
"                                s#1 1 r#: : y y         : : : : :                     ",
"                                1 1 1 r#: : y           : : : m@1                     ",
"                              g = : 1 s#: :             : = : =                       ",
"                            : b % 1 1 : :             g : : m@g                       ",
"                            : g - s#1 s#:             g g t#b@g                       ",
"                          % : g d@: R 1               g % g g 2@u#                    ",
"                        % % '.R : : : :               : R R g b g@                    ",
"                        % v#- w#: : :                 1 g : [ : :                     ",
"                        1 % [ p@. t#: :                 g g b@b g u#                  ",
"                        x#1 g . . f@y#z#%               : R g R : 2@A#                ",
"                        : : - '.( B#! ( .                 : C#g g g g                 ",
"                      -+1 1 = g ! 3 ~ D#* > E#              : F#g g :                 ",
"                        1 : : : : ,.G#~ ~ > ( * ~             :                       ",
"                        1 r#: : : : ! * 3 ! H#[ ! >                                   "};
