/* XPM */
static char * D3_xpm[] = {
"44 93 513 2",
"  	c None",
". 	c #745D5A",
"+ 	c #846A66",
"@ 	c #846B66",
"# 	c #6F5956",
"$ 	c #4F413F",
"% 	c #7B625E",
"& 	c #624D49",
"* 	c #513E3C",
"= 	c #4E3C3A",
"- 	c #866E68",
"; 	c #867069",
"> 	c #836963",
", 	c #856B65",
"' 	c #856B67",
") 	c #7E615D",
"! 	c #5C4846",
"~ 	c #402F2D",
"{ 	c #4C3938",
"] 	c #302726",
"^ 	c #7E5F5A",
"/ 	c #87716A",
"( 	c #7F615C",
"_ 	c #836E69",
": 	c #7C6662",
"< 	c #453432",
"[ 	c #423230",
"} 	c #473735",
"| 	c #65514E",
"1 	c #331715",
"2 	c #684E4A",
"3 	c #81645E",
"4 	c #89736D",
"5 	c #856C67",
"6 	c #4B3836",
"7 	c #3B2B2A",
"8 	c #544442",
"9 	c #302120",
"0 	c #311E1C",
"a 	c #826560",
"b 	c #856C66",
"c 	c #8A7570",
"d 	c #8A756F",
"e 	c #836D69",
"f 	c #483634",
"g 	c #473635",
"h 	c #4C3D3C",
"i 	c #030000",
"j 	c #250000",
"k 	c #8B766F",
"l 	c #8A766F",
"m 	c #93847C",
"n 	c #806964",
"o 	c #856C65",
"p 	c #805F5B",
"q 	c #170704",
"r 	c #2E2120",
"s 	c #473938",
"t 	c #221B1A",
"u 	c #000000",
"v 	c #81635E",
"w 	c #836962",
"x 	c #846C64",
"y 	c #78534E",
"z 	c #76625C",
"A 	c #764D4A",
"B 	c #2F201F",
"C 	c #0B0707",
"D 	c #020101",
"E 	c #0A0605",
"F 	c #94948F",
"G 	c #A1996B",
"H 	c #050000",
"I 	c #3C1D1B",
"J 	c #754F4A",
"K 	c #826762",
"L 	c #221615",
"M 	c #7F6A65",
"N 	c #372827",
"O 	c #0B0605",
"P 	c #080000",
"Q 	c #2B1210",
"R 	c #210C0A",
"S 	c #160502",
"T 	c #4D3C3A",
"U 	c #3E2D2C",
"V 	c #3C2B29",
"W 	c #4F403F",
"X 	c #160807",
"Y 	c #3C2C2B",
"Z 	c #4A3837",
"` 	c #1C1313",
" .	c #4D3B38",
"..	c #4C3B39",
"+.	c #453332",
"@.	c #0D0201",
"#.	c #91918C",
"$.	c #595954",
"%.	c #402F2E",
"&.	c #443231",
"*.	c #2E1F1E",
"=.	c #1F1413",
"-.	c #171110",
";.	c #161010",
">.	c #181211",
",.	c #1D1917",
"'.	c #010000",
").	c #040000",
"!.	c #3D2C2B",
"~.	c #252B2E",
"{.	c #2D1F1E",
"].	c #40302F",
"^.	c #453433",
"/.	c #312725",
"(.	c #443837",
"_.	c #392927",
":.	c #564340",
"<.	c #3B3839",
"[.	c #564240",
"}.	c #463634",
"|.	c #3A2C2B",
"1.	c #170C0B",
"2.	c #3C3231",
"3.	c #372826",
"4.	c #4A3D3A",
"5.	c #453B37",
"6.	c #372D2D",
"7.	c #2F2626",
"8.	c #392A29",
"9.	c #634F4C",
"0.	c #705E5D",
"a.	c #211514",
"b.	c #585352",
"c.	c #464344",
"d.	c #292120",
"e.	c #2B2221",
"f.	c #3D3332",
"g.	c #483635",
"h.	c #4E4A4C",
"i.	c #221614",
"j.	c #7D6661",
"k.	c #644E4C",
"l.	c #2B2525",
"m.	c #544441",
"n.	c #423936",
"o.	c #463935",
"p.	c #483736",
"q.	c #535052",
"r.	c #232222",
"s.	c #433430",
"t.	c #86706B",
"u.	c #362725",
"v.	c #181717",
"w.	c #735B5B",
"x.	c #716D6D",
"y.	c #422622",
"z.	c #593C35",
"A.	c #4A2B27",
"B.	c #64514D",
"C.	c #383130",
"D.	c #443332",
"E.	c #382522",
"F.	c #6B4841",
"G.	c #714B46",
"H.	c #170603",
"I.	c #61514C",
"J.	c #8B7770",
"K.	c #190805",
"L.	c #060100",
"M.	c #3E0000",
"N.	c #B29A9B",
"O.	c #AD9899",
"P.	c #675553",
"Q.	c #533F3D",
"R.	c #2A1210",
"S.	c #020000",
"T.	c #452E29",
"U.	c #724D47",
"V.	c #59403D",
"W.	c #77605D",
"X.	c #816763",
"Y.	c #786760",
"Z.	c #5A4944",
"`.	c #120402",
" +	c #180C0B",
".+	c #854D47",
"++	c #A39192",
"@+	c #9C8B8D",
"#+	c #2E0000",
"$+	c #4C0000",
"%+	c #090403",
"&+	c #0E0301",
"*+	c #0B0A0A",
"=+	c #090101",
"-+	c #180E0E",
";+	c #493A37",
">+	c #816F69",
",+	c #3C2D2A",
"'+	c #130909",
")+	c #908485",
"!+	c #797172",
"~+	c #676263",
"{+	c #6A6465",
"]+	c #372927",
"^+	c #0C0000",
"/+	c #8E7C74",
"(+	c #170807",
"_+	c #221513",
":+	c #7E6962",
"<+	c #160E0E",
"[+	c #897273",
"}+	c #918385",
"|+	c #837879",
"1+	c #635454",
"2+	c #8B7B7B",
"3+	c #8F8484",
"4+	c #584442",
"5+	c #46322E",
"6+	c #7B6862",
"7+	c #87746D",
"8+	c #765F5C",
"9+	c #271D1C",
"0+	c #928283",
"a+	c #8B7F80",
"b+	c #776363",
"c+	c #5B4E4E",
"d+	c #8E8384",
"e+	c #8A7F80",
"f+	c #4A3937",
"g+	c #786560",
"h+	c #88736D",
"i+	c #8B7871",
"j+	c #8B766E",
"k+	c #1E1717",
"l+	c #918384",
"m+	c #968788",
"n+	c #846062",
"o+	c #600E0F",
"p+	c #7B7373",
"q+	c #7A7172",
"r+	c #1E0000",
"s+	c #140000",
"t+	c #23110D",
"u+	c #201615",
"v+	c #8C7872",
"w+	c #928179",
"x+	c #89756F",
"y+	c #725D5A",
"z+	c #53403E",
"A+	c #7C7374",
"B+	c #8A7E7F",
"C+	c #5C0303",
"D+	c #8E8082",
"E+	c #6B6364",
"F+	c #755F5F",
"G+	c #331C18",
"H+	c #2C1210",
"I+	c #695752",
"J+	c #554D4D",
"K+	c #97888B",
"L+	c #7E7576",
"M+	c #756D6E",
"N+	c #887D7E",
"O+	c #614C4A",
"P+	c #512D27",
"Q+	c #7F6C66",
"R+	c #392928",
"S+	c #656061",
"T+	c #544344",
"U+	c #100000",
"V+	c #604C4C",
"W+	c #5B5859",
"X+	c #4A4546",
"Y+	c #726A6B",
"Z+	c #817677",
"`+	c #897B7A",
" @	c #997E7B",
".@	c #7C5853",
"+@	c #4C2923",
"@@	c #42201B",
"#@	c #3D1F1A",
"$@	c #271917",
"%@	c #554341",
"&@	c #8D7A73",
"*@	c #7E6C67",
"=@	c #574543",
"-@	c #534342",
";@	c #726B6C",
">@	c #322728",
",@	c #222020",
"'@	c #333030",
")@	c #5E5859",
"!@	c #6C6263",
"~@	c #807576",
"{@	c #766D6E",
"]@	c #381D19",
"^@	c #423737",
"/@	c #1A1819",
"(@	c #484343",
"_@	c #1C1B1B",
":@	c #482F2B",
"<@	c #73605C",
"[@	c #876F6A",
"}@	c #382827",
"|@	c #4C494A",
"1@	c #1E1513",
"2@	c #111010",
"3@	c #4D4747",
"4@	c #7D7273",
"5@	c #998A8D",
"6@	c #92696A",
"7@	c #745859",
"8@	c #A58C8E",
"9@	c #5B0000",
"0@	c #120F0D",
"a@	c #4F3330",
"b@	c #88726B",
"c@	c #67514E",
"d@	c #0B0000",
"e@	c #120000",
"f@	c #140402",
"g@	c #171616",
"h@	c #1C1616",
"i@	c #3E2D2E",
"j@	c #908182",
"k@	c #918283",
"l@	c #8B8081",
"m@	c #746667",
"n@	c #7A7273",
"o@	c #110E0E",
"p@	c #4C2722",
"q@	c #594D4C",
"r@	c #030202",
"s@	c #574847",
"t@	c #6D6667",
"u@	c #756E6F",
"v@	c #7D7475",
"w@	c #777071",
"x@	c #756C6D",
"y@	c #6C6667",
"z@	c #5D5859",
"A@	c #6B6362",
"B@	c #635F5F",
"C@	c #353334",
"D@	c #262525",
"E@	c #421B17",
"F@	c #270100",
"G@	c #1D0000",
"H@	c #0D0000",
"I@	c #464242",
"J@	c #6B6566",
"K@	c #080707",
"L@	c #696364",
"M@	c #504C4E",
"N@	c #655E5E",
"O@	c #837A7B",
"P@	c #1E0E0D",
"Q@	c #3C1110",
"R@	c #6A3D3C",
"S@	c #291A1B",
"T@	c #574647",
"U@	c #4F4C4C",
"V@	c #1A1616",
"W@	c #433939",
"X@	c #090000",
"Y@	c #070000",
"Z@	c #6E6869",
"`@	c #231C1B",
" #	c #1E0C0B",
".#	c #200505",
"+#	c #3C3A3B",
"@#	c #2F2D2E",
"##	c #766F70",
"$#	c #120B0B",
"%#	c #271A19",
"&#	c #0C0100",
"*#	c #41302F",
"=#	c #170E0E",
"-#	c #574442",
";#	c #433533",
">#	c #473C3B",
",#	c #2F2322",
"'#	c #2C2424",
")#	c #171212",
"!#	c #1E1716",
"~#	c #444243",
"{#	c #211C1C",
"]#	c #595557",
"^#	c #0A0000",
"/#	c #756D6F",
"(#	c #9C8C8F",
"_#	c #310807",
":#	c #775451",
"<#	c #71423C",
"[#	c #C7A7AA",
"}#	c #E7B5B8",
"|#	c #715858",
"1#	c #1B0000",
"2#	c #361714",
"3#	c #938587",
"4#	c #8D8182",
"5#	c #B09A9B",
"6#	c #211A1A",
"7#	c #877C7D",
"8#	c #3D1C18",
"9#	c #908384",
"0#	c #867B7C",
"a#	c #2B2121",
"b#	c #4C4949",
"c#	c #423E3F",
"d#	c #2B2929",
"e#	c #4B4748",
"f#	c #615C5C",
"g#	c #454142",
"h#	c #282424",
"i#	c #100301",
"j#	c #231F1F",
"k#	c #090808",
"l#	c #1F1C1D",
"m#	c #524F50",
"n#	c #575455",
"o#	c #413E3E",
"p#	c #171516",
"q#	c #302C2C",
"r#	c #151111",
"s#	c #1C1818",
"t#	c #191717",
"u#	c #020202",
"v#	c #171515",
"w#	c #2A2727",
"x#	c #221E1F",
"y#	c #3F3B3C",
"z#	c #363333",
"A#	c #0C0A09",
"B#	c #1F1B1B",
"C#	c #312E2E",
"D#	c #605C5D",
"E#	c #463838",
"F#	c #807677",
"G#	c #1A1717",
"H#	c #312D2E",
"I#	c #3A3636",
"J#	c #2E2B2B",
"K#	c #A49192",
"L#	c #3D393A",
"M#	c #6D6768",
"N#	c #4E494A",
"O#	c #2F2C2C",
"P#	c #4A4647",
"Q#	c #625C5D",
"R#	c #383535",
"S#	c #2F2A2B",
"T#	c #5F5757",
"U#	c #544F50",
"V#	c #6F6869",
"W#	c #170B09",
"X#	c #7F7576",
"Y#	c #646061",
"Z#	c #716A6B",
"`#	c #8B7E81",
" $	c #A39193",
".$	c #8C7F81",
"+$	c #98898C",
"@$	c #786F70",
"#$	c #948788",
"$$	c #52221B",
"%$	c #181414",
"&$	c #272525",
"*$	c #343132",
"=$	c #131212",
"-$	c #535050",
";$	c #0F0302",
">$	c #050302",
",$	c #343031",
"'$	c #585050",
")$	c #150909",
"!$	c #050505",
"~$	c #585556",
"{$	c #1A0E0D",
"]$	c #161212",
"^$	c #2E2D2D",
"/$	c #140908",
"($	c #201413",
"_$	c #423635",
":$	c #352726",
"<$	c #382C2B",
"[$	c #130301",
"}$	c #4A3B3A",
"|$	c #060000",
"1$	c #070403",
"2$	c #4E403F",
"3$	c #806B69",
"4$	c #372C2B",
"5$	c #241817",
"6$	c #2B1E1D",
"7$	c #2A1E1D",
"8$	c #443938",
"9$	c #100C0B",
"0$	c #0C0201",
"a$	c #453A39",
"b$	c #0F0403",
"c$	c #655553",
"d$	c #332928",
"e$	c #0B0201",
"f$	c #675655",
"g$	c #160A09",
"h$	c #0E0302",
"i$	c #473534",
"j$	c #3F2F2E",
"k$	c #281A19",
"l$	c #090504",
"m$	c #332827",
"n$	c #0C0302",
"                                                . + @ # $                               ",
"                                            @ + . + % & * =                             ",
"                                        . - ; @ > , ' ) ! ~ { ]                         ",
"                                      ^ / @ / @ ( _ : @ + < [ } ]                       ",
"                                      | 1 2 @ + ^ 3 4 5 @ 6 7 8 ]                       ",
"                                      9 0 1 + a b c d e + f g h i                       ",
"                                    9 9 j ^ k l m n o p q r s t u                       ",
"                                    9 v 9 | + w x y z A 9 B C D E                       ",
"                                    F G H I J ^ K L M u 9 N O O O                       ",
"                                    u P u I 9 Q R S T U V W O                           ",
"                                    u u u X 9 Y Z `  ...+.@.O                           ",
"                                    #.$.G u 9 Y %.&.Y *.=.-.;.>.                        ",
"                                  k ,.u '.).Z 6 !.~.Z Z Y {.].^.@.                      ",
"                                  ' k k /.(.Y _.:.<.Z Z ] [.}.|.1.2.                    ",
"                                      3.4.5.6.7.8.9.R . 0.9 a.b.c.2.@.                  ",
"                                        d.e.f.g.Z | h.@ ^ + k i.j.k.l.                  ",
"                                        m.n.o.p.R q.r.J ^ @ / S s.t.u.v.                ",
"                            w.x.h.    y.z.A.B.C.D.E.F.J G.. . H H.I.J.K.L.              ",
"                          M.N.O.u   P.Q.R.Y L L S.T.U.V.W.X.+ S S [ Y.Z.`.S. +          ",
"                          .+++@+#+$+. 0 %+&+*+Y =+S.| Y + @ t.Y H -+;+>+,+u '+          ",
"                          )+!+~+{+]+>.u l.u | u u u ^+9 + / /+~.(+H _+:+I.<+D '+        ",
"                              [+}+|+1+2+3+'.u 1 4+Z =+u @.u u u S.| 5+6+7+8+9+u u       ",
"                              0+a+b+c+d+e+L <+u u u u u u u u u P f+g+h+i+j+4+k+u       ",
"                              l+m+n+o+p+q+l. +^+r+s+u u '.t+'.u u u+J.v+w+x+y+z+Z ]     ",
"                              A+B+M.C+D+|+E+F+G+H+r+u '.u u '.'.u u S I+J./+J.Z Z  +    ",
"                            n+J+K+#+$+a+L+M+N+O+P+r+#+'.'.'.t+G+G+L 4+Z Q+/+i+Z R+L     ",
"                            {+S+T+U+V+W+X+Y+Z+`+ @.@+@@@u u '.G+#@ +$@4+%@&@*@=@9 -@    ",
"                            {+;@>@u *+,@'@)@!@~@{@V+@@]@^@/@u u u (@_@ +I :@<@[@}@9 9   ",
"                            |@{+1@u '@*+2@'@3@{@4@|+5@6@7@8@9@#+u 0@u u R R a@b@Y H c@9 ",
"        d@e@d@f@S           g@u h@'.u '.#+U+i@|+j@k@l@n+m@n@u u u u u o@  p@q@I+r@u | Z ",
"      R Q u ).d@H u ^+S s@s@u *+u '.H U+U+'.U+t@u@v@w@t+x@y@u u u u u       z@A@B@C@v.D@",
"  Q Q | Y u X I E@F@F@G@R i u <.u '.U+H@i u 0@I@J@!+!+K@L@W+u u u u u       M@N@O@v.v.v.",
"Q P@Q@R@E@H (+u H R d@H u u H u u u M.u u U+r+U+'.'@S@T@U@1@V@u u         |+W@' ] x.u u ",
"u X@H u Y@H H Q 1 F@u       u u u H u u u u u u u o@Z@W+h@u u u           |+ +`@2.H u u ",
"I H  #.#u u S R d@          u u u u u u u u u u u u +#@#u u u u           ##9 $#Y H S.O ",
"  R   R S                   u u u u u u u u u u u u u u u u u               %#9 &+u X@  ",
"      Q                     u   u u u u u u P S &#i @.u u t+                d@ +u u u   ",
"                            u     u u u u u L S f@^+@.u u u                   @.u u u   ",
"                          u       u S.u =+Z | Y *#9 L u+u O                   ^+P F@u   ",
"                                  u =#S. ++ . Y 9 8.Y s@u u                    +F@F@    ",
"                                  S.Z ^+| - / Y Y -#Z s@u                     9 Q R     ",
"                                S.;# +9 | Y ^.| . . . | >#                    L i u     ",
"                                ,#u  +L + = Y 9 9 9 9 9  +'#u                +P u u     ",
"                                u <+^+Y Z u '.@.>.u x.)#!# +l.              L u u u     ",
"                              ~#u d@H {#B@&+u u d@W@O@B@]#B@##1@          u ] u X R     ",
"                            ~#h.u ^#H /#]#]#r+r+r+)+##Z@|+)+##(@          Q L Q I d@    ",
"                            ##~#u H S.]#x@)+U+U+r+(###n@|+)+{+(@          | 9 G@_#d@    ",
"                              |+:#<#.@[#}#|#U+1#2#(#|+|+3#(#|+(@        F@| e@H R u     ",
"                              4#|+(#5#{+6#u '.@@7#4#)+)+)+)+|+(@      8#S 8#R S &+u     ",
"                            u )+5#[#W+(@u r+#+(#9#|+)+0#|+##{+a#    U+F@H I H ).'.u     ",
"                        a#U@U@U@U@U@a#U+U+G+)+(#(#3#|+n@U@b#c#u   M.u u u 1 H u H u     ",
"                        '@'@'@V@d#u u c#e#{+{+{+f#U@'@c#U@g#h#          S F@i#H u u     ",
"                      '@j#V@k#u u u k#l#c#m#n#U@U@o#'@c#'@'@            H Q &+u u u     ",
"                    e#c#V@V@V@V@u o@o@k#p#c#U@g#'@'@'@'@j#            S u u u u u u     ",
"                  '@c#q#V@V@k#u ,@'@V@u u l#c#h#V@r#2@'@              S u u u u   u     ",
"                  V@V@V@V@o@u o@'@s#V@t#u u c#V@r#u#v#'@              S.  u   u   u     ",
"                  V@w#,@u u u o@x#c#V@V@k#u '@u u u '@c#                  u   u   u     ",
"                  d#u u u u u u y#z#V@V@V@V@,@u u u '@'@                                ",
"                U@u u o@0@A#u u '@'@V@V@V@o@u o@V@V@B#C#                                ",
"                ##t@D#E#u U@u u '@c#x#V@'@u u '@s#V@V@V@                                ",
"              5#F###{+>@(@U@,@k#G#H#I#V@V@V@V@V@'@V@J#'@                                ",
"              )+|+{+I@u W+W+c#o@u V@c#V@u V@V@J#'@'@c#c#                                ",
"            ##U@n#+#u u c#'@'@V@u o@'@V@'@B#V@J#'@'@'@'@                                ",
"          K###U@U@u u ,@{+D#c#c#,@u u c#L#J#V@s#J#J#B#                                  ",
"          ##M#W+N#u O#c#P#Q#R#c#V@d#u c#c#w#V@V@V@V@V@                                  ",
"          |+L@S#u T###{+U#c#V@u |+{+u c#c#V@V@w#'@'@'@                                  ",
"          V#|+u W#{+|+X#{+W+W+  |+{+>@U@c#V@V@w#'@'@                                    ",
"          {+|+'.T+##n@|+##|+)+{+##Y#(@c#y#'@V@V@V@V@                                    ",
"          >@(@'.U+(#Z#{+`#5# $(#X###U@c#H#s#V@V@V@'@'@                                  ",
"            u u u .$+$7#{+@$5###U@W+U@V@V@V@V@V@V@V@c#{+U@                              ",
"            u u u {+#$+$##c#<#$$U@b#g#h#u %$V@V@V@h#c#W+W+(@                            ",
"              u u '.W+|+&$u u u u d#c#c#*$=$B#'@'@c#g#-$W+{+                            ",
"                u u {+r.u u P S.d@u ,@V@h#L#w#V@J#c#U@U@(@(@W+                          ",
"                u *${+]#u ).;$ +>$u u ,$V@'@'@V@V@x#I#W+t+u {+c#                        ",
"                  1@'$)#@.^+)$ +'+u     u u u u !$r#V@g#'.'.'@~$U@                      ",
"                  t+1@u @.S.9 9 @.=+u     u u u u u !$r#V@>@(@U@g#                      ",
"                  1@1@u @.L.L L {$ +u     u u u u u u u u u ]$^$k#u                     ",
"                    t+u /$@. +L ($ +@.          u u u u u u u u u u u                   ",
"                      u >.] L >#L  +L               u u u u u u u u u                   ",
"                        >.] ,#_$9 9 @.              u u u u u u u u u                   ",
"                        u '.>#:$<$ +@.@.                u u O u u u u u u               ",
"                          u ] 9 >#9 [$^+                  u u u u u S.u u               ",
"                          u >#%#9 }$^+|$]                   O 1$u u S.'.u               ",
"                            @.@.>#u u 2$2.                      u u u '.S.S.S.          ",
"                            u '.S.H 3$4$5$                        O O S.S.S.S.          ",
"                            u u Y 6$9 7$8$                          O 9$S.).0$@.        ",
"                            u u Y Y Y a$f.                             +b$@.@.@.@.      ",
"                          Z | 9 3$c$s@2.d$>.                      i e$ + +@.@.@.@.@.    ",
"                        Z Z f$s@L  + + +] `@                      0$S.g$h$@.@.@.@.@.    ",
"                      i$j$4+s@s@2.2.2.>#>#2.                 +@.@.@.@.@.L.S.S.S.S.u     ",
"                  Y 9 Y k$L L L @.@.S.S.u D l$            u S.S.S.'.u u O O u O         ",
"                Y 6$9 L L m$2.2.] ] ] `@n$l$D           @. +S.S.u u u u                 ",
"            L c$>#@.S.S.u O O O O O O O O O           ] u u u                           "};
