/* XPM */
static char * D4_xpm[] = {
"45 93 488 2",
"  	c None",
". 	c #846B66",
"+ 	c #846A66",
"@ 	c #79615E",
"# 	c #806B69",
"$ 	c #866E68",
"% 	c #87716A",
"& 	c #4D4646",
"* 	c #705D5A",
"= 	c #65514E",
"- 	c #574341",
"; 	c #6D5C5B",
"> 	c #7E5F5A",
", 	c #705E5A",
"' 	c #252B2E",
") 	c #1E2326",
"! 	c #4F3F3C",
"~ 	c #584442",
"{ 	c #846B65",
"] 	c #856C67",
"^ 	c #7F6662",
"/ 	c #433433",
"( 	c #52403E",
"_ 	c #221615",
": 	c #6C5754",
"< 	c #8B766F",
"[ 	c #856D67",
"} 	c #5A4B49",
"| 	c #433333",
"1 	c #180C0B",
"2 	c #23110D",
"3 	c #765E5C",
"4 	c #795C57",
"5 	c #88716A",
"6 	c #89736D",
"7 	c #866F6D",
"8 	c #4A3837",
"9 	c #4F3D3B",
"0 	c #483837",
"a 	c #130B0A",
"b 	c #231C1B",
"c 	c #80645F",
"d 	c #6D3C38",
"e 	c #6E3D3B",
"f 	c #240F0D",
"g 	c #231411",
"h 	c #493736",
"i 	c #3B2B2A",
"j 	c #221C1B",
"k 	c #6B504B",
"l 	c #65423D",
"m 	c #745D5A",
"n 	c #53403E",
"o 	c #463433",
"p 	c #4F3D3C",
"q 	c #755D59",
"r 	c #302120",
"s 	c #181211",
"t 	c #59342F",
"u 	c #3C2C2B",
"v 	c #5E4A48",
"w 	c #503E3C",
"x 	c #443332",
"y 	c #473C3B",
"z 	c #0D0201",
"A 	c #020000",
"B 	c #210C0A",
"C 	c #2B1210",
"D 	c #6D5754",
"E 	c #5B4847",
"F 	c #433432",
"G 	c #000000",
"H 	c #735B58",
"I 	c #3C2F2E",
"J 	c #413231",
"K 	c #342928",
"L 	c #0C0000",
"M 	c #250F0D",
"N 	c #554542",
"O 	c #534240",
"P 	c #4C3A39",
"Q 	c #52423F",
"R 	c #5B4846",
"S 	c #7E6561",
"T 	c #574847",
"U 	c #160502",
"V 	c #4B3938",
"W 	c #403130",
"X 	c #5A4845",
"Y 	c #594845",
"Z 	c #6A5552",
"` 	c #7D6460",
" .	c #725C57",
"..	c #65514D",
"+.	c #7C6560",
"@.	c #1E0B09",
"#.	c #473534",
"$.	c #382A29",
"%.	c #7A615E",
"&.	c #77605D",
"*.	c #59403D",
"=.	c #826965",
"-.	c #3C2E2D",
";.	c #614D4A",
">.	c #746562",
",.	c #7E706F",
"'.	c #635F5F",
").	c #595557",
"!.	c #433939",
"~.	c #705A56",
"{.	c #7C635F",
"].	c #685250",
"^.	c #655553",
"/.	c #292626",
"(.	c #4A4342",
"_.	c #69534F",
":.	c #444243",
"<.	c #363435",
"[.	c #7B635E",
"}.	c #5E4947",
"|.	c #2E2D2D",
"1.	c #181717",
"2.	c #363332",
"3.	c #373333",
"4.	c #78605D",
"5.	c #402F2E",
"6.	c #2E1B1A",
"7.	c #3E3B3C",
"8.	c #211C1C",
"9.	c #836A65",
"0.	c #6F5855",
"a.	c #433332",
"b.	c #232222",
"c.	c #3B3839",
"d.	c #151212",
"e.	c #533633",
"f.	c #6E5854",
"g.	c #0B0000",
"h.	c #291815",
"i.	c #322221",
"j.	c #1F0F0C",
"k.	c #1C1B1B",
"l.	c #070403",
"m.	c #5A4644",
"n.	c #423E3F",
"o.	c #100E0E",
"p.	c #352623",
"q.	c #361B18",
"r.	c #58332E",
"s.	c #705E5D",
"t.	c #1A0E0D",
"u.	c #503D3B",
"v.	c #312221",
"w.	c #121212",
"x.	c #221210",
"y.	c #6B4D48",
"z.	c #4F4C4C",
"A.	c #433F40",
"B.	c #362B2A",
"C.	c #866F69",
"D.	c #685655",
"E.	c #5F4F4E",
"F.	c #362726",
"G.	c #271A19",
"H.	c #3B2B29",
"I.	c #1E1513",
"J.	c #464343",
"K.	c #4C4949",
"L.	c #381A16",
"M.	c #392928",
"N.	c #564442",
"O.	c #311C1A",
"P.	c #4B3735",
"Q.	c #453534",
"R.	c #3C3231",
"S.	c #222020",
"T.	c #333030",
"U.	c #554340",
"V.	c #67504E",
"W.	c #2A1D1D",
"X.	c #3A2A28",
"Y.	c #392A28",
"Z.	c #2A2929",
"`.	c #0B0A0A",
" +	c #2B2121",
".+	c #010000",
"++	c #100807",
"@+	c #6B5551",
"#+	c #866D68",
"$+	c #7B635F",
"%+	c #2D2120",
"&+	c #2B1C19",
"*+	c #2C1B19",
"=+	c #222121",
"-+	c #343031",
";+	c #231F1F",
">+	c #282626",
",+	c #262121",
"'+	c #302726",
")+	c #B09A9B",
"!+	c #544344",
"~+	c #1E0000",
"{+	c #140000",
"]+	c #4E3F3D",
"^+	c #816864",
"/+	c #6C5653",
"(+	c #52413F",
"_+	c #4B3937",
":+	c #201F1F",
"<+	c #1A1616",
"[+	c #282424",
"}+	c #363334",
"|+	c #171515",
"1+	c #070404",
"2+	c #5B5859",
"3+	c #766F70",
"4+	c #100000",
"5+	c #4A3734",
"6+	c #0D0000",
"7+	c #302624",
"8+	c #7A645F",
"9+	c #88726C",
"0+	c #826A65",
"a+	c #312422",
"b+	c #413230",
"c+	c #484343",
"d+	c #383535",
"e+	c #2C2423",
"f+	c #330000",
"g+	c #59423E",
"h+	c #0C0A09",
"i+	c #67534E",
"j+	c #866E69",
"k+	c #4A3A39",
"l+	c #423231",
"m+	c #1B1413",
"n+	c #2F2C2C",
"o+	c #4B4748",
"p+	c #110E0E",
"q+	c #020202",
"r+	c #070707",
"s+	c #1A1413",
"t+	c #150000",
"u+	c #634F4B",
"v+	c #725B57",
"w+	c #4D3C39",
"x+	c #2B2929",
"y+	c #171516",
"z+	c #0B0201",
"A+	c #6A6465",
"B+	c #331C18",
"C+	c #2E0000",
"D+	c #301B18",
"E+	c #624C48",
"F+	c #856E68",
"G+	c #79625E",
"H+	c #493A37",
"I+	c #4B3D3B",
"J+	c #251E1D",
"K+	c #150F0E",
"L+	c #0F0A09",
"M+	c #9C8C8F",
"N+	c #92696A",
"O+	c #64261D",
"P+	c #C7A7AA",
"Q+	c #5B0000",
"R+	c #846E67",
"S+	c #7D6561",
"T+	c #524341",
"U+	c #5A4B45",
"V+	c #524241",
"W+	c #3A2A29",
"X+	c #020101",
"Y+	c #130E0D",
"Z+	c #0B0605",
"`+	c #140E0D",
" @	c #908485",
".@	c #98898C",
"+@	c #715858",
"@@	c #0F0000",
"#@	c #3F3230",
"$@	c #6A5753",
"%@	c #705A57",
"&@	c #201412",
"*@	c #231B18",
"=@	c #776F70",
"-@	c #837879",
";@	c #948788",
">@	c #190000",
",@	c #796D6A",
"'@	c #4B4749",
")@	c #212020",
"!@	c #111010",
"~@	c #090808",
"{@	c #030000",
"]@	c #877C7D",
"^@	c #846062",
"/@	c #1C0B0A",
"(@	c #786F6F",
"_@	c #837270",
":@	c #7E6966",
"<@	c #050505",
"[@	c #151110",
"}@	c #574241",
"|@	c #251413",
"1@	c #6E5856",
"2@	c #8B716D",
"3@	c #76635F",
"4@	c #4C0000",
"5@	c #3E0000",
"6@	c #372927",
"7@	c #0A0000",
"8@	c #210F0F",
"9@	c #744841",
"0@	c #856C68",
"a@	c #8C726E",
"b@	c #8A0C00",
"c@	c #171210",
"d@	c #421913",
"e@	c #520000",
"f@	c #3C3A3B",
"g@	c #180807",
"h@	c #764B44",
"i@	c #806964",
"j@	c #1A0100",
"k@	c #564542",
"l@	c #826964",
"m@	c #664A47",
"n@	c #050100",
"o@	c #110402",
"p@	c #563F3B",
"q@	c #715753",
"r@	c #2D1412",
"s@	c #1E0D0B",
"t@	c #342422",
"u@	c #604441",
"v@	c #0C0A0A",
"w@	c #342524",
"x@	c #4E3C3A",
"y@	c #1D0907",
"z@	c #532F2A",
"A@	c #241110",
"B@	c #614C4A",
"C@	c #574442",
"D@	c #5C4846",
"E@	c #664D49",
"F@	c #270100",
"G@	c #6F5956",
"H@	c #715C58",
"I@	c #86706A",
"J@	c #816C69",
"K@	c #070000",
"L@	c #382827",
"M@	c #2C2524",
"N@	c #837A7B",
"O@	c #2C2525",
"P@	c #716D6D",
"Q@	c #331715",
"R@	c #413E3E",
"S@	c #594C4C",
"T@	c #6E6869",
"U@	c #42201B",
"V@	c #A4230A",
"W@	c #B13213",
"X@	c #322728",
"Y@	c #797172",
"Z@	c #807677",
"`@	c #52221B",
" #	c #971A05",
".#	c #9A2918",
"+#	c #512D27",
"@#	c #A08F92",
"##	c #AC9798",
"$#	c #9B8C8D",
"%#	c #060000",
"&#	c #883129",
"*#	c #7B0600",
"=#	c #862C1D",
"-#	c #6D6768",
";#	c #604C4C",
">#	c #452D2E",
",#	c #94301E",
"'#	c #464242",
")#	c #762B1E",
"!#	c #7A7172",
"~#	c #A39193",
"{#	c #938587",
"]#	c #524E4F",
"^#	c #645F60",
"/#	c #656061",
"(#	c #470000",
"_#	c #3D393A",
":#	c #3F3B3C",
"<#	c #575455",
"[#	c #3C1505",
"}#	c #0E0C0C",
"|#	c #1D1A19",
"1#	c #322F2F",
"2#	c #1C1818",
"3#	c #4E4B4B",
"4#	c #120F0D",
"5#	c #1F1B1B",
"6#	c #454142",
"7#	c #151111",
"8#	c #524F4F",
"9#	c #585556",
"0#	c #393636",
"a#	c #494646",
"b#	c #363333",
"c#	c #2A2727",
"d#	c #302C2C",
"e#	c #2E2B2B",
"f#	c #343132",
"g#	c #181414",
"h#	c #3D3A3A",
"i#	c #454242",
"j#	c #0E0D0D",
"k#	c #3A3636",
"l#	c #221E1F",
"m#	c #524F50",
"n#	c #4D4A4B",
"o#	c #343131",
"p#	c #040404",
"q#	c #5C5758",
"r#	c #3B3434",
"s#	c #535050",
"t#	c #463838",
"u#	c #83797B",
"v#	c #2D2424",
"w#	c #312E2E",
"x#	c #5C5858",
"y#	c #B89EA1",
"z#	c #726B6C",
"A#	c #887D7E",
"B#	c #5D5657",
"C#	c #2B2525",
"D#	c #605C5D",
"E#	c #050000",
"F#	c #060303",
"G#	c #080000",
"H#	c #201312",
"I#	c #555151",
"J#	c #180F0E",
"K#	c #241615",
"L#	c #9A888A",
"M#	c #2B1D1C",
"N#	c #685F60",
"O#	c #B59D9E",
"P#	c #C2A4A7",
"Q#	c #302322",
"R#	c #070303",
"S#	c #090000",
"T#	c #1A1717",
"U#	c #645050",
"V#	c #8C7F80",
"W#	c #A79394",
"X#	c #5C3530",
"Y#	c #1B0F0E",
"Z#	c #2F2120",
"`#	c #403838",
" $	c #876364",
".$	c #8C8081",
"+$	c #5F3732",
"@$	c #372726",
"#$	c #271B1A",
"$$	c #433736",
"%$	c #080201",
"&$	c #140402",
"*$	c #221412",
"=$	c #2D1B18",
"-$	c #1E100E",
";$	c #251817",
">$	c #2F201F",
",$	c #423130",
"'$	c #4E3E3C",
")$	c #625250",
"!$	c #382C2B",
"~$	c #392A29",
"{$	c #5A4B4A",
"]$	c #453A39",
"^$	c #332322",
"/$	c #2D1F1E",
"($	c #140908",
"_$	c #3A2F2E",
":$	c #0D0807",
"<$	c #0C0302",
"[$	c #42231E",
"}$	c #050202",
"                                          . + @ # $                                       ",
"                                        % . & * = - ;                                     ",
"                                      > + . , ' ' ) ! ~                                   ",
"                                  . + . + $ > { ] ^ / ( _                                 ",
"                                  : + + + < [ > $ $ } | 1 2                               ",
"                                  3 4 + . 5 6 7 8 9 0 8 a b                               ",
"                                  c . d e ~ + $ f g h i j                                 ",
"                                  k l ~ m n 8 o p q 8 r s                                 ",
"                                  + t 8 u 8 v w x y z A                                   ",
"                                  B C m . < D E F u G G                                   ",
"                                  B u ~ + H I J i K G G                                   ",
"                                  C L ~ M N O P Q R S = T r                               ",
"                                  m U V W X Y Z ` +  ...+.. m                             ",
"                                  C @.#.$.%.+ m &.+ V *.=.` n r                           ",
"                                  G _ -.;.>.,.'.).!.8 + ~.{.].~ ^.                        ",
"                                    /.(._.$ m = 8 !.:.<.@ . [.}.^.|.1.                    ",
"                                  2.3.4.< B B 5.6.r 7.:.8.# 9.0.a.b.c.                    ",
"                              1.d.e.f.$ + g.g.h.#.i.j.k.|.G l.m.x s |.n.                  ",
"                            o.p.. . q.r.+ ~ s.t.~ u.v.r 1.w.G G x.y.G z.A.                ",
"                            B.+ C.. B . m 8 D.E.~ ~ F.G.k.b.G G G H.I.J.K.                ",
"                          1.+ + = G 8 . L.M.N.s.O.P.Q.R.b.b.I.n.S.G G T.K.n.              ",
"                          1.C C _ r _ u U.. + V.W.X.Y.r b.Z.G z.T.`.G n.n.n. +            ",
"                        './.G G .+++G G @+] #+$+%+&+*+_ =+|.G -+;+>+G n.n.,+'+            ",
"                        )+!+~+{+G G G G ]+^+#++ /+(+_+r |.:+G <+[+n.G }+|+1+R.R.          ",
"                        2+3+4+~+4+5+6+.+7+8+. 9+0+a+b+s `.c+G T.n.d+G `.G 1.b b A e+      ",
"                        2+n.~+~+f+g+4+4+h+i++ j+C.k+l+m+1.n+G o+n.p+G q+r+b.s+b s A       ",
"                        2+3+.+t+~+~+G G G u+v+#+6 w+G.A x+G G n.y+G G G A G A s A G z+A   ",
"                        T.A+B+C+C+4+4+.+G D+E+F+G+H+I+_ G G S.J+`.G G       s z K+L+A G G ",
"                        T.n.M+M+N+O+P+Q+G .+R+S+T+U+V+W+G G T.T.G G         X+Y+Z+`+G A G ",
"                      .+!+ @.@M+N++@M+t+@@G _ #@= $@%@&@T.I.*@<+G G   G G G G G G s G G H.",
"                      4+c+=@ @ @-@;@M+>@t+3+'.,@).'@)@T.!@G ~@<+G G G G G G G G G G G G 5+",
"                    @@{@T.n.]@ @^@M+M+C+/@(@_@:@A+3+2+T.<@<+<+[@G G G G G G G G G G Y+s 2 ",
"                    G G g.~+T.)+}@M+M+C+|@1@2@3@4@5@I.6@<+<@G C+7@G G G                   ",
"                    G G G G G x+M+M+M+>@8@9@0@a@b@4+g+c@G G d@e@C+                        ",
"                  .+G G G G G G f@2+A+4+g@h@] i@j@G G G G G 4@4+                          ",
"                    G G     .+{+G G G G G k@l@m@G G G G G                                 ",
"                      G     L L n@o@U U L p@q@r@G G G G                                   ",
"                      G     _ U U s@t@r _ *.u@v@G G G G                                   ",
"                      G     8 8 w@u x@C y@z@A@G G G G G                                   ",
"                      `.    B@u u C@D@E@C F@G G z G G G                                   ",
"                      `.  ~ u w@8 G@H@% C L G G s G G G                                   ",
"                      |.  r = m + % I@J@K@G G G G G G G R.                                ",
"                        r L@u 8 ~ # # M@G G G G A G G A 8 '+G                             ",
"                        L ++G 8.N@'+8.G G B G G G G A .+# R.G                             ",
"                      M+G G O@P@N@).).A Q@F@G G R@P@P@:.N@'.S@b.                          ",
"                       @~+~+ @ @T@3+U@V@W@~+2 B+A+ @z.2+;@M+^@X@T.                        ",
"                      3+4+4+.@ @Y@Z@`@ #.#G +@+#-@ @o+2+@###$#!+n.                        ",
"                    M+M+%#4+.@ @]@&#O+*#=#G +@+#M+M+2+-#)+)+)+;#n.                        ",
"                    n+G ~+># @ @ @=#5@,#4@~+4+C+-@-@A+A+$#)+)+2+T.                        ",
"                  '#G ~+;# @]@]@ @)#5@*#5@C+4+C+3+3+A+A+!#~#)+2+                          ",
"              z.x+G g.4+-@M+{#-@;#)#C+*#5@U@.+.+2+2+n.]#^#3+A+z.                          ",
"              S.G G z.2+/#A+n.d+ +)#5@(#`@B+h+G _#T.T.A.K.o+:#T.                          ",
"            G G G G z.2+<#z.z.n.n.*#5@5@[#g.G }#T.|#n.n.n.:#1#2#                          ",
"          <+<+<+<+<+<+-+z.3#A.n.n.~+g..+G G <+p+G 4#n.n.T.T.5#                            ",
"          G G T.5#<+<+<+z.6#d+T.X@G .+G G 2 G G G <+n.n.n.n.n.                            ",
"        7#G p+5#T.T.G G 2+2+T.T.6@4#4+<+G .+G G G T.n.n.n.A.z.                            ",
"        G G p+n.<+<+G G 8#9#G G .+4#.+G G G G G h+T.n.z.n.z.A.                            ",
"      G 4#G G T.<+<+T.<+0#a#G G G <+G G G G G p+<+T.:#z.n.n.b#                            ",
"      T.4#G G T.5#<+d+n.d+S.G G G   G G <+G <@<+<+c#b#n.d#<+<+                            ",
"       +<+<@G n.e#<+n.2+f#G <+<+<+    T.T.<@g#T.5#<+<+<+<+<+e#                            ",
"    3+G h#g#<@T.i#z.n.n.j#4#G         T.;+<+<+T.T.T.T.T.J.z.n.                            ",
"    3+ +o+k#l#<+n.m#n#>+<@<+          e#<+<+<+T.T.o#:#o+z.A.T.                            ",
"  n.c+n.n.n.n.d+T.n.n+p#7#            <+<+<+<+e#T.n.n.n.n.n.n.                            ",
"-#2+G n.A+3+q#n._#b#`.G                 T.-+<+2#e#T.c#<+T.T.T.                            ",
"2+r#z.n.n.2+s#n.n.T.<+<+                T.-+<+<+<+<+<+[+n.n.T.                            ",
"I.A+-@-@-@/#2+G G G                     T.5#<+2#e#T._#:#b#T.5#                            ",
"t#3+3+A+u#M+-@G x+                      v#w#<+T.T.T.T.T.T.T.                              ",
"t#3+x# @M+y#P+4+X@                        T.T.<+e#T.T.w#5#<+                              ",
" +!#z# @)+ @ @~+Q+C+                      w#2#<+<+5#T.<+<+<+n.                            ",
"G A+A#B#!.C#:.G G G                       <+<+<+<+<+5#c#A+D#2+G                           ",
"G c+ @G G E#F#G#G G                       T.<@g#T.5#<+T.-@A+3+.+G                         ",
"  c+A+U U E#E#r H#A                       T.x+<@2#T.J.I#-# @)+t#~+                        ",
"  3+2 L U A g.r r L                       <+5#T.5#<+z.^# @=@)+M+!+5@                      ",
"  3+B+U U z G J#K#L                         e#<+T.<+2+3+^@B++@P+L#4@~+                    ",
"    B+_ _ M#A G L z                             G G T.N#5@5@C+O#P#T.B+                    ",
"    I._ u _ Q#R#S#G                             G G T#T.U#O++@V#W#+#X#B+                  ",
"      Y#_ _ Z#Q#.+G                               G G |+`#+@ $.$-@+$r 1 G                 ",
"      z u @$#$_ G r                                   G G G g.p+G G#L z A G               ",
"      b $$u u A G G                                       G G G G G G G G G               ",
"      b y 8 _ U r U                                         G G G G L {@G G               ",
"        _ r u %$U n@                                          2 B+1 U L U U z             ",
"        '+= U E#8 r                                             I.G z+&$U *$_ 1           ",
"        z B =$~ ~ _                                               G G -$U _ ;$r           ",
"          u ~ u u r                                                 G _ u ;$>$r           ",
"          r ,$x@T y                                                   A r r r v.u r       ",
"        y u '$)$T y                                                   G !$r r ~$u $$      ",
"        8 ^.^.{$]$u                                                       G.r 8 8 u _     ",
"      R.1 r r y y u                                                       ~ u u u ~$M#_   ",
"      _ y T ^.^.T r                                                     B = u r u ^$/$_ z ",
"    _ ($G _ M#R._ _$                                                  u U 8 8 r u r ;$Y#z ",
"+#1 R.'+'+_ _ A :$_ '+                                            C m r _ L 1 1 1 1 <$Z+Z+",
"[$A z A }$Z+Z+Z+Z+Z+                                            C y@B L 1 z Z+Z+Z+Z+Z+Z+X+",
"    Z+Z+Z+Z+Z+Z+Z+Z+                                        + L A G Z+Z+G                 "};
