/* XPM */
static char * D6_xpm[] = {
"45 93 488 2",
"  	c None",
". 	c #866E68",
"+ 	c #806B69",
"@ 	c #79615E",
"# 	c #846A66",
"$ 	c #846B66",
"% 	c #6D5C5B",
"& 	c #574341",
"* 	c #65514E",
"= 	c #705D5A",
"- 	c #4D4646",
"; 	c #87716A",
"> 	c #584442",
", 	c #4F3F3C",
"' 	c #1E2326",
") 	c #252B2E",
"! 	c #705E5A",
"~ 	c #7E5F5A",
"{ 	c #221615",
"] 	c #52403E",
"^ 	c #433433",
"/ 	c #7F6662",
"( 	c #856C67",
"_ 	c #846B65",
": 	c #23110D",
"< 	c #180C0B",
"[ 	c #433333",
"} 	c #5A4B49",
"| 	c #856D67",
"1 	c #8B766F",
"2 	c #6C5754",
"3 	c #231C1B",
"4 	c #130B0A",
"5 	c #4A3837",
"6 	c #483837",
"7 	c #4F3D3B",
"8 	c #866F6D",
"9 	c #89736D",
"0 	c #88716A",
"a 	c #795C57",
"b 	c #765E5C",
"c 	c #221C1B",
"d 	c #3B2B2A",
"e 	c #493736",
"f 	c #231411",
"g 	c #240F0D",
"h 	c #6E3D3B",
"i 	c #6D3C38",
"j 	c #80645F",
"k 	c #181211",
"l 	c #302120",
"m 	c #755D59",
"n 	c #4F3D3C",
"o 	c #463433",
"p 	c #53403E",
"q 	c #745D5A",
"r 	c #65423D",
"s 	c #6B504B",
"t 	c #020000",
"u 	c #0D0201",
"v 	c #473C3B",
"w 	c #443332",
"x 	c #503E3C",
"y 	c #5E4A48",
"z 	c #3C2C2B",
"A 	c #59342F",
"B 	c #000000",
"C 	c #433432",
"D 	c #5B4847",
"E 	c #6D5754",
"F 	c #2B1210",
"G 	c #210C0A",
"H 	c #342928",
"I 	c #413231",
"J 	c #3C2F2E",
"K 	c #735B58",
"L 	c #574847",
"M 	c #7E6561",
"N 	c #5B4846",
"O 	c #52423F",
"P 	c #4C3A39",
"Q 	c #534240",
"R 	c #554542",
"S 	c #250F0D",
"T 	c #0C0000",
"U 	c #7C6560",
"V 	c #65514D",
"W 	c #725C57",
"X 	c #7D6460",
"Y 	c #6A5552",
"Z 	c #594845",
"` 	c #5A4845",
" .	c #403130",
"..	c #4B3938",
"+.	c #160502",
"@.	c #826965",
"#.	c #59403D",
"$.	c #77605D",
"%.	c #7A615E",
"&.	c #382A29",
"*.	c #473534",
"=.	c #1E0B09",
"-.	c #655553",
";.	c #685250",
">.	c #7C635F",
",.	c #705A56",
"'.	c #433939",
").	c #595557",
"!.	c #635F5F",
"~.	c #7E706F",
"{.	c #746562",
"].	c #614D4A",
"^.	c #3C2E2D",
"/.	c #181717",
"(.	c #2E2D2D",
"_.	c #5E4947",
":.	c #7B635E",
"<.	c #363435",
"[.	c #444243",
"}.	c #69534F",
"|.	c #4A4342",
"1.	c #292626",
"2.	c #3B3839",
"3.	c #232222",
"4.	c #433332",
"5.	c #6F5855",
"6.	c #836A65",
"7.	c #211C1C",
"8.	c #3E3B3C",
"9.	c #2E1B1A",
"0.	c #402F2E",
"a.	c #78605D",
"b.	c #373333",
"c.	c #363332",
"d.	c #423E3F",
"e.	c #5A4644",
"f.	c #070403",
"g.	c #1C1B1B",
"h.	c #1F0F0C",
"i.	c #322221",
"j.	c #291815",
"k.	c #0B0000",
"l.	c #6E5854",
"m.	c #533633",
"n.	c #151212",
"o.	c #433F40",
"p.	c #4F4C4C",
"q.	c #6B4D48",
"r.	c #221210",
"s.	c #121212",
"t.	c #312221",
"u.	c #503D3B",
"v.	c #1A0E0D",
"w.	c #705E5D",
"x.	c #58332E",
"y.	c #361B18",
"z.	c #352623",
"A.	c #100E0E",
"B.	c #4C4949",
"C.	c #464343",
"D.	c #1E1513",
"E.	c #3B2B29",
"F.	c #271A19",
"G.	c #362726",
"H.	c #5F4F4E",
"I.	c #685655",
"J.	c #866F69",
"K.	c #362B2A",
"L.	c #333030",
"M.	c #222020",
"N.	c #3C3231",
"O.	c #453534",
"P.	c #4B3735",
"Q.	c #311C1A",
"R.	c #564442",
"S.	c #392928",
"T.	c #381A16",
"U.	c #2B2121",
"V.	c #0B0A0A",
"W.	c #2A2929",
"X.	c #392A28",
"Y.	c #3A2A28",
"Z.	c #2A1D1D",
"`.	c #67504E",
" +	c #554340",
".+	c #302726",
"++	c #262121",
"@+	c #282626",
"#+	c #231F1F",
"$+	c #343031",
"%+	c #222121",
"&+	c #2C1B19",
"*+	c #2B1C19",
"=+	c #2D2120",
"-+	c #7B635F",
";+	c #866D68",
">+	c #6B5551",
",+	c #100807",
"'+	c #010000",
")+	c #070404",
"!+	c #171515",
"~+	c #363334",
"{+	c #282424",
"]+	c #1A1616",
"^+	c #201F1F",
"/+	c #4B3937",
"(+	c #52413F",
"_+	c #6C5653",
":+	c #816864",
"<+	c #4E3F3D",
"[+	c #140000",
"}+	c #1E0000",
"|+	c #544344",
"1+	c #B09A9B",
"2+	c #2C2423",
"3+	c #383535",
"4+	c #484343",
"5+	c #413230",
"6+	c #312422",
"7+	c #826A65",
"8+	c #88726C",
"9+	c #7A645F",
"0+	c #302624",
"a+	c #0D0000",
"b+	c #4A3734",
"c+	c #100000",
"d+	c #766F70",
"e+	c #5B5859",
"f+	c #1A1413",
"g+	c #070707",
"h+	c #020202",
"i+	c #110E0E",
"j+	c #4B4748",
"k+	c #2F2C2C",
"l+	c #1B1413",
"m+	c #423231",
"n+	c #4A3A39",
"o+	c #866E69",
"p+	c #67534E",
"q+	c #0C0A09",
"r+	c #59423E",
"s+	c #330000",
"t+	c #0B0201",
"u+	c #171516",
"v+	c #2B2929",
"w+	c #4D3C39",
"x+	c #725B57",
"y+	c #634F4B",
"z+	c #150000",
"A+	c #0F0A09",
"B+	c #150F0E",
"C+	c #251E1D",
"D+	c #4B3D3B",
"E+	c #493A37",
"F+	c #79625E",
"G+	c #856E68",
"H+	c #624C48",
"I+	c #301B18",
"J+	c #2E0000",
"K+	c #331C18",
"L+	c #6A6465",
"M+	c #140E0D",
"N+	c #0B0605",
"O+	c #130E0D",
"P+	c #020101",
"Q+	c #3A2A29",
"R+	c #524241",
"S+	c #5A4B45",
"T+	c #524341",
"U+	c #7D6561",
"V+	c #846E67",
"W+	c #5B0000",
"X+	c #C7A7AA",
"Y+	c #64261D",
"Z+	c #92696A",
"`+	c #9C8C8F",
" @	c #231B18",
".@	c #201412",
"+@	c #705A57",
"@@	c #6A5753",
"#@	c #3F3230",
"$@	c #0F0000",
"%@	c #715858",
"&@	c #98898C",
"*@	c #908485",
"=@	c #090808",
"-@	c #111010",
";@	c #212020",
">@	c #4B4749",
",@	c #796D6A",
"'@	c #190000",
")@	c #948788",
"!@	c #837879",
"~@	c #776F70",
"{@	c #151110",
"]@	c #050505",
"^@	c #7E6966",
"/@	c #837270",
"(@	c #786F6F",
"_@	c #1C0B0A",
":@	c #846062",
"<@	c #877C7D",
"[@	c #030000",
"}@	c #0A0000",
"|@	c #372927",
"1@	c #3E0000",
"2@	c #4C0000",
"3@	c #76635F",
"4@	c #8B716D",
"5@	c #6E5856",
"6@	c #251413",
"7@	c #574241",
"8@	c #520000",
"9@	c #421913",
"0@	c #171210",
"a@	c #8A0C00",
"b@	c #8C726E",
"c@	c #856C68",
"d@	c #744841",
"e@	c #210F0F",
"f@	c #1A0100",
"g@	c #806964",
"h@	c #764B44",
"i@	c #180807",
"j@	c #3C3A3B",
"k@	c #664A47",
"l@	c #826964",
"m@	c #564542",
"n@	c #2D1412",
"o@	c #715753",
"p@	c #563F3B",
"q@	c #110402",
"r@	c #050100",
"s@	c #0C0A0A",
"t@	c #604441",
"u@	c #342422",
"v@	c #1E0D0B",
"w@	c #241110",
"x@	c #532F2A",
"y@	c #1D0907",
"z@	c #4E3C3A",
"A@	c #342524",
"B@	c #270100",
"C@	c #664D49",
"D@	c #5C4846",
"E@	c #574442",
"F@	c #614C4A",
"G@	c #715C58",
"H@	c #6F5956",
"I@	c #070000",
"J@	c #816C69",
"K@	c #86706A",
"L@	c #2C2524",
"M@	c #382827",
"N@	c #837A7B",
"O@	c #594C4C",
"P@	c #716D6D",
"Q@	c #413E3E",
"R@	c #331715",
"S@	c #2C2525",
"T@	c #322728",
"U@	c #B13213",
"V@	c #A4230A",
"W@	c #42201B",
"X@	c #6E6869",
"Y@	c #9B8C8D",
"Z@	c #AC9798",
"`@	c #A08F92",
" #	c #512D27",
".#	c #9A2918",
"+#	c #971A05",
"@#	c #52221B",
"##	c #807677",
"$#	c #797172",
"%#	c #604C4C",
"&#	c #6D6768",
"*#	c #862C1D",
"=#	c #7B0600",
"-#	c #883129",
";#	c #060000",
">#	c #94301E",
",#	c #452D2E",
"'#	c #A39193",
")#	c #7A7172",
"!#	c #762B1E",
"~#	c #464242",
"{#	c #645F60",
"]#	c #524E4F",
"^#	c #938587",
"/#	c #3F3B3C",
"(#	c #3D393A",
"_#	c #470000",
":#	c #656061",
"<#	c #1C1818",
"[#	c #322F2F",
"}#	c #1D1A19",
"|#	c #0E0C0C",
"1#	c #3C1505",
"2#	c #575455",
"3#	c #1F1B1B",
"4#	c #120F0D",
"5#	c #4E4B4B",
"6#	c #454142",
"7#	c #151111",
"8#	c #585556",
"9#	c #524F4F",
"0#	c #363333",
"a#	c #494646",
"b#	c #393636",
"c#	c #302C2C",
"d#	c #2A2727",
"e#	c #2E2B2B",
"f#	c #181414",
"g#	c #343132",
"h#	c #0E0D0D",
"i#	c #454242",
"j#	c #3D3A3A",
"k#	c #343131",
"l#	c #4D4A4B",
"m#	c #524F50",
"n#	c #221E1F",
"o#	c #3A3636",
"p#	c #040404",
"q#	c #5C5758",
"r#	c #535050",
"s#	c #3B3434",
"t#	c #312E2E",
"u#	c #2D2424",
"v#	c #83797B",
"w#	c #463838",
"x#	c #B89EA1",
"y#	c #5C5858",
"z#	c #726B6C",
"A#	c #605C5D",
"B#	c #2B2525",
"C#	c #5D5657",
"D#	c #887D7E",
"E#	c #080000",
"F#	c #060303",
"G#	c #050000",
"H#	c #555151",
"I#	c #201312",
"J#	c #9A888A",
"K#	c #241615",
"L#	c #180F0E",
"M#	c #C2A4A7",
"N#	c #B59D9E",
"O#	c #685F60",
"P#	c #2B1D1C",
"Q#	c #5C3530",
"R#	c #A79394",
"S#	c #8C7F80",
"T#	c #645050",
"U#	c #1A1717",
"V#	c #090000",
"W#	c #070303",
"X#	c #302322",
"Y#	c #5F3732",
"Z#	c #8C8081",
"`#	c #876364",
" $	c #403838",
".$	c #2F2120",
"+$	c #1B0F0E",
"@$	c #271B1A",
"#$	c #372726",
"$$	c #433736",
"%$	c #080201",
"&$	c #221412",
"*$	c #140402",
"=$	c #251817",
"-$	c #1E100E",
";$	c #2D1B18",
">$	c #2F201F",
",$	c #423130",
"'$	c #392A29",
")$	c #382C2B",
"!$	c #625250",
"~$	c #4E3E3C",
"{$	c #453A39",
"]$	c #5A4B4A",
"^$	c #2D1F1E",
"/$	c #332322",
"($	c #3A2F2E",
"_$	c #140908",
":$	c #0C0302",
"<$	c #0D0807",
"[$	c #050202",
"}$	c #42231E",
"                                      . + @ # $                                           ",
"                                    % & * = - $ ;                                         ",
"                                  > , ' ) ) ! $ # ~                                       ",
"                                { ] ^ / ( _ ~ . # $ # $                                   ",
"                              : < [ } . . ~ | 1 # # # 2                                   ",
"                              3 4 5 6 7 5 8 9 0 $ # a b                                   ",
"                                c d e f g . # > h i $ j                                   ",
"                                k l 5 m n o 5 p q > r s                                   ",
"                                  t u v w x y 5 z 5 A #                                   ",
"                                  B B z C D E 1 $ q F G                                   ",
"                                  B B H d I J K # > z G                                   ",
"                              l L * M N O P Q R S > T F                                   ",
"                            q $ U V W # X Y Z `  ...+.q                                   ",
"                          l p X @.#...# $.q # %.&.*.=.F                                   ",
"                        -.> ;.>.,.# 5 '.).!.~.{.].^.{ B                                   ",
"                    /.(.-._.:.$ @ <.[.'.5 * q . }.|.1.                                    ",
"                    2.3.4.5.6.+ 7.[.8.l 9.0.G G 1 a.b.c.                                  ",
"                  d.(.k w e.f.B (.g.h.i.*.j.k.k.# . l.m.n./.                              ",
"                o.p.B q.r.B B s./.l t.u.> v.w.> # x.y.$ $ z.A.                            ",
"                B.C.D.E.B B B 3.g.F.G.> > H.I.5 q $ G $ J.# K.                            ",
"              d.B.L.B B M.d.D.3.3.N.O.P.Q.w.R.S.T.$ 5 B * # # /.                          ",
"            U.d.d.d.B V.L.p.B W.3.l X.Y.Z.`.# $  +z { l { F F /.                          ",
"            .+++d.d.B @+#+$+B (.%+{ &+*+=+-+;+( >+B B ,+'+B B 1.!.                        ",
"          N.N.)+!+~+B d.{+]+B ^+(.l /+(+_+# ;+:+<+B B B B [+}+|+1+                        ",
"      2+t 3 3 /.B V.B 3+d.L.B 4+V.k 5+6+7+8+$ 9+0+'+a+b+c+}+c+d+e+                        ",
"      t k 3 f+3.g+h+B i+d.j+B k+/.l+m+n+J.o+# p+q+c+c+r+s+}+}+d.e+                        ",
"  t t+B t k t B t B B B u+d.B B v+t F.w+9 ;+x+y+B B B }+}+z+'+d+e+                        ",
"B B t A+B+u k       B B V.C+M.B B { D+E+F+G+H+I+B '+c+c+J+J+K+L+L.                        ",
"B t B M+N+O+P+        B B L.L.B B Q+R+S+T+U+V+'+B W+X+Y+Z+`+`+d.L.                        ",
"E.B B k B B B B B B   B B ]+ @D.L..@+@@@* #@{ B $@z+`+%@Z+`+&@*@|+'+                      ",
"b+B B B B B B B B B B B B ]+=@B -@L.;@>@).,@!.d+z+'@`+)@!@*@*@~@4+c+                      ",
": k O+B B B B B B B B B B {@]+]+]@L.e+d+L+^@/@(@_@J+`+`+:@*@<@d.L.[@$@                    ",
"                  B B B }@J+B ]@]+|@D.1@2@3@4@5@6@J+`+`+7@1+L.}+k.B B                     ",
"                        J+8@9@B B 0@r+c+a@b@c@d@e@'@`+`+`+v+B B B B B                     ",
"                          c+2@B B B B B f@g@( h@i@c+L+e+j@B B B B B B '+                  ",
"                                B B B B B k@l@m@B B B B B [+'+    B B                     ",
"                                  B B B B n@o@p@T +.+.q@r@T T     B                       ",
"                                  B B B B s@t@#.{ l u@v@+.+.{     B                       ",
"                                  B B B B B w@x@y@F z@z A@5 5     B                       ",
"                                  B B B u B B B@F C@D@E@z z F@    V.                      ",
"                                  B B B k B B T F ; G@H@5 A@z >   V.                      ",
"                                N.B B B B B B B I@J@K@; # q * l   (.                      ",
"                            B .+5 t B B t B B B B L@+ + > 5 z M@l                         ",
"                            B N.+ '+t B B B B G B B 7..+N@7.B ,+T                         ",
"                          3.O@!.N@[.P@P@Q@B B B@R@t ).).N@P@S@B B `+                      ",
"                        L.T@:@`+)@e+p.*@L+K+: }+U@V@W@d+X@*@*@}+}+*@                      ",
"                        d.|+Y@Z@`@e+j+*@!@ #%@B .#+#@###$#*@&@c+c+d+                      ",
"                        d.%#1+1+1+&#e+`+`+ #%@B *#=#Y+-#<@*@&@c+;#`+`+                    ",
"                        L.e+1+1+Y@L+L+!@!@J+c+}+2@>#1@*#*@*@*@,#}+B k+                    ",
"                          e+1+'#)#L+L+d+d+J+c+J+1@=#1@!#*@<@<@*@%#}+B ~#                  ",
"                          p.L+d+{#]#d.e+e+'+'+W@1@=#J+!#%#!@^#`+!@c+k.B v+p.              ",
"                          L./#j+B.o.L.L.(#B q+K+@#_#1@!#U.3+d.L+:#e+p.B B M.              ",
"                          <#[#/#d.d.d.}#L.|#B k.1#1@1@=#d.d.p.p.2#e+p.B B B B             ",
"                            3#L.L.d.d.4#B i+]+B B '+k.}+d.d.o.5#p.$+]+]+]+]+]+]+          ",
"                            d.d.d.d.d.]+B B B : B B '+B T@L.3+6#p.]+]+]+3#L.B B           ",
"                            p.o.d.d.d.L.B B B '+B ]+c+4#|@L.L.e+e+B B L.L.3#i+B 7#        ",
"                            o.p.d.p.d.L.q+B B B B B '+4#'+B B 8#9#B B ]+]+d.i+B B         ",
"                            0#d.d.p./#L.]+i+B B B B B ]+B B B a#b#]+L.]+]+L.B B 4#B       ",
"                            ]+]+c#d.0#d#]+]+]@B ]+B B   B B B M.3+d.3+]+3#L.B B 4#L.      ",
"                            e#]+]+]+]+]+3#L.f#]@L.L.    ]+]+]+B g#e+d.]+e#d.B ]@]+U.      ",
"                            d.p.C.L.L.L.L.L.]+]+#+L.        B 4#h#d.d.p.i#L.]@f#j#B d+    ",
"                            L.o.p.j+/#k#L.L.]+]+]+e#          ]+]@@+l#m#d.]+n#o#j+U.d+    ",
"                            d.d.d.d.d.d.L.e#]+]+]+]+            7#p#k+d.L.3+d.d.d.d.4+d.  ",
"                            L.L.L.]+d#L.e#<#]+$+L.                B V.0#(#d.q#d+L+d.B e+&#",
"                            L.d.d.{+]+]+]+]+]+$+L.                ]+]+L.d.d.r#e+d.d.p.s#e+",
"                            3#L.0#/#(#L.e#<#]+3#L.                    B B B e+:#!@!@!@L+D.",
"                              L.L.L.L.L.L.L.]+t#u#                      v+B !@`+v#L+d+d+w#",
"                              ]+3#t#L.L.e#]+L.L.                        T@c+X+x#`+*@y#d+w#",
"                            d.]+]+]+L.3#]+]+<#t#                      J+W+}+*@*@1+*@z#)#U.",
"                          B e+A#L+d#3#]+]+]+]+]+                      B B B [.B#'.C#D#L+B ",
"                        B '+d+L+!@L.]+3#L.f#]@L.                      B B E#F#G#B B *@4+B ",
"                        }+w#1+*@&#H#C.L.<#]@v+L.                      t I#l G#G#+.+.L+4+  ",
"                      1@|+`+1+~@*@{#p.]+3#L.3#]+                      T l l k.t +.T : d+  ",
"                    }+2@J#X+%@K+:@d+e+]+L.]+e#                        T K#L#B u +.+.K+d+  ",
"                    K+L.M#N#J+1@1@O#L.B B                             u T B t P#{ { K+    ",
"                  K+Q# #R#S#%@Y+T#L.U#B B                             B V#W#X#{ z { D.    ",
"                B < l Y#!@Z#`#%@ $!+B B                               B '+X#.${ { +$      ",
"              B t u T E#B i+k.B B B                                   l B { @$#$z u       ",
"              B B B B B B B B B                                       B B t z z $$3       ",
"              B B [@T B B B B                                         +.l +.{ 5 v 3       ",
"            u +.+.T +.< K+:                                           r@+.%$z l {         ",
"          < { &$+.*$t+B D.                                            l 5 G#+.* .+        ",
"          l =${ +.-$B B                                               { > > ;$G u         ",
"          l >$=$z { B                                                 l z z > z           ",
"      l z t.l l l t                                                   v L z@,$l           ",
"      $$z '$l l )$B                                                   v L !$~$z v         ",
"    { z 5 5 l F.                                                      z {$]$-.-.5         ",
"  { P#'$z z z >                                                       z v v l l < N.      ",
"u { ^$/$z l z * G                                                     l L -.-.L v {       ",
"u +$=$l z l 5 5 +.z                                                   (${ N.P#{ B _${     ",
"N+N+:$< < < < T { l q F                                             .+{ <$t { { .+.+N.<  #",
"P+N+N+N+N+N+N+u < T G y@F                                             N+N+N+N+N+[$t u t }$",
"                B N+N+B t T #                                         N+N+N+N+N+N+N+N+    "};
