/* XPM */
static char * D7_xpm[] = {
"44 93 513 2",
"  	c None",
". 	c #4F413F",
"+ 	c #6F5956",
"@ 	c #846B66",
"# 	c #846A66",
"$ 	c #745D5A",
"% 	c #4E3C3A",
"& 	c #513E3C",
"* 	c #624D49",
"= 	c #7B625E",
"- 	c #302726",
"; 	c #4C3938",
"> 	c #402F2D",
", 	c #5C4846",
"' 	c #7E615D",
") 	c #856B67",
"! 	c #856B65",
"~ 	c #836963",
"{ 	c #867069",
"] 	c #866E68",
"^ 	c #473735",
"/ 	c #423230",
"( 	c #453432",
"_ 	c #7C6662",
": 	c #836E69",
"< 	c #7F615C",
"[ 	c #87716A",
"} 	c #7E5F5A",
"| 	c #544442",
"1 	c #3B2B2A",
"2 	c #4B3836",
"3 	c #856C67",
"4 	c #89736D",
"5 	c #81645E",
"6 	c #684E4A",
"7 	c #331715",
"8 	c #65514E",
"9 	c #030000",
"0 	c #4C3D3C",
"a 	c #473635",
"b 	c #483634",
"c 	c #836D69",
"d 	c #8A756F",
"e 	c #8A7570",
"f 	c #856C66",
"g 	c #826560",
"h 	c #311E1C",
"i 	c #302120",
"j 	c #000000",
"k 	c #221B1A",
"l 	c #473938",
"m 	c #2E2120",
"n 	c #170704",
"o 	c #805F5B",
"p 	c #856C65",
"q 	c #806964",
"r 	c #93847C",
"s 	c #8A766F",
"t 	c #8B766F",
"u 	c #250000",
"v 	c #0A0605",
"w 	c #020101",
"x 	c #0B0707",
"y 	c #2F201F",
"z 	c #764D4A",
"A 	c #76625C",
"B 	c #78534E",
"C 	c #846C64",
"D 	c #836962",
"E 	c #81635E",
"F 	c #0B0605",
"G 	c #372827",
"H 	c #7F6A65",
"I 	c #221615",
"J 	c #826762",
"K 	c #754F4A",
"L 	c #3C1D1B",
"M 	c #050000",
"N 	c #A1996B",
"O 	c #94948F",
"P 	c #4F403F",
"Q 	c #3C2B29",
"R 	c #3E2D2C",
"S 	c #4D3C3A",
"T 	c #160502",
"U 	c #210C0A",
"V 	c #2B1210",
"W 	c #080000",
"X 	c #0D0201",
"Y 	c #453332",
"Z 	c #4C3B39",
"` 	c #4D3B38",
" .	c #1C1313",
"..	c #4A3837",
"+.	c #3C2C2B",
"@.	c #160807",
"#.	c #181211",
"$.	c #161010",
"%.	c #171110",
"&.	c #1F1413",
"*.	c #2E1F1E",
"=.	c #443231",
"-.	c #402F2E",
";.	c #595954",
">.	c #91918C",
",.	c #453433",
"'.	c #40302F",
").	c #2D1F1E",
"!.	c #252B2E",
"~.	c #3D2C2B",
"{.	c #040000",
"].	c #010000",
"^.	c #1D1917",
"/.	c #3C3231",
"(.	c #170C0B",
"_.	c #3A2C2B",
":.	c #463634",
"<.	c #564240",
"[.	c #3B3839",
"}.	c #564340",
"|.	c #392927",
"1.	c #443837",
"2.	c #312725",
"3.	c #464344",
"4.	c #585352",
"5.	c #211514",
"6.	c #705E5D",
"7.	c #634F4C",
"8.	c #392A29",
"9.	c #2F2626",
"0.	c #372D2D",
"a.	c #453B37",
"b.	c #4A3D3A",
"c.	c #372826",
"d.	c #2B2525",
"e.	c #644E4C",
"f.	c #7D6661",
"g.	c #221614",
"h.	c #4E4A4C",
"i.	c #483635",
"j.	c #3D3332",
"k.	c #2B2221",
"l.	c #292120",
"m.	c #181717",
"n.	c #362725",
"o.	c #86706B",
"p.	c #433430",
"q.	c #232222",
"r.	c #535052",
"s.	c #483736",
"t.	c #463935",
"u.	c #423936",
"v.	c #544441",
"w.	c #060100",
"x.	c #190805",
"y.	c #8B7770",
"z.	c #61514C",
"A.	c #170603",
"B.	c #714B46",
"C.	c #6B4841",
"D.	c #382522",
"E.	c #443332",
"F.	c #383130",
"G.	c #64514D",
"H.	c #4A2B27",
"I.	c #593C35",
"J.	c #422622",
"K.	c #716D6D",
"L.	c #735B5B",
"M.	c #180C0B",
"N.	c #020000",
"O.	c #120402",
"P.	c #5A4944",
"Q.	c #786760",
"R.	c #816763",
"S.	c #77605D",
"T.	c #59403D",
"U.	c #724D47",
"V.	c #452E29",
"W.	c #2A1210",
"X.	c #533F3D",
"Y.	c #675553",
"Z.	c #AD9899",
"`.	c #B29A9B",
" +	c #3E0000",
".+	c #130909",
"++	c #3C2D2A",
"@+	c #816F69",
"#+	c #493A37",
"$+	c #180E0E",
"%+	c #090101",
"&+	c #0B0A0A",
"*+	c #0E0301",
"=+	c #090403",
"-+	c #4C0000",
";+	c #2E0000",
">+	c #9C8B8D",
",+	c #A39192",
"'+	c #854D47",
")+	c #160E0E",
"!+	c #7E6962",
"~+	c #221513",
"{+	c #170807",
"]+	c #8E7C74",
"^+	c #0C0000",
"/+	c #372927",
"(+	c #6A6465",
"_+	c #676263",
":+	c #797172",
"<+	c #908485",
"[+	c #271D1C",
"}+	c #765F5C",
"|+	c #87746D",
"1+	c #7B6862",
"2+	c #46322E",
"3+	c #584442",
"4+	c #8F8484",
"5+	c #8B7B7B",
"6+	c #635454",
"7+	c #837879",
"8+	c #918385",
"9+	c #897273",
"0+	c #1E1717",
"a+	c #8B766E",
"b+	c #8B7871",
"c+	c #88736D",
"d+	c #786560",
"e+	c #4A3937",
"f+	c #8A7F80",
"g+	c #8E8384",
"h+	c #5B4E4E",
"i+	c #776363",
"j+	c #8B7F80",
"k+	c #928283",
"l+	c #53403E",
"m+	c #725D5A",
"n+	c #89756F",
"o+	c #928179",
"p+	c #8C7872",
"q+	c #201615",
"r+	c #23110D",
"s+	c #140000",
"t+	c #1E0000",
"u+	c #7A7172",
"v+	c #7B7373",
"w+	c #600E0F",
"x+	c #846062",
"y+	c #968788",
"z+	c #918384",
"A+	c #695752",
"B+	c #2C1210",
"C+	c #331C18",
"D+	c #755F5F",
"E+	c #6B6364",
"F+	c #8E8082",
"G+	c #5C0303",
"H+	c #8A7E7F",
"I+	c #7C7374",
"J+	c #392928",
"K+	c #7F6C66",
"L+	c #512D27",
"M+	c #614C4A",
"N+	c #887D7E",
"O+	c #756D6E",
"P+	c #7E7576",
"Q+	c #97888B",
"R+	c #554D4D",
"S+	c #534342",
"T+	c #574543",
"U+	c #7E6C67",
"V+	c #8D7A73",
"W+	c #554341",
"X+	c #271917",
"Y+	c #3D1F1A",
"Z+	c #42201B",
"`+	c #4C2923",
" @	c #7C5853",
".@	c #997E7B",
"+@	c #897B7A",
"@@	c #817677",
"#@	c #726A6B",
"$@	c #4A4546",
"%@	c #5B5859",
"&@	c #604C4C",
"*@	c #100000",
"=@	c #544344",
"-@	c #656061",
";@	c #382827",
">@	c #876F6A",
",@	c #73605C",
"'@	c #482F2B",
")@	c #1C1B1B",
"!@	c #484343",
"~@	c #1A1819",
"{@	c #423737",
"]@	c #381D19",
"^@	c #766D6E",
"/@	c #807576",
"(@	c #6C6263",
"_@	c #5E5859",
":@	c #333030",
"<@	c #222020",
"[@	c #322728",
"}@	c #726B6C",
"|@	c #67514E",
"1@	c #88726B",
"2@	c #4F3330",
"3@	c #120F0D",
"4@	c #5B0000",
"5@	c #A58C8E",
"6@	c #745859",
"7@	c #92696A",
"8@	c #998A8D",
"9@	c #7D7273",
"0@	c #4D4747",
"a@	c #111010",
"b@	c #1E1513",
"c@	c #4C494A",
"d@	c #030202",
"e@	c #594D4C",
"f@	c #4C2722",
"g@	c #110E0E",
"h@	c #7A7273",
"i@	c #746667",
"j@	c #8B8081",
"k@	c #918283",
"l@	c #908182",
"m@	c #3E2D2E",
"n@	c #1C1616",
"o@	c #171616",
"p@	c #140402",
"q@	c #0B0000",
"r@	c #120000",
"s@	c #262525",
"t@	c #353334",
"u@	c #635F5F",
"v@	c #6B6362",
"w@	c #5D5859",
"x@	c #6C6667",
"y@	c #756C6D",
"z@	c #777071",
"A@	c #7D7475",
"B@	c #756E6F",
"C@	c #6D6667",
"D@	c #574847",
"E@	c #837A7B",
"F@	c #655E5E",
"G@	c #504C4E",
"H@	c #696364",
"I@	c #080707",
"J@	c #6B6566",
"K@	c #464242",
"L@	c #0D0000",
"M@	c #1D0000",
"N@	c #270100",
"O@	c #421B17",
"P@	c #433939",
"Q@	c #1A1616",
"R@	c #4F4C4C",
"S@	c #574647",
"T@	c #291A1B",
"U@	c #6A3D3C",
"V@	c #3C1110",
"W@	c #1E0E0D",
"X@	c #231C1B",
"Y@	c #6E6869",
"Z@	c #070000",
"`@	c #090000",
" #	c #120B0B",
".#	c #766F70",
"+#	c #2F2D2E",
"@#	c #3C3A3B",
"##	c #200505",
"$#	c #1E0C0B",
"%#	c #271A19",
"&#	c #0C0100",
"*#	c #41302F",
"=#	c #170E0E",
"-#	c #574442",
";#	c #473C3B",
">#	c #433533",
",#	c #2C2424",
"'#	c #2F2322",
")#	c #1E1716",
"!#	c #171212",
"~#	c #595557",
"{#	c #211C1C",
"]#	c #444243",
"^#	c #756D6F",
"/#	c #0A0000",
"(#	c #310807",
"_#	c #9C8C8F",
":#	c #938587",
"<#	c #361714",
"[#	c #1B0000",
"}#	c #715858",
"|#	c #E7B5B8",
"1#	c #C7A7AA",
"2#	c #71423C",
"3#	c #775451",
"4#	c #3D1C18",
"5#	c #8D8182",
"6#	c #877C7D",
"7#	c #211A1A",
"8#	c #B09A9B",
"9#	c #2B2121",
"0#	c #867B7C",
"a#	c #908384",
"b#	c #423E3F",
"c#	c #4C4949",
"d#	c #100301",
"e#	c #282424",
"f#	c #454142",
"g#	c #615C5C",
"h#	c #4B4748",
"i#	c #2B2929",
"j#	c #413E3E",
"k#	c #575455",
"l#	c #524F50",
"m#	c #1F1C1D",
"n#	c #090808",
"o#	c #231F1F",
"p#	c #171516",
"q#	c #151111",
"r#	c #302C2C",
"s#	c #171515",
"t#	c #020202",
"u#	c #191717",
"v#	c #1C1818",
"w#	c #221E1F",
"x#	c #2A2727",
"y#	c #363333",
"z#	c #3F3B3C",
"A#	c #312E2E",
"B#	c #1F1B1B",
"C#	c #0C0A09",
"D#	c #463838",
"E#	c #605C5D",
"F#	c #2E2B2B",
"G#	c #3A3636",
"H#	c #312D2E",
"I#	c #1A1717",
"J#	c #807677",
"K#	c #3D393A",
"L#	c #A49192",
"M#	c #383535",
"N#	c #625C5D",
"O#	c #4A4647",
"P#	c #2F2C2C",
"Q#	c #4E494A",
"R#	c #6D6768",
"S#	c #544F50",
"T#	c #5F5757",
"U#	c #2F2A2B",
"V#	c #7F7576",
"W#	c #170B09",
"X#	c #6F6869",
"Y#	c #646061",
"Z#	c #A39193",
"`#	c #8B7E81",
" $	c #716A6B",
".$	c #786F70",
"+$	c #98898C",
"@$	c #8C7F81",
"#$	c #181414",
"$$	c #52221B",
"%$	c #948788",
"&$	c #535050",
"*$	c #131212",
"=$	c #343132",
"-$	c #272525",
";$	c #343031",
">$	c #050302",
",$	c #0F0302",
"'$	c #585556",
")$	c #050505",
"!$	c #150909",
"~$	c #585050",
"{$	c #2E2D2D",
"]$	c #161212",
"^$	c #1A0E0D",
"/$	c #201413",
"($	c #140908",
"_$	c #423635",
":$	c #382C2B",
"<$	c #352726",
"[$	c #130301",
"}$	c #070403",
"|$	c #060000",
"1$	c #4A3B3A",
"2$	c #4E403F",
"3$	c #241817",
"4$	c #372C2B",
"5$	c #806B69",
"6$	c #0C0201",
"7$	c #100C0B",
"8$	c #443938",
"9$	c #2A1E1D",
"0$	c #2B1E1D",
"a$	c #0F0403",
"b$	c #453A39",
"c$	c #0B0201",
"d$	c #332928",
"e$	c #655553",
"f$	c #0E0302",
"g$	c #160A09",
"h$	c #675655",
"i$	c #3F2F2E",
"j$	c #473534",
"k$	c #090504",
"l$	c #281A19",
"m$	c #0C0302",
"n$	c #332827",
"                              . + @ # $                                                 ",
"                            % & * = # $ # @                                             ",
"                        - ; > , ' ) ! ~ @ { ] $                                         ",
"                      - ^ / ( # @ _ : < @ [ @ [ }                                       ",
"                      - | 1 2 @ 3 4 5 } # @ 6 7 8                                       ",
"                      9 0 a b # c d e f g # 7 h i                                       ",
"                      j k l m n o p q r s t } u i i                                     ",
"                      v w x y i z A B C D # 8 i E i                                     ",
"                      F F F G i j H I J } K L M N O                                     ",
"                          F P Q R S T U V i L j W j                                     ",
"                          F X Y Z `  ...+.i @.j j j                                     ",
"                        #.$.%.&.*.+.=.-.+.i j N ;.>.                                    ",
"                      X ,.'.).+.....!.~.2 ..{.].j ^.t                                   ",
"                    /.(._.:.<.- ....[.}.|.+.1.2.t t )                                   ",
"                  X /.3.4.5.i 6.$ U 7.8.9.0.a.b.c.                                      ",
"                  d.e.f.g.t # } @ h.8 ..i.j.k.l.                                        ",
"                m.n.o.p.T [ @ } K q.r.U s.t.u.v.                                        ",
"              w.x.y.z.A.M $ $ B.K C.D.E.F.G.H.I.J.    h.K.L.                            ",
"          M.N.O.P.Q./ T T # R.S.T.U.V.N.I I +.W.X.Y.  j Z.`. +                          ",
"          .+j ++@+#+$+M +.o.@ # +.8 N.%++.&+*+=+h $ -+;+>+,+'+                          ",
"        .+w )+z.!+~+M {+!.]+[ # i ^+j j j 8 j d.j #./+(+_+:+<+                          ",
"      j j [+}+|+1+2+8 N.j j j X j %+..3+7 j ].4+5+6+7+8+9+                              ",
"      j 0+3+a+b+c+d+e+W j j j j j j j j j )+I f+g+h+i+j+k+                              ",
"    - ..l+m+n+o+p+y.q+j j ].r+].j j s+t+^+M.d.u+v+w+x+y+z+                              ",
"    M.....y.]+y.A+T j j ].].j j ].j t+B+C+D+E+7+F+G+ +H+I+                              ",
"    I J+..b+]+K+..3+I C+C+r+].].].;+t+L+M+N+O+P+j+-+;+Q+R+x+                            ",
"    S+i T+U+V+W+3+X+M.Y+C+].j j Z+`+ @.@+@@@#@$@%@&@*@=@-@(+                            ",
"  i i ;@>@,@'@L M.)@!@j j j ~@{@]@Z+&@^@/@(@_@:@<@&+j [@}@(+                            ",
"i |@M +.1@2@U U j j 3@j ;+4@5@6@7@8@7+9@^@0@:@a@&+:@j b@(+c@                            ",
"..8 j d@A+e@f@  g@j j j j j h@i@x+j@k@l@7+m@*@;+].j ].n@j o@          T p@q@r@q@        ",
"s@m.t@u@v@w@      j j j j j x@y@r+z@A@B@C@*@].*@*@M ].j &+j D@D@T ^+j M q@{.j V U       ",
"m.m.m.E@F@G@      j j j j j %@H@I@:+:+J@K@3@j 9 L@*@].j [.j 9 U M@N@N@O@L @.j +.8 V V   ",
"j j K.- ) P@7+        j j Q@b@R@S@T@:@].*@t+*@j j  +j j j M j j M q@U M j {+M O@U@V@W@V ",
"j j M /.X@M.7+          j j j n@%@Y@g@j j j j j j j M j j j       j N@7 V M M Z@j M `@j ",
"F N.M +. #i .#          j j j j +#@#j j j j j j j j j j j j           q@U T j j ##$#M L ",
"  `@j *+i %#              j j j j j j j j j j j j j j j j j                   T U   U   ",
"  j j j M.q@                r+j j X 9 &#T W j j j j j j   j                     V       ",
"  j j j X                   j j j X ^+p@T I j j j j j     j                             ",
"  j N@W ^+                  F j q+I i *#+.8 ..%+j N.j       j                           ",
"    N@N@M.                  j j D@+.8.i +.$ # M.N.=#j                                   ",
"    U V i                     j D@..-#+.+.[ ] 8 ^+..N.                                  ",
"    j 9 I                     ;#8 $ $ $ 8 ,.+.8 i M.>#N.                                ",
"    j j W M.              j ,#M.i i i i i +.% # I M.j '#                                ",
"    j j j I               d.M.)#!#K.j #.X ].j ..+.^+)+j                                 ",
"    U @.j - j           b@.#u@~#u@E@P@q@j j *+u@{#M q@j ]#                              ",
"    q@L V I V           !@.#<+7+Y@.#<+t+t+t+~#~#^#M /#j h.]#                            ",
"    q@(#M@i 8           !@(+<+7+h@.#_#t+*@*@<+y@~#N.M j ]#.#                            ",
"    j U M r@8 N@        !@7+_#:#7+7+_#<#[#*@}#|#1# @2#3#7+                              ",
"    j *+T U 4#T 4#      !@7+<+<+<+<+5#6#Z+].j 7#(+8#_#7+5#                              ",
"    j ].{.M L M N@*@    9#(+.#7+0#<+7+a#_#;+t+j !@%@1#8#<+j                             ",
"    j M j M 7 j j j  +  j b#c#R@h@7+:#_#_#<+C+*@*@9#R@R@R@R@R@9#                        ",
"    j j M d#N@T           e#f#R@b#:@R@g#(+(+(+h#b#j j i#Q@:@:@:@                        ",
"    j j j *+V M             :@:@b#:@j#R@R@k#l#b#m#n#j j j n#Q@o#:@                      ",
"    j j j j j j T             o#:@:@:@:@f#R@b#p#n#g@g@j Q@Q@Q@Q@b#h#                    ",
"    j   j j j j T               :@a@q#Q@e#b#m#j j Q@:@<@j n#Q@Q@r#b#:@                  ",
"    j   j   j   N.              :@s#t#q#Q@b#j j u#Q@v#:@g@j g@Q@Q@Q@Q@                  ",
"    j   j   j                   b#:@j j j :@j n#Q@Q@b#w#g@j j j <@x#Q@                  ",
"                                :@:@j j j <@Q@Q@Q@Q@y#z#j j j j j j i#                  ",
"                                A#B#Q@Q@g@j g@Q@Q@Q@:@:@j j C#3@g@j j R@                ",
"                                Q@Q@Q@v#:@j j :@Q@w#b#:@j j R@j D#E#C@.#                ",
"                                :@F#Q@:@Q@Q@Q@Q@Q@G#H#I#n#<@R@!@[@(+.#J#8#              ",
"                                b#b#:@:@F#Q@Q@j Q@b#Q@j g@b#%@%@j K@(+7+<+              ",
"                                :@:@:@:@F#Q@B#:@Q@:@g@j Q@:@:@b#j j @#k#R@.#            ",
"                                  B#F#F#v#Q@F#K#b#j j <@b#b#E#(+<@j j R@R@.#L#          ",
"                                  Q@Q@Q@Q@Q@x#b#b#j i#Q@b#M#N#O#b#P#j Q#%@R#.#          ",
"                                  :@:@:@x#Q@Q@b#b#j (+7+j Q@b#S#(+.#T#j U#H@7+          ",
"                                    :@:@x#Q@Q@b#R@[@(+7+  %@%@(+V#7+(+W#j 7+X#          ",
"                                    Q@Q@Q@Q@:@z#b#!@Y#.#(+<+7+.#7+h@.#=@].7+(+          ",
"                                  :@:@Q@Q@Q@v#H#b#R@.#V#_#Z#8#`#(+ $_#*@].!@[@          ",
"                              R@(+b#Q@Q@Q@Q@Q@Q@Q@R@%@R@.#8#.$(+6#+$@$j j j             ",
"                            !@%@%@b#e#Q@Q@Q@#$j e#f#c#R@$$2#b#.#+$%$(+j j j             ",
"                            (+%@&$f#b#:@:@B#*$=$b#b#i#j j j j -$7+%@].j j               ",
"                          %@!@!@R@R@b#F#Q@x#K#e#Q@<@j q@N.W j j q.(+j j                 ",
"                        b#(+j r+%@G#w#Q@Q@:@:@Q@;$j j >$M.,${.j ~#(+=$j                 ",
"                      R@'$:@].].f#Q@q#)$j j j j     j .+M.!$^+X !#~$b@                  ",
"                      f#R@!@[@Q@q#)$j j j j j     j %+X i i N.X j b@r+                  ",
"                    j n#{$]$j j j j j j j j j     j M.^$I I w.X j b@b@                  ",
"                  j j j j j j j j j j j           X M./$I M.X ($j r+                    ",
"                  j j j j j j j j j               I M.I ;#I - #.j                       ",
"                  j j j j j j j j j               X i i _$'#- #.                        ",
"              j j j j j j F j j                 X X M.:$<$;#].j                         ",
"              j j N.j j j j j                   ^+[$i ;#i - j                           ",
"              j ].N.j j }$F                   - |$^+1$i %#;#j                           ",
"          N.N.N.].j j j                       /.2$j j ;#X X                             ",
"          N.N.N.N.F F                         3$4$5$M N.].j                             ",
"        X 6${.N.7$F                           8$9$i 0$+.j j                             ",
"      X X X X a$M.                            j.b$+.+.+.j j                             ",
"    X X X X X M.M.c$9                       #.d$/.D@e$5$i 8 ..                          ",
"    X X X X X f$g$N.6$                      X@- M.M.M.I D@h$....                        ",
"    j N.N.N.N.w.X X X X X M.                /.;#;#/././.D@D@3+i$j$                      ",
"        F j F F j j ].N.N.N.j             k$w j N.N.X X I I I l$+.i +.                  ",
"                j j j j N.N.M.X           w k$m$X@- - - /./.n$I I i 0$+.                ",
"                          j j j -           F F F F F F F F F j N.N.X ;#e$I             "};
