/* XPM */
static char * health_bar_xpm[] = {
"57 36 2 1",
" 	c None",
".	c #FD0000",
"                                                         ",
"                                                         ",
"                                                         ",
"                                                         ",
"                                                         ",
"                                                         ",
"                                                         ",
"                                                         ",
"                                                         ",
"                                                         ",
"                                                         ",
"                                                         ",
"                                                         ",
"                                                         ",
"                                                         ",
"                                                         ",
"                                                         ",
"                                                         ",
"                                                         ",
"                                                         ",
"                                                         ",
"                                                         ",
"                                                         ",
"                                                         ",
"                                                         ",
"                                                         ",
"                                                         ",
"   ...................................................   ",
"   ...................................................   ",
"   ...................................................   ",
"   ...................................................   ",
"   ...................................................   ",
"   ...................................................   ",
"                                                         ",
"                                                         ",
"                                                         "};
