/* XPM */
static char * stamina_bar_xpm[] = {
"57 36 4 1",
" 	c None",
".	c #FF0000",
"+	c #FFD800",
"@	c #00FF21",
"                                                         ",
"                                                         ",
"                                                         ",
"                                                         ",
"                                                         ",
"                                                         ",
"                                                         ",
"                                                         ",
"                                                         ",
"                                                         ",
"                                                         ",
"                                                         ",
"                                                         ",
"                                                         ",
"                                                         ",
"   . . . . . + + + + + + + + + @ @ @ @ @ @ @ @ @ @ @ @   ",
"   . . . . . + + + + + + + + + @ @ @ @ @ @ @ @ @ @ @ @   ",
"   . . . . . + + + + + + + + + @ @ @ @ @ @ @ @ @ @ @ @   ",
"   . . . . . + + + + + + + + + @ @ @ @ @ @ @ @ @ @ @ @   ",
"   . . . . . + + + + + + + + + @ @ @ @ @ @ @ @ @ @ @ @   ",
"   . . . . . + + + + + + + + + @ @ @ @ @ @ @ @ @ @ @ @   ",
"                                                         ",
"                                                         ",
"                                                         ",
"                                                         ",
"                                                         ",
"                                                         ",
"                                                         ",
"                                                         ",
"                                                         ",
"                                                         ",
"                                                         ",
"                                                         ",
"                                                         ",
"                                                         ",
"                                                         "};
