/* XPM */
static char * status_xpm[] = {
"57 36 113 2",
"  	c None",
". 	c #272727",
"+ 	c #1C1C1C",
"@ 	c #202020",
"# 	c #212121",
"$ 	c #1D1D1D",
"% 	c #323232",
"& 	c #686868",
"* 	c #797979",
"= 	c #7F7F7F",
"- 	c #838383",
"; 	c #8B8B8B",
"> 	c #636363",
", 	c #5F5F5F",
"' 	c #383A3A",
") 	c #3D3F3F",
"! 	c #434545",
"~ 	c #414343",
"{ 	c #3F4141",
"] 	c #404242",
"^ 	c #3A3C3C",
"/ 	c #232525",
"( 	c #666666",
"_ 	c #585858",
": 	c #4B4B4B",
"< 	c #474747",
"[ 	c #434343",
"} 	c #4F4F4F",
"| 	c #717171",
"1 	c #343434",
"2 	c #3C3C3C",
"3 	c #454545",
"4 	c #494949",
"5 	c #4E4E4E",
"6 	c #656565",
"7 	c #0B0B0B",
"8 	c #131313",
"9 	c #6B6B6B",
"0 	c #282828",
"a 	c #373737",
"b 	c #606060",
"c 	c #575757",
"d 	c #2F2F2F",
"e 	c #242424",
"f 	c #939393",
"g 	c #979797",
"h 	c #232323",
"i 	c #777777",
"j 	c #1B1B1B",
"k 	c #2B2B2B",
"l 	c #6A6A6A",
"m 	c #6F6F6F",
"n 	c #565656",
"o 	c #414141",
"p 	c #4D4D4D",
"q 	c #464646",
"r 	c #4A4A4A",
"s 	c #555555",
"t 	c #1F1F1F",
"u 	c #5E5E5E",
"v 	c #6D6D6D",
"w 	c #727272",
"x 	c #757575",
"y 	c #7A7A7A",
"z 	c #828282",
"A 	c #848484",
"B 	c #878787",
"C 	c #888888",
"D 	c #898989",
"E 	c #767676",
"F 	c #696969",
"G 	c #676767",
"H 	c #3B3B3B",
"I 	c #3F3F3F",
"J 	c #303030",
"K 	c #3A3A3A",
"L 	c #333333",
"M 	c #313131",
"N 	c #2A2A2A",
"O 	c #292929",
"P 	c #191919",
"Q 	c #626262",
"R 	c #2D2D2D",
"S 	c #2E2E2E",
"T 	c #353535",
"U 	c #363636",
"V 	c #2C2C2C",
"W 	c #4C4C4C",
"X 	c #000000",
"Y 	c #525252",
"Z 	c #3E3E3E",
"` 	c #0E0E0E",
" .	c #5C0000",
"..	c #0F0F0F",
"+.	c #161616",
"@.	c #5C4E00",
"#.	c #005C0C",
"$.	c #0A0A0A",
"%.	c #101010",
"&.	c #1E1E1E",
"*.	c #171717",
"=.	c #515151",
"-.	c #3D3D3D",
";.	c #545454",
">.	c #595959",
",.	c #5A5A5A",
"'.	c #5C5C5C",
").	c #646464",
"!.	c #6C6C6C",
"~.	c #707070",
"{.	c #5D5D5D",
"].	c #505050",
"^.	c #660000",
"  . + @ # . . . . $ % & * = = = - ; ; ; ; ; ; ; ; ; ; ; ; ; ; ; ; ; ; ; ; ; ; ; ; ; ; ; ; ; ; ; ; ; ; ; ; ; > ,   ",
"' ) ! ~ { { ~ ] ^ / ( _ : < [ < < } : } } } } : } } < [ < < } < [ < : } : } } } : : } } } } : } } } } : } < < } | ",
"1 2 [ 3 4 4 } } 5 < 6 } 7 8 8 8 8 8 8 8 8 8 8 8 8 8 8 8 8 8 8 8 8 8 8 8 8 8 8 8 8 8 8 8 8 8 8 8 8 8 8 8 8 8 7 } 9 ",
"0 a a a b a a a a a 9 c . . d d d d d d d d d d d d d d d d d d d d d d d d d d d d d d d d d d d d d d d d . c 9 ",
"e a f = g = ; ; d a > } h . a a a a a a a a a a a a a a a a a a a a a a a a a a a a a a a a a a a a a a a a h } > ",
"0 a i 8 b j j h d a > c h . d d d d d d d d d d d d d d d d d d d d d d d d d d d d d d d d d d d d d d d d h c > ",
"k a i i g g g g . d > } . d a a a a a a a a a a a a a a a a a a a a a a a a a a a a a a a a a a a a a a a a . } > ",
"d a j j b j j g . . > } h . d d d d d d d d d d d d d d d d d d d d d d d d d d d d d d d d d d d d d d d d h } > ",
"d a ; i g g i - . # l } 7 8 8 8 8 8 8 8 8 8 8 8 8 8 8 8 8 8 8 8 8 8 8 8 8 8 8 8 8 8 8 8 8 8 8 8 8 8 8 8 8 8 7 } l ",
"d j j j b 8 8 . $ $ m n 4 3 o 3 3 5 4 5 5 5 5 4 5 p q o q q 5 < [ < : } : } } } : : } } } } : } } } } : } < r s | ",
"d d . . . . . h t $ u v w x x x y z - - - - - - - - A A A A A B B B B B B C C C C C C C C C C C C D C C D D E F G ",
"  [ [ H H H H a d 0 I J K L L L % % M M M M M J J J J J J d d N N O O O O O 0 0 0 O O O O O O N N N N N k k J P   ",
"  } b Q ( ( ( ( F v w w w w w w w w w w w w w w w w w w w w w w w w w w w w w w w w w w w w w w w w w w w 9 r q   ",
"p I % J R N k S S M T % L U U U U U 1 % T U U S N S S U % U U U % U U S U % % U U U U % U U U U % U S S N V S U _ ",
"W U X X X X X X X X X X X X X X X X X X X X X X X X X X X X X X X X X X X X X X X X X X X X X X X X X X X X X U Y ",
"Y Z `  ... .+. .+. .+. .+.@.+.@.+.@.+.@.+.@.+.@.+.@.+.@.+.@.+.#.+.#.+.#.+.#.+.#.+.#.+.#.+.#.+.#.+.#.+.#.+.#.` Z Y ",
"r U $. .%. .&. .&. .&. .&.@.&.@.&.@.&.@.&.@.&.@.&.@.&.@.&.@.&.#.&.#.&.#.&.#.&.#.&.#.&.#.&.#.&.#.&.#.&.#.&.#.$.U r ",
"r Z $. ... .+. .+. .+. .+.@.+.@.+.@.+.@.+.@.+.@.+.@.+.@.+.@.+.#.+.#.+.#.+.#.+.#.+.#.+.#.+.#.+.#.+.#.+.#.+.#.$.Z r ",
"r Z $. ... .+. .+. .+. .+.@.+.@.+.@.+.@.+.@.+.@.+.@.+.@.+.@.+.#.+.#.+.#.+.#.+.#.+.#.+.#.+.#.+.#.+.#.+.#.+.#.$.Z r ",
"r U `  .*. .&. .&. .&. .&.@.&.@.&.@.&.@.&.@.&.@.&.@.&.@.&.@.&.#.&.#.&.#.&.#.&.#.&.#.&.#.&.#.&.#.&.#.&.#.&.#.` U r ",
"r U $. ... .+. .+. .+. .+.@.+.@.+.@.+.@.+.@.+.@.+.@.+.@.+.@.+.#.+.#.+.#.+.#.+.#.+.#.+.#.+.#.+.#.+.#.+.#.+.#.$.U r ",
"=.U X X X X X X X X X X X X X X X X X X X X X X X X X X X X X X X X X X X X X X X X X X X X X X X X X X X X X U =.",
"n -.J S k 0 O V V J 1 J % T T T T T % J 1 1 1 R 0 R R T M T T T M T T S U % % U U U U % U U U U % U S S N S M 2 _ ",
"  ;.>.,.'.'.'.'.b ).F F l l l l l l l l l l l 9 9 9 9 9 !.!.!.!.!.!.!.!.m m m m m m m m m m ~.m m ~.~.~.~.> {.].  ",
"  } b Q ( ( ( ( F v w w w w w w w w w w w w w w w w w w w w w w w w w w w w w w w w w w w w w w w w w w w 9 r q   ",
"p I % J R N k S S M T % L U U U U U 1 % T U U S N S S U % U U U % U U S U % % U U U U % U U U U % U S S N V S U _ ",
"W U X X X X X X X X X X X X X X X X X X X X X X X X X X X X X X X X X X X X X X X X X X X X X X X X X X X X X U Y ",
"Y Z ` ^.^.^.^.^.^.^.^.^.^.^.^.^.^.^.^.^.^.^.^.^.^.^.^.^.^.^.^.^.^.^.^.^.^.^.^.^.^.^.^.^.^.^.^.^.^.^.^.^.^.^.` Z Y ",
"r U $.^.^.^.^.^.^.^.^.^.^.^.^.^.^.^.^.^.^.^.^.^.^.^.^.^.^.^.^.^.^.^.^.^.^.^.^.^.^.^.^.^.^.^.^.^.^.^.^.^.^.^.$.U r ",
"r Z $.^.^.^.^.^.^.^.^.^.^.^.^.^.^.^.^.^.^.^.^.^.^.^.^.^.^.^.^.^.^.^.^.^.^.^.^.^.^.^.^.^.^.^.^.^.^.^.^.^.^.^.$.Z r ",
"r Z $.^.^.^.^.^.^.^.^.^.^.^.^.^.^.^.^.^.^.^.^.^.^.^.^.^.^.^.^.^.^.^.^.^.^.^.^.^.^.^.^.^.^.^.^.^.^.^.^.^.^.^.$.Z r ",
"r U ` ^.^.^.^.^.^.^.^.^.^.^.^.^.^.^.^.^.^.^.^.^.^.^.^.^.^.^.^.^.^.^.^.^.^.^.^.^.^.^.^.^.^.^.^.^.^.^.^.^.^.^.` U r ",
"r U $.^.^.^.^.^.^.^.^.^.^.^.^.^.^.^.^.^.^.^.^.^.^.^.^.^.^.^.^.^.^.^.^.^.^.^.^.^.^.^.^.^.^.^.^.^.^.^.^.^.^.^.$.U r ",
"=.U X X X X X X X X X X X X X X X X X X X X X X X X X X X X X X X X X X X X X X X X X X X X X X X X X X X X X U =.",
"n -.J S k 0 O V V J 1 J % T T T T T % J 1 1 1 R 0 R R T M T T T M T T S U % % U U U U % U U U U % U S S N S M 2 _ ",
"  ;.>.,.'.'.'.'.b ).F F l l l l l l l l l l l 9 9 9 9 9 !.!.!.!.!.!.!.!.m m m m m m m m m m ~.m m ~.~.~.~.> {.].  "};
