/* XPM */
static char * 2_xpm[] = {
"3 5 2 1",
" 	c None",
".	c #CCCCCC",
"...",
"  .",
"...",
".  ",
"..."};
