/* XPM */
static char * 5_xpm[] = {
"3 5 2 1",
" 	c None",
".	c #CCCCCC",
"...",
".  ",
"...",
"  .",
"..."};
