/* XPM */
static char * 7_xpm[] = {
"3 5 2 1",
" 	c None",
".	c #CCCCCC",
"...",
"  .",
"  .",
"  .",
"  ."};
