/* XPM */
static char * ammo_xpm[] = {
"45 31 23 1",
" 	c None",
".	c #1B1B1B",
"+	c #373737",
"@	c #3B3B3B",
"#	c #434343",
"$	c #4B4B4B",
"%	c #4F4F4F",
"&	c #575757",
"*	c #5B5B5B",
"=	c #8B8B8B",
"-	c #838383",
";	c #7F7F7F",
">	c #777777",
",	c #6F6F6F",
"'	c #6B6B6B",
")	c #636363",
"!	c #474747",
"~	c #2F2F2F",
"{	c #272727",
"]	c #939393",
"^	c #979797",
"/	c #131313",
"(	c #232323",
".+@#######################################$%&",
"*======--=========================---;>>>>>==",
"*,',,',')))&&%&%&&&$%&&&&&%%%$$%%&&&&&&&&&%*;",
"&''''),'')))))))))))))))))))))))))))))*&&%$%'",
"%''))))))))*)))))))))))*)))))*))))))))**&%$%)",
"%))))))))')*)))))))')*)))))))))))*))*&**&&&%)",
"$)))))))))))))))))))))))))))))))')))))***&&&)",
"$)))))***)))*))******)))*))))))))))))))**&&&)",
"$*))))**&))**))*))*)*))****)))))))**)*)**&&&)",
"!))**)***)***)))*****&***)**)*)**)*****&&%&&)",
"#****&***********&******&********&%&***&&&&&)",
"#*&&*&&*****&&&*&&*&&&&&&*&&**&*&*&%&&&&%%%%)",
"#&&&&%%%%&%&&&&%&&&%&%%&%&&&&&%%&&&&%%&%%%%%)",
"#&&$%%&%&%&&%&&%%%%%%%$%%%%%%&%%%%%%%%%%%$$$*",
"@%%%$$$$%%$$%%%%%$$!$$%%%%$!!$$%%%%$$%%$!!$#*",
"@$$%$$!!$$$$$$#$$!$$$$!$$$!!#!%!%!$$!$$!!###&",
"+##!!!#!#!#!$!!!!!$!!!!$$$!$!$#!#@##!!!!##@#&",
"+@@#!!#@####!###!!!##!!!!##!#!#!#!!##!##@@@#&",
"+#######@#####@#####@@#@##@##########@##@@@#&",
"+##@##@@@#####@@@#@@+@@#@@@@@@@#@@###@@@@@+@%",
"~+++@@@@@@@@@++@@@@+++@+++@@++@@@~@@@@@@@+~+%",
"~++@@@+@+@~+++++@@+++@@@+~++++++++++++++++++%",
"{++++++~]->>;;+^~++++]+^~++++]+>-;;;>+~++~~~$",
"{~~~~++~^////;+^]~~~]^+^]~~~]^+^/..(>~~~~{~~$",
"{~~~~~~~^>;>;]{^.]~]/=~^.]~]/=+^~~~~>~~~~~~~#",
"{{+{{~~~^/..(^{^{.]/{>~^{.]/{>~^~~~~>{~{~~{~!",
" ({+{{{~]{{{{]{^{{.{{>{^{{.{{>{-;>>>={~{{~~~!",
"   {+{{{/{{{{/{/{{{{{.{/{{{{{.{.///..{~{~~{~$",
"    {+{{{{{{{{{{{{{{{{{{{{{{{{{{{{{{{{{{{{~~#",
"     {++++@@@#!!!#!##!!!######@###@@+++++++@@",
"       ({{{{{{{{{{{{{{{{{{{{{{{{{{{{{{{{{{~{ "};
